<?xml version="1.0" encoding="utf-8"?>
<svg xmlns="http://www.w3.org/2000/svg" xmlns:xlink="http://www.w3.org/1999/xlink" width="600" height="400" viewBox="0 0 2400 1600">
<defs>
  <clipPath id="clip390">
    <rect x="0" y="0" width="2400" height="1600"/>
  </clipPath>
</defs>
<path clip-path="url(#clip390)" d="M0 1600 L2400 1600 L2400 0 L0 0  Z" fill="#ffffff" fill-rule="evenodd" fill-opacity="1"/>
<defs>
  <clipPath id="clip391">
    <rect x="480" y="0" width="1681" height="1600"/>
  </clipPath>
</defs>
<path clip-path="url(#clip390)" d="M219.866 1423.18 L2352.76 1423.18 L2352.76 47.2441 L219.866 47.2441  Z" fill="#ffffff" fill-rule="evenodd" fill-opacity="1"/>
<defs>
  <clipPath id="clip392">
    <rect x="219" y="47" width="2134" height="1377"/>
  </clipPath>
</defs>
<polyline clip-path="url(#clip390)" style="stroke:#000000; stroke-linecap:round; stroke-linejoin:round; stroke-width:4; stroke-opacity:1; fill:none" points="219.866,1423.18 2352.76,1423.18 "/>
<polyline clip-path="url(#clip390)" style="stroke:#000000; stroke-linecap:round; stroke-linejoin:round; stroke-width:4; stroke-opacity:1; fill:none" points="219.866,1423.18 219.866,1404.28 "/>
<polyline clip-path="url(#clip390)" style="stroke:#000000; stroke-linecap:round; stroke-linejoin:round; stroke-width:4; stroke-opacity:1; fill:none" points="753.089,1423.18 753.089,1404.28 "/>
<polyline clip-path="url(#clip390)" style="stroke:#000000; stroke-linecap:round; stroke-linejoin:round; stroke-width:4; stroke-opacity:1; fill:none" points="1286.31,1423.18 1286.31,1404.28 "/>
<polyline clip-path="url(#clip390)" style="stroke:#000000; stroke-linecap:round; stroke-linejoin:round; stroke-width:4; stroke-opacity:1; fill:none" points="1819.53,1423.18 1819.53,1404.28 "/>
<polyline clip-path="url(#clip390)" style="stroke:#000000; stroke-linecap:round; stroke-linejoin:round; stroke-width:4; stroke-opacity:1; fill:none" points="2352.76,1423.18 2352.76,1404.28 "/>
<path clip-path="url(#clip390)" d="M219.866 1454.1 Q216.255 1454.1 214.426 1457.66 Q212.621 1461.2 212.621 1468.33 Q212.621 1475.44 214.426 1479.01 Q216.255 1482.55 219.866 1482.55 Q223.501 1482.55 225.306 1479.01 Q227.135 1475.44 227.135 1468.33 Q227.135 1461.2 225.306 1457.66 Q223.501 1454.1 219.866 1454.1 M219.866 1450.39 Q225.676 1450.39 228.732 1455 Q231.811 1459.58 231.811 1468.33 Q231.811 1477.06 228.732 1481.67 Q225.676 1486.25 219.866 1486.25 Q214.056 1486.25 210.977 1481.67 Q207.922 1477.06 207.922 1468.33 Q207.922 1459.58 210.977 1455 Q214.056 1450.39 219.866 1450.39 Z" fill="#000000" fill-rule="nonzero" fill-opacity="1" /><path clip-path="url(#clip390)" d="M743.367 1451.02 L761.723 1451.02 L761.723 1454.96 L747.649 1454.96 L747.649 1463.43 Q748.667 1463.08 749.686 1462.92 Q750.704 1462.73 751.723 1462.73 Q757.51 1462.73 760.89 1465.9 Q764.269 1469.08 764.269 1474.49 Q764.269 1480.07 760.797 1483.17 Q757.325 1486.25 751.005 1486.25 Q748.829 1486.25 746.561 1485.88 Q744.316 1485.51 741.908 1484.77 L741.908 1480.07 Q743.992 1481.2 746.214 1481.76 Q748.436 1482.32 750.913 1482.32 Q754.917 1482.32 757.255 1480.21 Q759.593 1478.1 759.593 1474.49 Q759.593 1470.88 757.255 1468.77 Q754.917 1466.67 750.913 1466.67 Q749.038 1466.67 747.163 1467.08 Q745.311 1467.5 743.367 1468.38 L743.367 1451.02 Z" fill="#000000" fill-rule="nonzero" fill-opacity="1" /><path clip-path="url(#clip390)" d="M1261 1481.64 L1268.64 1481.64 L1268.64 1455.28 L1260.33 1456.95 L1260.33 1452.69 L1268.59 1451.02 L1273.27 1451.02 L1273.27 1481.64 L1280.91 1481.64 L1280.91 1485.58 L1261 1485.58 L1261 1481.64 Z" fill="#000000" fill-rule="nonzero" fill-opacity="1" /><path clip-path="url(#clip390)" d="M1300.35 1454.1 Q1296.74 1454.1 1294.91 1457.66 Q1293.11 1461.2 1293.11 1468.33 Q1293.11 1475.44 1294.91 1479.01 Q1296.74 1482.55 1300.35 1482.55 Q1303.98 1482.55 1305.79 1479.01 Q1307.62 1475.44 1307.62 1468.33 Q1307.62 1461.2 1305.79 1457.66 Q1303.98 1454.1 1300.35 1454.1 M1300.35 1450.39 Q1306.16 1450.39 1309.22 1455 Q1312.29 1459.58 1312.29 1468.33 Q1312.29 1477.06 1309.22 1481.67 Q1306.16 1486.25 1300.35 1486.25 Q1294.54 1486.25 1291.46 1481.67 Q1288.41 1477.06 1288.41 1468.33 Q1288.41 1459.58 1291.46 1455 Q1294.54 1450.39 1300.35 1450.39 Z" fill="#000000" fill-rule="nonzero" fill-opacity="1" /><path clip-path="url(#clip390)" d="M1794.72 1481.64 L1802.36 1481.64 L1802.36 1455.28 L1794.05 1456.95 L1794.05 1452.69 L1802.31 1451.02 L1806.99 1451.02 L1806.99 1481.64 L1814.63 1481.64 L1814.63 1485.58 L1794.72 1485.58 L1794.72 1481.64 Z" fill="#000000" fill-rule="nonzero" fill-opacity="1" /><path clip-path="url(#clip390)" d="M1824.12 1451.02 L1842.47 1451.02 L1842.47 1454.96 L1828.4 1454.96 L1828.4 1463.43 Q1829.42 1463.08 1830.44 1462.92 Q1831.45 1462.73 1832.47 1462.73 Q1838.26 1462.73 1841.64 1465.9 Q1845.02 1469.08 1845.02 1474.49 Q1845.02 1480.07 1841.55 1483.17 Q1838.08 1486.25 1831.76 1486.25 Q1829.58 1486.25 1827.31 1485.88 Q1825.07 1485.51 1822.66 1484.77 L1822.66 1480.07 Q1824.74 1481.2 1826.96 1481.76 Q1829.19 1482.32 1831.66 1482.32 Q1835.67 1482.32 1838.01 1480.21 Q1840.34 1478.1 1840.34 1474.49 Q1840.34 1470.88 1838.01 1468.77 Q1835.67 1466.67 1831.66 1466.67 Q1829.79 1466.67 1827.91 1467.08 Q1826.06 1467.5 1824.12 1468.38 L1824.12 1451.02 Z" fill="#000000" fill-rule="nonzero" fill-opacity="1" /><path clip-path="url(#clip390)" d="M2331.53 1481.64 L2347.85 1481.64 L2347.85 1485.58 L2325.9 1485.58 L2325.9 1481.64 Q2328.57 1478.89 2333.15 1474.26 Q2337.76 1469.61 2338.94 1468.27 Q2341.18 1465.74 2342.06 1464.01 Q2342.96 1462.25 2342.96 1460.56 Q2342.96 1457.8 2341.02 1456.07 Q2339.1 1454.33 2336 1454.33 Q2333.8 1454.33 2331.34 1455.09 Q2328.91 1455.86 2326.14 1457.41 L2326.14 1452.69 Q2328.96 1451.55 2331.41 1450.97 Q2333.87 1450.39 2335.9 1450.39 Q2341.27 1450.39 2344.47 1453.08 Q2347.66 1455.77 2347.66 1460.26 Q2347.66 1462.39 2346.85 1464.31 Q2346.07 1466.2 2343.96 1468.8 Q2343.38 1469.47 2340.28 1472.69 Q2337.18 1475.88 2331.53 1481.64 Z" fill="#000000" fill-rule="nonzero" fill-opacity="1" /><path clip-path="url(#clip390)" d="M2367.66 1454.1 Q2364.05 1454.1 2362.22 1457.66 Q2360.42 1461.2 2360.42 1468.33 Q2360.42 1475.44 2362.22 1479.01 Q2364.05 1482.55 2367.66 1482.55 Q2371.3 1482.55 2373.1 1479.01 Q2374.93 1475.44 2374.93 1468.33 Q2374.93 1461.2 2373.1 1457.66 Q2371.3 1454.1 2367.66 1454.1 M2367.66 1450.39 Q2373.47 1450.39 2376.53 1455 Q2379.61 1459.58 2379.61 1468.33 Q2379.61 1477.06 2376.53 1481.67 Q2373.47 1486.25 2367.66 1486.25 Q2361.85 1486.25 2358.77 1481.67 Q2355.72 1477.06 2355.72 1468.33 Q2355.72 1459.58 2358.77 1455 Q2361.85 1450.39 2367.66 1450.39 Z" fill="#000000" fill-rule="nonzero" fill-opacity="1" /><path clip-path="url(#clip390)" d="M1208.19 1520.52 L1248.39 1520.52 L1248.39 1525.93 L1231.52 1525.93 L1231.52 1568.04 L1225.06 1568.04 L1225.06 1525.93 L1208.19 1525.93 L1208.19 1520.52 Z" fill="#000000" fill-rule="nonzero" fill-opacity="1" /><path clip-path="url(#clip390)" d="M1252.33 1532.4 L1258.19 1532.4 L1258.19 1568.04 L1252.33 1568.04 L1252.33 1532.4 M1252.33 1518.52 L1258.19 1518.52 L1258.19 1525.93 L1252.33 1525.93 L1252.33 1518.52 Z" fill="#000000" fill-rule="nonzero" fill-opacity="1" /><path clip-path="url(#clip390)" d="M1298.2 1539.24 Q1300.4 1535.29 1303.45 1533.41 Q1306.51 1531.54 1310.64 1531.54 Q1316.21 1531.54 1319.24 1535.45 Q1322.26 1539.33 1322.26 1546.53 L1322.26 1568.04 L1316.37 1568.04 L1316.37 1546.72 Q1316.37 1541.59 1314.56 1539.11 Q1312.74 1536.63 1309.02 1536.63 Q1304.47 1536.63 1301.83 1539.65 Q1299.19 1542.68 1299.19 1547.9 L1299.19 1568.04 L1293.3 1568.04 L1293.3 1546.72 Q1293.3 1541.56 1291.48 1539.11 Q1289.67 1536.63 1285.88 1536.63 Q1281.39 1536.63 1278.75 1539.68 Q1276.11 1542.71 1276.11 1547.9 L1276.11 1568.04 L1270.22 1568.04 L1270.22 1532.4 L1276.11 1532.4 L1276.11 1537.93 Q1278.12 1534.66 1280.92 1533.1 Q1283.72 1531.54 1287.57 1531.54 Q1291.45 1531.54 1294.16 1533.51 Q1296.89 1535.48 1298.2 1539.24 Z" fill="#000000" fill-rule="nonzero" fill-opacity="1" /><path clip-path="url(#clip390)" d="M1364.43 1548.76 L1364.43 1551.62 L1337.51 1551.62 Q1337.89 1557.67 1341.14 1560.85 Q1344.41 1564 1350.24 1564 Q1353.61 1564 1356.76 1563.17 Q1359.95 1562.35 1363.07 1560.69 L1363.07 1566.23 Q1359.91 1567.57 1356.6 1568.27 Q1353.29 1568.97 1349.89 1568.97 Q1341.36 1568.97 1336.36 1564 Q1331.4 1559.04 1331.4 1550.57 Q1331.4 1541.82 1336.11 1536.69 Q1340.85 1531.54 1348.87 1531.54 Q1356.06 1531.54 1360.23 1536.18 Q1364.43 1540.8 1364.43 1548.76 M1358.58 1547.04 Q1358.51 1542.23 1355.87 1539.37 Q1353.26 1536.5 1348.93 1536.5 Q1344.03 1536.5 1341.07 1539.27 Q1338.14 1542.04 1337.7 1547.07 L1358.58 1547.04 Z" fill="#000000" fill-rule="nonzero" fill-opacity="1" /><polyline clip-path="url(#clip390)" style="stroke:#000000; stroke-linecap:round; stroke-linejoin:round; stroke-width:4; stroke-opacity:1; fill:none" points="219.866,1423.18 219.866,47.2441 "/>
<polyline clip-path="url(#clip390)" style="stroke:#000000; stroke-linecap:round; stroke-linejoin:round; stroke-width:4; stroke-opacity:1; fill:none" points="219.866,1384.24 238.764,1384.24 "/>
<polyline clip-path="url(#clip390)" style="stroke:#000000; stroke-linecap:round; stroke-linejoin:round; stroke-width:4; stroke-opacity:1; fill:none" points="219.866,1104.67 238.764,1104.67 "/>
<polyline clip-path="url(#clip390)" style="stroke:#000000; stroke-linecap:round; stroke-linejoin:round; stroke-width:4; stroke-opacity:1; fill:none" points="219.866,825.101 238.764,825.101 "/>
<polyline clip-path="url(#clip390)" style="stroke:#000000; stroke-linecap:round; stroke-linejoin:round; stroke-width:4; stroke-opacity:1; fill:none" points="219.866,545.532 238.764,545.532 "/>
<polyline clip-path="url(#clip390)" style="stroke:#000000; stroke-linecap:round; stroke-linejoin:round; stroke-width:4; stroke-opacity:1; fill:none" points="219.866,265.963 238.764,265.963 "/>
<path clip-path="url(#clip390)" d="M126.691 1370.04 Q123.08 1370.04 121.251 1373.6 Q119.445 1377.14 119.445 1384.27 Q119.445 1391.38 121.251 1394.94 Q123.08 1398.49 126.691 1398.49 Q130.325 1398.49 132.13 1394.94 Q133.959 1391.38 133.959 1384.27 Q133.959 1377.14 132.13 1373.6 Q130.325 1370.04 126.691 1370.04 M126.691 1366.33 Q132.501 1366.33 135.556 1370.94 Q138.635 1375.52 138.635 1384.27 Q138.635 1393 135.556 1397.61 Q132.501 1402.19 126.691 1402.19 Q120.88 1402.19 117.802 1397.61 Q114.746 1393 114.746 1384.27 Q114.746 1375.52 117.802 1370.94 Q120.88 1366.33 126.691 1366.33 Z" fill="#000000" fill-rule="nonzero" fill-opacity="1" /><path clip-path="url(#clip390)" d="M146.853 1395.64 L151.737 1395.64 L151.737 1401.52 L146.853 1401.52 L146.853 1395.64 Z" fill="#000000" fill-rule="nonzero" fill-opacity="1" /><path clip-path="url(#clip390)" d="M171.922 1370.04 Q168.311 1370.04 166.482 1373.6 Q164.677 1377.14 164.677 1384.27 Q164.677 1391.38 166.482 1394.94 Q168.311 1398.49 171.922 1398.49 Q175.556 1398.49 177.362 1394.94 Q179.19 1391.38 179.19 1384.27 Q179.19 1377.14 177.362 1373.6 Q175.556 1370.04 171.922 1370.04 M171.922 1366.33 Q177.732 1366.33 180.788 1370.94 Q183.866 1375.52 183.866 1384.27 Q183.866 1393 180.788 1397.61 Q177.732 1402.19 171.922 1402.19 Q166.112 1402.19 163.033 1397.61 Q159.978 1393 159.978 1384.27 Q159.978 1375.52 163.033 1370.94 Q166.112 1366.33 171.922 1366.33 Z" fill="#000000" fill-rule="nonzero" fill-opacity="1" /><path clip-path="url(#clip390)" d="M128.288 1090.47 Q124.677 1090.47 122.848 1094.03 Q121.043 1097.57 121.043 1104.7 Q121.043 1111.81 122.848 1115.38 Q124.677 1118.92 128.288 1118.92 Q131.922 1118.92 133.728 1115.38 Q135.556 1111.81 135.556 1104.7 Q135.556 1097.57 133.728 1094.03 Q131.922 1090.47 128.288 1090.47 M128.288 1086.76 Q134.098 1086.76 137.154 1091.37 Q140.232 1095.95 140.232 1104.7 Q140.232 1113.43 137.154 1118.04 Q134.098 1122.62 128.288 1122.62 Q122.478 1122.62 119.399 1118.04 Q116.343 1113.43 116.343 1104.7 Q116.343 1095.95 119.399 1091.37 Q122.478 1086.76 128.288 1086.76 Z" fill="#000000" fill-rule="nonzero" fill-opacity="1" /><path clip-path="url(#clip390)" d="M148.45 1116.07 L153.334 1116.07 L153.334 1121.95 L148.45 1121.95 L148.45 1116.07 Z" fill="#000000" fill-rule="nonzero" fill-opacity="1" /><path clip-path="url(#clip390)" d="M167.547 1118.01 L183.866 1118.01 L183.866 1121.95 L161.922 1121.95 L161.922 1118.01 Q164.584 1115.26 169.167 1110.63 Q173.774 1105.98 174.954 1104.63 Q177.2 1102.11 178.079 1100.38 Q178.982 1098.62 178.982 1096.93 Q178.982 1094.17 177.038 1092.44 Q175.116 1090.7 172.014 1090.7 Q169.815 1090.7 167.362 1091.46 Q164.931 1092.23 162.153 1093.78 L162.153 1089.06 Q164.977 1087.92 167.431 1087.34 Q169.885 1086.76 171.922 1086.76 Q177.292 1086.76 180.487 1089.45 Q183.681 1092.13 183.681 1096.63 Q183.681 1098.76 182.871 1100.68 Q182.084 1102.57 179.977 1105.17 Q179.399 1105.84 176.297 1109.06 Q173.195 1112.25 167.547 1118.01 Z" fill="#000000" fill-rule="nonzero" fill-opacity="1" /><path clip-path="url(#clip390)" d="M126.205 810.899 Q122.593 810.899 120.765 814.464 Q118.959 818.006 118.959 825.135 Q118.959 832.242 120.765 835.807 Q122.593 839.348 126.205 839.348 Q129.839 839.348 131.644 835.807 Q133.473 832.242 133.473 825.135 Q133.473 818.006 131.644 814.464 Q129.839 810.899 126.205 810.899 M126.205 807.196 Q132.015 807.196 135.07 811.802 Q138.149 816.385 138.149 825.135 Q138.149 833.862 135.07 838.469 Q132.015 843.052 126.205 843.052 Q120.394 843.052 117.316 838.469 Q114.26 833.862 114.26 825.135 Q114.26 816.385 117.316 811.802 Q120.394 807.196 126.205 807.196 Z" fill="#000000" fill-rule="nonzero" fill-opacity="1" /><path clip-path="url(#clip390)" d="M146.366 836.501 L151.251 836.501 L151.251 842.381 L146.366 842.381 L146.366 836.501 Z" fill="#000000" fill-rule="nonzero" fill-opacity="1" /><path clip-path="url(#clip390)" d="M174.283 811.895 L162.477 830.344 L174.283 830.344 L174.283 811.895 M173.056 807.821 L178.936 807.821 L178.936 830.344 L183.866 830.344 L183.866 834.233 L178.936 834.233 L178.936 842.381 L174.283 842.381 L174.283 834.233 L158.681 834.233 L158.681 829.719 L173.056 807.821 Z" fill="#000000" fill-rule="nonzero" fill-opacity="1" /><path clip-path="url(#clip390)" d="M126.529 531.331 Q122.918 531.331 121.089 534.895 Q119.283 538.437 119.283 545.567 Q119.283 552.673 121.089 556.238 Q122.918 559.779 126.529 559.779 Q130.163 559.779 131.968 556.238 Q133.797 552.673 133.797 545.567 Q133.797 538.437 131.968 534.895 Q130.163 531.331 126.529 531.331 M126.529 527.627 Q132.339 527.627 135.394 532.233 Q138.473 536.817 138.473 545.567 Q138.473 554.293 135.394 558.9 Q132.339 563.483 126.529 563.483 Q120.718 563.483 117.64 558.9 Q114.584 554.293 114.584 545.567 Q114.584 536.817 117.64 532.233 Q120.718 527.627 126.529 527.627 Z" fill="#000000" fill-rule="nonzero" fill-opacity="1" /><path clip-path="url(#clip390)" d="M146.691 556.932 L151.575 556.932 L151.575 562.812 L146.691 562.812 L146.691 556.932 Z" fill="#000000" fill-rule="nonzero" fill-opacity="1" /><path clip-path="url(#clip390)" d="M172.339 543.668 Q169.19 543.668 167.339 545.821 Q165.51 547.974 165.51 551.724 Q165.51 555.451 167.339 557.627 Q169.19 559.779 172.339 559.779 Q175.487 559.779 177.315 557.627 Q179.167 555.451 179.167 551.724 Q179.167 547.974 177.315 545.821 Q175.487 543.668 172.339 543.668 M181.621 529.016 L181.621 533.275 Q179.862 532.442 178.056 532.002 Q176.274 531.562 174.514 531.562 Q169.885 531.562 167.431 534.687 Q165.001 537.812 164.653 544.131 Q166.019 542.118 168.079 541.053 Q170.139 539.965 172.616 539.965 Q177.825 539.965 180.834 543.136 Q183.866 546.284 183.866 551.724 Q183.866 557.048 180.718 560.266 Q177.57 563.483 172.339 563.483 Q166.343 563.483 163.172 558.9 Q160.001 554.293 160.001 545.567 Q160.001 537.372 163.89 532.511 Q167.778 527.627 174.329 527.627 Q176.089 527.627 177.871 527.974 Q179.676 528.321 181.621 529.016 Z" fill="#000000" fill-rule="nonzero" fill-opacity="1" /><path clip-path="url(#clip390)" d="M126.783 251.762 Q123.172 251.762 121.343 255.327 Q119.538 258.868 119.538 265.998 Q119.538 273.104 121.343 276.669 Q123.172 280.211 126.783 280.211 Q130.417 280.211 132.223 276.669 Q134.052 273.104 134.052 265.998 Q134.052 258.868 132.223 255.327 Q130.417 251.762 126.783 251.762 M126.783 248.058 Q132.593 248.058 135.649 252.664 Q138.728 257.248 138.728 265.998 Q138.728 274.725 135.649 279.331 Q132.593 283.914 126.783 283.914 Q120.973 283.914 117.894 279.331 Q114.839 274.725 114.839 265.998 Q114.839 257.248 117.894 252.664 Q120.973 248.058 126.783 248.058 Z" fill="#000000" fill-rule="nonzero" fill-opacity="1" /><path clip-path="url(#clip390)" d="M146.945 277.363 L151.829 277.363 L151.829 283.243 L146.945 283.243 L146.945 277.363 Z" fill="#000000" fill-rule="nonzero" fill-opacity="1" /><path clip-path="url(#clip390)" d="M172.014 266.831 Q168.681 266.831 166.76 268.613 Q164.862 270.396 164.862 273.521 Q164.862 276.646 166.76 278.428 Q168.681 280.211 172.014 280.211 Q175.348 280.211 177.269 278.428 Q179.19 276.623 179.19 273.521 Q179.19 270.396 177.269 268.613 Q175.371 266.831 172.014 266.831 M167.339 264.84 Q164.329 264.1 162.64 262.039 Q160.973 259.979 160.973 257.016 Q160.973 252.873 163.913 250.465 Q166.876 248.058 172.014 248.058 Q177.176 248.058 180.116 250.465 Q183.056 252.873 183.056 257.016 Q183.056 259.979 181.366 262.039 Q179.7 264.1 176.714 264.84 Q180.093 265.627 181.968 267.919 Q183.866 270.211 183.866 273.521 Q183.866 278.544 180.788 281.229 Q177.732 283.914 172.014 283.914 Q166.297 283.914 163.218 281.229 Q160.163 278.544 160.163 273.521 Q160.163 270.211 162.061 267.919 Q163.959 265.627 167.339 264.84 M165.626 257.456 Q165.626 260.141 167.292 261.646 Q168.982 263.151 172.014 263.151 Q175.024 263.151 176.714 261.646 Q178.426 260.141 178.426 257.456 Q178.426 254.771 176.714 253.266 Q175.024 251.762 172.014 251.762 Q168.982 251.762 167.292 253.266 Q165.626 254.771 165.626 257.456 Z" fill="#000000" fill-rule="nonzero" fill-opacity="1" /><path clip-path="url(#clip390)" d="M20.1444 999.707 L26.9239 999.707 Q23.9002 1002.95 22.4043 1006.65 Q20.9083 1010.31 20.9083 1014.44 Q20.9083 1022.59 25.9054 1026.92 Q30.8707 1031.25 40.2919 1031.25 Q49.6813 1031.25 54.6784 1026.92 Q59.6436 1022.59 59.6436 1014.44 Q59.6436 1010.31 58.1477 1006.65 Q56.6518 1002.95 53.6281 999.707 L60.3439 999.707 Q62.6355 1003.08 63.7814 1006.87 Q64.9272 1010.62 64.9272 1014.83 Q64.9272 1025.62 58.3387 1031.82 Q51.7183 1038.03 40.2919 1038.03 Q28.8336 1038.03 22.2451 1031.82 Q15.6248 1025.62 15.6248 1014.83 Q15.6248 1010.56 16.7706 1006.8 Q17.8846 1003.02 20.1444 999.707 Z" fill="#000000" fill-rule="nonzero" fill-opacity="1" /><path clip-path="url(#clip390)" d="M49.9359 990.636 L28.3562 990.636 L28.3562 984.779 L49.7131 984.779 Q54.7739 984.779 57.3202 982.806 Q59.8346 980.833 59.8346 976.886 Q59.8346 972.144 56.8109 969.406 Q53.7872 966.637 48.5673 966.637 L28.3562 966.637 L28.3562 960.781 L64.0042 960.781 L64.0042 966.637 L58.5296 966.637 Q61.7762 968.77 63.3676 971.602 Q64.9272 974.403 64.9272 978.127 Q64.9272 984.27 61.1078 987.453 Q57.2883 990.636 49.9359 990.636 M27.4968 975.899 L27.4968 975.899 Z" fill="#000000" fill-rule="nonzero" fill-opacity="1" /><path clip-path="url(#clip390)" d="M35.1993 920.963 Q31.2526 918.767 29.3747 915.712 Q27.4968 912.656 27.4968 908.518 Q27.4968 902.948 31.4117 899.925 Q35.2948 896.901 42.4881 896.901 L64.0042 896.901 L64.0042 902.789 L42.679 902.789 Q37.5546 902.789 35.072 904.603 Q32.5894 906.418 32.5894 910.142 Q32.5894 914.693 35.6131 917.335 Q38.6368 919.977 43.8567 919.977 L64.0042 919.977 L64.0042 925.865 L42.679 925.865 Q37.5228 925.865 35.072 927.679 Q32.5894 929.493 32.5894 933.281 Q32.5894 937.769 35.6449 940.411 Q38.6686 943.052 43.8567 943.052 L64.0042 943.052 L64.0042 948.941 L28.3562 948.941 L28.3562 943.052 L33.8944 943.052 Q30.616 941.047 29.0564 938.246 Q27.4968 935.445 27.4968 931.594 Q27.4968 927.711 29.4702 925.006 Q31.4436 922.268 35.1993 920.963 Z" fill="#000000" fill-rule="nonzero" fill-opacity="1" /><path clip-path="url(#clip390)" d="M49.9359 885.825 L28.3562 885.825 L28.3562 879.968 L49.7131 879.968 Q54.7739 879.968 57.3202 877.995 Q59.8346 876.021 59.8346 872.075 Q59.8346 867.332 56.8109 864.595 Q53.7872 861.826 48.5673 861.826 L28.3562 861.826 L28.3562 855.969 L64.0042 855.969 L64.0042 861.826 L58.5296 861.826 Q61.7762 863.958 63.3676 866.791 Q64.9272 869.592 64.9272 873.316 Q64.9272 879.459 61.1078 882.642 Q57.2883 885.825 49.9359 885.825 M27.4968 871.088 L27.4968 871.088 Z" fill="#000000" fill-rule="nonzero" fill-opacity="1" /><path clip-path="url(#clip390)" d="M14.479 843.906 L14.479 838.05 L64.0042 838.05 L64.0042 843.906 L14.479 843.906 Z" fill="#000000" fill-rule="nonzero" fill-opacity="1" /><path clip-path="url(#clip390)" d="M46.0847 809.595 Q46.0847 816.693 47.7079 819.43 Q49.3312 822.168 53.2461 822.168 Q56.3653 822.168 58.2114 820.13 Q60.0256 818.062 60.0256 814.529 Q60.0256 809.659 56.5881 806.731 Q53.1188 803.771 47.3897 803.771 L46.0847 803.771 L46.0847 809.595 M43.6657 797.914 L64.0042 797.914 L64.0042 803.771 L58.5933 803.771 Q61.8398 805.776 63.3994 808.768 Q64.9272 811.76 64.9272 816.088 Q64.9272 821.563 61.8716 824.809 Q58.7843 828.024 53.6281 828.024 Q47.6125 828.024 44.5569 824.014 Q41.5014 819.971 41.5014 811.982 L41.5014 803.771 L40.9285 803.771 Q36.8862 803.771 34.6901 806.444 Q32.4621 809.086 32.4621 813.892 Q32.4621 816.948 33.1941 819.844 Q33.9262 822.74 35.3903 825.414 L29.9795 825.414 Q28.7381 822.199 28.1334 819.176 Q27.4968 816.152 27.4968 813.287 Q27.4968 805.553 31.5072 801.734 Q35.5176 797.914 43.6657 797.914 Z" fill="#000000" fill-rule="nonzero" fill-opacity="1" /><path clip-path="url(#clip390)" d="M18.2347 780.058 L28.3562 780.058 L28.3562 767.995 L32.9077 767.995 L32.9077 780.058 L52.2594 780.058 Q56.6199 780.058 57.8613 778.881 Q59.1026 777.671 59.1026 774.011 L59.1026 767.995 L64.0042 767.995 L64.0042 774.011 Q64.0042 780.79 61.4897 783.369 Q58.9434 785.947 52.2594 785.947 L32.9077 785.947 L32.9077 790.244 L28.3562 790.244 L28.3562 785.947 L18.2347 785.947 L18.2347 780.058 Z" fill="#000000" fill-rule="nonzero" fill-opacity="1" /><path clip-path="url(#clip390)" d="M28.3562 760.293 L28.3562 754.436 L64.0042 754.436 L64.0042 760.293 L28.3562 760.293 M14.479 760.293 L14.479 754.436 L21.895 754.436 L21.895 760.293 L14.479 760.293 Z" fill="#000000" fill-rule="nonzero" fill-opacity="1" /><path clip-path="url(#clip390)" d="M28.3562 746.384 L28.3562 740.177 L58.275 729.037 L28.3562 717.897 L28.3562 711.691 L64.0042 725.059 L64.0042 733.016 L28.3562 746.384 Z" fill="#000000" fill-rule="nonzero" fill-opacity="1" /><path clip-path="url(#clip390)" d="M44.7161 673.115 L47.5806 673.115 L47.5806 700.041 Q53.6281 699.659 56.8109 696.413 Q59.9619 693.135 59.9619 687.31 Q59.9619 683.936 59.1344 680.785 Q58.3069 677.602 56.6518 674.483 L62.1899 674.483 Q63.5267 677.634 64.227 680.944 Q64.9272 684.254 64.9272 687.66 Q64.9272 696.19 59.9619 701.187 Q54.9967 706.153 46.5303 706.153 Q37.7774 706.153 32.6531 701.442 Q27.4968 696.699 27.4968 688.679 Q27.4968 681.485 32.1438 677.316 Q36.7589 673.115 44.7161 673.115 M42.9973 678.971 Q38.1912 679.035 35.3266 681.676 Q32.4621 684.286 32.4621 688.615 Q32.4621 693.517 35.2312 696.477 Q38.0002 699.405 43.0292 699.85 L42.9973 678.971 Z" fill="#000000" fill-rule="nonzero" fill-opacity="1" /><path clip-path="url(#clip390)" d="M42.4881 613.15 L64.0042 613.15 L64.0042 619.006 L42.679 619.006 Q37.6183 619.006 35.1038 620.979 Q32.5894 622.953 32.5894 626.899 Q32.5894 631.642 35.6131 634.379 Q38.6368 637.116 43.8567 637.116 L64.0042 637.116 L64.0042 643.005 L14.479 643.005 L14.479 637.116 L33.8944 637.116 Q30.6797 635.016 29.0883 632.183 Q27.4968 629.318 27.4968 625.595 Q27.4968 619.452 31.3163 616.301 Q35.1038 613.15 42.4881 613.15 Z" fill="#000000" fill-rule="nonzero" fill-opacity="1" /><path clip-path="url(#clip390)" d="M46.0847 585.268 Q46.0847 592.366 47.7079 595.103 Q49.3312 597.84 53.2461 597.84 Q56.3653 597.84 58.2114 595.803 Q60.0256 593.734 60.0256 590.201 Q60.0256 585.331 56.5881 582.403 Q53.1188 579.443 47.3897 579.443 L46.0847 579.443 L46.0847 585.268 M43.6657 573.587 L64.0042 573.587 L64.0042 579.443 L58.5933 579.443 Q61.8398 581.448 63.3994 584.44 Q64.9272 587.432 64.9272 591.761 Q64.9272 597.235 61.8716 600.482 Q58.7843 603.696 53.6281 603.696 Q47.6125 603.696 44.5569 599.686 Q41.5014 595.644 41.5014 587.655 L41.5014 579.443 L40.9285 579.443 Q36.8862 579.443 34.6901 582.117 Q32.4621 584.758 32.4621 589.565 Q32.4621 592.62 33.1941 595.517 Q33.9262 598.413 35.3903 601.087 L29.9795 601.087 Q28.7381 597.872 28.1334 594.848 Q27.4968 591.824 27.4968 588.96 Q27.4968 581.226 31.5072 577.406 Q35.5176 573.587 43.6657 573.587 Z" fill="#000000" fill-rule="nonzero" fill-opacity="1" /><path clip-path="url(#clip390)" d="M28.3562 564.07 L28.3562 536.252 L33.7034 536.252 L59.3254 558.277 L59.3254 536.252 L64.0042 536.252 L64.0042 564.866 L58.657 564.866 L33.035 542.84 L33.035 564.07 L28.3562 564.07 Z" fill="#000000" fill-rule="nonzero" fill-opacity="1" /><path clip-path="url(#clip390)" d="M46.0847 511.107 Q46.0847 518.205 47.7079 520.942 Q49.3312 523.68 53.2461 523.68 Q56.3653 523.68 58.2114 521.643 Q60.0256 519.574 60.0256 516.041 Q60.0256 511.171 56.5881 508.243 Q53.1188 505.283 47.3897 505.283 L46.0847 505.283 L46.0847 511.107 M43.6657 499.426 L64.0042 499.426 L64.0042 505.283 L58.5933 505.283 Q61.8398 507.288 63.3994 510.28 Q64.9272 513.272 64.9272 517.6 Q64.9272 523.075 61.8716 526.321 Q58.7843 529.536 53.6281 529.536 Q47.6125 529.536 44.5569 525.526 Q41.5014 521.483 41.5014 513.494 L41.5014 505.283 L40.9285 505.283 Q36.8862 505.283 34.6901 507.956 Q32.4621 510.598 32.4621 515.404 Q32.4621 518.46 33.1941 521.356 Q33.9262 524.252 35.3903 526.926 L29.9795 526.926 Q28.7381 523.711 28.1334 520.688 Q27.4968 517.664 27.4968 514.799 Q27.4968 507.065 31.5072 503.246 Q35.5176 499.426 43.6657 499.426 Z" fill="#000000" fill-rule="nonzero" fill-opacity="1" /><path clip-path="url(#clip390)" d="M33.8307 466.706 Q33.2578 467.693 33.0032 468.871 Q32.7167 470.017 32.7167 471.417 Q32.7167 476.382 35.9632 479.056 Q39.1779 481.698 45.2253 481.698 L64.0042 481.698 L64.0042 487.586 L28.3562 487.586 L28.3562 481.698 L33.8944 481.698 Q30.6479 479.852 29.0883 476.892 Q27.4968 473.932 27.4968 469.698 Q27.4968 469.094 27.5923 468.362 Q27.656 467.629 27.8151 466.738 L33.8307 466.706 Z" fill="#000000" fill-rule="nonzero" fill-opacity="1" /><path clip-path="url(#clip390)" d="M33.7671 438.252 L14.479 438.252 L14.479 432.395 L64.0042 432.395 L64.0042 438.252 L58.657 438.252 Q61.8398 440.098 63.3994 442.931 Q64.9272 445.731 64.9272 449.678 Q64.9272 456.139 59.771 460.213 Q54.6147 464.256 46.212 464.256 Q37.8093 464.256 32.6531 460.213 Q27.4968 456.139 27.4968 449.678 Q27.4968 445.731 29.0564 442.931 Q30.5842 440.098 33.7671 438.252 M46.212 458.208 Q52.6732 458.208 56.3653 455.566 Q60.0256 452.893 60.0256 448.246 Q60.0256 443.599 56.3653 440.925 Q52.6732 438.252 46.212 438.252 Q39.7508 438.252 36.0905 440.925 Q32.3984 443.599 32.3984 448.246 Q32.3984 452.893 36.0905 455.566 Q39.7508 458.208 46.212 458.208 Z" fill="#000000" fill-rule="nonzero" fill-opacity="1" /><polyline clip-path="url(#clip392)" style="stroke:#009af9; stroke-linecap:round; stroke-linejoin:round; stroke-width:4; stroke-opacity:1; fill:none" points="219.866,1384.24 326.511,1384.24 326.511,1326.3 433.155,1326.3 433.155,1231.89 539.8,1231.89 539.8,1194.29 646.444,1194.29 646.444,1128.73 753.089,1128.73 753.089,1042.98 859.733,1042.98 859.733,986.348 966.378,986.348 966.378,827.627 1073.02,827.627 1073.02,809.879 1179.67,809.879 1179.67,667.693 1286.31,667.693 1286.31,602.791 1392.96,602.791 1392.96,503.945 1499.6,503.945 1499.6,399.317 1606.24,399.317 1606.24,322.116 1926.18,322.116 1926.18,189.14 2352.76,189.14 2352.76,86.1857 "/>
</svg>
