<?xml version="1.0" encoding="utf-8"?>
<svg xmlns="http://www.w3.org/2000/svg" xmlns:xlink="http://www.w3.org/1999/xlink" width="600" height="400" viewBox="0 0 2400 1600">
<defs>
  <clipPath id="clip150">
    <rect x="0" y="0" width="2400" height="1600"/>
  </clipPath>
</defs>
<path clip-path="url(#clip150)" d="M0 1600 L2400 1600 L2400 0 L0 0  Z" fill="#ffffff" fill-rule="evenodd" fill-opacity="1"/>
<defs>
  <clipPath id="clip151">
    <rect x="480" y="0" width="1681" height="1600"/>
  </clipPath>
</defs>
<path clip-path="url(#clip150)" d="M219.866 1423.18 L2352.76 1423.18 L2352.76 123.472 L219.866 123.472  Z" fill="#ffffff" fill-rule="evenodd" fill-opacity="1"/>
<defs>
  <clipPath id="clip152">
    <rect x="219" y="123" width="2134" height="1301"/>
  </clipPath>
</defs>
<polyline clip-path="url(#clip150)" style="stroke:#000000; stroke-linecap:round; stroke-linejoin:round; stroke-width:4; stroke-opacity:1; fill:none" points="219.866,1423.18 2352.76,1423.18 "/>
<polyline clip-path="url(#clip150)" style="stroke:#000000; stroke-linecap:round; stroke-linejoin:round; stroke-width:4; stroke-opacity:1; fill:none" points="280.231,1423.18 280.231,1404.28 "/>
<polyline clip-path="url(#clip150)" style="stroke:#000000; stroke-linecap:round; stroke-linejoin:round; stroke-width:4; stroke-opacity:1; fill:none" points="783.271,1423.18 783.271,1404.28 "/>
<polyline clip-path="url(#clip150)" style="stroke:#000000; stroke-linecap:round; stroke-linejoin:round; stroke-width:4; stroke-opacity:1; fill:none" points="1286.31,1423.18 1286.31,1404.28 "/>
<polyline clip-path="url(#clip150)" style="stroke:#000000; stroke-linecap:round; stroke-linejoin:round; stroke-width:4; stroke-opacity:1; fill:none" points="1789.35,1423.18 1789.35,1404.28 "/>
<polyline clip-path="url(#clip150)" style="stroke:#000000; stroke-linecap:round; stroke-linejoin:round; stroke-width:4; stroke-opacity:1; fill:none" points="2292.39,1423.18 2292.39,1404.28 "/>
<path clip-path="url(#clip150)" d="M280.231 1454.1 Q276.62 1454.1 274.791 1457.66 Q272.986 1461.2 272.986 1468.33 Q272.986 1475.44 274.791 1479.01 Q276.62 1482.55 280.231 1482.55 Q283.865 1482.55 285.671 1479.01 Q287.5 1475.44 287.5 1468.33 Q287.5 1461.2 285.671 1457.66 Q283.865 1454.1 280.231 1454.1 M280.231 1450.39 Q286.041 1450.39 289.097 1455 Q292.175 1459.58 292.175 1468.33 Q292.175 1477.06 289.097 1481.67 Q286.041 1486.25 280.231 1486.25 Q274.421 1486.25 271.342 1481.67 Q268.287 1477.06 268.287 1468.33 Q268.287 1459.58 271.342 1455 Q274.421 1450.39 280.231 1450.39 Z" fill="#000000" fill-rule="nonzero" fill-opacity="1" /><path clip-path="url(#clip150)" d="M773.549 1451.02 L791.905 1451.02 L791.905 1454.96 L777.831 1454.96 L777.831 1463.43 Q778.85 1463.08 779.868 1462.92 Q780.887 1462.73 781.905 1462.73 Q787.692 1462.73 791.072 1465.9 Q794.452 1469.08 794.452 1474.49 Q794.452 1480.07 790.979 1483.17 Q787.507 1486.25 781.188 1486.25 Q779.012 1486.25 776.743 1485.88 Q774.498 1485.51 772.091 1484.77 L772.091 1480.07 Q774.174 1481.2 776.396 1481.76 Q778.618 1482.32 781.095 1482.32 Q785.1 1482.32 787.438 1480.21 Q789.776 1478.1 789.776 1474.49 Q789.776 1470.88 787.438 1468.77 Q785.1 1466.67 781.095 1466.67 Q779.22 1466.67 777.345 1467.08 Q775.493 1467.5 773.549 1468.38 L773.549 1451.02 Z" fill="#000000" fill-rule="nonzero" fill-opacity="1" /><path clip-path="url(#clip150)" d="M1261 1481.64 L1268.64 1481.64 L1268.64 1455.28 L1260.33 1456.95 L1260.33 1452.69 L1268.59 1451.02 L1273.27 1451.02 L1273.27 1481.64 L1280.91 1481.64 L1280.91 1485.58 L1261 1485.58 L1261 1481.64 Z" fill="#000000" fill-rule="nonzero" fill-opacity="1" /><path clip-path="url(#clip150)" d="M1300.35 1454.1 Q1296.74 1454.1 1294.91 1457.66 Q1293.11 1461.2 1293.11 1468.33 Q1293.11 1475.44 1294.91 1479.01 Q1296.74 1482.55 1300.35 1482.55 Q1303.98 1482.55 1305.79 1479.01 Q1307.62 1475.44 1307.62 1468.33 Q1307.62 1461.2 1305.79 1457.66 Q1303.98 1454.1 1300.35 1454.1 M1300.35 1450.39 Q1306.16 1450.39 1309.22 1455 Q1312.29 1459.58 1312.29 1468.33 Q1312.29 1477.06 1309.22 1481.67 Q1306.16 1486.25 1300.35 1486.25 Q1294.54 1486.25 1291.46 1481.67 Q1288.41 1477.06 1288.41 1468.33 Q1288.41 1459.58 1291.46 1455 Q1294.54 1450.39 1300.35 1450.39 Z" fill="#000000" fill-rule="nonzero" fill-opacity="1" /><path clip-path="url(#clip150)" d="M1764.54 1481.64 L1772.18 1481.64 L1772.18 1455.28 L1763.87 1456.95 L1763.87 1452.69 L1772.13 1451.02 L1776.8 1451.02 L1776.8 1481.64 L1784.44 1481.64 L1784.44 1485.58 L1764.54 1485.58 L1764.54 1481.64 Z" fill="#000000" fill-rule="nonzero" fill-opacity="1" /><path clip-path="url(#clip150)" d="M1793.93 1451.02 L1812.29 1451.02 L1812.29 1454.96 L1798.22 1454.96 L1798.22 1463.43 Q1799.24 1463.08 1800.25 1462.92 Q1801.27 1462.73 1802.29 1462.73 Q1808.08 1462.73 1811.46 1465.9 Q1814.84 1469.08 1814.84 1474.49 Q1814.84 1480.07 1811.36 1483.17 Q1807.89 1486.25 1801.57 1486.25 Q1799.4 1486.25 1797.13 1485.88 Q1794.88 1485.51 1792.48 1484.77 L1792.48 1480.07 Q1794.56 1481.2 1796.78 1481.76 Q1799 1482.32 1801.48 1482.32 Q1805.49 1482.32 1807.82 1480.21 Q1810.16 1478.1 1810.16 1474.49 Q1810.16 1470.88 1807.82 1468.77 Q1805.49 1466.67 1801.48 1466.67 Q1799.61 1466.67 1797.73 1467.08 Q1795.88 1467.5 1793.93 1468.38 L1793.93 1451.02 Z" fill="#000000" fill-rule="nonzero" fill-opacity="1" /><path clip-path="url(#clip150)" d="M2271.16 1481.64 L2287.48 1481.64 L2287.48 1485.58 L2265.54 1485.58 L2265.54 1481.64 Q2268.2 1478.89 2272.78 1474.26 Q2277.39 1469.61 2278.57 1468.27 Q2280.82 1465.74 2281.7 1464.01 Q2282.6 1462.25 2282.6 1460.56 Q2282.6 1457.8 2280.66 1456.07 Q2278.73 1454.33 2275.63 1454.33 Q2273.43 1454.33 2270.98 1455.09 Q2268.55 1455.86 2265.77 1457.41 L2265.77 1452.69 Q2268.59 1451.55 2271.05 1450.97 Q2273.5 1450.39 2275.54 1450.39 Q2280.91 1450.39 2284.1 1453.08 Q2287.3 1455.77 2287.3 1460.26 Q2287.3 1462.39 2286.49 1464.31 Q2285.7 1466.2 2283.59 1468.8 Q2283.02 1469.47 2279.91 1472.69 Q2276.81 1475.88 2271.16 1481.64 Z" fill="#000000" fill-rule="nonzero" fill-opacity="1" /><path clip-path="url(#clip150)" d="M2307.3 1454.1 Q2303.69 1454.1 2301.86 1457.66 Q2300.05 1461.2 2300.05 1468.33 Q2300.05 1475.44 2301.86 1479.01 Q2303.69 1482.55 2307.3 1482.55 Q2310.93 1482.55 2312.74 1479.01 Q2314.57 1475.44 2314.57 1468.33 Q2314.57 1461.2 2312.74 1457.66 Q2310.93 1454.1 2307.3 1454.1 M2307.3 1450.39 Q2313.11 1450.39 2316.16 1455 Q2319.24 1459.58 2319.24 1468.33 Q2319.24 1477.06 2316.16 1481.67 Q2313.11 1486.25 2307.3 1486.25 Q2301.49 1486.25 2298.41 1481.67 Q2295.35 1477.06 2295.35 1468.33 Q2295.35 1459.58 2298.41 1455 Q2301.49 1450.39 2307.3 1450.39 Z" fill="#000000" fill-rule="nonzero" fill-opacity="1" /><path clip-path="url(#clip150)" d="M1208.19 1520.52 L1248.39 1520.52 L1248.39 1525.93 L1231.52 1525.93 L1231.52 1568.04 L1225.06 1568.04 L1225.06 1525.93 L1208.19 1525.93 L1208.19 1520.52 Z" fill="#000000" fill-rule="nonzero" fill-opacity="1" /><path clip-path="url(#clip150)" d="M1252.33 1532.4 L1258.19 1532.4 L1258.19 1568.04 L1252.33 1568.04 L1252.33 1532.4 M1252.33 1518.52 L1258.19 1518.52 L1258.19 1525.93 L1252.33 1525.93 L1252.33 1518.52 Z" fill="#000000" fill-rule="nonzero" fill-opacity="1" /><path clip-path="url(#clip150)" d="M1298.2 1539.24 Q1300.4 1535.29 1303.45 1533.41 Q1306.51 1531.54 1310.64 1531.54 Q1316.21 1531.54 1319.24 1535.45 Q1322.26 1539.33 1322.26 1546.53 L1322.26 1568.04 L1316.37 1568.04 L1316.37 1546.72 Q1316.37 1541.59 1314.56 1539.11 Q1312.74 1536.63 1309.02 1536.63 Q1304.47 1536.63 1301.83 1539.65 Q1299.19 1542.68 1299.19 1547.9 L1299.19 1568.04 L1293.3 1568.04 L1293.3 1546.72 Q1293.3 1541.56 1291.48 1539.11 Q1289.67 1536.63 1285.88 1536.63 Q1281.39 1536.63 1278.75 1539.68 Q1276.11 1542.71 1276.11 1547.9 L1276.11 1568.04 L1270.22 1568.04 L1270.22 1532.4 L1276.11 1532.4 L1276.11 1537.93 Q1278.12 1534.66 1280.92 1533.1 Q1283.72 1531.54 1287.57 1531.54 Q1291.45 1531.54 1294.16 1533.51 Q1296.89 1535.48 1298.2 1539.24 Z" fill="#000000" fill-rule="nonzero" fill-opacity="1" /><path clip-path="url(#clip150)" d="M1364.43 1548.76 L1364.43 1551.62 L1337.51 1551.62 Q1337.89 1557.67 1341.14 1560.85 Q1344.41 1564 1350.24 1564 Q1353.61 1564 1356.76 1563.17 Q1359.95 1562.35 1363.07 1560.69 L1363.07 1566.23 Q1359.91 1567.57 1356.6 1568.27 Q1353.29 1568.97 1349.89 1568.97 Q1341.36 1568.97 1336.36 1564 Q1331.4 1559.04 1331.4 1550.57 Q1331.4 1541.82 1336.11 1536.69 Q1340.85 1531.54 1348.87 1531.54 Q1356.06 1531.54 1360.23 1536.18 Q1364.43 1540.8 1364.43 1548.76 M1358.58 1547.04 Q1358.51 1542.23 1355.87 1539.37 Q1353.26 1536.5 1348.93 1536.5 Q1344.03 1536.5 1341.07 1539.27 Q1338.14 1542.04 1337.7 1547.07 L1358.58 1547.04 Z" fill="#000000" fill-rule="nonzero" fill-opacity="1" /><polyline clip-path="url(#clip150)" style="stroke:#000000; stroke-linecap:round; stroke-linejoin:round; stroke-width:4; stroke-opacity:1; fill:none" points="219.866,1423.18 219.866,123.472 "/>
<polyline clip-path="url(#clip150)" style="stroke:#000000; stroke-linecap:round; stroke-linejoin:round; stroke-width:4; stroke-opacity:1; fill:none" points="219.866,1398.5 238.764,1398.5 "/>
<polyline clip-path="url(#clip150)" style="stroke:#000000; stroke-linecap:round; stroke-linejoin:round; stroke-width:4; stroke-opacity:1; fill:none" points="219.866,1204.41 238.764,1204.41 "/>
<polyline clip-path="url(#clip150)" style="stroke:#000000; stroke-linecap:round; stroke-linejoin:round; stroke-width:4; stroke-opacity:1; fill:none" points="219.866,1010.32 238.764,1010.32 "/>
<polyline clip-path="url(#clip150)" style="stroke:#000000; stroke-linecap:round; stroke-linejoin:round; stroke-width:4; stroke-opacity:1; fill:none" points="219.866,816.223 238.764,816.223 "/>
<polyline clip-path="url(#clip150)" style="stroke:#000000; stroke-linecap:round; stroke-linejoin:round; stroke-width:4; stroke-opacity:1; fill:none" points="219.866,622.13 238.764,622.13 "/>
<polyline clip-path="url(#clip150)" style="stroke:#000000; stroke-linecap:round; stroke-linejoin:round; stroke-width:4; stroke-opacity:1; fill:none" points="219.866,428.037 238.764,428.037 "/>
<polyline clip-path="url(#clip150)" style="stroke:#000000; stroke-linecap:round; stroke-linejoin:round; stroke-width:4; stroke-opacity:1; fill:none" points="219.866,233.943 238.764,233.943 "/>
<path clip-path="url(#clip150)" d="M126.691 1384.3 Q123.08 1384.3 121.251 1387.87 Q119.445 1391.41 119.445 1398.54 Q119.445 1405.64 121.251 1409.21 Q123.08 1412.75 126.691 1412.75 Q130.325 1412.75 132.13 1409.21 Q133.959 1405.64 133.959 1398.54 Q133.959 1391.41 132.13 1387.87 Q130.325 1384.3 126.691 1384.3 M126.691 1380.6 Q132.501 1380.6 135.556 1385.2 Q138.635 1389.79 138.635 1398.54 Q138.635 1407.26 135.556 1411.87 Q132.501 1416.45 126.691 1416.45 Q120.88 1416.45 117.802 1411.87 Q114.746 1407.26 114.746 1398.54 Q114.746 1389.79 117.802 1385.2 Q120.88 1380.6 126.691 1380.6 Z" fill="#000000" fill-rule="nonzero" fill-opacity="1" /><path clip-path="url(#clip150)" d="M146.853 1409.9 L151.737 1409.9 L151.737 1415.78 L146.853 1415.78 L146.853 1409.9 Z" fill="#000000" fill-rule="nonzero" fill-opacity="1" /><path clip-path="url(#clip150)" d="M171.922 1384.3 Q168.311 1384.3 166.482 1387.87 Q164.677 1391.41 164.677 1398.54 Q164.677 1405.64 166.482 1409.21 Q168.311 1412.75 171.922 1412.75 Q175.556 1412.75 177.362 1409.21 Q179.19 1405.64 179.19 1398.54 Q179.19 1391.41 177.362 1387.87 Q175.556 1384.3 171.922 1384.3 M171.922 1380.6 Q177.732 1380.6 180.788 1385.2 Q183.866 1389.79 183.866 1398.54 Q183.866 1407.26 180.788 1411.87 Q177.732 1416.45 171.922 1416.45 Q166.112 1416.45 163.033 1411.87 Q159.978 1407.26 159.978 1398.54 Q159.978 1389.79 163.033 1385.2 Q166.112 1380.6 171.922 1380.6 Z" fill="#000000" fill-rule="nonzero" fill-opacity="1" /><path clip-path="url(#clip150)" d="M128.288 1190.21 Q124.677 1190.21 122.848 1193.77 Q121.043 1197.31 121.043 1204.44 Q121.043 1211.55 122.848 1215.12 Q124.677 1218.66 128.288 1218.66 Q131.922 1218.66 133.728 1215.12 Q135.556 1211.55 135.556 1204.44 Q135.556 1197.31 133.728 1193.77 Q131.922 1190.21 128.288 1190.21 M128.288 1186.5 Q134.098 1186.5 137.154 1191.11 Q140.232 1195.69 140.232 1204.44 Q140.232 1213.17 137.154 1217.78 Q134.098 1222.36 128.288 1222.36 Q122.478 1222.36 119.399 1217.78 Q116.343 1213.17 116.343 1204.44 Q116.343 1195.69 119.399 1191.11 Q122.478 1186.5 128.288 1186.5 Z" fill="#000000" fill-rule="nonzero" fill-opacity="1" /><path clip-path="url(#clip150)" d="M148.45 1215.81 L153.334 1215.81 L153.334 1221.69 L148.45 1221.69 L148.45 1215.81 Z" fill="#000000" fill-rule="nonzero" fill-opacity="1" /><path clip-path="url(#clip150)" d="M167.547 1217.75 L183.866 1217.75 L183.866 1221.69 L161.922 1221.69 L161.922 1217.75 Q164.584 1215 169.167 1210.37 Q173.774 1205.72 174.954 1204.37 Q177.2 1201.85 178.079 1200.12 Q178.982 1198.36 178.982 1196.67 Q178.982 1193.91 177.038 1192.18 Q175.116 1190.44 172.014 1190.44 Q169.815 1190.44 167.362 1191.2 Q164.931 1191.97 162.153 1193.52 L162.153 1188.8 Q164.977 1187.66 167.431 1187.08 Q169.885 1186.5 171.922 1186.5 Q177.292 1186.5 180.487 1189.19 Q183.681 1191.88 183.681 1196.37 Q183.681 1198.5 182.871 1200.42 Q182.084 1202.31 179.977 1204.91 Q179.399 1205.58 176.297 1208.8 Q173.195 1211.99 167.547 1217.75 Z" fill="#000000" fill-rule="nonzero" fill-opacity="1" /><path clip-path="url(#clip150)" d="M126.205 996.115 Q122.593 996.115 120.765 999.68 Q118.959 1003.22 118.959 1010.35 Q118.959 1017.46 120.765 1021.02 Q122.593 1024.56 126.205 1024.56 Q129.839 1024.56 131.644 1021.02 Q133.473 1017.46 133.473 1010.35 Q133.473 1003.22 131.644 999.68 Q129.839 996.115 126.205 996.115 M126.205 992.411 Q132.015 992.411 135.07 997.018 Q138.149 1001.6 138.149 1010.35 Q138.149 1019.08 135.07 1023.68 Q132.015 1028.27 126.205 1028.27 Q120.394 1028.27 117.316 1023.68 Q114.26 1019.08 114.26 1010.35 Q114.26 1001.6 117.316 997.018 Q120.394 992.411 126.205 992.411 Z" fill="#000000" fill-rule="nonzero" fill-opacity="1" /><path clip-path="url(#clip150)" d="M146.366 1021.72 L151.251 1021.72 L151.251 1027.6 L146.366 1027.6 L146.366 1021.72 Z" fill="#000000" fill-rule="nonzero" fill-opacity="1" /><path clip-path="url(#clip150)" d="M174.283 997.11 L162.477 1015.56 L174.283 1015.56 L174.283 997.11 M173.056 993.036 L178.936 993.036 L178.936 1015.56 L183.866 1015.56 L183.866 1019.45 L178.936 1019.45 L178.936 1027.6 L174.283 1027.6 L174.283 1019.45 L158.681 1019.45 L158.681 1014.93 L173.056 993.036 Z" fill="#000000" fill-rule="nonzero" fill-opacity="1" /><path clip-path="url(#clip150)" d="M126.529 802.022 Q122.918 802.022 121.089 805.587 Q119.283 809.128 119.283 816.258 Q119.283 823.364 121.089 826.929 Q122.918 830.471 126.529 830.471 Q130.163 830.471 131.968 826.929 Q133.797 823.364 133.797 816.258 Q133.797 809.128 131.968 805.587 Q130.163 802.022 126.529 802.022 M126.529 798.318 Q132.339 798.318 135.394 802.925 Q138.473 807.508 138.473 816.258 Q138.473 824.985 135.394 829.591 Q132.339 834.174 126.529 834.174 Q120.718 834.174 117.64 829.591 Q114.584 824.985 114.584 816.258 Q114.584 807.508 117.64 802.925 Q120.718 798.318 126.529 798.318 Z" fill="#000000" fill-rule="nonzero" fill-opacity="1" /><path clip-path="url(#clip150)" d="M146.691 827.624 L151.575 827.624 L151.575 833.503 L146.691 833.503 L146.691 827.624 Z" fill="#000000" fill-rule="nonzero" fill-opacity="1" /><path clip-path="url(#clip150)" d="M172.339 814.36 Q169.19 814.36 167.339 816.513 Q165.51 818.665 165.51 822.415 Q165.51 826.142 167.339 828.318 Q169.19 830.471 172.339 830.471 Q175.487 830.471 177.315 828.318 Q179.167 826.142 179.167 822.415 Q179.167 818.665 177.315 816.513 Q175.487 814.36 172.339 814.36 M181.621 799.707 L181.621 803.966 Q179.862 803.133 178.056 802.693 Q176.274 802.253 174.514 802.253 Q169.885 802.253 167.431 805.378 Q165.001 808.503 164.653 814.823 Q166.019 812.809 168.079 811.744 Q170.139 810.656 172.616 810.656 Q177.825 810.656 180.834 813.827 Q183.866 816.975 183.866 822.415 Q183.866 827.739 180.718 830.957 Q177.57 834.174 172.339 834.174 Q166.343 834.174 163.172 829.591 Q160.001 824.985 160.001 816.258 Q160.001 808.063 163.89 803.202 Q167.778 798.318 174.329 798.318 Q176.089 798.318 177.871 798.665 Q179.676 799.013 181.621 799.707 Z" fill="#000000" fill-rule="nonzero" fill-opacity="1" /><path clip-path="url(#clip150)" d="M126.783 607.929 Q123.172 607.929 121.343 611.493 Q119.538 615.035 119.538 622.165 Q119.538 629.271 121.343 632.836 Q123.172 636.378 126.783 636.378 Q130.417 636.378 132.223 632.836 Q134.052 629.271 134.052 622.165 Q134.052 615.035 132.223 611.493 Q130.417 607.929 126.783 607.929 M126.783 604.225 Q132.593 604.225 135.649 608.831 Q138.728 613.415 138.728 622.165 Q138.728 630.891 135.649 635.498 Q132.593 640.081 126.783 640.081 Q120.973 640.081 117.894 635.498 Q114.839 630.891 114.839 622.165 Q114.839 613.415 117.894 608.831 Q120.973 604.225 126.783 604.225 Z" fill="#000000" fill-rule="nonzero" fill-opacity="1" /><path clip-path="url(#clip150)" d="M146.945 633.53 L151.829 633.53 L151.829 639.41 L146.945 639.41 L146.945 633.53 Z" fill="#000000" fill-rule="nonzero" fill-opacity="1" /><path clip-path="url(#clip150)" d="M172.014 622.998 Q168.681 622.998 166.76 624.78 Q164.862 626.563 164.862 629.688 Q164.862 632.813 166.76 634.595 Q168.681 636.378 172.014 636.378 Q175.348 636.378 177.269 634.595 Q179.19 632.79 179.19 629.688 Q179.19 626.563 177.269 624.78 Q175.371 622.998 172.014 622.998 M167.339 621.007 Q164.329 620.266 162.64 618.206 Q160.973 616.146 160.973 613.183 Q160.973 609.04 163.913 606.632 Q166.876 604.225 172.014 604.225 Q177.176 604.225 180.116 606.632 Q183.056 609.04 183.056 613.183 Q183.056 616.146 181.366 618.206 Q179.7 620.266 176.714 621.007 Q180.093 621.794 181.968 624.086 Q183.866 626.378 183.866 629.688 Q183.866 634.711 180.788 637.396 Q177.732 640.081 172.014 640.081 Q166.297 640.081 163.218 637.396 Q160.163 634.711 160.163 629.688 Q160.163 626.378 162.061 624.086 Q163.959 621.794 167.339 621.007 M165.626 613.623 Q165.626 616.308 167.292 617.813 Q168.982 619.317 172.014 619.317 Q175.024 619.317 176.714 617.813 Q178.426 616.308 178.426 613.623 Q178.426 610.938 176.714 609.433 Q175.024 607.929 172.014 607.929 Q168.982 607.929 167.292 609.433 Q165.626 610.938 165.626 613.623 Z" fill="#000000" fill-rule="nonzero" fill-opacity="1" /><path clip-path="url(#clip150)" d="M117.501 441.381 L125.14 441.381 L125.14 415.016 L116.83 416.683 L116.83 412.423 L125.093 410.757 L129.769 410.757 L129.769 441.381 L137.408 441.381 L137.408 445.317 L117.501 445.317 L117.501 441.381 Z" fill="#000000" fill-rule="nonzero" fill-opacity="1" /><path clip-path="url(#clip150)" d="M146.853 439.437 L151.737 439.437 L151.737 445.317 L146.853 445.317 L146.853 439.437 Z" fill="#000000" fill-rule="nonzero" fill-opacity="1" /><path clip-path="url(#clip150)" d="M171.922 413.835 Q168.311 413.835 166.482 417.4 Q164.677 420.942 164.677 428.071 Q164.677 435.178 166.482 438.743 Q168.311 442.284 171.922 442.284 Q175.556 442.284 177.362 438.743 Q179.19 435.178 179.19 428.071 Q179.19 420.942 177.362 417.4 Q175.556 413.835 171.922 413.835 M171.922 410.132 Q177.732 410.132 180.788 414.738 Q183.866 419.321 183.866 428.071 Q183.866 436.798 180.788 441.405 Q177.732 445.988 171.922 445.988 Q166.112 445.988 163.033 441.405 Q159.978 436.798 159.978 428.071 Q159.978 419.321 163.033 414.738 Q166.112 410.132 171.922 410.132 Z" fill="#000000" fill-rule="nonzero" fill-opacity="1" /><path clip-path="url(#clip150)" d="M119.098 247.288 L126.737 247.288 L126.737 220.923 L118.427 222.589 L118.427 218.33 L126.691 216.663 L131.367 216.663 L131.367 247.288 L139.005 247.288 L139.005 251.223 L119.098 251.223 L119.098 247.288 Z" fill="#000000" fill-rule="nonzero" fill-opacity="1" /><path clip-path="url(#clip150)" d="M148.45 245.344 L153.334 245.344 L153.334 251.223 L148.45 251.223 L148.45 245.344 Z" fill="#000000" fill-rule="nonzero" fill-opacity="1" /><path clip-path="url(#clip150)" d="M167.547 247.288 L183.866 247.288 L183.866 251.223 L161.922 251.223 L161.922 247.288 Q164.584 244.534 169.167 239.904 Q173.774 235.251 174.954 233.909 Q177.2 231.386 178.079 229.649 Q178.982 227.89 178.982 226.2 Q178.982 223.446 177.038 221.71 Q175.116 219.974 172.014 219.974 Q169.815 219.974 167.362 220.737 Q164.931 221.501 162.153 223.052 L162.153 218.33 Q164.977 217.196 167.431 216.617 Q169.885 216.038 171.922 216.038 Q177.292 216.038 180.487 218.724 Q183.681 221.409 183.681 225.899 Q183.681 228.029 182.871 229.95 Q182.084 231.848 179.977 234.441 Q179.399 235.112 176.297 238.33 Q173.195 241.524 167.547 247.288 Z" fill="#000000" fill-rule="nonzero" fill-opacity="1" /><path clip-path="url(#clip150)" d="M16.4842 882.243 L16.4842 875.814 L35.9632 875.814 L35.9632 852.452 L16.4842 852.452 L16.4842 846.022 L64.0042 846.022 L64.0042 852.452 L41.3741 852.452 L41.3741 875.814 L64.0042 875.814 L64.0042 882.243 L16.4842 882.243 Z" fill="#000000" fill-rule="nonzero" fill-opacity="1" /><path clip-path="url(#clip150)" d="M46.0847 817.281 Q46.0847 824.379 47.7079 827.116 Q49.3312 829.853 53.2461 829.853 Q56.3653 829.853 58.2114 827.816 Q60.0256 825.748 60.0256 822.215 Q60.0256 817.345 56.5881 814.417 Q53.1188 811.457 47.3897 811.457 L46.0847 811.457 L46.0847 817.281 M43.6657 805.6 L64.0042 805.6 L64.0042 811.457 L58.5933 811.457 Q61.8398 813.462 63.3994 816.454 Q64.9272 819.446 64.9272 823.774 Q64.9272 829.249 61.8716 832.495 Q58.7843 835.71 53.6281 835.71 Q47.6125 835.71 44.5569 831.7 Q41.5014 827.657 41.5014 819.668 L41.5014 811.457 L40.9285 811.457 Q36.8862 811.457 34.6901 814.13 Q32.4621 816.772 32.4621 821.578 Q32.4621 824.634 33.1941 827.53 Q33.9262 830.426 35.3903 833.1 L29.9795 833.1 Q28.7381 829.885 28.1334 826.862 Q27.4968 823.838 27.4968 820.973 Q27.4968 813.239 31.5072 809.42 Q35.5176 805.6 43.6657 805.6 Z" fill="#000000" fill-rule="nonzero" fill-opacity="1" /><path clip-path="url(#clip150)" d="M28.3562 796.083 L28.3562 768.265 L33.7034 768.265 L59.3254 790.291 L59.3254 768.265 L64.0042 768.265 L64.0042 796.879 L58.657 796.879 L33.035 774.854 L33.035 796.083 L28.3562 796.083 Z" fill="#000000" fill-rule="nonzero" fill-opacity="1" /><path clip-path="url(#clip150)" d="M46.0847 743.121 Q46.0847 750.218 47.7079 752.956 Q49.3312 755.693 53.2461 755.693 Q56.3653 755.693 58.2114 753.656 Q60.0256 751.587 60.0256 748.054 Q60.0256 743.184 56.5881 740.256 Q53.1188 737.296 47.3897 737.296 L46.0847 737.296 L46.0847 743.121 M43.6657 731.44 L64.0042 731.44 L64.0042 737.296 L58.5933 737.296 Q61.8398 739.301 63.3994 742.293 Q64.9272 745.285 64.9272 749.614 Q64.9272 755.088 61.8716 758.335 Q58.7843 761.549 53.6281 761.549 Q47.6125 761.549 44.5569 757.539 Q41.5014 753.497 41.5014 745.508 L41.5014 737.296 L40.9285 737.296 Q36.8862 737.296 34.6901 739.97 Q32.4621 742.611 32.4621 747.418 Q32.4621 750.473 33.1941 753.369 Q33.9262 756.266 35.3903 758.939 L29.9795 758.939 Q28.7381 755.725 28.1334 752.701 Q27.4968 749.677 27.4968 746.813 Q27.4968 739.078 31.5072 735.259 Q35.5176 731.44 43.6657 731.44 Z" fill="#000000" fill-rule="nonzero" fill-opacity="1" /><path clip-path="url(#clip150)" d="M33.8307 698.72 Q33.2578 699.707 33.0032 700.884 Q32.7167 702.03 32.7167 703.431 Q32.7167 708.396 35.9632 711.069 Q39.1779 713.711 45.2253 713.711 L64.0042 713.711 L64.0042 719.599 L28.3562 719.599 L28.3562 713.711 L33.8944 713.711 Q30.6479 711.865 29.0883 708.905 Q27.4968 705.945 27.4968 701.712 Q27.4968 701.107 27.5923 700.375 Q27.656 699.643 27.8151 698.752 L33.8307 698.72 Z" fill="#000000" fill-rule="nonzero" fill-opacity="1" /><path clip-path="url(#clip150)" d="M33.7671 670.265 L14.479 670.265 L14.479 664.409 L64.0042 664.409 L64.0042 670.265 L58.657 670.265 Q61.8398 672.111 63.3994 674.944 Q64.9272 677.745 64.9272 681.692 Q64.9272 688.153 59.771 692.227 Q54.6147 696.269 46.212 696.269 Q37.8093 696.269 32.6531 692.227 Q27.4968 688.153 27.4968 681.692 Q27.4968 677.745 29.0564 674.944 Q30.5842 672.111 33.7671 670.265 M46.212 690.222 Q52.6732 690.222 56.3653 687.58 Q60.0256 684.906 60.0256 680.259 Q60.0256 675.612 56.3653 672.939 Q52.6732 670.265 46.212 670.265 Q39.7508 670.265 36.0905 672.939 Q32.3984 675.612 32.3984 680.259 Q32.3984 684.906 36.0905 687.58 Q39.7508 690.222 46.212 690.222 Z" fill="#000000" fill-rule="nonzero" fill-opacity="1" /><path clip-path="url(#clip150)" d="M923.512 63.9476 L923.512 47.7034 L910.144 47.7034 L910.144 40.9789 L931.614 40.9789 L931.614 66.9452 Q926.874 70.3075 921.163 72.0494 Q915.451 73.7508 908.969 73.7508 Q894.791 73.7508 886.77 65.4869 Q878.79 57.1826 878.79 42.3968 Q878.79 27.5705 886.77 19.3066 Q894.791 11.0023 908.969 11.0023 Q914.884 11.0023 920.19 12.4606 Q925.538 13.9189 930.034 16.7545 L930.034 25.464 Q925.497 21.6156 920.393 19.6712 Q915.289 17.7268 909.658 17.7268 Q898.559 17.7268 892.968 23.9246 Q887.419 30.1225 887.419 42.3968 Q887.419 54.6305 892.968 60.8284 Q898.559 67.0263 909.658 67.0263 Q913.992 67.0263 917.395 66.2971 Q920.798 65.5274 923.512 63.9476 Z" fill="#000000" fill-rule="nonzero" fill-opacity="1" /><path clip-path="url(#clip150)" d="M966.857 49.7694 Q957.823 49.7694 954.339 51.8354 Q950.856 53.9013 950.856 58.8839 Q950.856 62.8538 953.448 65.2034 Q956.081 67.5124 960.578 67.5124 Q966.776 67.5124 970.503 63.1374 Q974.27 58.7219 974.27 51.4303 L974.27 49.7694 L966.857 49.7694 M981.724 46.6907 L981.724 72.576 L974.27 72.576 L974.27 65.6895 Q971.718 69.8214 967.91 71.8063 Q964.102 73.7508 958.593 73.7508 Q951.625 73.7508 947.493 69.8619 Q943.402 65.9325 943.402 59.3701 Q943.402 51.7138 948.506 47.825 Q953.651 43.9361 963.819 43.9361 L974.27 43.9361 L974.27 43.2069 Q974.27 38.0623 970.867 35.2672 Q967.505 32.4315 961.388 32.4315 Q957.499 32.4315 953.813 33.3632 Q950.127 34.295 946.724 36.1584 L946.724 29.2718 Q950.815 27.692 954.664 26.9223 Q958.512 26.1121 962.158 26.1121 Q972.001 26.1121 976.863 31.2163 Q981.724 36.3204 981.724 46.6907 Z" fill="#000000" fill-rule="nonzero" fill-opacity="1" /><path clip-path="url(#clip150)" d="M1032.4 35.9153 Q1035.2 30.8922 1039.08 28.5022 Q1042.97 26.1121 1048.24 26.1121 Q1055.33 26.1121 1059.18 31.0947 Q1063.03 36.0368 1063.03 45.1919 L1063.03 72.576 L1055.53 72.576 L1055.53 45.4349 Q1055.53 38.913 1053.22 35.7533 Q1050.91 32.5936 1046.17 32.5936 Q1040.38 32.5936 1037.02 36.4419 Q1033.66 40.2903 1033.66 46.9338 L1033.66 72.576 L1026.16 72.576 L1026.16 45.4349 Q1026.16 38.8725 1023.85 35.7533 Q1021.54 32.5936 1016.72 32.5936 Q1011.01 32.5936 1007.65 36.4824 Q1004.29 40.3308 1004.29 46.9338 L1004.29 72.576 L996.793 72.576 L996.793 27.2059 L1004.29 27.2059 L1004.29 34.2544 Q1006.84 30.082 1010.4 28.0971 Q1013.97 26.1121 1018.87 26.1121 Q1023.81 26.1121 1027.26 28.6237 Q1030.74 31.1352 1032.4 35.9153 Z" fill="#000000" fill-rule="nonzero" fill-opacity="1" /><path clip-path="url(#clip150)" d="M1113.22 35.9153 Q1116.01 30.8922 1119.9 28.5022 Q1123.79 26.1121 1129.05 26.1121 Q1136.14 26.1121 1139.99 31.0947 Q1143.84 36.0368 1143.84 45.1919 L1143.84 72.576 L1136.35 72.576 L1136.35 45.4349 Q1136.35 38.913 1134.04 35.7533 Q1131.73 32.5936 1126.99 32.5936 Q1121.2 32.5936 1117.83 36.4419 Q1114.47 40.2903 1114.47 46.9338 L1114.47 72.576 L1106.98 72.576 L1106.98 45.4349 Q1106.98 38.8725 1104.67 35.7533 Q1102.36 32.5936 1097.54 32.5936 Q1091.83 32.5936 1088.46 36.4824 Q1085.1 40.3308 1085.1 46.9338 L1085.1 72.576 L1077.61 72.576 L1077.61 27.2059 L1085.1 27.2059 L1085.1 34.2544 Q1087.65 30.082 1091.22 28.0971 Q1094.78 26.1121 1099.69 26.1121 Q1104.63 26.1121 1108.07 28.6237 Q1111.56 31.1352 1113.22 35.9153 Z" fill="#000000" fill-rule="nonzero" fill-opacity="1" /><path clip-path="url(#clip150)" d="M1179.33 49.7694 Q1170.29 49.7694 1166.81 51.8354 Q1163.33 53.9013 1163.33 58.8839 Q1163.33 62.8538 1165.92 65.2034 Q1168.55 67.5124 1173.05 67.5124 Q1179.25 67.5124 1182.97 63.1374 Q1186.74 58.7219 1186.74 51.4303 L1186.74 49.7694 L1179.33 49.7694 M1194.19 46.6907 L1194.19 72.576 L1186.74 72.576 L1186.74 65.6895 Q1184.19 69.8214 1180.38 71.8063 Q1176.57 73.7508 1171.06 73.7508 Q1164.1 73.7508 1159.96 69.8619 Q1155.87 65.9325 1155.87 59.3701 Q1155.87 51.7138 1160.98 47.825 Q1166.12 43.9361 1176.29 43.9361 L1186.74 43.9361 L1186.74 43.2069 Q1186.74 38.0623 1183.34 35.2672 Q1179.97 32.4315 1173.86 32.4315 Q1169.97 32.4315 1166.28 33.3632 Q1162.6 34.295 1159.19 36.1584 L1159.19 29.2718 Q1163.29 27.692 1167.13 26.9223 Q1170.98 26.1121 1174.63 26.1121 Q1184.47 26.1121 1189.33 31.2163 Q1194.19 36.3204 1194.19 46.6907 Z" fill="#000000" fill-rule="nonzero" fill-opacity="1" /><path clip-path="url(#clip150)" d="M1265.77 34.0924 L1265.77 9.54393 L1273.23 9.54393 L1273.23 72.576 L1265.77 72.576 L1265.77 65.7705 Q1263.42 69.8214 1259.82 71.8063 Q1256.25 73.7508 1251.23 73.7508 Q1243.01 73.7508 1237.82 67.1883 Q1232.68 60.6258 1232.68 49.9314 Q1232.68 39.2371 1237.82 32.6746 Q1243.01 26.1121 1251.23 26.1121 Q1256.25 26.1121 1259.82 28.0971 Q1263.42 30.0415 1265.77 34.0924 M1240.37 49.9314 Q1240.37 58.1548 1243.74 62.8538 Q1247.14 67.5124 1253.05 67.5124 Q1258.97 67.5124 1262.37 62.8538 Q1265.77 58.1548 1265.77 49.9314 Q1265.77 41.7081 1262.37 37.0496 Q1258.97 32.3505 1253.05 32.3505 Q1247.14 32.3505 1243.74 37.0496 Q1240.37 41.7081 1240.37 49.9314 Z" fill="#000000" fill-rule="nonzero" fill-opacity="1" /><path clip-path="url(#clip150)" d="M1288.58 27.2059 L1296.03 27.2059 L1296.03 72.576 L1288.58 72.576 L1288.58 27.2059 M1288.58 9.54393 L1296.03 9.54393 L1296.03 18.9825 L1288.58 18.9825 L1288.58 9.54393 Z" fill="#000000" fill-rule="nonzero" fill-opacity="1" /><path clip-path="url(#clip150)" d="M1340.55 28.5427 L1340.55 35.5912 Q1337.39 33.9709 1333.99 33.1607 Q1330.59 32.3505 1326.94 32.3505 Q1321.39 32.3505 1318.6 34.0519 Q1315.84 35.7533 1315.84 39.156 Q1315.84 41.7486 1317.83 43.2475 Q1319.81 44.7058 1325.81 46.0426 L1328.36 46.6097 Q1336.3 48.3111 1339.62 51.4303 Q1342.98 54.509 1342.98 60.0587 Q1342.98 66.3781 1337.96 70.0644 Q1332.98 73.7508 1324.23 73.7508 Q1320.58 73.7508 1316.61 73.0216 Q1312.68 72.3329 1308.31 70.9151 L1308.31 63.2184 Q1312.44 65.3654 1316.45 66.4591 Q1320.46 67.5124 1324.39 67.5124 Q1329.66 67.5124 1332.49 65.73 Q1335.33 63.9071 1335.33 60.6258 Q1335.33 57.5877 1333.26 55.9673 Q1331.24 54.3469 1324.31 52.8481 L1321.72 52.2405 Q1314.79 50.7821 1311.71 47.7845 Q1308.63 44.7463 1308.63 39.4801 Q1308.63 33.0797 1313.17 29.5959 Q1317.71 26.1121 1326.05 26.1121 Q1330.18 26.1121 1333.83 26.7198 Q1337.47 27.3274 1340.55 28.5427 Z" fill="#000000" fill-rule="nonzero" fill-opacity="1" /><path clip-path="url(#clip150)" d="M1362.23 14.324 L1362.23 27.2059 L1377.58 27.2059 L1377.58 32.9987 L1362.23 32.9987 L1362.23 57.6282 Q1362.23 63.1779 1363.72 64.7578 Q1365.26 66.3376 1369.92 66.3376 L1377.58 66.3376 L1377.58 72.576 L1369.92 72.576 Q1361.29 72.576 1358.01 69.3758 Q1354.73 66.1351 1354.73 57.6282 L1354.73 32.9987 L1349.26 32.9987 L1349.26 27.2059 L1354.73 27.2059 L1354.73 14.324 L1362.23 14.324 Z" fill="#000000" fill-rule="nonzero" fill-opacity="1" /><path clip-path="url(#clip150)" d="M1413.67 34.1734 Q1412.42 33.4443 1410.92 33.1202 Q1409.46 32.7556 1407.68 32.7556 Q1401.36 32.7556 1397.95 36.8875 Q1394.59 40.9789 1394.59 48.6757 L1394.59 72.576 L1387.1 72.576 L1387.1 27.2059 L1394.59 27.2059 L1394.59 34.2544 Q1396.94 30.1225 1400.71 28.1376 Q1404.48 26.1121 1409.86 26.1121 Q1410.63 26.1121 1411.57 26.2337 Q1412.5 26.3147 1413.63 26.5172 L1413.67 34.1734 Z" fill="#000000" fill-rule="nonzero" fill-opacity="1" /><path clip-path="url(#clip150)" d="M1421.49 27.2059 L1428.94 27.2059 L1428.94 72.576 L1421.49 72.576 L1421.49 27.2059 M1421.49 9.54393 L1428.94 9.54393 L1428.94 18.9825 L1421.49 18.9825 L1421.49 9.54393 Z" fill="#000000" fill-rule="nonzero" fill-opacity="1" /><path clip-path="url(#clip150)" d="M1477.11 49.9314 Q1477.11 41.7081 1473.71 37.0496 Q1470.34 32.3505 1464.43 32.3505 Q1458.52 32.3505 1455.11 37.0496 Q1451.75 41.7081 1451.75 49.9314 Q1451.75 58.1548 1455.11 62.8538 Q1458.52 67.5124 1464.43 67.5124 Q1470.34 67.5124 1473.71 62.8538 Q1477.11 58.1548 1477.11 49.9314 M1451.75 34.0924 Q1454.1 30.0415 1457.66 28.0971 Q1461.27 26.1121 1466.25 26.1121 Q1474.52 26.1121 1479.66 32.6746 Q1484.85 39.2371 1484.85 49.9314 Q1484.85 60.6258 1479.66 67.1883 Q1474.52 73.7508 1466.25 73.7508 Q1461.27 73.7508 1457.66 71.8063 Q1454.1 69.8214 1451.75 65.7705 L1451.75 72.576 L1444.26 72.576 L1444.26 9.54393 L1451.75 9.54393 L1451.75 34.0924 Z" fill="#000000" fill-rule="nonzero" fill-opacity="1" /><path clip-path="url(#clip150)" d="M1496.43 54.671 L1496.43 27.2059 L1503.89 27.2059 L1503.89 54.3874 Q1503.89 60.8284 1506.4 64.0691 Q1508.91 67.2693 1513.93 67.2693 Q1519.97 67.2693 1523.45 63.421 Q1526.98 59.5726 1526.98 52.9291 L1526.98 27.2059 L1534.43 27.2059 L1534.43 72.576 L1526.98 72.576 L1526.98 65.6084 Q1524.26 69.7404 1520.66 71.7658 Q1517.09 73.7508 1512.35 73.7508 Q1504.53 73.7508 1500.48 68.8897 Q1496.43 64.0286 1496.43 54.671 M1515.19 26.1121 L1515.19 26.1121 Z" fill="#000000" fill-rule="nonzero" fill-opacity="1" /><path clip-path="url(#clip150)" d="M1557.15 14.324 L1557.15 27.2059 L1572.51 27.2059 L1572.51 32.9987 L1557.15 32.9987 L1557.15 57.6282 Q1557.15 63.1779 1558.65 64.7578 Q1560.19 66.3376 1564.85 66.3376 L1572.51 66.3376 L1572.51 72.576 L1564.85 72.576 Q1556.22 72.576 1552.94 69.3758 Q1549.66 66.1351 1549.66 57.6282 L1549.66 32.9987 L1544.19 32.9987 L1544.19 27.2059 L1549.66 27.2059 L1549.66 14.324 L1557.15 14.324 Z" fill="#000000" fill-rule="nonzero" fill-opacity="1" /><path clip-path="url(#clip150)" d="M1582.31 27.2059 L1589.76 27.2059 L1589.76 72.576 L1582.31 72.576 L1582.31 27.2059 M1582.31 9.54393 L1589.76 9.54393 L1589.76 18.9825 L1582.31 18.9825 L1582.31 9.54393 Z" fill="#000000" fill-rule="nonzero" fill-opacity="1" /><path clip-path="url(#clip150)" d="M1622.94 32.4315 Q1616.95 32.4315 1613.46 37.1306 Q1609.98 41.7891 1609.98 49.9314 Q1609.98 58.0738 1613.42 62.7728 Q1616.91 67.4314 1622.94 67.4314 Q1628.9 67.4314 1632.38 62.7323 Q1635.86 58.0333 1635.86 49.9314 Q1635.86 41.8701 1632.38 37.1711 Q1628.9 32.4315 1622.94 32.4315 M1622.94 26.1121 Q1632.66 26.1121 1638.21 32.4315 Q1643.76 38.7509 1643.76 49.9314 Q1643.76 61.0714 1638.21 67.4314 Q1632.66 73.7508 1622.94 73.7508 Q1613.18 73.7508 1607.63 67.4314 Q1602.12 61.0714 1602.12 49.9314 Q1602.12 38.7509 1607.63 32.4315 Q1613.18 26.1121 1622.94 26.1121 Z" fill="#000000" fill-rule="nonzero" fill-opacity="1" /><path clip-path="url(#clip150)" d="M1693.83 45.1919 L1693.83 72.576 L1686.38 72.576 L1686.38 45.4349 Q1686.38 38.994 1683.87 35.7938 Q1681.36 32.5936 1676.33 32.5936 Q1670.3 32.5936 1666.81 36.4419 Q1663.33 40.2903 1663.33 46.9338 L1663.33 72.576 L1655.83 72.576 L1655.83 27.2059 L1663.33 27.2059 L1663.33 34.2544 Q1666 30.163 1669.61 28.1376 Q1673.25 26.1121 1677.99 26.1121 Q1685.81 26.1121 1689.82 30.9732 Q1693.83 35.7938 1693.83 45.1919 Z" fill="#000000" fill-rule="nonzero" fill-opacity="1" /><polyline clip-path="url(#clip152)" style="stroke:#000000; stroke-linecap:round; stroke-linejoin:round; stroke-width:4; stroke-opacity:1; fill:none" points="300.556,1386.4 320.881,1381.53 341.206,1377.94 361.53,1375.01 381.855,1372.52 402.18,1370.33 422.505,1368.39 442.83,1366.63 463.155,1365.03 483.48,1363.56 503.804,1362.2 524.129,1360.94 544.454,1359.76 564.779,1358.65 585.104,1357.61 605.429,1356.63 625.753,1355.7 646.078,1354.81 666.403,1353.98 686.728,1353.18 707.053,1352.42 727.378,1351.69 747.703,1350.99 768.027,1350.33 788.352,1349.69 808.677,1349.07 829.002,1348.48 849.327,1347.92 869.652,1347.37 889.977,1346.84 910.301,1346.33 930.626,1345.84 950.951,1345.36 971.276,1344.9 991.601,1344.46 1011.93,1344.03 1032.25,1343.61 1052.58,1343.2 1072.9,1342.81 1093.23,1342.43 1113.55,1342.05 1133.87,1341.69 1154.2,1341.34 1174.52,1341 1194.85,1340.67 1215.17,1340.34 1235.5,1340.03 1255.82,1339.72 1276.15,1339.42 1296.47,1339.13 1316.8,1338.84 1337.12,1338.56 1357.45,1338.29 1377.77,1338.02 1398.1,1337.76 1418.42,1337.51 1438.75,1337.26 1459.07,1337.02 1479.4,1336.78 1499.72,1336.55 1520.05,1336.32 1540.37,1336.1 1560.7,1335.88 1581.02,1335.67 1601.35,1335.46 1621.67,1335.25 1642,1335.05 1662.32,1334.85 1682.65,1334.66 1702.97,1334.47 1723.3,1334.28 1743.62,1334.1 1763.95,1333.92 1784.27,1333.75 1804.59,1333.57 1824.92,1333.4 1845.24,1333.24 1865.57,1333.07 1885.89,1332.91 1906.22,1332.75 1926.54,1332.6 1946.87,1332.45 1967.19,1332.3 1987.52,1332.15 2007.84,1332 2028.17,1331.86 2048.49,1331.72 2068.82,1331.58 2089.14,1331.44 2109.47,1331.31 2129.79,1331.18 2150.12,1331.05 2170.44,1330.92 2190.77,1330.79 2211.09,1330.67 2231.42,1330.55 2251.74,1330.43 2272.07,1330.31 2292.39,1330.19 "/>
<polyline clip-path="url(#clip152)" style="stroke:#ff0000; stroke-linecap:round; stroke-linejoin:round; stroke-width:4; stroke-opacity:1; fill:none" points="300.556,791.696 320.881,631.495 341.206,539.514 361.53,478.119 381.855,433.729 402.18,399.941 422.505,373.273 442.83,351.642 463.155,333.717 483.48,318.607 503.804,305.687 524.129,294.507 544.454,284.733 564.779,276.113 585.104,268.452 605.429,261.597 625.753,255.426 646.078,249.84 666.403,244.76 686.728,240.12 707.053,235.863 727.378,231.945 747.703,228.327 768.027,224.974 788.352,221.859 808.677,218.956 829.002,216.246 849.327,213.709 869.652,211.329 889.977,209.092 910.301,206.986 930.626,204.999 950.951,203.121 971.276,201.344 991.601,199.659 1011.93,198.06 1032.25,196.541 1052.58,195.094 1072.9,193.716 1093.23,192.402 1113.55,191.146 1133.87,189.946 1154.2,188.798 1174.52,187.698 1194.85,186.643 1215.17,185.632 1235.5,184.66 1255.82,183.726 1276.15,182.828 1296.47,181.963 1316.8,181.13 1337.12,180.327 1357.45,179.552 1377.77,178.805 1398.1,178.083 1418.42,177.385 1438.75,176.71 1459.07,176.057 1479.4,175.426 1499.72,174.814 1520.05,174.221 1540.37,173.646 1560.7,173.088 1581.02,172.547 1601.35,172.022 1621.67,171.511 1642,171.016 1662.32,170.534 1682.65,170.065 1702.97,169.609 1723.3,169.166 1743.62,168.734 1763.95,168.313 1784.27,167.904 1804.59,167.504 1824.92,167.115 1845.24,166.735 1865.57,166.365 1885.89,166.004 1906.22,165.651 1926.54,165.307 1946.87,164.97 1967.19,164.642 1987.52,164.321 2007.84,164.007 2028.17,163.7 2048.49,163.4 2068.82,163.107 2089.14,162.82 2109.47,162.539 2129.79,162.263 2150.12,161.995 2170.44,161.73 2190.77,161.472 2211.09,161.22 2231.42,160.97 2251.74,160.728 2272.07,160.49 2292.39,160.256 "/>
<path clip-path="url(#clip150)" d="M290.963 322.316 L927.374 322.316 L927.374 166.796 L290.963 166.796  Z" fill="#ffffff" fill-rule="evenodd" fill-opacity="1"/>
<polyline clip-path="url(#clip150)" style="stroke:#000000; stroke-linecap:round; stroke-linejoin:round; stroke-width:4; stroke-opacity:1; fill:none" points="290.963,322.316 927.374,322.316 927.374,166.796 290.963,166.796 290.963,322.316 "/>
<polyline clip-path="url(#clip150)" style="stroke:#000000; stroke-linecap:round; stroke-linejoin:round; stroke-width:4; stroke-opacity:1; fill:none" points="314.661,218.636 456.854,218.636 "/>
<path clip-path="url(#clip150)" d="M482.127 201.356 L487.15 201.356 L495.738 214.203 L504.372 201.356 L509.395 201.356 L498.284 217.953 L510.136 235.916 L505.113 235.916 L495.391 221.217 L485.599 235.916 L480.553 235.916 L492.891 217.467 L482.127 201.356 Z" fill="#000000" fill-rule="nonzero" fill-opacity="1" /><path clip-path="url(#clip150)" d="M516.641 214.388 L546.316 214.388 L546.316 218.277 L516.641 218.277 L516.641 214.388 M516.641 223.832 L546.316 223.832 L546.316 227.768 L516.641 227.768 L516.641 223.832 Z" fill="#000000" fill-rule="nonzero" fill-opacity="1" /><path clip-path="url(#clip150)" d="M566.409 204.434 Q562.798 204.434 560.969 207.999 Q559.163 211.541 559.163 218.67 Q559.163 225.777 560.969 229.342 Q562.798 232.883 566.409 232.883 Q570.043 232.883 571.849 229.342 Q573.677 225.777 573.677 218.67 Q573.677 211.541 571.849 207.999 Q570.043 204.434 566.409 204.434 M566.409 200.731 Q572.219 200.731 575.274 205.337 Q578.353 209.92 578.353 218.67 Q578.353 227.397 575.274 232.004 Q572.219 236.587 566.409 236.587 Q560.599 236.587 557.52 232.004 Q554.464 227.397 554.464 218.67 Q554.464 209.92 557.52 205.337 Q560.599 200.731 566.409 200.731 Z" fill="#000000" fill-rule="nonzero" fill-opacity="1" /><path clip-path="url(#clip150)" d="M587.057 230.036 L591.941 230.036 L591.941 234.018 L588.145 241.425 L585.159 241.425 L587.057 234.018 L587.057 230.036 Z" fill="#000000" fill-rule="nonzero" fill-opacity="1" /><path clip-path="url(#clip150)" d="M614.302 201.356 L641.455 201.356 L641.455 204.921 L619.603 231.981 L641.987 231.981 L641.987 235.916 L613.77 235.916 L613.77 232.351 L635.621 205.291 L614.302 205.291 L614.302 201.356 Z" fill="#000000" fill-rule="nonzero" fill-opacity="1" /><path clip-path="url(#clip150)" d="M649.996 231.981 L657.635 231.981 L657.635 205.615 L649.325 207.282 L649.325 203.022 L657.589 201.356 L662.265 201.356 L662.265 231.981 L669.904 231.981 L669.904 235.916 L649.996 235.916 L649.996 231.981 Z" fill="#000000" fill-rule="nonzero" fill-opacity="1" /><path clip-path="url(#clip150)" d="M679.302 214.388 L708.977 214.388 L708.977 218.277 L679.302 218.277 L679.302 214.388 M679.302 223.832 L708.977 223.832 L708.977 227.768 L679.302 227.768 L679.302 223.832 Z" fill="#000000" fill-rule="nonzero" fill-opacity="1" /><path clip-path="url(#clip150)" d="M729.07 204.434 Q725.459 204.434 723.63 207.999 Q721.825 211.541 721.825 218.67 Q721.825 225.777 723.63 229.342 Q725.459 232.883 729.07 232.883 Q732.704 232.883 734.51 229.342 Q736.338 225.777 736.338 218.67 Q736.338 211.541 734.51 207.999 Q732.704 204.434 729.07 204.434 M729.07 200.731 Q734.88 200.731 737.936 205.337 Q741.014 209.92 741.014 218.67 Q741.014 227.397 737.936 232.004 Q734.88 236.587 729.07 236.587 Q723.26 236.587 720.181 232.004 Q717.126 227.397 717.126 218.67 Q717.126 209.92 720.181 205.337 Q723.26 200.731 729.07 200.731 Z" fill="#000000" fill-rule="nonzero" fill-opacity="1" /><path clip-path="url(#clip150)" d="M749.718 230.036 L754.602 230.036 L754.602 234.018 L750.806 241.425 L747.82 241.425 L749.718 234.018 L749.718 230.036 Z" fill="#000000" fill-rule="nonzero" fill-opacity="1" /><path clip-path="url(#clip150)" d="M776.963 201.356 L804.116 201.356 L804.116 204.921 L782.264 231.981 L804.648 231.981 L804.648 235.916 L776.431 235.916 L776.431 232.351 L798.283 205.291 L776.963 205.291 L776.963 201.356 Z" fill="#000000" fill-rule="nonzero" fill-opacity="1" /><path clip-path="url(#clip150)" d="M815.875 231.981 L832.194 231.981 L832.194 235.916 L810.25 235.916 L810.25 231.981 Q812.912 229.226 817.495 224.596 Q822.102 219.944 823.282 218.601 Q825.528 216.078 826.407 214.342 Q827.31 212.583 827.31 210.893 Q827.31 208.138 825.366 206.402 Q823.444 204.666 820.343 204.666 Q818.144 204.666 815.69 205.43 Q813.259 206.194 810.482 207.745 L810.482 203.022 Q813.306 201.888 815.759 201.309 Q818.213 200.731 820.25 200.731 Q825.62 200.731 828.815 203.416 Q832.009 206.101 832.009 210.592 Q832.009 212.721 831.199 214.643 Q830.412 216.541 828.306 219.133 Q827.727 219.805 824.625 223.022 Q821.523 226.217 815.875 231.981 Z" fill="#000000" fill-rule="nonzero" fill-opacity="1" /><path clip-path="url(#clip150)" d="M841.963 214.388 L871.639 214.388 L871.639 218.277 L841.963 218.277 L841.963 214.388 M841.963 223.832 L871.639 223.832 L871.639 227.768 L841.963 227.768 L841.963 223.832 Z" fill="#000000" fill-rule="nonzero" fill-opacity="1" /><path clip-path="url(#clip150)" d="M891.731 204.434 Q888.12 204.434 886.291 207.999 Q884.486 211.541 884.486 218.67 Q884.486 225.777 886.291 229.342 Q888.12 232.883 891.731 232.883 Q895.365 232.883 897.171 229.342 Q899 225.777 899 218.67 Q899 211.541 897.171 207.999 Q895.365 204.434 891.731 204.434 M891.731 200.731 Q897.541 200.731 900.597 205.337 Q903.676 209.92 903.676 218.67 Q903.676 227.397 900.597 232.004 Q897.541 236.587 891.731 236.587 Q885.921 236.587 882.842 232.004 Q879.787 227.397 879.787 218.67 Q879.787 209.92 882.842 205.337 Q885.921 200.731 891.731 200.731 Z" fill="#000000" fill-rule="nonzero" fill-opacity="1" /><polyline clip-path="url(#clip150)" style="stroke:#ff0000; stroke-linecap:round; stroke-linejoin:round; stroke-width:4; stroke-opacity:1; fill:none" points="314.661,270.476 456.854,270.476 "/>
<path clip-path="url(#clip150)" d="M482.127 253.196 L487.15 253.196 L495.738 266.043 L504.372 253.196 L509.395 253.196 L498.284 269.793 L510.136 287.756 L505.113 287.756 L495.391 273.057 L485.599 287.756 L480.553 287.756 L492.891 269.307 L482.127 253.196 Z" fill="#000000" fill-rule="nonzero" fill-opacity="1" /><path clip-path="url(#clip150)" d="M516.641 266.228 L546.316 266.228 L546.316 270.117 L516.641 270.117 L516.641 266.228 M516.641 275.672 L546.316 275.672 L546.316 279.608 L516.641 279.608 L516.641 275.672 Z" fill="#000000" fill-rule="nonzero" fill-opacity="1" /><path clip-path="url(#clip150)" d="M557.219 283.821 L564.858 283.821 L564.858 257.455 L556.548 259.122 L556.548 254.862 L564.812 253.196 L569.487 253.196 L569.487 283.821 L577.126 283.821 L577.126 287.756 L557.219 287.756 L557.219 283.821 Z" fill="#000000" fill-rule="nonzero" fill-opacity="1" /><path clip-path="url(#clip150)" d="M587.057 281.876 L591.941 281.876 L591.941 285.858 L588.145 293.265 L585.159 293.265 L587.057 285.858 L587.057 281.876 Z" fill="#000000" fill-rule="nonzero" fill-opacity="1" /><path clip-path="url(#clip150)" d="M614.302 253.196 L641.455 253.196 L641.455 256.761 L619.603 283.821 L641.987 283.821 L641.987 287.756 L613.77 287.756 L613.77 284.191 L635.621 257.131 L614.302 257.131 L614.302 253.196 Z" fill="#000000" fill-rule="nonzero" fill-opacity="1" /><path clip-path="url(#clip150)" d="M649.996 283.821 L657.635 283.821 L657.635 257.455 L649.325 259.122 L649.325 254.862 L657.589 253.196 L662.265 253.196 L662.265 283.821 L669.904 283.821 L669.904 287.756 L649.996 287.756 L649.996 283.821 Z" fill="#000000" fill-rule="nonzero" fill-opacity="1" /><path clip-path="url(#clip150)" d="M679.302 266.228 L708.977 266.228 L708.977 270.117 L679.302 270.117 L679.302 266.228 M679.302 275.672 L708.977 275.672 L708.977 279.608 L679.302 279.608 L679.302 275.672 Z" fill="#000000" fill-rule="nonzero" fill-opacity="1" /><path clip-path="url(#clip150)" d="M719.88 283.821 L727.519 283.821 L727.519 257.455 L719.209 259.122 L719.209 254.862 L727.473 253.196 L732.149 253.196 L732.149 283.821 L739.787 283.821 L739.787 287.756 L719.88 287.756 L719.88 283.821 Z" fill="#000000" fill-rule="nonzero" fill-opacity="1" /><path clip-path="url(#clip150)" d="M749.718 281.876 L754.602 281.876 L754.602 285.858 L750.806 293.265 L747.82 293.265 L749.718 285.858 L749.718 281.876 Z" fill="#000000" fill-rule="nonzero" fill-opacity="1" /><path clip-path="url(#clip150)" d="M776.963 253.196 L804.116 253.196 L804.116 256.761 L782.264 283.821 L804.648 283.821 L804.648 287.756 L776.431 287.756 L776.431 284.191 L798.283 257.131 L776.963 257.131 L776.963 253.196 Z" fill="#000000" fill-rule="nonzero" fill-opacity="1" /><path clip-path="url(#clip150)" d="M815.875 283.821 L832.194 283.821 L832.194 287.756 L810.25 287.756 L810.25 283.821 Q812.912 281.066 817.495 276.436 Q822.102 271.784 823.282 270.441 Q825.528 267.918 826.407 266.182 Q827.31 264.423 827.31 262.733 Q827.31 259.978 825.366 258.242 Q823.444 256.506 820.343 256.506 Q818.144 256.506 815.69 257.27 Q813.259 258.034 810.482 259.585 L810.482 254.862 Q813.306 253.728 815.759 253.149 Q818.213 252.571 820.25 252.571 Q825.62 252.571 828.815 255.256 Q832.009 257.941 832.009 262.432 Q832.009 264.561 831.199 266.483 Q830.412 268.381 828.306 270.973 Q827.727 271.645 824.625 274.862 Q821.523 278.057 815.875 283.821 Z" fill="#000000" fill-rule="nonzero" fill-opacity="1" /><path clip-path="url(#clip150)" d="M841.963 266.228 L871.639 266.228 L871.639 270.117 L841.963 270.117 L841.963 266.228 M841.963 275.672 L871.639 275.672 L871.639 279.608 L841.963 279.608 L841.963 275.672 Z" fill="#000000" fill-rule="nonzero" fill-opacity="1" /><path clip-path="url(#clip150)" d="M882.541 283.821 L890.18 283.821 L890.18 257.455 L881.87 259.122 L881.87 254.862 L890.134 253.196 L894.81 253.196 L894.81 283.821 L902.449 283.821 L902.449 287.756 L882.541 287.756 L882.541 283.821 Z" fill="#000000" fill-rule="nonzero" fill-opacity="1" /></svg>
