<?xml version="1.0" encoding="utf-8"?>
<svg xmlns="http://www.w3.org/2000/svg" xmlns:xlink="http://www.w3.org/1999/xlink" width="600" height="400" viewBox="0 0 2400 1600">
<defs>
  <clipPath id="clip870">
    <rect x="0" y="0" width="2400" height="1600"/>
  </clipPath>
</defs>
<path clip-path="url(#clip870)" d="M0 1600 L2400 1600 L2400 0 L0 0  Z" fill="#ffffff" fill-rule="evenodd" fill-opacity="1"/>
<defs>
  <clipPath id="clip871">
    <rect x="480" y="0" width="1681" height="1600"/>
  </clipPath>
</defs>
<path clip-path="url(#clip870)" d="M219.866 1423.18 L2352.76 1423.18 L2352.76 123.472 L219.866 123.472  Z" fill="#ffffff" fill-rule="evenodd" fill-opacity="1"/>
<defs>
  <clipPath id="clip872">
    <rect x="219" y="123" width="2134" height="1301"/>
  </clipPath>
</defs>
<polyline clip-path="url(#clip870)" style="stroke:#000000; stroke-linecap:round; stroke-linejoin:round; stroke-width:4; stroke-opacity:1; fill:none" points="219.866,1423.18 2352.76,1423.18 "/>
<polyline clip-path="url(#clip870)" style="stroke:#000000; stroke-linecap:round; stroke-linejoin:round; stroke-width:4; stroke-opacity:1; fill:none" points="280.231,1423.18 280.231,1404.28 "/>
<polyline clip-path="url(#clip870)" style="stroke:#000000; stroke-linecap:round; stroke-linejoin:round; stroke-width:4; stroke-opacity:1; fill:none" points="666.656,1423.18 666.656,1404.28 "/>
<polyline clip-path="url(#clip870)" style="stroke:#000000; stroke-linecap:round; stroke-linejoin:round; stroke-width:4; stroke-opacity:1; fill:none" points="1053.08,1423.18 1053.08,1404.28 "/>
<polyline clip-path="url(#clip870)" style="stroke:#000000; stroke-linecap:round; stroke-linejoin:round; stroke-width:4; stroke-opacity:1; fill:none" points="1439.51,1423.18 1439.51,1404.28 "/>
<polyline clip-path="url(#clip870)" style="stroke:#000000; stroke-linecap:round; stroke-linejoin:round; stroke-width:4; stroke-opacity:1; fill:none" points="1825.93,1423.18 1825.93,1404.28 "/>
<polyline clip-path="url(#clip870)" style="stroke:#000000; stroke-linecap:round; stroke-linejoin:round; stroke-width:4; stroke-opacity:1; fill:none" points="2212.36,1423.18 2212.36,1404.28 "/>
<path clip-path="url(#clip870)" d="M280.231 1454.1 Q276.62 1454.1 274.791 1457.66 Q272.986 1461.2 272.986 1468.33 Q272.986 1475.44 274.791 1479.01 Q276.62 1482.55 280.231 1482.55 Q283.865 1482.55 285.671 1479.01 Q287.5 1475.44 287.5 1468.33 Q287.5 1461.2 285.671 1457.66 Q283.865 1454.1 280.231 1454.1 M280.231 1450.39 Q286.041 1450.39 289.097 1455 Q292.175 1459.58 292.175 1468.33 Q292.175 1477.06 289.097 1481.67 Q286.041 1486.25 280.231 1486.25 Q274.421 1486.25 271.342 1481.67 Q268.287 1477.06 268.287 1468.33 Q268.287 1459.58 271.342 1455 Q274.421 1450.39 280.231 1450.39 Z" fill="#000000" fill-rule="nonzero" fill-opacity="1" /><path clip-path="url(#clip870)" d="M657.038 1481.64 L664.677 1481.64 L664.677 1455.28 L656.367 1456.95 L656.367 1452.69 L664.631 1451.02 L669.307 1451.02 L669.307 1481.64 L676.945 1481.64 L676.945 1485.58 L657.038 1485.58 L657.038 1481.64 Z" fill="#000000" fill-rule="nonzero" fill-opacity="1" /><path clip-path="url(#clip870)" d="M1047.73 1481.64 L1064.05 1481.64 L1064.05 1485.58 L1042.11 1485.58 L1042.11 1481.64 Q1044.77 1478.89 1049.35 1474.26 Q1053.96 1469.61 1055.14 1468.27 Q1057.39 1465.74 1058.27 1464.01 Q1059.17 1462.25 1059.17 1460.56 Q1059.17 1457.8 1057.22 1456.07 Q1055.3 1454.33 1052.2 1454.33 Q1050 1454.33 1047.55 1455.09 Q1045.12 1455.86 1042.34 1457.41 L1042.34 1452.69 Q1045.16 1451.55 1047.62 1450.97 Q1050.07 1450.39 1052.11 1450.39 Q1057.48 1450.39 1060.67 1453.08 Q1063.87 1455.77 1063.87 1460.26 Q1063.87 1462.39 1063.06 1464.31 Q1062.27 1466.2 1060.16 1468.8 Q1059.59 1469.47 1056.48 1472.69 Q1053.38 1475.88 1047.73 1481.64 Z" fill="#000000" fill-rule="nonzero" fill-opacity="1" /><path clip-path="url(#clip870)" d="M1443.75 1466.95 Q1447.11 1467.66 1448.99 1469.93 Q1450.88 1472.2 1450.88 1475.53 Q1450.88 1480.65 1447.37 1483.45 Q1443.85 1486.25 1437.37 1486.25 Q1435.19 1486.25 1432.87 1485.81 Q1430.58 1485.39 1428.13 1484.54 L1428.13 1480.02 Q1430.07 1481.16 1432.39 1481.74 Q1434.7 1482.32 1437.23 1482.32 Q1441.62 1482.32 1443.92 1480.58 Q1446.23 1478.84 1446.23 1475.53 Q1446.23 1472.48 1444.08 1470.77 Q1441.95 1469.03 1438.13 1469.03 L1434.1 1469.03 L1434.1 1465.19 L1438.31 1465.19 Q1441.76 1465.19 1443.59 1463.82 Q1445.42 1462.43 1445.42 1459.84 Q1445.42 1457.18 1443.52 1455.77 Q1441.65 1454.33 1438.13 1454.33 Q1436.21 1454.33 1434.01 1454.75 Q1431.81 1455.16 1429.17 1456.04 L1429.17 1451.88 Q1431.83 1451.14 1434.15 1450.77 Q1436.49 1450.39 1438.55 1450.39 Q1443.87 1450.39 1446.97 1452.83 Q1450.07 1455.23 1450.07 1459.35 Q1450.07 1462.22 1448.43 1464.21 Q1446.79 1466.18 1443.75 1466.95 Z" fill="#000000" fill-rule="nonzero" fill-opacity="1" /><path clip-path="url(#clip870)" d="M1828.94 1455.09 L1817.14 1473.54 L1828.94 1473.54 L1828.94 1455.09 M1827.71 1451.02 L1833.59 1451.02 L1833.59 1473.54 L1838.52 1473.54 L1838.52 1477.43 L1833.59 1477.43 L1833.59 1485.58 L1828.94 1485.58 L1828.94 1477.43 L1813.34 1477.43 L1813.34 1472.92 L1827.71 1451.02 Z" fill="#000000" fill-rule="nonzero" fill-opacity="1" /><path clip-path="url(#clip870)" d="M2202.63 1451.02 L2220.99 1451.02 L2220.99 1454.96 L2206.92 1454.96 L2206.92 1463.43 Q2207.94 1463.08 2208.95 1462.92 Q2209.97 1462.73 2210.99 1462.73 Q2216.78 1462.73 2220.16 1465.9 Q2223.54 1469.08 2223.54 1474.49 Q2223.54 1480.07 2220.06 1483.17 Q2216.59 1486.25 2210.27 1486.25 Q2208.1 1486.25 2205.83 1485.88 Q2203.58 1485.51 2201.18 1484.77 L2201.18 1480.07 Q2203.26 1481.2 2205.48 1481.76 Q2207.7 1482.32 2210.18 1482.32 Q2214.19 1482.32 2216.52 1480.21 Q2218.86 1478.1 2218.86 1474.49 Q2218.86 1470.88 2216.52 1468.77 Q2214.19 1466.67 2210.18 1466.67 Q2208.31 1466.67 2206.43 1467.08 Q2204.58 1467.5 2202.63 1468.38 L2202.63 1451.02 Z" fill="#000000" fill-rule="nonzero" fill-opacity="1" /><path clip-path="url(#clip870)" d="M1208.19 1520.52 L1248.39 1520.52 L1248.39 1525.93 L1231.52 1525.93 L1231.52 1568.04 L1225.06 1568.04 L1225.06 1525.93 L1208.19 1525.93 L1208.19 1520.52 Z" fill="#000000" fill-rule="nonzero" fill-opacity="1" /><path clip-path="url(#clip870)" d="M1252.33 1532.4 L1258.19 1532.4 L1258.19 1568.04 L1252.33 1568.04 L1252.33 1532.4 M1252.33 1518.52 L1258.19 1518.52 L1258.19 1525.93 L1252.33 1525.93 L1252.33 1518.52 Z" fill="#000000" fill-rule="nonzero" fill-opacity="1" /><path clip-path="url(#clip870)" d="M1298.2 1539.24 Q1300.4 1535.29 1303.45 1533.41 Q1306.51 1531.54 1310.64 1531.54 Q1316.21 1531.54 1319.24 1535.45 Q1322.26 1539.33 1322.26 1546.53 L1322.26 1568.04 L1316.37 1568.04 L1316.37 1546.72 Q1316.37 1541.59 1314.56 1539.11 Q1312.74 1536.63 1309.02 1536.63 Q1304.47 1536.63 1301.83 1539.65 Q1299.19 1542.68 1299.19 1547.9 L1299.19 1568.04 L1293.3 1568.04 L1293.3 1546.72 Q1293.3 1541.56 1291.48 1539.11 Q1289.67 1536.63 1285.88 1536.63 Q1281.39 1536.63 1278.75 1539.68 Q1276.11 1542.71 1276.11 1547.9 L1276.11 1568.04 L1270.22 1568.04 L1270.22 1532.4 L1276.11 1532.4 L1276.11 1537.93 Q1278.12 1534.66 1280.92 1533.1 Q1283.72 1531.54 1287.57 1531.54 Q1291.45 1531.54 1294.16 1533.51 Q1296.89 1535.48 1298.2 1539.24 Z" fill="#000000" fill-rule="nonzero" fill-opacity="1" /><path clip-path="url(#clip870)" d="M1364.43 1548.76 L1364.43 1551.62 L1337.51 1551.62 Q1337.89 1557.67 1341.14 1560.85 Q1344.41 1564 1350.24 1564 Q1353.61 1564 1356.76 1563.17 Q1359.95 1562.35 1363.07 1560.69 L1363.07 1566.23 Q1359.91 1567.57 1356.6 1568.27 Q1353.29 1568.97 1349.89 1568.97 Q1341.36 1568.97 1336.36 1564 Q1331.4 1559.04 1331.4 1550.57 Q1331.4 1541.82 1336.11 1536.69 Q1340.85 1531.54 1348.87 1531.54 Q1356.06 1531.54 1360.23 1536.18 Q1364.43 1540.8 1364.43 1548.76 M1358.58 1547.04 Q1358.51 1542.23 1355.87 1539.37 Q1353.26 1536.5 1348.93 1536.5 Q1344.03 1536.5 1341.07 1539.27 Q1338.14 1542.04 1337.7 1547.07 L1358.58 1547.04 Z" fill="#000000" fill-rule="nonzero" fill-opacity="1" /><polyline clip-path="url(#clip870)" style="stroke:#000000; stroke-linecap:round; stroke-linejoin:round; stroke-width:4; stroke-opacity:1; fill:none" points="219.866,1423.18 219.866,123.472 "/>
<polyline clip-path="url(#clip870)" style="stroke:#000000; stroke-linecap:round; stroke-linejoin:round; stroke-width:4; stroke-opacity:1; fill:none" points="219.866,1386.4 238.764,1386.4 "/>
<polyline clip-path="url(#clip870)" style="stroke:#000000; stroke-linecap:round; stroke-linejoin:round; stroke-width:4; stroke-opacity:1; fill:none" points="219.866,1090.8 238.764,1090.8 "/>
<polyline clip-path="url(#clip870)" style="stroke:#000000; stroke-linecap:round; stroke-linejoin:round; stroke-width:4; stroke-opacity:1; fill:none" points="219.866,795.214 238.764,795.214 "/>
<polyline clip-path="url(#clip870)" style="stroke:#000000; stroke-linecap:round; stroke-linejoin:round; stroke-width:4; stroke-opacity:1; fill:none" points="219.866,499.622 238.764,499.622 "/>
<polyline clip-path="url(#clip870)" style="stroke:#000000; stroke-linecap:round; stroke-linejoin:round; stroke-width:4; stroke-opacity:1; fill:none" points="219.866,204.031 238.764,204.031 "/>
<path clip-path="url(#clip870)" d="M126.691 1372.19 Q123.08 1372.19 121.251 1375.76 Q119.445 1379.3 119.445 1386.43 Q119.445 1393.54 121.251 1397.1 Q123.08 1400.64 126.691 1400.64 Q130.325 1400.64 132.13 1397.1 Q133.959 1393.54 133.959 1386.43 Q133.959 1379.3 132.13 1375.76 Q130.325 1372.19 126.691 1372.19 M126.691 1368.49 Q132.501 1368.49 135.556 1373.1 Q138.635 1377.68 138.635 1386.43 Q138.635 1395.16 135.556 1399.76 Q132.501 1404.35 126.691 1404.35 Q120.88 1404.35 117.802 1399.76 Q114.746 1395.16 114.746 1386.43 Q114.746 1377.68 117.802 1373.1 Q120.88 1368.49 126.691 1368.49 Z" fill="#000000" fill-rule="nonzero" fill-opacity="1" /><path clip-path="url(#clip870)" d="M146.853 1397.8 L151.737 1397.8 L151.737 1403.68 L146.853 1403.68 L146.853 1397.8 Z" fill="#000000" fill-rule="nonzero" fill-opacity="1" /><path clip-path="url(#clip870)" d="M171.922 1372.19 Q168.311 1372.19 166.482 1375.76 Q164.677 1379.3 164.677 1386.43 Q164.677 1393.54 166.482 1397.1 Q168.311 1400.64 171.922 1400.64 Q175.556 1400.64 177.362 1397.1 Q179.19 1393.54 179.19 1386.43 Q179.19 1379.3 177.362 1375.76 Q175.556 1372.19 171.922 1372.19 M171.922 1368.49 Q177.732 1368.49 180.788 1373.1 Q183.866 1377.68 183.866 1386.43 Q183.866 1395.16 180.788 1399.76 Q177.732 1404.35 171.922 1404.35 Q166.112 1404.35 163.033 1399.76 Q159.978 1395.16 159.978 1386.43 Q159.978 1377.68 163.033 1373.1 Q166.112 1368.49 171.922 1368.49 Z" fill="#000000" fill-rule="nonzero" fill-opacity="1" /><path clip-path="url(#clip870)" d="M128.288 1076.6 Q124.677 1076.6 122.848 1080.17 Q121.043 1083.71 121.043 1090.84 Q121.043 1097.95 122.848 1101.51 Q124.677 1105.05 128.288 1105.05 Q131.922 1105.05 133.728 1101.51 Q135.556 1097.95 135.556 1090.84 Q135.556 1083.71 133.728 1080.17 Q131.922 1076.6 128.288 1076.6 M128.288 1072.9 Q134.098 1072.9 137.154 1077.51 Q140.232 1082.09 140.232 1090.84 Q140.232 1099.57 137.154 1104.17 Q134.098 1108.76 128.288 1108.76 Q122.478 1108.76 119.399 1104.17 Q116.343 1099.57 116.343 1090.84 Q116.343 1082.09 119.399 1077.51 Q122.478 1072.9 128.288 1072.9 Z" fill="#000000" fill-rule="nonzero" fill-opacity="1" /><path clip-path="url(#clip870)" d="M148.45 1102.2 L153.334 1102.2 L153.334 1108.08 L148.45 1108.08 L148.45 1102.2 Z" fill="#000000" fill-rule="nonzero" fill-opacity="1" /><path clip-path="url(#clip870)" d="M167.547 1104.15 L183.866 1104.15 L183.866 1108.08 L161.922 1108.08 L161.922 1104.15 Q164.584 1101.39 169.167 1096.77 Q173.774 1092.11 174.954 1090.77 Q177.2 1088.25 178.079 1086.51 Q178.982 1084.75 178.982 1083.06 Q178.982 1080.31 177.038 1078.57 Q175.116 1076.83 172.014 1076.83 Q169.815 1076.83 167.362 1077.6 Q164.931 1078.36 162.153 1079.91 L162.153 1075.19 Q164.977 1074.06 167.431 1073.48 Q169.885 1072.9 171.922 1072.9 Q177.292 1072.9 180.487 1075.58 Q183.681 1078.27 183.681 1082.76 Q183.681 1084.89 182.871 1086.81 Q182.084 1088.71 179.977 1091.3 Q179.399 1091.97 176.297 1095.19 Q173.195 1098.39 167.547 1104.15 Z" fill="#000000" fill-rule="nonzero" fill-opacity="1" /><path clip-path="url(#clip870)" d="M126.205 781.012 Q122.593 781.012 120.765 784.577 Q118.959 788.119 118.959 795.248 Q118.959 802.355 120.765 805.919 Q122.593 809.461 126.205 809.461 Q129.839 809.461 131.644 805.919 Q133.473 802.355 133.473 795.248 Q133.473 788.119 131.644 784.577 Q129.839 781.012 126.205 781.012 M126.205 777.309 Q132.015 777.309 135.07 781.915 Q138.149 786.498 138.149 795.248 Q138.149 803.975 135.07 808.582 Q132.015 813.165 126.205 813.165 Q120.394 813.165 117.316 808.582 Q114.26 803.975 114.26 795.248 Q114.26 786.498 117.316 781.915 Q120.394 777.309 126.205 777.309 Z" fill="#000000" fill-rule="nonzero" fill-opacity="1" /><path clip-path="url(#clip870)" d="M146.366 806.614 L151.251 806.614 L151.251 812.494 L146.366 812.494 L146.366 806.614 Z" fill="#000000" fill-rule="nonzero" fill-opacity="1" /><path clip-path="url(#clip870)" d="M174.283 782.008 L162.477 800.457 L174.283 800.457 L174.283 782.008 M173.056 777.934 L178.936 777.934 L178.936 800.457 L183.866 800.457 L183.866 804.345 L178.936 804.345 L178.936 812.494 L174.283 812.494 L174.283 804.345 L158.681 804.345 L158.681 799.832 L173.056 777.934 Z" fill="#000000" fill-rule="nonzero" fill-opacity="1" /><path clip-path="url(#clip870)" d="M126.529 485.421 Q122.918 485.421 121.089 488.986 Q119.283 492.528 119.283 499.657 Q119.283 506.764 121.089 510.328 Q122.918 513.87 126.529 513.87 Q130.163 513.87 131.968 510.328 Q133.797 506.764 133.797 499.657 Q133.797 492.528 131.968 488.986 Q130.163 485.421 126.529 485.421 M126.529 481.717 Q132.339 481.717 135.394 486.324 Q138.473 490.907 138.473 499.657 Q138.473 508.384 135.394 512.99 Q132.339 517.574 126.529 517.574 Q120.718 517.574 117.64 512.99 Q114.584 508.384 114.584 499.657 Q114.584 490.907 117.64 486.324 Q120.718 481.717 126.529 481.717 Z" fill="#000000" fill-rule="nonzero" fill-opacity="1" /><path clip-path="url(#clip870)" d="M146.691 511.023 L151.575 511.023 L151.575 516.902 L146.691 516.902 L146.691 511.023 Z" fill="#000000" fill-rule="nonzero" fill-opacity="1" /><path clip-path="url(#clip870)" d="M172.339 497.759 Q169.19 497.759 167.339 499.912 Q165.51 502.065 165.51 505.815 Q165.51 509.541 167.339 511.717 Q169.19 513.87 172.339 513.87 Q175.487 513.87 177.315 511.717 Q179.167 509.541 179.167 505.815 Q179.167 502.065 177.315 499.912 Q175.487 497.759 172.339 497.759 M181.621 483.106 L181.621 487.366 Q179.862 486.532 178.056 486.092 Q176.274 485.653 174.514 485.653 Q169.885 485.653 167.431 488.778 Q165.001 491.903 164.653 498.222 Q166.019 496.208 168.079 495.143 Q170.139 494.055 172.616 494.055 Q177.825 494.055 180.834 497.227 Q183.866 500.375 183.866 505.815 Q183.866 511.139 180.718 514.356 Q177.57 517.574 172.339 517.574 Q166.343 517.574 163.172 512.99 Q160.001 508.384 160.001 499.657 Q160.001 491.463 163.89 486.602 Q167.778 481.717 174.329 481.717 Q176.089 481.717 177.871 482.065 Q179.676 482.412 181.621 483.106 Z" fill="#000000" fill-rule="nonzero" fill-opacity="1" /><path clip-path="url(#clip870)" d="M126.783 189.83 Q123.172 189.83 121.343 193.395 Q119.538 196.937 119.538 204.066 Q119.538 211.173 121.343 214.737 Q123.172 218.279 126.783 218.279 Q130.417 218.279 132.223 214.737 Q134.052 211.173 134.052 204.066 Q134.052 196.937 132.223 193.395 Q130.417 189.83 126.783 189.83 M126.783 186.126 Q132.593 186.126 135.649 190.733 Q138.728 195.316 138.728 204.066 Q138.728 212.793 135.649 217.399 Q132.593 221.983 126.783 221.983 Q120.973 221.983 117.894 217.399 Q114.839 212.793 114.839 204.066 Q114.839 195.316 117.894 190.733 Q120.973 186.126 126.783 186.126 Z" fill="#000000" fill-rule="nonzero" fill-opacity="1" /><path clip-path="url(#clip870)" d="M146.945 215.432 L151.829 215.432 L151.829 221.311 L146.945 221.311 L146.945 215.432 Z" fill="#000000" fill-rule="nonzero" fill-opacity="1" /><path clip-path="url(#clip870)" d="M172.014 204.899 Q168.681 204.899 166.76 206.682 Q164.862 208.464 164.862 211.589 Q164.862 214.714 166.76 216.497 Q168.681 218.279 172.014 218.279 Q175.348 218.279 177.269 216.497 Q179.19 214.691 179.19 211.589 Q179.19 208.464 177.269 206.682 Q175.371 204.899 172.014 204.899 M167.339 202.909 Q164.329 202.168 162.64 200.108 Q160.973 198.048 160.973 195.085 Q160.973 190.941 163.913 188.534 Q166.876 186.126 172.014 186.126 Q177.176 186.126 180.116 188.534 Q183.056 190.941 183.056 195.085 Q183.056 198.048 181.366 200.108 Q179.7 202.168 176.714 202.909 Q180.093 203.696 181.968 205.987 Q183.866 208.279 183.866 211.589 Q183.866 216.612 180.788 219.298 Q177.732 221.983 172.014 221.983 Q166.297 221.983 163.218 219.298 Q160.163 216.612 160.163 211.589 Q160.163 208.279 162.061 205.987 Q163.959 203.696 167.339 202.909 M165.626 195.524 Q165.626 198.21 167.292 199.714 Q168.982 201.219 172.014 201.219 Q175.024 201.219 176.714 199.714 Q178.426 198.21 178.426 195.524 Q178.426 192.839 176.714 191.335 Q175.024 189.83 172.014 189.83 Q168.982 189.83 167.292 191.335 Q165.626 192.839 165.626 195.524 Z" fill="#000000" fill-rule="nonzero" fill-opacity="1" /><path clip-path="url(#clip870)" d="M21.7677 886.636 L58.7206 886.636 L58.7206 878.869 Q58.7206 869.034 54.2646 864.483 Q49.8086 859.9 40.1964 859.9 Q30.6479 859.9 26.2237 864.483 Q21.7677 869.034 21.7677 878.869 L21.7677 886.636 M16.4842 893.065 L16.4842 879.856 Q16.4842 866.043 22.2451 859.581 Q27.9743 853.12 40.1964 853.12 Q52.4822 853.12 58.2432 859.613 Q64.0042 866.106 64.0042 879.856 L64.0042 893.065 L16.4842 893.065 Z" fill="#000000" fill-rule="nonzero" fill-opacity="1" /><path clip-path="url(#clip870)" d="M44.7161 812.634 L47.5806 812.634 L47.5806 839.561 Q53.6281 839.179 56.8109 835.933 Q59.9619 832.654 59.9619 826.83 Q59.9619 823.456 59.1344 820.305 Q58.3069 817.122 56.6518 814.003 L62.1899 814.003 Q63.5267 817.154 64.227 820.464 Q64.9272 823.774 64.9272 827.18 Q64.9272 835.71 59.9619 840.707 Q54.9967 845.672 46.5303 845.672 Q37.7774 845.672 32.6531 840.962 Q27.4968 836.219 27.4968 828.198 Q27.4968 821.005 32.1438 816.836 Q36.7589 812.634 44.7161 812.634 M42.9973 818.491 Q38.1912 818.554 35.3266 821.196 Q32.4621 823.806 32.4621 828.135 Q32.4621 833.036 35.2312 835.996 Q38.0002 838.925 43.0292 839.37 L42.9973 818.491 Z" fill="#000000" fill-rule="nonzero" fill-opacity="1" /><path clip-path="url(#clip870)" d="M42.4881 773.39 L64.0042 773.39 L64.0042 779.246 L42.679 779.246 Q37.6183 779.246 35.1038 781.219 Q32.5894 783.193 32.5894 787.14 Q32.5894 791.882 35.6131 794.619 Q38.6368 797.357 43.8567 797.357 L64.0042 797.357 L64.0042 803.245 L28.3562 803.245 L28.3562 797.357 L33.8944 797.357 Q30.6797 795.256 29.0883 792.423 Q27.4968 789.559 27.4968 785.835 Q27.4968 779.692 31.3163 776.541 Q35.1038 773.39 42.4881 773.39 Z" fill="#000000" fill-rule="nonzero" fill-opacity="1" /><path clip-path="url(#clip870)" d="M29.4065 738.983 L34.9447 738.983 Q33.6716 741.466 33.035 744.139 Q32.3984 746.813 32.3984 749.677 Q32.3984 754.038 33.7352 756.234 Q35.072 758.398 37.7456 758.398 Q39.7826 758.398 40.9603 756.839 Q42.1061 755.279 43.1565 750.569 L43.6021 748.563 Q44.9389 742.325 47.3897 739.715 Q49.8086 737.073 54.1691 737.073 Q59.1344 737.073 62.0308 741.02 Q64.9272 744.935 64.9272 751.81 Q64.9272 754.674 64.3543 757.794 Q63.8132 760.881 62.6992 764.319 L56.6518 764.319 Q58.3387 761.072 59.198 757.921 Q60.0256 754.77 60.0256 751.683 Q60.0256 747.545 58.6251 745.317 Q57.1929 743.089 54.6147 743.089 Q52.2276 743.089 50.9545 744.712 Q49.6813 746.304 48.5037 751.746 L48.0262 753.783 Q46.8804 759.226 44.5251 761.645 Q42.138 764.064 38.0002 764.064 Q32.9713 764.064 30.2341 760.499 Q27.4968 756.934 27.4968 750.378 Q27.4968 747.131 27.9743 744.267 Q28.4517 741.402 29.4065 738.983 Z" fill="#000000" fill-rule="nonzero" fill-opacity="1" /><path clip-path="url(#clip870)" d="M28.3562 727.748 L28.3562 721.891 L64.0042 721.891 L64.0042 727.748 L28.3562 727.748 M14.479 727.748 L14.479 721.891 L21.895 721.891 L21.895 727.748 L14.479 727.748 Z" fill="#000000" fill-rule="nonzero" fill-opacity="1" /><path clip-path="url(#clip870)" d="M18.2347 703.844 L28.3562 703.844 L28.3562 691.781 L32.9077 691.781 L32.9077 703.844 L52.2594 703.844 Q56.6199 703.844 57.8613 702.667 Q59.1026 701.457 59.1026 697.797 L59.1026 691.781 L64.0042 691.781 L64.0042 697.797 Q64.0042 704.576 61.4897 707.154 Q58.9434 709.733 52.2594 709.733 L32.9077 709.733 L32.9077 714.029 L28.3562 714.029 L28.3562 709.733 L18.2347 709.733 L18.2347 703.844 Z" fill="#000000" fill-rule="nonzero" fill-opacity="1" /><path clip-path="url(#clip870)" d="M67.3143 669.247 Q73.68 671.729 75.6216 674.085 Q77.5631 676.44 77.5631 680.387 L77.5631 685.065 L72.6615 685.065 L72.6615 681.628 Q72.6615 679.209 71.5157 677.872 Q70.3699 676.535 66.1048 674.912 L63.4312 673.862 L28.3562 688.28 L28.3562 682.074 L56.238 670.934 L28.3562 659.794 L28.3562 653.587 L67.3143 669.247 Z" fill="#000000" fill-rule="nonzero" fill-opacity="1" /><path clip-path="url(#clip870)" d="M667.515 63.9476 L667.515 47.7034 L654.147 47.7034 L654.147 40.9789 L675.617 40.9789 L675.617 66.9452 Q670.877 70.3075 665.166 72.0494 Q659.454 73.7508 652.972 73.7508 Q638.794 73.7508 630.774 65.4869 Q622.793 57.1826 622.793 42.3968 Q622.793 27.5705 630.774 19.3066 Q638.794 11.0023 652.972 11.0023 Q658.887 11.0023 664.193 12.4606 Q669.541 13.9189 674.037 16.7545 L674.037 25.464 Q669.5 21.6156 664.396 19.6712 Q659.292 17.7268 653.661 17.7268 Q642.562 17.7268 636.971 23.9246 Q631.422 30.1225 631.422 42.3968 Q631.422 54.6305 636.971 60.8284 Q642.562 67.0263 653.661 67.0263 Q657.996 67.0263 661.398 66.2971 Q664.801 65.5274 667.515 63.9476 Z" fill="#000000" fill-rule="nonzero" fill-opacity="1" /><path clip-path="url(#clip870)" d="M729.048 48.0275 L729.048 51.6733 L694.778 51.6733 Q695.264 59.3701 699.396 63.421 Q703.568 67.4314 710.981 67.4314 Q715.275 67.4314 719.286 66.3781 Q723.337 65.3249 727.307 63.2184 L727.307 70.267 Q723.296 71.9684 719.083 72.8596 Q714.87 73.7508 710.536 73.7508 Q699.679 73.7508 693.319 67.4314 Q687 61.1119 687 50.3365 Q687 39.1965 692.995 32.6746 Q699.031 26.1121 709.24 26.1121 Q718.395 26.1121 723.701 32.0264 Q729.048 37.9003 729.048 48.0275 M721.595 45.84 Q721.514 39.7232 718.152 36.0774 Q714.83 32.4315 709.321 32.4315 Q703.082 32.4315 699.315 35.9558 Q695.588 39.4801 695.021 45.8805 L721.595 45.84 Z" fill="#000000" fill-rule="nonzero" fill-opacity="1" /><path clip-path="url(#clip870)" d="M778.996 45.1919 L778.996 72.576 L771.542 72.576 L771.542 45.4349 Q771.542 38.994 769.031 35.7938 Q766.519 32.5936 761.496 32.5936 Q755.46 32.5936 751.977 36.4419 Q748.493 40.2903 748.493 46.9338 L748.493 72.576 L740.999 72.576 L740.999 27.2059 L748.493 27.2059 L748.493 34.2544 Q751.166 30.163 754.772 28.1376 Q758.418 26.1121 763.157 26.1121 Q770.975 26.1121 774.986 30.9732 Q778.996 35.7938 778.996 45.1919 Z" fill="#000000" fill-rule="nonzero" fill-opacity="1" /><path clip-path="url(#clip870)" d="M832.671 48.0275 L832.671 51.6733 L798.4 51.6733 Q798.886 59.3701 803.018 63.421 Q807.19 67.4314 814.604 67.4314 Q818.898 67.4314 822.908 66.3781 Q826.959 65.3249 830.929 63.2184 L830.929 70.267 Q826.918 71.9684 822.705 72.8596 Q818.492 73.7508 814.158 73.7508 Q803.302 73.7508 796.942 67.4314 Q790.622 61.1119 790.622 50.3365 Q790.622 39.1965 796.618 32.6746 Q802.653 26.1121 812.862 26.1121 Q822.017 26.1121 827.323 32.0264 Q832.671 37.9003 832.671 48.0275 M825.217 45.84 Q825.136 39.7232 821.774 36.0774 Q818.452 32.4315 812.943 32.4315 Q806.704 32.4315 802.937 35.9558 Q799.21 39.4801 798.643 45.8805 L825.217 45.84 Z" fill="#000000" fill-rule="nonzero" fill-opacity="1" /><path clip-path="url(#clip870)" d="M871.195 34.1734 Q869.939 33.4443 868.44 33.1202 Q866.982 32.7556 865.199 32.7556 Q858.88 32.7556 855.477 36.8875 Q852.115 40.9789 852.115 48.6757 L852.115 72.576 L844.621 72.576 L844.621 27.2059 L852.115 27.2059 L852.115 34.2544 Q854.464 30.1225 858.232 28.1376 Q861.999 26.1121 867.387 26.1121 Q868.156 26.1121 869.088 26.2337 Q870.02 26.3147 871.154 26.5172 L871.195 34.1734 Z" fill="#000000" fill-rule="nonzero" fill-opacity="1" /><path clip-path="url(#clip870)" d="M899.632 49.7694 Q890.599 49.7694 887.115 51.8354 Q883.631 53.9013 883.631 58.8839 Q883.631 62.8538 886.224 65.2034 Q888.857 67.5124 893.353 67.5124 Q899.551 67.5124 903.278 63.1374 Q907.045 58.7219 907.045 51.4303 L907.045 49.7694 L899.632 49.7694 M914.499 46.6907 L914.499 72.576 L907.045 72.576 L907.045 65.6895 Q904.493 69.8214 900.685 71.8063 Q896.877 73.7508 891.368 73.7508 Q884.401 73.7508 880.269 69.8619 Q876.177 65.9325 876.177 59.3701 Q876.177 51.7138 881.281 47.825 Q886.426 43.9361 896.594 43.9361 L907.045 43.9361 L907.045 43.2069 Q907.045 38.0623 903.642 35.2672 Q900.28 32.4315 894.163 32.4315 Q890.274 32.4315 886.588 33.3632 Q882.902 34.295 879.499 36.1584 L879.499 29.2718 Q883.59 27.692 887.439 26.9223 Q891.287 26.1121 894.933 26.1121 Q904.777 26.1121 909.638 31.2163 Q914.499 36.3204 914.499 46.6907 Z" fill="#000000" fill-rule="nonzero" fill-opacity="1" /><path clip-path="url(#clip870)" d="M929.852 9.54393 L937.305 9.54393 L937.305 72.576 L929.852 72.576 L929.852 9.54393 Z" fill="#000000" fill-rule="nonzero" fill-opacity="1" /><path clip-path="url(#clip870)" d="M952.901 27.2059 L960.355 27.2059 L960.355 72.576 L952.901 72.576 L952.901 27.2059 M952.901 9.54393 L960.355 9.54393 L960.355 18.9825 L952.901 18.9825 L952.901 9.54393 Z" fill="#000000" fill-rule="nonzero" fill-opacity="1" /><path clip-path="url(#clip870)" d="M972.71 27.2059 L1008.12 27.2059 L1008.12 34.0114 L980.083 66.6212 L1008.12 66.6212 L1008.12 72.576 L971.698 72.576 L971.698 65.7705 L999.73 33.1607 L972.71 33.1607 L972.71 27.2059 Z" fill="#000000" fill-rule="nonzero" fill-opacity="1" /><path clip-path="url(#clip870)" d="M1058.31 48.0275 L1058.31 51.6733 L1024.04 51.6733 Q1024.52 59.3701 1028.65 63.421 Q1032.83 67.4314 1040.24 67.4314 Q1044.53 67.4314 1048.54 66.3781 Q1052.59 65.3249 1056.56 63.2184 L1056.56 70.267 Q1052.55 71.9684 1048.34 72.8596 Q1044.13 73.7508 1039.79 73.7508 Q1028.94 73.7508 1022.58 67.4314 Q1016.26 61.1119 1016.26 50.3365 Q1016.26 39.1965 1022.25 32.6746 Q1028.29 26.1121 1038.5 26.1121 Q1047.65 26.1121 1052.96 32.0264 Q1058.31 37.9003 1058.31 48.0275 M1050.85 45.84 Q1050.77 39.7232 1047.41 36.0774 Q1044.09 32.4315 1038.58 32.4315 Q1032.34 32.4315 1028.57 35.9558 Q1024.85 39.4801 1024.28 45.8805 L1050.85 45.84 Z" fill="#000000" fill-rule="nonzero" fill-opacity="1" /><path clip-path="url(#clip870)" d="M1100.39 34.0924 L1100.39 9.54393 L1107.85 9.54393 L1107.85 72.576 L1100.39 72.576 L1100.39 65.7705 Q1098.05 69.8214 1094.44 71.8063 Q1090.88 73.7508 1085.85 73.7508 Q1077.63 73.7508 1072.44 67.1883 Q1067.3 60.6258 1067.3 49.9314 Q1067.3 39.2371 1072.44 32.6746 Q1077.63 26.1121 1085.85 26.1121 Q1090.88 26.1121 1094.44 28.0971 Q1098.05 30.0415 1100.39 34.0924 M1075 49.9314 Q1075 58.1548 1078.36 62.8538 Q1081.76 67.5124 1087.67 67.5124 Q1093.59 67.5124 1096.99 62.8538 Q1100.39 58.1548 1100.39 49.9314 Q1100.39 41.7081 1096.99 37.0496 Q1093.59 32.3505 1087.67 32.3505 Q1081.76 32.3505 1078.36 37.0496 Q1075 41.7081 1075 49.9314 Z" fill="#000000" fill-rule="nonzero" fill-opacity="1" /><path clip-path="url(#clip870)" d="M1179.43 49.3643 Q1179.43 41.2625 1176.07 36.8065 Q1172.74 32.3505 1166.71 32.3505 Q1160.71 32.3505 1157.35 36.8065 Q1154.03 41.2625 1154.03 49.3643 Q1154.03 57.4256 1157.35 61.8816 Q1160.71 66.3376 1166.71 66.3376 Q1172.74 66.3376 1176.07 61.8816 Q1179.43 57.4256 1179.43 49.3643 M1186.88 66.9452 Q1186.88 78.5308 1181.74 84.1616 Q1176.59 89.8329 1165.98 89.8329 Q1162.05 89.8329 1158.57 89.2252 Q1155.08 88.6581 1151.8 87.4428 L1151.8 80.1917 Q1155.08 81.9741 1158.28 82.8248 Q1161.48 83.6755 1164.8 83.6755 Q1172.14 83.6755 1175.78 79.8271 Q1179.43 76.0193 1179.43 68.282 L1179.43 64.5957 Q1177.12 68.6061 1173.51 70.5911 Q1169.91 72.576 1164.89 72.576 Q1156.54 72.576 1151.44 66.2161 Q1146.33 59.8562 1146.33 49.3643 Q1146.33 38.832 1151.44 32.472 Q1156.54 26.1121 1164.89 26.1121 Q1169.91 26.1121 1173.51 28.0971 Q1177.12 30.082 1179.43 34.0924 L1179.43 27.2059 L1186.88 27.2059 L1186.88 66.9452 Z" fill="#000000" fill-rule="nonzero" fill-opacity="1" /><path clip-path="url(#clip870)" d="M1222.85 49.7694 Q1213.82 49.7694 1210.34 51.8354 Q1206.85 53.9013 1206.85 58.8839 Q1206.85 62.8538 1209.45 65.2034 Q1212.08 67.5124 1216.57 67.5124 Q1222.77 67.5124 1226.5 63.1374 Q1230.27 58.7219 1230.27 51.4303 L1230.27 49.7694 L1222.85 49.7694 M1237.72 46.6907 L1237.72 72.576 L1230.27 72.576 L1230.27 65.6895 Q1227.71 69.8214 1223.91 71.8063 Q1220.1 73.7508 1214.59 73.7508 Q1207.62 73.7508 1203.49 69.8619 Q1199.4 65.9325 1199.4 59.3701 Q1199.4 51.7138 1204.5 47.825 Q1209.65 43.9361 1219.82 43.9361 L1230.27 43.9361 L1230.27 43.2069 Q1230.27 38.0623 1226.86 35.2672 Q1223.5 32.4315 1217.38 32.4315 Q1213.5 32.4315 1209.81 33.3632 Q1206.12 34.295 1202.72 36.1584 L1202.72 29.2718 Q1206.81 27.692 1210.66 26.9223 Q1214.51 26.1121 1218.15 26.1121 Q1228 26.1121 1232.86 31.2163 Q1237.72 36.3204 1237.72 46.6907 Z" fill="#000000" fill-rule="nonzero" fill-opacity="1" /><path clip-path="url(#clip870)" d="M1288.4 35.9153 Q1291.19 30.8922 1295.08 28.5022 Q1298.97 26.1121 1304.24 26.1121 Q1311.33 26.1121 1315.17 31.0947 Q1319.02 36.0368 1319.02 45.1919 L1319.02 72.576 L1311.53 72.576 L1311.53 45.4349 Q1311.53 38.913 1309.22 35.7533 Q1306.91 32.5936 1302.17 32.5936 Q1296.38 32.5936 1293.02 36.4419 Q1289.65 40.2903 1289.65 46.9338 L1289.65 72.576 L1282.16 72.576 L1282.16 45.4349 Q1282.16 38.8725 1279.85 35.7533 Q1277.54 32.5936 1272.72 32.5936 Q1267.01 32.5936 1263.65 36.4824 Q1260.28 40.3308 1260.28 46.9338 L1260.28 72.576 L1252.79 72.576 L1252.79 27.2059 L1260.28 27.2059 L1260.28 34.2544 Q1262.84 30.082 1266.4 28.0971 Q1269.97 26.1121 1274.87 26.1121 Q1279.81 26.1121 1283.25 28.6237 Q1286.74 31.1352 1288.4 35.9153 Z" fill="#000000" fill-rule="nonzero" fill-opacity="1" /><path clip-path="url(#clip870)" d="M1369.21 35.9153 Q1372.01 30.8922 1375.9 28.5022 Q1379.79 26.1121 1385.05 26.1121 Q1392.14 26.1121 1395.99 31.0947 Q1399.84 36.0368 1399.84 45.1919 L1399.84 72.576 L1392.34 72.576 L1392.34 45.4349 Q1392.34 38.913 1390.03 35.7533 Q1387.73 32.5936 1382.99 32.5936 Q1377.19 32.5936 1373.83 36.4419 Q1370.47 40.2903 1370.47 46.9338 L1370.47 72.576 L1362.97 72.576 L1362.97 45.4349 Q1362.97 38.8725 1360.67 35.7533 Q1358.36 32.5936 1353.54 32.5936 Q1347.82 32.5936 1344.46 36.4824 Q1341.1 40.3308 1341.1 46.9338 L1341.1 72.576 L1333.61 72.576 L1333.61 27.2059 L1341.1 27.2059 L1341.1 34.2544 Q1343.65 30.082 1347.22 28.0971 Q1350.78 26.1121 1355.68 26.1121 Q1360.62 26.1121 1364.07 28.6237 Q1367.55 31.1352 1369.21 35.9153 Z" fill="#000000" fill-rule="nonzero" fill-opacity="1" /><path clip-path="url(#clip870)" d="M1435.32 49.7694 Q1426.29 49.7694 1422.81 51.8354 Q1419.32 53.9013 1419.32 58.8839 Q1419.32 62.8538 1421.92 65.2034 Q1424.55 67.5124 1429.04 67.5124 Q1435.24 67.5124 1438.97 63.1374 Q1442.74 58.7219 1442.74 51.4303 L1442.74 49.7694 L1435.32 49.7694 M1450.19 46.6907 L1450.19 72.576 L1442.74 72.576 L1442.74 65.6895 Q1440.18 69.8214 1436.38 71.8063 Q1432.57 73.7508 1427.06 73.7508 Q1420.09 73.7508 1415.96 69.8619 Q1411.87 65.9325 1411.87 59.3701 Q1411.87 51.7138 1416.97 47.825 Q1422.12 43.9361 1432.29 43.9361 L1442.74 43.9361 L1442.74 43.2069 Q1442.74 38.0623 1439.33 35.2672 Q1435.97 32.4315 1429.85 32.4315 Q1425.97 32.4315 1422.28 33.3632 Q1418.59 34.295 1415.19 36.1584 L1415.19 29.2718 Q1419.28 27.692 1423.13 26.9223 Q1426.98 26.1121 1430.62 26.1121 Q1440.47 26.1121 1445.33 31.2163 Q1450.19 36.3204 1450.19 46.6907 Z" fill="#000000" fill-rule="nonzero" fill-opacity="1" /><path clip-path="url(#clip870)" d="M1521.77 34.0924 L1521.77 9.54393 L1529.22 9.54393 L1529.22 72.576 L1521.77 72.576 L1521.77 65.7705 Q1519.42 69.8214 1515.82 71.8063 Q1512.25 73.7508 1507.23 73.7508 Q1499 73.7508 1493.82 67.1883 Q1488.67 60.6258 1488.67 49.9314 Q1488.67 39.2371 1493.82 32.6746 Q1499 26.1121 1507.23 26.1121 Q1512.25 26.1121 1515.82 28.0971 Q1519.42 30.0415 1521.77 34.0924 M1496.37 49.9314 Q1496.37 58.1548 1499.73 62.8538 Q1503.14 67.5124 1509.05 67.5124 Q1514.96 67.5124 1518.37 62.8538 Q1521.77 58.1548 1521.77 49.9314 Q1521.77 41.7081 1518.37 37.0496 Q1514.96 32.3505 1509.05 32.3505 Q1503.14 32.3505 1499.73 37.0496 Q1496.37 41.7081 1496.37 49.9314 Z" fill="#000000" fill-rule="nonzero" fill-opacity="1" /><path clip-path="url(#clip870)" d="M1544.58 27.2059 L1552.03 27.2059 L1552.03 72.576 L1544.58 72.576 L1544.58 27.2059 M1544.58 9.54393 L1552.03 9.54393 L1552.03 18.9825 L1544.58 18.9825 L1544.58 9.54393 Z" fill="#000000" fill-rule="nonzero" fill-opacity="1" /><path clip-path="url(#clip870)" d="M1596.55 28.5427 L1596.55 35.5912 Q1593.39 33.9709 1589.99 33.1607 Q1586.58 32.3505 1582.94 32.3505 Q1577.39 32.3505 1574.59 34.0519 Q1571.84 35.7533 1571.84 39.156 Q1571.84 41.7486 1573.82 43.2475 Q1575.81 44.7058 1581.8 46.0426 L1584.36 46.6097 Q1592.3 48.3111 1595.62 51.4303 Q1598.98 54.509 1598.98 60.0587 Q1598.98 66.3781 1593.96 70.0644 Q1588.97 73.7508 1580.22 73.7508 Q1576.58 73.7508 1572.61 73.0216 Q1568.68 72.3329 1564.3 70.9151 L1564.3 63.2184 Q1568.44 65.3654 1572.45 66.4591 Q1576.46 67.5124 1580.39 67.5124 Q1585.65 67.5124 1588.49 65.73 Q1591.32 63.9071 1591.32 60.6258 Q1591.32 57.5877 1589.26 55.9673 Q1587.23 54.3469 1580.31 52.8481 L1577.71 52.2405 Q1570.79 50.7821 1567.71 47.7845 Q1564.63 44.7463 1564.63 39.4801 Q1564.63 33.0797 1569.17 29.5959 Q1573.7 26.1121 1582.05 26.1121 Q1586.18 26.1121 1589.83 26.7198 Q1593.47 27.3274 1596.55 28.5427 Z" fill="#000000" fill-rule="nonzero" fill-opacity="1" /><path clip-path="url(#clip870)" d="M1618.22 14.324 L1618.22 27.2059 L1633.57 27.2059 L1633.57 32.9987 L1618.22 32.9987 L1618.22 57.6282 Q1618.22 63.1779 1619.72 64.7578 Q1621.26 66.3376 1625.92 66.3376 L1633.57 66.3376 L1633.57 72.576 L1625.92 72.576 Q1617.29 72.576 1614.01 69.3758 Q1610.73 66.1351 1610.73 57.6282 L1610.73 32.9987 L1605.26 32.9987 L1605.26 27.2059 L1610.73 27.2059 L1610.73 14.324 L1618.22 14.324 Z" fill="#000000" fill-rule="nonzero" fill-opacity="1" /><path clip-path="url(#clip870)" d="M1669.67 34.1734 Q1668.41 33.4443 1666.91 33.1202 Q1665.46 32.7556 1663.67 32.7556 Q1657.35 32.7556 1653.95 36.8875 Q1650.59 40.9789 1650.59 48.6757 L1650.59 72.576 L1643.09 72.576 L1643.09 27.2059 L1650.59 27.2059 L1650.59 34.2544 Q1652.94 30.1225 1656.71 28.1376 Q1660.47 26.1121 1665.86 26.1121 Q1666.63 26.1121 1667.56 26.2337 Q1668.49 26.3147 1669.63 26.5172 L1669.67 34.1734 Z" fill="#000000" fill-rule="nonzero" fill-opacity="1" /><path clip-path="url(#clip870)" d="M1677.49 27.2059 L1684.94 27.2059 L1684.94 72.576 L1677.49 72.576 L1677.49 27.2059 M1677.49 9.54393 L1684.94 9.54393 L1684.94 18.9825 L1677.49 18.9825 L1677.49 9.54393 Z" fill="#000000" fill-rule="nonzero" fill-opacity="1" /><path clip-path="url(#clip870)" d="M1733.11 49.9314 Q1733.11 41.7081 1729.7 37.0496 Q1726.34 32.3505 1720.43 32.3505 Q1714.51 32.3505 1711.11 37.0496 Q1707.75 41.7081 1707.75 49.9314 Q1707.75 58.1548 1711.11 62.8538 Q1714.51 67.5124 1720.43 67.5124 Q1726.34 67.5124 1729.7 62.8538 Q1733.11 58.1548 1733.11 49.9314 M1707.75 34.0924 Q1710.1 30.0415 1713.66 28.0971 Q1717.27 26.1121 1722.25 26.1121 Q1730.51 26.1121 1735.66 32.6746 Q1740.84 39.2371 1740.84 49.9314 Q1740.84 60.6258 1735.66 67.1883 Q1730.51 73.7508 1722.25 73.7508 Q1717.27 73.7508 1713.66 71.8063 Q1710.1 69.8214 1707.75 65.7705 L1707.75 72.576 L1700.25 72.576 L1700.25 9.54393 L1707.75 9.54393 L1707.75 34.0924 Z" fill="#000000" fill-rule="nonzero" fill-opacity="1" /><path clip-path="url(#clip870)" d="M1752.43 54.671 L1752.43 27.2059 L1759.88 27.2059 L1759.88 54.3874 Q1759.88 60.8284 1762.39 64.0691 Q1764.91 67.2693 1769.93 67.2693 Q1775.96 67.2693 1779.45 63.421 Q1782.97 59.5726 1782.97 52.9291 L1782.97 27.2059 L1790.43 27.2059 L1790.43 72.576 L1782.97 72.576 L1782.97 65.6084 Q1780.26 69.7404 1776.65 71.7658 Q1773.09 73.7508 1768.35 73.7508 Q1760.53 73.7508 1756.48 68.8897 Q1752.43 64.0286 1752.43 54.671 M1771.18 26.1121 L1771.18 26.1121 Z" fill="#000000" fill-rule="nonzero" fill-opacity="1" /><path clip-path="url(#clip870)" d="M1813.15 14.324 L1813.15 27.2059 L1828.5 27.2059 L1828.5 32.9987 L1813.15 32.9987 L1813.15 57.6282 Q1813.15 63.1779 1814.65 64.7578 Q1816.19 66.3376 1820.85 66.3376 L1828.5 66.3376 L1828.5 72.576 L1820.85 72.576 Q1812.22 72.576 1808.94 69.3758 Q1805.66 66.1351 1805.66 57.6282 L1805.66 32.9987 L1800.19 32.9987 L1800.19 27.2059 L1805.66 27.2059 L1805.66 14.324 L1813.15 14.324 Z" fill="#000000" fill-rule="nonzero" fill-opacity="1" /><path clip-path="url(#clip870)" d="M1838.31 27.2059 L1845.76 27.2059 L1845.76 72.576 L1838.31 72.576 L1838.31 27.2059 M1838.31 9.54393 L1845.76 9.54393 L1845.76 18.9825 L1838.31 18.9825 L1838.31 9.54393 Z" fill="#000000" fill-rule="nonzero" fill-opacity="1" /><path clip-path="url(#clip870)" d="M1878.94 32.4315 Q1872.94 32.4315 1869.46 37.1306 Q1865.98 41.7891 1865.98 49.9314 Q1865.98 58.0738 1869.42 62.7728 Q1872.9 67.4314 1878.94 67.4314 Q1884.89 67.4314 1888.38 62.7323 Q1891.86 58.0333 1891.86 49.9314 Q1891.86 41.8701 1888.38 37.1711 Q1884.89 32.4315 1878.94 32.4315 M1878.94 26.1121 Q1888.66 26.1121 1894.21 32.4315 Q1899.76 38.7509 1899.76 49.9314 Q1899.76 61.0714 1894.21 67.4314 Q1888.66 73.7508 1878.94 73.7508 Q1869.18 73.7508 1863.63 67.4314 Q1858.12 61.0714 1858.12 49.9314 Q1858.12 38.7509 1863.63 32.4315 Q1869.18 26.1121 1878.94 26.1121 Z" fill="#000000" fill-rule="nonzero" fill-opacity="1" /><path clip-path="url(#clip870)" d="M1949.83 45.1919 L1949.83 72.576 L1942.38 72.576 L1942.38 45.4349 Q1942.38 38.994 1939.86 35.7938 Q1937.35 32.5936 1932.33 32.5936 Q1926.29 32.5936 1922.81 36.4419 Q1919.33 40.2903 1919.33 46.9338 L1919.33 72.576 L1911.83 72.576 L1911.83 27.2059 L1919.33 27.2059 L1919.33 34.2544 Q1922 30.163 1925.6 28.1376 Q1929.25 26.1121 1933.99 26.1121 Q1941.81 26.1121 1945.82 30.9732 Q1949.83 35.7938 1949.83 45.1919 Z" fill="#000000" fill-rule="nonzero" fill-opacity="1" /><polyline clip-path="url(#clip872)" style="stroke:#000000; stroke-linecap:round; stroke-linejoin:round; stroke-width:4; stroke-opacity:1; fill:none" points="300.556,1384.36 320.881,1381 341.206,1376.86 361.53,1372.11 381.855,1366.84 402.18,1361.12 422.505,1355.01 442.83,1348.53 463.155,1341.71 483.48,1334.58 503.804,1327.16 524.129,1319.46 544.454,1311.5 564.779,1303.3 585.104,1294.87 605.429,1286.21 625.753,1277.36 646.078,1268.3 666.403,1259.07 686.728,1249.66 707.053,1240.1 727.378,1230.38 747.703,1220.53 768.027,1210.56 788.352,1200.48 808.677,1190.3 829.002,1180.03 849.327,1169.71 869.652,1159.32 889.977,1148.91 910.301,1138.47 930.626,1128.03 950.951,1117.61 971.276,1107.22 991.601,1096.89 1011.93,1086.64 1032.25,1076.49 1052.58,1066.45 1072.9,1056.56 1093.23,1046.84 1113.55,1037.31 1133.87,1028 1154.2,1018.93 1174.52,1010.13 1194.85,1001.63 1215.17,993.443 1235.5,985.61 1255.82,978.153 1276.15,971.1 1296.47,964.476 1316.8,958.309 1337.12,952.625 1357.45,947.448 1377.77,942.803 1398.1,938.713 1418.42,935.201 1438.75,932.288 1459.07,929.992 1479.4,928.331 1499.72,927.321 1520.05,926.974 1540.37,927.303 1560.7,928.316 1581.02,930.018 1601.35,932.414 1621.67,935.503 1642,939.283 1662.32,943.747 1682.65,948.888 1702.97,954.692 1723.3,961.145 1743.62,968.227 1763.95,975.917 1784.27,984.189 1804.59,993.016 1824.92,1002.37 1845.24,1012.2 1865.57,1022.5 1885.89,1033.2 1906.22,1044.28 1926.54,1055.68 1946.87,1067.38 1967.19,1079.3 1987.52,1091.43 2007.84,1103.69 2028.17,1116.06 2048.49,1128.47 2068.82,1140.88 2089.14,1153.25 2109.47,1165.52 2129.79,1177.67 2150.12,1189.64 2170.44,1201.39 2190.77,1212.89 2211.09,1224.11 2231.42,1235 2251.74,1245.55 2272.07,1255.73 2292.39,1265.51 "/>
<polyline clip-path="url(#clip872)" style="stroke:#ff0000; stroke-linecap:round; stroke-linejoin:round; stroke-width:4; stroke-opacity:1; fill:none" points="300.556,1364.8 320.881,1329.16 341.206,1285.19 361.53,1234.77 381.855,1178.99 402.18,1118.65 422.505,1054.38 442.83,986.782 463.155,916.459 483.48,844.055 503.804,770.285 524.129,695.951 544.454,621.954 564.779,549.304 585.104,479.118 605.429,412.611 625.753,351.077 646.078,295.868 666.403,248.348 686.728,209.856 707.053,181.643 727.378,164.813 747.703,160.256 768.027,168.584 788.352,190.065 808.677,224.576 829.002,271.568 849.327,330.052 869.652,398.618 889.977,475.472 910.301,558.511 930.626,645.42 950.951,733.79 971.276,821.247 991.601,905.58 1011.93,984.86 1032.25,1057.54 1052.58,1122.49 1072.9,1179.09 1093.23,1227.15 1113.55,1266.89 1133.87,1298.87 1154.2,1323.9 1174.52,1342.94 1194.85,1357 1215.17,1367.07 1235.5,1374.07 1255.82,1378.77 1276.15,1381.83 1296.47,1383.75 1316.8,1384.92 1337.12,1385.6 1357.45,1385.98 1377.77,1386.19 1398.1,1386.3 1418.42,1386.35 1438.75,1386.38 1459.07,1386.39 1479.4,1386.39 1499.72,1386.39 1520.05,1386.4 1540.37,1386.4 1560.7,1386.4 1581.02,1386.4 1601.35,1386.4 1621.67,1386.4 1642,1386.4 1662.32,1386.4 1682.65,1386.4 1702.97,1386.4 1723.3,1386.4 1743.62,1386.4 1763.95,1386.4 1784.27,1386.4 1804.59,1386.4 1824.92,1386.4 1845.24,1386.4 1865.57,1386.4 1885.89,1386.4 1906.22,1386.4 1926.54,1386.4 1946.87,1386.4 1967.19,1386.4 1987.52,1386.4 2007.84,1386.4 2028.17,1386.4 2048.49,1386.4 2068.82,1386.4 2089.14,1386.4 2109.47,1386.4 2129.79,1386.4 2150.12,1386.4 2170.44,1386.4 2190.77,1386.4 2211.09,1386.4 2231.42,1386.4 2251.74,1386.4 2272.07,1386.4 2292.39,1386.4 "/>
<path clip-path="url(#clip870)" d="M1970.57 322.316 L2281.66 322.316 L2281.66 166.796 L1970.57 166.796  Z" fill="#ffffff" fill-rule="evenodd" fill-opacity="1"/>
<polyline clip-path="url(#clip870)" style="stroke:#000000; stroke-linecap:round; stroke-linejoin:round; stroke-width:4; stroke-opacity:1; fill:none" points="1970.57,322.316 2281.66,322.316 2281.66,166.796 1970.57,166.796 1970.57,322.316 "/>
<polyline clip-path="url(#clip870)" style="stroke:#000000; stroke-linecap:round; stroke-linejoin:round; stroke-width:4; stroke-opacity:1; fill:none" points="1994.27,218.636 2136.46,218.636 "/>
<path clip-path="url(#clip870)" d="M2161.73 201.356 L2166.76 201.356 L2175.35 214.203 L2183.98 201.356 L2189 201.356 L2177.89 217.953 L2189.74 235.916 L2184.72 235.916 L2175 221.217 L2165.21 235.916 L2160.16 235.916 L2172.5 217.467 L2161.73 201.356 Z" fill="#000000" fill-rule="nonzero" fill-opacity="1" /><path clip-path="url(#clip870)" d="M2196.25 214.388 L2225.92 214.388 L2225.92 218.277 L2196.25 218.277 L2196.25 214.388 M2196.25 223.832 L2225.92 223.832 L2225.92 227.768 L2196.25 227.768 L2196.25 223.832 Z" fill="#000000" fill-rule="nonzero" fill-opacity="1" /><path clip-path="url(#clip870)" d="M2246.02 204.434 Q2242.41 204.434 2240.58 207.999 Q2238.77 211.541 2238.77 218.67 Q2238.77 225.777 2240.58 229.342 Q2242.41 232.883 2246.02 232.883 Q2249.65 232.883 2251.46 229.342 Q2253.28 225.777 2253.28 218.67 Q2253.28 211.541 2251.46 207.999 Q2249.65 204.434 2246.02 204.434 M2246.02 200.731 Q2251.83 200.731 2254.88 205.337 Q2257.96 209.92 2257.96 218.67 Q2257.96 227.397 2254.88 232.004 Q2251.83 236.587 2246.02 236.587 Q2240.21 236.587 2237.13 232.004 Q2234.07 227.397 2234.07 218.67 Q2234.07 209.92 2237.13 205.337 Q2240.21 200.731 2246.02 200.731 Z" fill="#000000" fill-rule="nonzero" fill-opacity="1" /><polyline clip-path="url(#clip870)" style="stroke:#ff0000; stroke-linecap:round; stroke-linejoin:round; stroke-width:4; stroke-opacity:1; fill:none" points="1994.27,270.476 2136.46,270.476 "/>
<path clip-path="url(#clip870)" d="M2161.73 253.196 L2166.76 253.196 L2175.35 266.043 L2183.98 253.196 L2189 253.196 L2177.89 269.793 L2189.74 287.756 L2184.72 287.756 L2175 273.057 L2165.21 287.756 L2160.16 287.756 L2172.5 269.307 L2161.73 253.196 Z" fill="#000000" fill-rule="nonzero" fill-opacity="1" /><path clip-path="url(#clip870)" d="M2196.25 266.228 L2225.92 266.228 L2225.92 270.117 L2196.25 270.117 L2196.25 266.228 M2196.25 275.672 L2225.92 275.672 L2225.92 279.608 L2196.25 279.608 L2196.25 275.672 Z" fill="#000000" fill-rule="nonzero" fill-opacity="1" /><path clip-path="url(#clip870)" d="M2236.83 283.821 L2244.47 283.821 L2244.47 257.455 L2236.16 259.122 L2236.16 254.862 L2244.42 253.196 L2249.1 253.196 L2249.1 283.821 L2256.73 283.821 L2256.73 287.756 L2236.83 287.756 L2236.83 283.821 Z" fill="#000000" fill-rule="nonzero" fill-opacity="1" /></svg>
