<?xml version="1.0" encoding="utf-8"?>
<svg xmlns="http://www.w3.org/2000/svg" xmlns:xlink="http://www.w3.org/1999/xlink" width="600" height="400" viewBox="0 0 2400 1600">
<defs>
  <clipPath id="clip500">
    <rect x="0" y="0" width="2400" height="1600"/>
  </clipPath>
</defs>
<path clip-path="url(#clip500)" d="M0 1600 L2400 1600 L2400 0 L0 0  Z" fill="#ffffff" fill-rule="evenodd" fill-opacity="1"/>
<defs>
  <clipPath id="clip501">
    <rect x="480" y="0" width="1681" height="1600"/>
  </clipPath>
</defs>
<path clip-path="url(#clip500)" d="M257.204 1423.18 L2352.76 1423.18 L2352.76 47.2441 L257.204 47.2441  Z" fill="#ffffff" fill-rule="evenodd" fill-opacity="1"/>
<defs>
  <clipPath id="clip502">
    <rect x="257" y="47" width="2097" height="1377"/>
  </clipPath>
</defs>
<polyline clip-path="url(#clip500)" style="stroke:#000000; stroke-linecap:round; stroke-linejoin:round; stroke-width:4; stroke-opacity:1; fill:none" points="257.204,1423.18 2352.76,1423.18 "/>
<polyline clip-path="url(#clip500)" style="stroke:#000000; stroke-linecap:round; stroke-linejoin:round; stroke-width:4; stroke-opacity:1; fill:none" points="257.204,1423.18 257.204,1404.28 "/>
<polyline clip-path="url(#clip500)" style="stroke:#000000; stroke-linecap:round; stroke-linejoin:round; stroke-width:4; stroke-opacity:1; fill:none" points="606.96,1423.18 606.96,1404.28 "/>
<polyline clip-path="url(#clip500)" style="stroke:#000000; stroke-linecap:round; stroke-linejoin:round; stroke-width:4; stroke-opacity:1; fill:none" points="956.716,1423.18 956.716,1404.28 "/>
<polyline clip-path="url(#clip500)" style="stroke:#000000; stroke-linecap:round; stroke-linejoin:round; stroke-width:4; stroke-opacity:1; fill:none" points="1306.47,1423.18 1306.47,1404.28 "/>
<polyline clip-path="url(#clip500)" style="stroke:#000000; stroke-linecap:round; stroke-linejoin:round; stroke-width:4; stroke-opacity:1; fill:none" points="1656.23,1423.18 1656.23,1404.28 "/>
<polyline clip-path="url(#clip500)" style="stroke:#000000; stroke-linecap:round; stroke-linejoin:round; stroke-width:4; stroke-opacity:1; fill:none" points="2005.99,1423.18 2005.99,1404.28 "/>
<path clip-path="url(#clip500)" d="M234.588 1454.1 Q230.977 1454.1 229.149 1457.66 Q227.343 1461.2 227.343 1468.33 Q227.343 1475.44 229.149 1479.01 Q230.977 1482.55 234.588 1482.55 Q238.223 1482.55 240.028 1479.01 Q241.857 1475.44 241.857 1468.33 Q241.857 1461.2 240.028 1457.66 Q238.223 1454.1 234.588 1454.1 M234.588 1450.39 Q240.399 1450.39 243.454 1455 Q246.533 1459.58 246.533 1468.33 Q246.533 1477.06 243.454 1481.67 Q240.399 1486.25 234.588 1486.25 Q228.778 1486.25 225.7 1481.67 Q222.644 1477.06 222.644 1468.33 Q222.644 1459.58 225.7 1455 Q228.778 1450.39 234.588 1450.39 Z" fill="#000000" fill-rule="nonzero" fill-opacity="1" /><path clip-path="url(#clip500)" d="M254.75 1479.7 L259.635 1479.7 L259.635 1485.58 L254.75 1485.58 L254.75 1479.7 Z" fill="#000000" fill-rule="nonzero" fill-opacity="1" /><path clip-path="url(#clip500)" d="M279.82 1454.1 Q276.209 1454.1 274.38 1457.66 Q272.574 1461.2 272.574 1468.33 Q272.574 1475.44 274.38 1479.01 Q276.209 1482.55 279.82 1482.55 Q283.454 1482.55 285.259 1479.01 Q287.088 1475.44 287.088 1468.33 Q287.088 1461.2 285.259 1457.66 Q283.454 1454.1 279.82 1454.1 M279.82 1450.39 Q285.63 1450.39 288.685 1455 Q291.764 1459.58 291.764 1468.33 Q291.764 1477.06 288.685 1481.67 Q285.63 1486.25 279.82 1486.25 Q274.009 1486.25 270.931 1481.67 Q267.875 1477.06 267.875 1468.33 Q267.875 1459.58 270.931 1455 Q274.009 1450.39 279.82 1450.39 Z" fill="#000000" fill-rule="nonzero" fill-opacity="1" /><path clip-path="url(#clip500)" d="M584.842 1454.1 Q581.231 1454.1 579.403 1457.66 Q577.597 1461.2 577.597 1468.33 Q577.597 1475.44 579.403 1479.01 Q581.231 1482.55 584.842 1482.55 Q588.477 1482.55 590.282 1479.01 Q592.111 1475.44 592.111 1468.33 Q592.111 1461.2 590.282 1457.66 Q588.477 1454.1 584.842 1454.1 M584.842 1450.39 Q590.652 1450.39 593.708 1455 Q596.787 1459.58 596.787 1468.33 Q596.787 1477.06 593.708 1481.67 Q590.652 1486.25 584.842 1486.25 Q579.032 1486.25 575.953 1481.67 Q572.898 1477.06 572.898 1468.33 Q572.898 1459.58 575.953 1455 Q579.032 1450.39 584.842 1450.39 Z" fill="#000000" fill-rule="nonzero" fill-opacity="1" /><path clip-path="url(#clip500)" d="M605.004 1479.7 L609.888 1479.7 L609.888 1485.58 L605.004 1485.58 L605.004 1479.7 Z" fill="#000000" fill-rule="nonzero" fill-opacity="1" /><path clip-path="url(#clip500)" d="M620.12 1451.02 L638.476 1451.02 L638.476 1454.96 L624.402 1454.96 L624.402 1463.43 Q625.421 1463.08 626.439 1462.92 Q627.458 1462.73 628.476 1462.73 Q634.263 1462.73 637.643 1465.9 Q641.023 1469.08 641.023 1474.49 Q641.023 1480.07 637.55 1483.17 Q634.078 1486.25 627.759 1486.25 Q625.583 1486.25 623.314 1485.88 Q621.069 1485.51 618.662 1484.77 L618.662 1480.07 Q620.745 1481.2 622.967 1481.76 Q625.189 1482.32 627.666 1482.32 Q631.671 1482.32 634.009 1480.21 Q636.347 1478.1 636.347 1474.49 Q636.347 1470.88 634.009 1468.77 Q631.671 1466.67 627.666 1466.67 Q625.791 1466.67 623.916 1467.08 Q622.064 1467.5 620.12 1468.38 L620.12 1451.02 Z" fill="#000000" fill-rule="nonzero" fill-opacity="1" /><path clip-path="url(#clip500)" d="M923.869 1481.64 L931.508 1481.64 L931.508 1455.28 L923.198 1456.95 L923.198 1452.69 L931.462 1451.02 L936.138 1451.02 L936.138 1481.64 L943.777 1481.64 L943.777 1485.58 L923.869 1485.58 L923.869 1481.64 Z" fill="#000000" fill-rule="nonzero" fill-opacity="1" /><path clip-path="url(#clip500)" d="M953.221 1479.7 L958.105 1479.7 L958.105 1485.58 L953.221 1485.58 L953.221 1479.7 Z" fill="#000000" fill-rule="nonzero" fill-opacity="1" /><path clip-path="url(#clip500)" d="M978.29 1454.1 Q974.679 1454.1 972.851 1457.66 Q971.045 1461.2 971.045 1468.33 Q971.045 1475.44 972.851 1479.01 Q974.679 1482.55 978.29 1482.55 Q981.925 1482.55 983.73 1479.01 Q985.559 1475.44 985.559 1468.33 Q985.559 1461.2 983.73 1457.66 Q981.925 1454.1 978.29 1454.1 M978.29 1450.39 Q984.101 1450.39 987.156 1455 Q990.235 1459.58 990.235 1468.33 Q990.235 1477.06 987.156 1481.67 Q984.101 1486.25 978.29 1486.25 Q972.48 1486.25 969.402 1481.67 Q966.346 1477.06 966.346 1468.33 Q966.346 1459.58 969.402 1455 Q972.48 1450.39 978.29 1450.39 Z" fill="#000000" fill-rule="nonzero" fill-opacity="1" /><path clip-path="url(#clip500)" d="M1274.12 1481.64 L1281.76 1481.64 L1281.76 1455.28 L1273.45 1456.95 L1273.45 1452.69 L1281.72 1451.02 L1286.39 1451.02 L1286.39 1481.64 L1294.03 1481.64 L1294.03 1485.58 L1274.12 1485.58 L1274.12 1481.64 Z" fill="#000000" fill-rule="nonzero" fill-opacity="1" /><path clip-path="url(#clip500)" d="M1303.47 1479.7 L1308.36 1479.7 L1308.36 1485.58 L1303.47 1485.58 L1303.47 1479.7 Z" fill="#000000" fill-rule="nonzero" fill-opacity="1" /><path clip-path="url(#clip500)" d="M1318.59 1451.02 L1336.95 1451.02 L1336.95 1454.96 L1322.87 1454.96 L1322.87 1463.43 Q1323.89 1463.08 1324.91 1462.92 Q1325.93 1462.73 1326.95 1462.73 Q1332.73 1462.73 1336.11 1465.9 Q1339.49 1469.08 1339.49 1474.49 Q1339.49 1480.07 1336.02 1483.17 Q1332.55 1486.25 1326.23 1486.25 Q1324.05 1486.25 1321.79 1485.88 Q1319.54 1485.51 1317.13 1484.77 L1317.13 1480.07 Q1319.22 1481.2 1321.44 1481.76 Q1323.66 1482.32 1326.14 1482.32 Q1330.14 1482.32 1332.48 1480.21 Q1334.82 1478.1 1334.82 1474.49 Q1334.82 1470.88 1332.48 1468.77 Q1330.14 1466.67 1326.14 1466.67 Q1324.26 1466.67 1322.39 1467.08 Q1320.54 1467.5 1318.59 1468.38 L1318.59 1451.02 Z" fill="#000000" fill-rule="nonzero" fill-opacity="1" /><path clip-path="url(#clip500)" d="M1627.47 1481.64 L1643.79 1481.64 L1643.79 1485.58 L1621.84 1485.58 L1621.84 1481.64 Q1624.5 1478.89 1629.09 1474.26 Q1633.69 1469.61 1634.87 1468.27 Q1637.12 1465.74 1638 1464.01 Q1638.9 1462.25 1638.9 1460.56 Q1638.9 1457.8 1636.96 1456.07 Q1635.04 1454.33 1631.93 1454.33 Q1629.74 1454.33 1627.28 1455.09 Q1624.85 1455.86 1622.07 1457.41 L1622.07 1452.69 Q1624.9 1451.55 1627.35 1450.97 Q1629.81 1450.39 1631.84 1450.39 Q1637.21 1450.39 1640.41 1453.08 Q1643.6 1455.77 1643.6 1460.26 Q1643.6 1462.39 1642.79 1464.31 Q1642 1466.2 1639.9 1468.8 Q1639.32 1469.47 1636.22 1472.69 Q1633.12 1475.88 1627.47 1481.64 Z" fill="#000000" fill-rule="nonzero" fill-opacity="1" /><path clip-path="url(#clip500)" d="M1653.6 1479.7 L1658.49 1479.7 L1658.49 1485.58 L1653.6 1485.58 L1653.6 1479.7 Z" fill="#000000" fill-rule="nonzero" fill-opacity="1" /><path clip-path="url(#clip500)" d="M1678.67 1454.1 Q1675.06 1454.1 1673.23 1457.66 Q1671.43 1461.2 1671.43 1468.33 Q1671.43 1475.44 1673.23 1479.01 Q1675.06 1482.55 1678.67 1482.55 Q1682.31 1482.55 1684.11 1479.01 Q1685.94 1475.44 1685.94 1468.33 Q1685.94 1461.2 1684.11 1457.66 Q1682.31 1454.1 1678.67 1454.1 M1678.67 1450.39 Q1684.48 1450.39 1687.54 1455 Q1690.62 1459.58 1690.62 1468.33 Q1690.62 1477.06 1687.54 1481.67 Q1684.48 1486.25 1678.67 1486.25 Q1672.86 1486.25 1669.78 1481.67 Q1666.73 1477.06 1666.73 1468.33 Q1666.73 1459.58 1669.78 1455 Q1672.86 1450.39 1678.67 1450.39 Z" fill="#000000" fill-rule="nonzero" fill-opacity="1" /><path clip-path="url(#clip500)" d="M1977.72 1481.64 L1994.04 1481.64 L1994.04 1485.58 L1972.1 1485.58 L1972.1 1481.64 Q1974.76 1478.89 1979.34 1474.26 Q1983.95 1469.61 1985.13 1468.27 Q1987.37 1465.74 1988.25 1464.01 Q1989.16 1462.25 1989.16 1460.56 Q1989.16 1457.8 1987.21 1456.07 Q1985.29 1454.33 1982.19 1454.33 Q1979.99 1454.33 1977.54 1455.09 Q1975.11 1455.86 1972.33 1457.41 L1972.33 1452.69 Q1975.15 1451.55 1977.61 1450.97 Q1980.06 1450.39 1982.1 1450.39 Q1987.47 1450.39 1990.66 1453.08 Q1993.86 1455.77 1993.86 1460.26 Q1993.86 1462.39 1993.05 1464.31 Q1992.26 1466.2 1990.15 1468.8 Q1989.57 1469.47 1986.47 1472.69 Q1983.37 1475.88 1977.72 1481.64 Z" fill="#000000" fill-rule="nonzero" fill-opacity="1" /><path clip-path="url(#clip500)" d="M2003.86 1479.7 L2008.74 1479.7 L2008.74 1485.58 L2003.86 1485.58 L2003.86 1479.7 Z" fill="#000000" fill-rule="nonzero" fill-opacity="1" /><path clip-path="url(#clip500)" d="M2018.97 1451.02 L2037.33 1451.02 L2037.33 1454.96 L2023.25 1454.96 L2023.25 1463.43 Q2024.27 1463.08 2025.29 1462.92 Q2026.31 1462.73 2027.33 1462.73 Q2033.11 1462.73 2036.49 1465.9 Q2039.87 1469.08 2039.87 1474.49 Q2039.87 1480.07 2036.4 1483.17 Q2032.93 1486.25 2026.61 1486.25 Q2024.43 1486.25 2022.17 1485.88 Q2019.92 1485.51 2017.51 1484.77 L2017.51 1480.07 Q2019.6 1481.2 2021.82 1481.76 Q2024.04 1482.32 2026.52 1482.32 Q2030.52 1482.32 2032.86 1480.21 Q2035.2 1478.1 2035.2 1474.49 Q2035.2 1470.88 2032.86 1468.77 Q2030.52 1466.67 2026.52 1466.67 Q2024.64 1466.67 2022.77 1467.08 Q2020.92 1467.5 2018.97 1468.38 L2018.97 1451.02 Z" fill="#000000" fill-rule="nonzero" fill-opacity="1" /><path clip-path="url(#clip500)" d="M1233.95 1520.52 L1240.38 1520.52 L1240.38 1562.63 L1263.52 1562.63 L1263.52 1568.04 L1233.95 1568.04 L1233.95 1520.52 Z" fill="#000000" fill-rule="nonzero" fill-opacity="1" /><path clip-path="url(#clip500)" d="M1299.65 1546.53 L1299.65 1568.04 L1293.79 1568.04 L1293.79 1546.72 Q1293.79 1541.66 1291.82 1539.14 Q1289.85 1536.63 1285.9 1536.63 Q1281.16 1536.63 1278.42 1539.65 Q1275.68 1542.68 1275.68 1547.9 L1275.68 1568.04 L1269.79 1568.04 L1269.79 1532.4 L1275.68 1532.4 L1275.68 1537.93 Q1277.78 1534.72 1280.62 1533.13 Q1283.48 1531.54 1287.2 1531.54 Q1293.35 1531.54 1296.5 1535.36 Q1299.65 1539.14 1299.65 1546.53 Z" fill="#000000" fill-rule="nonzero" fill-opacity="1" /><path clip-path="url(#clip500)" d="M1325.4 1518.58 Q1321.13 1525.9 1319.06 1533.06 Q1317 1540.23 1317 1547.58 Q1317 1554.93 1319.06 1562.16 Q1321.16 1569.35 1325.4 1576.64 L1320.31 1576.64 Q1315.53 1569.16 1313.14 1561.93 Q1310.79 1554.71 1310.79 1547.58 Q1310.79 1540.48 1313.14 1533.29 Q1315.5 1526.09 1320.31 1518.58 L1325.4 1518.58 Z" fill="#000000" fill-rule="nonzero" fill-opacity="1" /><path clip-path="url(#clip500)" d="M1342.55 1522.27 L1342.55 1532.4 L1354.62 1532.4 L1354.62 1536.95 L1342.55 1536.95 L1342.55 1556.3 Q1342.55 1560.66 1343.73 1561.9 Q1344.94 1563.14 1348.6 1563.14 L1354.62 1563.14 L1354.62 1568.04 L1348.6 1568.04 Q1341.82 1568.04 1339.24 1565.53 Q1336.67 1562.98 1336.67 1556.3 L1336.67 1536.95 L1332.37 1536.95 L1332.37 1532.4 L1336.67 1532.4 L1336.67 1522.27 L1342.55 1522.27 Z" fill="#000000" fill-rule="nonzero" fill-opacity="1" /><path clip-path="url(#clip500)" d="M1361.4 1518.58 L1366.49 1518.58 Q1371.26 1526.09 1373.62 1533.29 Q1376.01 1540.48 1376.01 1547.58 Q1376.01 1554.71 1373.62 1561.93 Q1371.26 1569.16 1366.49 1576.64 L1361.4 1576.64 Q1365.63 1569.35 1367.7 1562.16 Q1369.8 1554.93 1369.8 1547.58 Q1369.8 1540.23 1367.7 1533.06 Q1365.63 1525.9 1361.4 1518.58 Z" fill="#000000" fill-rule="nonzero" fill-opacity="1" /><polyline clip-path="url(#clip500)" style="stroke:#000000; stroke-linecap:round; stroke-linejoin:round; stroke-width:4; stroke-opacity:1; fill:none" points="257.204,1423.18 257.204,47.2441 "/>
<polyline clip-path="url(#clip500)" style="stroke:#000000; stroke-linecap:round; stroke-linejoin:round; stroke-width:4; stroke-opacity:1; fill:none" points="257.204,1333.73 276.102,1333.73 "/>
<polyline clip-path="url(#clip500)" style="stroke:#000000; stroke-linecap:round; stroke-linejoin:round; stroke-width:4; stroke-opacity:1; fill:none" points="257.204,1114.09 276.102,1114.09 "/>
<polyline clip-path="url(#clip500)" style="stroke:#000000; stroke-linecap:round; stroke-linejoin:round; stroke-width:4; stroke-opacity:1; fill:none" points="257.204,894.455 276.102,894.455 "/>
<polyline clip-path="url(#clip500)" style="stroke:#000000; stroke-linecap:round; stroke-linejoin:round; stroke-width:4; stroke-opacity:1; fill:none" points="257.204,674.819 276.102,674.819 "/>
<polyline clip-path="url(#clip500)" style="stroke:#000000; stroke-linecap:round; stroke-linejoin:round; stroke-width:4; stroke-opacity:1; fill:none" points="257.204,455.183 276.102,455.183 "/>
<polyline clip-path="url(#clip500)" style="stroke:#000000; stroke-linecap:round; stroke-linejoin:round; stroke-width:4; stroke-opacity:1; fill:none" points="257.204,235.547 276.102,235.547 "/>
<path clip-path="url(#clip500)" d="M114.26 1334.18 L143.936 1334.18 L143.936 1338.11 L114.26 1338.11 L114.26 1334.18 Z" fill="#000000" fill-rule="nonzero" fill-opacity="1" /><path clip-path="url(#clip500)" d="M158.056 1347.07 L174.376 1347.07 L174.376 1351.01 L152.431 1351.01 L152.431 1347.07 Q155.093 1344.32 159.677 1339.69 Q164.283 1335.03 165.464 1333.69 Q167.709 1331.17 168.589 1329.43 Q169.491 1327.67 169.491 1325.98 Q169.491 1323.23 167.547 1321.49 Q165.626 1319.76 162.524 1319.76 Q160.325 1319.76 157.871 1320.52 Q155.44 1321.28 152.663 1322.84 L152.663 1318.11 Q155.487 1316.98 157.94 1316.4 Q160.394 1315.82 162.431 1315.82 Q167.802 1315.82 170.996 1318.51 Q174.19 1321.19 174.19 1325.68 Q174.19 1327.81 173.38 1329.73 Q172.593 1331.63 170.487 1334.22 Q169.908 1334.9 166.806 1338.11 Q163.704 1341.31 158.056 1347.07 Z" fill="#000000" fill-rule="nonzero" fill-opacity="1" /><path clip-path="url(#clip500)" d="M184.19 1345.13 L189.075 1345.13 L189.075 1351.01 L184.19 1351.01 L184.19 1345.13 Z" fill="#000000" fill-rule="nonzero" fill-opacity="1" /><path clip-path="url(#clip500)" d="M209.26 1319.53 Q205.649 1319.53 203.82 1323.09 Q202.014 1326.63 202.014 1333.76 Q202.014 1340.87 203.82 1344.43 Q205.649 1347.97 209.26 1347.97 Q212.894 1347.97 214.699 1344.43 Q216.528 1340.87 216.528 1333.76 Q216.528 1326.63 214.699 1323.09 Q212.894 1319.53 209.26 1319.53 M209.26 1315.82 Q215.07 1315.82 218.125 1320.43 Q221.204 1325.01 221.204 1333.76 Q221.204 1342.49 218.125 1347.09 Q215.07 1351.68 209.26 1351.68 Q203.449 1351.68 200.371 1347.09 Q197.315 1342.49 197.315 1333.76 Q197.315 1325.01 200.371 1320.43 Q203.449 1315.82 209.26 1315.82 Z" fill="#000000" fill-rule="nonzero" fill-opacity="1" /><path clip-path="url(#clip500)" d="M115.256 1114.54 L144.931 1114.54 L144.931 1118.48 L115.256 1118.48 L115.256 1114.54 Z" fill="#000000" fill-rule="nonzero" fill-opacity="1" /><path clip-path="url(#clip500)" d="M155.834 1127.44 L163.473 1127.44 L163.473 1101.07 L155.163 1102.74 L155.163 1098.48 L163.427 1096.81 L168.102 1096.81 L168.102 1127.44 L175.741 1127.44 L175.741 1131.37 L155.834 1131.37 L155.834 1127.44 Z" fill="#000000" fill-rule="nonzero" fill-opacity="1" /><path clip-path="url(#clip500)" d="M185.186 1125.49 L190.07 1125.49 L190.07 1131.37 L185.186 1131.37 L185.186 1125.49 Z" fill="#000000" fill-rule="nonzero" fill-opacity="1" /><path clip-path="url(#clip500)" d="M200.301 1096.81 L218.658 1096.81 L218.658 1100.75 L204.584 1100.75 L204.584 1109.22 Q205.602 1108.87 206.621 1108.71 Q207.639 1108.52 208.658 1108.52 Q214.445 1108.52 217.824 1111.7 Q221.204 1114.87 221.204 1120.28 Q221.204 1125.86 217.732 1128.96 Q214.26 1132.04 207.94 1132.04 Q205.764 1132.04 203.496 1131.67 Q201.25 1131.3 198.843 1130.56 L198.843 1125.86 Q200.926 1127 203.149 1127.55 Q205.371 1128.11 207.848 1128.11 Q211.852 1128.11 214.19 1126 Q216.528 1123.89 216.528 1120.28 Q216.528 1116.67 214.19 1114.57 Q211.852 1112.46 207.848 1112.46 Q205.973 1112.46 204.098 1112.88 Q202.246 1113.29 200.301 1114.17 L200.301 1096.81 Z" fill="#000000" fill-rule="nonzero" fill-opacity="1" /><path clip-path="url(#clip500)" d="M114.26 894.906 L143.936 894.906 L143.936 898.841 L114.26 898.841 L114.26 894.906 Z" fill="#000000" fill-rule="nonzero" fill-opacity="1" /><path clip-path="url(#clip500)" d="M154.839 907.8 L162.477 907.8 L162.477 881.434 L154.167 883.101 L154.167 878.842 L162.431 877.175 L167.107 877.175 L167.107 907.8 L174.746 907.8 L174.746 911.735 L154.839 911.735 L154.839 907.8 Z" fill="#000000" fill-rule="nonzero" fill-opacity="1" /><path clip-path="url(#clip500)" d="M184.19 905.855 L189.075 905.855 L189.075 911.735 L184.19 911.735 L184.19 905.855 Z" fill="#000000" fill-rule="nonzero" fill-opacity="1" /><path clip-path="url(#clip500)" d="M209.26 880.254 Q205.649 880.254 203.82 883.818 Q202.014 887.36 202.014 894.49 Q202.014 901.596 203.82 905.161 Q205.649 908.703 209.26 908.703 Q212.894 908.703 214.699 905.161 Q216.528 901.596 216.528 894.49 Q216.528 887.36 214.699 883.818 Q212.894 880.254 209.26 880.254 M209.26 876.55 Q215.07 876.55 218.125 881.156 Q221.204 885.74 221.204 894.49 Q221.204 903.216 218.125 907.823 Q215.07 912.406 209.26 912.406 Q203.449 912.406 200.371 907.823 Q197.315 903.216 197.315 894.49 Q197.315 885.74 200.371 881.156 Q203.449 876.55 209.26 876.55 Z" fill="#000000" fill-rule="nonzero" fill-opacity="1" /><path clip-path="url(#clip500)" d="M115.256 675.27 L144.931 675.27 L144.931 679.206 L115.256 679.206 L115.256 675.27 Z" fill="#000000" fill-rule="nonzero" fill-opacity="1" /><path clip-path="url(#clip500)" d="M165.024 660.618 Q161.413 660.618 159.584 664.182 Q157.778 667.724 157.778 674.854 Q157.778 681.96 159.584 685.525 Q161.413 689.067 165.024 689.067 Q168.658 689.067 170.464 685.525 Q172.292 681.96 172.292 674.854 Q172.292 667.724 170.464 664.182 Q168.658 660.618 165.024 660.618 M165.024 656.914 Q170.834 656.914 173.889 661.52 Q176.968 666.104 176.968 674.854 Q176.968 683.581 173.889 688.187 Q170.834 692.77 165.024 692.77 Q159.214 692.77 156.135 688.187 Q153.079 683.581 153.079 674.854 Q153.079 666.104 156.135 661.52 Q159.214 656.914 165.024 656.914 Z" fill="#000000" fill-rule="nonzero" fill-opacity="1" /><path clip-path="url(#clip500)" d="M185.186 686.219 L190.07 686.219 L190.07 692.099 L185.186 692.099 L185.186 686.219 Z" fill="#000000" fill-rule="nonzero" fill-opacity="1" /><path clip-path="url(#clip500)" d="M200.301 657.539 L218.658 657.539 L218.658 661.474 L204.584 661.474 L204.584 669.946 Q205.602 669.599 206.621 669.437 Q207.639 669.252 208.658 669.252 Q214.445 669.252 217.824 672.423 Q221.204 675.594 221.204 681.011 Q221.204 686.59 217.732 689.692 Q214.26 692.77 207.94 692.77 Q205.764 692.77 203.496 692.4 Q201.25 692.03 198.843 691.289 L198.843 686.59 Q200.926 687.724 203.149 688.28 Q205.371 688.835 207.848 688.835 Q211.852 688.835 214.19 686.729 Q216.528 684.622 216.528 681.011 Q216.528 677.4 214.19 675.294 Q211.852 673.187 207.848 673.187 Q205.973 673.187 204.098 673.604 Q202.246 674.02 200.301 674.9 L200.301 657.539 Z" fill="#000000" fill-rule="nonzero" fill-opacity="1" /><path clip-path="url(#clip500)" d="M164.028 440.982 Q160.417 440.982 158.589 444.547 Q156.783 448.088 156.783 455.218 Q156.783 462.324 158.589 465.889 Q160.417 469.431 164.028 469.431 Q167.663 469.431 169.468 465.889 Q171.297 462.324 171.297 455.218 Q171.297 448.088 169.468 444.547 Q167.663 440.982 164.028 440.982 M164.028 437.278 Q169.839 437.278 172.894 441.885 Q175.973 446.468 175.973 455.218 Q175.973 463.945 172.894 468.551 Q169.839 473.134 164.028 473.134 Q158.218 473.134 155.14 468.551 Q152.084 463.945 152.084 455.218 Q152.084 446.468 155.14 441.885 Q158.218 437.278 164.028 437.278 Z" fill="#000000" fill-rule="nonzero" fill-opacity="1" /><path clip-path="url(#clip500)" d="M184.19 466.583 L189.075 466.583 L189.075 472.463 L184.19 472.463 L184.19 466.583 Z" fill="#000000" fill-rule="nonzero" fill-opacity="1" /><path clip-path="url(#clip500)" d="M209.26 440.982 Q205.649 440.982 203.82 444.547 Q202.014 448.088 202.014 455.218 Q202.014 462.324 203.82 465.889 Q205.649 469.431 209.26 469.431 Q212.894 469.431 214.699 465.889 Q216.528 462.324 216.528 455.218 Q216.528 448.088 214.699 444.547 Q212.894 440.982 209.26 440.982 M209.26 437.278 Q215.07 437.278 218.125 441.885 Q221.204 446.468 221.204 455.218 Q221.204 463.945 218.125 468.551 Q215.07 473.134 209.26 473.134 Q203.449 473.134 200.371 468.551 Q197.315 463.945 197.315 455.218 Q197.315 446.468 200.371 441.885 Q203.449 437.278 209.26 437.278 Z" fill="#000000" fill-rule="nonzero" fill-opacity="1" /><path clip-path="url(#clip500)" d="M165.024 221.346 Q161.413 221.346 159.584 224.911 Q157.778 228.452 157.778 235.582 Q157.778 242.688 159.584 246.253 Q161.413 249.795 165.024 249.795 Q168.658 249.795 170.464 246.253 Q172.292 242.688 172.292 235.582 Q172.292 228.452 170.464 224.911 Q168.658 221.346 165.024 221.346 M165.024 217.642 Q170.834 217.642 173.889 222.249 Q176.968 226.832 176.968 235.582 Q176.968 244.309 173.889 248.915 Q170.834 253.498 165.024 253.498 Q159.214 253.498 156.135 248.915 Q153.079 244.309 153.079 235.582 Q153.079 226.832 156.135 222.249 Q159.214 217.642 165.024 217.642 Z" fill="#000000" fill-rule="nonzero" fill-opacity="1" /><path clip-path="url(#clip500)" d="M185.186 246.948 L190.07 246.948 L190.07 252.827 L185.186 252.827 L185.186 246.948 Z" fill="#000000" fill-rule="nonzero" fill-opacity="1" /><path clip-path="url(#clip500)" d="M200.301 218.267 L218.658 218.267 L218.658 222.202 L204.584 222.202 L204.584 230.674 Q205.602 230.327 206.621 230.165 Q207.639 229.98 208.658 229.98 Q214.445 229.98 217.824 233.151 Q221.204 236.323 221.204 241.739 Q221.204 247.318 217.732 250.42 Q214.26 253.498 207.94 253.498 Q205.764 253.498 203.496 253.128 Q201.25 252.758 198.843 252.017 L198.843 247.318 Q200.926 248.452 203.149 249.008 Q205.371 249.563 207.848 249.563 Q211.852 249.563 214.19 247.457 Q216.528 245.35 216.528 241.739 Q216.528 238.128 214.19 236.022 Q211.852 233.915 207.848 233.915 Q205.973 233.915 204.098 234.332 Q202.246 234.748 200.301 235.628 L200.301 218.267 Z" fill="#000000" fill-rule="nonzero" fill-opacity="1" /><path clip-path="url(#clip500)" d="M16.4842 928.363 L16.4842 921.934 L58.5933 921.934 L58.5933 898.795 L64.0042 898.795 L64.0042 928.363 L16.4842 928.363 Z" fill="#000000" fill-rule="nonzero" fill-opacity="1" /><path clip-path="url(#clip500)" d="M42.4881 862.669 L64.0042 862.669 L64.0042 868.526 L42.679 868.526 Q37.6183 868.526 35.1038 870.499 Q32.5894 872.473 32.5894 876.419 Q32.5894 881.162 35.6131 883.899 Q38.6368 886.636 43.8567 886.636 L64.0042 886.636 L64.0042 892.524 L28.3562 892.524 L28.3562 886.636 L33.8944 886.636 Q30.6797 884.536 29.0883 881.703 Q27.4968 878.838 27.4968 875.114 Q27.4968 868.971 31.3163 865.82 Q35.1038 862.669 42.4881 862.669 Z" fill="#000000" fill-rule="nonzero" fill-opacity="1" /><path clip-path="url(#clip500)" d="M14.5426 836.92 Q21.8632 841.185 29.0246 843.254 Q36.186 845.323 43.5384 845.323 Q50.8908 845.323 58.1159 843.254 Q65.3091 841.153 72.5979 836.92 L72.5979 842.013 Q65.1182 846.787 57.8931 849.174 Q50.668 851.529 43.5384 851.529 Q36.4406 851.529 29.2474 849.174 Q22.0542 846.819 14.5426 842.013 L14.5426 836.92 Z" fill="#000000" fill-rule="nonzero" fill-opacity="1" /><path clip-path="url(#clip500)" d="M43.5384 828.517 L43.5384 811.362 L48.7583 811.362 L48.7583 828.517 L43.5384 828.517 Z" fill="#000000" fill-rule="nonzero" fill-opacity="1" /><path clip-path="url(#clip500)" d="M16.4842 801.781 L16.4842 795.352 L58.5933 795.352 L58.5933 772.213 L64.0042 772.213 L64.0042 801.781 L16.4842 801.781 Z" fill="#000000" fill-rule="nonzero" fill-opacity="1" /><path clip-path="url(#clip500)" d="M42.4881 736.087 L64.0042 736.087 L64.0042 741.944 L42.679 741.944 Q37.6183 741.944 35.1038 743.917 Q32.5894 745.89 32.5894 749.837 Q32.5894 754.58 35.6131 757.317 Q38.6368 760.054 43.8567 760.054 L64.0042 760.054 L64.0042 765.942 L28.3562 765.942 L28.3562 760.054 L33.8944 760.054 Q30.6797 757.953 29.0883 755.121 Q27.4968 752.256 27.4968 748.532 Q27.4968 742.389 31.3163 739.238 Q35.1038 736.087 42.4881 736.087 Z" fill="#000000" fill-rule="nonzero" fill-opacity="1" /><path clip-path="url(#clip500)" d="M14.5426 710.338 Q21.8632 714.603 29.0246 716.672 Q36.186 718.741 43.5384 718.741 Q50.8908 718.741 58.1159 716.672 Q65.3091 714.571 72.5979 710.338 L72.5979 715.431 Q65.1182 720.205 57.8931 722.592 Q50.668 724.947 43.5384 724.947 Q36.4406 724.947 29.2474 722.592 Q22.0542 720.237 14.5426 715.431 L14.5426 710.338 Z" fill="#000000" fill-rule="nonzero" fill-opacity="1" /><path clip-path="url(#clip500)" d="M18.0438 670.234 L24.314 670.234 Q22.5634 673.894 21.704 677.141 Q20.8447 680.387 20.8447 683.411 Q20.8447 688.663 22.8817 691.527 Q24.9187 694.36 28.6745 694.36 Q31.8255 694.36 33.4488 692.482 Q35.0402 690.572 36.0269 685.289 L36.8226 681.406 Q38.1912 674.213 41.6605 670.807 Q45.098 667.369 50.8908 667.369 Q57.7976 667.369 61.3624 672.016 Q64.9272 676.632 64.9272 685.575 Q64.9272 688.949 64.1633 692.769 Q63.3994 696.556 61.9035 700.63 L55.2831 700.63 Q57.4793 696.715 58.5933 692.96 Q59.7073 689.204 59.7073 685.575 Q59.7073 680.069 57.543 677.077 Q55.3786 674.085 51.3682 674.085 Q47.8671 674.085 45.8937 676.25 Q43.9204 678.382 42.9337 683.284 L42.1698 687.199 Q40.7375 694.392 37.682 697.607 Q34.6264 700.821 29.1837 700.821 Q22.8817 700.821 19.2532 696.397 Q15.6248 691.941 15.6248 684.143 Q15.6248 680.801 16.2295 677.332 Q16.8343 673.862 18.0438 670.234 Z" fill="#000000" fill-rule="nonzero" fill-opacity="1" /><path clip-path="url(#clip500)" d="M14.5426 643.53 Q21.8632 647.795 29.0246 649.864 Q36.186 651.933 43.5384 651.933 Q50.8908 651.933 58.1159 649.864 Q65.3091 647.763 72.5979 643.53 L72.5979 648.622 Q65.1182 653.397 57.8931 655.784 Q50.668 658.139 43.5384 658.139 Q36.4406 658.139 29.2474 655.784 Q22.0542 653.429 14.5426 648.622 L14.5426 643.53 Z" fill="#000000" fill-rule="nonzero" fill-opacity="1" /><path clip-path="url(#clip500)" d="M18.2347 626.374 L28.3562 626.374 L28.3562 614.311 L32.9077 614.311 L32.9077 626.374 L52.2594 626.374 Q56.6199 626.374 57.8613 625.197 Q59.1026 623.987 59.1026 620.327 L59.1026 614.311 L64.0042 614.311 L64.0042 620.327 Q64.0042 627.106 61.4897 629.684 Q58.9434 632.263 52.2594 632.263 L32.9077 632.263 L32.9077 636.559 L28.3562 636.559 L28.3562 632.263 L18.2347 632.263 L18.2347 626.374 Z" fill="#000000" fill-rule="nonzero" fill-opacity="1" /><path clip-path="url(#clip500)" d="M14.5426 607.532 L14.5426 602.439 Q22.0542 597.665 29.2474 595.31 Q36.4406 592.923 43.5384 592.923 Q50.668 592.923 57.8931 595.31 Q65.1182 597.665 72.5979 602.439 L72.5979 607.532 Q65.3091 603.299 58.1159 601.23 Q50.8908 599.129 43.5384 599.129 Q36.186 599.129 29.0246 601.23 Q21.8632 603.299 14.5426 607.532 Z" fill="#000000" fill-rule="nonzero" fill-opacity="1" /><path clip-path="url(#clip500)" d="M14.5426 582.101 L14.5426 577.008 Q22.0542 572.234 29.2474 569.879 Q36.4406 567.492 43.5384 567.492 Q50.668 567.492 57.8931 569.879 Q65.1182 572.234 72.5979 577.008 L72.5979 582.101 Q65.3091 577.868 58.1159 575.799 Q50.8908 573.698 43.5384 573.698 Q36.186 573.698 29.0246 575.799 Q21.8632 577.868 14.5426 582.101 Z" fill="#000000" fill-rule="nonzero" fill-opacity="1" /><path clip-path="url(#clip500)" d="M14.5426 556.67 L14.5426 551.577 Q22.0542 546.803 29.2474 544.448 Q36.4406 542.061 43.5384 542.061 Q50.668 542.061 57.8931 544.448 Q65.1182 546.803 72.5979 551.577 L72.5979 556.67 Q65.3091 552.437 58.1159 550.368 Q50.8908 548.267 43.5384 548.267 Q36.186 548.267 29.0246 550.368 Q21.8632 552.437 14.5426 556.67 Z" fill="#000000" fill-rule="nonzero" fill-opacity="1" /><polyline clip-path="url(#clip502)" style="stroke:#009af9; stroke-linecap:round; stroke-linejoin:round; stroke-width:4; stroke-opacity:1; fill:none" points="257.204,1384.24 742.069,881.368 1025.7,782.463 1226.93,660.841 1383.03,577.589 1510.56,489.299 1618.39,371.346 1711.8,358.815 1794.19,268.781 1867.89,239.859 1934.56,200.684 1995.43,158.34 2051.42,136.51 2196.66,97.0338 2352.76,86.1857 "/>
<polyline clip-path="url(#clip502)" style="stroke:#808080; stroke-linecap:round; stroke-linejoin:round; stroke-width:4; stroke-opacity:1; fill:none" stroke-dasharray="16, 10" points="-1702.67,2493.99 4176.96,-1176.13 "/>
</svg>
