<?xml version="1.0" encoding="utf-8"?>
<svg xmlns="http://www.w3.org/2000/svg" xmlns:xlink="http://www.w3.org/1999/xlink" width="600" height="400" viewBox="0 0 2400 1600">
<defs>
  <clipPath id="clip100">
    <rect x="0" y="0" width="2400" height="1600"/>
  </clipPath>
</defs>
<path clip-path="url(#clip100)" d="M0 1600 L2400 1600 L2400 0 L0 0  Z" fill="#ffffff" fill-rule="evenodd" fill-opacity="1"/>
<defs>
  <clipPath id="clip101">
    <rect x="480" y="0" width="1681" height="1600"/>
  </clipPath>
</defs>
<path clip-path="url(#clip100)" d="M279.704 1423.18 L2352.76 1423.18 L2352.76 47.2441 L279.704 47.2441  Z" fill="#ffffff" fill-rule="evenodd" fill-opacity="1"/>
<defs>
  <clipPath id="clip102">
    <rect x="279" y="47" width="2074" height="1377"/>
  </clipPath>
</defs>
<polyline clip-path="url(#clip100)" style="stroke:#000000; stroke-linecap:round; stroke-linejoin:round; stroke-width:4; stroke-opacity:1; fill:none" points="279.704,1423.18 2352.76,1423.18 "/>
<polyline clip-path="url(#clip100)" style="stroke:#000000; stroke-linecap:round; stroke-linejoin:round; stroke-width:4; stroke-opacity:1; fill:none" points="694.311,1423.18 694.311,1404.28 "/>
<polyline clip-path="url(#clip100)" style="stroke:#000000; stroke-linecap:round; stroke-linejoin:round; stroke-width:4; stroke-opacity:1; fill:none" points="1108.92,1423.18 1108.92,1404.28 "/>
<polyline clip-path="url(#clip100)" style="stroke:#000000; stroke-linecap:round; stroke-linejoin:round; stroke-width:4; stroke-opacity:1; fill:none" points="1523.53,1423.18 1523.53,1404.28 "/>
<polyline clip-path="url(#clip100)" style="stroke:#000000; stroke-linecap:round; stroke-linejoin:round; stroke-width:4; stroke-opacity:1; fill:none" points="1938.14,1423.18 1938.14,1404.28 "/>
<polyline clip-path="url(#clip100)" style="stroke:#000000; stroke-linecap:round; stroke-linejoin:round; stroke-width:4; stroke-opacity:1; fill:none" points="2352.76,1423.18 2352.76,1404.28 "/>
<path clip-path="url(#clip100)" d="M672.494 1454.1 Q668.883 1454.1 667.054 1457.66 Q665.249 1461.2 665.249 1468.33 Q665.249 1475.44 667.054 1479.01 Q668.883 1482.55 672.494 1482.55 Q676.128 1482.55 677.934 1479.01 Q679.763 1475.44 679.763 1468.33 Q679.763 1461.2 677.934 1457.66 Q676.128 1454.1 672.494 1454.1 M672.494 1450.39 Q678.304 1450.39 681.36 1455 Q684.438 1459.58 684.438 1468.33 Q684.438 1477.06 681.36 1481.67 Q678.304 1486.25 672.494 1486.25 Q666.684 1486.25 663.605 1481.67 Q660.55 1477.06 660.55 1468.33 Q660.55 1459.58 663.605 1455 Q666.684 1450.39 672.494 1450.39 Z" fill="#000000" fill-rule="nonzero" fill-opacity="1" /><path clip-path="url(#clip100)" d="M692.656 1479.7 L697.54 1479.7 L697.54 1485.58 L692.656 1485.58 L692.656 1479.7 Z" fill="#000000" fill-rule="nonzero" fill-opacity="1" /><path clip-path="url(#clip100)" d="M711.753 1481.64 L728.072 1481.64 L728.072 1485.58 L706.128 1485.58 L706.128 1481.64 Q708.79 1478.89 713.373 1474.26 Q717.98 1469.61 719.16 1468.27 Q721.406 1465.74 722.285 1464.01 Q723.188 1462.25 723.188 1460.56 Q723.188 1457.8 721.244 1456.07 Q719.323 1454.33 716.221 1454.33 Q714.022 1454.33 711.568 1455.09 Q709.137 1455.86 706.36 1457.41 L706.36 1452.69 Q709.184 1451.55 711.637 1450.97 Q714.091 1450.39 716.128 1450.39 Q721.498 1450.39 724.693 1453.08 Q727.887 1455.77 727.887 1460.26 Q727.887 1462.39 727.077 1464.31 Q726.29 1466.2 724.184 1468.8 Q723.605 1469.47 720.503 1472.69 Q717.401 1475.88 711.753 1481.64 Z" fill="#000000" fill-rule="nonzero" fill-opacity="1" /><path clip-path="url(#clip100)" d="M1086.06 1454.1 Q1082.45 1454.1 1080.62 1457.66 Q1078.82 1461.2 1078.82 1468.33 Q1078.82 1475.44 1080.62 1479.01 Q1082.45 1482.55 1086.06 1482.55 Q1089.7 1482.55 1091.5 1479.01 Q1093.33 1475.44 1093.33 1468.33 Q1093.33 1461.2 1091.5 1457.66 Q1089.7 1454.1 1086.06 1454.1 M1086.06 1450.39 Q1091.87 1450.39 1094.93 1455 Q1098.01 1459.58 1098.01 1468.33 Q1098.01 1477.06 1094.93 1481.67 Q1091.87 1486.25 1086.06 1486.25 Q1080.25 1486.25 1077.17 1481.67 Q1074.12 1477.06 1074.12 1468.33 Q1074.12 1459.58 1077.17 1455 Q1080.25 1450.39 1086.06 1450.39 Z" fill="#000000" fill-rule="nonzero" fill-opacity="1" /><path clip-path="url(#clip100)" d="M1106.23 1479.7 L1111.11 1479.7 L1111.11 1485.58 L1106.23 1485.58 L1106.23 1479.7 Z" fill="#000000" fill-rule="nonzero" fill-opacity="1" /><path clip-path="url(#clip100)" d="M1134.14 1455.09 L1122.34 1473.54 L1134.14 1473.54 L1134.14 1455.09 M1132.92 1451.02 L1138.79 1451.02 L1138.79 1473.54 L1143.73 1473.54 L1143.73 1477.43 L1138.79 1477.43 L1138.79 1485.58 L1134.14 1485.58 L1134.14 1477.43 L1118.54 1477.43 L1118.54 1472.92 L1132.92 1451.02 Z" fill="#000000" fill-rule="nonzero" fill-opacity="1" /><path clip-path="url(#clip100)" d="M1500.84 1454.1 Q1497.23 1454.1 1495.4 1457.66 Q1493.59 1461.2 1493.59 1468.33 Q1493.59 1475.44 1495.4 1479.01 Q1497.23 1482.55 1500.84 1482.55 Q1504.47 1482.55 1506.28 1479.01 Q1508.11 1475.44 1508.11 1468.33 Q1508.11 1461.2 1506.28 1457.66 Q1504.47 1454.1 1500.84 1454.1 M1500.84 1450.39 Q1506.65 1450.39 1509.7 1455 Q1512.78 1459.58 1512.78 1468.33 Q1512.78 1477.06 1509.7 1481.67 Q1506.65 1486.25 1500.84 1486.25 Q1495.03 1486.25 1491.95 1481.67 Q1488.89 1477.06 1488.89 1468.33 Q1488.89 1459.58 1491.95 1455 Q1495.03 1450.39 1500.84 1450.39 Z" fill="#000000" fill-rule="nonzero" fill-opacity="1" /><path clip-path="url(#clip100)" d="M1521 1479.7 L1525.88 1479.7 L1525.88 1485.58 L1521 1485.58 L1521 1479.7 Z" fill="#000000" fill-rule="nonzero" fill-opacity="1" /><path clip-path="url(#clip100)" d="M1546.65 1466.44 Q1543.5 1466.44 1541.65 1468.59 Q1539.82 1470.74 1539.82 1474.49 Q1539.82 1478.22 1541.65 1480.39 Q1543.5 1482.55 1546.65 1482.55 Q1549.79 1482.55 1551.62 1480.39 Q1553.48 1478.22 1553.48 1474.49 Q1553.48 1470.74 1551.62 1468.59 Q1549.79 1466.44 1546.65 1466.44 M1555.93 1451.78 L1555.93 1456.04 Q1554.17 1455.21 1552.36 1454.77 Q1550.58 1454.33 1548.82 1454.33 Q1544.19 1454.33 1541.74 1457.45 Q1539.31 1460.58 1538.96 1466.9 Q1540.33 1464.89 1542.39 1463.82 Q1544.45 1462.73 1546.92 1462.73 Q1552.13 1462.73 1555.14 1465.9 Q1558.17 1469.05 1558.17 1474.49 Q1558.17 1479.82 1555.03 1483.03 Q1551.88 1486.25 1546.65 1486.25 Q1540.65 1486.25 1537.48 1481.67 Q1534.31 1477.06 1534.31 1468.33 Q1534.31 1460.14 1538.2 1455.28 Q1542.09 1450.39 1548.64 1450.39 Q1550.4 1450.39 1552.18 1450.74 Q1553.98 1451.09 1555.93 1451.78 Z" fill="#000000" fill-rule="nonzero" fill-opacity="1" /><path clip-path="url(#clip100)" d="M1915.58 1454.1 Q1911.96 1454.1 1910.14 1457.66 Q1908.33 1461.2 1908.33 1468.33 Q1908.33 1475.44 1910.14 1479.01 Q1911.96 1482.55 1915.58 1482.55 Q1919.21 1482.55 1921.02 1479.01 Q1922.84 1475.44 1922.84 1468.33 Q1922.84 1461.2 1921.02 1457.66 Q1919.21 1454.1 1915.58 1454.1 M1915.58 1450.39 Q1921.39 1450.39 1924.44 1455 Q1927.52 1459.58 1927.52 1468.33 Q1927.52 1477.06 1924.44 1481.67 Q1921.39 1486.25 1915.58 1486.25 Q1909.77 1486.25 1906.69 1481.67 Q1903.63 1477.06 1903.63 1468.33 Q1903.63 1459.58 1906.69 1455 Q1909.77 1450.39 1915.58 1450.39 Z" fill="#000000" fill-rule="nonzero" fill-opacity="1" /><path clip-path="url(#clip100)" d="M1935.74 1479.7 L1940.62 1479.7 L1940.62 1485.58 L1935.74 1485.58 L1935.74 1479.7 Z" fill="#000000" fill-rule="nonzero" fill-opacity="1" /><path clip-path="url(#clip100)" d="M1960.81 1469.17 Q1957.47 1469.17 1955.55 1470.95 Q1953.65 1472.73 1953.65 1475.86 Q1953.65 1478.98 1955.55 1480.77 Q1957.47 1482.55 1960.81 1482.55 Q1964.14 1482.55 1966.06 1480.77 Q1967.98 1478.96 1967.98 1475.86 Q1967.98 1472.73 1966.06 1470.95 Q1964.16 1469.17 1960.81 1469.17 M1956.13 1467.18 Q1953.12 1466.44 1951.43 1464.38 Q1949.77 1462.32 1949.77 1459.35 Q1949.77 1455.21 1952.7 1452.8 Q1955.67 1450.39 1960.81 1450.39 Q1965.97 1450.39 1968.91 1452.8 Q1971.85 1455.21 1971.85 1459.35 Q1971.85 1462.32 1970.16 1464.38 Q1968.49 1466.44 1965.51 1467.18 Q1968.89 1467.96 1970.76 1470.26 Q1972.66 1472.55 1972.66 1475.86 Q1972.66 1480.88 1969.58 1483.57 Q1966.52 1486.25 1960.81 1486.25 Q1955.09 1486.25 1952.01 1483.57 Q1948.95 1480.88 1948.95 1475.86 Q1948.95 1472.55 1950.85 1470.26 Q1952.75 1467.96 1956.13 1467.18 M1954.42 1459.79 Q1954.42 1462.48 1956.08 1463.98 Q1957.77 1465.49 1960.81 1465.49 Q1963.82 1465.49 1965.51 1463.98 Q1967.22 1462.48 1967.22 1459.79 Q1967.22 1457.11 1965.51 1455.6 Q1963.82 1454.1 1960.81 1454.1 Q1957.77 1454.1 1956.08 1455.6 Q1954.42 1457.11 1954.42 1459.79 Z" fill="#000000" fill-rule="nonzero" fill-opacity="1" /><path clip-path="url(#clip100)" d="M2319.91 1481.64 L2327.55 1481.64 L2327.55 1455.28 L2319.24 1456.95 L2319.24 1452.69 L2327.5 1451.02 L2332.18 1451.02 L2332.18 1481.64 L2339.82 1481.64 L2339.82 1485.58 L2319.91 1485.58 L2319.91 1481.64 Z" fill="#000000" fill-rule="nonzero" fill-opacity="1" /><path clip-path="url(#clip100)" d="M2349.26 1479.7 L2354.14 1479.7 L2354.14 1485.58 L2349.26 1485.58 L2349.26 1479.7 Z" fill="#000000" fill-rule="nonzero" fill-opacity="1" /><path clip-path="url(#clip100)" d="M2374.33 1454.1 Q2370.72 1454.1 2368.89 1457.66 Q2367.08 1461.2 2367.08 1468.33 Q2367.08 1475.44 2368.89 1479.01 Q2370.72 1482.55 2374.33 1482.55 Q2377.96 1482.55 2379.77 1479.01 Q2381.6 1475.44 2381.6 1468.33 Q2381.6 1461.2 2379.77 1457.66 Q2377.96 1454.1 2374.33 1454.1 M2374.33 1450.39 Q2380.14 1450.39 2383.2 1455 Q2386.27 1459.58 2386.27 1468.33 Q2386.27 1477.06 2383.2 1481.67 Q2380.14 1486.25 2374.33 1486.25 Q2368.52 1486.25 2365.44 1481.67 Q2362.39 1477.06 2362.39 1468.33 Q2362.39 1459.58 2365.44 1455 Q2368.52 1450.39 2374.33 1450.39 Z" fill="#000000" fill-rule="nonzero" fill-opacity="1" /><path clip-path="url(#clip100)" d="M1238.11 1520.52 L1278.31 1520.52 L1278.31 1525.93 L1261.44 1525.93 L1261.44 1568.04 L1254.98 1568.04 L1254.98 1525.93 L1238.11 1525.93 L1238.11 1520.52 Z" fill="#000000" fill-rule="nonzero" fill-opacity="1" /><path clip-path="url(#clip100)" d="M1282.25 1532.4 L1288.11 1532.4 L1288.11 1568.04 L1282.25 1568.04 L1282.25 1532.4 M1282.25 1518.52 L1288.11 1518.52 L1288.11 1525.93 L1282.25 1525.93 L1282.25 1518.52 Z" fill="#000000" fill-rule="nonzero" fill-opacity="1" /><path clip-path="url(#clip100)" d="M1328.12 1539.24 Q1330.31 1535.29 1333.37 1533.41 Q1336.43 1531.54 1340.56 1531.54 Q1346.13 1531.54 1349.16 1535.45 Q1352.18 1539.33 1352.18 1546.53 L1352.18 1568.04 L1346.29 1568.04 L1346.29 1546.72 Q1346.29 1541.59 1344.48 1539.11 Q1342.66 1536.63 1338.94 1536.63 Q1334.39 1536.63 1331.75 1539.65 Q1329.1 1542.68 1329.1 1547.9 L1329.1 1568.04 L1323.22 1568.04 L1323.22 1546.72 Q1323.22 1541.56 1321.4 1539.11 Q1319.59 1536.63 1315.8 1536.63 Q1311.31 1536.63 1308.67 1539.68 Q1306.03 1542.71 1306.03 1547.9 L1306.03 1568.04 L1300.14 1568.04 L1300.14 1532.4 L1306.03 1532.4 L1306.03 1537.93 Q1308.03 1534.66 1310.83 1533.1 Q1313.64 1531.54 1317.49 1531.54 Q1321.37 1531.54 1324.08 1533.51 Q1326.81 1535.48 1328.12 1539.24 Z" fill="#000000" fill-rule="nonzero" fill-opacity="1" /><path clip-path="url(#clip100)" d="M1394.35 1548.76 L1394.35 1551.62 L1367.43 1551.62 Q1367.81 1557.67 1371.05 1560.85 Q1374.33 1564 1380.16 1564 Q1383.53 1564 1386.68 1563.17 Q1389.87 1562.35 1392.98 1560.69 L1392.98 1566.23 Q1389.83 1567.57 1386.52 1568.27 Q1383.21 1568.97 1379.81 1568.97 Q1371.28 1568.97 1366.28 1564 Q1361.32 1559.04 1361.32 1550.57 Q1361.32 1541.82 1366.03 1536.69 Q1370.77 1531.54 1378.79 1531.54 Q1385.98 1531.54 1390.15 1536.18 Q1394.35 1540.8 1394.35 1548.76 M1388.5 1547.04 Q1388.43 1542.23 1385.79 1539.37 Q1383.18 1536.5 1378.85 1536.5 Q1373.95 1536.5 1370.99 1539.27 Q1368.06 1542.04 1367.62 1547.07 L1388.5 1547.04 Z" fill="#000000" fill-rule="nonzero" fill-opacity="1" /><polyline clip-path="url(#clip100)" style="stroke:#000000; stroke-linecap:round; stroke-linejoin:round; stroke-width:4; stroke-opacity:1; fill:none" points="279.704,1423.18 279.704,47.2441 "/>
<polyline clip-path="url(#clip100)" style="stroke:#000000; stroke-linecap:round; stroke-linejoin:round; stroke-width:4; stroke-opacity:1; fill:none" points="279.704,1423.18 298.602,1423.18 "/>
<polyline clip-path="url(#clip100)" style="stroke:#000000; stroke-linecap:round; stroke-linejoin:round; stroke-width:4; stroke-opacity:1; fill:none" points="279.704,1181.88 298.602,1181.88 "/>
<polyline clip-path="url(#clip100)" style="stroke:#000000; stroke-linecap:round; stroke-linejoin:round; stroke-width:4; stroke-opacity:1; fill:none" points="279.704,940.577 298.602,940.577 "/>
<polyline clip-path="url(#clip100)" style="stroke:#000000; stroke-linecap:round; stroke-linejoin:round; stroke-width:4; stroke-opacity:1; fill:none" points="279.704,699.275 298.602,699.275 "/>
<polyline clip-path="url(#clip100)" style="stroke:#000000; stroke-linecap:round; stroke-linejoin:round; stroke-width:4; stroke-opacity:1; fill:none" points="279.704,457.974 298.602,457.974 "/>
<polyline clip-path="url(#clip100)" style="stroke:#000000; stroke-linecap:round; stroke-linejoin:round; stroke-width:4; stroke-opacity:1; fill:none" points="279.704,216.672 298.602,216.672 "/>
<path clip-path="url(#clip100)" d="M126.205 1408.98 Q122.593 1408.98 120.765 1412.54 Q118.959 1416.08 118.959 1423.21 Q118.959 1430.32 120.765 1433.89 Q122.593 1437.43 126.205 1437.43 Q129.839 1437.43 131.644 1433.89 Q133.473 1430.32 133.473 1423.21 Q133.473 1416.08 131.644 1412.54 Q129.839 1408.98 126.205 1408.98 M126.205 1405.27 Q132.015 1405.27 135.07 1409.88 Q138.149 1414.46 138.149 1423.21 Q138.149 1431.94 135.07 1436.55 Q132.015 1441.13 126.205 1441.13 Q120.394 1441.13 117.316 1436.55 Q114.26 1431.94 114.26 1423.21 Q114.26 1414.46 117.316 1409.88 Q120.394 1405.27 126.205 1405.27 Z" fill="#000000" fill-rule="nonzero" fill-opacity="1" /><path clip-path="url(#clip100)" d="M146.366 1434.58 L151.251 1434.58 L151.251 1440.46 L146.366 1440.46 L146.366 1434.58 Z" fill="#000000" fill-rule="nonzero" fill-opacity="1" /><path clip-path="url(#clip100)" d="M171.436 1408.98 Q167.825 1408.98 165.996 1412.54 Q164.19 1416.08 164.19 1423.21 Q164.19 1430.32 165.996 1433.89 Q167.825 1437.43 171.436 1437.43 Q175.07 1437.43 176.876 1433.89 Q178.704 1430.32 178.704 1423.21 Q178.704 1416.08 176.876 1412.54 Q175.07 1408.98 171.436 1408.98 M171.436 1405.27 Q177.246 1405.27 180.301 1409.88 Q183.38 1414.46 183.38 1423.21 Q183.38 1431.94 180.301 1436.55 Q177.246 1441.13 171.436 1441.13 Q165.626 1441.13 162.547 1436.55 Q159.491 1431.94 159.491 1423.21 Q159.491 1414.46 162.547 1409.88 Q165.626 1405.27 171.436 1405.27 Z" fill="#000000" fill-rule="nonzero" fill-opacity="1" /><path clip-path="url(#clip100)" d="M201.598 1408.98 Q197.987 1408.98 196.158 1412.54 Q194.352 1416.08 194.352 1423.21 Q194.352 1430.32 196.158 1433.89 Q197.987 1437.43 201.598 1437.43 Q205.232 1437.43 207.037 1433.89 Q208.866 1430.32 208.866 1423.21 Q208.866 1416.08 207.037 1412.54 Q205.232 1408.98 201.598 1408.98 M201.598 1405.27 Q207.408 1405.27 210.463 1409.88 Q213.542 1414.46 213.542 1423.21 Q213.542 1431.94 210.463 1436.55 Q207.408 1441.13 201.598 1441.13 Q195.787 1441.13 192.709 1436.55 Q189.653 1431.94 189.653 1423.21 Q189.653 1414.46 192.709 1409.88 Q195.787 1405.27 201.598 1405.27 Z" fill="#000000" fill-rule="nonzero" fill-opacity="1" /><path clip-path="url(#clip100)" d="M231.76 1408.98 Q228.148 1408.98 226.32 1412.54 Q224.514 1416.08 224.514 1423.21 Q224.514 1430.32 226.32 1433.89 Q228.148 1437.43 231.76 1437.43 Q235.394 1437.43 237.199 1433.89 Q239.028 1430.32 239.028 1423.21 Q239.028 1416.08 237.199 1412.54 Q235.394 1408.98 231.76 1408.98 M231.76 1405.27 Q237.57 1405.27 240.625 1409.88 Q243.704 1414.46 243.704 1423.21 Q243.704 1431.94 240.625 1436.55 Q237.57 1441.13 231.76 1441.13 Q225.949 1441.13 222.871 1436.55 Q219.815 1431.94 219.815 1423.21 Q219.815 1414.46 222.871 1409.88 Q225.949 1405.27 231.76 1405.27 Z" fill="#000000" fill-rule="nonzero" fill-opacity="1" /><path clip-path="url(#clip100)" d="M127.2 1167.68 Q123.589 1167.68 121.76 1171.24 Q119.955 1174.78 119.955 1181.91 Q119.955 1189.02 121.76 1192.58 Q123.589 1196.13 127.2 1196.13 Q130.834 1196.13 132.64 1192.58 Q134.468 1189.02 134.468 1181.91 Q134.468 1174.78 132.64 1171.24 Q130.834 1167.68 127.2 1167.68 M127.2 1163.97 Q133.01 1163.97 136.066 1168.58 Q139.144 1173.16 139.144 1181.91 Q139.144 1190.64 136.066 1195.25 Q133.01 1199.83 127.2 1199.83 Q121.39 1199.83 118.311 1195.25 Q115.256 1190.64 115.256 1181.91 Q115.256 1173.16 118.311 1168.58 Q121.39 1163.97 127.2 1163.97 Z" fill="#000000" fill-rule="nonzero" fill-opacity="1" /><path clip-path="url(#clip100)" d="M147.362 1193.28 L152.246 1193.28 L152.246 1199.16 L147.362 1199.16 L147.362 1193.28 Z" fill="#000000" fill-rule="nonzero" fill-opacity="1" /><path clip-path="url(#clip100)" d="M172.431 1167.68 Q168.82 1167.68 166.991 1171.24 Q165.186 1174.78 165.186 1181.91 Q165.186 1189.02 166.991 1192.58 Q168.82 1196.13 172.431 1196.13 Q176.065 1196.13 177.871 1192.58 Q179.7 1189.02 179.7 1181.91 Q179.7 1174.78 177.871 1171.24 Q176.065 1167.68 172.431 1167.68 M172.431 1163.97 Q178.241 1163.97 181.297 1168.58 Q184.376 1173.16 184.376 1181.91 Q184.376 1190.64 181.297 1195.25 Q178.241 1199.83 172.431 1199.83 Q166.621 1199.83 163.542 1195.25 Q160.487 1190.64 160.487 1181.91 Q160.487 1173.16 163.542 1168.58 Q166.621 1163.97 172.431 1163.97 Z" fill="#000000" fill-rule="nonzero" fill-opacity="1" /><path clip-path="url(#clip100)" d="M202.593 1167.68 Q198.982 1167.68 197.153 1171.24 Q195.348 1174.78 195.348 1181.91 Q195.348 1189.02 197.153 1192.58 Q198.982 1196.13 202.593 1196.13 Q206.227 1196.13 208.033 1192.58 Q209.861 1189.02 209.861 1181.91 Q209.861 1174.78 208.033 1171.24 Q206.227 1167.68 202.593 1167.68 M202.593 1163.97 Q208.403 1163.97 211.459 1168.58 Q214.537 1173.16 214.537 1181.91 Q214.537 1190.64 211.459 1195.25 Q208.403 1199.83 202.593 1199.83 Q196.783 1199.83 193.704 1195.25 Q190.649 1190.64 190.649 1181.91 Q190.649 1173.16 193.704 1168.58 Q196.783 1163.97 202.593 1163.97 Z" fill="#000000" fill-rule="nonzero" fill-opacity="1" /><path clip-path="url(#clip100)" d="M222.801 1164.6 L241.158 1164.6 L241.158 1168.53 L227.084 1168.53 L227.084 1177.01 Q228.102 1176.66 229.121 1176.5 Q230.139 1176.31 231.158 1176.31 Q236.945 1176.31 240.324 1179.48 Q243.704 1182.65 243.704 1188.07 Q243.704 1193.65 240.232 1196.75 Q236.76 1199.83 230.44 1199.83 Q228.264 1199.83 225.996 1199.46 Q223.75 1199.09 221.343 1198.35 L221.343 1193.65 Q223.426 1194.78 225.648 1195.34 Q227.871 1195.89 230.347 1195.89 Q234.352 1195.89 236.69 1193.79 Q239.028 1191.68 239.028 1188.07 Q239.028 1184.46 236.69 1182.35 Q234.352 1180.25 230.347 1180.25 Q228.473 1180.25 226.598 1180.66 Q224.746 1181.08 222.801 1181.96 L222.801 1164.6 Z" fill="#000000" fill-rule="nonzero" fill-opacity="1" /><path clip-path="url(#clip100)" d="M126.205 926.375 Q122.593 926.375 120.765 929.94 Q118.959 933.482 118.959 940.612 Q118.959 947.718 120.765 951.283 Q122.593 954.824 126.205 954.824 Q129.839 954.824 131.644 951.283 Q133.473 947.718 133.473 940.612 Q133.473 933.482 131.644 929.94 Q129.839 926.375 126.205 926.375 M126.205 922.672 Q132.015 922.672 135.07 927.278 Q138.149 931.862 138.149 940.612 Q138.149 949.338 135.07 953.945 Q132.015 958.528 126.205 958.528 Q120.394 958.528 117.316 953.945 Q114.26 949.338 114.26 940.612 Q114.26 931.862 117.316 927.278 Q120.394 922.672 126.205 922.672 Z" fill="#000000" fill-rule="nonzero" fill-opacity="1" /><path clip-path="url(#clip100)" d="M146.366 951.977 L151.251 951.977 L151.251 957.857 L146.366 957.857 L146.366 951.977 Z" fill="#000000" fill-rule="nonzero" fill-opacity="1" /><path clip-path="url(#clip100)" d="M171.436 926.375 Q167.825 926.375 165.996 929.94 Q164.19 933.482 164.19 940.612 Q164.19 947.718 165.996 951.283 Q167.825 954.824 171.436 954.824 Q175.07 954.824 176.876 951.283 Q178.704 947.718 178.704 940.612 Q178.704 933.482 176.876 929.94 Q175.07 926.375 171.436 926.375 M171.436 922.672 Q177.246 922.672 180.301 927.278 Q183.38 931.862 183.38 940.612 Q183.38 949.338 180.301 953.945 Q177.246 958.528 171.436 958.528 Q165.626 958.528 162.547 953.945 Q159.491 949.338 159.491 940.612 Q159.491 931.862 162.547 927.278 Q165.626 922.672 171.436 922.672 Z" fill="#000000" fill-rule="nonzero" fill-opacity="1" /><path clip-path="url(#clip100)" d="M192.408 953.922 L200.047 953.922 L200.047 927.556 L191.737 929.223 L191.737 924.963 L200 923.297 L204.676 923.297 L204.676 953.922 L212.315 953.922 L212.315 957.857 L192.408 957.857 L192.408 953.922 Z" fill="#000000" fill-rule="nonzero" fill-opacity="1" /><path clip-path="url(#clip100)" d="M231.76 926.375 Q228.148 926.375 226.32 929.94 Q224.514 933.482 224.514 940.612 Q224.514 947.718 226.32 951.283 Q228.148 954.824 231.76 954.824 Q235.394 954.824 237.199 951.283 Q239.028 947.718 239.028 940.612 Q239.028 933.482 237.199 929.94 Q235.394 926.375 231.76 926.375 M231.76 922.672 Q237.57 922.672 240.625 927.278 Q243.704 931.862 243.704 940.612 Q243.704 949.338 240.625 953.945 Q237.57 958.528 231.76 958.528 Q225.949 958.528 222.871 953.945 Q219.815 949.338 219.815 940.612 Q219.815 931.862 222.871 927.278 Q225.949 922.672 231.76 922.672 Z" fill="#000000" fill-rule="nonzero" fill-opacity="1" /><path clip-path="url(#clip100)" d="M127.2 685.074 Q123.589 685.074 121.76 688.639 Q119.955 692.18 119.955 699.31 Q119.955 706.416 121.76 709.981 Q123.589 713.523 127.2 713.523 Q130.834 713.523 132.64 709.981 Q134.468 706.416 134.468 699.31 Q134.468 692.18 132.64 688.639 Q130.834 685.074 127.2 685.074 M127.2 681.37 Q133.01 681.37 136.066 685.977 Q139.144 690.56 139.144 699.31 Q139.144 708.037 136.066 712.643 Q133.01 717.227 127.2 717.227 Q121.39 717.227 118.311 712.643 Q115.256 708.037 115.256 699.31 Q115.256 690.56 118.311 685.977 Q121.39 681.37 127.2 681.37 Z" fill="#000000" fill-rule="nonzero" fill-opacity="1" /><path clip-path="url(#clip100)" d="M147.362 710.676 L152.246 710.676 L152.246 716.555 L147.362 716.555 L147.362 710.676 Z" fill="#000000" fill-rule="nonzero" fill-opacity="1" /><path clip-path="url(#clip100)" d="M172.431 685.074 Q168.82 685.074 166.991 688.639 Q165.186 692.18 165.186 699.31 Q165.186 706.416 166.991 709.981 Q168.82 713.523 172.431 713.523 Q176.065 713.523 177.871 709.981 Q179.7 706.416 179.7 699.31 Q179.7 692.18 177.871 688.639 Q176.065 685.074 172.431 685.074 M172.431 681.37 Q178.241 681.37 181.297 685.977 Q184.376 690.56 184.376 699.31 Q184.376 708.037 181.297 712.643 Q178.241 717.227 172.431 717.227 Q166.621 717.227 163.542 712.643 Q160.487 708.037 160.487 699.31 Q160.487 690.56 163.542 685.977 Q166.621 681.37 172.431 681.37 Z" fill="#000000" fill-rule="nonzero" fill-opacity="1" /><path clip-path="url(#clip100)" d="M193.403 712.62 L201.042 712.62 L201.042 686.255 L192.732 687.921 L192.732 683.662 L200.996 681.995 L205.672 681.995 L205.672 712.62 L213.311 712.62 L213.311 716.555 L193.403 716.555 L193.403 712.62 Z" fill="#000000" fill-rule="nonzero" fill-opacity="1" /><path clip-path="url(#clip100)" d="M222.801 681.995 L241.158 681.995 L241.158 685.93 L227.084 685.93 L227.084 694.403 Q228.102 694.055 229.121 693.893 Q230.139 693.708 231.158 693.708 Q236.945 693.708 240.324 696.879 Q243.704 700.051 243.704 705.467 Q243.704 711.046 240.232 714.148 Q236.76 717.227 230.44 717.227 Q228.264 717.227 225.996 716.856 Q223.75 716.486 221.343 715.745 L221.343 711.046 Q223.426 712.18 225.648 712.736 Q227.871 713.291 230.347 713.291 Q234.352 713.291 236.69 711.185 Q239.028 709.078 239.028 705.467 Q239.028 701.856 236.69 699.75 Q234.352 697.643 230.347 697.643 Q228.473 697.643 226.598 698.06 Q224.746 698.477 222.801 699.356 L222.801 681.995 Z" fill="#000000" fill-rule="nonzero" fill-opacity="1" /><path clip-path="url(#clip100)" d="M126.205 443.772 Q122.593 443.772 120.765 447.337 Q118.959 450.879 118.959 458.008 Q118.959 465.115 120.765 468.68 Q122.593 472.221 126.205 472.221 Q129.839 472.221 131.644 468.68 Q133.473 465.115 133.473 458.008 Q133.473 450.879 131.644 447.337 Q129.839 443.772 126.205 443.772 M126.205 440.069 Q132.015 440.069 135.07 444.675 Q138.149 449.259 138.149 458.008 Q138.149 466.735 135.07 471.342 Q132.015 475.925 126.205 475.925 Q120.394 475.925 117.316 471.342 Q114.26 466.735 114.26 458.008 Q114.26 449.259 117.316 444.675 Q120.394 440.069 126.205 440.069 Z" fill="#000000" fill-rule="nonzero" fill-opacity="1" /><path clip-path="url(#clip100)" d="M146.366 469.374 L151.251 469.374 L151.251 475.254 L146.366 475.254 L146.366 469.374 Z" fill="#000000" fill-rule="nonzero" fill-opacity="1" /><path clip-path="url(#clip100)" d="M171.436 443.772 Q167.825 443.772 165.996 447.337 Q164.19 450.879 164.19 458.008 Q164.19 465.115 165.996 468.68 Q167.825 472.221 171.436 472.221 Q175.07 472.221 176.876 468.68 Q178.704 465.115 178.704 458.008 Q178.704 450.879 176.876 447.337 Q175.07 443.772 171.436 443.772 M171.436 440.069 Q177.246 440.069 180.301 444.675 Q183.38 449.259 183.38 458.008 Q183.38 466.735 180.301 471.342 Q177.246 475.925 171.436 475.925 Q165.626 475.925 162.547 471.342 Q159.491 466.735 159.491 458.008 Q159.491 449.259 162.547 444.675 Q165.626 440.069 171.436 440.069 Z" fill="#000000" fill-rule="nonzero" fill-opacity="1" /><path clip-path="url(#clip100)" d="M195.625 471.319 L211.945 471.319 L211.945 475.254 L190 475.254 L190 471.319 Q192.663 468.564 197.246 463.934 Q201.852 459.282 203.033 457.939 Q205.278 455.416 206.158 453.68 Q207.061 451.921 207.061 450.231 Q207.061 447.476 205.116 445.74 Q203.195 444.004 200.093 444.004 Q197.894 444.004 195.44 444.768 Q193.01 445.532 190.232 447.083 L190.232 442.36 Q193.056 441.226 195.51 440.647 Q197.963 440.069 200 440.069 Q205.371 440.069 208.565 442.754 Q211.76 445.439 211.76 449.93 Q211.76 452.059 210.949 453.981 Q210.162 455.879 208.056 458.471 Q207.477 459.143 204.375 462.36 Q201.274 465.555 195.625 471.319 Z" fill="#000000" fill-rule="nonzero" fill-opacity="1" /><path clip-path="url(#clip100)" d="M231.76 443.772 Q228.148 443.772 226.32 447.337 Q224.514 450.879 224.514 458.008 Q224.514 465.115 226.32 468.68 Q228.148 472.221 231.76 472.221 Q235.394 472.221 237.199 468.68 Q239.028 465.115 239.028 458.008 Q239.028 450.879 237.199 447.337 Q235.394 443.772 231.76 443.772 M231.76 440.069 Q237.57 440.069 240.625 444.675 Q243.704 449.259 243.704 458.008 Q243.704 466.735 240.625 471.342 Q237.57 475.925 231.76 475.925 Q225.949 475.925 222.871 471.342 Q219.815 466.735 219.815 458.008 Q219.815 449.259 222.871 444.675 Q225.949 440.069 231.76 440.069 Z" fill="#000000" fill-rule="nonzero" fill-opacity="1" /><path clip-path="url(#clip100)" d="M127.2 202.471 Q123.589 202.471 121.76 206.036 Q119.955 209.577 119.955 216.707 Q119.955 223.813 121.76 227.378 Q123.589 230.92 127.2 230.92 Q130.834 230.92 132.64 227.378 Q134.468 223.813 134.468 216.707 Q134.468 209.577 132.64 206.036 Q130.834 202.471 127.2 202.471 M127.2 198.767 Q133.01 198.767 136.066 203.374 Q139.144 207.957 139.144 216.707 Q139.144 225.434 136.066 230.04 Q133.01 234.624 127.2 234.624 Q121.39 234.624 118.311 230.04 Q115.256 225.434 115.256 216.707 Q115.256 207.957 118.311 203.374 Q121.39 198.767 127.2 198.767 Z" fill="#000000" fill-rule="nonzero" fill-opacity="1" /><path clip-path="url(#clip100)" d="M147.362 228.073 L152.246 228.073 L152.246 233.952 L147.362 233.952 L147.362 228.073 Z" fill="#000000" fill-rule="nonzero" fill-opacity="1" /><path clip-path="url(#clip100)" d="M172.431 202.471 Q168.82 202.471 166.991 206.036 Q165.186 209.577 165.186 216.707 Q165.186 223.813 166.991 227.378 Q168.82 230.92 172.431 230.92 Q176.065 230.92 177.871 227.378 Q179.7 223.813 179.7 216.707 Q179.7 209.577 177.871 206.036 Q176.065 202.471 172.431 202.471 M172.431 198.767 Q178.241 198.767 181.297 203.374 Q184.376 207.957 184.376 216.707 Q184.376 225.434 181.297 230.04 Q178.241 234.624 172.431 234.624 Q166.621 234.624 163.542 230.04 Q160.487 225.434 160.487 216.707 Q160.487 207.957 163.542 203.374 Q166.621 198.767 172.431 198.767 Z" fill="#000000" fill-rule="nonzero" fill-opacity="1" /><path clip-path="url(#clip100)" d="M196.621 230.017 L212.94 230.017 L212.94 233.952 L190.996 233.952 L190.996 230.017 Q193.658 227.262 198.241 222.633 Q202.848 217.98 204.028 216.638 Q206.274 214.114 207.153 212.378 Q208.056 210.619 208.056 208.929 Q208.056 206.175 206.112 204.438 Q204.19 202.702 201.088 202.702 Q198.889 202.702 196.436 203.466 Q194.005 204.23 191.227 205.781 L191.227 201.059 Q194.051 199.925 196.505 199.346 Q198.959 198.767 200.996 198.767 Q206.366 198.767 209.561 201.452 Q212.755 204.138 212.755 208.628 Q212.755 210.758 211.945 212.679 Q211.158 214.577 209.051 217.17 Q208.473 217.841 205.371 221.059 Q202.269 224.253 196.621 230.017 Z" fill="#000000" fill-rule="nonzero" fill-opacity="1" /><path clip-path="url(#clip100)" d="M222.801 199.392 L241.158 199.392 L241.158 203.327 L227.084 203.327 L227.084 211.8 Q228.102 211.452 229.121 211.29 Q230.139 211.105 231.158 211.105 Q236.945 211.105 240.324 214.276 Q243.704 217.448 243.704 222.864 Q243.704 228.443 240.232 231.545 Q236.76 234.624 230.44 234.624 Q228.264 234.624 225.996 234.253 Q223.75 233.883 221.343 233.142 L221.343 228.443 Q223.426 229.577 225.648 230.133 Q227.871 230.688 230.347 230.688 Q234.352 230.688 236.69 228.582 Q239.028 226.475 239.028 222.864 Q239.028 219.253 236.69 217.147 Q234.352 215.04 230.347 215.04 Q228.473 215.04 226.598 215.457 Q224.746 215.874 222.801 216.753 L222.801 199.392 Z" fill="#000000" fill-rule="nonzero" fill-opacity="1" /><path clip-path="url(#clip100)" d="M41.7242 776.939 Q42.4244 774.87 44.7161 772.929 Q47.0077 770.955 51.0181 768.982 L64.0042 762.457 L64.0042 769.364 L51.8138 775.443 Q47.0395 777.799 45.48 780.027 Q43.9204 782.223 43.9204 786.042 L43.9204 793.044 L64.0042 793.044 L64.0042 799.474 L16.4842 799.474 L16.4842 784.96 Q16.4842 776.812 19.8898 772.801 Q23.2955 768.791 30.1704 768.791 Q34.6582 768.791 37.6183 770.892 Q40.5784 772.961 41.7242 776.939 M21.7677 793.044 L38.6368 793.044 L38.6368 784.96 Q38.6368 780.313 36.5043 777.958 Q34.34 775.571 30.1704 775.571 Q26.0009 775.571 23.9002 777.958 Q21.7677 780.313 21.7677 784.96 L21.7677 793.044 Z" fill="#000000" fill-rule="nonzero" fill-opacity="1" /><path clip-path="url(#clip100)" d="M28.3562 754.436 L28.3562 748.58 L64.0042 748.58 L64.0042 754.436 L28.3562 754.436 M14.479 754.436 L14.479 748.58 L21.895 748.58 L21.895 754.436 L14.479 754.436 Z" fill="#000000" fill-rule="nonzero" fill-opacity="1" /><path clip-path="url(#clip100)" d="M29.4065 713.6 L34.9447 713.6 Q33.6716 716.083 33.035 718.757 Q32.3984 721.43 32.3984 724.295 Q32.3984 728.655 33.7352 730.851 Q35.072 733.016 37.7456 733.016 Q39.7826 733.016 40.9603 731.456 Q42.1061 729.897 43.1565 725.186 L43.6021 723.181 Q44.9389 716.942 47.3897 714.332 Q49.8086 711.691 54.1691 711.691 Q59.1344 711.691 62.0308 715.637 Q64.9272 719.552 64.9272 726.427 Q64.9272 729.292 64.3543 732.411 Q63.8132 735.498 62.6992 738.936 L56.6518 738.936 Q58.3387 735.689 59.198 732.538 Q60.0256 729.387 60.0256 726.3 Q60.0256 722.162 58.6251 719.934 Q57.1929 717.706 54.6147 717.706 Q52.2276 717.706 50.9545 719.33 Q49.6813 720.921 48.5037 726.364 L48.0262 728.401 Q46.8804 733.843 44.5251 736.262 Q42.138 738.681 38.0002 738.681 Q32.9713 738.681 30.2341 735.116 Q27.4968 731.552 27.4968 724.995 Q27.4968 721.748 27.9743 718.884 Q28.4517 716.019 29.4065 713.6 Z" fill="#000000" fill-rule="nonzero" fill-opacity="1" /><path clip-path="url(#clip100)" d="M14.479 702.588 L14.479 696.699 L43.7294 696.699 L28.3562 679.226 L28.3562 671.746 L45.0344 690.652 L64.0042 670.95 L64.0042 678.589 L46.5939 696.699 L64.0042 696.699 L64.0042 702.588 L14.479 702.588 Z" fill="#000000" fill-rule="nonzero" fill-opacity="1" /><polyline clip-path="url(#clip102)" style="stroke:#009af9; stroke-linecap:round; stroke-linejoin:round; stroke-width:4; stroke-opacity:1; fill:none" points="279.704,1423.18 284.261,1423.18 284.261,1401.91 287.577,1401.91 287.577,1352.12 290.894,1352.12 302.711,1352.12 315.771,1352.12 315.771,1329.73 332.355,1329.73 339.404,1329.73 339.404,1320.34 341.477,1320.34 403.047,1320.34 403.047,1274.13 406.156,1274.13 406.156,1255.4 433.313,1255.4 433.313,1241.72 464.616,1241.72 464.616,1194.19 474.567,1194.19 474.567,1165.32 483.481,1165.32 502.139,1165.32 502.139,1162.82 523.906,1162.82 545.258,1162.82 545.258,1122.29 551.892,1122.29 566.196,1122.29 570.135,1122.29 570.135,1116.11 578.842,1116.11 578.842,1071.59 589.829,1071.59 614.084,1071.59 614.084,1057.08 616.779,1057.08 646.009,1057.08 646.009,1038 649.118,1038 649.118,1028.51 662.386,1028.51 662.386,989.758 693.067,989.758 708.822,989.758 717.944,989.758 717.944,958.809 722.712,958.809 722.712,926.035 729.968,926.035 729.968,911.456 740.748,911.456 740.748,908.966 747.174,908.966 747.174,878.907 809.78,878.907 841.291,878.907 859.119,878.907 887.105,878.907 887.105,828.135 910.531,828.135 912.189,828.135 912.189,775.691 959.455,775.691 1000.29,775.691 1000.29,746.419 1002.57,746.419 1002.57,713.057 1023.1,713.057 1023.1,690.816 1035.74,690.816 1048.18,690.816 1053.99,690.816 1054.61,690.816 1062.28,690.816 1064.35,690.816 1066.01,690.816 1103.12,690.816 1103.12,650.734 1109.75,650.734 1109.75,602.357 1119.08,602.357 1119.08,549.02 1156.4,549.02 1165.31,549.02 1165.31,544.348 1184.17,544.348 1185,544.348 1202.21,544.348 1228.74,544.348 1228.74,511.177 1240.77,511.177 1282.64,511.177 1282.64,509.806 1313.53,509.806 1335.71,509.806 1335.71,492.433 1356.86,492.433 1356.86,461.343 1370.33,461.343 1371.16,461.343 1383.39,461.343 1392.93,461.343 1409.72,461.343 1415.73,461.343 1422.99,461.343 1422.99,459.794 1436.88,459.794 1481.87,459.794 1481.87,433.792 1485.8,433.792 1485.8,393.392 1533.07,393.392 1533.07,379.901 1533.9,379.901 1533.9,327.931 1552.76,327.931 1552.76,303.809 1566.24,303.809 1569.97,303.809 1606.87,303.809 1606.87,247.543 1625.11,247.543 1685.23,247.543 1708.24,247.543 1708.24,234.977 1711.77,234.977 1732.29,234.977 1732.29,234.894 1741.83,234.894 1751.16,234.894 1773.54,234.894 1799.04,234.894 1807.13,234.894 1807.13,203.608 1809.62,203.608 1819.15,203.608 1871.39,203.608 1884.66,203.608 1927.57,203.608 1933.17,203.608 1934,203.608 1934,156.697 1953.07,156.697 1953.07,117.16 1969.24,117.16 1969.24,113.47 1974.22,113.47 1974.22,104.254 2002.2,104.254 2018.16,104.254 2056.72,104.254 2056.72,90.7463 2156.02,90.7463 2156.02,58.063 2184.63,58.063 2184.63,47.2441 2352.76,47.2441 "/>
<polyline clip-path="url(#clip102)" style="stroke:#e26f46; stroke-linecap:round; stroke-linejoin:round; stroke-width:4; stroke-opacity:1; fill:none" points="279.704,1423.18 284.261,1423.18 287.577,1423.18 290.894,1423.18 290.894,1332.02 302.711,1332.02 302.711,1317.47 315.771,1317.47 332.355,1317.47 332.355,1282.06 339.404,1282.06 341.477,1282.06 341.477,1278.52 403.047,1278.52 406.156,1278.52 433.313,1278.52 464.616,1278.52 474.567,1278.52 483.481,1278.52 483.481,1242.3 502.139,1242.3 523.906,1242.3 523.906,1225.92 545.258,1225.92 551.892,1225.92 551.892,1209.5 566.196,1209.5 566.196,1199.7 570.135,1199.7 578.842,1199.7 589.829,1199.7 589.829,1178.56 614.084,1178.56 616.779,1178.56 616.779,1167.43 646.009,1167.43 649.118,1167.43 662.386,1167.43 693.067,1167.43 693.067,1144.63 708.822,1144.63 708.822,1132.96 717.944,1132.96 722.712,1132.96 729.968,1132.96 740.748,1132.96 747.174,1132.96 809.78,1132.96 809.78,1108.34 841.291,1108.34 841.291,1093.07 859.119,1093.07 859.119,1085.42 887.105,1085.42 910.531,1085.42 910.531,1070.71 912.189,1070.71 959.455,1070.71 959.455,1058.72 1000.29,1058.72 1002.57,1058.72 1023.1,1058.72 1035.74,1058.72 1035.74,1020.01 1048.18,1020.01 1048.18,979.785 1053.99,979.785 1053.99,951.178 1054.61,951.178 1054.61,917.781 1062.28,917.781 1062.28,889.516 1064.35,889.516 1064.35,864.69 1066.01,864.69 1066.01,838.04 1103.12,838.04 1109.75,838.04 1119.08,838.04 1156.4,838.04 1156.4,799.511 1165.31,799.511 1184.17,799.511 1184.17,781.79 1185,781.79 1185,777.6 1202.21,777.6 1202.21,747.836 1228.74,747.836 1240.77,747.836 1240.77,713.601 1282.64,713.601 1313.53,713.601 1313.53,674.956 1335.71,674.956 1356.86,674.956 1370.33,674.956 1370.33,674.245 1371.16,674.245 1371.16,666.975 1383.39,666.975 1383.39,627.318 1392.93,627.318 1392.93,622.817 1409.72,622.817 1409.72,581.709 1415.73,581.709 1415.73,544.014 1422.99,544.014 1436.88,544.014 1436.88,534.132 1481.87,534.132 1485.8,534.132 1533.07,534.132 1533.9,534.132 1552.76,534.132 1566.24,534.132 1566.24,528.163 1569.97,528.163 1569.97,524.502 1606.87,524.502 1625.11,524.502 1625.11,516.457 1685.23,516.457 1685.23,478.475 1708.24,478.475 1711.77,478.475 1711.77,453.228 1732.29,453.228 1741.83,453.228 1741.83,443.007 1751.16,443.007 1751.16,400.578 1773.54,400.578 1773.54,360.402 1799.04,360.402 1799.04,334.478 1807.13,334.478 1809.62,334.478 1809.62,299.008 1819.15,299.008 1819.15,280.094 1871.39,280.094 1871.39,269.486 1884.66,269.486 1884.66,254.079 1927.57,254.079 1927.57,214.679 1933.17,214.679 1933.17,169.591 1934,169.591 1953.07,169.591 1969.24,169.591 1974.22,169.591 2002.2,169.591 2002.2,142.151 2018.16,142.151 2018.16,94.9703 2056.72,94.9703 2156.02,94.9703 2184.63,94.9703 2352.76,94.9703 "/>
<path clip-path="url(#clip100)" d="M348.806 248.629 L578.055 248.629 L578.055 93.1086 L348.806 93.1086  Z" fill="#ffffff" fill-rule="evenodd" fill-opacity="1"/>
<polyline clip-path="url(#clip100)" style="stroke:#000000; stroke-linecap:round; stroke-linejoin:round; stroke-width:4; stroke-opacity:1; fill:none" points="348.806,248.629 578.055,248.629 578.055,93.1086 348.806,93.1086 348.806,248.629 "/>
<polyline clip-path="url(#clip100)" style="stroke:#009af9; stroke-linecap:round; stroke-linejoin:round; stroke-width:4; stroke-opacity:1; fill:none" points="371.84,144.949 510.043,144.949 "/>
<path clip-path="url(#clip100)" d="M533.748 158.293 L541.387 158.293 L541.387 131.928 L533.077 133.595 L533.077 129.335 L541.341 127.669 L546.017 127.669 L546.017 158.293 L553.656 158.293 L553.656 162.229 L533.748 162.229 L533.748 158.293 Z" fill="#000000" fill-rule="nonzero" fill-opacity="1" /><polyline clip-path="url(#clip100)" style="stroke:#e26f46; stroke-linecap:round; stroke-linejoin:round; stroke-width:4; stroke-opacity:1; fill:none" points="371.84,196.789 510.043,196.789 "/>
<path clip-path="url(#clip100)" d="M538.702 210.133 L555.021 210.133 L555.021 214.069 L533.077 214.069 L533.077 210.133 Q535.739 207.379 540.322 202.749 Q544.929 198.096 546.109 196.754 Q548.355 194.231 549.234 192.495 Q550.137 190.735 550.137 189.046 Q550.137 186.291 548.193 184.555 Q546.271 182.819 543.169 182.819 Q540.97 182.819 538.517 183.583 Q536.086 184.347 533.308 185.897 L533.308 181.175 Q536.132 180.041 538.586 179.462 Q541.04 178.884 543.077 178.884 Q548.447 178.884 551.642 181.569 Q554.836 184.254 554.836 188.745 Q554.836 190.874 554.026 192.796 Q553.239 194.694 551.132 197.286 Q550.554 197.958 547.452 201.175 Q544.35 204.37 538.702 210.133 Z" fill="#000000" fill-rule="nonzero" fill-opacity="1" /></svg>
