<?xml version="1.0" encoding="utf-8"?>
<svg xmlns="http://www.w3.org/2000/svg" xmlns:xlink="http://www.w3.org/1999/xlink" width="600" height="400" viewBox="0 0 2400 1600">
<defs>
  <clipPath id="clip660">
    <rect x="0" y="0" width="2400" height="1600"/>
  </clipPath>
</defs>
<path clip-path="url(#clip660)" d="M0 1600 L2400 1600 L2400 0 L0 0  Z" fill="#ffffff" fill-rule="evenodd" fill-opacity="1"/>
<defs>
  <clipPath id="clip661">
    <rect x="480" y="0" width="1681" height="1600"/>
  </clipPath>
</defs>
<path clip-path="url(#clip660)" d="M219.866 1423.18 L2352.76 1423.18 L2352.76 47.2441 L219.866 47.2441  Z" fill="#ffffff" fill-rule="evenodd" fill-opacity="1"/>
<defs>
  <clipPath id="clip662">
    <rect x="219" y="47" width="2134" height="1377"/>
  </clipPath>
</defs>
<polyline clip-path="url(#clip660)" style="stroke:#000000; stroke-linecap:round; stroke-linejoin:round; stroke-width:4; stroke-opacity:1; fill:none" points="219.866,1423.18 2352.76,1423.18 "/>
<polyline clip-path="url(#clip660)" style="stroke:#000000; stroke-linecap:round; stroke-linejoin:round; stroke-width:4; stroke-opacity:1; fill:none" points="646.434,1423.18 646.434,1404.28 "/>
<polyline clip-path="url(#clip660)" style="stroke:#000000; stroke-linecap:round; stroke-linejoin:round; stroke-width:4; stroke-opacity:1; fill:none" points="1073.01,1423.18 1073.01,1404.28 "/>
<polyline clip-path="url(#clip660)" style="stroke:#000000; stroke-linecap:round; stroke-linejoin:round; stroke-width:4; stroke-opacity:1; fill:none" points="1499.59,1423.18 1499.59,1404.28 "/>
<polyline clip-path="url(#clip660)" style="stroke:#000000; stroke-linecap:round; stroke-linejoin:round; stroke-width:4; stroke-opacity:1; fill:none" points="1926.18,1423.18 1926.18,1404.28 "/>
<polyline clip-path="url(#clip660)" style="stroke:#000000; stroke-linecap:round; stroke-linejoin:round; stroke-width:4; stroke-opacity:1; fill:none" points="2352.76,1423.18 2352.76,1404.28 "/>
<path clip-path="url(#clip660)" d="M624.617 1454.1 Q621.006 1454.1 619.177 1457.66 Q617.372 1461.2 617.372 1468.33 Q617.372 1475.44 619.177 1479.01 Q621.006 1482.55 624.617 1482.55 Q628.251 1482.55 630.057 1479.01 Q631.885 1475.44 631.885 1468.33 Q631.885 1461.2 630.057 1457.66 Q628.251 1454.1 624.617 1454.1 M624.617 1450.39 Q630.427 1450.39 633.483 1455 Q636.561 1459.58 636.561 1468.33 Q636.561 1477.06 633.483 1481.67 Q630.427 1486.25 624.617 1486.25 Q618.807 1486.25 615.728 1481.67 Q612.673 1477.06 612.673 1468.33 Q612.673 1459.58 615.728 1455 Q618.807 1450.39 624.617 1450.39 Z" fill="#000000" fill-rule="nonzero" fill-opacity="1" /><path clip-path="url(#clip660)" d="M644.779 1479.7 L649.663 1479.7 L649.663 1485.58 L644.779 1485.58 L644.779 1479.7 Z" fill="#000000" fill-rule="nonzero" fill-opacity="1" /><path clip-path="url(#clip660)" d="M663.876 1481.64 L680.195 1481.64 L680.195 1485.58 L658.251 1485.58 L658.251 1481.64 Q660.913 1478.89 665.496 1474.26 Q670.103 1469.61 671.283 1468.27 Q673.529 1465.74 674.408 1464.01 Q675.311 1462.25 675.311 1460.56 Q675.311 1457.8 673.367 1456.07 Q671.445 1454.33 668.344 1454.33 Q666.144 1454.33 663.691 1455.09 Q661.26 1455.86 658.482 1457.41 L658.482 1452.69 Q661.307 1451.55 663.76 1450.97 Q666.214 1450.39 668.251 1450.39 Q673.621 1450.39 676.816 1453.08 Q680.01 1455.77 680.01 1460.26 Q680.01 1462.39 679.2 1464.31 Q678.413 1466.2 676.306 1468.8 Q675.728 1469.47 672.626 1472.69 Q669.524 1475.88 663.876 1481.64 Z" fill="#000000" fill-rule="nonzero" fill-opacity="1" /><path clip-path="url(#clip660)" d="M1050.16 1454.1 Q1046.54 1454.1 1044.72 1457.66 Q1042.91 1461.2 1042.91 1468.33 Q1042.91 1475.44 1044.72 1479.01 Q1046.54 1482.55 1050.16 1482.55 Q1053.79 1482.55 1055.6 1479.01 Q1057.42 1475.44 1057.42 1468.33 Q1057.42 1461.2 1055.6 1457.66 Q1053.79 1454.1 1050.16 1454.1 M1050.16 1450.39 Q1055.97 1450.39 1059.02 1455 Q1062.1 1459.58 1062.1 1468.33 Q1062.1 1477.06 1059.02 1481.67 Q1055.97 1486.25 1050.16 1486.25 Q1044.35 1486.25 1041.27 1481.67 Q1038.21 1477.06 1038.21 1468.33 Q1038.21 1459.58 1041.27 1455 Q1044.35 1450.39 1050.16 1450.39 Z" fill="#000000" fill-rule="nonzero" fill-opacity="1" /><path clip-path="url(#clip660)" d="M1070.32 1479.7 L1075.2 1479.7 L1075.2 1485.58 L1070.32 1485.58 L1070.32 1479.7 Z" fill="#000000" fill-rule="nonzero" fill-opacity="1" /><path clip-path="url(#clip660)" d="M1098.23 1455.09 L1086.43 1473.54 L1098.23 1473.54 L1098.23 1455.09 M1097.01 1451.02 L1102.89 1451.02 L1102.89 1473.54 L1107.82 1473.54 L1107.82 1477.43 L1102.89 1477.43 L1102.89 1485.58 L1098.23 1485.58 L1098.23 1477.43 L1082.63 1477.43 L1082.63 1472.92 L1097.01 1451.02 Z" fill="#000000" fill-rule="nonzero" fill-opacity="1" /><path clip-path="url(#clip660)" d="M1476.9 1454.1 Q1473.29 1454.1 1471.46 1457.66 Q1469.65 1461.2 1469.65 1468.33 Q1469.65 1475.44 1471.46 1479.01 Q1473.29 1482.55 1476.9 1482.55 Q1480.53 1482.55 1482.34 1479.01 Q1484.17 1475.44 1484.17 1468.33 Q1484.17 1461.2 1482.34 1457.66 Q1480.53 1454.1 1476.9 1454.1 M1476.9 1450.39 Q1482.71 1450.39 1485.76 1455 Q1488.84 1459.58 1488.84 1468.33 Q1488.84 1477.06 1485.76 1481.67 Q1482.71 1486.25 1476.9 1486.25 Q1471.09 1486.25 1468.01 1481.67 Q1464.95 1477.06 1464.95 1468.33 Q1464.95 1459.58 1468.01 1455 Q1471.09 1450.39 1476.9 1450.39 Z" fill="#000000" fill-rule="nonzero" fill-opacity="1" /><path clip-path="url(#clip660)" d="M1497.06 1479.7 L1501.94 1479.7 L1501.94 1485.58 L1497.06 1485.58 L1497.06 1479.7 Z" fill="#000000" fill-rule="nonzero" fill-opacity="1" /><path clip-path="url(#clip660)" d="M1522.71 1466.44 Q1519.56 1466.44 1517.71 1468.59 Q1515.88 1470.74 1515.88 1474.49 Q1515.88 1478.22 1517.71 1480.39 Q1519.56 1482.55 1522.71 1482.55 Q1525.86 1482.55 1527.69 1480.39 Q1529.54 1478.22 1529.54 1474.49 Q1529.54 1470.74 1527.69 1468.59 Q1525.86 1466.44 1522.71 1466.44 M1531.99 1451.78 L1531.99 1456.04 Q1530.23 1455.21 1528.43 1454.77 Q1526.64 1454.33 1524.88 1454.33 Q1520.25 1454.33 1517.8 1457.45 Q1515.37 1460.58 1515.02 1466.9 Q1516.39 1464.89 1518.45 1463.82 Q1520.51 1462.73 1522.99 1462.73 Q1528.19 1462.73 1531.2 1465.9 Q1534.24 1469.05 1534.24 1474.49 Q1534.24 1479.82 1531.09 1483.03 Q1527.94 1486.25 1522.71 1486.25 Q1516.71 1486.25 1513.54 1481.67 Q1510.37 1477.06 1510.37 1468.33 Q1510.37 1460.14 1514.26 1455.28 Q1518.15 1450.39 1524.7 1450.39 Q1526.46 1450.39 1528.24 1450.74 Q1530.05 1451.09 1531.99 1451.78 Z" fill="#000000" fill-rule="nonzero" fill-opacity="1" /><path clip-path="url(#clip660)" d="M1903.61 1454.1 Q1899.99 1454.1 1898.17 1457.66 Q1896.36 1461.2 1896.36 1468.33 Q1896.36 1475.44 1898.17 1479.01 Q1899.99 1482.55 1903.61 1482.55 Q1907.24 1482.55 1909.05 1479.01 Q1910.87 1475.44 1910.87 1468.33 Q1910.87 1461.2 1909.05 1457.66 Q1907.24 1454.1 1903.61 1454.1 M1903.61 1450.39 Q1909.42 1450.39 1912.47 1455 Q1915.55 1459.58 1915.55 1468.33 Q1915.55 1477.06 1912.47 1481.67 Q1909.42 1486.25 1903.61 1486.25 Q1897.8 1486.25 1894.72 1481.67 Q1891.66 1477.06 1891.66 1468.33 Q1891.66 1459.58 1894.72 1455 Q1897.8 1450.39 1903.61 1450.39 Z" fill="#000000" fill-rule="nonzero" fill-opacity="1" /><path clip-path="url(#clip660)" d="M1923.77 1479.7 L1928.65 1479.7 L1928.65 1485.58 L1923.77 1485.58 L1923.77 1479.7 Z" fill="#000000" fill-rule="nonzero" fill-opacity="1" /><path clip-path="url(#clip660)" d="M1948.84 1469.17 Q1945.5 1469.17 1943.58 1470.95 Q1941.68 1472.73 1941.68 1475.86 Q1941.68 1478.98 1943.58 1480.77 Q1945.5 1482.55 1948.84 1482.55 Q1952.17 1482.55 1954.09 1480.77 Q1956.01 1478.96 1956.01 1475.86 Q1956.01 1472.73 1954.09 1470.95 Q1952.19 1469.17 1948.84 1469.17 M1944.16 1467.18 Q1941.15 1466.44 1939.46 1464.38 Q1937.8 1462.32 1937.8 1459.35 Q1937.8 1455.21 1940.74 1452.8 Q1943.7 1450.39 1948.84 1450.39 Q1954 1450.39 1956.94 1452.8 Q1959.88 1455.21 1959.88 1459.35 Q1959.88 1462.32 1958.19 1464.38 Q1956.52 1466.44 1953.54 1467.18 Q1956.92 1467.96 1958.79 1470.26 Q1960.69 1472.55 1960.69 1475.86 Q1960.69 1480.88 1957.61 1483.57 Q1954.55 1486.25 1948.84 1486.25 Q1943.12 1486.25 1940.04 1483.57 Q1936.99 1480.88 1936.99 1475.86 Q1936.99 1472.55 1938.88 1470.26 Q1940.78 1467.96 1944.16 1467.18 M1942.45 1459.79 Q1942.45 1462.48 1944.12 1463.98 Q1945.8 1465.49 1948.84 1465.49 Q1951.85 1465.49 1953.54 1463.98 Q1955.25 1462.48 1955.25 1459.79 Q1955.25 1457.11 1953.54 1455.6 Q1951.85 1454.1 1948.84 1454.1 Q1945.8 1454.1 1944.12 1455.6 Q1942.45 1457.11 1942.45 1459.79 Z" fill="#000000" fill-rule="nonzero" fill-opacity="1" /><path clip-path="url(#clip660)" d="M2319.91 1481.64 L2327.55 1481.64 L2327.55 1455.28 L2319.24 1456.95 L2319.24 1452.69 L2327.5 1451.02 L2332.18 1451.02 L2332.18 1481.64 L2339.82 1481.64 L2339.82 1485.58 L2319.91 1485.58 L2319.91 1481.64 Z" fill="#000000" fill-rule="nonzero" fill-opacity="1" /><path clip-path="url(#clip660)" d="M2349.26 1479.7 L2354.14 1479.7 L2354.14 1485.58 L2349.26 1485.58 L2349.26 1479.7 Z" fill="#000000" fill-rule="nonzero" fill-opacity="1" /><path clip-path="url(#clip660)" d="M2374.33 1454.1 Q2370.72 1454.1 2368.89 1457.66 Q2367.08 1461.2 2367.08 1468.33 Q2367.08 1475.44 2368.89 1479.01 Q2370.72 1482.55 2374.33 1482.55 Q2377.96 1482.55 2379.77 1479.01 Q2381.6 1475.44 2381.6 1468.33 Q2381.6 1461.2 2379.77 1457.66 Q2377.96 1454.1 2374.33 1454.1 M2374.33 1450.39 Q2380.14 1450.39 2383.2 1455 Q2386.27 1459.58 2386.27 1468.33 Q2386.27 1477.06 2383.2 1481.67 Q2380.14 1486.25 2374.33 1486.25 Q2368.52 1486.25 2365.44 1481.67 Q2362.39 1477.06 2362.39 1468.33 Q2362.39 1459.58 2365.44 1455 Q2368.52 1450.39 2374.33 1450.39 Z" fill="#000000" fill-rule="nonzero" fill-opacity="1" /><path clip-path="url(#clip660)" d="M1208.19 1520.52 L1248.39 1520.52 L1248.39 1525.93 L1231.52 1525.93 L1231.52 1568.04 L1225.06 1568.04 L1225.06 1525.93 L1208.19 1525.93 L1208.19 1520.52 Z" fill="#000000" fill-rule="nonzero" fill-opacity="1" /><path clip-path="url(#clip660)" d="M1252.33 1532.4 L1258.19 1532.4 L1258.19 1568.04 L1252.33 1568.04 L1252.33 1532.4 M1252.33 1518.52 L1258.19 1518.52 L1258.19 1525.93 L1252.33 1525.93 L1252.33 1518.52 Z" fill="#000000" fill-rule="nonzero" fill-opacity="1" /><path clip-path="url(#clip660)" d="M1298.2 1539.24 Q1300.4 1535.29 1303.45 1533.41 Q1306.51 1531.54 1310.64 1531.54 Q1316.21 1531.54 1319.24 1535.45 Q1322.26 1539.33 1322.26 1546.53 L1322.26 1568.04 L1316.37 1568.04 L1316.37 1546.72 Q1316.37 1541.59 1314.56 1539.11 Q1312.74 1536.63 1309.02 1536.63 Q1304.47 1536.63 1301.83 1539.65 Q1299.19 1542.68 1299.19 1547.9 L1299.19 1568.04 L1293.3 1568.04 L1293.3 1546.72 Q1293.3 1541.56 1291.48 1539.11 Q1289.67 1536.63 1285.88 1536.63 Q1281.39 1536.63 1278.75 1539.68 Q1276.11 1542.71 1276.11 1547.9 L1276.11 1568.04 L1270.22 1568.04 L1270.22 1532.4 L1276.11 1532.4 L1276.11 1537.93 Q1278.12 1534.66 1280.92 1533.1 Q1283.72 1531.54 1287.57 1531.54 Q1291.45 1531.54 1294.16 1533.51 Q1296.89 1535.48 1298.2 1539.24 Z" fill="#000000" fill-rule="nonzero" fill-opacity="1" /><path clip-path="url(#clip660)" d="M1364.43 1548.76 L1364.43 1551.62 L1337.51 1551.62 Q1337.89 1557.67 1341.14 1560.85 Q1344.41 1564 1350.24 1564 Q1353.61 1564 1356.76 1563.17 Q1359.95 1562.35 1363.07 1560.69 L1363.07 1566.23 Q1359.91 1567.57 1356.6 1568.27 Q1353.29 1568.97 1349.89 1568.97 Q1341.36 1568.97 1336.36 1564 Q1331.4 1559.04 1331.4 1550.57 Q1331.4 1541.82 1336.11 1536.69 Q1340.85 1531.54 1348.87 1531.54 Q1356.06 1531.54 1360.23 1536.18 Q1364.43 1540.8 1364.43 1548.76 M1358.58 1547.04 Q1358.51 1542.23 1355.87 1539.37 Q1353.26 1536.5 1348.93 1536.5 Q1344.03 1536.5 1341.07 1539.27 Q1338.14 1542.04 1337.7 1547.07 L1358.58 1547.04 Z" fill="#000000" fill-rule="nonzero" fill-opacity="1" /><polyline clip-path="url(#clip660)" style="stroke:#000000; stroke-linecap:round; stroke-linejoin:round; stroke-width:4; stroke-opacity:1; fill:none" points="219.866,1423.18 219.866,47.2441 "/>
<polyline clip-path="url(#clip660)" style="stroke:#000000; stroke-linecap:round; stroke-linejoin:round; stroke-width:4; stroke-opacity:1; fill:none" points="219.866,1423.18 238.764,1423.18 "/>
<polyline clip-path="url(#clip660)" style="stroke:#000000; stroke-linecap:round; stroke-linejoin:round; stroke-width:4; stroke-opacity:1; fill:none" points="219.866,1169.79 238.764,1169.79 "/>
<polyline clip-path="url(#clip660)" style="stroke:#000000; stroke-linecap:round; stroke-linejoin:round; stroke-width:4; stroke-opacity:1; fill:none" points="219.866,916.392 238.764,916.392 "/>
<polyline clip-path="url(#clip660)" style="stroke:#000000; stroke-linecap:round; stroke-linejoin:round; stroke-width:4; stroke-opacity:1; fill:none" points="219.866,662.998 238.764,662.998 "/>
<polyline clip-path="url(#clip660)" style="stroke:#000000; stroke-linecap:round; stroke-linejoin:round; stroke-width:4; stroke-opacity:1; fill:none" points="219.866,409.604 238.764,409.604 "/>
<polyline clip-path="url(#clip660)" style="stroke:#000000; stroke-linecap:round; stroke-linejoin:round; stroke-width:4; stroke-opacity:1; fill:none" points="219.866,156.211 238.764,156.211 "/>
<path clip-path="url(#clip660)" d="M126.691 1408.98 Q123.08 1408.98 121.251 1412.54 Q119.445 1416.08 119.445 1423.21 Q119.445 1430.32 121.251 1433.89 Q123.08 1437.43 126.691 1437.43 Q130.325 1437.43 132.13 1433.89 Q133.959 1430.32 133.959 1423.21 Q133.959 1416.08 132.13 1412.54 Q130.325 1408.98 126.691 1408.98 M126.691 1405.27 Q132.501 1405.27 135.556 1409.88 Q138.635 1414.46 138.635 1423.21 Q138.635 1431.94 135.556 1436.55 Q132.501 1441.13 126.691 1441.13 Q120.88 1441.13 117.802 1436.55 Q114.746 1431.94 114.746 1423.21 Q114.746 1414.46 117.802 1409.88 Q120.88 1405.27 126.691 1405.27 Z" fill="#000000" fill-rule="nonzero" fill-opacity="1" /><path clip-path="url(#clip660)" d="M146.853 1434.58 L151.737 1434.58 L151.737 1440.46 L146.853 1440.46 L146.853 1434.58 Z" fill="#000000" fill-rule="nonzero" fill-opacity="1" /><path clip-path="url(#clip660)" d="M171.922 1408.98 Q168.311 1408.98 166.482 1412.54 Q164.677 1416.08 164.677 1423.21 Q164.677 1430.32 166.482 1433.89 Q168.311 1437.43 171.922 1437.43 Q175.556 1437.43 177.362 1433.89 Q179.19 1430.32 179.19 1423.21 Q179.19 1416.08 177.362 1412.54 Q175.556 1408.98 171.922 1408.98 M171.922 1405.27 Q177.732 1405.27 180.788 1409.88 Q183.866 1414.46 183.866 1423.21 Q183.866 1431.94 180.788 1436.55 Q177.732 1441.13 171.922 1441.13 Q166.112 1441.13 163.033 1436.55 Q159.978 1431.94 159.978 1423.21 Q159.978 1414.46 163.033 1409.88 Q166.112 1405.27 171.922 1405.27 Z" fill="#000000" fill-rule="nonzero" fill-opacity="1" /><path clip-path="url(#clip660)" d="M127.917 1155.58 Q124.306 1155.58 122.478 1159.15 Q120.672 1162.69 120.672 1169.82 Q120.672 1176.93 122.478 1180.49 Q124.306 1184.03 127.917 1184.03 Q131.552 1184.03 133.357 1180.49 Q135.186 1176.93 135.186 1169.82 Q135.186 1162.69 133.357 1159.15 Q131.552 1155.58 127.917 1155.58 M127.917 1151.88 Q133.728 1151.88 136.783 1156.49 Q139.862 1161.07 139.862 1169.82 Q139.862 1178.55 136.783 1183.15 Q133.728 1187.74 127.917 1187.74 Q122.107 1187.74 119.029 1183.15 Q115.973 1178.55 115.973 1169.82 Q115.973 1161.07 119.029 1156.49 Q122.107 1151.88 127.917 1151.88 Z" fill="#000000" fill-rule="nonzero" fill-opacity="1" /><path clip-path="url(#clip660)" d="M148.079 1181.19 L152.964 1181.19 L152.964 1187.07 L148.079 1187.07 L148.079 1181.19 Z" fill="#000000" fill-rule="nonzero" fill-opacity="1" /><path clip-path="url(#clip660)" d="M163.959 1183.13 L171.598 1183.13 L171.598 1156.77 L163.288 1158.43 L163.288 1154.17 L171.552 1152.51 L176.227 1152.51 L176.227 1183.13 L183.866 1183.13 L183.866 1187.07 L163.959 1187.07 L163.959 1183.13 Z" fill="#000000" fill-rule="nonzero" fill-opacity="1" /><path clip-path="url(#clip660)" d="M128.288 902.191 Q124.677 902.191 122.848 905.756 Q121.043 909.297 121.043 916.427 Q121.043 923.533 122.848 927.098 Q124.677 930.64 128.288 930.64 Q131.922 930.64 133.728 927.098 Q135.556 923.533 135.556 916.427 Q135.556 909.297 133.728 905.756 Q131.922 902.191 128.288 902.191 M128.288 898.487 Q134.098 898.487 137.154 903.094 Q140.232 907.677 140.232 916.427 Q140.232 925.154 137.154 929.76 Q134.098 934.343 128.288 934.343 Q122.478 934.343 119.399 929.76 Q116.343 925.154 116.343 916.427 Q116.343 907.677 119.399 903.094 Q122.478 898.487 128.288 898.487 Z" fill="#000000" fill-rule="nonzero" fill-opacity="1" /><path clip-path="url(#clip660)" d="M148.45 927.793 L153.334 927.793 L153.334 933.672 L148.45 933.672 L148.45 927.793 Z" fill="#000000" fill-rule="nonzero" fill-opacity="1" /><path clip-path="url(#clip660)" d="M167.547 929.737 L183.866 929.737 L183.866 933.672 L161.922 933.672 L161.922 929.737 Q164.584 926.982 169.167 922.353 Q173.774 917.7 174.954 916.357 Q177.2 913.834 178.079 912.098 Q178.982 910.339 178.982 908.649 Q178.982 905.895 177.038 904.158 Q175.116 902.422 172.014 902.422 Q169.815 902.422 167.362 903.186 Q164.931 903.95 162.153 905.501 L162.153 900.779 Q164.977 899.645 167.431 899.066 Q169.885 898.487 171.922 898.487 Q177.292 898.487 180.487 901.172 Q183.681 903.857 183.681 908.348 Q183.681 910.478 182.871 912.399 Q182.084 914.297 179.977 916.89 Q179.399 917.561 176.297 920.779 Q173.195 923.973 167.547 929.737 Z" fill="#000000" fill-rule="nonzero" fill-opacity="1" /><path clip-path="url(#clip660)" d="M127.339 648.797 Q123.728 648.797 121.899 652.362 Q120.093 655.903 120.093 663.033 Q120.093 670.139 121.899 673.704 Q123.728 677.246 127.339 677.246 Q130.973 677.246 132.779 673.704 Q134.607 670.139 134.607 663.033 Q134.607 655.903 132.779 652.362 Q130.973 648.797 127.339 648.797 M127.339 645.093 Q133.149 645.093 136.204 649.7 Q139.283 654.283 139.283 663.033 Q139.283 671.76 136.204 676.366 Q133.149 680.95 127.339 680.95 Q121.529 680.95 118.45 676.366 Q115.394 671.76 115.394 663.033 Q115.394 654.283 118.45 649.7 Q121.529 645.093 127.339 645.093 Z" fill="#000000" fill-rule="nonzero" fill-opacity="1" /><path clip-path="url(#clip660)" d="M147.501 674.399 L152.385 674.399 L152.385 680.278 L147.501 680.278 L147.501 674.399 Z" fill="#000000" fill-rule="nonzero" fill-opacity="1" /><path clip-path="url(#clip660)" d="M176.737 661.644 Q180.093 662.362 181.968 664.63 Q183.866 666.899 183.866 670.232 Q183.866 675.348 180.348 678.149 Q176.829 680.95 170.348 680.95 Q168.172 680.95 165.857 680.51 Q163.565 680.093 161.112 679.237 L161.112 674.723 Q163.056 675.857 165.371 676.436 Q167.686 677.014 170.209 677.014 Q174.607 677.014 176.899 675.278 Q179.214 673.542 179.214 670.232 Q179.214 667.177 177.061 665.464 Q174.931 663.727 171.112 663.727 L167.084 663.727 L167.084 659.885 L171.297 659.885 Q174.746 659.885 176.575 658.519 Q178.403 657.13 178.403 654.538 Q178.403 651.876 176.505 650.464 Q174.63 649.028 171.112 649.028 Q169.19 649.028 166.991 649.445 Q164.792 649.862 162.153 650.741 L162.153 646.575 Q164.815 645.834 167.13 645.464 Q169.468 645.093 171.528 645.093 Q176.852 645.093 179.954 647.524 Q183.056 649.931 183.056 654.052 Q183.056 656.922 181.413 658.913 Q179.769 660.88 176.737 661.644 Z" fill="#000000" fill-rule="nonzero" fill-opacity="1" /><path clip-path="url(#clip660)" d="M126.205 395.403 Q122.593 395.403 120.765 398.968 Q118.959 402.51 118.959 409.639 Q118.959 416.746 120.765 420.31 Q122.593 423.852 126.205 423.852 Q129.839 423.852 131.644 420.31 Q133.473 416.746 133.473 409.639 Q133.473 402.51 131.644 398.968 Q129.839 395.403 126.205 395.403 M126.205 391.699 Q132.015 391.699 135.07 396.306 Q138.149 400.889 138.149 409.639 Q138.149 418.366 135.07 422.972 Q132.015 427.556 126.205 427.556 Q120.394 427.556 117.316 422.972 Q114.26 418.366 114.26 409.639 Q114.26 400.889 117.316 396.306 Q120.394 391.699 126.205 391.699 Z" fill="#000000" fill-rule="nonzero" fill-opacity="1" /><path clip-path="url(#clip660)" d="M146.366 421.005 L151.251 421.005 L151.251 426.884 L146.366 426.884 L146.366 421.005 Z" fill="#000000" fill-rule="nonzero" fill-opacity="1" /><path clip-path="url(#clip660)" d="M174.283 396.398 L162.477 414.847 L174.283 414.847 L174.283 396.398 M173.056 392.324 L178.936 392.324 L178.936 414.847 L183.866 414.847 L183.866 418.736 L178.936 418.736 L178.936 426.884 L174.283 426.884 L174.283 418.736 L158.681 418.736 L158.681 414.222 L173.056 392.324 Z" fill="#000000" fill-rule="nonzero" fill-opacity="1" /><path clip-path="url(#clip660)" d="M127.686 142.009 Q124.075 142.009 122.246 145.574 Q120.441 149.116 120.441 156.245 Q120.441 163.352 122.246 166.917 Q124.075 170.458 127.686 170.458 Q131.32 170.458 133.126 166.917 Q134.954 163.352 134.954 156.245 Q134.954 149.116 133.126 145.574 Q131.32 142.009 127.686 142.009 M127.686 138.306 Q133.496 138.306 136.552 142.912 Q139.63 147.495 139.63 156.245 Q139.63 164.972 136.552 169.579 Q133.496 174.162 127.686 174.162 Q121.876 174.162 118.797 169.579 Q115.742 164.972 115.742 156.245 Q115.742 147.495 118.797 142.912 Q121.876 138.306 127.686 138.306 Z" fill="#000000" fill-rule="nonzero" fill-opacity="1" /><path clip-path="url(#clip660)" d="M147.848 167.611 L152.732 167.611 L152.732 173.491 L147.848 173.491 L147.848 167.611 Z" fill="#000000" fill-rule="nonzero" fill-opacity="1" /><path clip-path="url(#clip660)" d="M162.964 138.931 L181.32 138.931 L181.32 142.866 L167.246 142.866 L167.246 151.338 Q168.264 150.991 169.283 150.829 Q170.302 150.643 171.32 150.643 Q177.107 150.643 180.487 153.815 Q183.866 156.986 183.866 162.403 Q183.866 167.981 180.394 171.083 Q176.922 174.162 170.602 174.162 Q168.427 174.162 166.158 173.792 Q163.913 173.421 161.505 172.68 L161.505 167.981 Q163.589 169.116 165.811 169.671 Q168.033 170.227 170.51 170.227 Q174.514 170.227 176.852 168.12 Q179.19 166.014 179.19 162.403 Q179.19 158.792 176.852 156.685 Q174.514 154.579 170.51 154.579 Q168.635 154.579 166.76 154.995 Q164.908 155.412 162.964 156.292 L162.964 138.931 Z" fill="#000000" fill-rule="nonzero" fill-opacity="1" /><path clip-path="url(#clip660)" d="M41.7242 776.939 Q42.4244 774.87 44.7161 772.929 Q47.0077 770.955 51.0181 768.982 L64.0042 762.457 L64.0042 769.364 L51.8138 775.443 Q47.0395 777.799 45.48 780.027 Q43.9204 782.223 43.9204 786.042 L43.9204 793.044 L64.0042 793.044 L64.0042 799.474 L16.4842 799.474 L16.4842 784.96 Q16.4842 776.812 19.8898 772.801 Q23.2955 768.791 30.1704 768.791 Q34.6582 768.791 37.6183 770.892 Q40.5784 772.961 41.7242 776.939 M21.7677 793.044 L38.6368 793.044 L38.6368 784.96 Q38.6368 780.313 36.5043 777.958 Q34.34 775.571 30.1704 775.571 Q26.0009 775.571 23.9002 777.958 Q21.7677 780.313 21.7677 784.96 L21.7677 793.044 Z" fill="#000000" fill-rule="nonzero" fill-opacity="1" /><path clip-path="url(#clip660)" d="M28.3562 754.436 L28.3562 748.58 L64.0042 748.58 L64.0042 754.436 L28.3562 754.436 M14.479 754.436 L14.479 748.58 L21.895 748.58 L21.895 754.436 L14.479 754.436 Z" fill="#000000" fill-rule="nonzero" fill-opacity="1" /><path clip-path="url(#clip660)" d="M29.4065 713.6 L34.9447 713.6 Q33.6716 716.083 33.035 718.757 Q32.3984 721.43 32.3984 724.295 Q32.3984 728.655 33.7352 730.851 Q35.072 733.016 37.7456 733.016 Q39.7826 733.016 40.9603 731.456 Q42.1061 729.897 43.1565 725.186 L43.6021 723.181 Q44.9389 716.942 47.3897 714.332 Q49.8086 711.691 54.1691 711.691 Q59.1344 711.691 62.0308 715.637 Q64.9272 719.552 64.9272 726.427 Q64.9272 729.292 64.3543 732.411 Q63.8132 735.498 62.6992 738.936 L56.6518 738.936 Q58.3387 735.689 59.198 732.538 Q60.0256 729.387 60.0256 726.3 Q60.0256 722.162 58.6251 719.934 Q57.1929 717.706 54.6147 717.706 Q52.2276 717.706 50.9545 719.33 Q49.6813 720.921 48.5037 726.364 L48.0262 728.401 Q46.8804 733.843 44.5251 736.262 Q42.138 738.681 38.0002 738.681 Q32.9713 738.681 30.2341 735.116 Q27.4968 731.552 27.4968 724.995 Q27.4968 721.748 27.9743 718.884 Q28.4517 716.019 29.4065 713.6 Z" fill="#000000" fill-rule="nonzero" fill-opacity="1" /><path clip-path="url(#clip660)" d="M14.479 702.588 L14.479 696.699 L43.7294 696.699 L28.3562 679.226 L28.3562 671.746 L45.0344 690.652 L64.0042 670.95 L64.0042 678.589 L46.5939 696.699 L64.0042 696.699 L64.0042 702.588 L14.479 702.588 Z" fill="#000000" fill-rule="nonzero" fill-opacity="1" /><polyline clip-path="url(#clip662)" style="stroke:#009af9; stroke-linecap:round; stroke-linejoin:round; stroke-width:4; stroke-opacity:1; fill:none" points="219.866,1423.18 224.546,1423.18 224.546,1404.64 227.958,1404.64 227.958,1358.8 231.371,1358.8 243.529,1358.8 256.966,1358.8 256.966,1341.79 274.029,1341.79 281.281,1341.79 281.281,1335.05 283.414,1335.05 346.761,1335.05 346.761,1302.03 349.96,1302.03 349.96,1288.85 377.902,1288.85 377.902,1279.27 410.108,1279.27 410.108,1246.14 420.346,1246.14 420.346,1226.32 429.518,1226.32 448.714,1226.32 448.714,1224.66 471.109,1224.66 493.078,1224.66 493.078,1198.21 499.904,1198.21 514.621,1198.21 518.673,1198.21 518.673,1194.31 527.631,1194.31 527.631,1166.25 538.936,1166.25 563.891,1166.25 563.891,1157.37 566.663,1157.37 596.737,1157.37 596.737,1145.86 599.937,1145.86 599.937,1140.17 613.587,1140.17 613.587,1117 645.154,1117 661.364,1117 670.749,1117 670.749,1099.2 675.655,1099.2 675.655,1080.54 683.12,1080.54 683.12,1072.32 694.211,1072.32 694.211,1070.93 700.823,1070.93 700.823,1054.08 765.237,1054.08 797.657,1054.08 816,1054.08 844.794,1054.08 844.794,1026.92 868.896,1026.92 870.602,1026.92 870.602,999.629 919.232,999.629 961.25,999.629 961.25,984.79 963.597,984.79 963.597,968.034 984.712,968.034 984.712,956.982 997.723,956.982 1010.52,956.982 1016.49,956.982 1017.13,956.982 1025.02,956.982 1027.16,956.982 1028.86,956.982 1067.04,956.982 1067.04,940.354 1073.87,940.354 1073.87,920.541 1083.47,920.541 1083.47,899.034 1121.86,899.034 1131.03,899.034 1131.03,897.237 1150.44,897.237 1151.29,897.237 1169,897.237 1196.3,897.237 1196.3,885.013 1208.67,885.013 1251.75,885.013 1251.75,884.526 1283.53,884.526 1306.35,884.526 1306.35,878.55 1328.11,878.55 1328.11,867.916 1341.97,867.916 1342.83,867.916 1355.41,867.916 1365.22,867.916 1382.5,867.916 1388.68,867.916 1396.15,867.916 1396.15,867.443 1410.44,867.443 1456.72,867.443 1456.72,859.575 1460.78,859.575 1460.78,847.453 1509.41,847.453 1509.41,843.458 1510.26,843.458 1510.26,828.136 1529.67,828.136 1529.67,821.143 1543.53,821.143 1547.37,821.143 1585.34,821.143 1585.34,805.084 1604.11,805.084 1665.96,805.084 1689.64,805.084 1689.64,801.691 1693.26,801.691 1714.38,801.691 1714.38,801.669 1724.19,801.669 1733.79,801.669 1756.82,801.669 1783.06,801.669 1791.38,801.669 1791.38,794.173 1793.94,794.173 1803.75,794.173 1857.5,794.173 1871.15,794.173 1915.3,794.173 1921.06,794.173 1921.91,794.173 1921.91,784.432 1941.53,784.432 1941.53,776.349 1958.17,776.349 1958.17,775.604 1963.29,775.604 1963.29,773.747 1992.08,773.747 2008.51,773.747 2048.18,773.747 2048.18,771.192 2150.34,771.192 2150.34,765.037 2179.78,765.037 2179.78,763.022 2352.76,763.022 "/>
<polyline clip-path="url(#clip662)" style="stroke:#e26f46; stroke-linecap:round; stroke-linejoin:round; stroke-width:4; stroke-opacity:1; fill:none" points="219.866,1423.18 224.546,1423.18 227.958,1423.18 231.371,1423.18 231.371,1194.24 243.529,1194.24 243.529,1166.13 256.966,1166.13 274.029,1166.13 274.029,1104.4 281.281,1104.4 283.414,1104.4 283.414,1098.41 346.761,1098.41 349.96,1098.41 377.902,1098.41 410.108,1098.41 420.346,1098.41 429.518,1098.41 429.518,1040.21 448.714,1040.21 471.109,1040.21 471.109,1014.65 493.078,1014.65 499.904,1014.65 499.904,989.665 514.621,989.665 514.621,974.929 518.673,974.929 527.631,974.929 538.936,974.929 538.936,943.918 563.891,943.918 566.663,943.918 566.663,927.922 596.737,927.922 599.937,927.922 613.587,927.922 645.154,927.922 645.154,896.118 661.364,896.118 661.364,880.131 670.749,880.131 675.655,880.131 683.12,880.131 694.211,880.131 700.823,880.131 765.237,880.131 765.237,847.844 797.657,847.844 797.657,828.212 816,828.212 816,818.485 844.794,818.485 868.896,818.485 868.896,800.205 870.602,800.205 919.232,800.205 919.232,785.717 961.25,785.717 963.597,785.717 984.712,785.717 997.723,785.717 997.723,740.621 1010.52,740.621 1010.52,695.149 1016.49,695.149 1016.49,663.818 1017.13,663.818 1017.13,628.053 1025.02,628.053 1025.02,598.569 1027.16,598.569 1027.16,573.241 1028.86,573.241 1028.86,546.579 1067.04,546.579 1073.87,546.579 1083.47,546.579 1121.86,546.579 1121.86,510.515 1131.03,510.515 1150.44,510.515 1150.44,494.447 1151.29,494.447 1151.29,490.7 1169,490.7 1169,464.175 1196.3,464.175 1208.67,464.175 1208.67,434.694 1251.75,434.694 1283.53,434.694 1283.53,402.317 1306.35,402.317 1328.11,402.317 1341.97,402.317 1341.97,401.748 1342.83,401.748 1342.83,395.935 1355.41,395.935 1355.41,364.411 1365.22,364.411 1365.22,360.944 1382.5,360.944 1382.5,329.395 1388.68,329.395 1388.68,301.395 1396.15,301.395 1410.44,301.395 1410.44,294.275 1456.72,294.275 1460.78,294.275 1509.41,294.275 1510.26,294.275 1529.67,294.275 1543.53,294.275 1543.53,290.219 1547.37,290.219 1547.37,287.744 1585.34,287.744 1604.11,287.744 1604.11,282.418 1665.96,282.418 1665.96,257.437 1689.64,257.437 1693.26,257.437 1693.26,241.395 1714.38,241.395 1724.19,241.395 1724.19,235.031 1733.79,235.031 1733.79,208.828 1756.82,208.828 1756.82,184.847 1783.06,184.847 1783.06,169.864 1791.38,169.864 1793.94,169.864 1793.94,149.991 1803.75,149.991 1803.75,139.692 1857.5,139.692 1857.5,134.003 1871.15,134.003 1871.15,125.811 1915.3,125.811 1915.3,105.12 1921.06,105.12 1921.06,82.182 1921.91,82.182 1941.53,82.182 1958.17,82.182 1963.29,82.182 1992.08,82.182 1992.08,69.1534 2008.51,69.1534 2008.51,47.2441 2048.18,47.2441 2150.34,47.2441 2179.78,47.2441 2352.76,47.2441 "/>
<path clip-path="url(#clip660)" d="M290.963 248.629 L526.196 248.629 L526.196 93.1086 L290.963 93.1086  Z" fill="#ffffff" fill-rule="evenodd" fill-opacity="1"/>
<polyline clip-path="url(#clip660)" style="stroke:#000000; stroke-linecap:round; stroke-linejoin:round; stroke-width:4; stroke-opacity:1; fill:none" points="290.963,248.629 526.196,248.629 526.196,93.1086 290.963,93.1086 290.963,248.629 "/>
<polyline clip-path="url(#clip660)" style="stroke:#009af9; stroke-linecap:round; stroke-linejoin:round; stroke-width:4; stroke-opacity:1; fill:none" points="314.661,144.949 456.854,144.949 "/>
<path clip-path="url(#clip660)" d="M481.224 158.293 L488.863 158.293 L488.863 131.928 L480.553 133.595 L480.553 129.335 L488.817 127.669 L493.493 127.669 L493.493 158.293 L501.131 158.293 L501.131 162.229 L481.224 162.229 L481.224 158.293 Z" fill="#000000" fill-rule="nonzero" fill-opacity="1" /><polyline clip-path="url(#clip660)" style="stroke:#e26f46; stroke-linecap:round; stroke-linejoin:round; stroke-width:4; stroke-opacity:1; fill:none" points="314.661,196.789 456.854,196.789 "/>
<path clip-path="url(#clip660)" d="M486.178 210.133 L502.497 210.133 L502.497 214.069 L480.553 214.069 L480.553 210.133 Q483.215 207.379 487.798 202.749 Q492.405 198.096 493.585 196.754 Q495.83 194.231 496.71 192.495 Q497.613 190.735 497.613 189.046 Q497.613 186.291 495.668 184.555 Q493.747 182.819 490.645 182.819 Q488.446 182.819 485.993 183.583 Q483.562 184.347 480.784 185.897 L480.784 181.175 Q483.608 180.041 486.062 179.462 Q488.516 178.884 490.553 178.884 Q495.923 178.884 499.117 181.569 Q502.312 184.254 502.312 188.745 Q502.312 190.874 501.502 192.796 Q500.715 194.694 498.608 197.286 Q498.03 197.958 494.928 201.175 Q491.826 204.37 486.178 210.133 Z" fill="#000000" fill-rule="nonzero" fill-opacity="1" /></svg>
