<?xml version="1.0" encoding="utf-8"?>
<svg xmlns="http://www.w3.org/2000/svg" xmlns:xlink="http://www.w3.org/1999/xlink" width="600" height="400" viewBox="0 0 2400 1600">
<defs>
  <clipPath id="clip060">
    <rect x="0" y="0" width="2400" height="1600"/>
  </clipPath>
</defs>
<path clip-path="url(#clip060)" d="M0 1600 L2400 1600 L2400 0 L0 0  Z" fill="#ffffff" fill-rule="evenodd" fill-opacity="1"/>
<defs>
  <clipPath id="clip061">
    <rect x="480" y="0" width="1681" height="1600"/>
  </clipPath>
</defs>
<path clip-path="url(#clip060)" d="M257.204 1423.18 L2352.76 1423.18 L2352.76 47.2441 L257.204 47.2441  Z" fill="#ffffff" fill-rule="evenodd" fill-opacity="1"/>
<defs>
  <clipPath id="clip062">
    <rect x="257" y="47" width="2097" height="1377"/>
  </clipPath>
</defs>
<polyline clip-path="url(#clip062)" style="stroke:#000000; stroke-linecap:round; stroke-linejoin:round; stroke-width:2; stroke-opacity:0.1; fill:none" points="287.922,1423.18 287.922,47.2441 "/>
<polyline clip-path="url(#clip062)" style="stroke:#000000; stroke-linecap:round; stroke-linejoin:round; stroke-width:2; stroke-opacity:0.1; fill:none" points="773.033,1423.18 773.033,47.2441 "/>
<polyline clip-path="url(#clip062)" style="stroke:#000000; stroke-linecap:round; stroke-linejoin:round; stroke-width:2; stroke-opacity:0.1; fill:none" points="1258.14,1423.18 1258.14,47.2441 "/>
<polyline clip-path="url(#clip062)" style="stroke:#000000; stroke-linecap:round; stroke-linejoin:round; stroke-width:2; stroke-opacity:0.1; fill:none" points="1743.26,1423.18 1743.26,47.2441 "/>
<polyline clip-path="url(#clip062)" style="stroke:#000000; stroke-linecap:round; stroke-linejoin:round; stroke-width:2; stroke-opacity:0.1; fill:none" points="2228.37,1423.18 2228.37,47.2441 "/>
<polyline clip-path="url(#clip060)" style="stroke:#000000; stroke-linecap:round; stroke-linejoin:round; stroke-width:4; stroke-opacity:1; fill:none" points="257.204,1423.18 2352.76,1423.18 "/>
<polyline clip-path="url(#clip060)" style="stroke:#000000; stroke-linecap:round; stroke-linejoin:round; stroke-width:4; stroke-opacity:1; fill:none" points="287.922,1423.18 287.922,1404.28 "/>
<polyline clip-path="url(#clip060)" style="stroke:#000000; stroke-linecap:round; stroke-linejoin:round; stroke-width:4; stroke-opacity:1; fill:none" points="773.033,1423.18 773.033,1404.28 "/>
<polyline clip-path="url(#clip060)" style="stroke:#000000; stroke-linecap:round; stroke-linejoin:round; stroke-width:4; stroke-opacity:1; fill:none" points="1258.14,1423.18 1258.14,1404.28 "/>
<polyline clip-path="url(#clip060)" style="stroke:#000000; stroke-linecap:round; stroke-linejoin:round; stroke-width:4; stroke-opacity:1; fill:none" points="1743.26,1423.18 1743.26,1404.28 "/>
<polyline clip-path="url(#clip060)" style="stroke:#000000; stroke-linecap:round; stroke-linejoin:round; stroke-width:4; stroke-opacity:1; fill:none" points="2228.37,1423.18 2228.37,1404.28 "/>
<path clip-path="url(#clip060)" d="M235.144 1454.1 Q231.533 1454.1 229.704 1457.66 Q227.899 1461.2 227.899 1468.33 Q227.899 1475.44 229.704 1479.01 Q231.533 1482.55 235.144 1482.55 Q238.778 1482.55 240.584 1479.01 Q242.413 1475.44 242.413 1468.33 Q242.413 1461.2 240.584 1457.66 Q238.778 1454.1 235.144 1454.1 M235.144 1450.39 Q240.954 1450.39 244.01 1455 Q247.088 1459.58 247.088 1468.33 Q247.088 1477.06 244.01 1481.67 Q240.954 1486.25 235.144 1486.25 Q229.334 1486.25 226.255 1481.67 Q223.2 1477.06 223.2 1468.33 Q223.2 1459.58 226.255 1455 Q229.334 1450.39 235.144 1450.39 Z" fill="#000000" fill-rule="nonzero" fill-opacity="1" /><path clip-path="url(#clip060)" d="M255.306 1479.7 L260.19 1479.7 L260.19 1485.58 L255.306 1485.58 L255.306 1479.7 Z" fill="#000000" fill-rule="nonzero" fill-opacity="1" /><path clip-path="url(#clip060)" d="M280.375 1454.1 Q276.764 1454.1 274.936 1457.66 Q273.13 1461.2 273.13 1468.33 Q273.13 1475.44 274.936 1479.01 Q276.764 1482.55 280.375 1482.55 Q284.01 1482.55 285.815 1479.01 Q287.644 1475.44 287.644 1468.33 Q287.644 1461.2 285.815 1457.66 Q284.01 1454.1 280.375 1454.1 M280.375 1450.39 Q286.185 1450.39 289.241 1455 Q292.32 1459.58 292.32 1468.33 Q292.32 1477.06 289.241 1481.67 Q286.185 1486.25 280.375 1486.25 Q274.565 1486.25 271.487 1481.67 Q268.431 1477.06 268.431 1468.33 Q268.431 1459.58 271.487 1455 Q274.565 1450.39 280.375 1450.39 Z" fill="#000000" fill-rule="nonzero" fill-opacity="1" /><path clip-path="url(#clip060)" d="M310.537 1454.1 Q306.926 1454.1 305.097 1457.66 Q303.292 1461.2 303.292 1468.33 Q303.292 1475.44 305.097 1479.01 Q306.926 1482.55 310.537 1482.55 Q314.171 1482.55 315.977 1479.01 Q317.806 1475.44 317.806 1468.33 Q317.806 1461.2 315.977 1457.66 Q314.171 1454.1 310.537 1454.1 M310.537 1450.39 Q316.347 1450.39 319.403 1455 Q322.482 1459.58 322.482 1468.33 Q322.482 1477.06 319.403 1481.67 Q316.347 1486.25 310.537 1486.25 Q304.727 1486.25 301.648 1481.67 Q298.593 1477.06 298.593 1468.33 Q298.593 1459.58 301.648 1455 Q304.727 1450.39 310.537 1450.39 Z" fill="#000000" fill-rule="nonzero" fill-opacity="1" /><path clip-path="url(#clip060)" d="M340.699 1454.1 Q337.088 1454.1 335.259 1457.66 Q333.454 1461.2 333.454 1468.33 Q333.454 1475.44 335.259 1479.01 Q337.088 1482.55 340.699 1482.55 Q344.333 1482.55 346.139 1479.01 Q347.968 1475.44 347.968 1468.33 Q347.968 1461.2 346.139 1457.66 Q344.333 1454.1 340.699 1454.1 M340.699 1450.39 Q346.509 1450.39 349.565 1455 Q352.643 1459.58 352.643 1468.33 Q352.643 1477.06 349.565 1481.67 Q346.509 1486.25 340.699 1486.25 Q334.889 1486.25 331.81 1481.67 Q328.755 1477.06 328.755 1468.33 Q328.755 1459.58 331.81 1455 Q334.889 1450.39 340.699 1450.39 Z" fill="#000000" fill-rule="nonzero" fill-opacity="1" /><path clip-path="url(#clip060)" d="M720.753 1454.1 Q717.142 1454.1 715.314 1457.66 Q713.508 1461.2 713.508 1468.33 Q713.508 1475.44 715.314 1479.01 Q717.142 1482.55 720.753 1482.55 Q724.388 1482.55 726.193 1479.01 Q728.022 1475.44 728.022 1468.33 Q728.022 1461.2 726.193 1457.66 Q724.388 1454.1 720.753 1454.1 M720.753 1450.39 Q726.563 1450.39 729.619 1455 Q732.698 1459.58 732.698 1468.33 Q732.698 1477.06 729.619 1481.67 Q726.563 1486.25 720.753 1486.25 Q714.943 1486.25 711.864 1481.67 Q708.809 1477.06 708.809 1468.33 Q708.809 1459.58 711.864 1455 Q714.943 1450.39 720.753 1450.39 Z" fill="#000000" fill-rule="nonzero" fill-opacity="1" /><path clip-path="url(#clip060)" d="M740.915 1479.7 L745.799 1479.7 L745.799 1485.58 L740.915 1485.58 L740.915 1479.7 Z" fill="#000000" fill-rule="nonzero" fill-opacity="1" /><path clip-path="url(#clip060)" d="M765.985 1454.1 Q762.373 1454.1 760.545 1457.66 Q758.739 1461.2 758.739 1468.33 Q758.739 1475.44 760.545 1479.01 Q762.373 1482.55 765.985 1482.55 Q769.619 1482.55 771.424 1479.01 Q773.253 1475.44 773.253 1468.33 Q773.253 1461.2 771.424 1457.66 Q769.619 1454.1 765.985 1454.1 M765.985 1450.39 Q771.795 1450.39 774.85 1455 Q777.929 1459.58 777.929 1468.33 Q777.929 1477.06 774.85 1481.67 Q771.795 1486.25 765.985 1486.25 Q760.174 1486.25 757.096 1481.67 Q754.04 1477.06 754.04 1468.33 Q754.04 1459.58 757.096 1455 Q760.174 1450.39 765.985 1450.39 Z" fill="#000000" fill-rule="nonzero" fill-opacity="1" /><path clip-path="url(#clip060)" d="M790.174 1481.64 L806.494 1481.64 L806.494 1485.58 L784.549 1485.58 L784.549 1481.64 Q787.211 1478.89 791.795 1474.26 Q796.401 1469.61 797.582 1468.27 Q799.827 1465.74 800.707 1464.01 Q801.609 1462.25 801.609 1460.56 Q801.609 1457.8 799.665 1456.07 Q797.744 1454.33 794.642 1454.33 Q792.443 1454.33 789.989 1455.09 Q787.559 1455.86 784.781 1457.41 L784.781 1452.69 Q787.605 1451.55 790.058 1450.97 Q792.512 1450.39 794.549 1450.39 Q799.92 1450.39 803.114 1453.08 Q806.308 1455.77 806.308 1460.26 Q806.308 1462.39 805.498 1464.31 Q804.711 1466.2 802.605 1468.8 Q802.026 1469.47 798.924 1472.69 Q795.822 1475.88 790.174 1481.64 Z" fill="#000000" fill-rule="nonzero" fill-opacity="1" /><path clip-path="url(#clip060)" d="M816.355 1451.02 L834.711 1451.02 L834.711 1454.96 L820.637 1454.96 L820.637 1463.43 Q821.656 1463.08 822.674 1462.92 Q823.693 1462.73 824.711 1462.73 Q830.498 1462.73 833.878 1465.9 Q837.257 1469.08 837.257 1474.49 Q837.257 1480.07 833.785 1483.17 Q830.313 1486.25 823.993 1486.25 Q821.818 1486.25 819.549 1485.88 Q817.304 1485.51 814.896 1484.77 L814.896 1480.07 Q816.98 1481.2 819.202 1481.76 Q821.424 1482.32 823.901 1482.32 Q827.906 1482.32 830.243 1480.21 Q832.581 1478.1 832.581 1474.49 Q832.581 1470.88 830.243 1468.77 Q827.906 1466.67 823.901 1466.67 Q822.026 1466.67 820.151 1467.08 Q818.299 1467.5 816.355 1468.38 L816.355 1451.02 Z" fill="#000000" fill-rule="nonzero" fill-opacity="1" /><path clip-path="url(#clip060)" d="M1205.37 1454.1 Q1201.76 1454.1 1199.93 1457.66 Q1198.12 1461.2 1198.12 1468.33 Q1198.12 1475.44 1199.93 1479.01 Q1201.76 1482.55 1205.37 1482.55 Q1209 1482.55 1210.81 1479.01 Q1212.64 1475.44 1212.64 1468.33 Q1212.64 1461.2 1210.81 1457.66 Q1209 1454.1 1205.37 1454.1 M1205.37 1450.39 Q1211.18 1450.39 1214.23 1455 Q1217.31 1459.58 1217.31 1468.33 Q1217.31 1477.06 1214.23 1481.67 Q1211.18 1486.25 1205.37 1486.25 Q1199.56 1486.25 1196.48 1481.67 Q1193.42 1477.06 1193.42 1468.33 Q1193.42 1459.58 1196.48 1455 Q1199.56 1450.39 1205.37 1450.39 Z" fill="#000000" fill-rule="nonzero" fill-opacity="1" /><path clip-path="url(#clip060)" d="M1225.53 1479.7 L1230.41 1479.7 L1230.41 1485.58 L1225.53 1485.58 L1225.53 1479.7 Z" fill="#000000" fill-rule="nonzero" fill-opacity="1" /><path clip-path="url(#clip060)" d="M1250.6 1454.1 Q1246.99 1454.1 1245.16 1457.66 Q1243.35 1461.2 1243.35 1468.33 Q1243.35 1475.44 1245.16 1479.01 Q1246.99 1482.55 1250.6 1482.55 Q1254.23 1482.55 1256.04 1479.01 Q1257.87 1475.44 1257.87 1468.33 Q1257.87 1461.2 1256.04 1457.66 Q1254.23 1454.1 1250.6 1454.1 M1250.6 1450.39 Q1256.41 1450.39 1259.46 1455 Q1262.54 1459.58 1262.54 1468.33 Q1262.54 1477.06 1259.46 1481.67 Q1256.41 1486.25 1250.6 1486.25 Q1244.79 1486.25 1241.71 1481.67 Q1238.65 1477.06 1238.65 1468.33 Q1238.65 1459.58 1241.71 1455 Q1244.79 1450.39 1250.6 1450.39 Z" fill="#000000" fill-rule="nonzero" fill-opacity="1" /><path clip-path="url(#clip060)" d="M1270.81 1451.02 L1289.16 1451.02 L1289.16 1454.96 L1275.09 1454.96 L1275.09 1463.43 Q1276.11 1463.08 1277.13 1462.92 Q1278.14 1462.73 1279.16 1462.73 Q1284.95 1462.73 1288.33 1465.9 Q1291.71 1469.08 1291.71 1474.49 Q1291.71 1480.07 1288.24 1483.17 Q1284.76 1486.25 1278.45 1486.25 Q1276.27 1486.25 1274 1485.88 Q1271.76 1485.51 1269.35 1484.77 L1269.35 1480.07 Q1271.43 1481.2 1273.65 1481.76 Q1275.88 1482.32 1278.35 1482.32 Q1282.36 1482.32 1284.7 1480.21 Q1287.03 1478.1 1287.03 1474.49 Q1287.03 1470.88 1284.7 1468.77 Q1282.36 1466.67 1278.35 1466.67 Q1276.48 1466.67 1274.6 1467.08 Q1272.75 1467.5 1270.81 1468.38 L1270.81 1451.02 Z" fill="#000000" fill-rule="nonzero" fill-opacity="1" /><path clip-path="url(#clip060)" d="M1310.92 1454.1 Q1307.31 1454.1 1305.48 1457.66 Q1303.68 1461.2 1303.68 1468.33 Q1303.68 1475.44 1305.48 1479.01 Q1307.31 1482.55 1310.92 1482.55 Q1314.56 1482.55 1316.36 1479.01 Q1318.19 1475.44 1318.19 1468.33 Q1318.19 1461.2 1316.36 1457.66 Q1314.56 1454.1 1310.92 1454.1 M1310.92 1450.39 Q1316.73 1450.39 1319.79 1455 Q1322.87 1459.58 1322.87 1468.33 Q1322.87 1477.06 1319.79 1481.67 Q1316.73 1486.25 1310.92 1486.25 Q1305.11 1486.25 1302.03 1481.67 Q1298.98 1477.06 1298.98 1468.33 Q1298.98 1459.58 1302.03 1455 Q1305.11 1450.39 1310.92 1450.39 Z" fill="#000000" fill-rule="nonzero" fill-opacity="1" /><path clip-path="url(#clip060)" d="M1690.98 1454.1 Q1687.37 1454.1 1685.54 1457.66 Q1683.73 1461.2 1683.73 1468.33 Q1683.73 1475.44 1685.54 1479.01 Q1687.37 1482.55 1690.98 1482.55 Q1694.61 1482.55 1696.42 1479.01 Q1698.24 1475.44 1698.24 1468.33 Q1698.24 1461.2 1696.42 1457.66 Q1694.61 1454.1 1690.98 1454.1 M1690.98 1450.39 Q1696.79 1450.39 1699.84 1455 Q1702.92 1459.58 1702.92 1468.33 Q1702.92 1477.06 1699.84 1481.67 Q1696.79 1486.25 1690.98 1486.25 Q1685.17 1486.25 1682.09 1481.67 Q1679.03 1477.06 1679.03 1468.33 Q1679.03 1459.58 1682.09 1455 Q1685.17 1450.39 1690.98 1450.39 Z" fill="#000000" fill-rule="nonzero" fill-opacity="1" /><path clip-path="url(#clip060)" d="M1711.14 1479.7 L1716.02 1479.7 L1716.02 1485.58 L1711.14 1485.58 L1711.14 1479.7 Z" fill="#000000" fill-rule="nonzero" fill-opacity="1" /><path clip-path="url(#clip060)" d="M1736.21 1454.1 Q1732.6 1454.1 1730.77 1457.66 Q1728.96 1461.2 1728.96 1468.33 Q1728.96 1475.44 1730.77 1479.01 Q1732.6 1482.55 1736.21 1482.55 Q1739.84 1482.55 1741.65 1479.01 Q1743.48 1475.44 1743.48 1468.33 Q1743.48 1461.2 1741.65 1457.66 Q1739.84 1454.1 1736.21 1454.1 M1736.21 1450.39 Q1742.02 1450.39 1745.07 1455 Q1748.15 1459.58 1748.15 1468.33 Q1748.15 1477.06 1745.07 1481.67 Q1742.02 1486.25 1736.21 1486.25 Q1730.4 1486.25 1727.32 1481.67 Q1724.26 1477.06 1724.26 1468.33 Q1724.26 1459.58 1727.32 1455 Q1730.4 1450.39 1736.21 1450.39 Z" fill="#000000" fill-rule="nonzero" fill-opacity="1" /><path clip-path="url(#clip060)" d="M1755.19 1451.02 L1777.41 1451.02 L1777.41 1453.01 L1764.86 1485.58 L1759.98 1485.58 L1771.79 1454.96 L1755.19 1454.96 L1755.19 1451.02 Z" fill="#000000" fill-rule="nonzero" fill-opacity="1" /><path clip-path="url(#clip060)" d="M1786.58 1451.02 L1804.93 1451.02 L1804.93 1454.96 L1790.86 1454.96 L1790.86 1463.43 Q1791.88 1463.08 1792.9 1462.92 Q1793.92 1462.73 1794.93 1462.73 Q1800.72 1462.73 1804.1 1465.9 Q1807.48 1469.08 1807.48 1474.49 Q1807.48 1480.07 1804.01 1483.17 Q1800.54 1486.25 1794.22 1486.25 Q1792.04 1486.25 1789.77 1485.88 Q1787.53 1485.51 1785.12 1484.77 L1785.12 1480.07 Q1787.2 1481.2 1789.42 1481.76 Q1791.65 1482.32 1794.12 1482.32 Q1798.13 1482.32 1800.47 1480.21 Q1802.8 1478.1 1802.8 1474.49 Q1802.8 1470.88 1800.47 1468.77 Q1798.13 1466.67 1794.12 1466.67 Q1792.25 1466.67 1790.37 1467.08 Q1788.52 1467.5 1786.58 1468.38 L1786.58 1451.02 Z" fill="#000000" fill-rule="nonzero" fill-opacity="1" /><path clip-path="url(#clip060)" d="M2175.59 1454.1 Q2171.98 1454.1 2170.15 1457.66 Q2168.34 1461.2 2168.34 1468.33 Q2168.34 1475.44 2170.15 1479.01 Q2171.98 1482.55 2175.59 1482.55 Q2179.22 1482.55 2181.03 1479.01 Q2182.86 1475.44 2182.86 1468.33 Q2182.86 1461.2 2181.03 1457.66 Q2179.22 1454.1 2175.59 1454.1 M2175.59 1450.39 Q2181.4 1450.39 2184.46 1455 Q2187.53 1459.58 2187.53 1468.33 Q2187.53 1477.06 2184.46 1481.67 Q2181.4 1486.25 2175.59 1486.25 Q2169.78 1486.25 2166.7 1481.67 Q2163.65 1477.06 2163.65 1468.33 Q2163.65 1459.58 2166.7 1455 Q2169.78 1450.39 2175.59 1450.39 Z" fill="#000000" fill-rule="nonzero" fill-opacity="1" /><path clip-path="url(#clip060)" d="M2195.75 1479.7 L2200.64 1479.7 L2200.64 1485.58 L2195.75 1485.58 L2195.75 1479.7 Z" fill="#000000" fill-rule="nonzero" fill-opacity="1" /><path clip-path="url(#clip060)" d="M2211.63 1481.64 L2219.27 1481.64 L2219.27 1455.28 L2210.96 1456.95 L2210.96 1452.69 L2219.22 1451.02 L2223.9 1451.02 L2223.9 1481.64 L2231.54 1481.64 L2231.54 1485.58 L2211.63 1485.58 L2211.63 1481.64 Z" fill="#000000" fill-rule="nonzero" fill-opacity="1" /><path clip-path="url(#clip060)" d="M2250.98 1454.1 Q2247.37 1454.1 2245.54 1457.66 Q2243.74 1461.2 2243.74 1468.33 Q2243.74 1475.44 2245.54 1479.01 Q2247.37 1482.55 2250.98 1482.55 Q2254.62 1482.55 2256.42 1479.01 Q2258.25 1475.44 2258.25 1468.33 Q2258.25 1461.2 2256.42 1457.66 Q2254.62 1454.1 2250.98 1454.1 M2250.98 1450.39 Q2256.79 1450.39 2259.85 1455 Q2262.93 1459.58 2262.93 1468.33 Q2262.93 1477.06 2259.85 1481.67 Q2256.79 1486.25 2250.98 1486.25 Q2245.17 1486.25 2242.09 1481.67 Q2239.04 1477.06 2239.04 1468.33 Q2239.04 1459.58 2242.09 1455 Q2245.17 1450.39 2250.98 1450.39 Z" fill="#000000" fill-rule="nonzero" fill-opacity="1" /><path clip-path="url(#clip060)" d="M2281.15 1454.1 Q2277.53 1454.1 2275.71 1457.66 Q2273.9 1461.2 2273.9 1468.33 Q2273.9 1475.44 2275.71 1479.01 Q2277.53 1482.55 2281.15 1482.55 Q2284.78 1482.55 2286.58 1479.01 Q2288.41 1475.44 2288.41 1468.33 Q2288.41 1461.2 2286.58 1457.66 Q2284.78 1454.1 2281.15 1454.1 M2281.15 1450.39 Q2286.96 1450.39 2290.01 1455 Q2293.09 1459.58 2293.09 1468.33 Q2293.09 1477.06 2290.01 1481.67 Q2286.96 1486.25 2281.15 1486.25 Q2275.34 1486.25 2272.26 1481.67 Q2269.2 1477.06 2269.2 1468.33 Q2269.2 1459.58 2272.26 1455 Q2275.34 1450.39 2281.15 1450.39 Z" fill="#000000" fill-rule="nonzero" fill-opacity="1" /><path clip-path="url(#clip060)" d="M1226.86 1520.52 L1267.06 1520.52 L1267.06 1525.93 L1250.19 1525.93 L1250.19 1568.04 L1243.73 1568.04 L1243.73 1525.93 L1226.86 1525.93 L1226.86 1520.52 Z" fill="#000000" fill-rule="nonzero" fill-opacity="1" /><path clip-path="url(#clip060)" d="M1271 1532.4 L1276.86 1532.4 L1276.86 1568.04 L1271 1568.04 L1271 1532.4 M1271 1518.52 L1276.86 1518.52 L1276.86 1525.93 L1271 1525.93 L1271 1518.52 Z" fill="#000000" fill-rule="nonzero" fill-opacity="1" /><path clip-path="url(#clip060)" d="M1316.87 1539.24 Q1319.06 1535.29 1322.12 1533.41 Q1325.18 1531.54 1329.31 1531.54 Q1334.88 1531.54 1337.91 1535.45 Q1340.93 1539.33 1340.93 1546.53 L1340.93 1568.04 L1335.04 1568.04 L1335.04 1546.72 Q1335.04 1541.59 1333.23 1539.11 Q1331.41 1536.63 1327.69 1536.63 Q1323.14 1536.63 1320.5 1539.65 Q1317.85 1542.68 1317.85 1547.9 L1317.85 1568.04 L1311.97 1568.04 L1311.97 1546.72 Q1311.97 1541.56 1310.15 1539.11 Q1308.34 1536.63 1304.55 1536.63 Q1300.06 1536.63 1297.42 1539.68 Q1294.78 1542.71 1294.78 1547.9 L1294.78 1568.04 L1288.89 1568.04 L1288.89 1532.4 L1294.78 1532.4 L1294.78 1537.93 Q1296.78 1534.66 1299.59 1533.1 Q1302.39 1531.54 1306.24 1531.54 Q1310.12 1531.54 1312.83 1533.51 Q1315.56 1535.48 1316.87 1539.24 Z" fill="#000000" fill-rule="nonzero" fill-opacity="1" /><path clip-path="url(#clip060)" d="M1383.1 1548.76 L1383.1 1551.62 L1356.18 1551.62 Q1356.56 1557.67 1359.8 1560.85 Q1363.08 1564 1368.91 1564 Q1372.28 1564 1375.43 1563.17 Q1378.62 1562.35 1381.73 1560.69 L1381.73 1566.23 Q1378.58 1567.57 1375.27 1568.27 Q1371.96 1568.97 1368.56 1568.97 Q1360.03 1568.97 1355.03 1564 Q1350.07 1559.04 1350.07 1550.57 Q1350.07 1541.82 1354.78 1536.69 Q1359.52 1531.54 1367.54 1531.54 Q1374.73 1531.54 1378.9 1536.18 Q1383.1 1540.8 1383.1 1548.76 M1377.25 1547.04 Q1377.18 1542.23 1374.54 1539.37 Q1371.93 1536.5 1367.6 1536.5 Q1362.7 1536.5 1359.74 1539.27 Q1356.81 1542.04 1356.37 1547.07 L1377.25 1547.04 Z" fill="#000000" fill-rule="nonzero" fill-opacity="1" /><polyline clip-path="url(#clip062)" style="stroke:#000000; stroke-linecap:round; stroke-linejoin:round; stroke-width:2; stroke-opacity:0.1; fill:none" points="257.204,1294.03 2352.76,1294.03 "/>
<polyline clip-path="url(#clip062)" style="stroke:#000000; stroke-linecap:round; stroke-linejoin:round; stroke-width:2; stroke-opacity:0.1; fill:none" points="257.204,1000.99 2352.76,1000.99 "/>
<polyline clip-path="url(#clip062)" style="stroke:#000000; stroke-linecap:round; stroke-linejoin:round; stroke-width:2; stroke-opacity:0.1; fill:none" points="257.204,707.949 2352.76,707.949 "/>
<polyline clip-path="url(#clip062)" style="stroke:#000000; stroke-linecap:round; stroke-linejoin:round; stroke-width:2; stroke-opacity:0.1; fill:none" points="257.204,414.907 2352.76,414.907 "/>
<polyline clip-path="url(#clip062)" style="stroke:#000000; stroke-linecap:round; stroke-linejoin:round; stroke-width:2; stroke-opacity:0.1; fill:none" points="257.204,121.866 2352.76,121.866 "/>
<polyline clip-path="url(#clip060)" style="stroke:#000000; stroke-linecap:round; stroke-linejoin:round; stroke-width:4; stroke-opacity:1; fill:none" points="257.204,1423.18 257.204,47.2441 "/>
<polyline clip-path="url(#clip060)" style="stroke:#000000; stroke-linecap:round; stroke-linejoin:round; stroke-width:4; stroke-opacity:1; fill:none" points="257.204,1294.03 276.102,1294.03 "/>
<polyline clip-path="url(#clip060)" style="stroke:#000000; stroke-linecap:round; stroke-linejoin:round; stroke-width:4; stroke-opacity:1; fill:none" points="257.204,1000.99 276.102,1000.99 "/>
<polyline clip-path="url(#clip060)" style="stroke:#000000; stroke-linecap:round; stroke-linejoin:round; stroke-width:4; stroke-opacity:1; fill:none" points="257.204,707.949 276.102,707.949 "/>
<polyline clip-path="url(#clip060)" style="stroke:#000000; stroke-linecap:round; stroke-linejoin:round; stroke-width:4; stroke-opacity:1; fill:none" points="257.204,414.907 276.102,414.907 "/>
<polyline clip-path="url(#clip060)" style="stroke:#000000; stroke-linecap:round; stroke-linejoin:round; stroke-width:4; stroke-opacity:1; fill:none" points="257.204,121.866 276.102,121.866 "/>
<path clip-path="url(#clip060)" d="M114.26 1294.48 L143.936 1294.48 L143.936 1298.42 L114.26 1298.42 L114.26 1294.48 Z" fill="#000000" fill-rule="nonzero" fill-opacity="1" /><path clip-path="url(#clip060)" d="M154.839 1307.38 L162.477 1307.38 L162.477 1281.01 L154.167 1282.68 L154.167 1278.42 L162.431 1276.75 L167.107 1276.75 L167.107 1307.38 L174.746 1307.38 L174.746 1311.31 L154.839 1311.31 L154.839 1307.38 Z" fill="#000000" fill-rule="nonzero" fill-opacity="1" /><path clip-path="url(#clip060)" d="M184.19 1305.43 L189.075 1305.43 L189.075 1311.31 L184.19 1311.31 L184.19 1305.43 Z" fill="#000000" fill-rule="nonzero" fill-opacity="1" /><path clip-path="url(#clip060)" d="M209.26 1279.83 Q205.649 1279.83 203.82 1283.39 Q202.014 1286.94 202.014 1294.07 Q202.014 1301.17 203.82 1304.74 Q205.649 1308.28 209.26 1308.28 Q212.894 1308.28 214.699 1304.74 Q216.528 1301.17 216.528 1294.07 Q216.528 1286.94 214.699 1283.39 Q212.894 1279.83 209.26 1279.83 M209.26 1276.13 Q215.07 1276.13 218.125 1280.73 Q221.204 1285.32 221.204 1294.07 Q221.204 1302.79 218.125 1307.4 Q215.07 1311.98 209.26 1311.98 Q203.449 1311.98 200.371 1307.4 Q197.315 1302.79 197.315 1294.07 Q197.315 1285.32 200.371 1280.73 Q203.449 1276.13 209.26 1276.13 Z" fill="#000000" fill-rule="nonzero" fill-opacity="1" /><path clip-path="url(#clip060)" d="M115.256 1001.44 L144.931 1001.44 L144.931 1005.38 L115.256 1005.38 L115.256 1001.44 Z" fill="#000000" fill-rule="nonzero" fill-opacity="1" /><path clip-path="url(#clip060)" d="M165.024 986.789 Q161.413 986.789 159.584 990.354 Q157.778 993.895 157.778 1001.02 Q157.778 1008.13 159.584 1011.7 Q161.413 1015.24 165.024 1015.24 Q168.658 1015.24 170.464 1011.7 Q172.292 1008.13 172.292 1001.02 Q172.292 993.895 170.464 990.354 Q168.658 986.789 165.024 986.789 M165.024 983.085 Q170.834 983.085 173.889 987.691 Q176.968 992.275 176.968 1001.02 Q176.968 1009.75 173.889 1014.36 Q170.834 1018.94 165.024 1018.94 Q159.214 1018.94 156.135 1014.36 Q153.079 1009.75 153.079 1001.02 Q153.079 992.275 156.135 987.691 Q159.214 983.085 165.024 983.085 Z" fill="#000000" fill-rule="nonzero" fill-opacity="1" /><path clip-path="url(#clip060)" d="M185.186 1012.39 L190.07 1012.39 L190.07 1018.27 L185.186 1018.27 L185.186 1012.39 Z" fill="#000000" fill-rule="nonzero" fill-opacity="1" /><path clip-path="url(#clip060)" d="M200.301 983.71 L218.658 983.71 L218.658 987.645 L204.584 987.645 L204.584 996.117 Q205.602 995.77 206.621 995.608 Q207.639 995.423 208.658 995.423 Q214.445 995.423 217.824 998.594 Q221.204 1001.77 221.204 1007.18 Q221.204 1012.76 217.732 1015.86 Q214.26 1018.94 207.94 1018.94 Q205.764 1018.94 203.496 1018.57 Q201.25 1018.2 198.843 1017.46 L198.843 1012.76 Q200.926 1013.9 203.149 1014.45 Q205.371 1015.01 207.848 1015.01 Q211.852 1015.01 214.19 1012.9 Q216.528 1010.79 216.528 1007.18 Q216.528 1003.57 214.19 1001.46 Q211.852 999.358 207.848 999.358 Q205.973 999.358 204.098 999.775 Q202.246 1000.19 200.301 1001.07 L200.301 983.71 Z" fill="#000000" fill-rule="nonzero" fill-opacity="1" /><path clip-path="url(#clip060)" d="M164.028 693.747 Q160.417 693.747 158.589 697.312 Q156.783 700.854 156.783 707.983 Q156.783 715.09 158.589 718.655 Q160.417 722.196 164.028 722.196 Q167.663 722.196 169.468 718.655 Q171.297 715.09 171.297 707.983 Q171.297 700.854 169.468 697.312 Q167.663 693.747 164.028 693.747 M164.028 690.044 Q169.839 690.044 172.894 694.65 Q175.973 699.233 175.973 707.983 Q175.973 716.71 172.894 721.317 Q169.839 725.9 164.028 725.9 Q158.218 725.9 155.14 721.317 Q152.084 716.71 152.084 707.983 Q152.084 699.233 155.14 694.65 Q158.218 690.044 164.028 690.044 Z" fill="#000000" fill-rule="nonzero" fill-opacity="1" /><path clip-path="url(#clip060)" d="M184.19 719.349 L189.075 719.349 L189.075 725.229 L184.19 725.229 L184.19 719.349 Z" fill="#000000" fill-rule="nonzero" fill-opacity="1" /><path clip-path="url(#clip060)" d="M209.26 693.747 Q205.649 693.747 203.82 697.312 Q202.014 700.854 202.014 707.983 Q202.014 715.09 203.82 718.655 Q205.649 722.196 209.26 722.196 Q212.894 722.196 214.699 718.655 Q216.528 715.09 216.528 707.983 Q216.528 700.854 214.699 697.312 Q212.894 693.747 209.26 693.747 M209.26 690.044 Q215.07 690.044 218.125 694.65 Q221.204 699.233 221.204 707.983 Q221.204 716.71 218.125 721.317 Q215.07 725.9 209.26 725.9 Q203.449 725.9 200.371 721.317 Q197.315 716.71 197.315 707.983 Q197.315 699.233 200.371 694.65 Q203.449 690.044 209.26 690.044 Z" fill="#000000" fill-rule="nonzero" fill-opacity="1" /><path clip-path="url(#clip060)" d="M165.024 400.706 Q161.413 400.706 159.584 404.271 Q157.778 407.812 157.778 414.942 Q157.778 422.049 159.584 425.613 Q161.413 429.155 165.024 429.155 Q168.658 429.155 170.464 425.613 Q172.292 422.049 172.292 414.942 Q172.292 407.812 170.464 404.271 Q168.658 400.706 165.024 400.706 M165.024 397.002 Q170.834 397.002 173.889 401.609 Q176.968 406.192 176.968 414.942 Q176.968 423.669 173.889 428.275 Q170.834 432.859 165.024 432.859 Q159.214 432.859 156.135 428.275 Q153.079 423.669 153.079 414.942 Q153.079 406.192 156.135 401.609 Q159.214 397.002 165.024 397.002 Z" fill="#000000" fill-rule="nonzero" fill-opacity="1" /><path clip-path="url(#clip060)" d="M185.186 426.308 L190.07 426.308 L190.07 432.187 L185.186 432.187 L185.186 426.308 Z" fill="#000000" fill-rule="nonzero" fill-opacity="1" /><path clip-path="url(#clip060)" d="M200.301 397.627 L218.658 397.627 L218.658 401.563 L204.584 401.563 L204.584 410.035 Q205.602 409.687 206.621 409.525 Q207.639 409.34 208.658 409.34 Q214.445 409.34 217.824 412.512 Q221.204 415.683 221.204 421.099 Q221.204 426.678 217.732 429.78 Q214.26 432.859 207.94 432.859 Q205.764 432.859 203.496 432.488 Q201.25 432.118 198.843 431.377 L198.843 426.678 Q200.926 427.812 203.149 428.368 Q205.371 428.923 207.848 428.923 Q211.852 428.923 214.19 426.817 Q216.528 424.711 216.528 421.099 Q216.528 417.488 214.19 415.382 Q211.852 413.275 207.848 413.275 Q205.973 413.275 204.098 413.692 Q202.246 414.109 200.301 414.988 L200.301 397.627 Z" fill="#000000" fill-rule="nonzero" fill-opacity="1" /><path clip-path="url(#clip060)" d="M154.839 135.211 L162.477 135.211 L162.477 108.845 L154.167 110.512 L154.167 106.253 L162.431 104.586 L167.107 104.586 L167.107 135.211 L174.746 135.211 L174.746 139.146 L154.839 139.146 L154.839 135.211 Z" fill="#000000" fill-rule="nonzero" fill-opacity="1" /><path clip-path="url(#clip060)" d="M184.19 133.266 L189.075 133.266 L189.075 139.146 L184.19 139.146 L184.19 133.266 Z" fill="#000000" fill-rule="nonzero" fill-opacity="1" /><path clip-path="url(#clip060)" d="M209.26 107.665 Q205.649 107.665 203.82 111.229 Q202.014 114.771 202.014 121.901 Q202.014 129.007 203.82 132.572 Q205.649 136.114 209.26 136.114 Q212.894 136.114 214.699 132.572 Q216.528 129.007 216.528 121.901 Q216.528 114.771 214.699 111.229 Q212.894 107.665 209.26 107.665 M209.26 103.961 Q215.07 103.961 218.125 108.567 Q221.204 113.151 221.204 121.901 Q221.204 130.628 218.125 135.234 Q215.07 139.817 209.26 139.817 Q203.449 139.817 200.371 135.234 Q197.315 130.628 197.315 121.901 Q197.315 113.151 200.371 108.567 Q203.449 103.961 209.26 103.961 Z" fill="#000000" fill-rule="nonzero" fill-opacity="1" /><path clip-path="url(#clip060)" d="M18.0438 1020.11 L24.314 1020.11 Q22.5634 1023.77 21.704 1027.02 Q20.8447 1030.26 20.8447 1033.29 Q20.8447 1038.54 22.8817 1041.4 Q24.9187 1044.24 28.6745 1044.24 Q31.8255 1044.24 33.4488 1042.36 Q35.0402 1040.45 36.0269 1035.16 L36.8226 1031.28 Q38.1912 1024.09 41.6605 1020.68 Q45.098 1017.24 50.8908 1017.24 Q57.7976 1017.24 61.3624 1021.89 Q64.9272 1026.51 64.9272 1035.45 Q64.9272 1038.82 64.1633 1042.64 Q63.3994 1046.43 61.9035 1050.51 L55.2831 1050.51 Q57.4793 1046.59 58.5933 1042.83 Q59.7073 1039.08 59.7073 1035.45 Q59.7073 1029.94 57.543 1026.95 Q55.3786 1023.96 51.3682 1023.96 Q47.8671 1023.96 45.8937 1026.12 Q43.9204 1028.26 42.9337 1033.16 L42.1698 1037.07 Q40.7375 1044.27 37.682 1047.48 Q34.6264 1050.7 29.1837 1050.7 Q22.8817 1050.7 19.2532 1046.27 Q15.6248 1041.82 15.6248 1034.02 Q15.6248 1030.68 16.2295 1027.21 Q16.8343 1023.74 18.0438 1020.11 Z" fill="#000000" fill-rule="nonzero" fill-opacity="1" /><path clip-path="url(#clip060)" d="M29.7248 981.819 L35.1993 981.819 Q33.8307 984.302 33.1623 986.817 Q32.4621 989.299 32.4621 991.845 Q32.4621 997.543 36.0905 1000.69 Q39.6872 1003.84 46.212 1003.84 Q52.7369 1003.84 56.3653 1000.69 Q59.9619 997.543 59.9619 991.845 Q59.9619 989.299 59.2935 986.817 Q58.5933 984.302 57.2247 981.819 L62.6355 981.819 Q63.7814 984.27 64.3543 986.912 Q64.9272 989.522 64.9272 992.482 Q64.9272 1000.53 59.8664 1005.28 Q54.8057 1010.02 46.212 1010.02 Q37.491 1010.02 32.4939 1005.25 Q27.4968 1000.44 27.4968 992.1 Q27.4968 989.395 28.0697 986.817 Q28.6108 984.238 29.7248 981.819 Z" fill="#000000" fill-rule="nonzero" fill-opacity="1" /><path clip-path="url(#clip060)" d="M42.4881 942.002 L64.0042 942.002 L64.0042 947.858 L42.679 947.858 Q37.6183 947.858 35.1038 949.832 Q32.5894 951.805 32.5894 955.752 Q32.5894 960.494 35.6131 963.232 Q38.6368 965.969 43.8567 965.969 L64.0042 965.969 L64.0042 971.857 L14.479 971.857 L14.479 965.969 L33.8944 965.969 Q30.6797 963.868 29.0883 961.035 Q27.4968 958.171 27.4968 954.447 Q27.4968 948.304 31.3163 945.153 Q35.1038 942.002 42.4881 942.002 Z" fill="#000000" fill-rule="nonzero" fill-opacity="1" /><path clip-path="url(#clip060)" d="M32.4621 916.507 Q32.4621 921.218 36.1542 923.955 Q39.8145 926.692 46.212 926.692 Q52.6095 926.692 56.3017 923.987 Q59.9619 921.25 59.9619 916.507 Q59.9619 911.828 56.2698 909.091 Q52.5777 906.354 46.212 906.354 Q39.8781 906.354 36.186 909.091 Q32.4621 911.828 32.4621 916.507 M27.4968 916.507 Q27.4968 908.868 32.4621 904.508 Q37.4273 900.147 46.212 900.147 Q54.9649 900.147 59.9619 904.508 Q64.9272 908.868 64.9272 916.507 Q64.9272 924.178 59.9619 928.538 Q54.9649 932.867 46.212 932.867 Q37.4273 932.867 32.4621 928.538 Q27.4968 924.178 27.4968 916.507 Z" fill="#000000" fill-rule="nonzero" fill-opacity="1" /><path clip-path="url(#clip060)" d="M44.7161 859.948 L47.5806 859.948 L47.5806 886.875 Q53.6281 886.493 56.8109 883.246 Q59.9619 879.968 59.9619 874.144 Q59.9619 870.77 59.1344 867.619 Q58.3069 864.436 56.6518 861.317 L62.1899 861.317 Q63.5267 864.468 64.227 867.778 Q64.9272 871.088 64.9272 874.494 Q64.9272 883.024 59.9619 888.021 Q54.9967 892.986 46.5303 892.986 Q37.7774 892.986 32.6531 888.275 Q27.4968 883.533 27.4968 875.512 Q27.4968 868.319 32.1438 864.149 Q36.7589 859.948 44.7161 859.948 M42.9973 865.804 Q38.1912 865.868 35.3266 868.51 Q32.4621 871.12 32.4621 875.448 Q32.4621 880.35 35.2312 883.31 Q38.0002 886.238 43.0292 886.684 L42.9973 865.804 Z" fill="#000000" fill-rule="nonzero" fill-opacity="1" /><path clip-path="url(#clip060)" d="M42.4881 820.703 L64.0042 820.703 L64.0042 826.56 L42.679 826.56 Q37.6183 826.56 35.1038 828.533 Q32.5894 830.507 32.5894 834.453 Q32.5894 839.196 35.6131 841.933 Q38.6368 844.67 43.8567 844.67 L64.0042 844.67 L64.0042 850.559 L28.3562 850.559 L28.3562 844.67 L33.8944 844.67 Q30.6797 842.57 29.0883 839.737 Q27.4968 836.872 27.4968 833.148 Q27.4968 827.005 31.3163 823.854 Q35.1038 820.703 42.4881 820.703 Z" fill="#000000" fill-rule="nonzero" fill-opacity="1" /><path clip-path="url(#clip060)" d="M14.479 790.976 L19.3487 790.976 L19.3487 796.577 Q19.3487 799.728 20.6219 800.97 Q21.895 802.179 25.2052 802.179 L28.3562 802.179 L28.3562 792.535 L32.9077 792.535 L32.9077 802.179 L64.0042 802.179 L64.0042 808.067 L32.9077 808.067 L32.9077 813.669 L28.3562 813.669 L28.3562 808.067 L25.8736 808.067 Q19.9216 808.067 17.2162 805.298 Q14.479 802.529 14.479 796.514 L14.479 790.976 Z" fill="#000000" fill-rule="nonzero" fill-opacity="1" /><path clip-path="url(#clip060)" d="M44.7161 755.582 L47.5806 755.582 L47.5806 782.509 Q53.6281 782.127 56.8109 778.881 Q59.9619 775.602 59.9619 769.778 Q59.9619 766.404 59.1344 763.253 Q58.3069 760.07 56.6518 756.951 L62.1899 756.951 Q63.5267 760.102 64.227 763.412 Q64.9272 766.722 64.9272 770.128 Q64.9272 778.658 59.9619 783.655 Q54.9967 788.62 46.5303 788.62 Q37.7774 788.62 32.6531 783.91 Q27.4968 779.167 27.4968 771.146 Q27.4968 763.953 32.1438 759.784 Q36.7589 755.582 44.7161 755.582 M42.9973 761.439 Q38.1912 761.502 35.3266 764.144 Q32.4621 766.754 32.4621 771.083 Q32.4621 775.984 35.2312 778.944 Q38.0002 781.873 43.0292 782.318 L42.9973 761.439 Z" fill="#000000" fill-rule="nonzero" fill-opacity="1" /><path clip-path="url(#clip060)" d="M14.479 745.97 L14.479 740.114 L64.0042 740.114 L64.0042 745.97 L14.479 745.97 Z" fill="#000000" fill-rule="nonzero" fill-opacity="1" /><path clip-path="url(#clip060)" d="M33.7671 704.402 L14.479 704.402 L14.479 698.545 L64.0042 698.545 L64.0042 704.402 L58.657 704.402 Q61.8398 706.248 63.3994 709.081 Q64.9272 711.882 64.9272 715.828 Q64.9272 722.29 59.771 726.364 Q54.6147 730.406 46.212 730.406 Q37.8093 730.406 32.6531 726.364 Q27.4968 722.29 27.4968 715.828 Q27.4968 711.882 29.0564 709.081 Q30.5842 706.248 33.7671 704.402 M46.212 724.358 Q52.6732 724.358 56.3653 721.717 Q60.0256 719.043 60.0256 714.396 Q60.0256 709.749 56.3653 707.076 Q52.6732 704.402 46.212 704.402 Q39.7508 704.402 36.0905 707.076 Q32.3984 709.749 32.3984 714.396 Q32.3984 719.043 36.0905 721.717 Q39.7508 724.358 46.212 724.358 Z" fill="#000000" fill-rule="nonzero" fill-opacity="1" /><path clip-path="url(#clip060)" d="M33.8307 645.105 Q33.2578 646.092 33.0032 647.27 Q32.7167 648.416 32.7167 649.816 Q32.7167 654.781 35.9632 657.455 Q39.1779 660.097 45.2253 660.097 L64.0042 660.097 L64.0042 665.985 L28.3562 665.985 L28.3562 660.097 L33.8944 660.097 Q30.6479 658.251 29.0883 655.291 Q27.4968 652.33 27.4968 648.097 Q27.4968 647.493 27.5923 646.76 Q27.656 646.028 27.8151 645.137 L33.8307 645.105 Z" fill="#000000" fill-rule="nonzero" fill-opacity="1" /><path clip-path="url(#clip060)" d="M44.7161 609.903 L47.5806 609.903 L47.5806 636.83 Q53.6281 636.448 56.8109 633.202 Q59.9619 629.923 59.9619 624.099 Q59.9619 620.725 59.1344 617.574 Q58.3069 614.391 56.6518 611.272 L62.1899 611.272 Q63.5267 614.423 64.227 617.733 Q64.9272 621.043 64.9272 624.449 Q64.9272 632.979 59.9619 637.976 Q54.9967 642.941 46.5303 642.941 Q37.7774 642.941 32.6531 638.23 Q27.4968 633.488 27.4968 625.467 Q27.4968 618.274 32.1438 614.104 Q36.7589 609.903 44.7161 609.903 M42.9973 615.759 Q38.1912 615.823 35.3266 618.465 Q32.4621 621.075 32.4621 625.404 Q32.4621 630.305 35.2312 633.265 Q38.0002 636.193 43.0292 636.639 L42.9973 615.759 Z" fill="#000000" fill-rule="nonzero" fill-opacity="1" /><path clip-path="url(#clip060)" d="M29.4065 577.565 L34.9447 577.565 Q33.6716 580.048 33.035 582.721 Q32.3984 585.395 32.3984 588.26 Q32.3984 592.62 33.7352 594.816 Q35.072 596.981 37.7456 596.981 Q39.7826 596.981 40.9603 595.421 Q42.1061 593.861 43.1565 589.151 L43.6021 587.146 Q44.9389 580.907 47.3897 578.297 Q49.8086 575.656 54.1691 575.656 Q59.1344 575.656 62.0308 579.602 Q64.9272 583.517 64.9272 590.392 Q64.9272 593.257 64.3543 596.376 Q63.8132 599.463 62.6992 602.901 L56.6518 602.901 Q58.3387 599.654 59.198 596.503 Q60.0256 593.352 60.0256 590.265 Q60.0256 586.127 58.6251 583.899 Q57.1929 581.671 54.6147 581.671 Q52.2276 581.671 50.9545 583.294 Q49.6813 584.886 48.5037 590.328 L48.0262 592.366 Q46.8804 597.808 44.5251 600.227 Q42.138 602.646 38.0002 602.646 Q32.9713 602.646 30.2341 599.081 Q27.4968 595.517 27.4968 588.96 Q27.4968 585.713 27.9743 582.849 Q28.4517 579.984 29.4065 577.565 Z" fill="#000000" fill-rule="nonzero" fill-opacity="1" /><path clip-path="url(#clip060)" d="M28.3562 566.33 L28.3562 560.473 L64.0042 560.473 L64.0042 566.33 L28.3562 566.33 M14.479 566.33 L14.479 560.473 L21.895 560.473 L21.895 566.33 L14.479 566.33 Z" fill="#000000" fill-rule="nonzero" fill-opacity="1" /><path clip-path="url(#clip060)" d="M33.7671 524.762 L14.479 524.762 L14.479 518.905 L64.0042 518.905 L64.0042 524.762 L58.657 524.762 Q61.8398 526.608 63.3994 529.441 Q64.9272 532.241 64.9272 536.188 Q64.9272 542.649 59.771 546.723 Q54.6147 550.766 46.212 550.766 Q37.8093 550.766 32.6531 546.723 Q27.4968 542.649 27.4968 536.188 Q27.4968 532.241 29.0564 529.441 Q30.5842 526.608 33.7671 524.762 M46.212 544.718 Q52.6732 544.718 56.3653 542.076 Q60.0256 539.403 60.0256 534.756 Q60.0256 530.109 56.3653 527.435 Q52.6732 524.762 46.212 524.762 Q39.7508 524.762 36.0905 527.435 Q32.3984 530.109 32.3984 534.756 Q32.3984 539.403 36.0905 542.076 Q39.7508 544.718 46.212 544.718 Z" fill="#000000" fill-rule="nonzero" fill-opacity="1" /><path clip-path="url(#clip060)" d="M49.9359 507.447 L28.3562 507.447 L28.3562 501.591 L49.7131 501.591 Q54.7739 501.591 57.3202 499.617 Q59.8346 497.644 59.8346 493.697 Q59.8346 488.955 56.8109 486.217 Q53.7872 483.448 48.5673 483.448 L28.3562 483.448 L28.3562 477.592 L64.0042 477.592 L64.0042 483.448 L58.5296 483.448 Q61.7762 485.581 63.3676 488.414 Q64.9272 491.214 64.9272 494.938 Q64.9272 501.081 61.1078 504.264 Q57.2883 507.447 49.9359 507.447 M27.4968 492.71 L27.4968 492.71 Z" fill="#000000" fill-rule="nonzero" fill-opacity="1" /><path clip-path="url(#clip060)" d="M46.0847 449.328 Q46.0847 456.426 47.7079 459.163 Q49.3312 461.9 53.2461 461.9 Q56.3653 461.9 58.2114 459.863 Q60.0256 457.794 60.0256 454.262 Q60.0256 449.392 56.5881 446.464 Q53.1188 443.503 47.3897 443.503 L46.0847 443.503 L46.0847 449.328 M43.6657 437.647 L64.0042 437.647 L64.0042 443.503 L58.5933 443.503 Q61.8398 445.509 63.3994 448.501 Q64.9272 451.492 64.9272 455.821 Q64.9272 461.296 61.8716 464.542 Q58.7843 467.757 53.6281 467.757 Q47.6125 467.757 44.5569 463.746 Q41.5014 459.704 41.5014 451.715 L41.5014 443.503 L40.9285 443.503 Q36.8862 443.503 34.6901 446.177 Q32.4621 448.819 32.4621 453.625 Q32.4621 456.68 33.1941 459.577 Q33.9262 462.473 35.3903 465.147 L29.9795 465.147 Q28.7381 461.932 28.1334 458.908 Q27.4968 455.885 27.4968 453.02 Q27.4968 445.286 31.5072 441.466 Q35.5176 437.647 43.6657 437.647 Z" fill="#000000" fill-rule="nonzero" fill-opacity="1" /><path clip-path="url(#clip060)" d="M14.479 425.584 L14.479 419.728 L64.0042 419.728 L64.0042 425.584 L14.479 425.584 Z" fill="#000000" fill-rule="nonzero" fill-opacity="1" /><circle clip-path="url(#clip062)" cx="1048.05" cy="1384.24" r="14.4" fill="#000000" fill-rule="evenodd" fill-opacity="0.5" stroke="none"/>
<circle clip-path="url(#clip062)" cx="1481.35" cy="892.603" r="14.4" fill="#000000" fill-rule="evenodd" fill-opacity="0.5" stroke="none"/>
<circle clip-path="url(#clip062)" cx="777.877" cy="761.659" r="14.4" fill="#000000" fill-rule="evenodd" fill-opacity="0.5" stroke="none"/>
<circle clip-path="url(#clip062)" cx="748.825" cy="614.137" r="14.4" fill="#000000" fill-rule="evenodd" fill-opacity="0.5" stroke="none"/>
<circle clip-path="url(#clip062)" cx="1326.63" cy="722.025" r="14.4" fill="#000000" fill-rule="evenodd" fill-opacity="0.5" stroke="none"/>
<circle clip-path="url(#clip062)" cx="1197.05" cy="86.1857" r="14.4" fill="#000000" fill-rule="evenodd" fill-opacity="0.5" stroke="none"/>
<circle clip-path="url(#clip062)" cx="2221.72" cy="1324.16" r="14.4" fill="#000000" fill-rule="evenodd" fill-opacity="0.5" stroke="none"/>
<circle clip-path="url(#clip062)" cx="316.512" cy="834.325" r="14.4" fill="#000000" fill-rule="evenodd" fill-opacity="0.5" stroke="none"/>
<circle clip-path="url(#clip062)" cx="2024.08" cy="854.475" r="14.4" fill="#000000" fill-rule="evenodd" fill-opacity="0.5" stroke="none"/>
<circle clip-path="url(#clip062)" cx="993.111" cy="398.653" r="14.4" fill="#000000" fill-rule="evenodd" fill-opacity="0.5" stroke="none"/>
<circle clip-path="url(#clip062)" cx="1526.64" cy="743.892" r="14.4" fill="#000000" fill-rule="evenodd" fill-opacity="0.5" stroke="none"/>
<circle clip-path="url(#clip062)" cx="612.515" cy="560.35" r="14.4" fill="#000000" fill-rule="evenodd" fill-opacity="0.5" stroke="none"/>
<circle clip-path="url(#clip062)" cx="1969.53" cy="871.991" r="14.4" fill="#000000" fill-rule="evenodd" fill-opacity="0.5" stroke="none"/>
<circle clip-path="url(#clip062)" cx="2293.45" cy="619.092" r="14.4" fill="#000000" fill-rule="evenodd" fill-opacity="0.5" stroke="none"/>
<circle clip-path="url(#clip062)" cx="1838.58" cy="802.541" r="14.4" fill="#000000" fill-rule="evenodd" fill-opacity="0.5" stroke="none"/>
<path clip-path="url(#clip060)" d="M2048.21 196.789 L2282.9 196.789 L2282.9 93.1086 L2048.21 93.1086  Z" fill="#ffffff" fill-rule="evenodd" fill-opacity="1"/>
<polyline clip-path="url(#clip060)" style="stroke:#000000; stroke-linecap:round; stroke-linejoin:round; stroke-width:4; stroke-opacity:1; fill:none" points="2048.21,196.789 2282.9,196.789 2282.9,93.1086 2048.21,93.1086 2048.21,196.789 "/>
<circle clip-path="url(#clip060)" cx="2141.35" cy="144.949" r="23.04" fill="#000000" fill-rule="evenodd" fill-opacity="0.5" stroke="none"/>
<path clip-path="url(#clip060)" d="M2259.13 136.303 L2249.76 148.919 L2259.62 162.229 L2254.6 162.229 L2247.05 152.043 L2239.5 162.229 L2234.48 162.229 L2244.55 148.664 L2235.34 136.303 L2240.36 136.303 L2247.24 145.539 L2254.11 136.303 L2259.13 136.303 Z" fill="#000000" fill-rule="nonzero" fill-opacity="1" /></svg>
