<?xml version="1.0" encoding="utf-8"?>
<svg xmlns="http://www.w3.org/2000/svg" xmlns:xlink="http://www.w3.org/1999/xlink" width="600" height="400" viewBox="0 0 2400 1600">
<defs>
  <clipPath id="clip990">
    <rect x="0" y="0" width="2400" height="1600"/>
  </clipPath>
</defs>
<path clip-path="url(#clip990)" d="M0 1600 L2400 1600 L2400 0 L0 0  Z" fill="#ffffff" fill-rule="evenodd" fill-opacity="1"/>
<defs>
  <clipPath id="clip991">
    <rect x="480" y="0" width="1681" height="1600"/>
  </clipPath>
</defs>
<path clip-path="url(#clip990)" d="M249.542 1423.18 L2352.76 1423.18 L2352.76 123.472 L249.542 123.472  Z" fill="#ffffff" fill-rule="evenodd" fill-opacity="1"/>
<defs>
  <clipPath id="clip992">
    <rect x="249" y="123" width="2104" height="1301"/>
  </clipPath>
</defs>
<polyline clip-path="url(#clip990)" style="stroke:#000000; stroke-linecap:round; stroke-linejoin:round; stroke-width:4; stroke-opacity:1; fill:none" points="249.542,1423.18 2352.76,1423.18 "/>
<polyline clip-path="url(#clip990)" style="stroke:#000000; stroke-linecap:round; stroke-linejoin:round; stroke-width:4; stroke-opacity:1; fill:none" points="309.067,1423.18 309.067,1404.28 "/>
<polyline clip-path="url(#clip990)" style="stroke:#000000; stroke-linecap:round; stroke-linejoin:round; stroke-width:4; stroke-opacity:1; fill:none" points="805.108,1423.18 805.108,1404.28 "/>
<polyline clip-path="url(#clip990)" style="stroke:#000000; stroke-linecap:round; stroke-linejoin:round; stroke-width:4; stroke-opacity:1; fill:none" points="1301.15,1423.18 1301.15,1404.28 "/>
<polyline clip-path="url(#clip990)" style="stroke:#000000; stroke-linecap:round; stroke-linejoin:round; stroke-width:4; stroke-opacity:1; fill:none" points="1797.19,1423.18 1797.19,1404.28 "/>
<polyline clip-path="url(#clip990)" style="stroke:#000000; stroke-linecap:round; stroke-linejoin:round; stroke-width:4; stroke-opacity:1; fill:none" points="2293.23,1423.18 2293.23,1404.28 "/>
<path clip-path="url(#clip990)" d="M309.067 1454.1 Q305.456 1454.1 303.627 1457.66 Q301.822 1461.2 301.822 1468.33 Q301.822 1475.44 303.627 1479.01 Q305.456 1482.55 309.067 1482.55 Q312.701 1482.55 314.507 1479.01 Q316.335 1475.44 316.335 1468.33 Q316.335 1461.2 314.507 1457.66 Q312.701 1454.1 309.067 1454.1 M309.067 1450.39 Q314.877 1450.39 317.933 1455 Q321.011 1459.58 321.011 1468.33 Q321.011 1477.06 317.933 1481.67 Q314.877 1486.25 309.067 1486.25 Q303.257 1486.25 300.178 1481.67 Q297.123 1477.06 297.123 1468.33 Q297.123 1459.58 300.178 1455 Q303.257 1450.39 309.067 1450.39 Z" fill="#000000" fill-rule="nonzero" fill-opacity="1" /><path clip-path="url(#clip990)" d="M795.386 1451.02 L813.742 1451.02 L813.742 1454.96 L799.668 1454.96 L799.668 1463.43 Q800.687 1463.08 801.705 1462.92 Q802.724 1462.73 803.742 1462.73 Q809.529 1462.73 812.909 1465.9 Q816.288 1469.08 816.288 1474.49 Q816.288 1480.07 812.816 1483.17 Q809.344 1486.25 803.025 1486.25 Q800.849 1486.25 798.58 1485.88 Q796.335 1485.51 793.927 1484.77 L793.927 1480.07 Q796.011 1481.2 798.233 1481.76 Q800.455 1482.32 802.932 1482.32 Q806.937 1482.32 809.275 1480.21 Q811.613 1478.1 811.613 1474.49 Q811.613 1470.88 809.275 1468.77 Q806.937 1466.67 802.932 1466.67 Q801.057 1466.67 799.182 1467.08 Q797.33 1467.5 795.386 1468.38 L795.386 1451.02 Z" fill="#000000" fill-rule="nonzero" fill-opacity="1" /><path clip-path="url(#clip990)" d="M1275.84 1481.64 L1283.48 1481.64 L1283.48 1455.28 L1275.17 1456.95 L1275.17 1452.69 L1283.43 1451.02 L1288.11 1451.02 L1288.11 1481.64 L1295.74 1481.64 L1295.74 1485.58 L1275.84 1485.58 L1275.84 1481.64 Z" fill="#000000" fill-rule="nonzero" fill-opacity="1" /><path clip-path="url(#clip990)" d="M1315.19 1454.1 Q1311.58 1454.1 1309.75 1457.66 Q1307.94 1461.2 1307.94 1468.33 Q1307.94 1475.44 1309.75 1479.01 Q1311.58 1482.55 1315.19 1482.55 Q1318.82 1482.55 1320.63 1479.01 Q1322.46 1475.44 1322.46 1468.33 Q1322.46 1461.2 1320.63 1457.66 Q1318.82 1454.1 1315.19 1454.1 M1315.19 1450.39 Q1321 1450.39 1324.05 1455 Q1327.13 1459.58 1327.13 1468.33 Q1327.13 1477.06 1324.05 1481.67 Q1321 1486.25 1315.19 1486.25 Q1309.38 1486.25 1306.3 1481.67 Q1303.24 1477.06 1303.24 1468.33 Q1303.24 1459.58 1306.3 1455 Q1309.38 1450.39 1315.19 1450.39 Z" fill="#000000" fill-rule="nonzero" fill-opacity="1" /><path clip-path="url(#clip990)" d="M1772.38 1481.64 L1780.01 1481.64 L1780.01 1455.28 L1771.7 1456.95 L1771.7 1452.69 L1779.97 1451.02 L1784.64 1451.02 L1784.64 1481.64 L1792.28 1481.64 L1792.28 1485.58 L1772.38 1485.58 L1772.38 1481.64 Z" fill="#000000" fill-rule="nonzero" fill-opacity="1" /><path clip-path="url(#clip990)" d="M1801.77 1451.02 L1820.13 1451.02 L1820.13 1454.96 L1806.06 1454.96 L1806.06 1463.43 Q1807.07 1463.08 1808.09 1462.92 Q1809.11 1462.73 1810.13 1462.73 Q1815.92 1462.73 1819.3 1465.9 Q1822.68 1469.08 1822.68 1474.49 Q1822.68 1480.07 1819.2 1483.17 Q1815.73 1486.25 1809.41 1486.25 Q1807.24 1486.25 1804.97 1485.88 Q1802.72 1485.51 1800.31 1484.77 L1800.31 1480.07 Q1802.4 1481.2 1804.62 1481.76 Q1806.84 1482.32 1809.32 1482.32 Q1813.32 1482.32 1815.66 1480.21 Q1818 1478.1 1818 1474.49 Q1818 1470.88 1815.66 1468.77 Q1813.32 1466.67 1809.32 1466.67 Q1807.44 1466.67 1805.57 1467.08 Q1803.72 1467.5 1801.77 1468.38 L1801.77 1451.02 Z" fill="#000000" fill-rule="nonzero" fill-opacity="1" /><path clip-path="url(#clip990)" d="M2272 1481.64 L2288.32 1481.64 L2288.32 1485.58 L2266.38 1485.58 L2266.38 1481.64 Q2269.04 1478.89 2273.62 1474.26 Q2278.23 1469.61 2279.41 1468.27 Q2281.66 1465.74 2282.54 1464.01 Q2283.44 1462.25 2283.44 1460.56 Q2283.44 1457.8 2281.49 1456.07 Q2279.57 1454.33 2276.47 1454.33 Q2274.27 1454.33 2271.82 1455.09 Q2269.39 1455.86 2266.61 1457.41 L2266.61 1452.69 Q2269.43 1451.55 2271.89 1450.97 Q2274.34 1450.39 2276.38 1450.39 Q2281.75 1450.39 2284.94 1453.08 Q2288.14 1455.77 2288.14 1460.26 Q2288.14 1462.39 2287.33 1464.31 Q2286.54 1466.2 2284.43 1468.8 Q2283.86 1469.47 2280.75 1472.69 Q2277.65 1475.88 2272 1481.64 Z" fill="#000000" fill-rule="nonzero" fill-opacity="1" /><path clip-path="url(#clip990)" d="M2308.14 1454.1 Q2304.53 1454.1 2302.7 1457.66 Q2300.89 1461.2 2300.89 1468.33 Q2300.89 1475.44 2302.7 1479.01 Q2304.53 1482.55 2308.14 1482.55 Q2311.77 1482.55 2313.58 1479.01 Q2315.41 1475.44 2315.41 1468.33 Q2315.41 1461.2 2313.58 1457.66 Q2311.77 1454.1 2308.14 1454.1 M2308.14 1450.39 Q2313.95 1450.39 2317 1455 Q2320.08 1459.58 2320.08 1468.33 Q2320.08 1477.06 2317 1481.67 Q2313.95 1486.25 2308.14 1486.25 Q2302.33 1486.25 2299.25 1481.67 Q2296.19 1477.06 2296.19 1468.33 Q2296.19 1459.58 2299.25 1455 Q2302.33 1450.39 2308.14 1450.39 Z" fill="#000000" fill-rule="nonzero" fill-opacity="1" /><path clip-path="url(#clip990)" d="M1223.03 1520.52 L1263.23 1520.52 L1263.23 1525.93 L1246.36 1525.93 L1246.36 1568.04 L1239.89 1568.04 L1239.89 1525.93 L1223.03 1525.93 L1223.03 1520.52 Z" fill="#000000" fill-rule="nonzero" fill-opacity="1" /><path clip-path="url(#clip990)" d="M1267.17 1532.4 L1273.03 1532.4 L1273.03 1568.04 L1267.17 1568.04 L1267.17 1532.4 M1267.17 1518.52 L1273.03 1518.52 L1273.03 1525.93 L1267.17 1525.93 L1267.17 1518.52 Z" fill="#000000" fill-rule="nonzero" fill-opacity="1" /><path clip-path="url(#clip990)" d="M1313.04 1539.24 Q1315.23 1535.29 1318.29 1533.41 Q1321.34 1531.54 1325.48 1531.54 Q1331.05 1531.54 1334.08 1535.45 Q1337.1 1539.33 1337.1 1546.53 L1337.1 1568.04 L1331.21 1568.04 L1331.21 1546.72 Q1331.21 1541.59 1329.4 1539.11 Q1327.58 1536.63 1323.86 1536.63 Q1319.31 1536.63 1316.67 1539.65 Q1314.02 1542.68 1314.02 1547.9 L1314.02 1568.04 L1308.14 1568.04 L1308.14 1546.72 Q1308.14 1541.56 1306.32 1539.11 Q1304.51 1536.63 1300.72 1536.63 Q1296.23 1536.63 1293.59 1539.68 Q1290.95 1542.71 1290.95 1547.9 L1290.95 1568.04 L1285.06 1568.04 L1285.06 1532.4 L1290.95 1532.4 L1290.95 1537.93 Q1292.95 1534.66 1295.75 1533.1 Q1298.55 1531.54 1302.41 1531.54 Q1306.29 1531.54 1308.99 1533.51 Q1311.73 1535.48 1313.04 1539.24 Z" fill="#000000" fill-rule="nonzero" fill-opacity="1" /><path clip-path="url(#clip990)" d="M1379.27 1548.76 L1379.27 1551.62 L1352.35 1551.62 Q1352.73 1557.67 1355.97 1560.85 Q1359.25 1564 1365.08 1564 Q1368.45 1564 1371.6 1563.17 Q1374.78 1562.35 1377.9 1560.69 L1377.9 1566.23 Q1374.75 1567.57 1371.44 1568.27 Q1368.13 1568.97 1364.73 1568.97 Q1356.2 1568.97 1351.2 1564 Q1346.23 1559.04 1346.23 1550.57 Q1346.23 1541.82 1350.94 1536.69 Q1355.69 1531.54 1363.71 1531.54 Q1370.9 1531.54 1375.07 1536.18 Q1379.27 1540.8 1379.27 1548.76 M1373.42 1547.04 Q1373.35 1542.23 1370.71 1539.37 Q1368.1 1536.5 1363.77 1536.5 Q1358.87 1536.5 1355.91 1539.27 Q1352.98 1542.04 1352.54 1547.07 L1373.42 1547.04 Z" fill="#000000" fill-rule="nonzero" fill-opacity="1" /><polyline clip-path="url(#clip990)" style="stroke:#000000; stroke-linecap:round; stroke-linejoin:round; stroke-width:4; stroke-opacity:1; fill:none" points="249.542,1423.18 249.542,123.472 "/>
<polyline clip-path="url(#clip990)" style="stroke:#000000; stroke-linecap:round; stroke-linejoin:round; stroke-width:4; stroke-opacity:1; fill:none" points="249.542,1386.4 268.44,1386.4 "/>
<polyline clip-path="url(#clip990)" style="stroke:#000000; stroke-linecap:round; stroke-linejoin:round; stroke-width:4; stroke-opacity:1; fill:none" points="249.542,1079.86 268.44,1079.86 "/>
<polyline clip-path="url(#clip990)" style="stroke:#000000; stroke-linecap:round; stroke-linejoin:round; stroke-width:4; stroke-opacity:1; fill:none" points="249.542,773.326 268.44,773.326 "/>
<polyline clip-path="url(#clip990)" style="stroke:#000000; stroke-linecap:round; stroke-linejoin:round; stroke-width:4; stroke-opacity:1; fill:none" points="249.542,466.791 268.44,466.791 "/>
<polyline clip-path="url(#clip990)" style="stroke:#000000; stroke-linecap:round; stroke-linejoin:round; stroke-width:4; stroke-opacity:1; fill:none" points="249.542,160.256 268.44,160.256 "/>
<path clip-path="url(#clip990)" d="M126.205 1372.19 Q122.593 1372.19 120.765 1375.76 Q118.959 1379.3 118.959 1386.43 Q118.959 1393.54 120.765 1397.1 Q122.593 1400.64 126.205 1400.64 Q129.839 1400.64 131.644 1397.1 Q133.473 1393.54 133.473 1386.43 Q133.473 1379.3 131.644 1375.76 Q129.839 1372.19 126.205 1372.19 M126.205 1368.49 Q132.015 1368.49 135.07 1373.1 Q138.149 1377.68 138.149 1386.43 Q138.149 1395.16 135.07 1399.76 Q132.015 1404.35 126.205 1404.35 Q120.394 1404.35 117.316 1399.76 Q114.26 1395.16 114.26 1386.43 Q114.26 1377.68 117.316 1373.1 Q120.394 1368.49 126.205 1368.49 Z" fill="#000000" fill-rule="nonzero" fill-opacity="1" /><path clip-path="url(#clip990)" d="M146.366 1397.8 L151.251 1397.8 L151.251 1403.68 L146.366 1403.68 L146.366 1397.8 Z" fill="#000000" fill-rule="nonzero" fill-opacity="1" /><path clip-path="url(#clip990)" d="M171.436 1372.19 Q167.825 1372.19 165.996 1375.76 Q164.19 1379.3 164.19 1386.43 Q164.19 1393.54 165.996 1397.1 Q167.825 1400.64 171.436 1400.64 Q175.07 1400.64 176.876 1397.1 Q178.704 1393.54 178.704 1386.43 Q178.704 1379.3 176.876 1375.76 Q175.07 1372.19 171.436 1372.19 M171.436 1368.49 Q177.246 1368.49 180.301 1373.1 Q183.38 1377.68 183.38 1386.43 Q183.38 1395.16 180.301 1399.76 Q177.246 1404.35 171.436 1404.35 Q165.626 1404.35 162.547 1399.76 Q159.491 1395.16 159.491 1386.43 Q159.491 1377.68 162.547 1373.1 Q165.626 1368.49 171.436 1368.49 Z" fill="#000000" fill-rule="nonzero" fill-opacity="1" /><path clip-path="url(#clip990)" d="M201.598 1372.19 Q197.987 1372.19 196.158 1375.76 Q194.352 1379.3 194.352 1386.43 Q194.352 1393.54 196.158 1397.1 Q197.987 1400.64 201.598 1400.64 Q205.232 1400.64 207.037 1397.1 Q208.866 1393.54 208.866 1386.43 Q208.866 1379.3 207.037 1375.76 Q205.232 1372.19 201.598 1372.19 M201.598 1368.49 Q207.408 1368.49 210.463 1373.1 Q213.542 1377.68 213.542 1386.43 Q213.542 1395.16 210.463 1399.76 Q207.408 1404.35 201.598 1404.35 Q195.787 1404.35 192.709 1399.76 Q189.653 1395.16 189.653 1386.43 Q189.653 1377.68 192.709 1373.1 Q195.787 1368.49 201.598 1368.49 Z" fill="#000000" fill-rule="nonzero" fill-opacity="1" /><path clip-path="url(#clip990)" d="M127.2 1065.66 Q123.589 1065.66 121.76 1069.22 Q119.955 1072.77 119.955 1079.9 Q119.955 1087 121.76 1090.57 Q123.589 1094.11 127.2 1094.11 Q130.834 1094.11 132.64 1090.57 Q134.468 1087 134.468 1079.9 Q134.468 1072.77 132.64 1069.22 Q130.834 1065.66 127.2 1065.66 M127.2 1061.96 Q133.01 1061.96 136.066 1066.56 Q139.144 1071.15 139.144 1079.9 Q139.144 1088.62 136.066 1093.23 Q133.01 1097.81 127.2 1097.81 Q121.39 1097.81 118.311 1093.23 Q115.256 1088.62 115.256 1079.9 Q115.256 1071.15 118.311 1066.56 Q121.39 1061.96 127.2 1061.96 Z" fill="#000000" fill-rule="nonzero" fill-opacity="1" /><path clip-path="url(#clip990)" d="M147.362 1091.26 L152.246 1091.26 L152.246 1097.14 L147.362 1097.14 L147.362 1091.26 Z" fill="#000000" fill-rule="nonzero" fill-opacity="1" /><path clip-path="url(#clip990)" d="M166.459 1093.21 L182.778 1093.21 L182.778 1097.14 L160.834 1097.14 L160.834 1093.21 Q163.496 1090.45 168.079 1085.82 Q172.686 1081.17 173.866 1079.83 Q176.112 1077.3 176.991 1075.57 Q177.894 1073.81 177.894 1072.12 Q177.894 1069.36 175.95 1067.63 Q174.028 1065.89 170.927 1065.89 Q168.727 1065.89 166.274 1066.65 Q163.843 1067.42 161.065 1068.97 L161.065 1064.25 Q163.89 1063.11 166.343 1062.53 Q168.797 1061.96 170.834 1061.96 Q176.204 1061.96 179.399 1064.64 Q182.593 1067.33 182.593 1071.82 Q182.593 1073.95 181.783 1075.87 Q180.996 1077.77 178.889 1080.36 Q178.311 1081.03 175.209 1084.25 Q172.107 1087.44 166.459 1093.21 Z" fill="#000000" fill-rule="nonzero" fill-opacity="1" /><path clip-path="url(#clip990)" d="M192.639 1062.58 L210.996 1062.58 L210.996 1066.52 L196.922 1066.52 L196.922 1074.99 Q197.94 1074.64 198.959 1074.48 Q199.977 1074.29 200.996 1074.29 Q206.783 1074.29 210.162 1077.47 Q213.542 1080.64 213.542 1086.05 Q213.542 1091.63 210.07 1094.73 Q206.598 1097.81 200.278 1097.81 Q198.102 1097.81 195.834 1097.44 Q193.588 1097.07 191.181 1096.33 L191.181 1091.63 Q193.264 1092.77 195.487 1093.32 Q197.709 1093.88 200.186 1093.88 Q204.19 1093.88 206.528 1091.77 Q208.866 1089.66 208.866 1086.05 Q208.866 1082.44 206.528 1080.34 Q204.19 1078.23 200.186 1078.23 Q198.311 1078.23 196.436 1078.65 Q194.584 1079.06 192.639 1079.94 L192.639 1062.58 Z" fill="#000000" fill-rule="nonzero" fill-opacity="1" /><path clip-path="url(#clip990)" d="M126.205 759.125 Q122.593 759.125 120.765 762.689 Q118.959 766.231 118.959 773.361 Q118.959 780.467 120.765 784.032 Q122.593 787.574 126.205 787.574 Q129.839 787.574 131.644 784.032 Q133.473 780.467 133.473 773.361 Q133.473 766.231 131.644 762.689 Q129.839 759.125 126.205 759.125 M126.205 755.421 Q132.015 755.421 135.07 760.027 Q138.149 764.611 138.149 773.361 Q138.149 782.088 135.07 786.694 Q132.015 791.277 126.205 791.277 Q120.394 791.277 117.316 786.694 Q114.26 782.088 114.26 773.361 Q114.26 764.611 117.316 760.027 Q120.394 755.421 126.205 755.421 Z" fill="#000000" fill-rule="nonzero" fill-opacity="1" /><path clip-path="url(#clip990)" d="M146.366 784.726 L151.251 784.726 L151.251 790.606 L146.366 790.606 L146.366 784.726 Z" fill="#000000" fill-rule="nonzero" fill-opacity="1" /><path clip-path="url(#clip990)" d="M161.482 756.046 L179.839 756.046 L179.839 759.981 L165.765 759.981 L165.765 768.453 Q166.783 768.106 167.802 767.944 Q168.82 767.759 169.839 767.759 Q175.626 767.759 179.005 770.93 Q182.385 774.101 182.385 779.518 Q182.385 785.097 178.913 788.199 Q175.44 791.277 169.121 791.277 Q166.945 791.277 164.677 790.907 Q162.431 790.537 160.024 789.796 L160.024 785.097 Q162.107 786.231 164.329 786.787 Q166.552 787.342 169.028 787.342 Q173.033 787.342 175.371 785.236 Q177.709 783.129 177.709 779.518 Q177.709 775.907 175.371 773.801 Q173.033 771.694 169.028 771.694 Q167.153 771.694 165.278 772.111 Q163.427 772.527 161.482 773.407 L161.482 756.046 Z" fill="#000000" fill-rule="nonzero" fill-opacity="1" /><path clip-path="url(#clip990)" d="M201.598 759.125 Q197.987 759.125 196.158 762.689 Q194.352 766.231 194.352 773.361 Q194.352 780.467 196.158 784.032 Q197.987 787.574 201.598 787.574 Q205.232 787.574 207.037 784.032 Q208.866 780.467 208.866 773.361 Q208.866 766.231 207.037 762.689 Q205.232 759.125 201.598 759.125 M201.598 755.421 Q207.408 755.421 210.463 760.027 Q213.542 764.611 213.542 773.361 Q213.542 782.088 210.463 786.694 Q207.408 791.277 201.598 791.277 Q195.787 791.277 192.709 786.694 Q189.653 782.088 189.653 773.361 Q189.653 764.611 192.709 760.027 Q195.787 755.421 201.598 755.421 Z" fill="#000000" fill-rule="nonzero" fill-opacity="1" /><path clip-path="url(#clip990)" d="M127.2 452.59 Q123.589 452.59 121.76 456.155 Q119.955 459.696 119.955 466.826 Q119.955 473.932 121.76 477.497 Q123.589 481.039 127.2 481.039 Q130.834 481.039 132.64 477.497 Q134.468 473.932 134.468 466.826 Q134.468 459.696 132.64 456.155 Q130.834 452.59 127.2 452.59 M127.2 448.886 Q133.01 448.886 136.066 453.493 Q139.144 458.076 139.144 466.826 Q139.144 475.553 136.066 480.159 Q133.01 484.742 127.2 484.742 Q121.39 484.742 118.311 480.159 Q115.256 475.553 115.256 466.826 Q115.256 458.076 118.311 453.493 Q121.39 448.886 127.2 448.886 Z" fill="#000000" fill-rule="nonzero" fill-opacity="1" /><path clip-path="url(#clip990)" d="M147.362 478.192 L152.246 478.192 L152.246 484.071 L147.362 484.071 L147.362 478.192 Z" fill="#000000" fill-rule="nonzero" fill-opacity="1" /><path clip-path="url(#clip990)" d="M161.251 449.511 L183.473 449.511 L183.473 451.502 L170.927 484.071 L166.042 484.071 L177.848 453.446 L161.251 453.446 L161.251 449.511 Z" fill="#000000" fill-rule="nonzero" fill-opacity="1" /><path clip-path="url(#clip990)" d="M192.639 449.511 L210.996 449.511 L210.996 453.446 L196.922 453.446 L196.922 461.918 Q197.94 461.571 198.959 461.409 Q199.977 461.224 200.996 461.224 Q206.783 461.224 210.162 464.395 Q213.542 467.567 213.542 472.983 Q213.542 478.562 210.07 481.664 Q206.598 484.742 200.278 484.742 Q198.102 484.742 195.834 484.372 Q193.588 484.002 191.181 483.261 L191.181 478.562 Q193.264 479.696 195.487 480.252 Q197.709 480.807 200.186 480.807 Q204.19 480.807 206.528 478.701 Q208.866 476.594 208.866 472.983 Q208.866 469.372 206.528 467.266 Q204.19 465.159 200.186 465.159 Q198.311 465.159 196.436 465.576 Q194.584 465.993 192.639 466.872 L192.639 449.511 Z" fill="#000000" fill-rule="nonzero" fill-opacity="1" /><path clip-path="url(#clip990)" d="M117.015 173.601 L124.654 173.601 L124.654 147.236 L116.343 148.902 L116.343 144.643 L124.607 142.976 L129.283 142.976 L129.283 173.601 L136.922 173.601 L136.922 177.536 L117.015 177.536 L117.015 173.601 Z" fill="#000000" fill-rule="nonzero" fill-opacity="1" /><path clip-path="url(#clip990)" d="M146.366 171.657 L151.251 171.657 L151.251 177.536 L146.366 177.536 L146.366 171.657 Z" fill="#000000" fill-rule="nonzero" fill-opacity="1" /><path clip-path="url(#clip990)" d="M171.436 146.055 Q167.825 146.055 165.996 149.62 Q164.19 153.161 164.19 160.291 Q164.19 167.397 165.996 170.962 Q167.825 174.504 171.436 174.504 Q175.07 174.504 176.876 170.962 Q178.704 167.397 178.704 160.291 Q178.704 153.161 176.876 149.62 Q175.07 146.055 171.436 146.055 M171.436 142.351 Q177.246 142.351 180.301 146.958 Q183.38 151.541 183.38 160.291 Q183.38 169.018 180.301 173.624 Q177.246 178.208 171.436 178.208 Q165.626 178.208 162.547 173.624 Q159.491 169.018 159.491 160.291 Q159.491 151.541 162.547 146.958 Q165.626 142.351 171.436 142.351 Z" fill="#000000" fill-rule="nonzero" fill-opacity="1" /><path clip-path="url(#clip990)" d="M201.598 146.055 Q197.987 146.055 196.158 149.62 Q194.352 153.161 194.352 160.291 Q194.352 167.397 196.158 170.962 Q197.987 174.504 201.598 174.504 Q205.232 174.504 207.037 170.962 Q208.866 167.397 208.866 160.291 Q208.866 153.161 207.037 149.62 Q205.232 146.055 201.598 146.055 M201.598 142.351 Q207.408 142.351 210.463 146.958 Q213.542 151.541 213.542 160.291 Q213.542 169.018 210.463 173.624 Q207.408 178.208 201.598 178.208 Q195.787 178.208 192.709 173.624 Q189.653 169.018 189.653 160.291 Q189.653 151.541 192.709 146.958 Q195.787 142.351 201.598 142.351 Z" fill="#000000" fill-rule="nonzero" fill-opacity="1" /><path clip-path="url(#clip990)" d="M18.0438 868.939 L24.314 868.939 Q22.5634 872.599 21.704 875.846 Q20.8447 879.092 20.8447 882.116 Q20.8447 887.368 22.8817 890.232 Q24.9187 893.065 28.6745 893.065 Q31.8255 893.065 33.4488 891.187 Q35.0402 889.277 36.0269 883.994 L36.8226 880.111 Q38.1912 872.917 41.6605 869.512 Q45.098 866.074 50.8908 866.074 Q57.7976 866.074 61.3624 870.721 Q64.9272 875.336 64.9272 884.28 Q64.9272 887.654 64.1633 891.473 Q63.3994 895.261 61.9035 899.335 L55.2831 899.335 Q57.4793 895.42 58.5933 891.664 Q59.7073 887.909 59.7073 884.28 Q59.7073 878.774 57.543 875.782 Q55.3786 872.79 51.3682 872.79 Q47.8671 872.79 45.8937 874.954 Q43.9204 877.087 42.9337 881.989 L42.1698 885.904 Q40.7375 893.097 37.682 896.311 Q34.6264 899.526 29.1837 899.526 Q22.8817 899.526 19.2532 895.102 Q15.6248 890.646 15.6248 882.848 Q15.6248 879.506 16.2295 876.037 Q16.8343 872.567 18.0438 868.939 Z" fill="#000000" fill-rule="nonzero" fill-opacity="1" /><path clip-path="url(#clip990)" d="M49.9359 856.908 L28.3562 856.908 L28.3562 851.051 L49.7131 851.051 Q54.7739 851.051 57.3202 849.078 Q59.8346 847.105 59.8346 843.158 Q59.8346 838.415 56.8109 835.678 Q53.7872 832.909 48.5673 832.909 L28.3562 832.909 L28.3562 827.053 L64.0042 827.053 L64.0042 832.909 L58.5296 832.909 Q61.7762 835.042 63.3676 837.874 Q64.9272 840.675 64.9272 844.399 Q64.9272 850.542 61.1078 853.725 Q57.2883 856.908 49.9359 856.908 M27.4968 842.171 L27.4968 842.171 Z" fill="#000000" fill-rule="nonzero" fill-opacity="1" /><path clip-path="url(#clip990)" d="M33.8307 794.333 Q33.2578 795.32 33.0032 796.497 Q32.7167 797.643 32.7167 799.043 Q32.7167 804.009 35.9632 806.682 Q39.1779 809.324 45.2253 809.324 L64.0042 809.324 L64.0042 815.212 L28.3562 815.212 L28.3562 809.324 L33.8944 809.324 Q30.6479 807.478 29.0883 804.518 Q27.4968 801.558 27.4968 797.325 Q27.4968 796.72 27.5923 795.988 Q27.656 795.256 27.8151 794.365 L33.8307 794.333 Z" fill="#000000" fill-rule="nonzero" fill-opacity="1" /><path clip-path="url(#clip990)" d="M28.3562 792.391 L28.3562 786.185 L58.275 775.045 L28.3562 763.905 L28.3562 757.698 L64.0042 771.066 L64.0042 779.023 L28.3562 792.391 Z" fill="#000000" fill-rule="nonzero" fill-opacity="1" /><path clip-path="url(#clip990)" d="M28.3562 749.614 L28.3562 743.757 L64.0042 743.757 L64.0042 749.614 L28.3562 749.614 M14.479 749.614 L14.479 743.757 L21.895 743.757 L21.895 749.614 L14.479 749.614 Z" fill="#000000" fill-rule="nonzero" fill-opacity="1" /><path clip-path="url(#clip990)" d="M28.3562 735.705 L28.3562 729.498 L58.275 718.358 L28.3562 707.218 L28.3562 701.012 L64.0042 714.38 L64.0042 722.337 L28.3562 735.705 Z" fill="#000000" fill-rule="nonzero" fill-opacity="1" /><path clip-path="url(#clip990)" d="M46.0847 676.726 Q46.0847 683.824 47.7079 686.561 Q49.3312 689.299 53.2461 689.299 Q56.3653 689.299 58.2114 687.262 Q60.0256 685.193 60.0256 681.66 Q60.0256 676.79 56.5881 673.862 Q53.1188 670.902 47.3897 670.902 L46.0847 670.902 L46.0847 676.726 M43.6657 665.045 L64.0042 665.045 L64.0042 670.902 L58.5933 670.902 Q61.8398 672.907 63.3994 675.899 Q64.9272 678.891 64.9272 683.219 Q64.9272 688.694 61.8716 691.94 Q58.7843 695.155 53.6281 695.155 Q47.6125 695.155 44.5569 691.145 Q41.5014 687.102 41.5014 679.114 L41.5014 670.902 L40.9285 670.902 Q36.8862 670.902 34.6901 673.575 Q32.4621 676.217 32.4621 681.023 Q32.4621 684.079 33.1941 686.975 Q33.9262 689.872 35.3903 692.545 L29.9795 692.545 Q28.7381 689.33 28.1334 686.307 Q27.4968 683.283 27.4968 680.418 Q27.4968 672.684 31.5072 668.865 Q35.5176 665.045 43.6657 665.045 Z" fill="#000000" fill-rule="nonzero" fill-opacity="1" /><path clip-path="url(#clip990)" d="M14.479 652.982 L14.479 647.126 L64.0042 647.126 L64.0042 652.982 L14.479 652.982 Z" fill="#000000" fill-rule="nonzero" fill-opacity="1" /><path clip-path="url(#clip990)" d="M905.173 12.096 L913.437 12.096 L926.157 63.2184 L938.836 12.096 L948.032 12.096 L960.751 63.2184 L973.431 12.096 L981.735 12.096 L966.544 72.576 L956.255 72.576 L943.495 20.0763 L930.613 72.576 L920.323 72.576 L905.173 12.096 Z" fill="#000000" fill-rule="nonzero" fill-opacity="1" /><path clip-path="url(#clip990)" d="M1026.21 48.0275 L1026.21 51.6733 L991.943 51.6733 Q992.43 59.3701 996.561 63.421 Q1000.73 67.4314 1008.15 67.4314 Q1012.44 67.4314 1016.45 66.3781 Q1020.5 65.3249 1024.47 63.2184 L1024.47 70.267 Q1020.46 71.9684 1016.25 72.8596 Q1012.04 73.7508 1007.7 73.7508 Q996.845 73.7508 990.485 67.4314 Q984.166 61.1119 984.166 50.3365 Q984.166 39.1965 990.161 32.6746 Q996.197 26.1121 1006.41 26.1121 Q1015.56 26.1121 1020.87 32.0264 Q1026.21 37.9003 1026.21 48.0275 M1018.76 45.84 Q1018.68 39.7232 1015.32 36.0774 Q1012 32.4315 1006.49 32.4315 Q1000.25 32.4315 996.48 35.9558 Q992.754 39.4801 992.187 45.8805 L1018.76 45.84 Z" fill="#000000" fill-rule="nonzero" fill-opacity="1" /><path clip-path="url(#clip990)" d="M1038.45 27.2059 L1045.9 27.2059 L1045.9 72.576 L1038.45 72.576 L1038.45 27.2059 M1038.45 9.54393 L1045.9 9.54393 L1045.9 18.9825 L1038.45 18.9825 L1038.45 9.54393 Z" fill="#000000" fill-rule="nonzero" fill-opacity="1" /><path clip-path="url(#clip990)" d="M1094.07 49.9314 Q1094.07 41.7081 1090.66 37.0496 Q1087.3 32.3505 1081.39 32.3505 Q1075.47 32.3505 1072.07 37.0496 Q1068.71 41.7081 1068.71 49.9314 Q1068.71 58.1548 1072.07 62.8538 Q1075.47 67.5124 1081.39 67.5124 Q1087.3 67.5124 1090.66 62.8538 Q1094.07 58.1548 1094.07 49.9314 M1068.71 34.0924 Q1071.06 30.0415 1074.62 28.0971 Q1078.23 26.1121 1083.21 26.1121 Q1091.47 26.1121 1096.62 32.6746 Q1101.8 39.2371 1101.8 49.9314 Q1101.8 60.6258 1096.62 67.1883 Q1091.47 73.7508 1083.21 73.7508 Q1078.23 73.7508 1074.62 71.8063 Q1071.06 69.8214 1068.71 65.7705 L1068.71 72.576 L1061.21 72.576 L1061.21 9.54393 L1068.71 9.54393 L1068.71 34.0924 Z" fill="#000000" fill-rule="nonzero" fill-opacity="1" /><path clip-path="url(#clip990)" d="M1113.39 54.671 L1113.39 27.2059 L1120.84 27.2059 L1120.84 54.3874 Q1120.84 60.8284 1123.35 64.0691 Q1125.87 67.2693 1130.89 67.2693 Q1136.93 67.2693 1140.41 63.421 Q1143.93 59.5726 1143.93 52.9291 L1143.93 27.2059 L1151.39 27.2059 L1151.39 72.576 L1143.93 72.576 L1143.93 65.6084 Q1141.22 69.7404 1137.61 71.7658 Q1134.05 73.7508 1129.31 73.7508 Q1121.49 73.7508 1117.44 68.8897 Q1113.39 64.0286 1113.39 54.671 M1132.15 26.1121 L1132.15 26.1121 Z" fill="#000000" fill-rule="nonzero" fill-opacity="1" /><path clip-path="url(#clip990)" d="M1166.74 9.54393 L1174.19 9.54393 L1174.19 72.576 L1166.74 72.576 L1166.74 9.54393 Z" fill="#000000" fill-rule="nonzero" fill-opacity="1" /><path clip-path="url(#clip990)" d="M1189.79 9.54393 L1197.24 9.54393 L1197.24 72.576 L1189.79 72.576 L1189.79 9.54393 Z" fill="#000000" fill-rule="nonzero" fill-opacity="1" /><path clip-path="url(#clip990)" d="M1269.07 34.0924 L1269.07 9.54393 L1276.52 9.54393 L1276.52 72.576 L1269.07 72.576 L1269.07 65.7705 Q1266.72 69.8214 1263.11 71.8063 Q1259.55 73.7508 1254.52 73.7508 Q1246.3 73.7508 1241.11 67.1883 Q1235.97 60.6258 1235.97 49.9314 Q1235.97 39.2371 1241.11 32.6746 Q1246.3 26.1121 1254.52 26.1121 Q1259.55 26.1121 1263.11 28.0971 Q1266.72 30.0415 1269.07 34.0924 M1243.67 49.9314 Q1243.67 58.1548 1247.03 62.8538 Q1250.43 67.5124 1256.35 67.5124 Q1262.26 67.5124 1265.66 62.8538 Q1269.07 58.1548 1269.07 49.9314 Q1269.07 41.7081 1265.66 37.0496 Q1262.26 32.3505 1256.35 32.3505 Q1250.43 32.3505 1247.03 37.0496 Q1243.67 41.7081 1243.67 49.9314 Z" fill="#000000" fill-rule="nonzero" fill-opacity="1" /><path clip-path="url(#clip990)" d="M1291.87 27.2059 L1299.33 27.2059 L1299.33 72.576 L1291.87 72.576 L1291.87 27.2059 M1291.87 9.54393 L1299.33 9.54393 L1299.33 18.9825 L1291.87 18.9825 L1291.87 9.54393 Z" fill="#000000" fill-rule="nonzero" fill-opacity="1" /><path clip-path="url(#clip990)" d="M1343.85 28.5427 L1343.85 35.5912 Q1340.69 33.9709 1337.28 33.1607 Q1333.88 32.3505 1330.23 32.3505 Q1324.68 32.3505 1321.89 34.0519 Q1319.13 35.7533 1319.13 39.156 Q1319.13 41.7486 1321.12 43.2475 Q1323.1 44.7058 1329.1 46.0426 L1331.65 46.6097 Q1339.59 48.3111 1342.91 51.4303 Q1346.28 54.509 1346.28 60.0587 Q1346.28 66.3781 1341.25 70.0644 Q1336.27 73.7508 1327.52 73.7508 Q1323.87 73.7508 1319.9 73.0216 Q1315.98 72.3329 1311.6 70.9151 L1311.6 63.2184 Q1315.73 65.3654 1319.74 66.4591 Q1323.75 67.5124 1327.68 67.5124 Q1332.95 67.5124 1335.78 65.73 Q1338.62 63.9071 1338.62 60.6258 Q1338.62 57.5877 1336.55 55.9673 Q1334.53 54.3469 1327.6 52.8481 L1325.01 52.2405 Q1318.08 50.7821 1315 47.7845 Q1311.92 44.7463 1311.92 39.4801 Q1311.92 33.0797 1316.46 29.5959 Q1321 26.1121 1329.34 26.1121 Q1333.48 26.1121 1337.12 26.7198 Q1340.77 27.3274 1343.85 28.5427 Z" fill="#000000" fill-rule="nonzero" fill-opacity="1" /><path clip-path="url(#clip990)" d="M1365.52 14.324 L1365.52 27.2059 L1380.87 27.2059 L1380.87 32.9987 L1365.52 32.9987 L1365.52 57.6282 Q1365.52 63.1779 1367.02 64.7578 Q1368.56 66.3376 1373.21 66.3376 L1380.87 66.3376 L1380.87 72.576 L1373.21 72.576 Q1364.59 72.576 1361.3 69.3758 Q1358.02 66.1351 1358.02 57.6282 L1358.02 32.9987 L1352.55 32.9987 L1352.55 27.2059 L1358.02 27.2059 L1358.02 14.324 L1365.52 14.324 Z" fill="#000000" fill-rule="nonzero" fill-opacity="1" /><path clip-path="url(#clip990)" d="M1416.96 34.1734 Q1415.71 33.4443 1414.21 33.1202 Q1412.75 32.7556 1410.97 32.7556 Q1404.65 32.7556 1401.25 36.8875 Q1397.88 40.9789 1397.88 48.6757 L1397.88 72.576 L1390.39 72.576 L1390.39 27.2059 L1397.88 27.2059 L1397.88 34.2544 Q1400.23 30.1225 1404 28.1376 Q1407.77 26.1121 1413.16 26.1121 Q1413.93 26.1121 1414.86 26.2337 Q1415.79 26.3147 1416.92 26.5172 L1416.96 34.1734 Z" fill="#000000" fill-rule="nonzero" fill-opacity="1" /><path clip-path="url(#clip990)" d="M1424.78 27.2059 L1432.24 27.2059 L1432.24 72.576 L1424.78 72.576 L1424.78 27.2059 M1424.78 9.54393 L1432.24 9.54393 L1432.24 18.9825 L1424.78 18.9825 L1424.78 9.54393 Z" fill="#000000" fill-rule="nonzero" fill-opacity="1" /><path clip-path="url(#clip990)" d="M1480.4 49.9314 Q1480.4 41.7081 1477 37.0496 Q1473.64 32.3505 1467.72 32.3505 Q1461.81 32.3505 1458.41 37.0496 Q1455.04 41.7081 1455.04 49.9314 Q1455.04 58.1548 1458.41 62.8538 Q1461.81 67.5124 1467.72 67.5124 Q1473.64 67.5124 1477 62.8538 Q1480.4 58.1548 1480.4 49.9314 M1455.04 34.0924 Q1457.39 30.0415 1460.96 28.0971 Q1464.56 26.1121 1469.55 26.1121 Q1477.81 26.1121 1482.95 32.6746 Q1488.14 39.2371 1488.14 49.9314 Q1488.14 60.6258 1482.95 67.1883 Q1477.81 73.7508 1469.55 73.7508 Q1464.56 73.7508 1460.96 71.8063 Q1457.39 69.8214 1455.04 65.7705 L1455.04 72.576 L1447.55 72.576 L1447.55 9.54393 L1455.04 9.54393 L1455.04 34.0924 Z" fill="#000000" fill-rule="nonzero" fill-opacity="1" /><path clip-path="url(#clip990)" d="M1499.72 54.671 L1499.72 27.2059 L1507.18 27.2059 L1507.18 54.3874 Q1507.18 60.8284 1509.69 64.0691 Q1512.2 67.2693 1517.22 67.2693 Q1523.26 67.2693 1526.74 63.421 Q1530.27 59.5726 1530.27 52.9291 L1530.27 27.2059 L1537.72 27.2059 L1537.72 72.576 L1530.27 72.576 L1530.27 65.6084 Q1527.55 69.7404 1523.95 71.7658 Q1520.38 73.7508 1515.64 73.7508 Q1507.83 73.7508 1503.78 68.8897 Q1499.72 64.0286 1499.72 54.671 M1518.48 26.1121 L1518.48 26.1121 Z" fill="#000000" fill-rule="nonzero" fill-opacity="1" /><path clip-path="url(#clip990)" d="M1560.45 14.324 L1560.45 27.2059 L1575.8 27.2059 L1575.8 32.9987 L1560.45 32.9987 L1560.45 57.6282 Q1560.45 63.1779 1561.95 64.7578 Q1563.49 66.3376 1568.14 66.3376 L1575.8 66.3376 L1575.8 72.576 L1568.14 72.576 Q1559.52 72.576 1556.23 69.3758 Q1552.95 66.1351 1552.95 57.6282 L1552.95 32.9987 L1547.48 32.9987 L1547.48 27.2059 L1552.95 27.2059 L1552.95 14.324 L1560.45 14.324 Z" fill="#000000" fill-rule="nonzero" fill-opacity="1" /><path clip-path="url(#clip990)" d="M1585.6 27.2059 L1593.06 27.2059 L1593.06 72.576 L1585.6 72.576 L1585.6 27.2059 M1585.6 9.54393 L1593.06 9.54393 L1593.06 18.9825 L1585.6 18.9825 L1585.6 9.54393 Z" fill="#000000" fill-rule="nonzero" fill-opacity="1" /><path clip-path="url(#clip990)" d="M1626.23 32.4315 Q1620.24 32.4315 1616.75 37.1306 Q1613.27 41.7891 1613.27 49.9314 Q1613.27 58.0738 1616.71 62.7728 Q1620.2 67.4314 1626.23 67.4314 Q1632.19 67.4314 1635.67 62.7323 Q1639.16 58.0333 1639.16 49.9314 Q1639.16 41.8701 1635.67 37.1711 Q1632.19 32.4315 1626.23 32.4315 M1626.23 26.1121 Q1635.96 26.1121 1641.51 32.4315 Q1647.06 38.7509 1647.06 49.9314 Q1647.06 61.0714 1641.51 67.4314 Q1635.96 73.7508 1626.23 73.7508 Q1616.47 73.7508 1610.92 67.4314 Q1605.41 61.0714 1605.41 49.9314 Q1605.41 38.7509 1610.92 32.4315 Q1616.47 26.1121 1626.23 26.1121 Z" fill="#000000" fill-rule="nonzero" fill-opacity="1" /><path clip-path="url(#clip990)" d="M1697.12 45.1919 L1697.12 72.576 L1689.67 72.576 L1689.67 45.4349 Q1689.67 38.994 1687.16 35.7938 Q1684.65 32.5936 1679.62 32.5936 Q1673.59 32.5936 1670.11 36.4419 Q1666.62 40.2903 1666.62 46.9338 L1666.62 72.576 L1659.13 72.576 L1659.13 27.2059 L1666.62 27.2059 L1666.62 34.2544 Q1669.3 30.163 1672.9 28.1376 Q1676.55 26.1121 1681.29 26.1121 Q1689.1 26.1121 1693.11 30.9732 Q1697.12 35.7938 1697.12 45.1919 Z" fill="#000000" fill-rule="nonzero" fill-opacity="1" /><polyline clip-path="url(#clip992)" style="stroke:#000000; stroke-linecap:round; stroke-linejoin:round; stroke-width:4; stroke-opacity:1; fill:none" points="309.067,160.256 329.109,164.534 349.151,170.409 369.193,177.065 389.235,184.269 409.277,191.896 429.319,199.864 449.361,208.117 469.403,216.61 489.446,225.309 509.488,234.187 529.53,243.219 549.572,252.386 569.614,261.671 589.656,271.058 609.698,280.535 629.74,290.088 649.782,299.707 669.824,309.383 689.866,319.106 709.908,328.869 729.95,338.663 749.992,348.483 770.034,358.322 790.076,368.173 810.118,378.032 830.161,387.893 850.203,397.752 870.245,407.603 890.287,417.444 910.329,427.27 930.371,437.077 950.413,446.862 970.455,456.622 990.497,466.354 1010.54,476.055 1030.58,485.722 1050.62,495.352 1070.67,504.944 1090.71,514.495 1110.75,524.003 1130.79,533.466 1150.83,542.883 1170.88,552.25 1190.92,561.568 1210.96,570.833 1231,580.045 1251.04,589.203 1271.09,598.305 1291.13,607.349 1311.17,616.335 1331.21,625.262 1351.25,634.129 1371.3,642.934 1391.34,651.677 1411.38,660.357 1431.42,668.974 1451.46,677.526 1471.51,686.013 1491.55,694.435 1511.59,702.791 1531.63,711.079 1551.67,719.301 1571.72,727.456 1591.76,735.542 1611.8,743.561 1631.84,751.511 1651.89,759.392 1671.93,767.205 1691.97,774.948 1712.01,782.622 1732.05,790.227 1752.1,797.762 1772.14,805.228 1792.18,812.625 1812.22,819.951 1832.26,827.209 1852.31,834.396 1872.35,841.515 1892.39,848.564 1912.43,855.543 1932.47,862.454 1952.52,869.295 1972.56,876.068 1992.6,882.772 2012.64,889.408 2032.68,895.975 2052.73,902.474 2072.77,908.906 2092.81,915.27 2112.85,921.567 2132.89,927.796 2152.94,933.959 2172.98,940.056 2193.02,946.087 2213.06,952.052 2233.1,957.951 2253.15,963.786 2273.19,969.556 2293.23,975.261 "/>
<polyline clip-path="url(#clip992)" style="stroke:#ff0000; stroke-linecap:round; stroke-linejoin:round; stroke-width:4; stroke-opacity:1; fill:none" points="309.067,160.256 329.109,275.331 349.151,416.5 369.193,555.573 389.235,684.389 409.277,799.71 429.319,900.609 449.361,987.389 469.403,1061.01 489.446,1122.77 509.488,1174.07 529.53,1216.33 549.572,1250.87 569.614,1278.91 589.656,1301.53 609.698,1319.68 629.74,1334.16 649.782,1345.65 669.824,1354.73 689.866,1361.88 709.908,1367.47 729.95,1371.84 749.992,1375.23 770.034,1377.86 790.076,1379.89 810.118,1381.45 830.161,1382.65 850.203,1383.56 870.245,1384.26 890.287,1384.79 910.329,1385.19 930.371,1385.49 950.413,1385.72 970.455,1385.89 990.497,1386.02 1010.54,1386.12 1030.58,1386.19 1050.62,1386.24 1070.67,1386.28 1090.71,1386.31 1110.75,1386.34 1130.79,1386.35 1150.83,1386.36 1170.88,1386.37 1190.92,1386.38 1210.96,1386.38 1231,1386.39 1251.04,1386.39 1271.09,1386.39 1291.13,1386.39 1311.17,1386.39 1331.21,1386.39 1351.25,1386.39 1371.3,1386.39 1391.34,1386.4 1411.38,1386.4 1431.42,1386.4 1451.46,1386.4 1471.51,1386.4 1491.55,1386.4 1511.59,1386.4 1531.63,1386.4 1551.67,1386.4 1571.72,1386.4 1591.76,1386.4 1611.8,1386.4 1631.84,1386.4 1651.89,1386.4 1671.93,1386.4 1691.97,1386.4 1712.01,1386.4 1732.05,1386.4 1752.1,1386.4 1772.14,1386.4 1792.18,1386.4 1812.22,1386.4 1832.26,1386.4 1852.31,1386.4 1872.35,1386.4 1892.39,1386.4 1912.43,1386.4 1932.47,1386.4 1952.52,1386.4 1972.56,1386.4 1992.6,1386.4 2012.64,1386.4 2032.68,1386.4 2052.73,1386.4 2072.77,1386.4 2092.81,1386.4 2112.85,1386.4 2132.89,1386.4 2152.94,1386.4 2172.98,1386.4 2193.02,1386.4 2213.06,1386.4 2233.1,1386.4 2253.15,1386.4 2273.19,1386.4 2293.23,1386.4 "/>
<path clip-path="url(#clip990)" d="M1649.2 322.316 L2282.65 322.316 L2282.65 166.796 L1649.2 166.796  Z" fill="#ffffff" fill-rule="evenodd" fill-opacity="1"/>
<polyline clip-path="url(#clip990)" style="stroke:#000000; stroke-linecap:round; stroke-linejoin:round; stroke-width:4; stroke-opacity:1; fill:none" points="1649.2,322.316 2282.65,322.316 2282.65,166.796 1649.2,166.796 1649.2,322.316 "/>
<polyline clip-path="url(#clip990)" style="stroke:#000000; stroke-linecap:round; stroke-linejoin:round; stroke-width:4; stroke-opacity:1; fill:none" points="1672.57,218.636 1812.79,218.636 "/>
<path clip-path="url(#clip990)" d="M1837.73 201.356 L1842.75 201.356 L1851.34 214.203 L1859.98 201.356 L1865 201.356 L1853.89 217.953 L1865.74 235.916 L1860.72 235.916 L1850.99 221.217 L1841.2 235.916 L1836.16 235.916 L1848.49 217.467 L1837.73 201.356 Z" fill="#000000" fill-rule="nonzero" fill-opacity="1" /><path clip-path="url(#clip990)" d="M1872.24 214.388 L1901.92 214.388 L1901.92 218.277 L1872.24 218.277 L1872.24 214.388 M1872.24 223.832 L1901.92 223.832 L1901.92 227.768 L1872.24 227.768 L1872.24 223.832 Z" fill="#000000" fill-rule="nonzero" fill-opacity="1" /><path clip-path="url(#clip990)" d="M1922.01 204.434 Q1918.4 204.434 1916.57 207.999 Q1914.77 211.541 1914.77 218.67 Q1914.77 225.777 1916.57 229.342 Q1918.4 232.883 1922.01 232.883 Q1925.65 232.883 1927.45 229.342 Q1929.28 225.777 1929.28 218.67 Q1929.28 211.541 1927.45 207.999 Q1925.65 204.434 1922.01 204.434 M1922.01 200.731 Q1927.82 200.731 1930.88 205.337 Q1933.96 209.92 1933.96 218.67 Q1933.96 227.397 1930.88 232.004 Q1927.82 236.587 1922.01 236.587 Q1916.2 236.587 1913.12 232.004 Q1910.07 227.397 1910.07 218.67 Q1910.07 209.92 1913.12 205.337 Q1916.2 200.731 1922.01 200.731 Z" fill="#000000" fill-rule="nonzero" fill-opacity="1" /><path clip-path="url(#clip990)" d="M1942.66 230.036 L1947.55 230.036 L1947.55 234.018 L1943.75 241.425 L1940.76 241.425 L1942.66 234.018 L1942.66 230.036 Z" fill="#000000" fill-rule="nonzero" fill-opacity="1" /><path clip-path="url(#clip990)" d="M1969.91 201.356 L1997.06 201.356 L1997.06 204.921 L1975.21 231.981 L1997.59 231.981 L1997.59 235.916 L1969.37 235.916 L1969.37 232.351 L1991.23 205.291 L1969.91 205.291 L1969.91 201.356 Z" fill="#000000" fill-rule="nonzero" fill-opacity="1" /><path clip-path="url(#clip990)" d="M2005.6 231.981 L2013.24 231.981 L2013.24 205.615 L2004.93 207.282 L2004.93 203.022 L2013.19 201.356 L2017.87 201.356 L2017.87 231.981 L2025.51 231.981 L2025.51 235.916 L2005.6 235.916 L2005.6 231.981 Z" fill="#000000" fill-rule="nonzero" fill-opacity="1" /><path clip-path="url(#clip990)" d="M2034.91 214.388 L2064.58 214.388 L2064.58 218.277 L2034.91 218.277 L2034.91 214.388 M2034.91 223.832 L2064.58 223.832 L2064.58 227.768 L2034.91 227.768 L2034.91 223.832 Z" fill="#000000" fill-rule="nonzero" fill-opacity="1" /><path clip-path="url(#clip990)" d="M2084.67 204.434 Q2081.06 204.434 2079.23 207.999 Q2077.43 211.541 2077.43 218.67 Q2077.43 225.777 2079.23 229.342 Q2081.06 232.883 2084.67 232.883 Q2088.31 232.883 2090.11 229.342 Q2091.94 225.777 2091.94 218.67 Q2091.94 211.541 2090.11 207.999 Q2088.31 204.434 2084.67 204.434 M2084.67 200.731 Q2090.48 200.731 2093.54 205.337 Q2096.62 209.92 2096.62 218.67 Q2096.62 227.397 2093.54 232.004 Q2090.48 236.587 2084.67 236.587 Q2078.86 236.587 2075.79 232.004 Q2072.73 227.397 2072.73 218.67 Q2072.73 209.92 2075.79 205.337 Q2078.86 200.731 2084.67 200.731 Z" fill="#000000" fill-rule="nonzero" fill-opacity="1" /><path clip-path="url(#clip990)" d="M2105.32 230.036 L2110.21 230.036 L2110.21 234.018 L2106.41 241.425 L2103.42 241.425 L2105.32 234.018 L2105.32 230.036 Z" fill="#000000" fill-rule="nonzero" fill-opacity="1" /><path clip-path="url(#clip990)" d="M2132.57 201.356 L2159.72 201.356 L2159.72 204.921 L2137.87 231.981 L2160.25 231.981 L2160.25 235.916 L2132.04 235.916 L2132.04 232.351 L2153.89 205.291 L2132.57 205.291 L2132.57 201.356 Z" fill="#000000" fill-rule="nonzero" fill-opacity="1" /><path clip-path="url(#clip990)" d="M2171.48 231.981 L2187.8 231.981 L2187.8 235.916 L2165.85 235.916 L2165.85 231.981 Q2168.52 229.226 2173.1 224.596 Q2177.71 219.944 2178.89 218.601 Q2181.13 216.078 2182.01 214.342 Q2182.91 212.583 2182.91 210.893 Q2182.91 208.138 2180.97 206.402 Q2179.05 204.666 2175.95 204.666 Q2173.75 204.666 2171.29 205.43 Q2168.86 206.194 2166.09 207.745 L2166.09 203.022 Q2168.91 201.888 2171.36 201.309 Q2173.82 200.731 2175.85 200.731 Q2181.22 200.731 2184.42 203.416 Q2187.61 206.101 2187.61 210.592 Q2187.61 212.721 2186.8 214.643 Q2186.02 216.541 2183.91 219.133 Q2183.33 219.805 2180.23 223.022 Q2177.13 226.217 2171.48 231.981 Z" fill="#000000" fill-rule="nonzero" fill-opacity="1" /><path clip-path="url(#clip990)" d="M2197.57 214.388 L2227.24 214.388 L2227.24 218.277 L2197.57 218.277 L2197.57 214.388 M2197.57 223.832 L2227.24 223.832 L2227.24 227.768 L2197.57 227.768 L2197.57 223.832 Z" fill="#000000" fill-rule="nonzero" fill-opacity="1" /><path clip-path="url(#clip990)" d="M2247.34 204.434 Q2243.72 204.434 2241.9 207.999 Q2240.09 211.541 2240.09 218.67 Q2240.09 225.777 2241.9 229.342 Q2243.72 232.883 2247.34 232.883 Q2250.97 232.883 2252.78 229.342 Q2254.6 225.777 2254.6 218.67 Q2254.6 211.541 2252.78 207.999 Q2250.97 204.434 2247.34 204.434 M2247.34 200.731 Q2253.15 200.731 2256.2 205.337 Q2259.28 209.92 2259.28 218.67 Q2259.28 227.397 2256.2 232.004 Q2253.15 236.587 2247.34 236.587 Q2241.53 236.587 2238.45 232.004 Q2235.39 227.397 2235.39 218.67 Q2235.39 209.92 2238.45 205.337 Q2241.53 200.731 2247.34 200.731 Z" fill="#000000" fill-rule="nonzero" fill-opacity="1" /><polyline clip-path="url(#clip990)" style="stroke:#ff0000; stroke-linecap:round; stroke-linejoin:round; stroke-width:4; stroke-opacity:1; fill:none" points="1672.57,270.476 1812.79,270.476 "/>
<path clip-path="url(#clip990)" d="M1837.73 253.196 L1842.75 253.196 L1851.34 266.043 L1859.98 253.196 L1865 253.196 L1853.89 269.793 L1865.74 287.756 L1860.72 287.756 L1850.99 273.057 L1841.2 287.756 L1836.16 287.756 L1848.49 269.307 L1837.73 253.196 Z" fill="#000000" fill-rule="nonzero" fill-opacity="1" /><path clip-path="url(#clip990)" d="M1872.24 266.228 L1901.92 266.228 L1901.92 270.117 L1872.24 270.117 L1872.24 266.228 M1872.24 275.672 L1901.92 275.672 L1901.92 279.608 L1872.24 279.608 L1872.24 275.672 Z" fill="#000000" fill-rule="nonzero" fill-opacity="1" /><path clip-path="url(#clip990)" d="M1912.82 283.821 L1920.46 283.821 L1920.46 257.455 L1912.15 259.122 L1912.15 254.862 L1920.42 253.196 L1925.09 253.196 L1925.09 283.821 L1932.73 283.821 L1932.73 287.756 L1912.82 287.756 L1912.82 283.821 Z" fill="#000000" fill-rule="nonzero" fill-opacity="1" /><path clip-path="url(#clip990)" d="M1942.66 281.876 L1947.55 281.876 L1947.55 285.858 L1943.75 293.265 L1940.76 293.265 L1942.66 285.858 L1942.66 281.876 Z" fill="#000000" fill-rule="nonzero" fill-opacity="1" /><path clip-path="url(#clip990)" d="M1969.91 253.196 L1997.06 253.196 L1997.06 256.761 L1975.21 283.821 L1997.59 283.821 L1997.59 287.756 L1969.37 287.756 L1969.37 284.191 L1991.23 257.131 L1969.91 257.131 L1969.91 253.196 Z" fill="#000000" fill-rule="nonzero" fill-opacity="1" /><path clip-path="url(#clip990)" d="M2005.6 283.821 L2013.24 283.821 L2013.24 257.455 L2004.93 259.122 L2004.93 254.862 L2013.19 253.196 L2017.87 253.196 L2017.87 283.821 L2025.51 283.821 L2025.51 287.756 L2005.6 287.756 L2005.6 283.821 Z" fill="#000000" fill-rule="nonzero" fill-opacity="1" /><path clip-path="url(#clip990)" d="M2034.91 266.228 L2064.58 266.228 L2064.58 270.117 L2034.91 270.117 L2034.91 266.228 M2034.91 275.672 L2064.58 275.672 L2064.58 279.608 L2034.91 279.608 L2034.91 275.672 Z" fill="#000000" fill-rule="nonzero" fill-opacity="1" /><path clip-path="url(#clip990)" d="M2075.48 283.821 L2083.12 283.821 L2083.12 257.455 L2074.81 259.122 L2074.81 254.862 L2083.08 253.196 L2087.75 253.196 L2087.75 283.821 L2095.39 283.821 L2095.39 287.756 L2075.48 287.756 L2075.48 283.821 Z" fill="#000000" fill-rule="nonzero" fill-opacity="1" /><path clip-path="url(#clip990)" d="M2105.32 281.876 L2110.21 281.876 L2110.21 285.858 L2106.41 293.265 L2103.42 293.265 L2105.32 285.858 L2105.32 281.876 Z" fill="#000000" fill-rule="nonzero" fill-opacity="1" /><path clip-path="url(#clip990)" d="M2132.57 253.196 L2159.72 253.196 L2159.72 256.761 L2137.87 283.821 L2160.25 283.821 L2160.25 287.756 L2132.04 287.756 L2132.04 284.191 L2153.89 257.131 L2132.57 257.131 L2132.57 253.196 Z" fill="#000000" fill-rule="nonzero" fill-opacity="1" /><path clip-path="url(#clip990)" d="M2171.48 283.821 L2187.8 283.821 L2187.8 287.756 L2165.85 287.756 L2165.85 283.821 Q2168.52 281.066 2173.1 276.436 Q2177.71 271.784 2178.89 270.441 Q2181.13 267.918 2182.01 266.182 Q2182.91 264.423 2182.91 262.733 Q2182.91 259.978 2180.97 258.242 Q2179.05 256.506 2175.95 256.506 Q2173.75 256.506 2171.29 257.27 Q2168.86 258.034 2166.09 259.585 L2166.09 254.862 Q2168.91 253.728 2171.36 253.149 Q2173.82 252.571 2175.85 252.571 Q2181.22 252.571 2184.42 255.256 Q2187.61 257.941 2187.61 262.432 Q2187.61 264.561 2186.8 266.483 Q2186.02 268.381 2183.91 270.973 Q2183.33 271.645 2180.23 274.862 Q2177.13 278.057 2171.48 283.821 Z" fill="#000000" fill-rule="nonzero" fill-opacity="1" /><path clip-path="url(#clip990)" d="M2197.57 266.228 L2227.24 266.228 L2227.24 270.117 L2197.57 270.117 L2197.57 266.228 M2197.57 275.672 L2227.24 275.672 L2227.24 279.608 L2197.57 279.608 L2197.57 275.672 Z" fill="#000000" fill-rule="nonzero" fill-opacity="1" /><path clip-path="url(#clip990)" d="M2238.15 283.821 L2245.78 283.821 L2245.78 257.455 L2237.47 259.122 L2237.47 254.862 L2245.74 253.196 L2250.41 253.196 L2250.41 283.821 L2258.05 283.821 L2258.05 287.756 L2238.15 287.756 L2238.15 283.821 Z" fill="#000000" fill-rule="nonzero" fill-opacity="1" /></svg>
