<?xml version="1.0" encoding="utf-8"?>
<svg xmlns="http://www.w3.org/2000/svg" xmlns:xlink="http://www.w3.org/1999/xlink" width="600" height="400" viewBox="0 0 2400 1600">
<defs>
  <clipPath id="clip950">
    <rect x="0" y="0" width="2400" height="1600"/>
  </clipPath>
</defs>
<path clip-path="url(#clip950)" d="M0 1600 L2400 1600 L2400 0 L0 0  Z" fill="#ffffff" fill-rule="evenodd" fill-opacity="1"/>
<defs>
  <clipPath id="clip951">
    <rect x="480" y="0" width="1681" height="1600"/>
  </clipPath>
</defs>
<path clip-path="url(#clip950)" d="M219.866 1423.18 L2352.76 1423.18 L2352.76 123.472 L219.866 123.472  Z" fill="#ffffff" fill-rule="evenodd" fill-opacity="1"/>
<defs>
  <clipPath id="clip952">
    <rect x="219" y="123" width="2134" height="1301"/>
  </clipPath>
</defs>
<polyline clip-path="url(#clip950)" style="stroke:#000000; stroke-linecap:round; stroke-linejoin:round; stroke-width:4; stroke-opacity:1; fill:none" points="219.866,1423.18 2352.76,1423.18 "/>
<polyline clip-path="url(#clip950)" style="stroke:#000000; stroke-linecap:round; stroke-linejoin:round; stroke-width:4; stroke-opacity:1; fill:none" points="280.231,1423.18 280.231,1404.28 "/>
<polyline clip-path="url(#clip950)" style="stroke:#000000; stroke-linecap:round; stroke-linejoin:round; stroke-width:4; stroke-opacity:1; fill:none" points="783.271,1423.18 783.271,1404.28 "/>
<polyline clip-path="url(#clip950)" style="stroke:#000000; stroke-linecap:round; stroke-linejoin:round; stroke-width:4; stroke-opacity:1; fill:none" points="1286.31,1423.18 1286.31,1404.28 "/>
<polyline clip-path="url(#clip950)" style="stroke:#000000; stroke-linecap:round; stroke-linejoin:round; stroke-width:4; stroke-opacity:1; fill:none" points="1789.35,1423.18 1789.35,1404.28 "/>
<polyline clip-path="url(#clip950)" style="stroke:#000000; stroke-linecap:round; stroke-linejoin:round; stroke-width:4; stroke-opacity:1; fill:none" points="2292.39,1423.18 2292.39,1404.28 "/>
<path clip-path="url(#clip950)" d="M280.231 1454.1 Q276.62 1454.1 274.791 1457.66 Q272.986 1461.2 272.986 1468.33 Q272.986 1475.44 274.791 1479.01 Q276.62 1482.55 280.231 1482.55 Q283.865 1482.55 285.671 1479.01 Q287.5 1475.44 287.5 1468.33 Q287.5 1461.2 285.671 1457.66 Q283.865 1454.1 280.231 1454.1 M280.231 1450.39 Q286.041 1450.39 289.097 1455 Q292.175 1459.58 292.175 1468.33 Q292.175 1477.06 289.097 1481.67 Q286.041 1486.25 280.231 1486.25 Q274.421 1486.25 271.342 1481.67 Q268.287 1477.06 268.287 1468.33 Q268.287 1459.58 271.342 1455 Q274.421 1450.39 280.231 1450.39 Z" fill="#000000" fill-rule="nonzero" fill-opacity="1" /><path clip-path="url(#clip950)" d="M773.549 1451.02 L791.905 1451.02 L791.905 1454.96 L777.831 1454.96 L777.831 1463.43 Q778.85 1463.08 779.868 1462.92 Q780.887 1462.73 781.905 1462.73 Q787.692 1462.73 791.072 1465.9 Q794.452 1469.08 794.452 1474.49 Q794.452 1480.07 790.979 1483.17 Q787.507 1486.25 781.188 1486.25 Q779.012 1486.25 776.743 1485.88 Q774.498 1485.51 772.091 1484.77 L772.091 1480.07 Q774.174 1481.2 776.396 1481.76 Q778.618 1482.32 781.095 1482.32 Q785.1 1482.32 787.438 1480.21 Q789.776 1478.1 789.776 1474.49 Q789.776 1470.88 787.438 1468.77 Q785.1 1466.67 781.095 1466.67 Q779.22 1466.67 777.345 1467.08 Q775.493 1467.5 773.549 1468.38 L773.549 1451.02 Z" fill="#000000" fill-rule="nonzero" fill-opacity="1" /><path clip-path="url(#clip950)" d="M1261 1481.64 L1268.64 1481.64 L1268.64 1455.28 L1260.33 1456.95 L1260.33 1452.69 L1268.59 1451.02 L1273.27 1451.02 L1273.27 1481.64 L1280.91 1481.64 L1280.91 1485.58 L1261 1485.58 L1261 1481.64 Z" fill="#000000" fill-rule="nonzero" fill-opacity="1" /><path clip-path="url(#clip950)" d="M1300.35 1454.1 Q1296.74 1454.1 1294.91 1457.66 Q1293.11 1461.2 1293.11 1468.33 Q1293.11 1475.44 1294.91 1479.01 Q1296.74 1482.55 1300.35 1482.55 Q1303.98 1482.55 1305.79 1479.01 Q1307.62 1475.44 1307.62 1468.33 Q1307.62 1461.2 1305.79 1457.66 Q1303.98 1454.1 1300.35 1454.1 M1300.35 1450.39 Q1306.16 1450.39 1309.22 1455 Q1312.29 1459.58 1312.29 1468.33 Q1312.29 1477.06 1309.22 1481.67 Q1306.16 1486.25 1300.35 1486.25 Q1294.54 1486.25 1291.46 1481.67 Q1288.41 1477.06 1288.41 1468.33 Q1288.41 1459.58 1291.46 1455 Q1294.54 1450.39 1300.35 1450.39 Z" fill="#000000" fill-rule="nonzero" fill-opacity="1" /><path clip-path="url(#clip950)" d="M1764.54 1481.64 L1772.18 1481.64 L1772.18 1455.28 L1763.87 1456.95 L1763.87 1452.69 L1772.13 1451.02 L1776.8 1451.02 L1776.8 1481.64 L1784.44 1481.64 L1784.44 1485.58 L1764.54 1485.58 L1764.54 1481.64 Z" fill="#000000" fill-rule="nonzero" fill-opacity="1" /><path clip-path="url(#clip950)" d="M1793.93 1451.02 L1812.29 1451.02 L1812.29 1454.96 L1798.22 1454.96 L1798.22 1463.43 Q1799.24 1463.08 1800.25 1462.92 Q1801.27 1462.73 1802.29 1462.73 Q1808.08 1462.73 1811.46 1465.9 Q1814.84 1469.08 1814.84 1474.49 Q1814.84 1480.07 1811.36 1483.17 Q1807.89 1486.25 1801.57 1486.25 Q1799.4 1486.25 1797.13 1485.88 Q1794.88 1485.51 1792.48 1484.77 L1792.48 1480.07 Q1794.56 1481.2 1796.78 1481.76 Q1799 1482.32 1801.48 1482.32 Q1805.49 1482.32 1807.82 1480.21 Q1810.16 1478.1 1810.16 1474.49 Q1810.16 1470.88 1807.82 1468.77 Q1805.49 1466.67 1801.48 1466.67 Q1799.61 1466.67 1797.73 1467.08 Q1795.88 1467.5 1793.93 1468.38 L1793.93 1451.02 Z" fill="#000000" fill-rule="nonzero" fill-opacity="1" /><path clip-path="url(#clip950)" d="M2271.16 1481.64 L2287.48 1481.64 L2287.48 1485.58 L2265.54 1485.58 L2265.54 1481.64 Q2268.2 1478.89 2272.78 1474.26 Q2277.39 1469.61 2278.57 1468.27 Q2280.82 1465.74 2281.7 1464.01 Q2282.6 1462.25 2282.6 1460.56 Q2282.6 1457.8 2280.66 1456.07 Q2278.73 1454.33 2275.63 1454.33 Q2273.43 1454.33 2270.98 1455.09 Q2268.55 1455.86 2265.77 1457.41 L2265.77 1452.69 Q2268.59 1451.55 2271.05 1450.97 Q2273.5 1450.39 2275.54 1450.39 Q2280.91 1450.39 2284.1 1453.08 Q2287.3 1455.77 2287.3 1460.26 Q2287.3 1462.39 2286.49 1464.31 Q2285.7 1466.2 2283.59 1468.8 Q2283.02 1469.47 2279.91 1472.69 Q2276.81 1475.88 2271.16 1481.64 Z" fill="#000000" fill-rule="nonzero" fill-opacity="1" /><path clip-path="url(#clip950)" d="M2307.3 1454.1 Q2303.69 1454.1 2301.86 1457.66 Q2300.05 1461.2 2300.05 1468.33 Q2300.05 1475.44 2301.86 1479.01 Q2303.69 1482.55 2307.3 1482.55 Q2310.93 1482.55 2312.74 1479.01 Q2314.57 1475.44 2314.57 1468.33 Q2314.57 1461.2 2312.74 1457.66 Q2310.93 1454.1 2307.3 1454.1 M2307.3 1450.39 Q2313.11 1450.39 2316.16 1455 Q2319.24 1459.58 2319.24 1468.33 Q2319.24 1477.06 2316.16 1481.67 Q2313.11 1486.25 2307.3 1486.25 Q2301.49 1486.25 2298.41 1481.67 Q2295.35 1477.06 2295.35 1468.33 Q2295.35 1459.58 2298.41 1455 Q2301.49 1450.39 2307.3 1450.39 Z" fill="#000000" fill-rule="nonzero" fill-opacity="1" /><path clip-path="url(#clip950)" d="M1208.19 1520.52 L1248.39 1520.52 L1248.39 1525.93 L1231.52 1525.93 L1231.52 1568.04 L1225.06 1568.04 L1225.06 1525.93 L1208.19 1525.93 L1208.19 1520.52 Z" fill="#000000" fill-rule="nonzero" fill-opacity="1" /><path clip-path="url(#clip950)" d="M1252.33 1532.4 L1258.19 1532.4 L1258.19 1568.04 L1252.33 1568.04 L1252.33 1532.4 M1252.33 1518.52 L1258.19 1518.52 L1258.19 1525.93 L1252.33 1525.93 L1252.33 1518.52 Z" fill="#000000" fill-rule="nonzero" fill-opacity="1" /><path clip-path="url(#clip950)" d="M1298.2 1539.24 Q1300.4 1535.29 1303.45 1533.41 Q1306.51 1531.54 1310.64 1531.54 Q1316.21 1531.54 1319.24 1535.45 Q1322.26 1539.33 1322.26 1546.53 L1322.26 1568.04 L1316.37 1568.04 L1316.37 1546.72 Q1316.37 1541.59 1314.56 1539.11 Q1312.74 1536.63 1309.02 1536.63 Q1304.47 1536.63 1301.83 1539.65 Q1299.19 1542.68 1299.19 1547.9 L1299.19 1568.04 L1293.3 1568.04 L1293.3 1546.72 Q1293.3 1541.56 1291.48 1539.11 Q1289.67 1536.63 1285.88 1536.63 Q1281.39 1536.63 1278.75 1539.68 Q1276.11 1542.71 1276.11 1547.9 L1276.11 1568.04 L1270.22 1568.04 L1270.22 1532.4 L1276.11 1532.4 L1276.11 1537.93 Q1278.12 1534.66 1280.92 1533.1 Q1283.72 1531.54 1287.57 1531.54 Q1291.45 1531.54 1294.16 1533.51 Q1296.89 1535.48 1298.2 1539.24 Z" fill="#000000" fill-rule="nonzero" fill-opacity="1" /><path clip-path="url(#clip950)" d="M1364.43 1548.76 L1364.43 1551.62 L1337.51 1551.62 Q1337.89 1557.67 1341.14 1560.85 Q1344.41 1564 1350.24 1564 Q1353.61 1564 1356.76 1563.17 Q1359.95 1562.35 1363.07 1560.69 L1363.07 1566.23 Q1359.91 1567.57 1356.6 1568.27 Q1353.29 1568.97 1349.89 1568.97 Q1341.36 1568.97 1336.36 1564 Q1331.4 1559.04 1331.4 1550.57 Q1331.4 1541.82 1336.11 1536.69 Q1340.85 1531.54 1348.87 1531.54 Q1356.06 1531.54 1360.23 1536.18 Q1364.43 1540.8 1364.43 1548.76 M1358.58 1547.04 Q1358.51 1542.23 1355.87 1539.37 Q1353.26 1536.5 1348.93 1536.5 Q1344.03 1536.5 1341.07 1539.27 Q1338.14 1542.04 1337.7 1547.07 L1358.58 1547.04 Z" fill="#000000" fill-rule="nonzero" fill-opacity="1" /><polyline clip-path="url(#clip950)" style="stroke:#000000; stroke-linecap:round; stroke-linejoin:round; stroke-width:4; stroke-opacity:1; fill:none" points="219.866,1423.18 219.866,123.472 "/>
<polyline clip-path="url(#clip950)" style="stroke:#000000; stroke-linecap:round; stroke-linejoin:round; stroke-width:4; stroke-opacity:1; fill:none" points="219.866,1203.62 238.764,1203.62 "/>
<polyline clip-path="url(#clip950)" style="stroke:#000000; stroke-linecap:round; stroke-linejoin:round; stroke-width:4; stroke-opacity:1; fill:none" points="219.866,956.367 238.764,956.367 "/>
<polyline clip-path="url(#clip950)" style="stroke:#000000; stroke-linecap:round; stroke-linejoin:round; stroke-width:4; stroke-opacity:1; fill:none" points="219.866,709.114 238.764,709.114 "/>
<polyline clip-path="url(#clip950)" style="stroke:#000000; stroke-linecap:round; stroke-linejoin:round; stroke-width:4; stroke-opacity:1; fill:none" points="219.866,461.861 238.764,461.861 "/>
<polyline clip-path="url(#clip950)" style="stroke:#000000; stroke-linecap:round; stroke-linejoin:round; stroke-width:4; stroke-opacity:1; fill:none" points="219.866,214.607 238.764,214.607 "/>
<path clip-path="url(#clip950)" d="M128.288 1189.42 Q124.677 1189.42 122.848 1192.98 Q121.043 1196.53 121.043 1203.65 Q121.043 1210.76 122.848 1214.33 Q124.677 1217.87 128.288 1217.87 Q131.922 1217.87 133.728 1214.33 Q135.556 1210.76 135.556 1203.65 Q135.556 1196.53 133.728 1192.98 Q131.922 1189.42 128.288 1189.42 M128.288 1185.72 Q134.098 1185.72 137.154 1190.32 Q140.232 1194.91 140.232 1203.65 Q140.232 1212.38 137.154 1216.99 Q134.098 1221.57 128.288 1221.57 Q122.478 1221.57 119.399 1216.99 Q116.343 1212.38 116.343 1203.65 Q116.343 1194.91 119.399 1190.32 Q122.478 1185.72 128.288 1185.72 Z" fill="#000000" fill-rule="nonzero" fill-opacity="1" /><path clip-path="url(#clip950)" d="M148.45 1215.02 L153.334 1215.02 L153.334 1220.9 L148.45 1220.9 L148.45 1215.02 Z" fill="#000000" fill-rule="nonzero" fill-opacity="1" /><path clip-path="url(#clip950)" d="M167.547 1216.97 L183.866 1216.97 L183.866 1220.9 L161.922 1220.9 L161.922 1216.97 Q164.584 1214.21 169.167 1209.58 Q173.774 1204.93 174.954 1203.59 Q177.2 1201.06 178.079 1199.33 Q178.982 1197.57 178.982 1195.88 Q178.982 1193.12 177.038 1191.39 Q175.116 1189.65 172.014 1189.65 Q169.815 1189.65 167.362 1190.41 Q164.931 1191.18 162.153 1192.73 L162.153 1188.01 Q164.977 1186.87 167.431 1186.29 Q169.885 1185.72 171.922 1185.72 Q177.292 1185.72 180.487 1188.4 Q183.681 1191.09 183.681 1195.58 Q183.681 1197.71 182.871 1199.63 Q182.084 1201.53 179.977 1204.12 Q179.399 1204.79 176.297 1208.01 Q173.195 1211.2 167.547 1216.97 Z" fill="#000000" fill-rule="nonzero" fill-opacity="1" /><path clip-path="url(#clip950)" d="M126.205 942.166 Q122.593 942.166 120.765 945.731 Q118.959 949.272 118.959 956.402 Q118.959 963.508 120.765 967.073 Q122.593 970.615 126.205 970.615 Q129.839 970.615 131.644 967.073 Q133.473 963.508 133.473 956.402 Q133.473 949.272 131.644 945.731 Q129.839 942.166 126.205 942.166 M126.205 938.462 Q132.015 938.462 135.07 943.069 Q138.149 947.652 138.149 956.402 Q138.149 965.129 135.07 969.735 Q132.015 974.318 126.205 974.318 Q120.394 974.318 117.316 969.735 Q114.26 965.129 114.26 956.402 Q114.26 947.652 117.316 943.069 Q120.394 938.462 126.205 938.462 Z" fill="#000000" fill-rule="nonzero" fill-opacity="1" /><path clip-path="url(#clip950)" d="M146.366 967.767 L151.251 967.767 L151.251 973.647 L146.366 973.647 L146.366 967.767 Z" fill="#000000" fill-rule="nonzero" fill-opacity="1" /><path clip-path="url(#clip950)" d="M174.283 943.161 L162.477 961.61 L174.283 961.61 L174.283 943.161 M173.056 939.087 L178.936 939.087 L178.936 961.61 L183.866 961.61 L183.866 965.499 L178.936 965.499 L178.936 973.647 L174.283 973.647 L174.283 965.499 L158.681 965.499 L158.681 960.985 L173.056 939.087 Z" fill="#000000" fill-rule="nonzero" fill-opacity="1" /><path clip-path="url(#clip950)" d="M126.529 694.913 Q122.918 694.913 121.089 698.477 Q119.283 702.019 119.283 709.149 Q119.283 716.255 121.089 719.82 Q122.918 723.361 126.529 723.361 Q130.163 723.361 131.968 719.82 Q133.797 716.255 133.797 709.149 Q133.797 702.019 131.968 698.477 Q130.163 694.913 126.529 694.913 M126.529 691.209 Q132.339 691.209 135.394 695.815 Q138.473 700.399 138.473 709.149 Q138.473 717.875 135.394 722.482 Q132.339 727.065 126.529 727.065 Q120.718 727.065 117.64 722.482 Q114.584 717.875 114.584 709.149 Q114.584 700.399 117.64 695.815 Q120.718 691.209 126.529 691.209 Z" fill="#000000" fill-rule="nonzero" fill-opacity="1" /><path clip-path="url(#clip950)" d="M146.691 720.514 L151.575 720.514 L151.575 726.394 L146.691 726.394 L146.691 720.514 Z" fill="#000000" fill-rule="nonzero" fill-opacity="1" /><path clip-path="url(#clip950)" d="M172.339 707.25 Q169.19 707.25 167.339 709.403 Q165.51 711.556 165.51 715.306 Q165.51 719.033 167.339 721.209 Q169.19 723.361 172.339 723.361 Q175.487 723.361 177.315 721.209 Q179.167 719.033 179.167 715.306 Q179.167 711.556 177.315 709.403 Q175.487 707.25 172.339 707.25 M181.621 692.598 L181.621 696.857 Q179.862 696.024 178.056 695.584 Q176.274 695.144 174.514 695.144 Q169.885 695.144 167.431 698.269 Q165.001 701.394 164.653 707.713 Q166.019 705.7 168.079 704.635 Q170.139 703.547 172.616 703.547 Q177.825 703.547 180.834 706.718 Q183.866 709.866 183.866 715.306 Q183.866 720.63 180.718 723.848 Q177.57 727.065 172.339 727.065 Q166.343 727.065 163.172 722.482 Q160.001 717.875 160.001 709.149 Q160.001 700.954 163.89 696.093 Q167.778 691.209 174.329 691.209 Q176.089 691.209 177.871 691.556 Q179.676 691.903 181.621 692.598 Z" fill="#000000" fill-rule="nonzero" fill-opacity="1" /><path clip-path="url(#clip950)" d="M126.783 447.659 Q123.172 447.659 121.343 451.224 Q119.538 454.766 119.538 461.895 Q119.538 469.002 121.343 472.567 Q123.172 476.108 126.783 476.108 Q130.417 476.108 132.223 472.567 Q134.052 469.002 134.052 461.895 Q134.052 454.766 132.223 451.224 Q130.417 447.659 126.783 447.659 M126.783 443.956 Q132.593 443.956 135.649 448.562 Q138.728 453.145 138.728 461.895 Q138.728 470.622 135.649 475.229 Q132.593 479.812 126.783 479.812 Q120.973 479.812 117.894 475.229 Q114.839 470.622 114.839 461.895 Q114.839 453.145 117.894 448.562 Q120.973 443.956 126.783 443.956 Z" fill="#000000" fill-rule="nonzero" fill-opacity="1" /><path clip-path="url(#clip950)" d="M146.945 473.261 L151.829 473.261 L151.829 479.141 L146.945 479.141 L146.945 473.261 Z" fill="#000000" fill-rule="nonzero" fill-opacity="1" /><path clip-path="url(#clip950)" d="M172.014 462.729 Q168.681 462.729 166.76 464.511 Q164.862 466.293 164.862 469.418 Q164.862 472.543 166.76 474.326 Q168.681 476.108 172.014 476.108 Q175.348 476.108 177.269 474.326 Q179.19 472.52 179.19 469.418 Q179.19 466.293 177.269 464.511 Q175.371 462.729 172.014 462.729 M167.339 460.738 Q164.329 459.997 162.64 457.937 Q160.973 455.877 160.973 452.914 Q160.973 448.77 163.913 446.363 Q166.876 443.956 172.014 443.956 Q177.176 443.956 180.116 446.363 Q183.056 448.77 183.056 452.914 Q183.056 455.877 181.366 457.937 Q179.7 459.997 176.714 460.738 Q180.093 461.525 181.968 463.817 Q183.866 466.108 183.866 469.418 Q183.866 474.442 180.788 477.127 Q177.732 479.812 172.014 479.812 Q166.297 479.812 163.218 477.127 Q160.163 474.442 160.163 469.418 Q160.163 466.108 162.061 463.817 Q163.959 461.525 167.339 460.738 M165.626 453.354 Q165.626 456.039 167.292 457.544 Q168.982 459.048 172.014 459.048 Q175.024 459.048 176.714 457.544 Q178.426 456.039 178.426 453.354 Q178.426 450.669 176.714 449.164 Q175.024 447.659 172.014 447.659 Q168.982 447.659 167.292 449.164 Q165.626 450.669 165.626 453.354 Z" fill="#000000" fill-rule="nonzero" fill-opacity="1" /><path clip-path="url(#clip950)" d="M117.501 227.952 L125.14 227.952 L125.14 201.587 L116.83 203.253 L116.83 198.994 L125.093 197.327 L129.769 197.327 L129.769 227.952 L137.408 227.952 L137.408 231.887 L117.501 231.887 L117.501 227.952 Z" fill="#000000" fill-rule="nonzero" fill-opacity="1" /><path clip-path="url(#clip950)" d="M146.853 226.008 L151.737 226.008 L151.737 231.887 L146.853 231.887 L146.853 226.008 Z" fill="#000000" fill-rule="nonzero" fill-opacity="1" /><path clip-path="url(#clip950)" d="M171.922 200.406 Q168.311 200.406 166.482 203.971 Q164.677 207.513 164.677 214.642 Q164.677 221.749 166.482 225.313 Q168.311 228.855 171.922 228.855 Q175.556 228.855 177.362 225.313 Q179.19 221.749 179.19 214.642 Q179.19 207.513 177.362 203.971 Q175.556 200.406 171.922 200.406 M171.922 196.702 Q177.732 196.702 180.788 201.309 Q183.866 205.892 183.866 214.642 Q183.866 223.369 180.788 227.975 Q177.732 232.559 171.922 232.559 Q166.112 232.559 163.033 227.975 Q159.978 223.369 159.978 214.642 Q159.978 205.892 163.033 201.309 Q166.112 196.702 171.922 196.702 Z" fill="#000000" fill-rule="nonzero" fill-opacity="1" /><path clip-path="url(#clip950)" d="M16.4842 882.243 L16.4842 875.814 L35.9632 875.814 L35.9632 852.452 L16.4842 852.452 L16.4842 846.022 L64.0042 846.022 L64.0042 852.452 L41.3741 852.452 L41.3741 875.814 L64.0042 875.814 L64.0042 882.243 L16.4842 882.243 Z" fill="#000000" fill-rule="nonzero" fill-opacity="1" /><path clip-path="url(#clip950)" d="M46.0847 817.281 Q46.0847 824.379 47.7079 827.116 Q49.3312 829.853 53.2461 829.853 Q56.3653 829.853 58.2114 827.816 Q60.0256 825.748 60.0256 822.215 Q60.0256 817.345 56.5881 814.417 Q53.1188 811.457 47.3897 811.457 L46.0847 811.457 L46.0847 817.281 M43.6657 805.6 L64.0042 805.6 L64.0042 811.457 L58.5933 811.457 Q61.8398 813.462 63.3994 816.454 Q64.9272 819.446 64.9272 823.774 Q64.9272 829.249 61.8716 832.495 Q58.7843 835.71 53.6281 835.71 Q47.6125 835.71 44.5569 831.7 Q41.5014 827.657 41.5014 819.668 L41.5014 811.457 L40.9285 811.457 Q36.8862 811.457 34.6901 814.13 Q32.4621 816.772 32.4621 821.578 Q32.4621 824.634 33.1941 827.53 Q33.9262 830.426 35.3903 833.1 L29.9795 833.1 Q28.7381 829.885 28.1334 826.862 Q27.4968 823.838 27.4968 820.973 Q27.4968 813.239 31.5072 809.42 Q35.5176 805.6 43.6657 805.6 Z" fill="#000000" fill-rule="nonzero" fill-opacity="1" /><path clip-path="url(#clip950)" d="M28.3562 796.083 L28.3562 768.265 L33.7034 768.265 L59.3254 790.291 L59.3254 768.265 L64.0042 768.265 L64.0042 796.879 L58.657 796.879 L33.035 774.854 L33.035 796.083 L28.3562 796.083 Z" fill="#000000" fill-rule="nonzero" fill-opacity="1" /><path clip-path="url(#clip950)" d="M46.0847 743.121 Q46.0847 750.218 47.7079 752.956 Q49.3312 755.693 53.2461 755.693 Q56.3653 755.693 58.2114 753.656 Q60.0256 751.587 60.0256 748.054 Q60.0256 743.184 56.5881 740.256 Q53.1188 737.296 47.3897 737.296 L46.0847 737.296 L46.0847 743.121 M43.6657 731.44 L64.0042 731.44 L64.0042 737.296 L58.5933 737.296 Q61.8398 739.301 63.3994 742.293 Q64.9272 745.285 64.9272 749.614 Q64.9272 755.088 61.8716 758.335 Q58.7843 761.549 53.6281 761.549 Q47.6125 761.549 44.5569 757.539 Q41.5014 753.497 41.5014 745.508 L41.5014 737.296 L40.9285 737.296 Q36.8862 737.296 34.6901 739.97 Q32.4621 742.611 32.4621 747.418 Q32.4621 750.473 33.1941 753.369 Q33.9262 756.266 35.3903 758.939 L29.9795 758.939 Q28.7381 755.725 28.1334 752.701 Q27.4968 749.677 27.4968 746.813 Q27.4968 739.078 31.5072 735.259 Q35.5176 731.44 43.6657 731.44 Z" fill="#000000" fill-rule="nonzero" fill-opacity="1" /><path clip-path="url(#clip950)" d="M33.8307 698.72 Q33.2578 699.707 33.0032 700.884 Q32.7167 702.03 32.7167 703.431 Q32.7167 708.396 35.9632 711.069 Q39.1779 713.711 45.2253 713.711 L64.0042 713.711 L64.0042 719.599 L28.3562 719.599 L28.3562 713.711 L33.8944 713.711 Q30.6479 711.865 29.0883 708.905 Q27.4968 705.945 27.4968 701.712 Q27.4968 701.107 27.5923 700.375 Q27.656 699.643 27.8151 698.752 L33.8307 698.72 Z" fill="#000000" fill-rule="nonzero" fill-opacity="1" /><path clip-path="url(#clip950)" d="M33.7671 670.265 L14.479 670.265 L14.479 664.409 L64.0042 664.409 L64.0042 670.265 L58.657 670.265 Q61.8398 672.111 63.3994 674.944 Q64.9272 677.745 64.9272 681.692 Q64.9272 688.153 59.771 692.227 Q54.6147 696.269 46.212 696.269 Q37.8093 696.269 32.6531 692.227 Q27.4968 688.153 27.4968 681.692 Q27.4968 677.745 29.0564 674.944 Q30.5842 672.111 33.7671 670.265 M46.212 690.222 Q52.6732 690.222 56.3653 687.58 Q60.0256 684.906 60.0256 680.259 Q60.0256 675.612 56.3653 672.939 Q52.6732 670.265 46.212 670.265 Q39.7508 670.265 36.0905 672.939 Q32.3984 675.612 32.3984 680.259 Q32.3984 684.906 36.0905 687.58 Q39.7508 690.222 46.212 690.222 Z" fill="#000000" fill-rule="nonzero" fill-opacity="1" /><path clip-path="url(#clip950)" d="M799.028 12.096 L837.268 12.096 L837.268 18.9825 L807.211 18.9825 L807.211 36.8875 L836.013 36.8875 L836.013 43.7741 L807.211 43.7741 L807.211 65.6895 L837.998 65.6895 L837.998 72.576 L799.028 72.576 L799.028 12.096 Z" fill="#000000" fill-rule="nonzero" fill-opacity="1" /><path clip-path="url(#clip950)" d="M888.836 27.2059 L872.43 49.2833 L889.687 72.576 L880.897 72.576 L867.691 54.752 L854.485 72.576 L845.694 72.576 L863.316 48.8377 L847.193 27.2059 L855.984 27.2059 L868.015 43.369 L880.046 27.2059 L888.836 27.2059 Z" fill="#000000" fill-rule="nonzero" fill-opacity="1" /><path clip-path="url(#clip950)" d="M907.43 65.7705 L907.43 89.8329 L899.936 89.8329 L899.936 27.2059 L907.43 27.2059 L907.43 34.0924 Q909.78 30.0415 913.344 28.0971 Q916.95 26.1121 921.932 26.1121 Q930.196 26.1121 935.341 32.6746 Q940.526 39.2371 940.526 49.9314 Q940.526 60.6258 935.341 67.1883 Q930.196 73.7508 921.932 73.7508 Q916.95 73.7508 913.344 71.8063 Q909.78 69.8214 907.43 65.7705 M932.789 49.9314 Q932.789 41.7081 929.386 37.0496 Q926.024 32.3505 920.109 32.3505 Q914.195 32.3505 910.792 37.0496 Q907.43 41.7081 907.43 49.9314 Q907.43 58.1548 910.792 62.8538 Q914.195 67.5124 920.109 67.5124 Q926.024 67.5124 929.386 62.8538 Q932.789 58.1548 932.789 49.9314 Z" fill="#000000" fill-rule="nonzero" fill-opacity="1" /><path clip-path="url(#clip950)" d="M970.462 32.4315 Q964.467 32.4315 960.983 37.1306 Q957.499 41.7891 957.499 49.9314 Q957.499 58.0738 960.942 62.7728 Q964.426 67.4314 970.462 67.4314 Q976.417 67.4314 979.901 62.7323 Q983.384 58.0333 983.384 49.9314 Q983.384 41.8701 979.901 37.1711 Q976.417 32.4315 970.462 32.4315 M970.462 26.1121 Q980.184 26.1121 985.734 32.4315 Q991.284 38.7509 991.284 49.9314 Q991.284 61.0714 985.734 67.4314 Q980.184 73.7508 970.462 73.7508 Q960.699 73.7508 955.15 67.4314 Q949.64 61.0714 949.64 49.9314 Q949.64 38.7509 955.15 32.4315 Q960.699 26.1121 970.462 26.1121 Z" fill="#000000" fill-rule="nonzero" fill-opacity="1" /><path clip-path="url(#clip950)" d="M1041.35 45.1919 L1041.35 72.576 L1033.9 72.576 L1033.9 45.4349 Q1033.9 38.994 1031.39 35.7938 Q1028.88 32.5936 1023.85 32.5936 Q1017.82 32.5936 1014.33 36.4419 Q1010.85 40.2903 1010.85 46.9338 L1010.85 72.576 L1003.36 72.576 L1003.36 27.2059 L1010.85 27.2059 L1010.85 34.2544 Q1013.52 30.163 1017.13 28.1376 Q1020.77 26.1121 1025.51 26.1121 Q1033.33 26.1121 1037.34 30.9732 Q1041.35 35.7938 1041.35 45.1919 Z" fill="#000000" fill-rule="nonzero" fill-opacity="1" /><path clip-path="url(#clip950)" d="M1095.03 48.0275 L1095.03 51.6733 L1060.76 51.6733 Q1061.24 59.3701 1065.37 63.421 Q1069.55 67.4314 1076.96 67.4314 Q1081.25 67.4314 1085.26 66.3781 Q1089.32 65.3249 1093.29 63.2184 L1093.29 70.267 Q1089.28 71.9684 1085.06 72.8596 Q1080.85 73.7508 1076.51 73.7508 Q1065.66 73.7508 1059.3 67.4314 Q1052.98 61.1119 1052.98 50.3365 Q1052.98 39.1965 1058.97 32.6746 Q1065.01 26.1121 1075.22 26.1121 Q1084.37 26.1121 1089.68 32.0264 Q1095.03 37.9003 1095.03 48.0275 M1087.57 45.84 Q1087.49 39.7232 1084.13 36.0774 Q1080.81 32.4315 1075.3 32.4315 Q1069.06 32.4315 1065.29 35.9558 Q1061.57 39.4801 1061 45.8805 L1087.57 45.84 Z" fill="#000000" fill-rule="nonzero" fill-opacity="1" /><path clip-path="url(#clip950)" d="M1144.98 45.1919 L1144.98 72.576 L1137.52 72.576 L1137.52 45.4349 Q1137.52 38.994 1135.01 35.7938 Q1132.5 32.5936 1127.48 32.5936 Q1121.44 32.5936 1117.96 36.4419 Q1114.47 40.2903 1114.47 46.9338 L1114.47 72.576 L1106.98 72.576 L1106.98 27.2059 L1114.47 27.2059 L1114.47 34.2544 Q1117.15 30.163 1120.75 28.1376 Q1124.4 26.1121 1129.14 26.1121 Q1136.95 26.1121 1140.96 30.9732 Q1144.98 35.7938 1144.98 45.1919 Z" fill="#000000" fill-rule="nonzero" fill-opacity="1" /><path clip-path="url(#clip950)" d="M1167.21 14.324 L1167.21 27.2059 L1182.57 27.2059 L1182.57 32.9987 L1167.21 32.9987 L1167.21 57.6282 Q1167.21 63.1779 1168.71 64.7578 Q1170.25 66.3376 1174.91 66.3376 L1182.57 66.3376 L1182.57 72.576 L1174.91 72.576 Q1166.28 72.576 1163 69.3758 Q1159.72 66.1351 1159.72 57.6282 L1159.72 32.9987 L1154.25 32.9987 L1154.25 27.2059 L1159.72 27.2059 L1159.72 14.324 L1167.21 14.324 Z" fill="#000000" fill-rule="nonzero" fill-opacity="1" /><path clip-path="url(#clip950)" d="M1192.37 27.2059 L1199.82 27.2059 L1199.82 72.576 L1192.37 72.576 L1192.37 27.2059 M1192.37 9.54393 L1199.82 9.54393 L1199.82 18.9825 L1192.37 18.9825 L1192.37 9.54393 Z" fill="#000000" fill-rule="nonzero" fill-opacity="1" /><path clip-path="url(#clip950)" d="M1236.04 49.7694 Q1227.01 49.7694 1223.52 51.8354 Q1220.04 53.9013 1220.04 58.8839 Q1220.04 62.8538 1222.63 65.2034 Q1225.26 67.5124 1229.76 67.5124 Q1235.96 67.5124 1239.69 63.1374 Q1243.45 58.7219 1243.45 51.4303 L1243.45 49.7694 L1236.04 49.7694 M1250.91 46.6907 L1250.91 72.576 L1243.45 72.576 L1243.45 65.6895 Q1240.9 69.8214 1237.09 71.8063 Q1233.28 73.7508 1227.78 73.7508 Q1220.81 73.7508 1216.68 69.8619 Q1212.58 65.9325 1212.58 59.3701 Q1212.58 51.7138 1217.69 47.825 Q1222.83 43.9361 1233 43.9361 L1243.45 43.9361 L1243.45 43.2069 Q1243.45 38.0623 1240.05 35.2672 Q1236.69 32.4315 1230.57 32.4315 Q1226.68 32.4315 1223 33.3632 Q1219.31 34.295 1215.91 36.1584 L1215.91 29.2718 Q1220 27.692 1223.85 26.9223 Q1227.69 26.1121 1231.34 26.1121 Q1241.18 26.1121 1246.05 31.2163 Q1250.91 36.3204 1250.91 46.6907 Z" fill="#000000" fill-rule="nonzero" fill-opacity="1" /><path clip-path="url(#clip950)" d="M1266.26 9.54393 L1273.71 9.54393 L1273.71 72.576 L1266.26 72.576 L1266.26 9.54393 Z" fill="#000000" fill-rule="nonzero" fill-opacity="1" /><path clip-path="url(#clip950)" d="M1345.54 34.0924 L1345.54 9.54393 L1352.99 9.54393 L1352.99 72.576 L1345.54 72.576 L1345.54 65.7705 Q1343.19 69.8214 1339.58 71.8063 Q1336.02 73.7508 1330.99 73.7508 Q1322.77 73.7508 1317.58 67.1883 Q1312.44 60.6258 1312.44 49.9314 Q1312.44 39.2371 1317.58 32.6746 Q1322.77 26.1121 1330.99 26.1121 Q1336.02 26.1121 1339.58 28.0971 Q1343.19 30.0415 1345.54 34.0924 M1320.14 49.9314 Q1320.14 58.1548 1323.5 62.8538 Q1326.9 67.5124 1332.82 67.5124 Q1338.73 67.5124 1342.13 62.8538 Q1345.54 58.1548 1345.54 49.9314 Q1345.54 41.7081 1342.13 37.0496 Q1338.73 32.3505 1332.82 32.3505 Q1326.9 32.3505 1323.5 37.0496 Q1320.14 41.7081 1320.14 49.9314 Z" fill="#000000" fill-rule="nonzero" fill-opacity="1" /><path clip-path="url(#clip950)" d="M1368.34 27.2059 L1375.8 27.2059 L1375.8 72.576 L1368.34 72.576 L1368.34 27.2059 M1368.34 9.54393 L1375.8 9.54393 L1375.8 18.9825 L1368.34 18.9825 L1368.34 9.54393 Z" fill="#000000" fill-rule="nonzero" fill-opacity="1" /><path clip-path="url(#clip950)" d="M1420.31 28.5427 L1420.31 35.5912 Q1417.16 33.9709 1413.75 33.1607 Q1410.35 32.3505 1406.7 32.3505 Q1401.15 32.3505 1398.36 34.0519 Q1395.6 35.7533 1395.6 39.156 Q1395.6 41.7486 1397.59 43.2475 Q1399.57 44.7058 1405.57 46.0426 L1408.12 46.6097 Q1416.06 48.3111 1419.38 51.4303 Q1422.75 54.509 1422.75 60.0587 Q1422.75 66.3781 1417.72 70.0644 Q1412.74 73.7508 1403.99 73.7508 Q1400.34 73.7508 1396.37 73.0216 Q1392.44 72.3329 1388.07 70.9151 L1388.07 63.2184 Q1392.2 65.3654 1396.21 66.4591 Q1400.22 67.5124 1404.15 67.5124 Q1409.42 67.5124 1412.25 65.73 Q1415.09 63.9071 1415.09 60.6258 Q1415.09 57.5877 1413.02 55.9673 Q1411 54.3469 1404.07 52.8481 L1401.48 52.2405 Q1394.55 50.7821 1391.47 47.7845 Q1388.39 44.7463 1388.39 39.4801 Q1388.39 33.0797 1392.93 29.5959 Q1397.47 26.1121 1405.81 26.1121 Q1409.94 26.1121 1413.59 26.7198 Q1417.24 27.3274 1420.31 28.5427 Z" fill="#000000" fill-rule="nonzero" fill-opacity="1" /><path clip-path="url(#clip950)" d="M1441.99 14.324 L1441.99 27.2059 L1457.34 27.2059 L1457.34 32.9987 L1441.99 32.9987 L1441.99 57.6282 Q1441.99 63.1779 1443.49 64.7578 Q1445.03 66.3376 1449.68 66.3376 L1457.34 66.3376 L1457.34 72.576 L1449.68 72.576 Q1441.06 72.576 1437.77 69.3758 Q1434.49 66.1351 1434.49 57.6282 L1434.49 32.9987 L1429.02 32.9987 L1429.02 27.2059 L1434.49 27.2059 L1434.49 14.324 L1441.99 14.324 Z" fill="#000000" fill-rule="nonzero" fill-opacity="1" /><path clip-path="url(#clip950)" d="M1493.43 34.1734 Q1492.18 33.4443 1490.68 33.1202 Q1489.22 32.7556 1487.44 32.7556 Q1481.12 32.7556 1477.72 36.8875 Q1474.35 40.9789 1474.35 48.6757 L1474.35 72.576 L1466.86 72.576 L1466.86 27.2059 L1474.35 27.2059 L1474.35 34.2544 Q1476.7 30.1225 1480.47 28.1376 Q1484.24 26.1121 1489.63 26.1121 Q1490.4 26.1121 1491.33 26.2337 Q1492.26 26.3147 1493.39 26.5172 L1493.43 34.1734 Z" fill="#000000" fill-rule="nonzero" fill-opacity="1" /><path clip-path="url(#clip950)" d="M1501.25 27.2059 L1508.71 27.2059 L1508.71 72.576 L1501.25 72.576 L1501.25 27.2059 M1501.25 9.54393 L1508.71 9.54393 L1508.71 18.9825 L1501.25 18.9825 L1501.25 9.54393 Z" fill="#000000" fill-rule="nonzero" fill-opacity="1" /><path clip-path="url(#clip950)" d="M1556.87 49.9314 Q1556.87 41.7081 1553.47 37.0496 Q1550.11 32.3505 1544.19 32.3505 Q1538.28 32.3505 1534.87 37.0496 Q1531.51 41.7081 1531.51 49.9314 Q1531.51 58.1548 1534.87 62.8538 Q1538.28 67.5124 1544.19 67.5124 Q1550.11 67.5124 1553.47 62.8538 Q1556.87 58.1548 1556.87 49.9314 M1531.51 34.0924 Q1533.86 30.0415 1537.43 28.0971 Q1541.03 26.1121 1546.01 26.1121 Q1554.28 26.1121 1559.42 32.6746 Q1564.61 39.2371 1564.61 49.9314 Q1564.61 60.6258 1559.42 67.1883 Q1554.28 73.7508 1546.01 73.7508 Q1541.03 73.7508 1537.43 71.8063 Q1533.86 69.8214 1531.51 65.7705 L1531.51 72.576 L1524.02 72.576 L1524.02 9.54393 L1531.51 9.54393 L1531.51 34.0924 Z" fill="#000000" fill-rule="nonzero" fill-opacity="1" /><path clip-path="url(#clip950)" d="M1576.19 54.671 L1576.19 27.2059 L1583.65 27.2059 L1583.65 54.3874 Q1583.65 60.8284 1586.16 64.0691 Q1588.67 67.2693 1593.69 67.2693 Q1599.73 67.2693 1603.21 63.421 Q1606.74 59.5726 1606.74 52.9291 L1606.74 27.2059 L1614.19 27.2059 L1614.19 72.576 L1606.74 72.576 L1606.74 65.6084 Q1604.02 69.7404 1600.42 71.7658 Q1596.85 73.7508 1592.11 73.7508 Q1584.3 73.7508 1580.24 68.8897 Q1576.19 64.0286 1576.19 54.671 M1594.95 26.1121 L1594.95 26.1121 Z" fill="#000000" fill-rule="nonzero" fill-opacity="1" /><path clip-path="url(#clip950)" d="M1636.92 14.324 L1636.92 27.2059 L1652.27 27.2059 L1652.27 32.9987 L1636.92 32.9987 L1636.92 57.6282 Q1636.92 63.1779 1638.42 64.7578 Q1639.96 66.3376 1644.61 66.3376 L1652.27 66.3376 L1652.27 72.576 L1644.61 72.576 Q1635.99 72.576 1632.7 69.3758 Q1629.42 66.1351 1629.42 57.6282 L1629.42 32.9987 L1623.95 32.9987 L1623.95 27.2059 L1629.42 27.2059 L1629.42 14.324 L1636.92 14.324 Z" fill="#000000" fill-rule="nonzero" fill-opacity="1" /><path clip-path="url(#clip950)" d="M1662.07 27.2059 L1669.53 27.2059 L1669.53 72.576 L1662.07 72.576 L1662.07 27.2059 M1662.07 9.54393 L1669.53 9.54393 L1669.53 18.9825 L1662.07 18.9825 L1662.07 9.54393 Z" fill="#000000" fill-rule="nonzero" fill-opacity="1" /><path clip-path="url(#clip950)" d="M1702.7 32.4315 Q1696.71 32.4315 1693.22 37.1306 Q1689.74 41.7891 1689.74 49.9314 Q1689.74 58.0738 1693.18 62.7728 Q1696.67 67.4314 1702.7 67.4314 Q1708.66 67.4314 1712.14 62.7323 Q1715.63 58.0333 1715.63 49.9314 Q1715.63 41.8701 1712.14 37.1711 Q1708.66 32.4315 1702.7 32.4315 M1702.7 26.1121 Q1712.43 26.1121 1717.98 32.4315 Q1723.53 38.7509 1723.53 49.9314 Q1723.53 61.0714 1717.98 67.4314 Q1712.43 73.7508 1702.7 73.7508 Q1692.94 73.7508 1687.39 67.4314 Q1681.88 61.0714 1681.88 49.9314 Q1681.88 38.7509 1687.39 32.4315 Q1692.94 26.1121 1702.7 26.1121 Z" fill="#000000" fill-rule="nonzero" fill-opacity="1" /><path clip-path="url(#clip950)" d="M1773.59 45.1919 L1773.59 72.576 L1766.14 72.576 L1766.14 45.4349 Q1766.14 38.994 1763.63 35.7938 Q1761.12 32.5936 1756.09 32.5936 Q1750.06 32.5936 1746.57 36.4419 Q1743.09 40.2903 1743.09 46.9338 L1743.09 72.576 L1735.6 72.576 L1735.6 27.2059 L1743.09 27.2059 L1743.09 34.2544 Q1745.76 30.163 1749.37 28.1376 Q1753.02 26.1121 1757.76 26.1121 Q1765.57 26.1121 1769.58 30.9732 Q1773.59 35.7938 1773.59 45.1919 Z" fill="#000000" fill-rule="nonzero" fill-opacity="1" /><polyline clip-path="url(#clip952)" style="stroke:#000000; stroke-linecap:round; stroke-linejoin:round; stroke-width:4; stroke-opacity:1; fill:none" points="300.556,1386.4 320.881,1386.4 341.206,1386.4 361.53,1386.4 381.855,1386.4 402.18,1386.4 422.505,1386.4 442.83,1386.4 463.155,1386.4 483.48,1386.4 503.804,1386.4 524.129,1386.4 544.454,1386.4 564.779,1386.4 585.104,1386.4 605.429,1386.4 625.753,1386.4 646.078,1386.4 666.403,1386.4 686.728,1386.4 707.053,1386.4 727.378,1386.4 747.703,1386.4 768.027,1386.4 788.352,1386.4 808.677,1386.4 829.002,1386.4 849.327,1386.4 869.652,1386.4 889.977,1386.4 910.301,1386.4 930.626,1386.4 950.951,1386.4 971.276,1386.4 991.601,1386.4 1011.93,1386.4 1032.25,1386.4 1052.58,1386.4 1072.9,1386.4 1093.23,1386.4 1113.55,1386.4 1133.87,1386.4 1154.2,1386.4 1174.52,1386.4 1194.85,1386.4 1215.17,1386.4 1235.5,1386.4 1255.82,1386.4 1276.15,1386.4 1296.47,1386.4 1316.8,1386.4 1337.12,1386.4 1357.45,1386.4 1377.77,1386.4 1398.1,1386.4 1418.42,1386.4 1438.75,1386.4 1459.07,1386.4 1479.4,1386.4 1499.72,1386.4 1520.05,1386.4 1540.37,1386.4 1560.7,1386.4 1581.02,1386.4 1601.35,1386.4 1621.67,1386.4 1642,1386.4 1662.32,1386.4 1682.65,1386.4 1702.97,1386.4 1723.3,1386.4 1743.62,1386.4 1763.95,1386.4 1784.27,1386.4 1804.59,1386.4 1824.92,1386.4 1845.24,1386.4 1865.57,1386.4 1885.89,1386.4 1906.22,1386.4 1926.54,1386.4 1946.87,1386.4 1967.19,1386.4 1987.52,1386.4 2007.84,1386.4 2028.17,1386.4 2048.49,1386.4 2068.82,1386.4 2089.14,1386.4 2109.47,1386.4 2129.79,1386.4 2150.12,1386.4 2170.44,1386.4 2190.77,1386.4 2211.09,1386.4 2231.42,1386.4 2251.74,1386.4 2272.07,1386.4 2292.39,1386.4 "/>
<polyline clip-path="url(#clip952)" style="stroke:#ff0000; stroke-linecap:round; stroke-linejoin:round; stroke-width:4; stroke-opacity:1; fill:none" points="300.556,160.256 320.881,160.256 341.206,160.256 361.53,160.256 381.855,160.256 402.18,160.256 422.505,160.256 442.83,160.256 463.155,160.256 483.48,160.256 503.804,160.256 524.129,160.256 544.454,160.256 564.779,160.256 585.104,160.256 605.429,160.256 625.753,160.256 646.078,160.256 666.403,160.256 686.728,160.256 707.053,160.256 727.378,160.256 747.703,160.256 768.027,160.256 788.352,160.256 808.677,160.256 829.002,160.256 849.327,160.256 869.652,160.256 889.977,160.256 910.301,160.256 930.626,160.256 950.951,160.256 971.276,160.256 991.601,160.256 1011.93,160.256 1032.25,160.256 1052.58,160.256 1072.9,160.256 1093.23,160.256 1113.55,160.256 1133.87,160.256 1154.2,160.256 1174.52,160.256 1194.85,160.256 1215.17,160.256 1235.5,160.256 1255.82,160.256 1276.15,160.256 1296.47,160.256 1316.8,160.256 1337.12,160.256 1357.45,160.256 1377.77,160.256 1398.1,160.256 1418.42,160.256 1438.75,160.256 1459.07,160.256 1479.4,160.256 1499.72,160.256 1520.05,160.256 1540.37,160.256 1560.7,160.256 1581.02,160.256 1601.35,160.256 1621.67,160.256 1642,160.256 1662.32,160.256 1682.65,160.256 1702.97,160.256 1723.3,160.256 1743.62,160.256 1763.95,160.256 1784.27,160.256 1804.59,160.256 1824.92,160.256 1845.24,160.256 1865.57,160.256 1885.89,160.256 1906.22,160.256 1926.54,160.256 1946.87,160.256 1967.19,160.256 1987.52,160.256 2007.84,160.256 2028.17,160.256 2048.49,160.256 2068.82,160.256 2089.14,160.256 2109.47,160.256 2129.79,160.256 2150.12,160.256 2170.44,160.256 2190.77,160.256 2211.09,160.256 2231.42,160.256 2251.74,160.256 2272.07,160.256 2292.39,160.256 "/>
<path clip-path="url(#clip950)" d="M1645.25 322.316 L2281.66 322.316 L2281.66 166.796 L1645.25 166.796  Z" fill="#ffffff" fill-rule="evenodd" fill-opacity="1"/>
<polyline clip-path="url(#clip950)" style="stroke:#000000; stroke-linecap:round; stroke-linejoin:round; stroke-width:4; stroke-opacity:1; fill:none" points="1645.25,322.316 2281.66,322.316 2281.66,166.796 1645.25,166.796 1645.25,322.316 "/>
<polyline clip-path="url(#clip950)" style="stroke:#000000; stroke-linecap:round; stroke-linejoin:round; stroke-width:4; stroke-opacity:1; fill:none" points="1668.95,218.636 1811.14,218.636 "/>
<path clip-path="url(#clip950)" d="M1836.41 201.356 L1841.44 201.356 L1850.02 214.203 L1858.66 201.356 L1863.68 201.356 L1852.57 217.953 L1864.42 235.916 L1859.4 235.916 L1849.68 221.217 L1839.88 235.916 L1834.84 235.916 L1847.18 217.467 L1836.41 201.356 Z" fill="#000000" fill-rule="nonzero" fill-opacity="1" /><path clip-path="url(#clip950)" d="M1870.93 214.388 L1900.6 214.388 L1900.6 218.277 L1870.93 218.277 L1870.93 214.388 M1870.93 223.832 L1900.6 223.832 L1900.6 227.768 L1870.93 227.768 L1870.93 223.832 Z" fill="#000000" fill-rule="nonzero" fill-opacity="1" /><path clip-path="url(#clip950)" d="M1920.69 204.434 Q1917.08 204.434 1915.25 207.999 Q1913.45 211.541 1913.45 218.67 Q1913.45 225.777 1915.25 229.342 Q1917.08 232.883 1920.69 232.883 Q1924.33 232.883 1926.13 229.342 Q1927.96 225.777 1927.96 218.67 Q1927.96 211.541 1926.13 207.999 Q1924.33 204.434 1920.69 204.434 M1920.69 200.731 Q1926.5 200.731 1929.56 205.337 Q1932.64 209.92 1932.64 218.67 Q1932.64 227.397 1929.56 232.004 Q1926.5 236.587 1920.69 236.587 Q1914.88 236.587 1911.81 232.004 Q1908.75 227.397 1908.75 218.67 Q1908.75 209.92 1911.81 205.337 Q1914.88 200.731 1920.69 200.731 Z" fill="#000000" fill-rule="nonzero" fill-opacity="1" /><path clip-path="url(#clip950)" d="M1941.34 230.036 L1946.23 230.036 L1946.23 234.018 L1942.43 241.425 L1939.44 241.425 L1941.34 234.018 L1941.34 230.036 Z" fill="#000000" fill-rule="nonzero" fill-opacity="1" /><path clip-path="url(#clip950)" d="M1968.59 201.356 L1995.74 201.356 L1995.74 204.921 L1973.89 231.981 L1996.27 231.981 L1996.27 235.916 L1968.05 235.916 L1968.05 232.351 L1989.91 205.291 L1968.59 205.291 L1968.59 201.356 Z" fill="#000000" fill-rule="nonzero" fill-opacity="1" /><path clip-path="url(#clip950)" d="M2004.28 231.981 L2011.92 231.981 L2011.92 205.615 L2003.61 207.282 L2003.61 203.022 L2011.87 201.356 L2016.55 201.356 L2016.55 231.981 L2024.19 231.981 L2024.19 235.916 L2004.28 235.916 L2004.28 231.981 Z" fill="#000000" fill-rule="nonzero" fill-opacity="1" /><path clip-path="url(#clip950)" d="M2033.59 214.388 L2063.26 214.388 L2063.26 218.277 L2033.59 218.277 L2033.59 214.388 M2033.59 223.832 L2063.26 223.832 L2063.26 227.768 L2033.59 227.768 L2033.59 223.832 Z" fill="#000000" fill-rule="nonzero" fill-opacity="1" /><path clip-path="url(#clip950)" d="M2083.36 204.434 Q2079.74 204.434 2077.92 207.999 Q2076.11 211.541 2076.11 218.67 Q2076.11 225.777 2077.92 229.342 Q2079.74 232.883 2083.36 232.883 Q2086.99 232.883 2088.8 229.342 Q2090.62 225.777 2090.62 218.67 Q2090.62 211.541 2088.8 207.999 Q2086.99 204.434 2083.36 204.434 M2083.36 200.731 Q2089.17 200.731 2092.22 205.337 Q2095.3 209.92 2095.3 218.67 Q2095.3 227.397 2092.22 232.004 Q2089.17 236.587 2083.36 236.587 Q2077.55 236.587 2074.47 232.004 Q2071.41 227.397 2071.41 218.67 Q2071.41 209.92 2074.47 205.337 Q2077.55 200.731 2083.36 200.731 Z" fill="#000000" fill-rule="nonzero" fill-opacity="1" /><path clip-path="url(#clip950)" d="M2104 230.036 L2108.89 230.036 L2108.89 234.018 L2105.09 241.425 L2102.11 241.425 L2104 234.018 L2104 230.036 Z" fill="#000000" fill-rule="nonzero" fill-opacity="1" /><path clip-path="url(#clip950)" d="M2131.25 201.356 L2158.4 201.356 L2158.4 204.921 L2136.55 231.981 L2158.93 231.981 L2158.93 235.916 L2130.72 235.916 L2130.72 232.351 L2152.57 205.291 L2131.25 205.291 L2131.25 201.356 Z" fill="#000000" fill-rule="nonzero" fill-opacity="1" /><path clip-path="url(#clip950)" d="M2170.16 231.981 L2186.48 231.981 L2186.48 235.916 L2164.54 235.916 L2164.54 231.981 Q2167.2 229.226 2171.78 224.596 Q2176.39 219.944 2177.57 218.601 Q2179.81 216.078 2180.69 214.342 Q2181.6 212.583 2181.6 210.893 Q2181.6 208.138 2179.65 206.402 Q2177.73 204.666 2174.63 204.666 Q2172.43 204.666 2169.98 205.43 Q2167.54 206.194 2164.77 207.745 L2164.77 203.022 Q2167.59 201.888 2170.04 201.309 Q2172.5 200.731 2174.54 200.731 Q2179.91 200.731 2183.1 203.416 Q2186.29 206.101 2186.29 210.592 Q2186.29 212.721 2185.48 214.643 Q2184.7 216.541 2182.59 219.133 Q2182.01 219.805 2178.91 223.022 Q2175.81 226.217 2170.16 231.981 Z" fill="#000000" fill-rule="nonzero" fill-opacity="1" /><path clip-path="url(#clip950)" d="M2196.25 214.388 L2225.92 214.388 L2225.92 218.277 L2196.25 218.277 L2196.25 214.388 M2196.25 223.832 L2225.92 223.832 L2225.92 227.768 L2196.25 227.768 L2196.25 223.832 Z" fill="#000000" fill-rule="nonzero" fill-opacity="1" /><path clip-path="url(#clip950)" d="M2246.02 204.434 Q2242.41 204.434 2240.58 207.999 Q2238.77 211.541 2238.77 218.67 Q2238.77 225.777 2240.58 229.342 Q2242.41 232.883 2246.02 232.883 Q2249.65 232.883 2251.46 229.342 Q2253.28 225.777 2253.28 218.67 Q2253.28 211.541 2251.46 207.999 Q2249.65 204.434 2246.02 204.434 M2246.02 200.731 Q2251.83 200.731 2254.88 205.337 Q2257.96 209.92 2257.96 218.67 Q2257.96 227.397 2254.88 232.004 Q2251.83 236.587 2246.02 236.587 Q2240.21 236.587 2237.13 232.004 Q2234.07 227.397 2234.07 218.67 Q2234.07 209.92 2237.13 205.337 Q2240.21 200.731 2246.02 200.731 Z" fill="#000000" fill-rule="nonzero" fill-opacity="1" /><polyline clip-path="url(#clip950)" style="stroke:#ff0000; stroke-linecap:round; stroke-linejoin:round; stroke-width:4; stroke-opacity:1; fill:none" points="1668.95,270.476 1811.14,270.476 "/>
<path clip-path="url(#clip950)" d="M1836.41 253.196 L1841.44 253.196 L1850.02 266.043 L1858.66 253.196 L1863.68 253.196 L1852.57 269.793 L1864.42 287.756 L1859.4 287.756 L1849.68 273.057 L1839.88 287.756 L1834.84 287.756 L1847.18 269.307 L1836.41 253.196 Z" fill="#000000" fill-rule="nonzero" fill-opacity="1" /><path clip-path="url(#clip950)" d="M1870.93 266.228 L1900.6 266.228 L1900.6 270.117 L1870.93 270.117 L1870.93 266.228 M1870.93 275.672 L1900.6 275.672 L1900.6 279.608 L1870.93 279.608 L1870.93 275.672 Z" fill="#000000" fill-rule="nonzero" fill-opacity="1" /><path clip-path="url(#clip950)" d="M1911.5 283.821 L1919.14 283.821 L1919.14 257.455 L1910.83 259.122 L1910.83 254.862 L1919.1 253.196 L1923.77 253.196 L1923.77 283.821 L1931.41 283.821 L1931.41 287.756 L1911.5 287.756 L1911.5 283.821 Z" fill="#000000" fill-rule="nonzero" fill-opacity="1" /><path clip-path="url(#clip950)" d="M1941.34 281.876 L1946.23 281.876 L1946.23 285.858 L1942.43 293.265 L1939.44 293.265 L1941.34 285.858 L1941.34 281.876 Z" fill="#000000" fill-rule="nonzero" fill-opacity="1" /><path clip-path="url(#clip950)" d="M1968.59 253.196 L1995.74 253.196 L1995.74 256.761 L1973.89 283.821 L1996.27 283.821 L1996.27 287.756 L1968.05 287.756 L1968.05 284.191 L1989.91 257.131 L1968.59 257.131 L1968.59 253.196 Z" fill="#000000" fill-rule="nonzero" fill-opacity="1" /><path clip-path="url(#clip950)" d="M2004.28 283.821 L2011.92 283.821 L2011.92 257.455 L2003.61 259.122 L2003.61 254.862 L2011.87 253.196 L2016.55 253.196 L2016.55 283.821 L2024.19 283.821 L2024.19 287.756 L2004.28 287.756 L2004.28 283.821 Z" fill="#000000" fill-rule="nonzero" fill-opacity="1" /><path clip-path="url(#clip950)" d="M2033.59 266.228 L2063.26 266.228 L2063.26 270.117 L2033.59 270.117 L2033.59 266.228 M2033.59 275.672 L2063.26 275.672 L2063.26 279.608 L2033.59 279.608 L2033.59 275.672 Z" fill="#000000" fill-rule="nonzero" fill-opacity="1" /><path clip-path="url(#clip950)" d="M2074.17 283.821 L2081.8 283.821 L2081.8 257.455 L2073.49 259.122 L2073.49 254.862 L2081.76 253.196 L2086.43 253.196 L2086.43 283.821 L2094.07 283.821 L2094.07 287.756 L2074.17 287.756 L2074.17 283.821 Z" fill="#000000" fill-rule="nonzero" fill-opacity="1" /><path clip-path="url(#clip950)" d="M2104 281.876 L2108.89 281.876 L2108.89 285.858 L2105.09 293.265 L2102.11 293.265 L2104 285.858 L2104 281.876 Z" fill="#000000" fill-rule="nonzero" fill-opacity="1" /><path clip-path="url(#clip950)" d="M2131.25 253.196 L2158.4 253.196 L2158.4 256.761 L2136.55 283.821 L2158.93 283.821 L2158.93 287.756 L2130.72 287.756 L2130.72 284.191 L2152.57 257.131 L2131.25 257.131 L2131.25 253.196 Z" fill="#000000" fill-rule="nonzero" fill-opacity="1" /><path clip-path="url(#clip950)" d="M2170.16 283.821 L2186.48 283.821 L2186.48 287.756 L2164.54 287.756 L2164.54 283.821 Q2167.2 281.066 2171.78 276.436 Q2176.39 271.784 2177.57 270.441 Q2179.81 267.918 2180.69 266.182 Q2181.6 264.423 2181.6 262.733 Q2181.6 259.978 2179.65 258.242 Q2177.73 256.506 2174.63 256.506 Q2172.43 256.506 2169.98 257.27 Q2167.54 258.034 2164.77 259.585 L2164.77 254.862 Q2167.59 253.728 2170.04 253.149 Q2172.5 252.571 2174.54 252.571 Q2179.91 252.571 2183.1 255.256 Q2186.29 257.941 2186.29 262.432 Q2186.29 264.561 2185.48 266.483 Q2184.7 268.381 2182.59 270.973 Q2182.01 271.645 2178.91 274.862 Q2175.81 278.057 2170.16 283.821 Z" fill="#000000" fill-rule="nonzero" fill-opacity="1" /><path clip-path="url(#clip950)" d="M2196.25 266.228 L2225.92 266.228 L2225.92 270.117 L2196.25 270.117 L2196.25 266.228 M2196.25 275.672 L2225.92 275.672 L2225.92 279.608 L2196.25 279.608 L2196.25 275.672 Z" fill="#000000" fill-rule="nonzero" fill-opacity="1" /><path clip-path="url(#clip950)" d="M2236.83 283.821 L2244.47 283.821 L2244.47 257.455 L2236.16 259.122 L2236.16 254.862 L2244.42 253.196 L2249.1 253.196 L2249.1 283.821 L2256.73 283.821 L2256.73 287.756 L2236.83 287.756 L2236.83 283.821 Z" fill="#000000" fill-rule="nonzero" fill-opacity="1" /></svg>
