<?xml version="1.0" encoding="utf-8"?>
<svg xmlns="http://www.w3.org/2000/svg" xmlns:xlink="http://www.w3.org/1999/xlink" width="600" height="400" viewBox="0 0 2400 1600">
<defs>
  <clipPath id="clip230">
    <rect x="0" y="0" width="2400" height="1600"/>
  </clipPath>
</defs>
<path clip-path="url(#clip230)" d="M0 1600 L2400 1600 L2400 0 L0 0  Z" fill="#ffffff" fill-rule="evenodd" fill-opacity="1"/>
<defs>
  <clipPath id="clip231">
    <rect x="480" y="0" width="1681" height="1600"/>
  </clipPath>
</defs>
<path clip-path="url(#clip230)" d="M203.964 1423.18 L2352.76 1423.18 L2352.76 123.472 L203.964 123.472  Z" fill="#ffffff" fill-rule="evenodd" fill-opacity="1"/>
<defs>
  <clipPath id="clip232">
    <rect x="203" y="123" width="2150" height="1301"/>
  </clipPath>
</defs>
<polyline clip-path="url(#clip230)" style="stroke:#000000; stroke-linecap:round; stroke-linejoin:round; stroke-width:4; stroke-opacity:1; fill:none" points="203.964,1423.18 2352.76,1423.18 "/>
<polyline clip-path="url(#clip230)" style="stroke:#000000; stroke-linecap:round; stroke-linejoin:round; stroke-width:4; stroke-opacity:1; fill:none" points="264.778,1423.18 264.778,1404.28 "/>
<polyline clip-path="url(#clip230)" style="stroke:#000000; stroke-linecap:round; stroke-linejoin:round; stroke-width:4; stroke-opacity:1; fill:none" points="654.085,1423.18 654.085,1404.28 "/>
<polyline clip-path="url(#clip230)" style="stroke:#000000; stroke-linecap:round; stroke-linejoin:round; stroke-width:4; stroke-opacity:1; fill:none" points="1043.39,1423.18 1043.39,1404.28 "/>
<polyline clip-path="url(#clip230)" style="stroke:#000000; stroke-linecap:round; stroke-linejoin:round; stroke-width:4; stroke-opacity:1; fill:none" points="1432.7,1423.18 1432.7,1404.28 "/>
<polyline clip-path="url(#clip230)" style="stroke:#000000; stroke-linecap:round; stroke-linejoin:round; stroke-width:4; stroke-opacity:1; fill:none" points="1822,1423.18 1822,1404.28 "/>
<polyline clip-path="url(#clip230)" style="stroke:#000000; stroke-linecap:round; stroke-linejoin:round; stroke-width:4; stroke-opacity:1; fill:none" points="2211.31,1423.18 2211.31,1404.28 "/>
<path clip-path="url(#clip230)" d="M264.778 1454.1 Q261.167 1454.1 259.339 1457.66 Q257.533 1461.2 257.533 1468.33 Q257.533 1475.44 259.339 1479.01 Q261.167 1482.55 264.778 1482.55 Q268.413 1482.55 270.218 1479.01 Q272.047 1475.44 272.047 1468.33 Q272.047 1461.2 270.218 1457.66 Q268.413 1454.1 264.778 1454.1 M264.778 1450.39 Q270.589 1450.39 273.644 1455 Q276.723 1459.58 276.723 1468.33 Q276.723 1477.06 273.644 1481.67 Q270.589 1486.25 264.778 1486.25 Q258.968 1486.25 255.89 1481.67 Q252.834 1477.06 252.834 1468.33 Q252.834 1459.58 255.89 1455 Q258.968 1450.39 264.778 1450.39 Z" fill="#000000" fill-rule="nonzero" fill-opacity="1" /><path clip-path="url(#clip230)" d="M644.467 1481.64 L652.106 1481.64 L652.106 1455.28 L643.795 1456.95 L643.795 1452.69 L652.059 1451.02 L656.735 1451.02 L656.735 1481.64 L664.374 1481.64 L664.374 1485.58 L644.467 1485.58 L644.467 1481.64 Z" fill="#000000" fill-rule="nonzero" fill-opacity="1" /><path clip-path="url(#clip230)" d="M1038.04 1481.64 L1054.36 1481.64 L1054.36 1485.58 L1032.42 1485.58 L1032.42 1481.64 Q1035.08 1478.89 1039.66 1474.26 Q1044.27 1469.61 1045.45 1468.27 Q1047.7 1465.74 1048.58 1464.01 Q1049.48 1462.25 1049.48 1460.56 Q1049.48 1457.8 1047.53 1456.07 Q1045.61 1454.33 1042.51 1454.33 Q1040.31 1454.33 1037.86 1455.09 Q1035.43 1455.86 1032.65 1457.41 L1032.65 1452.69 Q1035.47 1451.55 1037.93 1450.97 Q1040.38 1450.39 1042.42 1450.39 Q1047.79 1450.39 1050.98 1453.08 Q1054.18 1455.77 1054.18 1460.26 Q1054.18 1462.39 1053.37 1464.31 Q1052.58 1466.2 1050.47 1468.8 Q1049.9 1469.47 1046.79 1472.69 Q1043.69 1475.88 1038.04 1481.64 Z" fill="#000000" fill-rule="nonzero" fill-opacity="1" /><path clip-path="url(#clip230)" d="M1436.94 1466.95 Q1440.3 1467.66 1442.18 1469.93 Q1444.07 1472.2 1444.07 1475.53 Q1444.07 1480.65 1440.56 1483.45 Q1437.04 1486.25 1430.56 1486.25 Q1428.38 1486.25 1426.07 1485.81 Q1423.77 1485.39 1421.32 1484.54 L1421.32 1480.02 Q1423.26 1481.16 1425.58 1481.74 Q1427.89 1482.32 1430.42 1482.32 Q1434.82 1482.32 1437.11 1480.58 Q1439.42 1478.84 1439.42 1475.53 Q1439.42 1472.48 1437.27 1470.77 Q1435.14 1469.03 1431.32 1469.03 L1427.29 1469.03 L1427.29 1465.19 L1431.51 1465.19 Q1434.95 1465.19 1436.78 1463.82 Q1438.61 1462.43 1438.61 1459.84 Q1438.61 1457.18 1436.71 1455.77 Q1434.84 1454.33 1431.32 1454.33 Q1429.4 1454.33 1427.2 1454.75 Q1425 1455.16 1422.36 1456.04 L1422.36 1451.88 Q1425.02 1451.14 1427.34 1450.77 Q1429.68 1450.39 1431.74 1450.39 Q1437.06 1450.39 1440.16 1452.83 Q1443.26 1455.23 1443.26 1459.35 Q1443.26 1462.22 1441.62 1464.21 Q1439.98 1466.18 1436.94 1466.95 Z" fill="#000000" fill-rule="nonzero" fill-opacity="1" /><path clip-path="url(#clip230)" d="M1825.01 1455.09 L1813.21 1473.54 L1825.01 1473.54 L1825.01 1455.09 M1823.79 1451.02 L1829.67 1451.02 L1829.67 1473.54 L1834.6 1473.54 L1834.6 1477.43 L1829.67 1477.43 L1829.67 1485.58 L1825.01 1485.58 L1825.01 1477.43 L1809.41 1477.43 L1809.41 1472.92 L1823.79 1451.02 Z" fill="#000000" fill-rule="nonzero" fill-opacity="1" /><path clip-path="url(#clip230)" d="M2201.59 1451.02 L2219.94 1451.02 L2219.94 1454.96 L2205.87 1454.96 L2205.87 1463.43 Q2206.89 1463.08 2207.91 1462.92 Q2208.93 1462.73 2209.94 1462.73 Q2215.73 1462.73 2219.11 1465.9 Q2222.49 1469.08 2222.49 1474.49 Q2222.49 1480.07 2219.02 1483.17 Q2215.55 1486.25 2209.23 1486.25 Q2207.05 1486.25 2204.78 1485.88 Q2202.54 1485.51 2200.13 1484.77 L2200.13 1480.07 Q2202.21 1481.2 2204.43 1481.76 Q2206.66 1482.32 2209.13 1482.32 Q2213.14 1482.32 2215.48 1480.21 Q2217.81 1478.1 2217.81 1474.49 Q2217.81 1470.88 2215.48 1468.77 Q2213.14 1466.67 2209.13 1466.67 Q2207.26 1466.67 2205.38 1467.08 Q2203.53 1467.5 2201.59 1468.38 L2201.59 1451.02 Z" fill="#000000" fill-rule="nonzero" fill-opacity="1" /><path clip-path="url(#clip230)" d="M1200.24 1520.52 L1240.44 1520.52 L1240.44 1525.93 L1223.57 1525.93 L1223.57 1568.04 L1217.11 1568.04 L1217.11 1525.93 L1200.24 1525.93 L1200.24 1520.52 Z" fill="#000000" fill-rule="nonzero" fill-opacity="1" /><path clip-path="url(#clip230)" d="M1244.38 1532.4 L1250.24 1532.4 L1250.24 1568.04 L1244.38 1568.04 L1244.38 1532.4 M1244.38 1518.52 L1250.24 1518.52 L1250.24 1525.93 L1244.38 1525.93 L1244.38 1518.52 Z" fill="#000000" fill-rule="nonzero" fill-opacity="1" /><path clip-path="url(#clip230)" d="M1290.25 1539.24 Q1292.44 1535.29 1295.5 1533.41 Q1298.55 1531.54 1302.69 1531.54 Q1308.26 1531.54 1311.29 1535.45 Q1314.31 1539.33 1314.31 1546.53 L1314.31 1568.04 L1308.42 1568.04 L1308.42 1546.72 Q1308.42 1541.59 1306.61 1539.11 Q1304.79 1536.63 1301.07 1536.63 Q1296.52 1536.63 1293.88 1539.65 Q1291.23 1542.68 1291.23 1547.9 L1291.23 1568.04 L1285.35 1568.04 L1285.35 1546.72 Q1285.35 1541.56 1283.53 1539.11 Q1281.72 1536.63 1277.93 1536.63 Q1273.44 1536.63 1270.8 1539.68 Q1268.16 1542.71 1268.16 1547.9 L1268.16 1568.04 L1262.27 1568.04 L1262.27 1532.4 L1268.16 1532.4 L1268.16 1537.93 Q1270.16 1534.66 1272.96 1533.1 Q1275.77 1531.54 1279.62 1531.54 Q1283.5 1531.54 1286.21 1533.51 Q1288.94 1535.48 1290.25 1539.24 Z" fill="#000000" fill-rule="nonzero" fill-opacity="1" /><path clip-path="url(#clip230)" d="M1356.48 1548.76 L1356.48 1551.62 L1329.56 1551.62 Q1329.94 1557.67 1333.18 1560.85 Q1336.46 1564 1342.29 1564 Q1345.66 1564 1348.81 1563.17 Q1352 1562.35 1355.11 1560.69 L1355.11 1566.23 Q1351.96 1567.57 1348.65 1568.27 Q1345.34 1568.97 1341.94 1568.97 Q1333.41 1568.97 1328.41 1564 Q1323.44 1559.04 1323.44 1550.57 Q1323.44 1541.82 1328.16 1536.69 Q1332.9 1531.54 1340.92 1531.54 Q1348.11 1531.54 1352.28 1536.18 Q1356.48 1540.8 1356.48 1548.76 M1350.63 1547.04 Q1350.56 1542.23 1347.92 1539.37 Q1345.31 1536.5 1340.98 1536.5 Q1336.08 1536.5 1333.12 1539.27 Q1330.19 1542.04 1329.75 1547.07 L1350.63 1547.04 Z" fill="#000000" fill-rule="nonzero" fill-opacity="1" /><polyline clip-path="url(#clip230)" style="stroke:#000000; stroke-linecap:round; stroke-linejoin:round; stroke-width:4; stroke-opacity:1; fill:none" points="203.964,1423.18 203.964,123.472 "/>
<polyline clip-path="url(#clip230)" style="stroke:#000000; stroke-linecap:round; stroke-linejoin:round; stroke-width:4; stroke-opacity:1; fill:none" points="203.964,1386.44 222.861,1386.44 "/>
<polyline clip-path="url(#clip230)" style="stroke:#000000; stroke-linecap:round; stroke-linejoin:round; stroke-width:4; stroke-opacity:1; fill:none" points="203.964,1048.89 222.861,1048.89 "/>
<polyline clip-path="url(#clip230)" style="stroke:#000000; stroke-linecap:round; stroke-linejoin:round; stroke-width:4; stroke-opacity:1; fill:none" points="203.964,711.343 222.861,711.343 "/>
<polyline clip-path="url(#clip230)" style="stroke:#000000; stroke-linecap:round; stroke-linejoin:round; stroke-width:4; stroke-opacity:1; fill:none" points="203.964,373.794 222.861,373.794 "/>
<path clip-path="url(#clip230)" d="M156.019 1372.24 Q152.408 1372.24 150.579 1375.81 Q148.774 1379.35 148.774 1386.48 Q148.774 1393.58 150.579 1397.15 Q152.408 1400.69 156.019 1400.69 Q159.653 1400.69 161.459 1397.15 Q163.288 1393.58 163.288 1386.48 Q163.288 1379.35 161.459 1375.81 Q159.653 1372.24 156.019 1372.24 M156.019 1368.54 Q161.829 1368.54 164.885 1373.14 Q167.964 1377.73 167.964 1386.48 Q167.964 1395.2 164.885 1399.81 Q161.829 1404.39 156.019 1404.39 Q150.209 1404.39 147.13 1399.81 Q144.075 1395.2 144.075 1386.48 Q144.075 1377.73 147.13 1373.14 Q150.209 1368.54 156.019 1368.54 Z" fill="#000000" fill-rule="nonzero" fill-opacity="1" /><path clip-path="url(#clip230)" d="M116.668 1062.24 L124.306 1062.24 L124.306 1035.87 L115.996 1037.54 L115.996 1033.28 L124.26 1031.61 L128.936 1031.61 L128.936 1062.24 L136.575 1062.24 L136.575 1066.17 L116.668 1066.17 L116.668 1062.24 Z" fill="#000000" fill-rule="nonzero" fill-opacity="1" /><path clip-path="url(#clip230)" d="M156.019 1034.69 Q152.408 1034.69 150.579 1038.26 Q148.774 1041.8 148.774 1048.93 Q148.774 1056.03 150.579 1059.6 Q152.408 1063.14 156.019 1063.14 Q159.653 1063.14 161.459 1059.6 Q163.288 1056.03 163.288 1048.93 Q163.288 1041.8 161.459 1038.26 Q159.653 1034.69 156.019 1034.69 M156.019 1030.99 Q161.829 1030.99 164.885 1035.59 Q167.964 1040.18 167.964 1048.93 Q167.964 1057.65 164.885 1062.26 Q161.829 1066.84 156.019 1066.84 Q150.209 1066.84 147.13 1062.26 Q144.075 1057.65 144.075 1048.93 Q144.075 1040.18 147.13 1035.59 Q150.209 1030.99 156.019 1030.99 Z" fill="#000000" fill-rule="nonzero" fill-opacity="1" /><path clip-path="url(#clip230)" d="M119.885 724.688 L136.204 724.688 L136.204 728.623 L114.26 728.623 L114.26 724.688 Q116.922 721.934 121.505 717.304 Q126.112 712.651 127.292 711.309 Q129.538 708.786 130.417 707.049 Q131.32 705.29 131.32 703.6 Q131.32 700.846 129.376 699.11 Q127.455 697.374 124.353 697.374 Q122.154 697.374 119.7 698.137 Q117.269 698.901 114.492 700.452 L114.492 695.73 Q117.316 694.596 119.769 694.017 Q122.223 693.438 124.26 693.438 Q129.63 693.438 132.825 696.124 Q136.019 698.809 136.019 703.299 Q136.019 705.429 135.209 707.35 Q134.422 709.249 132.316 711.841 Q131.737 712.512 128.635 715.73 Q125.533 718.924 119.885 724.688 Z" fill="#000000" fill-rule="nonzero" fill-opacity="1" /><path clip-path="url(#clip230)" d="M156.019 697.142 Q152.408 697.142 150.579 700.707 Q148.774 704.249 148.774 711.378 Q148.774 718.485 150.579 722.049 Q152.408 725.591 156.019 725.591 Q159.653 725.591 161.459 722.049 Q163.288 718.485 163.288 711.378 Q163.288 704.249 161.459 700.707 Q159.653 697.142 156.019 697.142 M156.019 693.438 Q161.829 693.438 164.885 698.045 Q167.964 702.628 167.964 711.378 Q167.964 720.105 164.885 724.711 Q161.829 729.295 156.019 729.295 Q150.209 729.295 147.13 724.711 Q144.075 720.105 144.075 711.378 Q144.075 702.628 147.13 698.045 Q150.209 693.438 156.019 693.438 Z" fill="#000000" fill-rule="nonzero" fill-opacity="1" /><path clip-path="url(#clip230)" d="M130.024 372.44 Q133.38 373.158 135.255 375.426 Q137.154 377.695 137.154 381.028 Q137.154 386.144 133.635 388.944 Q130.117 391.745 123.635 391.745 Q121.459 391.745 119.144 391.306 Q116.853 390.889 114.399 390.032 L114.399 385.519 Q116.343 386.653 118.658 387.232 Q120.973 387.81 123.496 387.81 Q127.894 387.81 130.186 386.074 Q132.501 384.338 132.501 381.028 Q132.501 377.972 130.348 376.259 Q128.218 374.523 124.399 374.523 L120.371 374.523 L120.371 370.681 L124.584 370.681 Q128.033 370.681 129.862 369.315 Q131.691 367.926 131.691 365.333 Q131.691 362.671 129.792 361.259 Q127.917 359.824 124.399 359.824 Q122.478 359.824 120.279 360.241 Q118.08 360.658 115.441 361.537 L115.441 357.371 Q118.103 356.63 120.418 356.259 Q122.755 355.889 124.816 355.889 Q130.14 355.889 133.242 358.32 Q136.343 360.727 136.343 364.847 Q136.343 367.718 134.7 369.708 Q133.056 371.676 130.024 372.44 Z" fill="#000000" fill-rule="nonzero" fill-opacity="1" /><path clip-path="url(#clip230)" d="M156.019 359.593 Q152.408 359.593 150.579 363.158 Q148.774 366.699 148.774 373.829 Q148.774 380.935 150.579 384.5 Q152.408 388.042 156.019 388.042 Q159.653 388.042 161.459 384.5 Q163.288 380.935 163.288 373.829 Q163.288 366.699 161.459 363.158 Q159.653 359.593 156.019 359.593 M156.019 355.889 Q161.829 355.889 164.885 360.496 Q167.964 365.079 167.964 373.829 Q167.964 382.556 164.885 387.162 Q161.829 391.745 156.019 391.745 Q150.209 391.745 147.13 387.162 Q144.075 382.556 144.075 373.829 Q144.075 365.079 147.13 360.496 Q150.209 355.889 156.019 355.889 Z" fill="#000000" fill-rule="nonzero" fill-opacity="1" /><path clip-path="url(#clip230)" d="M16.4842 882.243 L16.4842 875.814 L35.9632 875.814 L35.9632 852.452 L16.4842 852.452 L16.4842 846.022 L64.0042 846.022 L64.0042 852.452 L41.3741 852.452 L41.3741 875.814 L64.0042 875.814 L64.0042 882.243 L16.4842 882.243 Z" fill="#000000" fill-rule="nonzero" fill-opacity="1" /><path clip-path="url(#clip230)" d="M46.0847 817.281 Q46.0847 824.379 47.7079 827.116 Q49.3312 829.853 53.2461 829.853 Q56.3653 829.853 58.2114 827.816 Q60.0256 825.748 60.0256 822.215 Q60.0256 817.345 56.5881 814.417 Q53.1188 811.457 47.3897 811.457 L46.0847 811.457 L46.0847 817.281 M43.6657 805.6 L64.0042 805.6 L64.0042 811.457 L58.5933 811.457 Q61.8398 813.462 63.3994 816.454 Q64.9272 819.446 64.9272 823.774 Q64.9272 829.249 61.8716 832.495 Q58.7843 835.71 53.6281 835.71 Q47.6125 835.71 44.5569 831.7 Q41.5014 827.657 41.5014 819.668 L41.5014 811.457 L40.9285 811.457 Q36.8862 811.457 34.6901 814.13 Q32.4621 816.772 32.4621 821.578 Q32.4621 824.634 33.1941 827.53 Q33.9262 830.426 35.3903 833.1 L29.9795 833.1 Q28.7381 829.885 28.1334 826.862 Q27.4968 823.838 27.4968 820.973 Q27.4968 813.239 31.5072 809.42 Q35.5176 805.6 43.6657 805.6 Z" fill="#000000" fill-rule="nonzero" fill-opacity="1" /><path clip-path="url(#clip230)" d="M28.3562 796.083 L28.3562 768.265 L33.7034 768.265 L59.3254 790.291 L59.3254 768.265 L64.0042 768.265 L64.0042 796.879 L58.657 796.879 L33.035 774.854 L33.035 796.083 L28.3562 796.083 Z" fill="#000000" fill-rule="nonzero" fill-opacity="1" /><path clip-path="url(#clip230)" d="M46.0847 743.121 Q46.0847 750.218 47.7079 752.956 Q49.3312 755.693 53.2461 755.693 Q56.3653 755.693 58.2114 753.656 Q60.0256 751.587 60.0256 748.054 Q60.0256 743.184 56.5881 740.256 Q53.1188 737.296 47.3897 737.296 L46.0847 737.296 L46.0847 743.121 M43.6657 731.44 L64.0042 731.44 L64.0042 737.296 L58.5933 737.296 Q61.8398 739.301 63.3994 742.293 Q64.9272 745.285 64.9272 749.614 Q64.9272 755.088 61.8716 758.335 Q58.7843 761.549 53.6281 761.549 Q47.6125 761.549 44.5569 757.539 Q41.5014 753.497 41.5014 745.508 L41.5014 737.296 L40.9285 737.296 Q36.8862 737.296 34.6901 739.97 Q32.4621 742.611 32.4621 747.418 Q32.4621 750.473 33.1941 753.369 Q33.9262 756.266 35.3903 758.939 L29.9795 758.939 Q28.7381 755.725 28.1334 752.701 Q27.4968 749.677 27.4968 746.813 Q27.4968 739.078 31.5072 735.259 Q35.5176 731.44 43.6657 731.44 Z" fill="#000000" fill-rule="nonzero" fill-opacity="1" /><path clip-path="url(#clip230)" d="M33.8307 698.72 Q33.2578 699.707 33.0032 700.884 Q32.7167 702.03 32.7167 703.431 Q32.7167 708.396 35.9632 711.069 Q39.1779 713.711 45.2253 713.711 L64.0042 713.711 L64.0042 719.599 L28.3562 719.599 L28.3562 713.711 L33.8944 713.711 Q30.6479 711.865 29.0883 708.905 Q27.4968 705.945 27.4968 701.712 Q27.4968 701.107 27.5923 700.375 Q27.656 699.643 27.8151 698.752 L33.8307 698.72 Z" fill="#000000" fill-rule="nonzero" fill-opacity="1" /><path clip-path="url(#clip230)" d="M33.7671 670.265 L14.479 670.265 L14.479 664.409 L64.0042 664.409 L64.0042 670.265 L58.657 670.265 Q61.8398 672.111 63.3994 674.944 Q64.9272 677.745 64.9272 681.692 Q64.9272 688.153 59.771 692.227 Q54.6147 696.269 46.212 696.269 Q37.8093 696.269 32.6531 692.227 Q27.4968 688.153 27.4968 681.692 Q27.4968 677.745 29.0564 674.944 Q30.5842 672.111 33.7671 670.265 M46.212 690.222 Q52.6732 690.222 56.3653 687.58 Q60.0256 684.906 60.0256 680.259 Q60.0256 675.612 56.3653 672.939 Q52.6732 670.265 46.212 670.265 Q39.7508 670.265 36.0905 672.939 Q32.3984 675.612 32.3984 680.259 Q32.3984 684.906 36.0905 687.58 Q39.7508 690.222 46.212 690.222 Z" fill="#000000" fill-rule="nonzero" fill-opacity="1" /><path clip-path="url(#clip230)" d="M659.564 63.9476 L659.564 47.7034 L646.196 47.7034 L646.196 40.9789 L667.666 40.9789 L667.666 66.9452 Q662.926 70.3075 657.214 72.0494 Q651.503 73.7508 645.021 73.7508 Q630.843 73.7508 622.822 65.4869 Q614.842 57.1826 614.842 42.3968 Q614.842 27.5705 622.822 19.3066 Q630.843 11.0023 645.021 11.0023 Q650.935 11.0023 656.242 12.4606 Q661.589 13.9189 666.086 16.7545 L666.086 25.464 Q661.549 21.6156 656.445 19.6712 Q651.341 17.7268 645.71 17.7268 Q634.61 17.7268 629.02 23.9246 Q623.47 30.1225 623.47 42.3968 Q623.47 54.6305 629.02 60.8284 Q634.61 67.0263 645.71 67.0263 Q650.044 67.0263 653.447 66.2971 Q656.85 65.5274 659.564 63.9476 Z" fill="#000000" fill-rule="nonzero" fill-opacity="1" /><path clip-path="url(#clip230)" d="M721.097 48.0275 L721.097 51.6733 L686.826 51.6733 Q687.313 59.3701 691.444 63.421 Q695.617 67.4314 703.03 67.4314 Q707.324 67.4314 711.334 66.3781 Q715.385 65.3249 719.355 63.2184 L719.355 70.267 Q715.345 71.9684 711.132 72.8596 Q706.919 73.7508 702.584 73.7508 Q691.728 73.7508 685.368 67.4314 Q679.049 61.1119 679.049 50.3365 Q679.049 39.1965 685.044 32.6746 Q691.08 26.1121 701.288 26.1121 Q710.443 26.1121 715.75 32.0264 Q721.097 37.9003 721.097 48.0275 M713.643 45.84 Q713.562 39.7232 710.2 36.0774 Q706.878 32.4315 701.369 32.4315 Q695.131 32.4315 691.363 35.9558 Q687.637 39.4801 687.07 45.8805 L713.643 45.84 Z" fill="#000000" fill-rule="nonzero" fill-opacity="1" /><path clip-path="url(#clip230)" d="M771.045 45.1919 L771.045 72.576 L763.591 72.576 L763.591 45.4349 Q763.591 38.994 761.08 35.7938 Q758.568 32.5936 753.545 32.5936 Q747.509 32.5936 744.025 36.4419 Q740.541 40.2903 740.541 46.9338 L740.541 72.576 L733.047 72.576 L733.047 27.2059 L740.541 27.2059 L740.541 34.2544 Q743.215 30.163 746.82 28.1376 Q750.466 26.1121 755.206 26.1121 Q763.024 26.1121 767.034 30.9732 Q771.045 35.7938 771.045 45.1919 Z" fill="#000000" fill-rule="nonzero" fill-opacity="1" /><path clip-path="url(#clip230)" d="M824.719 48.0275 L824.719 51.6733 L790.449 51.6733 Q790.935 59.3701 795.067 63.421 Q799.239 67.4314 806.652 67.4314 Q810.946 67.4314 814.957 66.3781 Q819.007 65.3249 822.977 63.2184 L822.977 70.267 Q818.967 71.9684 814.754 72.8596 Q810.541 73.7508 806.207 73.7508 Q795.35 73.7508 788.99 67.4314 Q782.671 61.1119 782.671 50.3365 Q782.671 39.1965 788.666 32.6746 Q794.702 26.1121 804.91 26.1121 Q814.065 26.1121 819.372 32.0264 Q824.719 37.9003 824.719 48.0275 M817.266 45.84 Q817.185 39.7232 813.822 36.0774 Q810.501 32.4315 804.991 32.4315 Q798.753 32.4315 794.986 35.9558 Q791.259 39.4801 790.692 45.8805 L817.266 45.84 Z" fill="#000000" fill-rule="nonzero" fill-opacity="1" /><path clip-path="url(#clip230)" d="M863.243 34.1734 Q861.988 33.4443 860.489 33.1202 Q859.03 32.7556 857.248 32.7556 Q850.929 32.7556 847.526 36.8875 Q844.164 40.9789 844.164 48.6757 L844.164 72.576 L836.669 72.576 L836.669 27.2059 L844.164 27.2059 L844.164 34.2544 Q846.513 30.1225 850.28 28.1376 Q854.048 26.1121 859.435 26.1121 Q860.205 26.1121 861.137 26.2337 Q862.069 26.3147 863.203 26.5172 L863.243 34.1734 Z" fill="#000000" fill-rule="nonzero" fill-opacity="1" /><path clip-path="url(#clip230)" d="M891.681 49.7694 Q882.647 49.7694 879.163 51.8354 Q875.68 53.9013 875.68 58.8839 Q875.68 62.8538 878.272 65.2034 Q880.905 67.5124 885.402 67.5124 Q891.6 67.5124 895.326 63.1374 Q899.094 58.7219 899.094 51.4303 L899.094 49.7694 L891.681 49.7694 M906.547 46.6907 L906.547 72.576 L899.094 72.576 L899.094 65.6895 Q896.542 69.8214 892.734 71.8063 Q888.926 73.7508 883.417 73.7508 Q876.449 73.7508 872.317 69.8619 Q868.226 65.9325 868.226 59.3701 Q868.226 51.7138 873.33 47.825 Q878.475 43.9361 888.642 43.9361 L899.094 43.9361 L899.094 43.2069 Q899.094 38.0623 895.691 35.2672 Q892.329 32.4315 886.212 32.4315 Q882.323 32.4315 878.637 33.3632 Q874.95 34.295 871.548 36.1584 L871.548 29.2718 Q875.639 27.692 879.487 26.9223 Q883.336 26.1121 886.982 26.1121 Q896.825 26.1121 901.686 31.2163 Q906.547 36.3204 906.547 46.6907 Z" fill="#000000" fill-rule="nonzero" fill-opacity="1" /><path clip-path="url(#clip230)" d="M921.9 9.54393 L929.354 9.54393 L929.354 72.576 L921.9 72.576 L921.9 9.54393 Z" fill="#000000" fill-rule="nonzero" fill-opacity="1" /><path clip-path="url(#clip230)" d="M944.95 27.2059 L952.404 27.2059 L952.404 72.576 L944.95 72.576 L944.95 27.2059 M944.95 9.54393 L952.404 9.54393 L952.404 18.9825 L944.95 18.9825 L944.95 9.54393 Z" fill="#000000" fill-rule="nonzero" fill-opacity="1" /><path clip-path="url(#clip230)" d="M964.759 27.2059 L1000.16 27.2059 L1000.16 34.0114 L972.132 66.6212 L1000.16 66.6212 L1000.16 72.576 L963.746 72.576 L963.746 65.7705 L991.779 33.1607 L964.759 33.1607 L964.759 27.2059 Z" fill="#000000" fill-rule="nonzero" fill-opacity="1" /><path clip-path="url(#clip230)" d="M1050.35 48.0275 L1050.35 51.6733 L1016.08 51.6733 Q1016.57 59.3701 1020.7 63.421 Q1024.87 67.4314 1032.29 67.4314 Q1036.58 67.4314 1040.59 66.3781 Q1044.64 65.3249 1048.61 63.2184 L1048.61 70.267 Q1044.6 71.9684 1040.39 72.8596 Q1036.18 73.7508 1031.84 73.7508 Q1020.99 73.7508 1014.63 67.4314 Q1008.31 61.1119 1008.31 50.3365 Q1008.31 39.1965 1014.3 32.6746 Q1020.34 26.1121 1030.55 26.1121 Q1039.7 26.1121 1045.01 32.0264 Q1050.35 37.9003 1050.35 48.0275 M1042.9 45.84 Q1042.82 39.7232 1039.46 36.0774 Q1036.14 32.4315 1030.63 32.4315 Q1024.39 32.4315 1020.62 35.9558 Q1016.89 39.4801 1016.33 45.8805 L1042.9 45.84 Z" fill="#000000" fill-rule="nonzero" fill-opacity="1" /><path clip-path="url(#clip230)" d="M1092.44 34.0924 L1092.44 9.54393 L1099.9 9.54393 L1099.9 72.576 L1092.44 72.576 L1092.44 65.7705 Q1090.09 69.8214 1086.49 71.8063 Q1082.92 73.7508 1077.9 73.7508 Q1069.68 73.7508 1064.49 67.1883 Q1059.35 60.6258 1059.35 49.9314 Q1059.35 39.2371 1064.49 32.6746 Q1069.68 26.1121 1077.9 26.1121 Q1082.92 26.1121 1086.49 28.0971 Q1090.09 30.0415 1092.44 34.0924 M1067.04 49.9314 Q1067.04 58.1548 1070.41 62.8538 Q1073.81 67.5124 1079.72 67.5124 Q1085.64 67.5124 1089.04 62.8538 Q1092.44 58.1548 1092.44 49.9314 Q1092.44 41.7081 1089.04 37.0496 Q1085.64 32.3505 1079.72 32.3505 Q1073.81 32.3505 1070.41 37.0496 Q1067.04 41.7081 1067.04 49.9314 Z" fill="#000000" fill-rule="nonzero" fill-opacity="1" /><path clip-path="url(#clip230)" d="M1171.48 49.3643 Q1171.48 41.2625 1168.11 36.8065 Q1164.79 32.3505 1158.76 32.3505 Q1152.76 32.3505 1149.4 36.8065 Q1146.08 41.2625 1146.08 49.3643 Q1146.08 57.4256 1149.4 61.8816 Q1152.76 66.3376 1158.76 66.3376 Q1164.79 66.3376 1168.11 61.8816 Q1171.48 57.4256 1171.48 49.3643 M1178.93 66.9452 Q1178.93 78.5308 1173.79 84.1616 Q1168.64 89.8329 1158.03 89.8329 Q1154.1 89.8329 1150.61 89.2252 Q1147.13 88.6581 1143.85 87.4428 L1143.85 80.1917 Q1147.13 81.9741 1150.33 82.8248 Q1153.53 83.6755 1156.85 83.6755 Q1164.19 83.6755 1167.83 79.8271 Q1171.48 76.0193 1171.48 68.282 L1171.48 64.5957 Q1169.17 68.6061 1165.56 70.5911 Q1161.96 72.576 1156.93 72.576 Q1148.59 72.576 1143.48 66.2161 Q1138.38 59.8562 1138.38 49.3643 Q1138.38 38.832 1143.48 32.472 Q1148.59 26.1121 1156.93 26.1121 Q1161.96 26.1121 1165.56 28.0971 Q1169.17 30.082 1171.48 34.0924 L1171.48 27.2059 L1178.93 27.2059 L1178.93 66.9452 Z" fill="#000000" fill-rule="nonzero" fill-opacity="1" /><path clip-path="url(#clip230)" d="M1214.9 49.7694 Q1205.87 49.7694 1202.39 51.8354 Q1198.9 53.9013 1198.9 58.8839 Q1198.9 62.8538 1201.49 65.2034 Q1204.13 67.5124 1208.62 67.5124 Q1214.82 67.5124 1218.55 63.1374 Q1222.32 58.7219 1222.32 51.4303 L1222.32 49.7694 L1214.9 49.7694 M1229.77 46.6907 L1229.77 72.576 L1222.32 72.576 L1222.32 65.6895 Q1219.76 69.8214 1215.96 71.8063 Q1212.15 73.7508 1206.64 73.7508 Q1199.67 73.7508 1195.54 69.8619 Q1191.45 65.9325 1191.45 59.3701 Q1191.45 51.7138 1196.55 47.825 Q1201.7 43.9361 1211.86 43.9361 L1222.32 43.9361 L1222.32 43.2069 Q1222.32 38.0623 1218.91 35.2672 Q1215.55 32.4315 1209.43 32.4315 Q1205.54 32.4315 1201.86 33.3632 Q1198.17 34.295 1194.77 36.1584 L1194.77 29.2718 Q1198.86 27.692 1202.71 26.9223 Q1206.56 26.1121 1210.2 26.1121 Q1220.05 26.1121 1224.91 31.2163 Q1229.77 36.3204 1229.77 46.6907 Z" fill="#000000" fill-rule="nonzero" fill-opacity="1" /><path clip-path="url(#clip230)" d="M1280.45 35.9153 Q1283.24 30.8922 1287.13 28.5022 Q1291.02 26.1121 1296.28 26.1121 Q1303.37 26.1121 1307.22 31.0947 Q1311.07 36.0368 1311.07 45.1919 L1311.07 72.576 L1303.58 72.576 L1303.58 45.4349 Q1303.58 38.913 1301.27 35.7533 Q1298.96 32.5936 1294.22 32.5936 Q1288.43 32.5936 1285.06 36.4419 Q1281.7 40.2903 1281.7 46.9338 L1281.7 72.576 L1274.21 72.576 L1274.21 45.4349 Q1274.21 38.8725 1271.9 35.7533 Q1269.59 32.5936 1264.77 32.5936 Q1259.06 32.5936 1255.69 36.4824 Q1252.33 40.3308 1252.33 46.9338 L1252.33 72.576 L1244.84 72.576 L1244.84 27.2059 L1252.33 27.2059 L1252.33 34.2544 Q1254.88 30.082 1258.45 28.0971 Q1262.01 26.1121 1266.92 26.1121 Q1271.86 26.1121 1275.3 28.6237 Q1278.79 31.1352 1280.45 35.9153 Z" fill="#000000" fill-rule="nonzero" fill-opacity="1" /><path clip-path="url(#clip230)" d="M1361.26 35.9153 Q1364.06 30.8922 1367.95 28.5022 Q1371.83 26.1121 1377.1 26.1121 Q1384.19 26.1121 1388.04 31.0947 Q1391.89 36.0368 1391.89 45.1919 L1391.89 72.576 L1384.39 72.576 L1384.39 45.4349 Q1384.39 38.913 1382.08 35.7533 Q1379.77 32.5936 1375.03 32.5936 Q1369.24 32.5936 1365.88 36.4419 Q1362.52 40.2903 1362.52 46.9338 L1362.52 72.576 L1355.02 72.576 L1355.02 45.4349 Q1355.02 38.8725 1352.71 35.7533 Q1350.41 32.5936 1345.58 32.5936 Q1339.87 32.5936 1336.51 36.4824 Q1333.15 40.3308 1333.15 46.9338 L1333.15 72.576 L1325.65 72.576 L1325.65 27.2059 L1333.15 27.2059 L1333.15 34.2544 Q1335.7 30.082 1339.27 28.0971 Q1342.83 26.1121 1347.73 26.1121 Q1352.67 26.1121 1356.12 28.6237 Q1359.6 31.1352 1361.26 35.9153 Z" fill="#000000" fill-rule="nonzero" fill-opacity="1" /><path clip-path="url(#clip230)" d="M1427.37 49.7694 Q1418.34 49.7694 1414.85 51.8354 Q1411.37 53.9013 1411.37 58.8839 Q1411.37 62.8538 1413.96 65.2034 Q1416.6 67.5124 1421.09 67.5124 Q1427.29 67.5124 1431.02 63.1374 Q1434.79 58.7219 1434.79 51.4303 L1434.79 49.7694 L1427.37 49.7694 M1442.24 46.6907 L1442.24 72.576 L1434.79 72.576 L1434.79 65.6895 Q1432.23 69.8214 1428.43 71.8063 Q1424.62 73.7508 1419.11 73.7508 Q1412.14 73.7508 1408.01 69.8619 Q1403.92 65.9325 1403.92 59.3701 Q1403.92 51.7138 1409.02 47.825 Q1414.17 43.9361 1424.33 43.9361 L1434.79 43.9361 L1434.79 43.2069 Q1434.79 38.0623 1431.38 35.2672 Q1428.02 32.4315 1421.9 32.4315 Q1418.01 32.4315 1414.33 33.3632 Q1410.64 34.295 1407.24 36.1584 L1407.24 29.2718 Q1411.33 27.692 1415.18 26.9223 Q1419.03 26.1121 1422.67 26.1121 Q1432.52 26.1121 1437.38 31.2163 Q1442.24 36.3204 1442.24 46.6907 Z" fill="#000000" fill-rule="nonzero" fill-opacity="1" /><path clip-path="url(#clip230)" d="M1513.82 34.0924 L1513.82 9.54393 L1521.27 9.54393 L1521.27 72.576 L1513.82 72.576 L1513.82 65.7705 Q1511.47 69.8214 1507.86 71.8063 Q1504.3 73.7508 1499.28 73.7508 Q1491.05 73.7508 1485.87 67.1883 Q1480.72 60.6258 1480.72 49.9314 Q1480.72 39.2371 1485.87 32.6746 Q1491.05 26.1121 1499.28 26.1121 Q1504.3 26.1121 1507.86 28.0971 Q1511.47 30.0415 1513.82 34.0924 M1488.42 49.9314 Q1488.42 58.1548 1491.78 62.8538 Q1495.18 67.5124 1501.1 67.5124 Q1507.01 67.5124 1510.42 62.8538 Q1513.82 58.1548 1513.82 49.9314 Q1513.82 41.7081 1510.42 37.0496 Q1507.01 32.3505 1501.1 32.3505 Q1495.18 32.3505 1491.78 37.0496 Q1488.42 41.7081 1488.42 49.9314 Z" fill="#000000" fill-rule="nonzero" fill-opacity="1" /><path clip-path="url(#clip230)" d="M1536.63 27.2059 L1544.08 27.2059 L1544.08 72.576 L1536.63 72.576 L1536.63 27.2059 M1536.63 9.54393 L1544.08 9.54393 L1544.08 18.9825 L1536.63 18.9825 L1536.63 9.54393 Z" fill="#000000" fill-rule="nonzero" fill-opacity="1" /><path clip-path="url(#clip230)" d="M1588.6 28.5427 L1588.6 35.5912 Q1585.44 33.9709 1582.04 33.1607 Q1578.63 32.3505 1574.99 32.3505 Q1569.44 32.3505 1566.64 34.0519 Q1563.89 35.7533 1563.89 39.156 Q1563.89 41.7486 1565.87 43.2475 Q1567.86 44.7058 1573.85 46.0426 L1576.41 46.6097 Q1584.34 48.3111 1587.67 51.4303 Q1591.03 54.509 1591.03 60.0587 Q1591.03 66.3781 1586.01 70.0644 Q1581.02 73.7508 1572.27 73.7508 Q1568.63 73.7508 1564.66 73.0216 Q1560.73 72.3329 1556.35 70.9151 L1556.35 63.2184 Q1560.48 65.3654 1564.5 66.4591 Q1568.51 67.5124 1572.44 67.5124 Q1577.7 67.5124 1580.54 65.73 Q1583.37 63.9071 1583.37 60.6258 Q1583.37 57.5877 1581.31 55.9673 Q1579.28 54.3469 1572.35 52.8481 L1569.76 52.2405 Q1562.83 50.7821 1559.76 47.7845 Q1556.68 44.7463 1556.68 39.4801 Q1556.68 33.0797 1561.21 29.5959 Q1565.75 26.1121 1574.1 26.1121 Q1578.23 26.1121 1581.87 26.7198 Q1585.52 27.3274 1588.6 28.5427 Z" fill="#000000" fill-rule="nonzero" fill-opacity="1" /><path clip-path="url(#clip230)" d="M1610.27 14.324 L1610.27 27.2059 L1625.62 27.2059 L1625.62 32.9987 L1610.27 32.9987 L1610.27 57.6282 Q1610.27 63.1779 1611.77 64.7578 Q1613.31 66.3376 1617.97 66.3376 L1625.62 66.3376 L1625.62 72.576 L1617.97 72.576 Q1609.34 72.576 1606.06 69.3758 Q1602.78 66.1351 1602.78 57.6282 L1602.78 32.9987 L1597.31 32.9987 L1597.31 27.2059 L1602.78 27.2059 L1602.78 14.324 L1610.27 14.324 Z" fill="#000000" fill-rule="nonzero" fill-opacity="1" /><path clip-path="url(#clip230)" d="M1661.72 34.1734 Q1660.46 33.4443 1658.96 33.1202 Q1657.5 32.7556 1655.72 32.7556 Q1649.4 32.7556 1646 36.8875 Q1642.64 40.9789 1642.64 48.6757 L1642.64 72.576 L1635.14 72.576 L1635.14 27.2059 L1642.64 27.2059 L1642.64 34.2544 Q1644.99 30.1225 1648.75 28.1376 Q1652.52 26.1121 1657.91 26.1121 Q1658.68 26.1121 1659.61 26.2337 Q1660.54 26.3147 1661.68 26.5172 L1661.72 34.1734 Z" fill="#000000" fill-rule="nonzero" fill-opacity="1" /><path clip-path="url(#clip230)" d="M1669.54 27.2059 L1676.99 27.2059 L1676.99 72.576 L1669.54 72.576 L1669.54 27.2059 M1669.54 9.54393 L1676.99 9.54393 L1676.99 18.9825 L1669.54 18.9825 L1669.54 9.54393 Z" fill="#000000" fill-rule="nonzero" fill-opacity="1" /><path clip-path="url(#clip230)" d="M1725.15 49.9314 Q1725.15 41.7081 1721.75 37.0496 Q1718.39 32.3505 1712.47 32.3505 Q1706.56 32.3505 1703.16 37.0496 Q1699.8 41.7081 1699.8 49.9314 Q1699.8 58.1548 1703.16 62.8538 Q1706.56 67.5124 1712.47 67.5124 Q1718.39 67.5124 1721.75 62.8538 Q1725.15 58.1548 1725.15 49.9314 M1699.8 34.0924 Q1702.15 30.0415 1705.71 28.0971 Q1709.32 26.1121 1714.3 26.1121 Q1722.56 26.1121 1727.71 32.6746 Q1732.89 39.2371 1732.89 49.9314 Q1732.89 60.6258 1727.71 67.1883 Q1722.56 73.7508 1714.3 73.7508 Q1709.32 73.7508 1705.71 71.8063 Q1702.15 69.8214 1699.8 65.7705 L1699.8 72.576 L1692.3 72.576 L1692.3 9.54393 L1699.8 9.54393 L1699.8 34.0924 Z" fill="#000000" fill-rule="nonzero" fill-opacity="1" /><path clip-path="url(#clip230)" d="M1744.48 54.671 L1744.48 27.2059 L1751.93 27.2059 L1751.93 54.3874 Q1751.93 60.8284 1754.44 64.0691 Q1756.95 67.2693 1761.98 67.2693 Q1768.01 67.2693 1771.5 63.421 Q1775.02 59.5726 1775.02 52.9291 L1775.02 27.2059 L1782.47 27.2059 L1782.47 72.576 L1775.02 72.576 L1775.02 65.6084 Q1772.31 69.7404 1768.7 71.7658 Q1765.14 73.7508 1760.4 73.7508 Q1752.58 73.7508 1748.53 68.8897 Q1744.48 64.0286 1744.48 54.671 M1763.23 26.1121 L1763.23 26.1121 Z" fill="#000000" fill-rule="nonzero" fill-opacity="1" /><path clip-path="url(#clip230)" d="M1805.2 14.324 L1805.2 27.2059 L1820.55 27.2059 L1820.55 32.9987 L1805.2 32.9987 L1805.2 57.6282 Q1805.2 63.1779 1806.7 64.7578 Q1808.24 66.3376 1812.9 66.3376 L1820.55 66.3376 L1820.55 72.576 L1812.9 72.576 Q1804.27 72.576 1800.99 69.3758 Q1797.71 66.1351 1797.71 57.6282 L1797.71 32.9987 L1792.24 32.9987 L1792.24 27.2059 L1797.71 27.2059 L1797.71 14.324 L1805.2 14.324 Z" fill="#000000" fill-rule="nonzero" fill-opacity="1" /><path clip-path="url(#clip230)" d="M1830.36 27.2059 L1837.81 27.2059 L1837.81 72.576 L1830.36 72.576 L1830.36 27.2059 M1830.36 9.54393 L1837.81 9.54393 L1837.81 18.9825 L1830.36 18.9825 L1830.36 9.54393 Z" fill="#000000" fill-rule="nonzero" fill-opacity="1" /><path clip-path="url(#clip230)" d="M1870.99 32.4315 Q1864.99 32.4315 1861.51 37.1306 Q1858.02 41.7891 1858.02 49.9314 Q1858.02 58.0738 1861.47 62.7728 Q1864.95 67.4314 1870.99 67.4314 Q1876.94 67.4314 1880.43 62.7323 Q1883.91 58.0333 1883.91 49.9314 Q1883.91 41.8701 1880.43 37.1711 Q1876.94 32.4315 1870.99 32.4315 M1870.99 26.1121 Q1880.71 26.1121 1886.26 32.4315 Q1891.81 38.7509 1891.81 49.9314 Q1891.81 61.0714 1886.26 67.4314 Q1880.71 73.7508 1870.99 73.7508 Q1861.22 73.7508 1855.67 67.4314 Q1850.17 61.0714 1850.17 49.9314 Q1850.17 38.7509 1855.67 32.4315 Q1861.22 26.1121 1870.99 26.1121 Z" fill="#000000" fill-rule="nonzero" fill-opacity="1" /><path clip-path="url(#clip230)" d="M1941.88 45.1919 L1941.88 72.576 L1934.42 72.576 L1934.42 45.4349 Q1934.42 38.994 1931.91 35.7938 Q1929.4 32.5936 1924.38 32.5936 Q1918.34 32.5936 1914.86 36.4419 Q1911.37 40.2903 1911.37 46.9338 L1911.37 72.576 L1903.88 72.576 L1903.88 27.2059 L1911.37 27.2059 L1911.37 34.2544 Q1914.05 30.163 1917.65 28.1376 Q1921.3 26.1121 1926.04 26.1121 Q1933.86 26.1121 1937.87 30.9732 Q1941.88 35.7938 1941.88 45.1919 Z" fill="#000000" fill-rule="nonzero" fill-opacity="1" /><polyline clip-path="url(#clip232)" style="stroke:#000000; stroke-linecap:round; stroke-linejoin:round; stroke-width:4; stroke-opacity:1; fill:none" points="285.255,1386.4 305.731,1386.32 326.208,1386.22 346.684,1386.12 367.16,1385.99 387.637,1385.86 408.113,1385.72 428.59,1385.57 449.066,1385.42 469.542,1385.25 490.019,1385.08 510.495,1384.89 530.972,1384.71 551.448,1384.51 571.924,1384.31 592.401,1384.1 612.877,1383.88 633.353,1383.66 653.83,1383.43 674.306,1383.19 694.783,1382.94 715.259,1382.69 735.735,1382.43 756.212,1382.16 776.688,1381.88 797.165,1381.59 817.641,1381.3 838.117,1381 858.594,1380.69 879.07,1380.37 899.547,1380.04 920.023,1379.7 940.499,1379.35 960.976,1379 981.452,1378.63 1001.93,1378.25 1022.4,1377.86 1042.88,1377.46 1063.36,1377.05 1083.83,1376.63 1104.31,1376.19 1124.79,1375.75 1145.26,1375.29 1165.74,1374.82 1186.22,1374.33 1206.69,1373.83 1227.17,1373.32 1247.65,1372.8 1268.12,1372.26 1288.6,1371.7 1309.07,1371.13 1329.55,1370.55 1350.03,1369.95 1370.5,1369.33 1390.98,1368.7 1411.46,1368.05 1431.93,1367.38 1452.41,1366.7 1472.89,1365.99 1493.36,1365.27 1513.84,1364.53 1534.31,1363.78 1554.79,1363 1575.27,1362.2 1595.74,1361.39 1616.22,1360.55 1636.7,1359.69 1657.17,1358.81 1677.65,1357.91 1698.13,1356.99 1718.6,1356.04 1739.08,1355.08 1759.55,1354.09 1780.03,1353.07 1800.51,1352.04 1820.98,1350.98 1841.46,1349.89 1861.94,1348.78 1882.41,1347.64 1902.89,1346.48 1923.37,1345.29 1943.84,1344.08 1964.32,1342.84 1984.8,1341.57 2005.27,1340.28 2025.75,1338.96 2046.22,1337.61 2066.7,1336.23 2087.18,1334.82 2107.65,1333.38 2128.13,1331.92 2148.61,1330.42 2169.08,1328.89 2189.56,1327.34 2210.04,1325.75 2230.51,1324.13 2250.99,1322.48 2271.46,1320.79 2291.94,1319.08 "/>
<polyline clip-path="url(#clip232)" style="stroke:#ff0000; stroke-linecap:round; stroke-linejoin:round; stroke-width:4; stroke-opacity:1; fill:none" points="285.255,1385.95 305.731,1385.13 326.208,1384.12 346.684,1382.95 367.16,1381.63 387.637,1380.18 408.113,1378.59 428.59,1376.86 449.066,1374.99 469.542,1372.97 490.019,1370.78 510.495,1368.42 530.972,1365.89 551.448,1363.15 571.924,1360.21 592.401,1357.04 612.877,1353.62 633.353,1349.96 653.83,1346.02 674.306,1341.79 694.783,1337.25 715.259,1332.39 735.735,1327.18 756.212,1321.62 776.688,1315.67 797.165,1309.32 817.641,1302.55 838.117,1295.35 858.594,1287.68 879.07,1279.55 899.547,1270.92 920.023,1261.78 940.499,1252.11 960.976,1241.89 981.452,1231.1 1001.93,1219.72 1022.4,1207.75 1042.88,1195.15 1063.36,1181.92 1083.83,1168.03 1104.31,1153.47 1124.79,1138.22 1145.26,1122.27 1165.74,1105.59 1186.22,1088.18 1206.69,1070.01 1227.17,1051.08 1247.65,1031.36 1268.12,1010.83 1288.6,989.494 1309.07,967.322 1329.55,944.303 1350.03,920.42 1370.5,895.66 1390.98,870.007 1411.46,843.445 1431.93,815.961 1452.41,787.538 1472.89,758.164 1493.36,727.822 1513.84,696.497 1534.31,664.177 1554.79,630.845 1575.27,596.487 1595.74,561.089 1616.22,524.636 1636.7,487.114 1657.17,448.491 1677.65,408.745 1698.13,367.843 1718.6,323.771 1739.08,289.821 1759.55,168.766 1780.03,160.256 "/>
<path clip-path="url(#clip230)" d="M275.59 322.316 L588.27 322.316 L588.27 166.796 L275.59 166.796  Z" fill="#ffffff" fill-rule="evenodd" fill-opacity="1"/>
<polyline clip-path="url(#clip230)" style="stroke:#000000; stroke-linecap:round; stroke-linejoin:round; stroke-width:4; stroke-opacity:1; fill:none" points="275.59,322.316 588.27,322.316 588.27,166.796 275.59,166.796 275.59,322.316 "/>
<polyline clip-path="url(#clip230)" style="stroke:#000000; stroke-linecap:round; stroke-linejoin:round; stroke-width:4; stroke-opacity:1; fill:none" points="299.465,218.636 442.718,218.636 "/>
<path clip-path="url(#clip230)" d="M468.168 201.356 L473.191 201.356 L481.779 214.203 L490.413 201.356 L495.436 201.356 L484.325 217.953 L496.177 235.916 L491.154 235.916 L481.432 221.217 L471.64 235.916 L466.594 235.916 L478.932 217.467 L468.168 201.356 Z" fill="#000000" fill-rule="nonzero" fill-opacity="1" /><path clip-path="url(#clip230)" d="M502.682 214.388 L532.357 214.388 L532.357 218.277 L502.682 218.277 L502.682 214.388 M502.682 223.832 L532.357 223.832 L532.357 227.768 L502.682 227.768 L502.682 223.832 Z" fill="#000000" fill-rule="nonzero" fill-opacity="1" /><path clip-path="url(#clip230)" d="M552.45 204.434 Q548.839 204.434 547.01 207.999 Q545.204 211.541 545.204 218.67 Q545.204 225.777 547.01 229.342 Q548.839 232.883 552.45 232.883 Q556.084 232.883 557.89 229.342 Q559.718 225.777 559.718 218.67 Q559.718 211.541 557.89 207.999 Q556.084 204.434 552.45 204.434 M552.45 200.731 Q558.26 200.731 561.315 205.337 Q564.394 209.92 564.394 218.67 Q564.394 227.397 561.315 232.004 Q558.26 236.587 552.45 236.587 Q546.64 236.587 543.561 232.004 Q540.505 227.397 540.505 218.67 Q540.505 209.92 543.561 205.337 Q546.64 200.731 552.45 200.731 Z" fill="#000000" fill-rule="nonzero" fill-opacity="1" /><polyline clip-path="url(#clip230)" style="stroke:#ff0000; stroke-linecap:round; stroke-linejoin:round; stroke-width:4; stroke-opacity:1; fill:none" points="299.465,270.476 442.718,270.476 "/>
<path clip-path="url(#clip230)" d="M468.168 253.196 L473.191 253.196 L481.779 266.043 L490.413 253.196 L495.436 253.196 L484.325 269.793 L496.177 287.756 L491.154 287.756 L481.432 273.057 L471.64 287.756 L466.594 287.756 L478.932 269.307 L468.168 253.196 Z" fill="#000000" fill-rule="nonzero" fill-opacity="1" /><path clip-path="url(#clip230)" d="M502.682 266.228 L532.357 266.228 L532.357 270.117 L502.682 270.117 L502.682 266.228 M502.682 275.672 L532.357 275.672 L532.357 279.608 L502.682 279.608 L502.682 275.672 Z" fill="#000000" fill-rule="nonzero" fill-opacity="1" /><path clip-path="url(#clip230)" d="M543.26 283.821 L550.899 283.821 L550.899 257.455 L542.589 259.122 L542.589 254.862 L550.853 253.196 L555.528 253.196 L555.528 283.821 L563.167 283.821 L563.167 287.756 L543.26 287.756 L543.26 283.821 Z" fill="#000000" fill-rule="nonzero" fill-opacity="1" /></svg>
