<?xml version="1.0" encoding="utf-8"?>
<svg xmlns="http://www.w3.org/2000/svg" xmlns:xlink="http://www.w3.org/1999/xlink" width="600" height="400" viewBox="0 0 2400 1600">
<defs>
  <clipPath id="clip830">
    <rect x="0" y="0" width="2400" height="1600"/>
  </clipPath>
</defs>
<path clip-path="url(#clip830)" d="M0 1600 L2400 1600 L2400 0 L0 0  Z" fill="#ffffff" fill-rule="evenodd" fill-opacity="1"/>
<defs>
  <clipPath id="clip831">
    <rect x="480" y="0" width="1681" height="1600"/>
  </clipPath>
</defs>
<path clip-path="url(#clip830)" d="M219.38 1423.18 L2352.76 1423.18 L2352.76 123.472 L219.38 123.472  Z" fill="#ffffff" fill-rule="evenodd" fill-opacity="1"/>
<defs>
  <clipPath id="clip832">
    <rect x="219" y="123" width="2134" height="1301"/>
  </clipPath>
</defs>
<polyline clip-path="url(#clip830)" style="stroke:#000000; stroke-linecap:round; stroke-linejoin:round; stroke-width:4; stroke-opacity:1; fill:none" points="219.38,1423.18 2352.76,1423.18 "/>
<polyline clip-path="url(#clip830)" style="stroke:#000000; stroke-linecap:round; stroke-linejoin:round; stroke-width:4; stroke-opacity:1; fill:none" points="279.759,1423.18 279.759,1404.28 "/>
<polyline clip-path="url(#clip830)" style="stroke:#000000; stroke-linecap:round; stroke-linejoin:round; stroke-width:4; stroke-opacity:1; fill:none" points="782.913,1423.18 782.913,1404.28 "/>
<polyline clip-path="url(#clip830)" style="stroke:#000000; stroke-linecap:round; stroke-linejoin:round; stroke-width:4; stroke-opacity:1; fill:none" points="1286.07,1423.18 1286.07,1404.28 "/>
<polyline clip-path="url(#clip830)" style="stroke:#000000; stroke-linecap:round; stroke-linejoin:round; stroke-width:4; stroke-opacity:1; fill:none" points="1789.22,1423.18 1789.22,1404.28 "/>
<polyline clip-path="url(#clip830)" style="stroke:#000000; stroke-linecap:round; stroke-linejoin:round; stroke-width:4; stroke-opacity:1; fill:none" points="2292.38,1423.18 2292.38,1404.28 "/>
<path clip-path="url(#clip830)" d="M279.759 1454.1 Q276.148 1454.1 274.319 1457.66 Q272.513 1461.2 272.513 1468.33 Q272.513 1475.44 274.319 1479.01 Q276.148 1482.55 279.759 1482.55 Q283.393 1482.55 285.199 1479.01 Q287.027 1475.44 287.027 1468.33 Q287.027 1461.2 285.199 1457.66 Q283.393 1454.1 279.759 1454.1 M279.759 1450.39 Q285.569 1450.39 288.624 1455 Q291.703 1459.58 291.703 1468.33 Q291.703 1477.06 288.624 1481.67 Q285.569 1486.25 279.759 1486.25 Q273.949 1486.25 270.87 1481.67 Q267.814 1477.06 267.814 1468.33 Q267.814 1459.58 270.87 1455 Q273.949 1450.39 279.759 1450.39 Z" fill="#000000" fill-rule="nonzero" fill-opacity="1" /><path clip-path="url(#clip830)" d="M773.191 1451.02 L791.548 1451.02 L791.548 1454.96 L777.474 1454.96 L777.474 1463.43 Q778.492 1463.08 779.511 1462.92 Q780.529 1462.73 781.548 1462.73 Q787.335 1462.73 790.714 1465.9 Q794.094 1469.08 794.094 1474.49 Q794.094 1480.07 790.622 1483.17 Q787.149 1486.25 780.83 1486.25 Q778.654 1486.25 776.386 1485.88 Q774.14 1485.51 771.733 1484.77 L771.733 1480.07 Q773.816 1481.2 776.038 1481.76 Q778.261 1482.32 780.737 1482.32 Q784.742 1482.32 787.08 1480.21 Q789.418 1478.1 789.418 1474.49 Q789.418 1470.88 787.08 1468.77 Q784.742 1466.67 780.737 1466.67 Q778.862 1466.67 776.987 1467.08 Q775.136 1467.5 773.191 1468.38 L773.191 1451.02 Z" fill="#000000" fill-rule="nonzero" fill-opacity="1" /><path clip-path="url(#clip830)" d="M1260.76 1481.64 L1268.39 1481.64 L1268.39 1455.28 L1260.08 1456.95 L1260.08 1452.69 L1268.35 1451.02 L1273.02 1451.02 L1273.02 1481.64 L1280.66 1481.64 L1280.66 1485.58 L1260.76 1485.58 L1260.76 1481.64 Z" fill="#000000" fill-rule="nonzero" fill-opacity="1" /><path clip-path="url(#clip830)" d="M1300.11 1454.1 Q1296.5 1454.1 1294.67 1457.66 Q1292.86 1461.2 1292.86 1468.33 Q1292.86 1475.44 1294.67 1479.01 Q1296.5 1482.55 1300.11 1482.55 Q1303.74 1482.55 1305.55 1479.01 Q1307.38 1475.44 1307.38 1468.33 Q1307.38 1461.2 1305.55 1457.66 Q1303.74 1454.1 1300.11 1454.1 M1300.11 1450.39 Q1305.92 1450.39 1308.97 1455 Q1312.05 1459.58 1312.05 1468.33 Q1312.05 1477.06 1308.97 1481.67 Q1305.92 1486.25 1300.11 1486.25 Q1294.3 1486.25 1291.22 1481.67 Q1288.16 1477.06 1288.16 1468.33 Q1288.16 1459.58 1291.22 1455 Q1294.3 1450.39 1300.11 1450.39 Z" fill="#000000" fill-rule="nonzero" fill-opacity="1" /><path clip-path="url(#clip830)" d="M1764.41 1481.64 L1772.05 1481.64 L1772.05 1455.28 L1763.74 1456.95 L1763.74 1452.69 L1772 1451.02 L1776.68 1451.02 L1776.68 1481.64 L1784.32 1481.64 L1784.32 1485.58 L1764.41 1485.58 L1764.41 1481.64 Z" fill="#000000" fill-rule="nonzero" fill-opacity="1" /><path clip-path="url(#clip830)" d="M1793.81 1451.02 L1812.16 1451.02 L1812.16 1454.96 L1798.09 1454.96 L1798.09 1463.43 Q1799.11 1463.08 1800.13 1462.92 Q1801.14 1462.73 1802.16 1462.73 Q1807.95 1462.73 1811.33 1465.9 Q1814.71 1469.08 1814.71 1474.49 Q1814.71 1480.07 1811.24 1483.17 Q1807.76 1486.25 1801.44 1486.25 Q1799.27 1486.25 1797 1485.88 Q1794.76 1485.51 1792.35 1484.77 L1792.35 1480.07 Q1794.43 1481.2 1796.65 1481.76 Q1798.88 1482.32 1801.35 1482.32 Q1805.36 1482.32 1807.69 1480.21 Q1810.03 1478.1 1810.03 1474.49 Q1810.03 1470.88 1807.69 1468.77 Q1805.36 1466.67 1801.35 1466.67 Q1799.48 1466.67 1797.6 1467.08 Q1795.75 1467.5 1793.81 1468.38 L1793.81 1451.02 Z" fill="#000000" fill-rule="nonzero" fill-opacity="1" /><path clip-path="url(#clip830)" d="M2271.15 1481.64 L2287.47 1481.64 L2287.47 1485.58 L2265.53 1485.58 L2265.53 1481.64 Q2268.19 1478.89 2272.77 1474.26 Q2277.38 1469.61 2278.56 1468.27 Q2280.8 1465.74 2281.68 1464.01 Q2282.59 1462.25 2282.59 1460.56 Q2282.59 1457.8 2280.64 1456.07 Q2278.72 1454.33 2275.62 1454.33 Q2273.42 1454.33 2270.97 1455.09 Q2268.53 1455.86 2265.76 1457.41 L2265.76 1452.69 Q2268.58 1451.55 2271.03 1450.97 Q2273.49 1450.39 2275.53 1450.39 Q2280.9 1450.39 2284.09 1453.08 Q2287.28 1455.77 2287.28 1460.26 Q2287.28 1462.39 2286.47 1464.31 Q2285.69 1466.2 2283.58 1468.8 Q2283 1469.47 2279.9 1472.69 Q2276.8 1475.88 2271.15 1481.64 Z" fill="#000000" fill-rule="nonzero" fill-opacity="1" /><path clip-path="url(#clip830)" d="M2307.28 1454.1 Q2303.67 1454.1 2301.84 1457.66 Q2300.04 1461.2 2300.04 1468.33 Q2300.04 1475.44 2301.84 1479.01 Q2303.67 1482.55 2307.28 1482.55 Q2310.92 1482.55 2312.72 1479.01 Q2314.55 1475.44 2314.55 1468.33 Q2314.55 1461.2 2312.72 1457.66 Q2310.92 1454.1 2307.28 1454.1 M2307.28 1450.39 Q2313.09 1450.39 2316.15 1455 Q2319.23 1459.58 2319.23 1468.33 Q2319.23 1477.06 2316.15 1481.67 Q2313.09 1486.25 2307.28 1486.25 Q2301.47 1486.25 2298.4 1481.67 Q2295.34 1477.06 2295.34 1468.33 Q2295.34 1459.58 2298.4 1455 Q2301.47 1450.39 2307.28 1450.39 Z" fill="#000000" fill-rule="nonzero" fill-opacity="1" /><path clip-path="url(#clip830)" d="M1207.94 1520.52 L1248.14 1520.52 L1248.14 1525.93 L1231.28 1525.93 L1231.28 1568.04 L1224.81 1568.04 L1224.81 1525.93 L1207.94 1525.93 L1207.94 1520.52 Z" fill="#000000" fill-rule="nonzero" fill-opacity="1" /><path clip-path="url(#clip830)" d="M1252.09 1532.4 L1257.95 1532.4 L1257.95 1568.04 L1252.09 1568.04 L1252.09 1532.4 M1252.09 1518.52 L1257.95 1518.52 L1257.95 1525.93 L1252.09 1525.93 L1252.09 1518.52 Z" fill="#000000" fill-rule="nonzero" fill-opacity="1" /><path clip-path="url(#clip830)" d="M1297.96 1539.24 Q1300.15 1535.29 1303.21 1533.41 Q1306.26 1531.54 1310.4 1531.54 Q1315.97 1531.54 1318.99 1535.45 Q1322.02 1539.33 1322.02 1546.53 L1322.02 1568.04 L1316.13 1568.04 L1316.13 1546.72 Q1316.13 1541.59 1314.32 1539.11 Q1312.5 1536.63 1308.78 1536.63 Q1304.23 1536.63 1301.58 1539.65 Q1298.94 1542.68 1298.94 1547.9 L1298.94 1568.04 L1293.05 1568.04 L1293.05 1546.72 Q1293.05 1541.56 1291.24 1539.11 Q1289.43 1536.63 1285.64 1536.63 Q1281.15 1536.63 1278.51 1539.68 Q1275.87 1542.71 1275.87 1547.9 L1275.87 1568.04 L1269.98 1568.04 L1269.98 1532.4 L1275.87 1532.4 L1275.87 1537.93 Q1277.87 1534.66 1280.67 1533.1 Q1283.47 1531.54 1287.33 1531.54 Q1291.21 1531.54 1293.91 1533.51 Q1296.65 1535.48 1297.96 1539.24 Z" fill="#000000" fill-rule="nonzero" fill-opacity="1" /><path clip-path="url(#clip830)" d="M1364.19 1548.76 L1364.19 1551.62 L1337.26 1551.62 Q1337.65 1557.67 1340.89 1560.85 Q1344.17 1564 1350 1564 Q1353.37 1564 1356.52 1563.17 Q1359.7 1562.35 1362.82 1560.69 L1362.82 1566.23 Q1359.67 1567.57 1356.36 1568.27 Q1353.05 1568.97 1349.65 1568.97 Q1341.12 1568.97 1336.12 1564 Q1331.15 1559.04 1331.15 1550.57 Q1331.15 1541.82 1335.86 1536.69 Q1340.61 1531.54 1348.63 1531.54 Q1355.82 1531.54 1359.99 1536.18 Q1364.19 1540.8 1364.19 1548.76 M1358.33 1547.04 Q1358.27 1542.23 1355.63 1539.37 Q1353.02 1536.5 1348.69 1536.5 Q1343.79 1536.5 1340.83 1539.27 Q1337.9 1542.04 1337.46 1547.07 L1358.33 1547.04 Z" fill="#000000" fill-rule="nonzero" fill-opacity="1" /><polyline clip-path="url(#clip830)" style="stroke:#000000; stroke-linecap:round; stroke-linejoin:round; stroke-width:4; stroke-opacity:1; fill:none" points="219.38,1423.18 219.38,123.472 "/>
<polyline clip-path="url(#clip830)" style="stroke:#000000; stroke-linecap:round; stroke-linejoin:round; stroke-width:4; stroke-opacity:1; fill:none" points="219.38,1400.32 238.278,1400.32 "/>
<polyline clip-path="url(#clip830)" style="stroke:#000000; stroke-linecap:round; stroke-linejoin:round; stroke-width:4; stroke-opacity:1; fill:none" points="219.38,1078.4 238.278,1078.4 "/>
<polyline clip-path="url(#clip830)" style="stroke:#000000; stroke-linecap:round; stroke-linejoin:round; stroke-width:4; stroke-opacity:1; fill:none" points="219.38,756.47 238.278,756.47 "/>
<polyline clip-path="url(#clip830)" style="stroke:#000000; stroke-linecap:round; stroke-linejoin:round; stroke-width:4; stroke-opacity:1; fill:none" points="219.38,434.544 238.278,434.544 "/>
<path clip-path="url(#clip830)" d="M126.205 1386.12 Q122.593 1386.12 120.765 1389.69 Q118.959 1393.23 118.959 1400.36 Q118.959 1407.46 120.765 1411.03 Q122.593 1414.57 126.205 1414.57 Q129.839 1414.57 131.644 1411.03 Q133.473 1407.46 133.473 1400.36 Q133.473 1393.23 131.644 1389.69 Q129.839 1386.12 126.205 1386.12 M126.205 1382.42 Q132.015 1382.42 135.07 1387.02 Q138.149 1391.61 138.149 1400.36 Q138.149 1409.08 135.07 1413.69 Q132.015 1418.27 126.205 1418.27 Q120.394 1418.27 117.316 1413.69 Q114.26 1409.08 114.26 1400.36 Q114.26 1391.61 117.316 1387.02 Q120.394 1382.42 126.205 1382.42 Z" fill="#000000" fill-rule="nonzero" fill-opacity="1" /><path clip-path="url(#clip830)" d="M146.366 1411.72 L151.251 1411.72 L151.251 1417.6 L146.366 1417.6 L146.366 1411.72 Z" fill="#000000" fill-rule="nonzero" fill-opacity="1" /><path clip-path="url(#clip830)" d="M171.436 1386.12 Q167.825 1386.12 165.996 1389.69 Q164.19 1393.23 164.19 1400.36 Q164.19 1407.46 165.996 1411.03 Q167.825 1414.57 171.436 1414.57 Q175.07 1414.57 176.876 1411.03 Q178.704 1407.46 178.704 1400.36 Q178.704 1393.23 176.876 1389.69 Q175.07 1386.12 171.436 1386.12 M171.436 1382.42 Q177.246 1382.42 180.301 1387.02 Q183.38 1391.61 183.38 1400.36 Q183.38 1409.08 180.301 1413.69 Q177.246 1418.27 171.436 1418.27 Q165.626 1418.27 162.547 1413.69 Q159.491 1409.08 159.491 1400.36 Q159.491 1391.61 162.547 1387.02 Q165.626 1382.42 171.436 1382.42 Z" fill="#000000" fill-rule="nonzero" fill-opacity="1" /><path clip-path="url(#clip830)" d="M127.2 1064.2 Q123.589 1064.2 121.76 1067.76 Q119.955 1071.3 119.955 1078.43 Q119.955 1085.54 121.76 1089.1 Q123.589 1092.64 127.2 1092.64 Q130.834 1092.64 132.64 1089.1 Q134.468 1085.54 134.468 1078.43 Q134.468 1071.3 132.64 1067.76 Q130.834 1064.2 127.2 1064.2 M127.2 1060.49 Q133.01 1060.49 136.066 1065.1 Q139.144 1069.68 139.144 1078.43 Q139.144 1087.16 136.066 1091.76 Q133.01 1096.35 127.2 1096.35 Q121.39 1096.35 118.311 1091.76 Q115.256 1087.16 115.256 1078.43 Q115.256 1069.68 118.311 1065.1 Q121.39 1060.49 127.2 1060.49 Z" fill="#000000" fill-rule="nonzero" fill-opacity="1" /><path clip-path="url(#clip830)" d="M147.362 1089.8 L152.246 1089.8 L152.246 1095.68 L147.362 1095.68 L147.362 1089.8 Z" fill="#000000" fill-rule="nonzero" fill-opacity="1" /><path clip-path="url(#clip830)" d="M162.477 1061.12 L180.834 1061.12 L180.834 1065.05 L166.76 1065.05 L166.76 1073.52 Q167.778 1073.18 168.797 1073.01 Q169.815 1072.83 170.834 1072.83 Q176.621 1072.83 180.001 1076 Q183.38 1079.17 183.38 1084.59 Q183.38 1090.17 179.908 1093.27 Q176.436 1096.35 170.116 1096.35 Q167.94 1096.35 165.672 1095.98 Q163.427 1095.61 161.019 1094.87 L161.019 1090.17 Q163.102 1091.3 165.325 1091.86 Q167.547 1092.41 170.024 1092.41 Q174.028 1092.41 176.366 1090.31 Q178.704 1088.2 178.704 1084.59 Q178.704 1080.98 176.366 1078.87 Q174.028 1076.76 170.024 1076.76 Q168.149 1076.76 166.274 1077.18 Q164.422 1077.6 162.477 1078.48 L162.477 1061.12 Z" fill="#000000" fill-rule="nonzero" fill-opacity="1" /><path clip-path="url(#clip830)" d="M117.015 769.815 L124.654 769.815 L124.654 743.449 L116.343 745.116 L116.343 740.857 L124.607 739.19 L129.283 739.19 L129.283 769.815 L136.922 769.815 L136.922 773.75 L117.015 773.75 L117.015 769.815 Z" fill="#000000" fill-rule="nonzero" fill-opacity="1" /><path clip-path="url(#clip830)" d="M146.366 767.87 L151.251 767.87 L151.251 773.75 L146.366 773.75 L146.366 767.87 Z" fill="#000000" fill-rule="nonzero" fill-opacity="1" /><path clip-path="url(#clip830)" d="M171.436 742.269 Q167.825 742.269 165.996 745.834 Q164.19 749.375 164.19 756.505 Q164.19 763.611 165.996 767.176 Q167.825 770.718 171.436 770.718 Q175.07 770.718 176.876 767.176 Q178.704 763.611 178.704 756.505 Q178.704 749.375 176.876 745.834 Q175.07 742.269 171.436 742.269 M171.436 738.565 Q177.246 738.565 180.301 743.172 Q183.38 747.755 183.38 756.505 Q183.38 765.232 180.301 769.838 Q177.246 774.421 171.436 774.421 Q165.626 774.421 162.547 769.838 Q159.491 765.232 159.491 756.505 Q159.491 747.755 162.547 743.172 Q165.626 738.565 171.436 738.565 Z" fill="#000000" fill-rule="nonzero" fill-opacity="1" /><path clip-path="url(#clip830)" d="M118.01 447.889 L125.649 447.889 L125.649 421.523 L117.339 423.19 L117.339 418.93 L125.603 417.264 L130.279 417.264 L130.279 447.889 L137.917 447.889 L137.917 451.824 L118.01 451.824 L118.01 447.889 Z" fill="#000000" fill-rule="nonzero" fill-opacity="1" /><path clip-path="url(#clip830)" d="M147.362 445.944 L152.246 445.944 L152.246 451.824 L147.362 451.824 L147.362 445.944 Z" fill="#000000" fill-rule="nonzero" fill-opacity="1" /><path clip-path="url(#clip830)" d="M162.477 417.264 L180.834 417.264 L180.834 421.199 L166.76 421.199 L166.76 429.671 Q167.778 429.324 168.797 429.162 Q169.815 428.977 170.834 428.977 Q176.621 428.977 180.001 432.148 Q183.38 435.319 183.38 440.736 Q183.38 446.315 179.908 449.416 Q176.436 452.495 170.116 452.495 Q167.94 452.495 165.672 452.125 Q163.427 451.754 161.019 451.014 L161.019 446.315 Q163.102 447.449 165.325 448.004 Q167.547 448.56 170.024 448.56 Q174.028 448.56 176.366 446.453 Q178.704 444.347 178.704 440.736 Q178.704 437.125 176.366 435.018 Q174.028 432.912 170.024 432.912 Q168.149 432.912 166.274 433.328 Q164.422 433.745 162.477 434.625 L162.477 417.264 Z" fill="#000000" fill-rule="nonzero" fill-opacity="1" /><path clip-path="url(#clip830)" d="M16.4842 882.243 L16.4842 875.814 L35.9632 875.814 L35.9632 852.452 L16.4842 852.452 L16.4842 846.022 L64.0042 846.022 L64.0042 852.452 L41.3741 852.452 L41.3741 875.814 L64.0042 875.814 L64.0042 882.243 L16.4842 882.243 Z" fill="#000000" fill-rule="nonzero" fill-opacity="1" /><path clip-path="url(#clip830)" d="M46.0847 817.281 Q46.0847 824.379 47.7079 827.116 Q49.3312 829.853 53.2461 829.853 Q56.3653 829.853 58.2114 827.816 Q60.0256 825.748 60.0256 822.215 Q60.0256 817.345 56.5881 814.417 Q53.1188 811.457 47.3897 811.457 L46.0847 811.457 L46.0847 817.281 M43.6657 805.6 L64.0042 805.6 L64.0042 811.457 L58.5933 811.457 Q61.8398 813.462 63.3994 816.454 Q64.9272 819.446 64.9272 823.774 Q64.9272 829.249 61.8716 832.495 Q58.7843 835.71 53.6281 835.71 Q47.6125 835.71 44.5569 831.7 Q41.5014 827.657 41.5014 819.668 L41.5014 811.457 L40.9285 811.457 Q36.8862 811.457 34.6901 814.13 Q32.4621 816.772 32.4621 821.578 Q32.4621 824.634 33.1941 827.53 Q33.9262 830.426 35.3903 833.1 L29.9795 833.1 Q28.7381 829.885 28.1334 826.862 Q27.4968 823.838 27.4968 820.973 Q27.4968 813.239 31.5072 809.42 Q35.5176 805.6 43.6657 805.6 Z" fill="#000000" fill-rule="nonzero" fill-opacity="1" /><path clip-path="url(#clip830)" d="M28.3562 796.083 L28.3562 768.265 L33.7034 768.265 L59.3254 790.291 L59.3254 768.265 L64.0042 768.265 L64.0042 796.879 L58.657 796.879 L33.035 774.854 L33.035 796.083 L28.3562 796.083 Z" fill="#000000" fill-rule="nonzero" fill-opacity="1" /><path clip-path="url(#clip830)" d="M46.0847 743.121 Q46.0847 750.218 47.7079 752.956 Q49.3312 755.693 53.2461 755.693 Q56.3653 755.693 58.2114 753.656 Q60.0256 751.587 60.0256 748.054 Q60.0256 743.184 56.5881 740.256 Q53.1188 737.296 47.3897 737.296 L46.0847 737.296 L46.0847 743.121 M43.6657 731.44 L64.0042 731.44 L64.0042 737.296 L58.5933 737.296 Q61.8398 739.301 63.3994 742.293 Q64.9272 745.285 64.9272 749.614 Q64.9272 755.088 61.8716 758.335 Q58.7843 761.549 53.6281 761.549 Q47.6125 761.549 44.5569 757.539 Q41.5014 753.497 41.5014 745.508 L41.5014 737.296 L40.9285 737.296 Q36.8862 737.296 34.6901 739.97 Q32.4621 742.611 32.4621 747.418 Q32.4621 750.473 33.1941 753.369 Q33.9262 756.266 35.3903 758.939 L29.9795 758.939 Q28.7381 755.725 28.1334 752.701 Q27.4968 749.677 27.4968 746.813 Q27.4968 739.078 31.5072 735.259 Q35.5176 731.44 43.6657 731.44 Z" fill="#000000" fill-rule="nonzero" fill-opacity="1" /><path clip-path="url(#clip830)" d="M33.8307 698.72 Q33.2578 699.707 33.0032 700.884 Q32.7167 702.03 32.7167 703.431 Q32.7167 708.396 35.9632 711.069 Q39.1779 713.711 45.2253 713.711 L64.0042 713.711 L64.0042 719.599 L28.3562 719.599 L28.3562 713.711 L33.8944 713.711 Q30.6479 711.865 29.0883 708.905 Q27.4968 705.945 27.4968 701.712 Q27.4968 701.107 27.5923 700.375 Q27.656 699.643 27.8151 698.752 L33.8307 698.72 Z" fill="#000000" fill-rule="nonzero" fill-opacity="1" /><path clip-path="url(#clip830)" d="M33.7671 670.265 L14.479 670.265 L14.479 664.409 L64.0042 664.409 L64.0042 670.265 L58.657 670.265 Q61.8398 672.111 63.3994 674.944 Q64.9272 677.745 64.9272 681.692 Q64.9272 688.153 59.771 692.227 Q54.6147 696.269 46.212 696.269 Q37.8093 696.269 32.6531 692.227 Q27.4968 688.153 27.4968 681.692 Q27.4968 677.745 29.0564 674.944 Q30.5842 672.111 33.7671 670.265 M46.212 690.222 Q52.6732 690.222 56.3653 687.58 Q60.0256 684.906 60.0256 680.259 Q60.0256 675.612 56.3653 672.939 Q52.6732 670.265 46.212 670.265 Q39.7508 670.265 36.0905 672.939 Q32.3984 675.612 32.3984 680.259 Q32.3984 684.906 36.0905 687.58 Q39.7508 690.222 46.212 690.222 Z" fill="#000000" fill-rule="nonzero" fill-opacity="1" /><path clip-path="url(#clip830)" d="M890.092 12.096 L898.356 12.096 L911.076 63.2184 L923.755 12.096 L932.951 12.096 L945.671 63.2184 L958.35 12.096 L966.654 12.096 L951.463 72.576 L941.174 72.576 L928.414 20.0763 L915.532 72.576 L905.243 72.576 L890.092 12.096 Z" fill="#000000" fill-rule="nonzero" fill-opacity="1" /><path clip-path="url(#clip830)" d="M1011.13 48.0275 L1011.13 51.6733 L976.863 51.6733 Q977.349 59.3701 981.481 63.421 Q985.653 67.4314 993.066 67.4314 Q997.36 67.4314 1001.37 66.3781 Q1005.42 65.3249 1009.39 63.2184 L1009.39 70.267 Q1005.38 71.9684 1001.17 72.8596 Q996.955 73.7508 992.621 73.7508 Q981.764 73.7508 975.404 67.4314 Q969.085 61.1119 969.085 50.3365 Q969.085 39.1965 975.08 32.6746 Q981.116 26.1121 991.324 26.1121 Q1000.48 26.1121 1005.79 32.0264 Q1011.13 37.9003 1011.13 48.0275 M1003.68 45.84 Q1003.6 39.7232 1000.24 36.0774 Q996.914 32.4315 991.405 32.4315 Q985.167 32.4315 981.4 35.9558 Q977.673 39.4801 977.106 45.8805 L1003.68 45.84 Z" fill="#000000" fill-rule="nonzero" fill-opacity="1" /><path clip-path="url(#clip830)" d="M1023.37 27.2059 L1030.82 27.2059 L1030.82 72.576 L1023.37 72.576 L1023.37 27.2059 M1023.37 9.54393 L1030.82 9.54393 L1030.82 18.9825 L1023.37 18.9825 L1023.37 9.54393 Z" fill="#000000" fill-rule="nonzero" fill-opacity="1" /><path clip-path="url(#clip830)" d="M1078.99 49.9314 Q1078.99 41.7081 1075.58 37.0496 Q1072.22 32.3505 1066.31 32.3505 Q1060.39 32.3505 1056.99 37.0496 Q1053.63 41.7081 1053.63 49.9314 Q1053.63 58.1548 1056.99 62.8538 Q1060.39 67.5124 1066.31 67.5124 Q1072.22 67.5124 1075.58 62.8538 Q1078.99 58.1548 1078.99 49.9314 M1053.63 34.0924 Q1055.98 30.0415 1059.54 28.0971 Q1063.15 26.1121 1068.13 26.1121 Q1076.39 26.1121 1081.54 32.6746 Q1086.72 39.2371 1086.72 49.9314 Q1086.72 60.6258 1081.54 67.1883 Q1076.39 73.7508 1068.13 73.7508 Q1063.15 73.7508 1059.54 71.8063 Q1055.98 69.8214 1053.63 65.7705 L1053.63 72.576 L1046.13 72.576 L1046.13 9.54393 L1053.63 9.54393 L1053.63 34.0924 Z" fill="#000000" fill-rule="nonzero" fill-opacity="1" /><path clip-path="url(#clip830)" d="M1098.31 54.671 L1098.31 27.2059 L1105.76 27.2059 L1105.76 54.3874 Q1105.76 60.8284 1108.27 64.0691 Q1110.79 67.2693 1115.81 67.2693 Q1121.84 67.2693 1125.33 63.421 Q1128.85 59.5726 1128.85 52.9291 L1128.85 27.2059 L1136.31 27.2059 L1136.31 72.576 L1128.85 72.576 L1128.85 65.6084 Q1126.14 69.7404 1122.53 71.7658 Q1118.97 73.7508 1114.23 73.7508 Q1106.41 73.7508 1102.36 68.8897 Q1098.31 64.0286 1098.31 54.671 M1117.06 26.1121 L1117.06 26.1121 Z" fill="#000000" fill-rule="nonzero" fill-opacity="1" /><path clip-path="url(#clip830)" d="M1151.66 9.54393 L1159.11 9.54393 L1159.11 72.576 L1151.66 72.576 L1151.66 9.54393 Z" fill="#000000" fill-rule="nonzero" fill-opacity="1" /><path clip-path="url(#clip830)" d="M1174.71 9.54393 L1182.16 9.54393 L1182.16 72.576 L1174.71 72.576 L1174.71 9.54393 Z" fill="#000000" fill-rule="nonzero" fill-opacity="1" /><path clip-path="url(#clip830)" d="M1253.98 34.0924 L1253.98 9.54393 L1261.44 9.54393 L1261.44 72.576 L1253.98 72.576 L1253.98 65.7705 Q1251.64 69.8214 1248.03 71.8063 Q1244.47 73.7508 1239.44 73.7508 Q1231.22 73.7508 1226.03 67.1883 Q1220.89 60.6258 1220.89 49.9314 Q1220.89 39.2371 1226.03 32.6746 Q1231.22 26.1121 1239.44 26.1121 Q1244.47 26.1121 1248.03 28.0971 Q1251.64 30.0415 1253.98 34.0924 M1228.59 49.9314 Q1228.59 58.1548 1231.95 62.8538 Q1235.35 67.5124 1241.27 67.5124 Q1247.18 67.5124 1250.58 62.8538 Q1253.98 58.1548 1253.98 49.9314 Q1253.98 41.7081 1250.58 37.0496 Q1247.18 32.3505 1241.27 32.3505 Q1235.35 32.3505 1231.95 37.0496 Q1228.59 41.7081 1228.59 49.9314 Z" fill="#000000" fill-rule="nonzero" fill-opacity="1" /><path clip-path="url(#clip830)" d="M1276.79 27.2059 L1284.25 27.2059 L1284.25 72.576 L1276.79 72.576 L1276.79 27.2059 M1276.79 9.54393 L1284.25 9.54393 L1284.25 18.9825 L1276.79 18.9825 L1276.79 9.54393 Z" fill="#000000" fill-rule="nonzero" fill-opacity="1" /><path clip-path="url(#clip830)" d="M1328.76 28.5427 L1328.76 35.5912 Q1325.6 33.9709 1322.2 33.1607 Q1318.8 32.3505 1315.15 32.3505 Q1309.6 32.3505 1306.81 34.0519 Q1304.05 35.7533 1304.05 39.156 Q1304.05 41.7486 1306.04 43.2475 Q1308.02 44.7058 1314.02 46.0426 L1316.57 46.6097 Q1324.51 48.3111 1327.83 51.4303 Q1331.2 54.509 1331.2 60.0587 Q1331.2 66.3781 1326.17 70.0644 Q1321.19 73.7508 1312.44 73.7508 Q1308.79 73.7508 1304.82 73.0216 Q1300.89 72.3329 1296.52 70.9151 L1296.52 63.2184 Q1300.65 65.3654 1304.66 66.4591 Q1308.67 67.5124 1312.6 67.5124 Q1317.87 67.5124 1320.7 65.73 Q1323.54 63.9071 1323.54 60.6258 Q1323.54 57.5877 1321.47 55.9673 Q1319.45 54.3469 1312.52 52.8481 L1309.93 52.2405 Q1303 50.7821 1299.92 47.7845 Q1296.84 44.7463 1296.84 39.4801 Q1296.84 33.0797 1301.38 29.5959 Q1305.92 26.1121 1314.26 26.1121 Q1318.39 26.1121 1322.04 26.7198 Q1325.69 27.3274 1328.76 28.5427 Z" fill="#000000" fill-rule="nonzero" fill-opacity="1" /><path clip-path="url(#clip830)" d="M1350.44 14.324 L1350.44 27.2059 L1365.79 27.2059 L1365.79 32.9987 L1350.44 32.9987 L1350.44 57.6282 Q1350.44 63.1779 1351.94 64.7578 Q1353.48 66.3376 1358.13 66.3376 L1365.79 66.3376 L1365.79 72.576 L1358.13 72.576 Q1349.51 72.576 1346.22 69.3758 Q1342.94 66.1351 1342.94 57.6282 L1342.94 32.9987 L1337.47 32.9987 L1337.47 27.2059 L1342.94 27.2059 L1342.94 14.324 L1350.44 14.324 Z" fill="#000000" fill-rule="nonzero" fill-opacity="1" /><path clip-path="url(#clip830)" d="M1401.88 34.1734 Q1400.63 33.4443 1399.13 33.1202 Q1397.67 32.7556 1395.89 32.7556 Q1389.57 32.7556 1386.17 36.8875 Q1382.8 40.9789 1382.8 48.6757 L1382.8 72.576 L1375.31 72.576 L1375.31 27.2059 L1382.8 27.2059 L1382.8 34.2544 Q1385.15 30.1225 1388.92 28.1376 Q1392.69 26.1121 1398.08 26.1121 Q1398.85 26.1121 1399.78 26.2337 Q1400.71 26.3147 1401.84 26.5172 L1401.88 34.1734 Z" fill="#000000" fill-rule="nonzero" fill-opacity="1" /><path clip-path="url(#clip830)" d="M1409.7 27.2059 L1417.16 27.2059 L1417.16 72.576 L1409.7 72.576 L1409.7 27.2059 M1409.7 9.54393 L1417.16 9.54393 L1417.16 18.9825 L1409.7 18.9825 L1409.7 9.54393 Z" fill="#000000" fill-rule="nonzero" fill-opacity="1" /><path clip-path="url(#clip830)" d="M1465.32 49.9314 Q1465.32 41.7081 1461.92 37.0496 Q1458.56 32.3505 1452.64 32.3505 Q1446.73 32.3505 1443.32 37.0496 Q1439.96 41.7081 1439.96 49.9314 Q1439.96 58.1548 1443.32 62.8538 Q1446.73 67.5124 1452.64 67.5124 Q1458.56 67.5124 1461.92 62.8538 Q1465.32 58.1548 1465.32 49.9314 M1439.96 34.0924 Q1442.31 30.0415 1445.88 28.0971 Q1449.48 26.1121 1454.46 26.1121 Q1462.73 26.1121 1467.87 32.6746 Q1473.06 39.2371 1473.06 49.9314 Q1473.06 60.6258 1467.87 67.1883 Q1462.73 73.7508 1454.46 73.7508 Q1449.48 73.7508 1445.88 71.8063 Q1442.31 69.8214 1439.96 65.7705 L1439.96 72.576 L1432.47 72.576 L1432.47 9.54393 L1439.96 9.54393 L1439.96 34.0924 Z" fill="#000000" fill-rule="nonzero" fill-opacity="1" /><path clip-path="url(#clip830)" d="M1484.64 54.671 L1484.64 27.2059 L1492.1 27.2059 L1492.1 54.3874 Q1492.1 60.8284 1494.61 64.0691 Q1497.12 67.2693 1502.14 67.2693 Q1508.18 67.2693 1511.66 63.421 Q1515.19 59.5726 1515.19 52.9291 L1515.19 27.2059 L1522.64 27.2059 L1522.64 72.576 L1515.19 72.576 L1515.19 65.6084 Q1512.47 69.7404 1508.87 71.7658 Q1505.3 73.7508 1500.56 73.7508 Q1492.75 73.7508 1488.69 68.8897 Q1484.64 64.0286 1484.64 54.671 M1503.4 26.1121 L1503.4 26.1121 Z" fill="#000000" fill-rule="nonzero" fill-opacity="1" /><path clip-path="url(#clip830)" d="M1545.37 14.324 L1545.37 27.2059 L1560.72 27.2059 L1560.72 32.9987 L1545.37 32.9987 L1545.37 57.6282 Q1545.37 63.1779 1546.87 64.7578 Q1548.4 66.3376 1553.06 66.3376 L1560.72 66.3376 L1560.72 72.576 L1553.06 72.576 Q1544.43 72.576 1541.15 69.3758 Q1537.87 66.1351 1537.87 57.6282 L1537.87 32.9987 L1532.4 32.9987 L1532.4 27.2059 L1537.87 27.2059 L1537.87 14.324 L1545.37 14.324 Z" fill="#000000" fill-rule="nonzero" fill-opacity="1" /><path clip-path="url(#clip830)" d="M1570.52 27.2059 L1577.98 27.2059 L1577.98 72.576 L1570.52 72.576 L1570.52 27.2059 M1570.52 9.54393 L1577.98 9.54393 L1577.98 18.9825 L1570.52 18.9825 L1570.52 9.54393 Z" fill="#000000" fill-rule="nonzero" fill-opacity="1" /><path clip-path="url(#clip830)" d="M1611.15 32.4315 Q1605.16 32.4315 1601.67 37.1306 Q1598.19 41.7891 1598.19 49.9314 Q1598.19 58.0738 1601.63 62.7728 Q1605.12 67.4314 1611.15 67.4314 Q1617.11 67.4314 1620.59 62.7323 Q1624.08 58.0333 1624.08 49.9314 Q1624.08 41.8701 1620.59 37.1711 Q1617.11 32.4315 1611.15 32.4315 M1611.15 26.1121 Q1620.88 26.1121 1626.43 32.4315 Q1631.97 38.7509 1631.97 49.9314 Q1631.97 61.0714 1626.43 67.4314 Q1620.88 73.7508 1611.15 73.7508 Q1601.39 73.7508 1595.84 67.4314 Q1590.33 61.0714 1590.33 49.9314 Q1590.33 38.7509 1595.84 32.4315 Q1601.39 26.1121 1611.15 26.1121 Z" fill="#000000" fill-rule="nonzero" fill-opacity="1" /><path clip-path="url(#clip830)" d="M1682.04 45.1919 L1682.04 72.576 L1674.59 72.576 L1674.59 45.4349 Q1674.59 38.994 1672.08 35.7938 Q1669.57 32.5936 1664.54 32.5936 Q1658.51 32.5936 1655.02 36.4419 Q1651.54 40.2903 1651.54 46.9338 L1651.54 72.576 L1644.05 72.576 L1644.05 27.2059 L1651.54 27.2059 L1651.54 34.2544 Q1654.21 30.163 1657.82 28.1376 Q1661.47 26.1121 1666.2 26.1121 Q1674.02 26.1121 1678.03 30.9732 Q1682.04 35.7938 1682.04 45.1919 Z" fill="#000000" fill-rule="nonzero" fill-opacity="1" /><polyline clip-path="url(#clip832)" style="stroke:#000000; stroke-linecap:round; stroke-linejoin:round; stroke-width:4; stroke-opacity:1; fill:none" points="300.088,1386.4 320.418,1383.76 340.747,1381.99 361.077,1380.62 381.406,1379.49 401.736,1378.52 422.065,1377.66 442.395,1376.89 462.724,1376.19 483.054,1375.54 503.383,1374.94 523.712,1374.39 544.042,1373.86 564.371,1373.37 584.701,1372.9 605.03,1372.45 625.36,1372.02 645.689,1371.62 666.019,1371.23 686.348,1370.85 706.678,1370.49 727.007,1370.14 747.337,1369.8 767.666,1369.47 787.996,1369.16 808.325,1368.85 828.655,1368.55 848.984,1368.26 869.314,1367.98 889.643,1367.7 909.973,1367.43 930.302,1367.17 950.632,1366.91 970.961,1366.66 991.291,1366.42 1011.62,1366.18 1031.95,1365.94 1052.28,1365.71 1072.61,1365.49 1092.94,1365.27 1113.27,1365.05 1133.6,1364.84 1153.93,1364.63 1174.26,1364.42 1194.59,1364.22 1214.91,1364.02 1235.24,1363.82 1255.57,1363.63 1275.9,1363.44 1296.23,1363.25 1316.56,1363.07 1336.89,1362.89 1357.22,1362.71 1377.55,1362.53 1397.88,1362.36 1418.21,1362.19 1438.54,1362.02 1458.87,1361.85 1479.2,1361.69 1499.53,1361.52 1519.86,1361.36 1540.19,1361.2 1560.52,1361.05 1580.85,1360.89 1601.17,1360.74 1621.5,1360.59 1641.83,1360.44 1662.16,1360.29 1682.49,1360.14 1702.82,1360 1723.15,1359.85 1743.48,1359.71 1763.81,1359.57 1784.14,1359.43 1804.47,1359.29 1824.8,1359.16 1845.13,1359.02 1865.46,1358.89 1885.79,1358.76 1906.12,1358.63 1926.45,1358.5 1946.78,1358.37 1967.11,1358.24 1987.44,1358.11 2007.76,1357.99 2028.09,1357.87 2048.42,1357.74 2068.75,1357.62 2089.08,1357.5 2109.41,1357.38 2129.74,1357.26 2150.07,1357.14 2170.4,1357.03 2190.73,1356.91 2211.06,1356.79 2231.39,1356.68 2251.72,1356.57 2272.05,1356.45 2292.38,1356.34 "/>
<polyline clip-path="url(#clip832)" style="stroke:#ff0000; stroke-linecap:round; stroke-linejoin:round; stroke-width:4; stroke-opacity:1; fill:none" points="286.49,1102.52 293.221,1046.12 299.952,1008.29 306.683,979.027 313.415,954.832 320.146,934.036 326.877,915.698 333.608,899.23 340.339,884.241 347.07,870.453 353.802,857.663 360.533,845.718 367.264,834.497 373.995,823.906 380.726,813.868 387.457,804.32 394.189,795.209 400.92,786.491 407.651,778.13 414.382,770.092 421.113,762.35 427.844,754.88 434.576,747.66 441.307,740.672 448.038,733.899 454.769,727.326 461.5,720.94 468.231,714.729 474.963,708.682 481.694,702.789 488.425,697.042 495.156,691.432 501.887,685.952 508.618,680.596 515.35,675.356 522.081,670.227 528.812,665.204 535.543,660.282 542.274,655.456 549.005,650.722 555.737,646.075 562.468,641.513 569.199,637.032 575.93,632.628 582.661,628.299 589.392,624.041 596.124,619.852 602.855,615.729 609.586,611.67 616.317,607.673 623.048,603.736 629.779,599.855 636.511,596.031 643.242,592.26 649.973,588.541 656.704,584.872 663.435,581.252 670.166,577.68 676.898,574.153 683.629,570.671 690.36,567.232 697.091,563.836 703.822,560.48 710.553,557.163 717.285,553.886 724.016,550.646 730.747,547.442 737.478,544.274 744.209,541.141 750.94,538.042 757.672,534.976 764.403,531.942 771.134,528.939 777.865,525.967 784.596,523.026 791.327,520.113 798.058,517.229 804.79,514.373 811.521,511.544 818.252,508.742 824.983,505.966 831.714,503.216 838.445,500.49 845.177,497.79 851.908,495.113 858.639,492.459 865.37,489.829 872.101,487.222 878.832,484.636 885.564,482.072 892.295,479.529 899.026,477.008 905.757,474.506 912.488,472.025 919.219,469.564 925.951,467.122 932.682,464.699 939.413,462.294 946.144,459.908 952.875,457.54 959.606,455.189 966.338,452.856 973.069,450.54 979.8,448.241 986.531,445.958 993.262,443.692 999.993,441.442 1006.72,439.207 1013.46,436.988 1020.19,434.783 1026.92,432.594 1033.65,430.42 1040.38,428.26 1047.11,426.115 1053.84,423.983 1060.57,421.865 1067.31,419.761 1074.04,417.671 1080.77,415.594 1087.5,413.529 1094.23,411.478 1100.96,409.439 1107.69,407.413 1114.42,405.399 1121.15,403.397 1127.89,401.407 1134.62,399.429 1141.35,397.463 1148.08,395.508 1154.81,393.564 1161.54,391.632 1168.27,389.711 1175,387.8 1181.73,385.9 1188.47,384.011 1195.2,382.133 1201.93,380.264 1208.66,378.406 1215.39,376.558 1222.12,374.72 1228.85,372.892 1235.58,371.073 1242.32,369.264 1249.05,367.464 1255.78,365.674 1262.51,363.893 1269.24,362.121 1275.97,360.358 1282.7,358.604 1289.43,356.859 1296.16,355.123 1302.9,353.395 1309.63,351.676 1316.36,349.965 1323.09,348.262 1329.82,346.568 1336.55,344.881 1343.28,343.203 1350.01,341.533 1356.75,339.87 1363.48,338.215 1370.21,336.568 1376.94,334.929 1383.67,333.297 1390.4,331.673 1397.13,330.056 1403.86,328.446 1410.59,326.843 1417.33,325.248 1424.06,323.66 1430.79,322.078 1437.52,320.504 1444.25,318.936 1450.98,317.375 1457.71,315.821 1464.44,314.274 1471.18,312.733 1477.91,311.198 1484.64,309.67 1491.37,308.149 1498.1,306.634 1504.83,305.125 1511.56,303.622 1518.29,302.125 1525.02,300.635 1531.76,299.15 1538.49,297.672 1545.22,296.199 1551.95,294.732 1558.68,293.271 1565.41,291.816 1572.14,290.367 1578.87,288.923 1585.6,287.485 1592.34,286.052 1599.07,284.625 1605.8,283.203 1612.53,281.787 1619.26,280.376 1625.99,278.97 1632.72,277.569 1639.45,276.174 1646.19,274.784 1652.92,273.399 1659.65,272.019 1666.38,270.645 1673.11,269.275 1679.84,267.91 1686.57,266.55 1693.3,265.195 1700.03,263.845 1706.77,262.499 1713.5,261.159 1720.23,259.823 1726.96,258.491 1733.69,257.165 1740.42,255.842 1747.15,254.525 1753.88,253.212 1760.62,251.903 1767.35,250.599 1774.08,249.3 1780.81,248.004 1787.54,246.713 1794.27,245.427 1801,244.145 1807.73,242.866 1814.46,241.593 1821.2,240.323 1827.93,239.057 1834.66,237.796 1841.39,236.539 1848.12,235.285 1854.85,234.036 1861.58,232.791 1868.31,231.55 1875.05,230.312 1881.78,229.079 1888.51,227.849 1895.24,226.624 1901.97,225.402 1908.7,224.184 1915.43,222.969 1922.16,221.759 1928.89,220.552 1935.63,219.349 1942.36,218.149 1949.09,216.953 1955.82,215.761 1962.55,214.572 1969.28,213.387 1976.01,212.206 1982.74,211.027 1989.47,209.853 1996.21,208.682 2002.94,207.514 2009.67,206.35 2016.4,205.189 2023.13,204.031 2029.86,202.877 2036.59,201.726 2043.32,200.579 2050.06,199.435 2056.79,198.294 2063.52,197.156 2070.25,196.021 2076.98,194.89 2083.71,193.762 2090.44,192.637 2097.17,191.515 2103.9,190.396 2110.64,189.28 2117.37,188.168 2124.1,187.058 2130.83,185.951 2137.56,184.848 2144.29,183.747 2151.02,182.65 2157.75,181.555 2164.49,180.463 2171.22,179.375 2177.95,178.289 2184.68,177.206 2191.41,176.126 2198.14,175.048 2204.87,173.974 2211.6,172.902 2218.33,171.834 2225.07,170.768 2231.8,169.704 2238.53,168.644 2245.26,167.586 2251.99,166.531 2258.72,165.478 2265.45,164.429 2272.18,163.382 2278.92,162.337 2285.65,161.295 2292.38,160.256 "/>
<path clip-path="url(#clip830)" d="M290.493 322.316 L926.953 322.316 L926.953 166.796 L290.493 166.796  Z" fill="#ffffff" fill-rule="evenodd" fill-opacity="1"/>
<polyline clip-path="url(#clip830)" style="stroke:#000000; stroke-linecap:round; stroke-linejoin:round; stroke-width:4; stroke-opacity:1; fill:none" points="290.493,322.316 926.953,322.316 926.953,166.796 290.493,166.796 290.493,322.316 "/>
<polyline clip-path="url(#clip830)" style="stroke:#000000; stroke-linecap:round; stroke-linejoin:round; stroke-width:4; stroke-opacity:1; fill:none" points="314.197,218.636 456.422,218.636 "/>
<path clip-path="url(#clip830)" d="M481.7 201.356 L486.723 201.356 L495.311 214.203 L503.945 201.356 L508.969 201.356 L497.857 217.953 L509.709 235.916 L504.686 235.916 L494.964 221.217 L485.172 235.916 L480.126 235.916 L492.464 217.467 L481.7 201.356 Z" fill="#000000" fill-rule="nonzero" fill-opacity="1" /><path clip-path="url(#clip830)" d="M516.214 214.388 L545.89 214.388 L545.89 218.277 L516.214 218.277 L516.214 214.388 M516.214 223.832 L545.89 223.832 L545.89 227.768 L516.214 227.768 L516.214 223.832 Z" fill="#000000" fill-rule="nonzero" fill-opacity="1" /><path clip-path="url(#clip830)" d="M565.982 204.434 Q562.371 204.434 560.542 207.999 Q558.737 211.541 558.737 218.67 Q558.737 225.777 560.542 229.342 Q562.371 232.883 565.982 232.883 Q569.616 232.883 571.422 229.342 Q573.251 225.777 573.251 218.67 Q573.251 211.541 571.422 207.999 Q569.616 204.434 565.982 204.434 M565.982 200.731 Q571.792 200.731 574.848 205.337 Q577.926 209.92 577.926 218.67 Q577.926 227.397 574.848 232.004 Q571.792 236.587 565.982 236.587 Q560.172 236.587 557.093 232.004 Q554.038 227.397 554.038 218.67 Q554.038 209.92 557.093 205.337 Q560.172 200.731 565.982 200.731 Z" fill="#000000" fill-rule="nonzero" fill-opacity="1" /><path clip-path="url(#clip830)" d="M586.63 230.036 L591.514 230.036 L591.514 234.018 L587.718 241.425 L584.732 241.425 L586.63 234.018 L586.63 230.036 Z" fill="#000000" fill-rule="nonzero" fill-opacity="1" /><path clip-path="url(#clip830)" d="M613.875 201.356 L641.028 201.356 L641.028 204.921 L619.176 231.981 L641.56 231.981 L641.56 235.916 L613.343 235.916 L613.343 232.351 L635.195 205.291 L613.875 205.291 L613.875 201.356 Z" fill="#000000" fill-rule="nonzero" fill-opacity="1" /><path clip-path="url(#clip830)" d="M649.57 231.981 L657.208 231.981 L657.208 205.615 L648.898 207.282 L648.898 203.022 L657.162 201.356 L661.838 201.356 L661.838 231.981 L669.477 231.981 L669.477 235.916 L649.57 235.916 L649.57 231.981 Z" fill="#000000" fill-rule="nonzero" fill-opacity="1" /><path clip-path="url(#clip830)" d="M678.875 214.388 L708.551 214.388 L708.551 218.277 L678.875 218.277 L678.875 214.388 M678.875 223.832 L708.551 223.832 L708.551 227.768 L678.875 227.768 L678.875 223.832 Z" fill="#000000" fill-rule="nonzero" fill-opacity="1" /><path clip-path="url(#clip830)" d="M728.643 204.434 Q725.032 204.434 723.203 207.999 Q721.398 211.541 721.398 218.67 Q721.398 225.777 723.203 229.342 Q725.032 232.883 728.643 232.883 Q732.278 232.883 734.083 229.342 Q735.912 225.777 735.912 218.67 Q735.912 211.541 734.083 207.999 Q732.278 204.434 728.643 204.434 M728.643 200.731 Q734.453 200.731 737.509 205.337 Q740.588 209.92 740.588 218.67 Q740.588 227.397 737.509 232.004 Q734.453 236.587 728.643 236.587 Q722.833 236.587 719.754 232.004 Q716.699 227.397 716.699 218.67 Q716.699 209.92 719.754 205.337 Q722.833 200.731 728.643 200.731 Z" fill="#000000" fill-rule="nonzero" fill-opacity="1" /><path clip-path="url(#clip830)" d="M749.291 230.036 L754.176 230.036 L754.176 234.018 L750.379 241.425 L747.393 241.425 L749.291 234.018 L749.291 230.036 Z" fill="#000000" fill-rule="nonzero" fill-opacity="1" /><path clip-path="url(#clip830)" d="M776.537 201.356 L803.689 201.356 L803.689 204.921 L781.837 231.981 L804.222 231.981 L804.222 235.916 L776.004 235.916 L776.004 232.351 L797.856 205.291 L776.537 205.291 L776.537 201.356 Z" fill="#000000" fill-rule="nonzero" fill-opacity="1" /><path clip-path="url(#clip830)" d="M815.448 231.981 L831.768 231.981 L831.768 235.916 L809.823 235.916 L809.823 231.981 Q812.485 229.226 817.069 224.596 Q821.675 219.944 822.856 218.601 Q825.101 216.078 825.981 214.342 Q826.883 212.583 826.883 210.893 Q826.883 208.138 824.939 206.402 Q823.018 204.666 819.916 204.666 Q817.717 204.666 815.263 205.43 Q812.833 206.194 810.055 207.745 L810.055 203.022 Q812.879 201.888 815.333 201.309 Q817.786 200.731 819.823 200.731 Q825.194 200.731 828.388 203.416 Q831.583 206.101 831.583 210.592 Q831.583 212.721 830.772 214.643 Q829.985 216.541 827.879 219.133 Q827.3 219.805 824.198 223.022 Q821.096 226.217 815.448 231.981 Z" fill="#000000" fill-rule="nonzero" fill-opacity="1" /><path clip-path="url(#clip830)" d="M841.536 214.388 L871.212 214.388 L871.212 218.277 L841.536 218.277 L841.536 214.388 M841.536 223.832 L871.212 223.832 L871.212 227.768 L841.536 227.768 L841.536 223.832 Z" fill="#000000" fill-rule="nonzero" fill-opacity="1" /><path clip-path="url(#clip830)" d="M891.304 204.434 Q887.693 204.434 885.865 207.999 Q884.059 211.541 884.059 218.67 Q884.059 225.777 885.865 229.342 Q887.693 232.883 891.304 232.883 Q894.939 232.883 896.744 229.342 Q898.573 225.777 898.573 218.67 Q898.573 211.541 896.744 207.999 Q894.939 204.434 891.304 204.434 M891.304 200.731 Q897.115 200.731 900.17 205.337 Q903.249 209.92 903.249 218.67 Q903.249 227.397 900.17 232.004 Q897.115 236.587 891.304 236.587 Q885.494 236.587 882.416 232.004 Q879.36 227.397 879.36 218.67 Q879.36 209.92 882.416 205.337 Q885.494 200.731 891.304 200.731 Z" fill="#000000" fill-rule="nonzero" fill-opacity="1" /><polyline clip-path="url(#clip830)" style="stroke:#ff0000; stroke-linecap:round; stroke-linejoin:round; stroke-width:4; stroke-opacity:1; fill:none" points="314.197,270.476 456.422,270.476 "/>
<path clip-path="url(#clip830)" d="M481.7 253.196 L486.723 253.196 L495.311 266.043 L503.945 253.196 L508.969 253.196 L497.857 269.793 L509.709 287.756 L504.686 287.756 L494.964 273.057 L485.172 287.756 L480.126 287.756 L492.464 269.307 L481.7 253.196 Z" fill="#000000" fill-rule="nonzero" fill-opacity="1" /><path clip-path="url(#clip830)" d="M516.214 266.228 L545.89 266.228 L545.89 270.117 L516.214 270.117 L516.214 266.228 M516.214 275.672 L545.89 275.672 L545.89 279.608 L516.214 279.608 L516.214 275.672 Z" fill="#000000" fill-rule="nonzero" fill-opacity="1" /><path clip-path="url(#clip830)" d="M556.792 283.821 L564.431 283.821 L564.431 257.455 L556.121 259.122 L556.121 254.862 L564.385 253.196 L569.061 253.196 L569.061 283.821 L576.7 283.821 L576.7 287.756 L556.792 287.756 L556.792 283.821 Z" fill="#000000" fill-rule="nonzero" fill-opacity="1" /><path clip-path="url(#clip830)" d="M586.63 281.876 L591.514 281.876 L591.514 285.858 L587.718 293.265 L584.732 293.265 L586.63 285.858 L586.63 281.876 Z" fill="#000000" fill-rule="nonzero" fill-opacity="1" /><path clip-path="url(#clip830)" d="M613.875 253.196 L641.028 253.196 L641.028 256.761 L619.176 283.821 L641.56 283.821 L641.56 287.756 L613.343 287.756 L613.343 284.191 L635.195 257.131 L613.875 257.131 L613.875 253.196 Z" fill="#000000" fill-rule="nonzero" fill-opacity="1" /><path clip-path="url(#clip830)" d="M649.57 283.821 L657.208 283.821 L657.208 257.455 L648.898 259.122 L648.898 254.862 L657.162 253.196 L661.838 253.196 L661.838 283.821 L669.477 283.821 L669.477 287.756 L649.57 287.756 L649.57 283.821 Z" fill="#000000" fill-rule="nonzero" fill-opacity="1" /><path clip-path="url(#clip830)" d="M678.875 266.228 L708.551 266.228 L708.551 270.117 L678.875 270.117 L678.875 266.228 M678.875 275.672 L708.551 275.672 L708.551 279.608 L678.875 279.608 L678.875 275.672 Z" fill="#000000" fill-rule="nonzero" fill-opacity="1" /><path clip-path="url(#clip830)" d="M719.454 283.821 L727.092 283.821 L727.092 257.455 L718.782 259.122 L718.782 254.862 L727.046 253.196 L731.722 253.196 L731.722 283.821 L739.361 283.821 L739.361 287.756 L719.454 287.756 L719.454 283.821 Z" fill="#000000" fill-rule="nonzero" fill-opacity="1" /><path clip-path="url(#clip830)" d="M749.291 281.876 L754.176 281.876 L754.176 285.858 L750.379 293.265 L747.393 293.265 L749.291 285.858 L749.291 281.876 Z" fill="#000000" fill-rule="nonzero" fill-opacity="1" /><path clip-path="url(#clip830)" d="M776.537 253.196 L803.689 253.196 L803.689 256.761 L781.837 283.821 L804.222 283.821 L804.222 287.756 L776.004 287.756 L776.004 284.191 L797.856 257.131 L776.537 257.131 L776.537 253.196 Z" fill="#000000" fill-rule="nonzero" fill-opacity="1" /><path clip-path="url(#clip830)" d="M815.448 283.821 L831.768 283.821 L831.768 287.756 L809.823 287.756 L809.823 283.821 Q812.485 281.066 817.069 276.436 Q821.675 271.784 822.856 270.441 Q825.101 267.918 825.981 266.182 Q826.883 264.423 826.883 262.733 Q826.883 259.978 824.939 258.242 Q823.018 256.506 819.916 256.506 Q817.717 256.506 815.263 257.27 Q812.833 258.034 810.055 259.585 L810.055 254.862 Q812.879 253.728 815.333 253.149 Q817.786 252.571 819.823 252.571 Q825.194 252.571 828.388 255.256 Q831.583 257.941 831.583 262.432 Q831.583 264.561 830.772 266.483 Q829.985 268.381 827.879 270.973 Q827.3 271.645 824.198 274.862 Q821.096 278.057 815.448 283.821 Z" fill="#000000" fill-rule="nonzero" fill-opacity="1" /><path clip-path="url(#clip830)" d="M841.536 266.228 L871.212 266.228 L871.212 270.117 L841.536 270.117 L841.536 266.228 M841.536 275.672 L871.212 275.672 L871.212 279.608 L841.536 279.608 L841.536 275.672 Z" fill="#000000" fill-rule="nonzero" fill-opacity="1" /><path clip-path="url(#clip830)" d="M882.115 283.821 L889.754 283.821 L889.754 257.455 L881.443 259.122 L881.443 254.862 L889.707 253.196 L894.383 253.196 L894.383 283.821 L902.022 283.821 L902.022 287.756 L882.115 287.756 L882.115 283.821 Z" fill="#000000" fill-rule="nonzero" fill-opacity="1" /></svg>
