<?xml version="1.0" encoding="utf-8"?>
<svg xmlns="http://www.w3.org/2000/svg" xmlns:xlink="http://www.w3.org/1999/xlink" width="600" height="400" viewBox="0 0 2400 1600">
<defs>
  <clipPath id="clip910">
    <rect x="0" y="0" width="2400" height="1600"/>
  </clipPath>
</defs>
<path clip-path="url(#clip910)" d="M0 1600 L2400 1600 L2400 0 L0 0  Z" fill="#ffffff" fill-rule="evenodd" fill-opacity="1"/>
<defs>
  <clipPath id="clip911">
    <rect x="480" y="0" width="1681" height="1600"/>
  </clipPath>
</defs>
<path clip-path="url(#clip910)" d="M249.542 1423.18 L2352.76 1423.18 L2352.76 123.472 L249.542 123.472  Z" fill="#ffffff" fill-rule="evenodd" fill-opacity="1"/>
<defs>
  <clipPath id="clip912">
    <rect x="249" y="123" width="2104" height="1301"/>
  </clipPath>
</defs>
<polyline clip-path="url(#clip910)" style="stroke:#000000; stroke-linecap:round; stroke-linejoin:round; stroke-width:4; stroke-opacity:1; fill:none" points="249.542,1423.18 2352.76,1423.18 "/>
<polyline clip-path="url(#clip910)" style="stroke:#000000; stroke-linecap:round; stroke-linejoin:round; stroke-width:4; stroke-opacity:1; fill:none" points="309.067,1423.18 309.067,1404.28 "/>
<polyline clip-path="url(#clip910)" style="stroke:#000000; stroke-linecap:round; stroke-linejoin:round; stroke-width:4; stroke-opacity:1; fill:none" points="805.108,1423.18 805.108,1404.28 "/>
<polyline clip-path="url(#clip910)" style="stroke:#000000; stroke-linecap:round; stroke-linejoin:round; stroke-width:4; stroke-opacity:1; fill:none" points="1301.15,1423.18 1301.15,1404.28 "/>
<polyline clip-path="url(#clip910)" style="stroke:#000000; stroke-linecap:round; stroke-linejoin:round; stroke-width:4; stroke-opacity:1; fill:none" points="1797.19,1423.18 1797.19,1404.28 "/>
<polyline clip-path="url(#clip910)" style="stroke:#000000; stroke-linecap:round; stroke-linejoin:round; stroke-width:4; stroke-opacity:1; fill:none" points="2293.23,1423.18 2293.23,1404.28 "/>
<path clip-path="url(#clip910)" d="M309.067 1454.1 Q305.456 1454.1 303.627 1457.66 Q301.822 1461.2 301.822 1468.33 Q301.822 1475.44 303.627 1479.01 Q305.456 1482.55 309.067 1482.55 Q312.701 1482.55 314.507 1479.01 Q316.335 1475.44 316.335 1468.33 Q316.335 1461.2 314.507 1457.66 Q312.701 1454.1 309.067 1454.1 M309.067 1450.39 Q314.877 1450.39 317.933 1455 Q321.011 1459.58 321.011 1468.33 Q321.011 1477.06 317.933 1481.67 Q314.877 1486.25 309.067 1486.25 Q303.257 1486.25 300.178 1481.67 Q297.123 1477.06 297.123 1468.33 Q297.123 1459.58 300.178 1455 Q303.257 1450.39 309.067 1450.39 Z" fill="#000000" fill-rule="nonzero" fill-opacity="1" /><path clip-path="url(#clip910)" d="M795.386 1451.02 L813.742 1451.02 L813.742 1454.96 L799.668 1454.96 L799.668 1463.43 Q800.687 1463.08 801.705 1462.92 Q802.724 1462.73 803.742 1462.73 Q809.529 1462.73 812.909 1465.9 Q816.288 1469.08 816.288 1474.49 Q816.288 1480.07 812.816 1483.17 Q809.344 1486.25 803.025 1486.25 Q800.849 1486.25 798.58 1485.88 Q796.335 1485.51 793.927 1484.77 L793.927 1480.07 Q796.011 1481.2 798.233 1481.76 Q800.455 1482.32 802.932 1482.32 Q806.937 1482.32 809.275 1480.21 Q811.613 1478.1 811.613 1474.49 Q811.613 1470.88 809.275 1468.77 Q806.937 1466.67 802.932 1466.67 Q801.057 1466.67 799.182 1467.08 Q797.33 1467.5 795.386 1468.38 L795.386 1451.02 Z" fill="#000000" fill-rule="nonzero" fill-opacity="1" /><path clip-path="url(#clip910)" d="M1275.84 1481.64 L1283.48 1481.64 L1283.48 1455.28 L1275.17 1456.95 L1275.17 1452.69 L1283.43 1451.02 L1288.11 1451.02 L1288.11 1481.64 L1295.74 1481.64 L1295.74 1485.58 L1275.84 1485.58 L1275.84 1481.64 Z" fill="#000000" fill-rule="nonzero" fill-opacity="1" /><path clip-path="url(#clip910)" d="M1315.19 1454.1 Q1311.58 1454.1 1309.75 1457.66 Q1307.94 1461.2 1307.94 1468.33 Q1307.94 1475.44 1309.75 1479.01 Q1311.58 1482.55 1315.19 1482.55 Q1318.82 1482.55 1320.63 1479.01 Q1322.46 1475.44 1322.46 1468.33 Q1322.46 1461.2 1320.63 1457.66 Q1318.82 1454.1 1315.19 1454.1 M1315.19 1450.39 Q1321 1450.39 1324.05 1455 Q1327.13 1459.58 1327.13 1468.33 Q1327.13 1477.06 1324.05 1481.67 Q1321 1486.25 1315.19 1486.25 Q1309.38 1486.25 1306.3 1481.67 Q1303.24 1477.06 1303.24 1468.33 Q1303.24 1459.58 1306.3 1455 Q1309.38 1450.39 1315.19 1450.39 Z" fill="#000000" fill-rule="nonzero" fill-opacity="1" /><path clip-path="url(#clip910)" d="M1772.38 1481.64 L1780.01 1481.64 L1780.01 1455.28 L1771.7 1456.95 L1771.7 1452.69 L1779.97 1451.02 L1784.64 1451.02 L1784.64 1481.64 L1792.28 1481.64 L1792.28 1485.58 L1772.38 1485.58 L1772.38 1481.64 Z" fill="#000000" fill-rule="nonzero" fill-opacity="1" /><path clip-path="url(#clip910)" d="M1801.77 1451.02 L1820.13 1451.02 L1820.13 1454.96 L1806.06 1454.96 L1806.06 1463.43 Q1807.07 1463.08 1808.09 1462.92 Q1809.11 1462.73 1810.13 1462.73 Q1815.92 1462.73 1819.3 1465.9 Q1822.68 1469.08 1822.68 1474.49 Q1822.68 1480.07 1819.2 1483.17 Q1815.73 1486.25 1809.41 1486.25 Q1807.24 1486.25 1804.97 1485.88 Q1802.72 1485.51 1800.31 1484.77 L1800.31 1480.07 Q1802.4 1481.2 1804.62 1481.76 Q1806.84 1482.32 1809.32 1482.32 Q1813.32 1482.32 1815.66 1480.21 Q1818 1478.1 1818 1474.49 Q1818 1470.88 1815.66 1468.77 Q1813.32 1466.67 1809.32 1466.67 Q1807.44 1466.67 1805.57 1467.08 Q1803.72 1467.5 1801.77 1468.38 L1801.77 1451.02 Z" fill="#000000" fill-rule="nonzero" fill-opacity="1" /><path clip-path="url(#clip910)" d="M2272 1481.64 L2288.32 1481.64 L2288.32 1485.58 L2266.38 1485.58 L2266.38 1481.64 Q2269.04 1478.89 2273.62 1474.26 Q2278.23 1469.61 2279.41 1468.27 Q2281.66 1465.74 2282.54 1464.01 Q2283.44 1462.25 2283.44 1460.56 Q2283.44 1457.8 2281.49 1456.07 Q2279.57 1454.33 2276.47 1454.33 Q2274.27 1454.33 2271.82 1455.09 Q2269.39 1455.86 2266.61 1457.41 L2266.61 1452.69 Q2269.43 1451.55 2271.89 1450.97 Q2274.34 1450.39 2276.38 1450.39 Q2281.75 1450.39 2284.94 1453.08 Q2288.14 1455.77 2288.14 1460.26 Q2288.14 1462.39 2287.33 1464.31 Q2286.54 1466.2 2284.43 1468.8 Q2283.86 1469.47 2280.75 1472.69 Q2277.65 1475.88 2272 1481.64 Z" fill="#000000" fill-rule="nonzero" fill-opacity="1" /><path clip-path="url(#clip910)" d="M2308.14 1454.1 Q2304.53 1454.1 2302.7 1457.66 Q2300.89 1461.2 2300.89 1468.33 Q2300.89 1475.44 2302.7 1479.01 Q2304.53 1482.55 2308.14 1482.55 Q2311.77 1482.55 2313.58 1479.01 Q2315.41 1475.44 2315.41 1468.33 Q2315.41 1461.2 2313.58 1457.66 Q2311.77 1454.1 2308.14 1454.1 M2308.14 1450.39 Q2313.95 1450.39 2317 1455 Q2320.08 1459.58 2320.08 1468.33 Q2320.08 1477.06 2317 1481.67 Q2313.95 1486.25 2308.14 1486.25 Q2302.33 1486.25 2299.25 1481.67 Q2296.19 1477.06 2296.19 1468.33 Q2296.19 1459.58 2299.25 1455 Q2302.33 1450.39 2308.14 1450.39 Z" fill="#000000" fill-rule="nonzero" fill-opacity="1" /><path clip-path="url(#clip910)" d="M1223.03 1520.52 L1263.23 1520.52 L1263.23 1525.93 L1246.36 1525.93 L1246.36 1568.04 L1239.89 1568.04 L1239.89 1525.93 L1223.03 1525.93 L1223.03 1520.52 Z" fill="#000000" fill-rule="nonzero" fill-opacity="1" /><path clip-path="url(#clip910)" d="M1267.17 1532.4 L1273.03 1532.4 L1273.03 1568.04 L1267.17 1568.04 L1267.17 1532.4 M1267.17 1518.52 L1273.03 1518.52 L1273.03 1525.93 L1267.17 1525.93 L1267.17 1518.52 Z" fill="#000000" fill-rule="nonzero" fill-opacity="1" /><path clip-path="url(#clip910)" d="M1313.04 1539.24 Q1315.23 1535.29 1318.29 1533.41 Q1321.34 1531.54 1325.48 1531.54 Q1331.05 1531.54 1334.08 1535.45 Q1337.1 1539.33 1337.1 1546.53 L1337.1 1568.04 L1331.21 1568.04 L1331.21 1546.72 Q1331.21 1541.59 1329.4 1539.11 Q1327.58 1536.63 1323.86 1536.63 Q1319.31 1536.63 1316.67 1539.65 Q1314.02 1542.68 1314.02 1547.9 L1314.02 1568.04 L1308.14 1568.04 L1308.14 1546.72 Q1308.14 1541.56 1306.32 1539.11 Q1304.51 1536.63 1300.72 1536.63 Q1296.23 1536.63 1293.59 1539.68 Q1290.95 1542.71 1290.95 1547.9 L1290.95 1568.04 L1285.06 1568.04 L1285.06 1532.4 L1290.95 1532.4 L1290.95 1537.93 Q1292.95 1534.66 1295.75 1533.1 Q1298.55 1531.54 1302.41 1531.54 Q1306.29 1531.54 1308.99 1533.51 Q1311.73 1535.48 1313.04 1539.24 Z" fill="#000000" fill-rule="nonzero" fill-opacity="1" /><path clip-path="url(#clip910)" d="M1379.27 1548.76 L1379.27 1551.62 L1352.35 1551.62 Q1352.73 1557.67 1355.97 1560.85 Q1359.25 1564 1365.08 1564 Q1368.45 1564 1371.6 1563.17 Q1374.78 1562.35 1377.9 1560.69 L1377.9 1566.23 Q1374.75 1567.57 1371.44 1568.27 Q1368.13 1568.97 1364.73 1568.97 Q1356.2 1568.97 1351.2 1564 Q1346.23 1559.04 1346.23 1550.57 Q1346.23 1541.82 1350.94 1536.69 Q1355.69 1531.54 1363.71 1531.54 Q1370.9 1531.54 1375.07 1536.18 Q1379.27 1540.8 1379.27 1548.76 M1373.42 1547.04 Q1373.35 1542.23 1370.71 1539.37 Q1368.1 1536.5 1363.77 1536.5 Q1358.87 1536.5 1355.91 1539.27 Q1352.98 1542.04 1352.54 1547.07 L1373.42 1547.04 Z" fill="#000000" fill-rule="nonzero" fill-opacity="1" /><polyline clip-path="url(#clip910)" style="stroke:#000000; stroke-linecap:round; stroke-linejoin:round; stroke-width:4; stroke-opacity:1; fill:none" points="249.542,1423.18 249.542,123.472 "/>
<polyline clip-path="url(#clip910)" style="stroke:#000000; stroke-linecap:round; stroke-linejoin:round; stroke-width:4; stroke-opacity:1; fill:none" points="249.542,1386.4 268.44,1386.4 "/>
<polyline clip-path="url(#clip910)" style="stroke:#000000; stroke-linecap:round; stroke-linejoin:round; stroke-width:4; stroke-opacity:1; fill:none" points="249.542,1079.86 268.44,1079.86 "/>
<polyline clip-path="url(#clip910)" style="stroke:#000000; stroke-linecap:round; stroke-linejoin:round; stroke-width:4; stroke-opacity:1; fill:none" points="249.542,773.326 268.44,773.326 "/>
<polyline clip-path="url(#clip910)" style="stroke:#000000; stroke-linecap:round; stroke-linejoin:round; stroke-width:4; stroke-opacity:1; fill:none" points="249.542,466.791 268.44,466.791 "/>
<polyline clip-path="url(#clip910)" style="stroke:#000000; stroke-linecap:round; stroke-linejoin:round; stroke-width:4; stroke-opacity:1; fill:none" points="249.542,160.256 268.44,160.256 "/>
<path clip-path="url(#clip910)" d="M126.205 1372.19 Q122.593 1372.19 120.765 1375.76 Q118.959 1379.3 118.959 1386.43 Q118.959 1393.54 120.765 1397.1 Q122.593 1400.64 126.205 1400.64 Q129.839 1400.64 131.644 1397.1 Q133.473 1393.54 133.473 1386.43 Q133.473 1379.3 131.644 1375.76 Q129.839 1372.19 126.205 1372.19 M126.205 1368.49 Q132.015 1368.49 135.07 1373.1 Q138.149 1377.68 138.149 1386.43 Q138.149 1395.16 135.07 1399.76 Q132.015 1404.35 126.205 1404.35 Q120.394 1404.35 117.316 1399.76 Q114.26 1395.16 114.26 1386.43 Q114.26 1377.68 117.316 1373.1 Q120.394 1368.49 126.205 1368.49 Z" fill="#000000" fill-rule="nonzero" fill-opacity="1" /><path clip-path="url(#clip910)" d="M146.366 1397.8 L151.251 1397.8 L151.251 1403.68 L146.366 1403.68 L146.366 1397.8 Z" fill="#000000" fill-rule="nonzero" fill-opacity="1" /><path clip-path="url(#clip910)" d="M171.436 1372.19 Q167.825 1372.19 165.996 1375.76 Q164.19 1379.3 164.19 1386.43 Q164.19 1393.54 165.996 1397.1 Q167.825 1400.64 171.436 1400.64 Q175.07 1400.64 176.876 1397.1 Q178.704 1393.54 178.704 1386.43 Q178.704 1379.3 176.876 1375.76 Q175.07 1372.19 171.436 1372.19 M171.436 1368.49 Q177.246 1368.49 180.301 1373.1 Q183.38 1377.68 183.38 1386.43 Q183.38 1395.16 180.301 1399.76 Q177.246 1404.35 171.436 1404.35 Q165.626 1404.35 162.547 1399.76 Q159.491 1395.16 159.491 1386.43 Q159.491 1377.68 162.547 1373.1 Q165.626 1368.49 171.436 1368.49 Z" fill="#000000" fill-rule="nonzero" fill-opacity="1" /><path clip-path="url(#clip910)" d="M201.598 1372.19 Q197.987 1372.19 196.158 1375.76 Q194.352 1379.3 194.352 1386.43 Q194.352 1393.54 196.158 1397.1 Q197.987 1400.64 201.598 1400.64 Q205.232 1400.64 207.037 1397.1 Q208.866 1393.54 208.866 1386.43 Q208.866 1379.3 207.037 1375.76 Q205.232 1372.19 201.598 1372.19 M201.598 1368.49 Q207.408 1368.49 210.463 1373.1 Q213.542 1377.68 213.542 1386.43 Q213.542 1395.16 210.463 1399.76 Q207.408 1404.35 201.598 1404.35 Q195.787 1404.35 192.709 1399.76 Q189.653 1395.16 189.653 1386.43 Q189.653 1377.68 192.709 1373.1 Q195.787 1368.49 201.598 1368.49 Z" fill="#000000" fill-rule="nonzero" fill-opacity="1" /><path clip-path="url(#clip910)" d="M127.2 1065.66 Q123.589 1065.66 121.76 1069.22 Q119.955 1072.77 119.955 1079.9 Q119.955 1087 121.76 1090.57 Q123.589 1094.11 127.2 1094.11 Q130.834 1094.11 132.64 1090.57 Q134.468 1087 134.468 1079.9 Q134.468 1072.77 132.64 1069.22 Q130.834 1065.66 127.2 1065.66 M127.2 1061.96 Q133.01 1061.96 136.066 1066.56 Q139.144 1071.15 139.144 1079.9 Q139.144 1088.62 136.066 1093.23 Q133.01 1097.81 127.2 1097.81 Q121.39 1097.81 118.311 1093.23 Q115.256 1088.62 115.256 1079.9 Q115.256 1071.15 118.311 1066.56 Q121.39 1061.96 127.2 1061.96 Z" fill="#000000" fill-rule="nonzero" fill-opacity="1" /><path clip-path="url(#clip910)" d="M147.362 1091.26 L152.246 1091.26 L152.246 1097.14 L147.362 1097.14 L147.362 1091.26 Z" fill="#000000" fill-rule="nonzero" fill-opacity="1" /><path clip-path="url(#clip910)" d="M166.459 1093.21 L182.778 1093.21 L182.778 1097.14 L160.834 1097.14 L160.834 1093.21 Q163.496 1090.45 168.079 1085.82 Q172.686 1081.17 173.866 1079.83 Q176.112 1077.3 176.991 1075.57 Q177.894 1073.81 177.894 1072.12 Q177.894 1069.36 175.95 1067.63 Q174.028 1065.89 170.927 1065.89 Q168.727 1065.89 166.274 1066.65 Q163.843 1067.42 161.065 1068.97 L161.065 1064.25 Q163.89 1063.11 166.343 1062.53 Q168.797 1061.96 170.834 1061.96 Q176.204 1061.96 179.399 1064.64 Q182.593 1067.33 182.593 1071.82 Q182.593 1073.95 181.783 1075.87 Q180.996 1077.77 178.889 1080.36 Q178.311 1081.03 175.209 1084.25 Q172.107 1087.44 166.459 1093.21 Z" fill="#000000" fill-rule="nonzero" fill-opacity="1" /><path clip-path="url(#clip910)" d="M192.639 1062.58 L210.996 1062.58 L210.996 1066.52 L196.922 1066.52 L196.922 1074.99 Q197.94 1074.64 198.959 1074.48 Q199.977 1074.29 200.996 1074.29 Q206.783 1074.29 210.162 1077.47 Q213.542 1080.64 213.542 1086.05 Q213.542 1091.63 210.07 1094.73 Q206.598 1097.81 200.278 1097.81 Q198.102 1097.81 195.834 1097.44 Q193.588 1097.07 191.181 1096.33 L191.181 1091.63 Q193.264 1092.77 195.487 1093.32 Q197.709 1093.88 200.186 1093.88 Q204.19 1093.88 206.528 1091.77 Q208.866 1089.66 208.866 1086.05 Q208.866 1082.44 206.528 1080.34 Q204.19 1078.23 200.186 1078.23 Q198.311 1078.23 196.436 1078.65 Q194.584 1079.06 192.639 1079.94 L192.639 1062.58 Z" fill="#000000" fill-rule="nonzero" fill-opacity="1" /><path clip-path="url(#clip910)" d="M126.205 759.125 Q122.593 759.125 120.765 762.689 Q118.959 766.231 118.959 773.361 Q118.959 780.467 120.765 784.032 Q122.593 787.574 126.205 787.574 Q129.839 787.574 131.644 784.032 Q133.473 780.467 133.473 773.361 Q133.473 766.231 131.644 762.689 Q129.839 759.125 126.205 759.125 M126.205 755.421 Q132.015 755.421 135.07 760.027 Q138.149 764.611 138.149 773.361 Q138.149 782.088 135.07 786.694 Q132.015 791.277 126.205 791.277 Q120.394 791.277 117.316 786.694 Q114.26 782.088 114.26 773.361 Q114.26 764.611 117.316 760.027 Q120.394 755.421 126.205 755.421 Z" fill="#000000" fill-rule="nonzero" fill-opacity="1" /><path clip-path="url(#clip910)" d="M146.366 784.726 L151.251 784.726 L151.251 790.606 L146.366 790.606 L146.366 784.726 Z" fill="#000000" fill-rule="nonzero" fill-opacity="1" /><path clip-path="url(#clip910)" d="M161.482 756.046 L179.839 756.046 L179.839 759.981 L165.765 759.981 L165.765 768.453 Q166.783 768.106 167.802 767.944 Q168.82 767.759 169.839 767.759 Q175.626 767.759 179.005 770.93 Q182.385 774.101 182.385 779.518 Q182.385 785.097 178.913 788.199 Q175.44 791.277 169.121 791.277 Q166.945 791.277 164.677 790.907 Q162.431 790.537 160.024 789.796 L160.024 785.097 Q162.107 786.231 164.329 786.787 Q166.552 787.342 169.028 787.342 Q173.033 787.342 175.371 785.236 Q177.709 783.129 177.709 779.518 Q177.709 775.907 175.371 773.801 Q173.033 771.694 169.028 771.694 Q167.153 771.694 165.278 772.111 Q163.427 772.527 161.482 773.407 L161.482 756.046 Z" fill="#000000" fill-rule="nonzero" fill-opacity="1" /><path clip-path="url(#clip910)" d="M201.598 759.125 Q197.987 759.125 196.158 762.689 Q194.352 766.231 194.352 773.361 Q194.352 780.467 196.158 784.032 Q197.987 787.574 201.598 787.574 Q205.232 787.574 207.037 784.032 Q208.866 780.467 208.866 773.361 Q208.866 766.231 207.037 762.689 Q205.232 759.125 201.598 759.125 M201.598 755.421 Q207.408 755.421 210.463 760.027 Q213.542 764.611 213.542 773.361 Q213.542 782.088 210.463 786.694 Q207.408 791.277 201.598 791.277 Q195.787 791.277 192.709 786.694 Q189.653 782.088 189.653 773.361 Q189.653 764.611 192.709 760.027 Q195.787 755.421 201.598 755.421 Z" fill="#000000" fill-rule="nonzero" fill-opacity="1" /><path clip-path="url(#clip910)" d="M127.2 452.59 Q123.589 452.59 121.76 456.155 Q119.955 459.696 119.955 466.826 Q119.955 473.932 121.76 477.497 Q123.589 481.039 127.2 481.039 Q130.834 481.039 132.64 477.497 Q134.468 473.932 134.468 466.826 Q134.468 459.696 132.64 456.155 Q130.834 452.59 127.2 452.59 M127.2 448.886 Q133.01 448.886 136.066 453.493 Q139.144 458.076 139.144 466.826 Q139.144 475.553 136.066 480.159 Q133.01 484.742 127.2 484.742 Q121.39 484.742 118.311 480.159 Q115.256 475.553 115.256 466.826 Q115.256 458.076 118.311 453.493 Q121.39 448.886 127.2 448.886 Z" fill="#000000" fill-rule="nonzero" fill-opacity="1" /><path clip-path="url(#clip910)" d="M147.362 478.192 L152.246 478.192 L152.246 484.071 L147.362 484.071 L147.362 478.192 Z" fill="#000000" fill-rule="nonzero" fill-opacity="1" /><path clip-path="url(#clip910)" d="M161.251 449.511 L183.473 449.511 L183.473 451.502 L170.927 484.071 L166.042 484.071 L177.848 453.446 L161.251 453.446 L161.251 449.511 Z" fill="#000000" fill-rule="nonzero" fill-opacity="1" /><path clip-path="url(#clip910)" d="M192.639 449.511 L210.996 449.511 L210.996 453.446 L196.922 453.446 L196.922 461.918 Q197.94 461.571 198.959 461.409 Q199.977 461.224 200.996 461.224 Q206.783 461.224 210.162 464.395 Q213.542 467.567 213.542 472.983 Q213.542 478.562 210.07 481.664 Q206.598 484.742 200.278 484.742 Q198.102 484.742 195.834 484.372 Q193.588 484.002 191.181 483.261 L191.181 478.562 Q193.264 479.696 195.487 480.252 Q197.709 480.807 200.186 480.807 Q204.19 480.807 206.528 478.701 Q208.866 476.594 208.866 472.983 Q208.866 469.372 206.528 467.266 Q204.19 465.159 200.186 465.159 Q198.311 465.159 196.436 465.576 Q194.584 465.993 192.639 466.872 L192.639 449.511 Z" fill="#000000" fill-rule="nonzero" fill-opacity="1" /><path clip-path="url(#clip910)" d="M117.015 173.601 L124.654 173.601 L124.654 147.236 L116.343 148.902 L116.343 144.643 L124.607 142.976 L129.283 142.976 L129.283 173.601 L136.922 173.601 L136.922 177.536 L117.015 177.536 L117.015 173.601 Z" fill="#000000" fill-rule="nonzero" fill-opacity="1" /><path clip-path="url(#clip910)" d="M146.366 171.657 L151.251 171.657 L151.251 177.536 L146.366 177.536 L146.366 171.657 Z" fill="#000000" fill-rule="nonzero" fill-opacity="1" /><path clip-path="url(#clip910)" d="M171.436 146.055 Q167.825 146.055 165.996 149.62 Q164.19 153.161 164.19 160.291 Q164.19 167.397 165.996 170.962 Q167.825 174.504 171.436 174.504 Q175.07 174.504 176.876 170.962 Q178.704 167.397 178.704 160.291 Q178.704 153.161 176.876 149.62 Q175.07 146.055 171.436 146.055 M171.436 142.351 Q177.246 142.351 180.301 146.958 Q183.38 151.541 183.38 160.291 Q183.38 169.018 180.301 173.624 Q177.246 178.208 171.436 178.208 Q165.626 178.208 162.547 173.624 Q159.491 169.018 159.491 160.291 Q159.491 151.541 162.547 146.958 Q165.626 142.351 171.436 142.351 Z" fill="#000000" fill-rule="nonzero" fill-opacity="1" /><path clip-path="url(#clip910)" d="M201.598 146.055 Q197.987 146.055 196.158 149.62 Q194.352 153.161 194.352 160.291 Q194.352 167.397 196.158 170.962 Q197.987 174.504 201.598 174.504 Q205.232 174.504 207.037 170.962 Q208.866 167.397 208.866 160.291 Q208.866 153.161 207.037 149.62 Q205.232 146.055 201.598 146.055 M201.598 142.351 Q207.408 142.351 210.463 146.958 Q213.542 151.541 213.542 160.291 Q213.542 169.018 210.463 173.624 Q207.408 178.208 201.598 178.208 Q195.787 178.208 192.709 173.624 Q189.653 169.018 189.653 160.291 Q189.653 151.541 192.709 146.958 Q195.787 142.351 201.598 142.351 Z" fill="#000000" fill-rule="nonzero" fill-opacity="1" /><path clip-path="url(#clip910)" d="M41.7242 815.053 Q42.4244 812.984 44.7161 811.043 Q47.0077 809.069 51.0181 807.096 L64.0042 800.571 L64.0042 807.478 L51.8138 813.557 Q47.0395 815.913 45.48 818.141 Q43.9204 820.337 43.9204 824.156 L43.9204 831.158 L64.0042 831.158 L64.0042 837.588 L16.4842 837.588 L16.4842 823.074 Q16.4842 814.926 19.8898 810.915 Q23.2955 806.905 30.1704 806.905 Q34.6582 806.905 37.6183 809.006 Q40.5784 811.075 41.7242 815.053 M21.7677 831.158 L38.6368 831.158 L38.6368 823.074 Q38.6368 818.427 36.5043 816.072 Q34.34 813.685 30.1704 813.685 Q26.0009 813.685 23.9002 816.072 Q21.7677 818.427 21.7677 823.074 L21.7677 831.158 Z" fill="#000000" fill-rule="nonzero" fill-opacity="1" /><path clip-path="url(#clip910)" d="M28.3562 792.55 L28.3562 786.694 L64.0042 786.694 L64.0042 792.55 L28.3562 792.55 M14.479 792.55 L14.479 786.694 L21.895 786.694 L21.895 792.55 L14.479 792.55 Z" fill="#000000" fill-rule="nonzero" fill-opacity="1" /><path clip-path="url(#clip910)" d="M29.4065 751.714 L34.9447 751.714 Q33.6716 754.197 33.035 756.871 Q32.3984 759.544 32.3984 762.409 Q32.3984 766.769 33.7352 768.965 Q35.072 771.13 37.7456 771.13 Q39.7826 771.13 40.9603 769.57 Q42.1061 768.011 43.1565 763.3 L43.6021 761.295 Q44.9389 755.056 47.3897 752.446 Q49.8086 749.805 54.1691 749.805 Q59.1344 749.805 62.0308 753.751 Q64.9272 757.666 64.9272 764.541 Q64.9272 767.406 64.3543 770.525 Q63.8132 773.612 62.6992 777.05 L56.6518 777.05 Q58.3387 773.803 59.198 770.652 Q60.0256 767.501 60.0256 764.414 Q60.0256 760.276 58.6251 758.048 Q57.1929 755.82 54.6147 755.82 Q52.2276 755.82 50.9545 757.444 Q49.6813 759.035 48.5037 764.478 L48.0262 766.515 Q46.8804 771.957 44.5251 774.376 Q42.138 776.795 38.0002 776.795 Q32.9713 776.795 30.2341 773.23 Q27.4968 769.666 27.4968 763.109 Q27.4968 759.863 27.9743 756.998 Q28.4517 754.133 29.4065 751.714 Z" fill="#000000" fill-rule="nonzero" fill-opacity="1" /><path clip-path="url(#clip910)" d="M14.479 740.702 L14.479 734.813 L43.7294 734.813 L28.3562 717.34 L28.3562 709.86 L45.0344 728.766 L64.0042 709.064 L64.0042 716.703 L46.5939 734.813 L64.0042 734.813 L64.0042 740.702 L14.479 740.702 Z" fill="#000000" fill-rule="nonzero" fill-opacity="1" /><path clip-path="url(#clip910)" d="M905.173 12.096 L913.437 12.096 L926.157 63.2184 L938.836 12.096 L948.032 12.096 L960.751 63.2184 L973.431 12.096 L981.735 12.096 L966.544 72.576 L956.255 72.576 L943.495 20.0763 L930.613 72.576 L920.323 72.576 L905.173 12.096 Z" fill="#000000" fill-rule="nonzero" fill-opacity="1" /><path clip-path="url(#clip910)" d="M1026.21 48.0275 L1026.21 51.6733 L991.943 51.6733 Q992.43 59.3701 996.561 63.421 Q1000.73 67.4314 1008.15 67.4314 Q1012.44 67.4314 1016.45 66.3781 Q1020.5 65.3249 1024.47 63.2184 L1024.47 70.267 Q1020.46 71.9684 1016.25 72.8596 Q1012.04 73.7508 1007.7 73.7508 Q996.845 73.7508 990.485 67.4314 Q984.166 61.1119 984.166 50.3365 Q984.166 39.1965 990.161 32.6746 Q996.197 26.1121 1006.41 26.1121 Q1015.56 26.1121 1020.87 32.0264 Q1026.21 37.9003 1026.21 48.0275 M1018.76 45.84 Q1018.68 39.7232 1015.32 36.0774 Q1012 32.4315 1006.49 32.4315 Q1000.25 32.4315 996.48 35.9558 Q992.754 39.4801 992.187 45.8805 L1018.76 45.84 Z" fill="#000000" fill-rule="nonzero" fill-opacity="1" /><path clip-path="url(#clip910)" d="M1038.45 27.2059 L1045.9 27.2059 L1045.9 72.576 L1038.45 72.576 L1038.45 27.2059 M1038.45 9.54393 L1045.9 9.54393 L1045.9 18.9825 L1038.45 18.9825 L1038.45 9.54393 Z" fill="#000000" fill-rule="nonzero" fill-opacity="1" /><path clip-path="url(#clip910)" d="M1094.07 49.9314 Q1094.07 41.7081 1090.66 37.0496 Q1087.3 32.3505 1081.39 32.3505 Q1075.47 32.3505 1072.07 37.0496 Q1068.71 41.7081 1068.71 49.9314 Q1068.71 58.1548 1072.07 62.8538 Q1075.47 67.5124 1081.39 67.5124 Q1087.3 67.5124 1090.66 62.8538 Q1094.07 58.1548 1094.07 49.9314 M1068.71 34.0924 Q1071.06 30.0415 1074.62 28.0971 Q1078.23 26.1121 1083.21 26.1121 Q1091.47 26.1121 1096.62 32.6746 Q1101.8 39.2371 1101.8 49.9314 Q1101.8 60.6258 1096.62 67.1883 Q1091.47 73.7508 1083.21 73.7508 Q1078.23 73.7508 1074.62 71.8063 Q1071.06 69.8214 1068.71 65.7705 L1068.71 72.576 L1061.21 72.576 L1061.21 9.54393 L1068.71 9.54393 L1068.71 34.0924 Z" fill="#000000" fill-rule="nonzero" fill-opacity="1" /><path clip-path="url(#clip910)" d="M1113.39 54.671 L1113.39 27.2059 L1120.84 27.2059 L1120.84 54.3874 Q1120.84 60.8284 1123.35 64.0691 Q1125.87 67.2693 1130.89 67.2693 Q1136.93 67.2693 1140.41 63.421 Q1143.93 59.5726 1143.93 52.9291 L1143.93 27.2059 L1151.39 27.2059 L1151.39 72.576 L1143.93 72.576 L1143.93 65.6084 Q1141.22 69.7404 1137.61 71.7658 Q1134.05 73.7508 1129.31 73.7508 Q1121.49 73.7508 1117.44 68.8897 Q1113.39 64.0286 1113.39 54.671 M1132.15 26.1121 L1132.15 26.1121 Z" fill="#000000" fill-rule="nonzero" fill-opacity="1" /><path clip-path="url(#clip910)" d="M1166.74 9.54393 L1174.19 9.54393 L1174.19 72.576 L1166.74 72.576 L1166.74 9.54393 Z" fill="#000000" fill-rule="nonzero" fill-opacity="1" /><path clip-path="url(#clip910)" d="M1189.79 9.54393 L1197.24 9.54393 L1197.24 72.576 L1189.79 72.576 L1189.79 9.54393 Z" fill="#000000" fill-rule="nonzero" fill-opacity="1" /><path clip-path="url(#clip910)" d="M1269.07 34.0924 L1269.07 9.54393 L1276.52 9.54393 L1276.52 72.576 L1269.07 72.576 L1269.07 65.7705 Q1266.72 69.8214 1263.11 71.8063 Q1259.55 73.7508 1254.52 73.7508 Q1246.3 73.7508 1241.11 67.1883 Q1235.97 60.6258 1235.97 49.9314 Q1235.97 39.2371 1241.11 32.6746 Q1246.3 26.1121 1254.52 26.1121 Q1259.55 26.1121 1263.11 28.0971 Q1266.72 30.0415 1269.07 34.0924 M1243.67 49.9314 Q1243.67 58.1548 1247.03 62.8538 Q1250.43 67.5124 1256.35 67.5124 Q1262.26 67.5124 1265.66 62.8538 Q1269.07 58.1548 1269.07 49.9314 Q1269.07 41.7081 1265.66 37.0496 Q1262.26 32.3505 1256.35 32.3505 Q1250.43 32.3505 1247.03 37.0496 Q1243.67 41.7081 1243.67 49.9314 Z" fill="#000000" fill-rule="nonzero" fill-opacity="1" /><path clip-path="url(#clip910)" d="M1291.87 27.2059 L1299.33 27.2059 L1299.33 72.576 L1291.87 72.576 L1291.87 27.2059 M1291.87 9.54393 L1299.33 9.54393 L1299.33 18.9825 L1291.87 18.9825 L1291.87 9.54393 Z" fill="#000000" fill-rule="nonzero" fill-opacity="1" /><path clip-path="url(#clip910)" d="M1343.85 28.5427 L1343.85 35.5912 Q1340.69 33.9709 1337.28 33.1607 Q1333.88 32.3505 1330.23 32.3505 Q1324.68 32.3505 1321.89 34.0519 Q1319.13 35.7533 1319.13 39.156 Q1319.13 41.7486 1321.12 43.2475 Q1323.1 44.7058 1329.1 46.0426 L1331.65 46.6097 Q1339.59 48.3111 1342.91 51.4303 Q1346.28 54.509 1346.28 60.0587 Q1346.28 66.3781 1341.25 70.0644 Q1336.27 73.7508 1327.52 73.7508 Q1323.87 73.7508 1319.9 73.0216 Q1315.98 72.3329 1311.6 70.9151 L1311.6 63.2184 Q1315.73 65.3654 1319.74 66.4591 Q1323.75 67.5124 1327.68 67.5124 Q1332.95 67.5124 1335.78 65.73 Q1338.62 63.9071 1338.62 60.6258 Q1338.62 57.5877 1336.55 55.9673 Q1334.53 54.3469 1327.6 52.8481 L1325.01 52.2405 Q1318.08 50.7821 1315 47.7845 Q1311.92 44.7463 1311.92 39.4801 Q1311.92 33.0797 1316.46 29.5959 Q1321 26.1121 1329.34 26.1121 Q1333.48 26.1121 1337.12 26.7198 Q1340.77 27.3274 1343.85 28.5427 Z" fill="#000000" fill-rule="nonzero" fill-opacity="1" /><path clip-path="url(#clip910)" d="M1365.52 14.324 L1365.52 27.2059 L1380.87 27.2059 L1380.87 32.9987 L1365.52 32.9987 L1365.52 57.6282 Q1365.52 63.1779 1367.02 64.7578 Q1368.56 66.3376 1373.21 66.3376 L1380.87 66.3376 L1380.87 72.576 L1373.21 72.576 Q1364.59 72.576 1361.3 69.3758 Q1358.02 66.1351 1358.02 57.6282 L1358.02 32.9987 L1352.55 32.9987 L1352.55 27.2059 L1358.02 27.2059 L1358.02 14.324 L1365.52 14.324 Z" fill="#000000" fill-rule="nonzero" fill-opacity="1" /><path clip-path="url(#clip910)" d="M1416.96 34.1734 Q1415.71 33.4443 1414.21 33.1202 Q1412.75 32.7556 1410.97 32.7556 Q1404.65 32.7556 1401.25 36.8875 Q1397.88 40.9789 1397.88 48.6757 L1397.88 72.576 L1390.39 72.576 L1390.39 27.2059 L1397.88 27.2059 L1397.88 34.2544 Q1400.23 30.1225 1404 28.1376 Q1407.77 26.1121 1413.16 26.1121 Q1413.93 26.1121 1414.86 26.2337 Q1415.79 26.3147 1416.92 26.5172 L1416.96 34.1734 Z" fill="#000000" fill-rule="nonzero" fill-opacity="1" /><path clip-path="url(#clip910)" d="M1424.78 27.2059 L1432.24 27.2059 L1432.24 72.576 L1424.78 72.576 L1424.78 27.2059 M1424.78 9.54393 L1432.24 9.54393 L1432.24 18.9825 L1424.78 18.9825 L1424.78 9.54393 Z" fill="#000000" fill-rule="nonzero" fill-opacity="1" /><path clip-path="url(#clip910)" d="M1480.4 49.9314 Q1480.4 41.7081 1477 37.0496 Q1473.64 32.3505 1467.72 32.3505 Q1461.81 32.3505 1458.41 37.0496 Q1455.04 41.7081 1455.04 49.9314 Q1455.04 58.1548 1458.41 62.8538 Q1461.81 67.5124 1467.72 67.5124 Q1473.64 67.5124 1477 62.8538 Q1480.4 58.1548 1480.4 49.9314 M1455.04 34.0924 Q1457.39 30.0415 1460.96 28.0971 Q1464.56 26.1121 1469.55 26.1121 Q1477.81 26.1121 1482.95 32.6746 Q1488.14 39.2371 1488.14 49.9314 Q1488.14 60.6258 1482.95 67.1883 Q1477.81 73.7508 1469.55 73.7508 Q1464.56 73.7508 1460.96 71.8063 Q1457.39 69.8214 1455.04 65.7705 L1455.04 72.576 L1447.55 72.576 L1447.55 9.54393 L1455.04 9.54393 L1455.04 34.0924 Z" fill="#000000" fill-rule="nonzero" fill-opacity="1" /><path clip-path="url(#clip910)" d="M1499.72 54.671 L1499.72 27.2059 L1507.18 27.2059 L1507.18 54.3874 Q1507.18 60.8284 1509.69 64.0691 Q1512.2 67.2693 1517.22 67.2693 Q1523.26 67.2693 1526.74 63.421 Q1530.27 59.5726 1530.27 52.9291 L1530.27 27.2059 L1537.72 27.2059 L1537.72 72.576 L1530.27 72.576 L1530.27 65.6084 Q1527.55 69.7404 1523.95 71.7658 Q1520.38 73.7508 1515.64 73.7508 Q1507.83 73.7508 1503.78 68.8897 Q1499.72 64.0286 1499.72 54.671 M1518.48 26.1121 L1518.48 26.1121 Z" fill="#000000" fill-rule="nonzero" fill-opacity="1" /><path clip-path="url(#clip910)" d="M1560.45 14.324 L1560.45 27.2059 L1575.8 27.2059 L1575.8 32.9987 L1560.45 32.9987 L1560.45 57.6282 Q1560.45 63.1779 1561.95 64.7578 Q1563.49 66.3376 1568.14 66.3376 L1575.8 66.3376 L1575.8 72.576 L1568.14 72.576 Q1559.52 72.576 1556.23 69.3758 Q1552.95 66.1351 1552.95 57.6282 L1552.95 32.9987 L1547.48 32.9987 L1547.48 27.2059 L1552.95 27.2059 L1552.95 14.324 L1560.45 14.324 Z" fill="#000000" fill-rule="nonzero" fill-opacity="1" /><path clip-path="url(#clip910)" d="M1585.6 27.2059 L1593.06 27.2059 L1593.06 72.576 L1585.6 72.576 L1585.6 27.2059 M1585.6 9.54393 L1593.06 9.54393 L1593.06 18.9825 L1585.6 18.9825 L1585.6 9.54393 Z" fill="#000000" fill-rule="nonzero" fill-opacity="1" /><path clip-path="url(#clip910)" d="M1626.23 32.4315 Q1620.24 32.4315 1616.75 37.1306 Q1613.27 41.7891 1613.27 49.9314 Q1613.27 58.0738 1616.71 62.7728 Q1620.2 67.4314 1626.23 67.4314 Q1632.19 67.4314 1635.67 62.7323 Q1639.16 58.0333 1639.16 49.9314 Q1639.16 41.8701 1635.67 37.1711 Q1632.19 32.4315 1626.23 32.4315 M1626.23 26.1121 Q1635.96 26.1121 1641.51 32.4315 Q1647.06 38.7509 1647.06 49.9314 Q1647.06 61.0714 1641.51 67.4314 Q1635.96 73.7508 1626.23 73.7508 Q1616.47 73.7508 1610.92 67.4314 Q1605.41 61.0714 1605.41 49.9314 Q1605.41 38.7509 1610.92 32.4315 Q1616.47 26.1121 1626.23 26.1121 Z" fill="#000000" fill-rule="nonzero" fill-opacity="1" /><path clip-path="url(#clip910)" d="M1697.12 45.1919 L1697.12 72.576 L1689.67 72.576 L1689.67 45.4349 Q1689.67 38.994 1687.16 35.7938 Q1684.65 32.5936 1679.62 32.5936 Q1673.59 32.5936 1670.11 36.4419 Q1666.62 40.2903 1666.62 46.9338 L1666.62 72.576 L1659.13 72.576 L1659.13 27.2059 L1666.62 27.2059 L1666.62 34.2544 Q1669.3 30.163 1672.9 28.1376 Q1676.55 26.1121 1681.29 26.1121 Q1689.1 26.1121 1693.11 30.9732 Q1697.12 35.7938 1697.12 45.1919 Z" fill="#000000" fill-rule="nonzero" fill-opacity="1" /><polyline clip-path="url(#clip912)" style="stroke:#000000; stroke-linecap:round; stroke-linejoin:round; stroke-width:4; stroke-opacity:1; fill:none" points="309.067,1386.4 329.109,1382.12 349.151,1376.24 369.193,1369.59 389.235,1362.38 409.277,1354.76 429.319,1346.79 449.361,1338.54 469.403,1330.04 489.446,1321.34 509.488,1312.47 529.53,1303.43 549.572,1294.27 569.614,1284.98 589.656,1275.59 609.698,1266.12 629.74,1256.56 649.782,1246.94 669.824,1237.27 689.866,1227.55 709.908,1217.78 729.95,1207.99 749.992,1198.17 770.034,1188.33 790.076,1178.48 810.118,1168.62 830.161,1158.76 850.203,1148.9 870.245,1139.05 890.287,1129.21 910.329,1119.38 930.371,1109.57 950.413,1099.79 970.455,1090.03 990.497,1080.3 1010.54,1070.6 1030.58,1060.93 1050.62,1051.3 1070.67,1041.71 1090.71,1032.16 1110.75,1022.65 1130.79,1013.19 1150.83,1003.77 1170.88,994.402 1190.92,985.084 1210.96,975.819 1231,966.607 1251.04,957.449 1271.09,948.347 1291.13,939.303 1311.17,930.317 1331.21,921.39 1351.25,912.523 1371.3,903.718 1391.34,894.975 1411.38,886.295 1431.42,877.678 1451.46,869.126 1471.51,860.639 1491.55,852.217 1511.59,843.861 1531.63,835.572 1551.67,827.351 1571.72,819.196 1591.76,811.11 1611.8,803.091 1631.84,795.141 1651.89,787.26 1671.93,779.447 1691.97,771.704 1712.01,764.03 1732.05,756.425 1752.1,748.89 1772.14,741.424 1792.18,734.027 1812.22,726.701 1832.26,719.443 1852.31,712.256 1872.35,705.137 1892.39,698.088 1912.43,691.109 1932.47,684.198 1952.52,677.357 1972.56,670.584 1992.6,663.88 2012.64,657.244 2032.68,650.677 2052.73,644.178 2072.77,637.746 2092.81,631.382 2112.85,625.085 2132.89,618.856 2152.94,612.692 2172.98,606.596 2193.02,600.565 2213.06,594.6 2233.1,588.701 2253.15,582.866 2273.19,577.096 2293.23,571.391 "/>
<polyline clip-path="url(#clip912)" style="stroke:#ff0000; stroke-linecap:round; stroke-linejoin:round; stroke-width:4; stroke-opacity:1; fill:none" points="309.067,1386.4 315.703,1356.43 322.339,1316.3 328.975,1272.24 335.611,1226.18 342.247,1179.21 348.883,1132.05 355.519,1085.2 362.155,1039.02 368.791,993.785 375.427,949.699 382.063,906.914 388.699,865.542 395.335,825.662 401.971,787.326 408.607,750.567 415.243,715.397 421.879,681.817 428.515,649.815 435.151,619.37 441.787,590.451 448.423,563.023 455.059,537.047 461.695,512.477 468.331,489.266 474.967,467.365 481.603,446.724 488.239,427.29 494.875,409.012 501.511,391.837 508.147,375.714 514.783,360.593 521.419,346.423 528.055,333.156 534.691,320.744 541.327,309.141 547.963,298.302 554.599,288.185 561.235,278.749 567.871,269.952 574.507,261.759 581.143,254.131 587.779,247.036 594.415,240.439 601.051,234.309 607.687,228.617 614.323,223.334 620.959,218.434 627.595,213.891 634.231,209.683 640.867,205.785 647.503,202.177 654.139,198.84 660.775,195.754 667.411,192.902 674.047,190.268 680.683,187.835 687.319,185.59 693.955,183.519 700.591,181.61 707.227,179.85 713.863,178.229 720.499,176.736 727.135,175.361 733.771,174.097 740.407,172.934 747.043,171.865 753.679,170.882 760.315,169.98 766.951,169.151 773.587,168.39 780.223,167.692 786.859,167.051 793.495,166.464 800.131,165.926 806.767,165.433 813.403,164.981 820.039,164.568 826.675,164.189 833.311,163.843 839.947,163.526 846.583,163.236 853.219,162.972 859.855,162.73 866.491,162.509 873.127,162.307 879.763,162.122 886.399,161.954 893.035,161.801 899.671,161.661 906.307,161.533 912.943,161.417 919.579,161.311 926.215,161.214 932.851,161.126 939.487,161.046 946.123,160.973 952.759,160.907 959.395,160.847 966.031,160.792 972.667,160.742 979.303,160.696 985.939,160.655 992.575,160.618 999.211,160.584 1005.85,160.553 1012.48,160.525 1019.12,160.499 1025.75,160.476 1032.39,160.455 1039.03,160.436 1045.66,160.419 1052.3,160.404 1058.93,160.39 1065.57,160.377 1072.21,160.365 1078.84,160.355 1085.48,160.345 1092.11,160.336 1098.75,160.329 1105.39,160.322 1112.02,160.315 1118.66,160.31 1125.29,160.304 1131.93,160.3 1138.57,160.295 1145.2,160.291 1151.84,160.288 1158.47,160.285 1165.11,160.282 1171.75,160.28 1178.38,160.277 1185.02,160.275 1191.65,160.273 1198.29,160.272 1204.93,160.27 1211.56,160.269 1218.2,160.267 1224.83,160.266 1231.47,160.265 1238.11,160.264 1244.74,160.264 1251.38,160.263 1258.01,160.262 1264.65,160.262 1271.29,160.261 1277.92,160.261 1284.56,160.26 1291.19,160.26 1297.83,160.259 1304.47,160.259 1311.1,160.259 1317.74,160.259 1324.37,160.258 1331.01,160.258 1337.65,160.258 1344.28,160.258 1350.92,160.258 1357.55,160.257 1364.19,160.257 1370.83,160.257 1377.46,160.257 1384.1,160.257 1390.73,160.257 1397.37,160.257 1404.01,160.257 1410.64,160.257 1417.28,160.257 1423.91,160.257 1430.55,160.257 1437.19,160.257 1443.82,160.257 1450.46,160.257 1457.09,160.257 1463.73,160.257 1470.37,160.256 1477,160.256 1483.64,160.256 1490.27,160.256 1496.91,160.256 1503.55,160.256 1510.18,160.256 1516.82,160.256 1523.45,160.256 1530.09,160.256 1536.73,160.256 1543.36,160.256 1550,160.256 1556.63,160.256 1563.27,160.256 1569.91,160.256 1576.54,160.256 1583.18,160.256 1589.81,160.256 1596.45,160.256 1603.09,160.256 1609.72,160.256 1616.36,160.256 1622.99,160.256 1629.63,160.256 1636.27,160.256 1642.9,160.256 1649.54,160.256 1656.17,160.256 1662.81,160.256 1669.45,160.256 1676.08,160.256 1682.72,160.256 1689.35,160.256 1695.99,160.256 1702.63,160.256 1709.26,160.256 1715.9,160.256 1722.53,160.256 1729.17,160.256 1735.81,160.256 1742.44,160.256 1749.08,160.256 1755.71,160.256 1762.35,160.256 1768.99,160.256 1775.62,160.256 1782.26,160.256 1788.89,160.256 1795.53,160.256 1802.17,160.256 1808.8,160.256 1815.44,160.256 1822.07,160.256 1828.71,160.256 1835.35,160.256 1841.98,160.256 1848.62,160.256 1855.25,160.256 1861.89,160.256 1868.53,160.256 1875.16,160.256 1881.8,160.256 1888.43,160.256 1895.07,160.256 1901.71,160.256 1908.34,160.256 1914.98,160.256 1921.61,160.256 1928.25,160.256 1934.89,160.256 1941.52,160.256 1948.16,160.256 1954.79,160.256 1961.43,160.256 1968.07,160.256 1974.7,160.256 1981.34,160.256 1987.97,160.256 1994.61,160.256 2001.25,160.256 2007.88,160.256 2014.52,160.256 2021.15,160.256 2027.79,160.256 2034.43,160.256 2041.06,160.256 2047.7,160.256 2054.33,160.256 2060.97,160.256 2067.61,160.256 2074.24,160.256 2080.88,160.256 2087.51,160.256 2094.15,160.256 2100.79,160.256 2107.42,160.256 2114.06,160.256 2120.69,160.256 2127.33,160.256 2133.97,160.256 2140.6,160.256 2147.24,160.256 2153.87,160.256 2160.51,160.256 2167.15,160.256 2173.78,160.256 2180.42,160.256 2187.05,160.256 2193.69,160.256 2200.33,160.256 2206.96,160.256 2213.6,160.256 2220.23,160.256 2226.87,160.256 2233.51,160.256 2240.14,160.256 2246.78,160.256 2253.41,160.256 2260.05,160.256 2266.69,160.256 2273.32,160.256 2279.96,160.256 2286.59,160.256 2293.23,160.256 "/>
<path clip-path="url(#clip910)" d="M1649.2 1379.86 L2282.65 1379.86 L2282.65 1224.34 L1649.2 1224.34  Z" fill="#ffffff" fill-rule="evenodd" fill-opacity="1"/>
<polyline clip-path="url(#clip910)" style="stroke:#000000; stroke-linecap:round; stroke-linejoin:round; stroke-width:4; stroke-opacity:1; fill:none" points="1649.2,1379.86 2282.65,1379.86 2282.65,1224.34 1649.2,1224.34 1649.2,1379.86 "/>
<polyline clip-path="url(#clip910)" style="stroke:#000000; stroke-linecap:round; stroke-linejoin:round; stroke-width:4; stroke-opacity:1; fill:none" points="1672.57,1276.18 1812.79,1276.18 "/>
<path clip-path="url(#clip910)" d="M1837.73 1258.9 L1842.75 1258.9 L1851.34 1271.74 L1859.98 1258.9 L1865 1258.9 L1853.89 1275.49 L1865.74 1293.46 L1860.72 1293.46 L1850.99 1278.76 L1841.2 1293.46 L1836.16 1293.46 L1848.49 1275.01 L1837.73 1258.9 Z" fill="#000000" fill-rule="nonzero" fill-opacity="1" /><path clip-path="url(#clip910)" d="M1872.24 1271.93 L1901.92 1271.93 L1901.92 1275.82 L1872.24 1275.82 L1872.24 1271.93 M1872.24 1281.37 L1901.92 1281.37 L1901.92 1285.31 L1872.24 1285.31 L1872.24 1281.37 Z" fill="#000000" fill-rule="nonzero" fill-opacity="1" /><path clip-path="url(#clip910)" d="M1922.01 1261.97 Q1918.4 1261.97 1916.57 1265.54 Q1914.77 1269.08 1914.77 1276.21 Q1914.77 1283.32 1916.57 1286.88 Q1918.4 1290.42 1922.01 1290.42 Q1925.65 1290.42 1927.45 1286.88 Q1929.28 1283.32 1929.28 1276.21 Q1929.28 1269.08 1927.45 1265.54 Q1925.65 1261.97 1922.01 1261.97 M1922.01 1258.27 Q1927.82 1258.27 1930.88 1262.88 Q1933.96 1267.46 1933.96 1276.21 Q1933.96 1284.94 1930.88 1289.54 Q1927.82 1294.13 1922.01 1294.13 Q1916.2 1294.13 1913.12 1289.54 Q1910.07 1284.94 1910.07 1276.21 Q1910.07 1267.46 1913.12 1262.88 Q1916.2 1258.27 1922.01 1258.27 Z" fill="#000000" fill-rule="nonzero" fill-opacity="1" /><path clip-path="url(#clip910)" d="M1942.66 1287.58 L1947.55 1287.58 L1947.55 1291.56 L1943.75 1298.97 L1940.76 1298.97 L1942.66 1291.56 L1942.66 1287.58 Z" fill="#000000" fill-rule="nonzero" fill-opacity="1" /><path clip-path="url(#clip910)" d="M1969.91 1258.9 L1997.06 1258.9 L1997.06 1262.46 L1975.21 1289.52 L1997.59 1289.52 L1997.59 1293.46 L1969.37 1293.46 L1969.37 1289.89 L1991.23 1262.83 L1969.91 1262.83 L1969.91 1258.9 Z" fill="#000000" fill-rule="nonzero" fill-opacity="1" /><path clip-path="url(#clip910)" d="M2005.6 1289.52 L2013.24 1289.52 L2013.24 1263.16 L2004.93 1264.82 L2004.93 1260.56 L2013.19 1258.9 L2017.87 1258.9 L2017.87 1289.52 L2025.51 1289.52 L2025.51 1293.46 L2005.6 1293.46 L2005.6 1289.52 Z" fill="#000000" fill-rule="nonzero" fill-opacity="1" /><path clip-path="url(#clip910)" d="M2034.91 1271.93 L2064.58 1271.93 L2064.58 1275.82 L2034.91 1275.82 L2034.91 1271.93 M2034.91 1281.37 L2064.58 1281.37 L2064.58 1285.31 L2034.91 1285.31 L2034.91 1281.37 Z" fill="#000000" fill-rule="nonzero" fill-opacity="1" /><path clip-path="url(#clip910)" d="M2084.67 1261.97 Q2081.06 1261.97 2079.23 1265.54 Q2077.43 1269.08 2077.43 1276.21 Q2077.43 1283.32 2079.23 1286.88 Q2081.06 1290.42 2084.67 1290.42 Q2088.31 1290.42 2090.11 1286.88 Q2091.94 1283.32 2091.94 1276.21 Q2091.94 1269.08 2090.11 1265.54 Q2088.31 1261.97 2084.67 1261.97 M2084.67 1258.27 Q2090.48 1258.27 2093.54 1262.88 Q2096.62 1267.46 2096.62 1276.21 Q2096.62 1284.94 2093.54 1289.54 Q2090.48 1294.13 2084.67 1294.13 Q2078.86 1294.13 2075.79 1289.54 Q2072.73 1284.94 2072.73 1276.21 Q2072.73 1267.46 2075.79 1262.88 Q2078.86 1258.27 2084.67 1258.27 Z" fill="#000000" fill-rule="nonzero" fill-opacity="1" /><path clip-path="url(#clip910)" d="M2105.32 1287.58 L2110.21 1287.58 L2110.21 1291.56 L2106.41 1298.97 L2103.42 1298.97 L2105.32 1291.56 L2105.32 1287.58 Z" fill="#000000" fill-rule="nonzero" fill-opacity="1" /><path clip-path="url(#clip910)" d="M2132.57 1258.9 L2159.72 1258.9 L2159.72 1262.46 L2137.87 1289.52 L2160.25 1289.52 L2160.25 1293.46 L2132.04 1293.46 L2132.04 1289.89 L2153.89 1262.83 L2132.57 1262.83 L2132.57 1258.9 Z" fill="#000000" fill-rule="nonzero" fill-opacity="1" /><path clip-path="url(#clip910)" d="M2171.48 1289.52 L2187.8 1289.52 L2187.8 1293.46 L2165.85 1293.46 L2165.85 1289.52 Q2168.52 1286.77 2173.1 1282.14 Q2177.71 1277.48 2178.89 1276.14 Q2181.13 1273.62 2182.01 1271.88 Q2182.91 1270.12 2182.91 1268.43 Q2182.91 1265.68 2180.97 1263.94 Q2179.05 1262.21 2175.95 1262.21 Q2173.75 1262.21 2171.29 1262.97 Q2168.86 1263.73 2166.09 1265.29 L2166.09 1260.56 Q2168.91 1259.43 2171.36 1258.85 Q2173.82 1258.27 2175.85 1258.27 Q2181.22 1258.27 2184.42 1260.96 Q2187.61 1263.64 2187.61 1268.13 Q2187.61 1270.26 2186.8 1272.18 Q2186.02 1274.08 2183.91 1276.67 Q2183.33 1277.35 2180.23 1280.56 Q2177.13 1283.76 2171.48 1289.52 Z" fill="#000000" fill-rule="nonzero" fill-opacity="1" /><path clip-path="url(#clip910)" d="M2197.57 1271.93 L2227.24 1271.93 L2227.24 1275.82 L2197.57 1275.82 L2197.57 1271.93 M2197.57 1281.37 L2227.24 1281.37 L2227.24 1285.31 L2197.57 1285.31 L2197.57 1281.37 Z" fill="#000000" fill-rule="nonzero" fill-opacity="1" /><path clip-path="url(#clip910)" d="M2247.34 1261.97 Q2243.72 1261.97 2241.9 1265.54 Q2240.09 1269.08 2240.09 1276.21 Q2240.09 1283.32 2241.9 1286.88 Q2243.72 1290.42 2247.34 1290.42 Q2250.97 1290.42 2252.78 1286.88 Q2254.6 1283.32 2254.6 1276.21 Q2254.6 1269.08 2252.78 1265.54 Q2250.97 1261.97 2247.34 1261.97 M2247.34 1258.27 Q2253.15 1258.27 2256.2 1262.88 Q2259.28 1267.46 2259.28 1276.21 Q2259.28 1284.94 2256.2 1289.54 Q2253.15 1294.13 2247.34 1294.13 Q2241.53 1294.13 2238.45 1289.54 Q2235.39 1284.94 2235.39 1276.21 Q2235.39 1267.46 2238.45 1262.88 Q2241.53 1258.27 2247.34 1258.27 Z" fill="#000000" fill-rule="nonzero" fill-opacity="1" /><polyline clip-path="url(#clip910)" style="stroke:#ff0000; stroke-linecap:round; stroke-linejoin:round; stroke-width:4; stroke-opacity:1; fill:none" points="1672.57,1328.02 1812.79,1328.02 "/>
<path clip-path="url(#clip910)" d="M1837.73 1310.74 L1842.75 1310.74 L1851.34 1323.58 L1859.98 1310.74 L1865 1310.74 L1853.89 1327.33 L1865.74 1345.3 L1860.72 1345.3 L1850.99 1330.6 L1841.2 1345.3 L1836.16 1345.3 L1848.49 1326.85 L1837.73 1310.74 Z" fill="#000000" fill-rule="nonzero" fill-opacity="1" /><path clip-path="url(#clip910)" d="M1872.24 1323.77 L1901.92 1323.77 L1901.92 1327.66 L1872.24 1327.66 L1872.24 1323.77 M1872.24 1333.21 L1901.92 1333.21 L1901.92 1337.15 L1872.24 1337.15 L1872.24 1333.21 Z" fill="#000000" fill-rule="nonzero" fill-opacity="1" /><path clip-path="url(#clip910)" d="M1912.82 1341.36 L1920.46 1341.36 L1920.46 1315 L1912.15 1316.66 L1912.15 1312.4 L1920.42 1310.74 L1925.09 1310.74 L1925.09 1341.36 L1932.73 1341.36 L1932.73 1345.3 L1912.82 1345.3 L1912.82 1341.36 Z" fill="#000000" fill-rule="nonzero" fill-opacity="1" /><path clip-path="url(#clip910)" d="M1942.66 1339.42 L1947.55 1339.42 L1947.55 1343.4 L1943.75 1350.81 L1940.76 1350.81 L1942.66 1343.4 L1942.66 1339.42 Z" fill="#000000" fill-rule="nonzero" fill-opacity="1" /><path clip-path="url(#clip910)" d="M1969.91 1310.74 L1997.06 1310.74 L1997.06 1314.3 L1975.21 1341.36 L1997.59 1341.36 L1997.59 1345.3 L1969.37 1345.3 L1969.37 1341.73 L1991.23 1314.67 L1969.91 1314.67 L1969.91 1310.74 Z" fill="#000000" fill-rule="nonzero" fill-opacity="1" /><path clip-path="url(#clip910)" d="M2005.6 1341.36 L2013.24 1341.36 L2013.24 1315 L2004.93 1316.66 L2004.93 1312.4 L2013.19 1310.74 L2017.87 1310.74 L2017.87 1341.36 L2025.51 1341.36 L2025.51 1345.3 L2005.6 1345.3 L2005.6 1341.36 Z" fill="#000000" fill-rule="nonzero" fill-opacity="1" /><path clip-path="url(#clip910)" d="M2034.91 1323.77 L2064.58 1323.77 L2064.58 1327.66 L2034.91 1327.66 L2034.91 1323.77 M2034.91 1333.21 L2064.58 1333.21 L2064.58 1337.15 L2034.91 1337.15 L2034.91 1333.21 Z" fill="#000000" fill-rule="nonzero" fill-opacity="1" /><path clip-path="url(#clip910)" d="M2075.48 1341.36 L2083.12 1341.36 L2083.12 1315 L2074.81 1316.66 L2074.81 1312.4 L2083.08 1310.74 L2087.75 1310.74 L2087.75 1341.36 L2095.39 1341.36 L2095.39 1345.3 L2075.48 1345.3 L2075.48 1341.36 Z" fill="#000000" fill-rule="nonzero" fill-opacity="1" /><path clip-path="url(#clip910)" d="M2105.32 1339.42 L2110.21 1339.42 L2110.21 1343.4 L2106.41 1350.81 L2103.42 1350.81 L2105.32 1343.4 L2105.32 1339.42 Z" fill="#000000" fill-rule="nonzero" fill-opacity="1" /><path clip-path="url(#clip910)" d="M2132.57 1310.74 L2159.72 1310.74 L2159.72 1314.3 L2137.87 1341.36 L2160.25 1341.36 L2160.25 1345.3 L2132.04 1345.3 L2132.04 1341.73 L2153.89 1314.67 L2132.57 1314.67 L2132.57 1310.74 Z" fill="#000000" fill-rule="nonzero" fill-opacity="1" /><path clip-path="url(#clip910)" d="M2171.48 1341.36 L2187.8 1341.36 L2187.8 1345.3 L2165.85 1345.3 L2165.85 1341.36 Q2168.52 1338.61 2173.1 1333.98 Q2177.71 1329.32 2178.89 1327.98 Q2181.13 1325.46 2182.01 1323.72 Q2182.91 1321.96 2182.91 1320.27 Q2182.91 1317.52 2180.97 1315.78 Q2179.05 1314.05 2175.95 1314.05 Q2173.75 1314.05 2171.29 1314.81 Q2168.86 1315.57 2166.09 1317.13 L2166.09 1312.4 Q2168.91 1311.27 2171.36 1310.69 Q2173.82 1310.11 2175.85 1310.11 Q2181.22 1310.11 2184.42 1312.8 Q2187.61 1315.48 2187.61 1319.97 Q2187.61 1322.1 2186.8 1324.02 Q2186.02 1325.92 2183.91 1328.51 Q2183.33 1329.19 2180.23 1332.4 Q2177.13 1335.6 2171.48 1341.36 Z" fill="#000000" fill-rule="nonzero" fill-opacity="1" /><path clip-path="url(#clip910)" d="M2197.57 1323.77 L2227.24 1323.77 L2227.24 1327.66 L2197.57 1327.66 L2197.57 1323.77 M2197.57 1333.21 L2227.24 1333.21 L2227.24 1337.15 L2197.57 1337.15 L2197.57 1333.21 Z" fill="#000000" fill-rule="nonzero" fill-opacity="1" /><path clip-path="url(#clip910)" d="M2238.15 1341.36 L2245.78 1341.36 L2245.78 1315 L2237.47 1316.66 L2237.47 1312.4 L2245.74 1310.74 L2250.41 1310.74 L2250.41 1341.36 L2258.05 1341.36 L2258.05 1345.3 L2238.15 1345.3 L2238.15 1341.36 Z" fill="#000000" fill-rule="nonzero" fill-opacity="1" /></svg>
