<?xml version="1.0" encoding="utf-8"?>
<svg xmlns="http://www.w3.org/2000/svg" xmlns:xlink="http://www.w3.org/1999/xlink" width="600" height="400" viewBox="0 0 2400 1600">
<defs>
  <clipPath id="clip470">
    <rect x="0" y="0" width="2400" height="1600"/>
  </clipPath>
</defs>
<path clip-path="url(#clip470)" d="M0 1600 L2400 1600 L2400 0 L0 0  Z" fill="#ffffff" fill-rule="evenodd" fill-opacity="1"/>
<defs>
  <clipPath id="clip471">
    <rect x="480" y="0" width="1681" height="1600"/>
  </clipPath>
</defs>
<path clip-path="url(#clip470)" d="M256.209 1423.18 L2352.76 1423.18 L2352.76 47.2441 L256.209 47.2441  Z" fill="#ffffff" fill-rule="evenodd" fill-opacity="1"/>
<defs>
  <clipPath id="clip472">
    <rect x="256" y="47" width="2098" height="1377"/>
  </clipPath>
</defs>
<polyline clip-path="url(#clip472)" style="stroke:#000000; stroke-linecap:round; stroke-linejoin:round; stroke-width:2; stroke-opacity:0.1; fill:none" points="458.787,1423.18 458.787,47.2441 "/>
<polyline clip-path="url(#clip472)" style="stroke:#000000; stroke-linecap:round; stroke-linejoin:round; stroke-width:2; stroke-opacity:0.1; fill:none" points="851.024,1423.18 851.024,47.2441 "/>
<polyline clip-path="url(#clip472)" style="stroke:#000000; stroke-linecap:round; stroke-linejoin:round; stroke-width:2; stroke-opacity:0.1; fill:none" points="1243.26,1423.18 1243.26,47.2441 "/>
<polyline clip-path="url(#clip472)" style="stroke:#000000; stroke-linecap:round; stroke-linejoin:round; stroke-width:2; stroke-opacity:0.1; fill:none" points="1635.5,1423.18 1635.5,47.2441 "/>
<polyline clip-path="url(#clip472)" style="stroke:#000000; stroke-linecap:round; stroke-linejoin:round; stroke-width:2; stroke-opacity:0.1; fill:none" points="2027.73,1423.18 2027.73,47.2441 "/>
<polyline clip-path="url(#clip470)" style="stroke:#000000; stroke-linecap:round; stroke-linejoin:round; stroke-width:4; stroke-opacity:1; fill:none" points="256.209,1423.18 2352.76,1423.18 "/>
<polyline clip-path="url(#clip470)" style="stroke:#000000; stroke-linecap:round; stroke-linejoin:round; stroke-width:4; stroke-opacity:1; fill:none" points="458.787,1423.18 458.787,1404.28 "/>
<polyline clip-path="url(#clip470)" style="stroke:#000000; stroke-linecap:round; stroke-linejoin:round; stroke-width:4; stroke-opacity:1; fill:none" points="851.024,1423.18 851.024,1404.28 "/>
<polyline clip-path="url(#clip470)" style="stroke:#000000; stroke-linecap:round; stroke-linejoin:round; stroke-width:4; stroke-opacity:1; fill:none" points="1243.26,1423.18 1243.26,1404.28 "/>
<polyline clip-path="url(#clip470)" style="stroke:#000000; stroke-linecap:round; stroke-linejoin:round; stroke-width:4; stroke-opacity:1; fill:none" points="1635.5,1423.18 1635.5,1404.28 "/>
<polyline clip-path="url(#clip470)" style="stroke:#000000; stroke-linecap:round; stroke-linejoin:round; stroke-width:4; stroke-opacity:1; fill:none" points="2027.73,1423.18 2027.73,1404.28 "/>
<path clip-path="url(#clip470)" d="M421.889 1454.1 Q418.278 1454.1 416.45 1457.66 Q414.644 1461.2 414.644 1468.33 Q414.644 1475.44 416.45 1479.01 Q418.278 1482.55 421.889 1482.55 Q425.524 1482.55 427.329 1479.01 Q429.158 1475.44 429.158 1468.33 Q429.158 1461.2 427.329 1457.66 Q425.524 1454.1 421.889 1454.1 M421.889 1450.39 Q427.7 1450.39 430.755 1455 Q433.834 1459.58 433.834 1468.33 Q433.834 1477.06 430.755 1481.67 Q427.7 1486.25 421.889 1486.25 Q416.079 1486.25 413.001 1481.67 Q409.945 1477.06 409.945 1468.33 Q409.945 1459.58 413.001 1455 Q416.079 1450.39 421.889 1450.39 Z" fill="#000000" fill-rule="nonzero" fill-opacity="1" /><path clip-path="url(#clip470)" d="M442.051 1479.7 L446.936 1479.7 L446.936 1485.58 L442.051 1485.58 L442.051 1479.7 Z" fill="#000000" fill-rule="nonzero" fill-opacity="1" /><path clip-path="url(#clip470)" d="M467.121 1454.1 Q463.51 1454.1 461.681 1457.66 Q459.875 1461.2 459.875 1468.33 Q459.875 1475.44 461.681 1479.01 Q463.51 1482.55 467.121 1482.55 Q470.755 1482.55 472.56 1479.01 Q474.389 1475.44 474.389 1468.33 Q474.389 1461.2 472.56 1457.66 Q470.755 1454.1 467.121 1454.1 M467.121 1450.39 Q472.931 1450.39 475.986 1455 Q479.065 1459.58 479.065 1468.33 Q479.065 1477.06 475.986 1481.67 Q472.931 1486.25 467.121 1486.25 Q461.311 1486.25 458.232 1481.67 Q455.176 1477.06 455.176 1468.33 Q455.176 1459.58 458.232 1455 Q461.311 1450.39 467.121 1450.39 Z" fill="#000000" fill-rule="nonzero" fill-opacity="1" /><path clip-path="url(#clip470)" d="M491.31 1481.64 L507.63 1481.64 L507.63 1485.58 L485.685 1485.58 L485.685 1481.64 Q488.347 1478.89 492.931 1474.26 Q497.537 1469.61 498.718 1468.27 Q500.963 1465.74 501.843 1464.01 Q502.745 1462.25 502.745 1460.56 Q502.745 1457.8 500.801 1456.07 Q498.88 1454.33 495.778 1454.33 Q493.579 1454.33 491.125 1455.09 Q488.695 1455.86 485.917 1457.41 L485.917 1452.69 Q488.741 1451.55 491.195 1450.97 Q493.648 1450.39 495.685 1450.39 Q501.056 1450.39 504.25 1453.08 Q507.445 1455.77 507.445 1460.26 Q507.445 1462.39 506.634 1464.31 Q505.847 1466.2 503.741 1468.8 Q503.162 1469.47 500.06 1472.69 Q496.958 1475.88 491.31 1481.64 Z" fill="#000000" fill-rule="nonzero" fill-opacity="1" /><path clip-path="url(#clip470)" d="M813.084 1454.1 Q809.473 1454.1 807.644 1457.66 Q805.839 1461.2 805.839 1468.33 Q805.839 1475.44 807.644 1479.01 Q809.473 1482.55 813.084 1482.55 Q816.718 1482.55 818.524 1479.01 Q820.353 1475.44 820.353 1468.33 Q820.353 1461.2 818.524 1457.66 Q816.718 1454.1 813.084 1454.1 M813.084 1450.39 Q818.894 1450.39 821.95 1455 Q825.028 1459.58 825.028 1468.33 Q825.028 1477.06 821.95 1481.67 Q818.894 1486.25 813.084 1486.25 Q807.274 1486.25 804.195 1481.67 Q801.14 1477.06 801.14 1468.33 Q801.14 1459.58 804.195 1455 Q807.274 1450.39 813.084 1450.39 Z" fill="#000000" fill-rule="nonzero" fill-opacity="1" /><path clip-path="url(#clip470)" d="M833.246 1479.7 L838.13 1479.7 L838.13 1485.58 L833.246 1485.58 L833.246 1479.7 Z" fill="#000000" fill-rule="nonzero" fill-opacity="1" /><path clip-path="url(#clip470)" d="M858.315 1454.1 Q854.704 1454.1 852.875 1457.66 Q851.07 1461.2 851.07 1468.33 Q851.07 1475.44 852.875 1479.01 Q854.704 1482.55 858.315 1482.55 Q861.95 1482.55 863.755 1479.01 Q865.584 1475.44 865.584 1468.33 Q865.584 1461.2 863.755 1457.66 Q861.95 1454.1 858.315 1454.1 M858.315 1450.39 Q864.125 1450.39 867.181 1455 Q870.26 1459.58 870.26 1468.33 Q870.26 1477.06 867.181 1481.67 Q864.125 1486.25 858.315 1486.25 Q852.505 1486.25 849.426 1481.67 Q846.371 1477.06 846.371 1468.33 Q846.371 1459.58 849.426 1455 Q852.505 1450.39 858.315 1450.39 Z" fill="#000000" fill-rule="nonzero" fill-opacity="1" /><path clip-path="url(#clip470)" d="M891.324 1455.09 L879.519 1473.54 L891.324 1473.54 L891.324 1455.09 M890.098 1451.02 L895.977 1451.02 L895.977 1473.54 L900.908 1473.54 L900.908 1477.43 L895.977 1477.43 L895.977 1485.58 L891.324 1485.58 L891.324 1477.43 L875.723 1477.43 L875.723 1472.92 L890.098 1451.02 Z" fill="#000000" fill-rule="nonzero" fill-opacity="1" /><path clip-path="url(#clip470)" d="M1205.48 1454.1 Q1201.87 1454.1 1200.04 1457.66 Q1198.24 1461.2 1198.24 1468.33 Q1198.24 1475.44 1200.04 1479.01 Q1201.87 1482.55 1205.48 1482.55 Q1209.12 1482.55 1210.92 1479.01 Q1212.75 1475.44 1212.75 1468.33 Q1212.75 1461.2 1210.92 1457.66 Q1209.12 1454.1 1205.48 1454.1 M1205.48 1450.39 Q1211.29 1450.39 1214.35 1455 Q1217.43 1459.58 1217.43 1468.33 Q1217.43 1477.06 1214.35 1481.67 Q1211.29 1486.25 1205.48 1486.25 Q1199.67 1486.25 1196.59 1481.67 Q1193.54 1477.06 1193.54 1468.33 Q1193.54 1459.58 1196.59 1455 Q1199.67 1450.39 1205.48 1450.39 Z" fill="#000000" fill-rule="nonzero" fill-opacity="1" /><path clip-path="url(#clip470)" d="M1225.64 1479.7 L1230.53 1479.7 L1230.53 1485.58 L1225.64 1485.58 L1225.64 1479.7 Z" fill="#000000" fill-rule="nonzero" fill-opacity="1" /><path clip-path="url(#clip470)" d="M1250.71 1454.1 Q1247.1 1454.1 1245.27 1457.66 Q1243.47 1461.2 1243.47 1468.33 Q1243.47 1475.44 1245.27 1479.01 Q1247.1 1482.55 1250.71 1482.55 Q1254.35 1482.55 1256.15 1479.01 Q1257.98 1475.44 1257.98 1468.33 Q1257.98 1461.2 1256.15 1457.66 Q1254.35 1454.1 1250.71 1454.1 M1250.71 1450.39 Q1256.52 1450.39 1259.58 1455 Q1262.66 1459.58 1262.66 1468.33 Q1262.66 1477.06 1259.58 1481.67 Q1256.52 1486.25 1250.71 1486.25 Q1244.9 1486.25 1241.82 1481.67 Q1238.77 1477.06 1238.77 1468.33 Q1238.77 1459.58 1241.82 1455 Q1244.9 1450.39 1250.71 1450.39 Z" fill="#000000" fill-rule="nonzero" fill-opacity="1" /><path clip-path="url(#clip470)" d="M1281.45 1466.44 Q1278.31 1466.44 1276.45 1468.59 Q1274.63 1470.74 1274.63 1474.49 Q1274.63 1478.22 1276.45 1480.39 Q1278.31 1482.55 1281.45 1482.55 Q1284.6 1482.55 1286.43 1480.39 Q1288.28 1478.22 1288.28 1474.49 Q1288.28 1470.74 1286.43 1468.59 Q1284.6 1466.44 1281.45 1466.44 M1290.74 1451.78 L1290.74 1456.04 Q1288.98 1455.21 1287.17 1454.77 Q1285.39 1454.33 1283.63 1454.33 Q1279 1454.33 1276.55 1457.45 Q1274.12 1460.58 1273.77 1466.9 Q1275.13 1464.89 1277.19 1463.82 Q1279.26 1462.73 1281.73 1462.73 Q1286.94 1462.73 1289.95 1465.9 Q1292.98 1469.05 1292.98 1474.49 Q1292.98 1479.82 1289.83 1483.03 Q1286.69 1486.25 1281.45 1486.25 Q1275.46 1486.25 1272.29 1481.67 Q1269.12 1477.06 1269.12 1468.33 Q1269.12 1460.14 1273.01 1455.28 Q1276.89 1450.39 1283.44 1450.39 Q1285.2 1450.39 1286.99 1450.74 Q1288.79 1451.09 1290.74 1451.78 Z" fill="#000000" fill-rule="nonzero" fill-opacity="1" /><path clip-path="url(#clip470)" d="M1597.85 1454.1 Q1594.23 1454.1 1592.41 1457.66 Q1590.6 1461.2 1590.6 1468.33 Q1590.6 1475.44 1592.41 1479.01 Q1594.23 1482.55 1597.85 1482.55 Q1601.48 1482.55 1603.29 1479.01 Q1605.11 1475.44 1605.11 1468.33 Q1605.11 1461.2 1603.29 1457.66 Q1601.48 1454.1 1597.85 1454.1 M1597.85 1450.39 Q1603.66 1450.39 1606.71 1455 Q1609.79 1459.58 1609.79 1468.33 Q1609.79 1477.06 1606.71 1481.67 Q1603.66 1486.25 1597.85 1486.25 Q1592.04 1486.25 1588.96 1481.67 Q1585.9 1477.06 1585.9 1468.33 Q1585.9 1459.58 1588.96 1455 Q1592.04 1450.39 1597.85 1450.39 Z" fill="#000000" fill-rule="nonzero" fill-opacity="1" /><path clip-path="url(#clip470)" d="M1618.01 1479.7 L1622.89 1479.7 L1622.89 1485.58 L1618.01 1485.58 L1618.01 1479.7 Z" fill="#000000" fill-rule="nonzero" fill-opacity="1" /><path clip-path="url(#clip470)" d="M1643.08 1454.1 Q1639.47 1454.1 1637.64 1457.66 Q1635.83 1461.2 1635.83 1468.33 Q1635.83 1475.44 1637.64 1479.01 Q1639.47 1482.55 1643.08 1482.55 Q1646.71 1482.55 1648.52 1479.01 Q1650.35 1475.44 1650.35 1468.33 Q1650.35 1461.2 1648.52 1457.66 Q1646.71 1454.1 1643.08 1454.1 M1643.08 1450.39 Q1648.89 1450.39 1651.94 1455 Q1655.02 1459.58 1655.02 1468.33 Q1655.02 1477.06 1651.94 1481.67 Q1648.89 1486.25 1643.08 1486.25 Q1637.27 1486.25 1634.19 1481.67 Q1631.13 1477.06 1631.13 1468.33 Q1631.13 1459.58 1634.19 1455 Q1637.27 1450.39 1643.08 1450.39 Z" fill="#000000" fill-rule="nonzero" fill-opacity="1" /><path clip-path="url(#clip470)" d="M1673.24 1469.17 Q1669.91 1469.17 1667.98 1470.95 Q1666.09 1472.73 1666.09 1475.86 Q1666.09 1478.98 1667.98 1480.77 Q1669.91 1482.55 1673.24 1482.55 Q1676.57 1482.55 1678.49 1480.77 Q1680.41 1478.96 1680.41 1475.86 Q1680.41 1472.73 1678.49 1470.95 Q1676.6 1469.17 1673.24 1469.17 M1668.56 1467.18 Q1665.55 1466.44 1663.86 1464.38 Q1662.2 1462.32 1662.2 1459.35 Q1662.2 1455.21 1665.14 1452.8 Q1668.1 1450.39 1673.24 1450.39 Q1678.4 1450.39 1681.34 1452.8 Q1684.28 1455.21 1684.28 1459.35 Q1684.28 1462.32 1682.59 1464.38 Q1680.92 1466.44 1677.94 1467.18 Q1681.32 1467.96 1683.19 1470.26 Q1685.09 1472.55 1685.09 1475.86 Q1685.09 1480.88 1682.01 1483.57 Q1678.96 1486.25 1673.24 1486.25 Q1667.52 1486.25 1664.44 1483.57 Q1661.39 1480.88 1661.39 1475.86 Q1661.39 1472.55 1663.29 1470.26 Q1665.18 1467.96 1668.56 1467.18 M1666.85 1459.79 Q1666.85 1462.48 1668.52 1463.98 Q1670.21 1465.49 1673.24 1465.49 Q1676.25 1465.49 1677.94 1463.98 Q1679.65 1462.48 1679.65 1459.79 Q1679.65 1457.11 1677.94 1455.6 Q1676.25 1454.1 1673.24 1454.1 Q1670.21 1454.1 1668.52 1455.6 Q1666.85 1457.11 1666.85 1459.79 Z" fill="#000000" fill-rule="nonzero" fill-opacity="1" /><path clip-path="url(#clip470)" d="M1990.04 1454.1 Q1986.42 1454.1 1984.6 1457.66 Q1982.79 1461.2 1982.79 1468.33 Q1982.79 1475.44 1984.6 1479.01 Q1986.42 1482.55 1990.04 1482.55 Q1993.67 1482.55 1995.48 1479.01 Q1997.3 1475.44 1997.3 1468.33 Q1997.3 1461.2 1995.48 1457.66 Q1993.67 1454.1 1990.04 1454.1 M1990.04 1450.39 Q1995.85 1450.39 1998.9 1455 Q2001.98 1459.58 2001.98 1468.33 Q2001.98 1477.06 1998.9 1481.67 Q1995.85 1486.25 1990.04 1486.25 Q1984.23 1486.25 1981.15 1481.67 Q1978.09 1477.06 1978.09 1468.33 Q1978.09 1459.58 1981.15 1455 Q1984.23 1450.39 1990.04 1450.39 Z" fill="#000000" fill-rule="nonzero" fill-opacity="1" /><path clip-path="url(#clip470)" d="M2010.2 1479.7 L2015.08 1479.7 L2015.08 1485.58 L2010.2 1485.58 L2010.2 1479.7 Z" fill="#000000" fill-rule="nonzero" fill-opacity="1" /><path clip-path="url(#clip470)" d="M2026.08 1481.64 L2033.72 1481.64 L2033.72 1455.28 L2025.41 1456.95 L2025.41 1452.69 L2033.67 1451.02 L2038.35 1451.02 L2038.35 1481.64 L2045.98 1481.64 L2045.98 1485.58 L2026.08 1485.58 L2026.08 1481.64 Z" fill="#000000" fill-rule="nonzero" fill-opacity="1" /><path clip-path="url(#clip470)" d="M2065.43 1454.1 Q2061.82 1454.1 2059.99 1457.66 Q2058.18 1461.2 2058.18 1468.33 Q2058.18 1475.44 2059.99 1479.01 Q2061.82 1482.55 2065.43 1482.55 Q2069.06 1482.55 2070.87 1479.01 Q2072.7 1475.44 2072.7 1468.33 Q2072.7 1461.2 2070.87 1457.66 Q2069.06 1454.1 2065.43 1454.1 M2065.43 1450.39 Q2071.24 1450.39 2074.29 1455 Q2077.37 1459.58 2077.37 1468.33 Q2077.37 1477.06 2074.29 1481.67 Q2071.24 1486.25 2065.43 1486.25 Q2059.62 1486.25 2056.54 1481.67 Q2053.48 1477.06 2053.48 1468.33 Q2053.48 1459.58 2056.54 1455 Q2059.62 1450.39 2065.43 1450.39 Z" fill="#000000" fill-rule="nonzero" fill-opacity="1" /><path clip-path="url(#clip470)" d="M1226.36 1520.52 L1266.56 1520.52 L1266.56 1525.93 L1249.69 1525.93 L1249.69 1568.04 L1243.23 1568.04 L1243.23 1525.93 L1226.36 1525.93 L1226.36 1520.52 Z" fill="#000000" fill-rule="nonzero" fill-opacity="1" /><path clip-path="url(#clip470)" d="M1270.51 1532.4 L1276.36 1532.4 L1276.36 1568.04 L1270.51 1568.04 L1270.51 1532.4 M1270.51 1518.52 L1276.36 1518.52 L1276.36 1525.93 L1270.51 1525.93 L1270.51 1518.52 Z" fill="#000000" fill-rule="nonzero" fill-opacity="1" /><path clip-path="url(#clip470)" d="M1316.37 1539.24 Q1318.57 1535.29 1321.62 1533.41 Q1324.68 1531.54 1328.82 1531.54 Q1334.39 1531.54 1337.41 1535.45 Q1340.43 1539.33 1340.43 1546.53 L1340.43 1568.04 L1334.54 1568.04 L1334.54 1546.72 Q1334.54 1541.59 1332.73 1539.11 Q1330.92 1536.63 1327.19 1536.63 Q1322.64 1536.63 1320 1539.65 Q1317.36 1542.68 1317.36 1547.9 L1317.36 1568.04 L1311.47 1568.04 L1311.47 1546.72 Q1311.47 1541.56 1309.65 1539.11 Q1307.84 1536.63 1304.05 1536.63 Q1299.56 1536.63 1296.92 1539.68 Q1294.28 1542.71 1294.28 1547.9 L1294.28 1568.04 L1288.39 1568.04 L1288.39 1532.4 L1294.28 1532.4 L1294.28 1537.93 Q1296.29 1534.66 1299.09 1533.1 Q1301.89 1531.54 1305.74 1531.54 Q1309.62 1531.54 1312.33 1533.51 Q1315.07 1535.48 1316.37 1539.24 Z" fill="#000000" fill-rule="nonzero" fill-opacity="1" /><path clip-path="url(#clip470)" d="M1382.61 1548.76 L1382.61 1551.62 L1355.68 1551.62 Q1356.06 1557.67 1359.31 1560.85 Q1362.59 1564 1368.41 1564 Q1371.78 1564 1374.93 1563.17 Q1378.12 1562.35 1381.24 1560.69 L1381.24 1566.23 Q1378.09 1567.57 1374.78 1568.27 Q1371.47 1568.97 1368.06 1568.97 Q1359.53 1568.97 1354.53 1564 Q1349.57 1559.04 1349.57 1550.57 Q1349.57 1541.82 1354.28 1536.69 Q1359.02 1531.54 1367.04 1531.54 Q1374.23 1531.54 1378.4 1536.18 Q1382.61 1540.8 1382.61 1548.76 M1376.75 1547.04 Q1376.69 1542.23 1374.04 1539.37 Q1371.43 1536.5 1367.1 1536.5 Q1362.2 1536.5 1359.24 1539.27 Q1356.32 1542.04 1355.87 1547.07 L1376.75 1547.04 Z" fill="#000000" fill-rule="nonzero" fill-opacity="1" /><polyline clip-path="url(#clip472)" style="stroke:#000000; stroke-linecap:round; stroke-linejoin:round; stroke-width:2; stroke-opacity:0.1; fill:none" points="256.209,1121.56 2352.76,1121.56 "/>
<polyline clip-path="url(#clip472)" style="stroke:#000000; stroke-linecap:round; stroke-linejoin:round; stroke-width:2; stroke-opacity:0.1; fill:none" points="256.209,797.613 2352.76,797.613 "/>
<polyline clip-path="url(#clip472)" style="stroke:#000000; stroke-linecap:round; stroke-linejoin:round; stroke-width:2; stroke-opacity:0.1; fill:none" points="256.209,473.664 2352.76,473.664 "/>
<polyline clip-path="url(#clip472)" style="stroke:#000000; stroke-linecap:round; stroke-linejoin:round; stroke-width:2; stroke-opacity:0.1; fill:none" points="256.209,149.716 2352.76,149.716 "/>
<polyline clip-path="url(#clip470)" style="stroke:#000000; stroke-linecap:round; stroke-linejoin:round; stroke-width:4; stroke-opacity:1; fill:none" points="256.209,1423.18 256.209,47.2441 "/>
<polyline clip-path="url(#clip470)" style="stroke:#000000; stroke-linecap:round; stroke-linejoin:round; stroke-width:4; stroke-opacity:1; fill:none" points="256.209,1121.56 275.106,1121.56 "/>
<polyline clip-path="url(#clip470)" style="stroke:#000000; stroke-linecap:round; stroke-linejoin:round; stroke-width:4; stroke-opacity:1; fill:none" points="256.209,797.613 275.106,797.613 "/>
<polyline clip-path="url(#clip470)" style="stroke:#000000; stroke-linecap:round; stroke-linejoin:round; stroke-width:4; stroke-opacity:1; fill:none" points="256.209,473.664 275.106,473.664 "/>
<polyline clip-path="url(#clip470)" style="stroke:#000000; stroke-linecap:round; stroke-linejoin:round; stroke-width:4; stroke-opacity:1; fill:none" points="256.209,149.716 275.106,149.716 "/>
<path clip-path="url(#clip470)" d="M114.26 1122.01 L143.936 1122.01 L143.936 1125.95 L114.26 1125.95 L114.26 1122.01 Z" fill="#000000" fill-rule="nonzero" fill-opacity="1" /><path clip-path="url(#clip470)" d="M164.028 1107.36 Q160.417 1107.36 158.589 1110.92 Q156.783 1114.47 156.783 1121.6 Q156.783 1128.7 158.589 1132.27 Q160.417 1135.81 164.028 1135.81 Q167.663 1135.81 169.468 1132.27 Q171.297 1128.7 171.297 1121.6 Q171.297 1114.47 169.468 1110.92 Q167.663 1107.36 164.028 1107.36 M164.028 1103.66 Q169.839 1103.66 172.894 1108.26 Q175.973 1112.85 175.973 1121.6 Q175.973 1130.32 172.894 1134.93 Q169.839 1139.51 164.028 1139.51 Q158.218 1139.51 155.14 1134.93 Q152.084 1130.32 152.084 1121.6 Q152.084 1112.85 155.14 1108.26 Q158.218 1103.66 164.028 1103.66 Z" fill="#000000" fill-rule="nonzero" fill-opacity="1" /><path clip-path="url(#clip470)" d="M184.19 1132.96 L189.075 1132.96 L189.075 1138.84 L184.19 1138.84 L184.19 1132.96 Z" fill="#000000" fill-rule="nonzero" fill-opacity="1" /><path clip-path="url(#clip470)" d="M199.306 1104.28 L217.662 1104.28 L217.662 1108.22 L203.588 1108.22 L203.588 1116.69 Q204.607 1116.34 205.625 1116.18 Q206.644 1115.99 207.662 1115.99 Q213.449 1115.99 216.829 1119.17 Q220.209 1122.34 220.209 1127.75 Q220.209 1133.33 216.736 1136.43 Q213.264 1139.51 206.945 1139.51 Q204.769 1139.51 202.5 1139.14 Q200.255 1138.77 197.848 1138.03 L197.848 1133.33 Q199.931 1134.47 202.153 1135.02 Q204.375 1135.58 206.852 1135.58 Q210.857 1135.58 213.195 1133.47 Q215.533 1131.36 215.533 1127.75 Q215.533 1124.14 213.195 1122.04 Q210.857 1119.93 206.852 1119.93 Q204.977 1119.93 203.102 1120.35 Q201.25 1120.76 199.306 1121.64 L199.306 1104.28 Z" fill="#000000" fill-rule="nonzero" fill-opacity="1" /><path clip-path="url(#clip470)" d="M163.033 783.411 Q159.422 783.411 157.593 786.976 Q155.788 790.518 155.788 797.647 Q155.788 804.754 157.593 808.319 Q159.422 811.86 163.033 811.86 Q166.667 811.86 168.473 808.319 Q170.302 804.754 170.302 797.647 Q170.302 790.518 168.473 786.976 Q166.667 783.411 163.033 783.411 M163.033 779.708 Q168.843 779.708 171.899 784.314 Q174.977 788.897 174.977 797.647 Q174.977 806.374 171.899 810.981 Q168.843 815.564 163.033 815.564 Q157.223 815.564 154.144 810.981 Q151.089 806.374 151.089 797.647 Q151.089 788.897 154.144 784.314 Q157.223 779.708 163.033 779.708 Z" fill="#000000" fill-rule="nonzero" fill-opacity="1" /><path clip-path="url(#clip470)" d="M183.195 809.013 L188.079 809.013 L188.079 814.893 L183.195 814.893 L183.195 809.013 Z" fill="#000000" fill-rule="nonzero" fill-opacity="1" /><path clip-path="url(#clip470)" d="M208.264 783.411 Q204.653 783.411 202.824 786.976 Q201.019 790.518 201.019 797.647 Q201.019 804.754 202.824 808.319 Q204.653 811.86 208.264 811.86 Q211.899 811.86 213.704 808.319 Q215.533 804.754 215.533 797.647 Q215.533 790.518 213.704 786.976 Q211.899 783.411 208.264 783.411 M208.264 779.708 Q214.074 779.708 217.13 784.314 Q220.209 788.897 220.209 797.647 Q220.209 806.374 217.13 810.981 Q214.074 815.564 208.264 815.564 Q202.454 815.564 199.375 810.981 Q196.32 806.374 196.32 797.647 Q196.32 788.897 199.375 784.314 Q202.454 779.708 208.264 779.708 Z" fill="#000000" fill-rule="nonzero" fill-opacity="1" /><path clip-path="url(#clip470)" d="M164.028 459.463 Q160.417 459.463 158.589 463.028 Q156.783 466.569 156.783 473.699 Q156.783 480.805 158.589 484.37 Q160.417 487.912 164.028 487.912 Q167.663 487.912 169.468 484.37 Q171.297 480.805 171.297 473.699 Q171.297 466.569 169.468 463.028 Q167.663 459.463 164.028 459.463 M164.028 455.759 Q169.839 455.759 172.894 460.366 Q175.973 464.949 175.973 473.699 Q175.973 482.426 172.894 487.032 Q169.839 491.615 164.028 491.615 Q158.218 491.615 155.14 487.032 Q152.084 482.426 152.084 473.699 Q152.084 464.949 155.14 460.366 Q158.218 455.759 164.028 455.759 Z" fill="#000000" fill-rule="nonzero" fill-opacity="1" /><path clip-path="url(#clip470)" d="M184.19 485.065 L189.075 485.065 L189.075 490.944 L184.19 490.944 L184.19 485.065 Z" fill="#000000" fill-rule="nonzero" fill-opacity="1" /><path clip-path="url(#clip470)" d="M199.306 456.384 L217.662 456.384 L217.662 460.319 L203.588 460.319 L203.588 468.792 Q204.607 468.444 205.625 468.282 Q206.644 468.097 207.662 468.097 Q213.449 468.097 216.829 471.268 Q220.209 474.44 220.209 479.856 Q220.209 485.435 216.736 488.537 Q213.264 491.615 206.945 491.615 Q204.769 491.615 202.5 491.245 Q200.255 490.875 197.848 490.134 L197.848 485.435 Q199.931 486.569 202.153 487.125 Q204.375 487.68 206.852 487.68 Q210.857 487.68 213.195 485.574 Q215.533 483.467 215.533 479.856 Q215.533 476.245 213.195 474.139 Q210.857 472.032 206.852 472.032 Q204.977 472.032 203.102 472.449 Q201.25 472.866 199.306 473.745 L199.306 456.384 Z" fill="#000000" fill-rule="nonzero" fill-opacity="1" /><path clip-path="url(#clip470)" d="M153.843 163.061 L161.482 163.061 L161.482 136.695 L153.172 138.362 L153.172 134.102 L161.436 132.436 L166.112 132.436 L166.112 163.061 L173.751 163.061 L173.751 166.996 L153.843 166.996 L153.843 163.061 Z" fill="#000000" fill-rule="nonzero" fill-opacity="1" /><path clip-path="url(#clip470)" d="M183.195 161.116 L188.079 161.116 L188.079 166.996 L183.195 166.996 L183.195 161.116 Z" fill="#000000" fill-rule="nonzero" fill-opacity="1" /><path clip-path="url(#clip470)" d="M208.264 135.514 Q204.653 135.514 202.824 139.079 Q201.019 142.621 201.019 149.75 Q201.019 156.857 202.824 160.422 Q204.653 163.963 208.264 163.963 Q211.899 163.963 213.704 160.422 Q215.533 156.857 215.533 149.75 Q215.533 142.621 213.704 139.079 Q211.899 135.514 208.264 135.514 M208.264 131.811 Q214.074 131.811 217.13 136.417 Q220.209 141 220.209 149.75 Q220.209 158.477 217.13 163.084 Q214.074 167.667 208.264 167.667 Q202.454 167.667 199.375 163.084 Q196.32 158.477 196.32 149.75 Q196.32 141 199.375 136.417 Q202.454 131.811 208.264 131.811 Z" fill="#000000" fill-rule="nonzero" fill-opacity="1" /><path clip-path="url(#clip470)" d="M18.0438 1020.11 L24.314 1020.11 Q22.5634 1023.77 21.704 1027.02 Q20.8447 1030.26 20.8447 1033.29 Q20.8447 1038.54 22.8817 1041.4 Q24.9187 1044.24 28.6745 1044.24 Q31.8255 1044.24 33.4488 1042.36 Q35.0402 1040.45 36.0269 1035.16 L36.8226 1031.28 Q38.1912 1024.09 41.6605 1020.68 Q45.098 1017.24 50.8908 1017.24 Q57.7976 1017.24 61.3624 1021.89 Q64.9272 1026.51 64.9272 1035.45 Q64.9272 1038.82 64.1633 1042.64 Q63.3994 1046.43 61.9035 1050.51 L55.2831 1050.51 Q57.4793 1046.59 58.5933 1042.83 Q59.7073 1039.08 59.7073 1035.45 Q59.7073 1029.94 57.543 1026.95 Q55.3786 1023.96 51.3682 1023.96 Q47.8671 1023.96 45.8937 1026.12 Q43.9204 1028.26 42.9337 1033.16 L42.1698 1037.07 Q40.7375 1044.27 37.682 1047.48 Q34.6264 1050.7 29.1837 1050.7 Q22.8817 1050.7 19.2532 1046.27 Q15.6248 1041.82 15.6248 1034.02 Q15.6248 1030.68 16.2295 1027.21 Q16.8343 1023.74 18.0438 1020.11 Z" fill="#000000" fill-rule="nonzero" fill-opacity="1" /><path clip-path="url(#clip470)" d="M29.7248 981.819 L35.1993 981.819 Q33.8307 984.302 33.1623 986.817 Q32.4621 989.299 32.4621 991.845 Q32.4621 997.543 36.0905 1000.69 Q39.6872 1003.84 46.212 1003.84 Q52.7369 1003.84 56.3653 1000.69 Q59.9619 997.543 59.9619 991.845 Q59.9619 989.299 59.2935 986.817 Q58.5933 984.302 57.2247 981.819 L62.6355 981.819 Q63.7814 984.27 64.3543 986.912 Q64.9272 989.522 64.9272 992.482 Q64.9272 1000.53 59.8664 1005.28 Q54.8057 1010.02 46.212 1010.02 Q37.491 1010.02 32.4939 1005.25 Q27.4968 1000.44 27.4968 992.1 Q27.4968 989.395 28.0697 986.817 Q28.6108 984.238 29.7248 981.819 Z" fill="#000000" fill-rule="nonzero" fill-opacity="1" /><path clip-path="url(#clip470)" d="M42.4881 942.002 L64.0042 942.002 L64.0042 947.858 L42.679 947.858 Q37.6183 947.858 35.1038 949.832 Q32.5894 951.805 32.5894 955.752 Q32.5894 960.494 35.6131 963.232 Q38.6368 965.969 43.8567 965.969 L64.0042 965.969 L64.0042 971.857 L14.479 971.857 L14.479 965.969 L33.8944 965.969 Q30.6797 963.868 29.0883 961.035 Q27.4968 958.171 27.4968 954.447 Q27.4968 948.304 31.3163 945.153 Q35.1038 942.002 42.4881 942.002 Z" fill="#000000" fill-rule="nonzero" fill-opacity="1" /><path clip-path="url(#clip470)" d="M32.4621 916.507 Q32.4621 921.218 36.1542 923.955 Q39.8145 926.692 46.212 926.692 Q52.6095 926.692 56.3017 923.987 Q59.9619 921.25 59.9619 916.507 Q59.9619 911.828 56.2698 909.091 Q52.5777 906.354 46.212 906.354 Q39.8781 906.354 36.186 909.091 Q32.4621 911.828 32.4621 916.507 M27.4968 916.507 Q27.4968 908.868 32.4621 904.508 Q37.4273 900.147 46.212 900.147 Q54.9649 900.147 59.9619 904.508 Q64.9272 908.868 64.9272 916.507 Q64.9272 924.178 59.9619 928.538 Q54.9649 932.867 46.212 932.867 Q37.4273 932.867 32.4621 928.538 Q27.4968 924.178 27.4968 916.507 Z" fill="#000000" fill-rule="nonzero" fill-opacity="1" /><path clip-path="url(#clip470)" d="M44.7161 859.948 L47.5806 859.948 L47.5806 886.875 Q53.6281 886.493 56.8109 883.246 Q59.9619 879.968 59.9619 874.144 Q59.9619 870.77 59.1344 867.619 Q58.3069 864.436 56.6518 861.317 L62.1899 861.317 Q63.5267 864.468 64.227 867.778 Q64.9272 871.088 64.9272 874.494 Q64.9272 883.024 59.9619 888.021 Q54.9967 892.986 46.5303 892.986 Q37.7774 892.986 32.6531 888.275 Q27.4968 883.533 27.4968 875.512 Q27.4968 868.319 32.1438 864.149 Q36.7589 859.948 44.7161 859.948 M42.9973 865.804 Q38.1912 865.868 35.3266 868.51 Q32.4621 871.12 32.4621 875.448 Q32.4621 880.35 35.2312 883.31 Q38.0002 886.238 43.0292 886.684 L42.9973 865.804 Z" fill="#000000" fill-rule="nonzero" fill-opacity="1" /><path clip-path="url(#clip470)" d="M42.4881 820.703 L64.0042 820.703 L64.0042 826.56 L42.679 826.56 Q37.6183 826.56 35.1038 828.533 Q32.5894 830.507 32.5894 834.453 Q32.5894 839.196 35.6131 841.933 Q38.6368 844.67 43.8567 844.67 L64.0042 844.67 L64.0042 850.559 L28.3562 850.559 L28.3562 844.67 L33.8944 844.67 Q30.6797 842.57 29.0883 839.737 Q27.4968 836.872 27.4968 833.148 Q27.4968 827.005 31.3163 823.854 Q35.1038 820.703 42.4881 820.703 Z" fill="#000000" fill-rule="nonzero" fill-opacity="1" /><path clip-path="url(#clip470)" d="M14.479 790.976 L19.3487 790.976 L19.3487 796.577 Q19.3487 799.728 20.6219 800.97 Q21.895 802.179 25.2052 802.179 L28.3562 802.179 L28.3562 792.535 L32.9077 792.535 L32.9077 802.179 L64.0042 802.179 L64.0042 808.067 L32.9077 808.067 L32.9077 813.669 L28.3562 813.669 L28.3562 808.067 L25.8736 808.067 Q19.9216 808.067 17.2162 805.298 Q14.479 802.529 14.479 796.514 L14.479 790.976 Z" fill="#000000" fill-rule="nonzero" fill-opacity="1" /><path clip-path="url(#clip470)" d="M44.7161 755.582 L47.5806 755.582 L47.5806 782.509 Q53.6281 782.127 56.8109 778.881 Q59.9619 775.602 59.9619 769.778 Q59.9619 766.404 59.1344 763.253 Q58.3069 760.07 56.6518 756.951 L62.1899 756.951 Q63.5267 760.102 64.227 763.412 Q64.9272 766.722 64.9272 770.128 Q64.9272 778.658 59.9619 783.655 Q54.9967 788.62 46.5303 788.62 Q37.7774 788.62 32.6531 783.91 Q27.4968 779.167 27.4968 771.146 Q27.4968 763.953 32.1438 759.784 Q36.7589 755.582 44.7161 755.582 M42.9973 761.439 Q38.1912 761.502 35.3266 764.144 Q32.4621 766.754 32.4621 771.083 Q32.4621 775.984 35.2312 778.944 Q38.0002 781.873 43.0292 782.318 L42.9973 761.439 Z" fill="#000000" fill-rule="nonzero" fill-opacity="1" /><path clip-path="url(#clip470)" d="M14.479 745.97 L14.479 740.114 L64.0042 740.114 L64.0042 745.97 L14.479 745.97 Z" fill="#000000" fill-rule="nonzero" fill-opacity="1" /><path clip-path="url(#clip470)" d="M33.7671 704.402 L14.479 704.402 L14.479 698.545 L64.0042 698.545 L64.0042 704.402 L58.657 704.402 Q61.8398 706.248 63.3994 709.081 Q64.9272 711.882 64.9272 715.828 Q64.9272 722.29 59.771 726.364 Q54.6147 730.406 46.212 730.406 Q37.8093 730.406 32.6531 726.364 Q27.4968 722.29 27.4968 715.828 Q27.4968 711.882 29.0564 709.081 Q30.5842 706.248 33.7671 704.402 M46.212 724.358 Q52.6732 724.358 56.3653 721.717 Q60.0256 719.043 60.0256 714.396 Q60.0256 709.749 56.3653 707.076 Q52.6732 704.402 46.212 704.402 Q39.7508 704.402 36.0905 707.076 Q32.3984 709.749 32.3984 714.396 Q32.3984 719.043 36.0905 721.717 Q39.7508 724.358 46.212 724.358 Z" fill="#000000" fill-rule="nonzero" fill-opacity="1" /><path clip-path="url(#clip470)" d="M33.8307 645.105 Q33.2578 646.092 33.0032 647.27 Q32.7167 648.416 32.7167 649.816 Q32.7167 654.781 35.9632 657.455 Q39.1779 660.097 45.2253 660.097 L64.0042 660.097 L64.0042 665.985 L28.3562 665.985 L28.3562 660.097 L33.8944 660.097 Q30.6479 658.251 29.0883 655.291 Q27.4968 652.33 27.4968 648.097 Q27.4968 647.493 27.5923 646.76 Q27.656 646.028 27.8151 645.137 L33.8307 645.105 Z" fill="#000000" fill-rule="nonzero" fill-opacity="1" /><path clip-path="url(#clip470)" d="M44.7161 609.903 L47.5806 609.903 L47.5806 636.83 Q53.6281 636.448 56.8109 633.202 Q59.9619 629.923 59.9619 624.099 Q59.9619 620.725 59.1344 617.574 Q58.3069 614.391 56.6518 611.272 L62.1899 611.272 Q63.5267 614.423 64.227 617.733 Q64.9272 621.043 64.9272 624.449 Q64.9272 632.979 59.9619 637.976 Q54.9967 642.941 46.5303 642.941 Q37.7774 642.941 32.6531 638.23 Q27.4968 633.488 27.4968 625.467 Q27.4968 618.274 32.1438 614.104 Q36.7589 609.903 44.7161 609.903 M42.9973 615.759 Q38.1912 615.823 35.3266 618.465 Q32.4621 621.075 32.4621 625.404 Q32.4621 630.305 35.2312 633.265 Q38.0002 636.193 43.0292 636.639 L42.9973 615.759 Z" fill="#000000" fill-rule="nonzero" fill-opacity="1" /><path clip-path="url(#clip470)" d="M29.4065 577.565 L34.9447 577.565 Q33.6716 580.048 33.035 582.721 Q32.3984 585.395 32.3984 588.26 Q32.3984 592.62 33.7352 594.816 Q35.072 596.981 37.7456 596.981 Q39.7826 596.981 40.9603 595.421 Q42.1061 593.861 43.1565 589.151 L43.6021 587.146 Q44.9389 580.907 47.3897 578.297 Q49.8086 575.656 54.1691 575.656 Q59.1344 575.656 62.0308 579.602 Q64.9272 583.517 64.9272 590.392 Q64.9272 593.257 64.3543 596.376 Q63.8132 599.463 62.6992 602.901 L56.6518 602.901 Q58.3387 599.654 59.198 596.503 Q60.0256 593.352 60.0256 590.265 Q60.0256 586.127 58.6251 583.899 Q57.1929 581.671 54.6147 581.671 Q52.2276 581.671 50.9545 583.294 Q49.6813 584.886 48.5037 590.328 L48.0262 592.366 Q46.8804 597.808 44.5251 600.227 Q42.138 602.646 38.0002 602.646 Q32.9713 602.646 30.2341 599.081 Q27.4968 595.517 27.4968 588.96 Q27.4968 585.713 27.9743 582.849 Q28.4517 579.984 29.4065 577.565 Z" fill="#000000" fill-rule="nonzero" fill-opacity="1" /><path clip-path="url(#clip470)" d="M28.3562 566.33 L28.3562 560.473 L64.0042 560.473 L64.0042 566.33 L28.3562 566.33 M14.479 566.33 L14.479 560.473 L21.895 560.473 L21.895 566.33 L14.479 566.33 Z" fill="#000000" fill-rule="nonzero" fill-opacity="1" /><path clip-path="url(#clip470)" d="M33.7671 524.762 L14.479 524.762 L14.479 518.905 L64.0042 518.905 L64.0042 524.762 L58.657 524.762 Q61.8398 526.608 63.3994 529.441 Q64.9272 532.241 64.9272 536.188 Q64.9272 542.649 59.771 546.723 Q54.6147 550.766 46.212 550.766 Q37.8093 550.766 32.6531 546.723 Q27.4968 542.649 27.4968 536.188 Q27.4968 532.241 29.0564 529.441 Q30.5842 526.608 33.7671 524.762 M46.212 544.718 Q52.6732 544.718 56.3653 542.076 Q60.0256 539.403 60.0256 534.756 Q60.0256 530.109 56.3653 527.435 Q52.6732 524.762 46.212 524.762 Q39.7508 524.762 36.0905 527.435 Q32.3984 530.109 32.3984 534.756 Q32.3984 539.403 36.0905 542.076 Q39.7508 544.718 46.212 544.718 Z" fill="#000000" fill-rule="nonzero" fill-opacity="1" /><path clip-path="url(#clip470)" d="M49.9359 507.447 L28.3562 507.447 L28.3562 501.591 L49.7131 501.591 Q54.7739 501.591 57.3202 499.617 Q59.8346 497.644 59.8346 493.697 Q59.8346 488.955 56.8109 486.217 Q53.7872 483.448 48.5673 483.448 L28.3562 483.448 L28.3562 477.592 L64.0042 477.592 L64.0042 483.448 L58.5296 483.448 Q61.7762 485.581 63.3676 488.414 Q64.9272 491.214 64.9272 494.938 Q64.9272 501.081 61.1078 504.264 Q57.2883 507.447 49.9359 507.447 M27.4968 492.71 L27.4968 492.71 Z" fill="#000000" fill-rule="nonzero" fill-opacity="1" /><path clip-path="url(#clip470)" d="M46.0847 449.328 Q46.0847 456.426 47.7079 459.163 Q49.3312 461.9 53.2461 461.9 Q56.3653 461.9 58.2114 459.863 Q60.0256 457.794 60.0256 454.262 Q60.0256 449.392 56.5881 446.464 Q53.1188 443.503 47.3897 443.503 L46.0847 443.503 L46.0847 449.328 M43.6657 437.647 L64.0042 437.647 L64.0042 443.503 L58.5933 443.503 Q61.8398 445.509 63.3994 448.501 Q64.9272 451.492 64.9272 455.821 Q64.9272 461.296 61.8716 464.542 Q58.7843 467.757 53.6281 467.757 Q47.6125 467.757 44.5569 463.746 Q41.5014 459.704 41.5014 451.715 L41.5014 443.503 L40.9285 443.503 Q36.8862 443.503 34.6901 446.177 Q32.4621 448.819 32.4621 453.625 Q32.4621 456.68 33.1941 459.577 Q33.9262 462.473 35.3903 465.147 L29.9795 465.147 Q28.7381 461.932 28.1334 458.908 Q27.4968 455.885 27.4968 453.02 Q27.4968 445.286 31.5072 441.466 Q35.5176 437.647 43.6657 437.647 Z" fill="#000000" fill-rule="nonzero" fill-opacity="1" /><path clip-path="url(#clip470)" d="M14.479 425.584 L14.479 419.728 L64.0042 419.728 L64.0042 425.584 L14.479 425.584 Z" fill="#000000" fill-rule="nonzero" fill-opacity="1" /><circle clip-path="url(#clip472)" cx="879.412" cy="1384.24" r="14.4" fill="#000000" fill-rule="evenodd" fill-opacity="0.5" stroke="none"/>
<circle clip-path="url(#clip472)" cx="1391.18" cy="831.314" r="14.4" fill="#000000" fill-rule="evenodd" fill-opacity="0.5" stroke="none"/>
<circle clip-path="url(#clip472)" cx="594.038" cy="800.149" r="14.4" fill="#000000" fill-rule="evenodd" fill-opacity="0.5" stroke="none"/>
<circle clip-path="url(#clip472)" cx="986.423" cy="584.573" r="14.4" fill="#000000" fill-rule="evenodd" fill-opacity="0.5" stroke="none"/>
<circle clip-path="url(#clip472)" cx="1269.62" cy="734.042" r="14.4" fill="#000000" fill-rule="evenodd" fill-opacity="0.5" stroke="none"/>
<circle clip-path="url(#clip472)" cx="861.05" cy="86.1857" r="14.4" fill="#000000" fill-rule="evenodd" fill-opacity="0.5" stroke="none"/>
<circle clip-path="url(#clip472)" cx="2293.42" cy="1316.96" r="14.4" fill="#000000" fill-rule="evenodd" fill-opacity="0.5" stroke="none"/>
<circle clip-path="url(#clip472)" cx="315.545" cy="933.899" r="14.4" fill="#000000" fill-rule="evenodd" fill-opacity="0.5" stroke="none"/>
<circle clip-path="url(#clip472)" cx="2061.43" cy="914.87" r="14.4" fill="#000000" fill-rule="evenodd" fill-opacity="0.5" stroke="none"/>
<circle clip-path="url(#clip472)" cx="977.126" cy="453.602" r="14.4" fill="#000000" fill-rule="evenodd" fill-opacity="0.5" stroke="none"/>
<circle clip-path="url(#clip472)" cx="1453.36" cy="813.996" r="14.4" fill="#000000" fill-rule="evenodd" fill-opacity="0.5" stroke="none"/>
<circle clip-path="url(#clip472)" cx="1534.49" cy="550.419" r="14.4" fill="#000000" fill-rule="evenodd" fill-opacity="0.5" stroke="none"/>
<circle clip-path="url(#clip472)" cx="1149.68" cy="966.785" r="14.4" fill="#000000" fill-rule="evenodd" fill-opacity="0.5" stroke="none"/>
<circle clip-path="url(#clip472)" cx="1932.21" cy="689.15" r="14.4" fill="#000000" fill-rule="evenodd" fill-opacity="0.5" stroke="none"/>
<circle clip-path="url(#clip472)" cx="1511.01" cy="904.005" r="14.4" fill="#000000" fill-rule="evenodd" fill-opacity="0.5" stroke="none"/>
<path clip-path="url(#clip470)" d="M2048.08 196.789 L2282.87 196.789 L2282.87 93.1086 L2048.08 93.1086  Z" fill="#ffffff" fill-rule="evenodd" fill-opacity="1"/>
<polyline clip-path="url(#clip470)" style="stroke:#000000; stroke-linecap:round; stroke-linejoin:round; stroke-width:4; stroke-opacity:1; fill:none" points="2048.08,196.789 2282.87,196.789 2282.87,93.1086 2048.08,93.1086 2048.08,196.789 "/>
<circle clip-path="url(#clip470)" cx="2141.26" cy="144.949" r="23.04" fill="#000000" fill-rule="evenodd" fill-opacity="0.5" stroke="none"/>
<path clip-path="url(#clip470)" d="M2259.09 136.303 L2249.71 148.919 L2259.58 162.229 L2254.55 162.229 L2247.01 152.043 L2239.46 162.229 L2234.44 162.229 L2244.51 148.664 L2235.29 136.303 L2240.32 136.303 L2247.19 145.539 L2254.07 136.303 L2259.09 136.303 Z" fill="#000000" fill-rule="nonzero" fill-opacity="1" /></svg>
