<?xml version="1.0" encoding="utf-8"?>
<svg xmlns="http://www.w3.org/2000/svg" xmlns:xlink="http://www.w3.org/1999/xlink" width="600" height="400" viewBox="0 0 2400 1600">
<defs>
  <clipPath id="clip980">
    <rect x="0" y="0" width="2400" height="1600"/>
  </clipPath>
</defs>
<path clip-path="url(#clip980)" d="M0 1600 L2400 1600 L2400 0 L0 0  Z" fill="#ffffff" fill-rule="evenodd" fill-opacity="1"/>
<defs>
  <clipPath id="clip981">
    <rect x="480" y="0" width="1681" height="1600"/>
  </clipPath>
</defs>
<path clip-path="url(#clip980)" d="M219.866 1423.18 L2352.76 1423.18 L2352.76 47.2441 L219.866 47.2441  Z" fill="#ffffff" fill-rule="evenodd" fill-opacity="1"/>
<defs>
  <clipPath id="clip982">
    <rect x="219" y="47" width="2134" height="1377"/>
  </clipPath>
</defs>
<polyline clip-path="url(#clip980)" style="stroke:#000000; stroke-linecap:round; stroke-linejoin:round; stroke-width:4; stroke-opacity:1; fill:none" points="219.866,1423.18 2352.76,1423.18 "/>
<polyline clip-path="url(#clip980)" style="stroke:#000000; stroke-linecap:round; stroke-linejoin:round; stroke-width:4; stroke-opacity:1; fill:none" points="646.435,1423.18 646.435,1404.28 "/>
<polyline clip-path="url(#clip980)" style="stroke:#000000; stroke-linecap:round; stroke-linejoin:round; stroke-width:4; stroke-opacity:1; fill:none" points="1073.02,1423.18 1073.02,1404.28 "/>
<polyline clip-path="url(#clip980)" style="stroke:#000000; stroke-linecap:round; stroke-linejoin:round; stroke-width:4; stroke-opacity:1; fill:none" points="1499.6,1423.18 1499.6,1404.28 "/>
<polyline clip-path="url(#clip980)" style="stroke:#000000; stroke-linecap:round; stroke-linejoin:round; stroke-width:4; stroke-opacity:1; fill:none" points="1926.18,1423.18 1926.18,1404.28 "/>
<polyline clip-path="url(#clip980)" style="stroke:#000000; stroke-linecap:round; stroke-linejoin:round; stroke-width:4; stroke-opacity:1; fill:none" points="2352.76,1423.18 2352.76,1404.28 "/>
<path clip-path="url(#clip980)" d="M624.618 1454.1 Q621.007 1454.1 619.178 1457.66 Q617.372 1461.2 617.372 1468.33 Q617.372 1475.44 619.178 1479.01 Q621.007 1482.55 624.618 1482.55 Q628.252 1482.55 630.058 1479.01 Q631.886 1475.44 631.886 1468.33 Q631.886 1461.2 630.058 1457.66 Q628.252 1454.1 624.618 1454.1 M624.618 1450.39 Q630.428 1450.39 633.483 1455 Q636.562 1459.58 636.562 1468.33 Q636.562 1477.06 633.483 1481.67 Q630.428 1486.25 624.618 1486.25 Q618.808 1486.25 615.729 1481.67 Q612.673 1477.06 612.673 1468.33 Q612.673 1459.58 615.729 1455 Q618.808 1450.39 624.618 1450.39 Z" fill="#000000" fill-rule="nonzero" fill-opacity="1" /><path clip-path="url(#clip980)" d="M644.78 1479.7 L649.664 1479.7 L649.664 1485.58 L644.78 1485.58 L644.78 1479.7 Z" fill="#000000" fill-rule="nonzero" fill-opacity="1" /><path clip-path="url(#clip980)" d="M663.877 1481.64 L680.196 1481.64 L680.196 1485.58 L658.252 1485.58 L658.252 1481.64 Q660.914 1478.89 665.497 1474.26 Q670.104 1469.61 671.284 1468.27 Q673.53 1465.74 674.409 1464.01 Q675.312 1462.25 675.312 1460.56 Q675.312 1457.8 673.368 1456.07 Q671.446 1454.33 668.344 1454.33 Q666.145 1454.33 663.692 1455.09 Q661.261 1455.86 658.483 1457.41 L658.483 1452.69 Q661.307 1451.55 663.761 1450.97 Q666.215 1450.39 668.252 1450.39 Q673.622 1450.39 676.817 1453.08 Q680.011 1455.77 680.011 1460.26 Q680.011 1462.39 679.201 1464.31 Q678.414 1466.2 676.307 1468.8 Q675.729 1469.47 672.627 1472.69 Q669.525 1475.88 663.877 1481.64 Z" fill="#000000" fill-rule="nonzero" fill-opacity="1" /><path clip-path="url(#clip980)" d="M1050.16 1454.1 Q1046.55 1454.1 1044.72 1457.66 Q1042.91 1461.2 1042.91 1468.33 Q1042.91 1475.44 1044.72 1479.01 Q1046.55 1482.55 1050.16 1482.55 Q1053.79 1482.55 1055.6 1479.01 Q1057.42 1475.44 1057.42 1468.33 Q1057.42 1461.2 1055.6 1457.66 Q1053.79 1454.1 1050.16 1454.1 M1050.16 1450.39 Q1055.97 1450.39 1059.02 1455 Q1062.1 1459.58 1062.1 1468.33 Q1062.1 1477.06 1059.02 1481.67 Q1055.97 1486.25 1050.16 1486.25 Q1044.35 1486.25 1041.27 1481.67 Q1038.21 1477.06 1038.21 1468.33 Q1038.21 1459.58 1041.27 1455 Q1044.35 1450.39 1050.16 1450.39 Z" fill="#000000" fill-rule="nonzero" fill-opacity="1" /><path clip-path="url(#clip980)" d="M1070.32 1479.7 L1075.2 1479.7 L1075.2 1485.58 L1070.32 1485.58 L1070.32 1479.7 Z" fill="#000000" fill-rule="nonzero" fill-opacity="1" /><path clip-path="url(#clip980)" d="M1098.23 1455.09 L1086.43 1473.54 L1098.23 1473.54 L1098.23 1455.09 M1097.01 1451.02 L1102.89 1451.02 L1102.89 1473.54 L1107.82 1473.54 L1107.82 1477.43 L1102.89 1477.43 L1102.89 1485.58 L1098.23 1485.58 L1098.23 1477.43 L1082.63 1477.43 L1082.63 1472.92 L1097.01 1451.02 Z" fill="#000000" fill-rule="nonzero" fill-opacity="1" /><path clip-path="url(#clip980)" d="M1476.9 1454.1 Q1473.29 1454.1 1471.46 1457.66 Q1469.65 1461.2 1469.65 1468.33 Q1469.65 1475.44 1471.46 1479.01 Q1473.29 1482.55 1476.9 1482.55 Q1480.53 1482.55 1482.34 1479.01 Q1484.17 1475.44 1484.17 1468.33 Q1484.17 1461.2 1482.34 1457.66 Q1480.53 1454.1 1476.9 1454.1 M1476.9 1450.39 Q1482.71 1450.39 1485.76 1455 Q1488.84 1459.58 1488.84 1468.33 Q1488.84 1477.06 1485.76 1481.67 Q1482.71 1486.25 1476.9 1486.25 Q1471.09 1486.25 1468.01 1481.67 Q1464.95 1477.06 1464.95 1468.33 Q1464.95 1459.58 1468.01 1455 Q1471.09 1450.39 1476.9 1450.39 Z" fill="#000000" fill-rule="nonzero" fill-opacity="1" /><path clip-path="url(#clip980)" d="M1497.06 1479.7 L1501.94 1479.7 L1501.94 1485.58 L1497.06 1485.58 L1497.06 1479.7 Z" fill="#000000" fill-rule="nonzero" fill-opacity="1" /><path clip-path="url(#clip980)" d="M1522.71 1466.44 Q1519.56 1466.44 1517.71 1468.59 Q1515.88 1470.74 1515.88 1474.49 Q1515.88 1478.22 1517.71 1480.39 Q1519.56 1482.55 1522.71 1482.55 Q1525.86 1482.55 1527.69 1480.39 Q1529.54 1478.22 1529.54 1474.49 Q1529.54 1470.74 1527.69 1468.59 Q1525.86 1466.44 1522.71 1466.44 M1531.99 1451.78 L1531.99 1456.04 Q1530.23 1455.21 1528.43 1454.77 Q1526.64 1454.33 1524.88 1454.33 Q1520.25 1454.33 1517.8 1457.45 Q1515.37 1460.58 1515.02 1466.9 Q1516.39 1464.89 1518.45 1463.82 Q1520.51 1462.73 1522.99 1462.73 Q1528.19 1462.73 1531.2 1465.9 Q1534.24 1469.05 1534.24 1474.49 Q1534.24 1479.82 1531.09 1483.03 Q1527.94 1486.25 1522.71 1486.25 Q1516.71 1486.25 1513.54 1481.67 Q1510.37 1477.06 1510.37 1468.33 Q1510.37 1460.14 1514.26 1455.28 Q1518.15 1450.39 1524.7 1450.39 Q1526.46 1450.39 1528.24 1450.74 Q1530.05 1451.09 1531.99 1451.78 Z" fill="#000000" fill-rule="nonzero" fill-opacity="1" /><path clip-path="url(#clip980)" d="M1903.61 1454.1 Q1900 1454.1 1898.17 1457.66 Q1896.36 1461.2 1896.36 1468.33 Q1896.36 1475.44 1898.17 1479.01 Q1900 1482.55 1903.61 1482.55 Q1907.24 1482.55 1909.05 1479.01 Q1910.87 1475.44 1910.87 1468.33 Q1910.87 1461.2 1909.05 1457.66 Q1907.24 1454.1 1903.61 1454.1 M1903.61 1450.39 Q1909.42 1450.39 1912.47 1455 Q1915.55 1459.58 1915.55 1468.33 Q1915.55 1477.06 1912.47 1481.67 Q1909.42 1486.25 1903.61 1486.25 Q1897.8 1486.25 1894.72 1481.67 Q1891.66 1477.06 1891.66 1468.33 Q1891.66 1459.58 1894.72 1455 Q1897.8 1450.39 1903.61 1450.39 Z" fill="#000000" fill-rule="nonzero" fill-opacity="1" /><path clip-path="url(#clip980)" d="M1923.77 1479.7 L1928.65 1479.7 L1928.65 1485.58 L1923.77 1485.58 L1923.77 1479.7 Z" fill="#000000" fill-rule="nonzero" fill-opacity="1" /><path clip-path="url(#clip980)" d="M1948.84 1469.17 Q1945.5 1469.17 1943.58 1470.95 Q1941.68 1472.73 1941.68 1475.86 Q1941.68 1478.98 1943.58 1480.77 Q1945.5 1482.55 1948.84 1482.55 Q1952.17 1482.55 1954.09 1480.77 Q1956.01 1478.96 1956.01 1475.86 Q1956.01 1472.73 1954.09 1470.95 Q1952.19 1469.17 1948.84 1469.17 M1944.16 1467.18 Q1941.15 1466.44 1939.46 1464.38 Q1937.8 1462.32 1937.8 1459.35 Q1937.8 1455.21 1940.74 1452.8 Q1943.7 1450.39 1948.84 1450.39 Q1954 1450.39 1956.94 1452.8 Q1959.88 1455.21 1959.88 1459.35 Q1959.88 1462.32 1958.19 1464.38 Q1956.52 1466.44 1953.54 1467.18 Q1956.92 1467.96 1958.79 1470.26 Q1960.69 1472.55 1960.69 1475.86 Q1960.69 1480.88 1957.61 1483.57 Q1954.56 1486.25 1948.84 1486.25 Q1943.12 1486.25 1940.04 1483.57 Q1936.99 1480.88 1936.99 1475.86 Q1936.99 1472.55 1938.88 1470.26 Q1940.78 1467.96 1944.16 1467.18 M1942.45 1459.79 Q1942.45 1462.48 1944.12 1463.98 Q1945.81 1465.49 1948.84 1465.49 Q1951.85 1465.49 1953.54 1463.98 Q1955.25 1462.48 1955.25 1459.79 Q1955.25 1457.11 1953.54 1455.6 Q1951.85 1454.1 1948.84 1454.1 Q1945.81 1454.1 1944.12 1455.6 Q1942.45 1457.11 1942.45 1459.79 Z" fill="#000000" fill-rule="nonzero" fill-opacity="1" /><path clip-path="url(#clip980)" d="M2319.91 1481.64 L2327.55 1481.64 L2327.55 1455.28 L2319.24 1456.95 L2319.24 1452.69 L2327.5 1451.02 L2332.18 1451.02 L2332.18 1481.64 L2339.82 1481.64 L2339.82 1485.58 L2319.91 1485.58 L2319.91 1481.64 Z" fill="#000000" fill-rule="nonzero" fill-opacity="1" /><path clip-path="url(#clip980)" d="M2349.26 1479.7 L2354.14 1479.7 L2354.14 1485.58 L2349.26 1485.58 L2349.26 1479.7 Z" fill="#000000" fill-rule="nonzero" fill-opacity="1" /><path clip-path="url(#clip980)" d="M2374.33 1454.1 Q2370.72 1454.1 2368.89 1457.66 Q2367.08 1461.2 2367.08 1468.33 Q2367.08 1475.44 2368.89 1479.01 Q2370.72 1482.55 2374.33 1482.55 Q2377.96 1482.55 2379.77 1479.01 Q2381.6 1475.44 2381.6 1468.33 Q2381.6 1461.2 2379.77 1457.66 Q2377.96 1454.1 2374.33 1454.1 M2374.33 1450.39 Q2380.14 1450.39 2383.2 1455 Q2386.27 1459.58 2386.27 1468.33 Q2386.27 1477.06 2383.2 1481.67 Q2380.14 1486.25 2374.33 1486.25 Q2368.52 1486.25 2365.44 1481.67 Q2362.39 1477.06 2362.39 1468.33 Q2362.39 1459.58 2365.44 1455 Q2368.52 1450.39 2374.33 1450.39 Z" fill="#000000" fill-rule="nonzero" fill-opacity="1" /><path clip-path="url(#clip980)" d="M1208.19 1520.52 L1248.39 1520.52 L1248.39 1525.93 L1231.52 1525.93 L1231.52 1568.04 L1225.06 1568.04 L1225.06 1525.93 L1208.19 1525.93 L1208.19 1520.52 Z" fill="#000000" fill-rule="nonzero" fill-opacity="1" /><path clip-path="url(#clip980)" d="M1252.33 1532.4 L1258.19 1532.4 L1258.19 1568.04 L1252.33 1568.04 L1252.33 1532.4 M1252.33 1518.52 L1258.19 1518.52 L1258.19 1525.93 L1252.33 1525.93 L1252.33 1518.52 Z" fill="#000000" fill-rule="nonzero" fill-opacity="1" /><path clip-path="url(#clip980)" d="M1298.2 1539.24 Q1300.4 1535.29 1303.45 1533.41 Q1306.51 1531.54 1310.64 1531.54 Q1316.21 1531.54 1319.24 1535.45 Q1322.26 1539.33 1322.26 1546.53 L1322.26 1568.04 L1316.37 1568.04 L1316.37 1546.72 Q1316.37 1541.59 1314.56 1539.11 Q1312.74 1536.63 1309.02 1536.63 Q1304.47 1536.63 1301.83 1539.65 Q1299.19 1542.68 1299.19 1547.9 L1299.19 1568.04 L1293.3 1568.04 L1293.3 1546.72 Q1293.3 1541.56 1291.48 1539.11 Q1289.67 1536.63 1285.88 1536.63 Q1281.39 1536.63 1278.75 1539.68 Q1276.11 1542.71 1276.11 1547.9 L1276.11 1568.04 L1270.22 1568.04 L1270.22 1532.4 L1276.11 1532.4 L1276.11 1537.93 Q1278.12 1534.66 1280.92 1533.1 Q1283.72 1531.54 1287.57 1531.54 Q1291.45 1531.54 1294.16 1533.51 Q1296.89 1535.48 1298.2 1539.24 Z" fill="#000000" fill-rule="nonzero" fill-opacity="1" /><path clip-path="url(#clip980)" d="M1364.43 1548.76 L1364.43 1551.62 L1337.51 1551.62 Q1337.89 1557.67 1341.14 1560.85 Q1344.41 1564 1350.24 1564 Q1353.61 1564 1356.76 1563.17 Q1359.95 1562.35 1363.07 1560.69 L1363.07 1566.23 Q1359.91 1567.57 1356.6 1568.27 Q1353.29 1568.97 1349.89 1568.97 Q1341.36 1568.97 1336.36 1564 Q1331.4 1559.04 1331.4 1550.57 Q1331.4 1541.82 1336.11 1536.69 Q1340.85 1531.54 1348.87 1531.54 Q1356.06 1531.54 1360.23 1536.18 Q1364.43 1540.8 1364.43 1548.76 M1358.58 1547.04 Q1358.51 1542.23 1355.87 1539.37 Q1353.26 1536.5 1348.93 1536.5 Q1344.03 1536.5 1341.07 1539.27 Q1338.14 1542.04 1337.7 1547.07 L1358.58 1547.04 Z" fill="#000000" fill-rule="nonzero" fill-opacity="1" /><polyline clip-path="url(#clip980)" style="stroke:#000000; stroke-linecap:round; stroke-linejoin:round; stroke-width:4; stroke-opacity:1; fill:none" points="219.866,1423.18 219.866,47.2441 "/>
<polyline clip-path="url(#clip980)" style="stroke:#000000; stroke-linecap:round; stroke-linejoin:round; stroke-width:4; stroke-opacity:1; fill:none" points="219.866,1423.18 238.764,1423.18 "/>
<polyline clip-path="url(#clip980)" style="stroke:#000000; stroke-linecap:round; stroke-linejoin:round; stroke-width:4; stroke-opacity:1; fill:none" points="219.866,1157.28 238.764,1157.28 "/>
<polyline clip-path="url(#clip980)" style="stroke:#000000; stroke-linecap:round; stroke-linejoin:round; stroke-width:4; stroke-opacity:1; fill:none" points="219.866,891.374 238.764,891.374 "/>
<polyline clip-path="url(#clip980)" style="stroke:#000000; stroke-linecap:round; stroke-linejoin:round; stroke-width:4; stroke-opacity:1; fill:none" points="219.866,625.471 238.764,625.471 "/>
<polyline clip-path="url(#clip980)" style="stroke:#000000; stroke-linecap:round; stroke-linejoin:round; stroke-width:4; stroke-opacity:1; fill:none" points="219.866,359.568 238.764,359.568 "/>
<polyline clip-path="url(#clip980)" style="stroke:#000000; stroke-linecap:round; stroke-linejoin:round; stroke-width:4; stroke-opacity:1; fill:none" points="219.866,93.6653 238.764,93.6653 "/>
<path clip-path="url(#clip980)" d="M126.691 1408.98 Q123.08 1408.98 121.251 1412.54 Q119.445 1416.08 119.445 1423.21 Q119.445 1430.32 121.251 1433.89 Q123.08 1437.43 126.691 1437.43 Q130.325 1437.43 132.13 1433.89 Q133.959 1430.32 133.959 1423.21 Q133.959 1416.08 132.13 1412.54 Q130.325 1408.98 126.691 1408.98 M126.691 1405.27 Q132.501 1405.27 135.556 1409.88 Q138.635 1414.46 138.635 1423.21 Q138.635 1431.94 135.556 1436.55 Q132.501 1441.13 126.691 1441.13 Q120.88 1441.13 117.802 1436.55 Q114.746 1431.94 114.746 1423.21 Q114.746 1414.46 117.802 1409.88 Q120.88 1405.27 126.691 1405.27 Z" fill="#000000" fill-rule="nonzero" fill-opacity="1" /><path clip-path="url(#clip980)" d="M146.853 1434.58 L151.737 1434.58 L151.737 1440.46 L146.853 1440.46 L146.853 1434.58 Z" fill="#000000" fill-rule="nonzero" fill-opacity="1" /><path clip-path="url(#clip980)" d="M171.922 1408.98 Q168.311 1408.98 166.482 1412.54 Q164.677 1416.08 164.677 1423.21 Q164.677 1430.32 166.482 1433.89 Q168.311 1437.43 171.922 1437.43 Q175.556 1437.43 177.362 1433.89 Q179.19 1430.32 179.19 1423.21 Q179.19 1416.08 177.362 1412.54 Q175.556 1408.98 171.922 1408.98 M171.922 1405.27 Q177.732 1405.27 180.788 1409.88 Q183.866 1414.46 183.866 1423.21 Q183.866 1431.94 180.788 1436.55 Q177.732 1441.13 171.922 1441.13 Q166.112 1441.13 163.033 1436.55 Q159.978 1431.94 159.978 1423.21 Q159.978 1414.46 163.033 1409.88 Q166.112 1405.27 171.922 1405.27 Z" fill="#000000" fill-rule="nonzero" fill-opacity="1" /><path clip-path="url(#clip980)" d="M127.917 1143.08 Q124.306 1143.08 122.478 1146.64 Q120.672 1150.18 120.672 1157.31 Q120.672 1164.42 122.478 1167.98 Q124.306 1171.52 127.917 1171.52 Q131.552 1171.52 133.357 1167.98 Q135.186 1164.42 135.186 1157.31 Q135.186 1150.18 133.357 1146.64 Q131.552 1143.08 127.917 1143.08 M127.917 1139.37 Q133.728 1139.37 136.783 1143.98 Q139.862 1148.56 139.862 1157.31 Q139.862 1166.04 136.783 1170.64 Q133.728 1175.23 127.917 1175.23 Q122.107 1175.23 119.029 1170.64 Q115.973 1166.04 115.973 1157.31 Q115.973 1148.56 119.029 1143.98 Q122.107 1139.37 127.917 1139.37 Z" fill="#000000" fill-rule="nonzero" fill-opacity="1" /><path clip-path="url(#clip980)" d="M148.079 1168.68 L152.964 1168.68 L152.964 1174.56 L148.079 1174.56 L148.079 1168.68 Z" fill="#000000" fill-rule="nonzero" fill-opacity="1" /><path clip-path="url(#clip980)" d="M163.959 1170.62 L171.598 1170.62 L171.598 1144.26 L163.288 1145.92 L163.288 1141.66 L171.552 1140 L176.227 1140 L176.227 1170.62 L183.866 1170.62 L183.866 1174.56 L163.959 1174.56 L163.959 1170.62 Z" fill="#000000" fill-rule="nonzero" fill-opacity="1" /><path clip-path="url(#clip980)" d="M128.288 877.173 Q124.677 877.173 122.848 880.737 Q121.043 884.279 121.043 891.409 Q121.043 898.515 122.848 902.08 Q124.677 905.622 128.288 905.622 Q131.922 905.622 133.728 902.08 Q135.556 898.515 135.556 891.409 Q135.556 884.279 133.728 880.737 Q131.922 877.173 128.288 877.173 M128.288 873.469 Q134.098 873.469 137.154 878.075 Q140.232 882.659 140.232 891.409 Q140.232 900.136 137.154 904.742 Q134.098 909.325 128.288 909.325 Q122.478 909.325 119.399 904.742 Q116.343 900.136 116.343 891.409 Q116.343 882.659 119.399 878.075 Q122.478 873.469 128.288 873.469 Z" fill="#000000" fill-rule="nonzero" fill-opacity="1" /><path clip-path="url(#clip980)" d="M148.45 902.774 L153.334 902.774 L153.334 908.654 L148.45 908.654 L148.45 902.774 Z" fill="#000000" fill-rule="nonzero" fill-opacity="1" /><path clip-path="url(#clip980)" d="M167.547 904.719 L183.866 904.719 L183.866 908.654 L161.922 908.654 L161.922 904.719 Q164.584 901.964 169.167 897.335 Q173.774 892.682 174.954 891.339 Q177.2 888.816 178.079 887.08 Q178.982 885.321 178.982 883.631 Q178.982 880.876 177.038 879.14 Q175.116 877.404 172.014 877.404 Q169.815 877.404 167.362 878.168 Q164.931 878.932 162.153 880.483 L162.153 875.761 Q164.977 874.626 167.431 874.048 Q169.885 873.469 171.922 873.469 Q177.292 873.469 180.487 876.154 Q183.681 878.839 183.681 883.33 Q183.681 885.46 182.871 887.381 Q182.084 889.279 179.977 891.872 Q179.399 892.543 176.297 895.761 Q173.195 898.955 167.547 904.719 Z" fill="#000000" fill-rule="nonzero" fill-opacity="1" /><path clip-path="url(#clip980)" d="M127.339 611.27 Q123.728 611.27 121.899 614.835 Q120.093 618.376 120.093 625.506 Q120.093 632.612 121.899 636.177 Q123.728 639.719 127.339 639.719 Q130.973 639.719 132.779 636.177 Q134.607 632.612 134.607 625.506 Q134.607 618.376 132.779 614.835 Q130.973 611.27 127.339 611.27 M127.339 607.566 Q133.149 607.566 136.204 612.173 Q139.283 616.756 139.283 625.506 Q139.283 634.233 136.204 638.839 Q133.149 643.422 127.339 643.422 Q121.529 643.422 118.45 638.839 Q115.394 634.233 115.394 625.506 Q115.394 616.756 118.45 612.173 Q121.529 607.566 127.339 607.566 Z" fill="#000000" fill-rule="nonzero" fill-opacity="1" /><path clip-path="url(#clip980)" d="M147.501 636.871 L152.385 636.871 L152.385 642.751 L147.501 642.751 L147.501 636.871 Z" fill="#000000" fill-rule="nonzero" fill-opacity="1" /><path clip-path="url(#clip980)" d="M176.737 624.117 Q180.093 624.835 181.968 627.103 Q183.866 629.372 183.866 632.705 Q183.866 637.821 180.348 640.621 Q176.829 643.422 170.348 643.422 Q168.172 643.422 165.857 642.983 Q163.565 642.566 161.112 641.709 L161.112 637.196 Q163.056 638.33 165.371 638.909 Q167.686 639.487 170.209 639.487 Q174.607 639.487 176.899 637.751 Q179.214 636.015 179.214 632.705 Q179.214 629.649 177.061 627.936 Q174.931 626.2 171.112 626.2 L167.084 626.2 L167.084 622.358 L171.297 622.358 Q174.746 622.358 176.575 620.992 Q178.403 619.603 178.403 617.01 Q178.403 614.348 176.505 612.936 Q174.63 611.501 171.112 611.501 Q169.19 611.501 166.991 611.918 Q164.792 612.335 162.153 613.214 L162.153 609.048 Q164.815 608.307 167.13 607.936 Q169.468 607.566 171.528 607.566 Q176.852 607.566 179.954 609.997 Q183.056 612.404 183.056 616.524 Q183.056 619.395 181.413 621.385 Q179.769 623.353 176.737 624.117 Z" fill="#000000" fill-rule="nonzero" fill-opacity="1" /><path clip-path="url(#clip980)" d="M126.205 345.367 Q122.593 345.367 120.765 348.932 Q118.959 352.473 118.959 359.603 Q118.959 366.709 120.765 370.274 Q122.593 373.816 126.205 373.816 Q129.839 373.816 131.644 370.274 Q133.473 366.709 133.473 359.603 Q133.473 352.473 131.644 348.932 Q129.839 345.367 126.205 345.367 M126.205 341.663 Q132.015 341.663 135.07 346.27 Q138.149 350.853 138.149 359.603 Q138.149 368.33 135.07 372.936 Q132.015 377.519 126.205 377.519 Q120.394 377.519 117.316 372.936 Q114.26 368.33 114.26 359.603 Q114.26 350.853 117.316 346.27 Q120.394 341.663 126.205 341.663 Z" fill="#000000" fill-rule="nonzero" fill-opacity="1" /><path clip-path="url(#clip980)" d="M146.366 370.969 L151.251 370.969 L151.251 376.848 L146.366 376.848 L146.366 370.969 Z" fill="#000000" fill-rule="nonzero" fill-opacity="1" /><path clip-path="url(#clip980)" d="M174.283 346.362 L162.477 364.811 L174.283 364.811 L174.283 346.362 M173.056 342.288 L178.936 342.288 L178.936 364.811 L183.866 364.811 L183.866 368.7 L178.936 368.7 L178.936 376.848 L174.283 376.848 L174.283 368.7 L158.681 368.7 L158.681 364.186 L173.056 342.288 Z" fill="#000000" fill-rule="nonzero" fill-opacity="1" /><path clip-path="url(#clip980)" d="M127.686 79.464 Q124.075 79.464 122.246 83.0287 Q120.441 86.5704 120.441 93.7 Q120.441 100.806 122.246 104.371 Q124.075 107.913 127.686 107.913 Q131.32 107.913 133.126 104.371 Q134.954 100.806 134.954 93.7 Q134.954 86.5704 133.126 83.0287 Q131.32 79.464 127.686 79.464 M127.686 75.7603 Q133.496 75.7603 136.552 80.3667 Q139.63 84.95 139.63 93.7 Q139.63 102.427 136.552 107.033 Q133.496 111.617 127.686 111.617 Q121.876 111.617 118.797 107.033 Q115.742 102.427 115.742 93.7 Q115.742 84.95 118.797 80.3667 Q121.876 75.7603 127.686 75.7603 Z" fill="#000000" fill-rule="nonzero" fill-opacity="1" /><path clip-path="url(#clip980)" d="M147.848 105.066 L152.732 105.066 L152.732 110.945 L147.848 110.945 L147.848 105.066 Z" fill="#000000" fill-rule="nonzero" fill-opacity="1" /><path clip-path="url(#clip980)" d="M162.964 76.3853 L181.32 76.3853 L181.32 80.3204 L167.246 80.3204 L167.246 88.7926 Q168.264 88.4454 169.283 88.2833 Q170.302 88.0982 171.32 88.0982 Q177.107 88.0982 180.487 91.2694 Q183.866 94.4407 183.866 99.8574 Q183.866 105.436 180.394 108.538 Q176.922 111.617 170.602 111.617 Q168.427 111.617 166.158 111.246 Q163.913 110.876 161.505 110.135 L161.505 105.436 Q163.589 106.57 165.811 107.126 Q168.033 107.681 170.51 107.681 Q174.514 107.681 176.852 105.575 Q179.19 103.468 179.19 99.8574 Q179.19 96.2463 176.852 94.1398 Q174.514 92.0333 170.51 92.0333 Q168.635 92.0333 166.76 92.45 Q164.908 92.8667 162.964 93.7463 L162.964 76.3853 Z" fill="#000000" fill-rule="nonzero" fill-opacity="1" /><path clip-path="url(#clip980)" d="M41.7242 776.939 Q42.4244 774.87 44.7161 772.929 Q47.0077 770.955 51.0181 768.982 L64.0042 762.457 L64.0042 769.364 L51.8138 775.443 Q47.0395 777.799 45.48 780.027 Q43.9204 782.223 43.9204 786.042 L43.9204 793.044 L64.0042 793.044 L64.0042 799.474 L16.4842 799.474 L16.4842 784.96 Q16.4842 776.812 19.8898 772.801 Q23.2955 768.791 30.1704 768.791 Q34.6582 768.791 37.6183 770.892 Q40.5784 772.961 41.7242 776.939 M21.7677 793.044 L38.6368 793.044 L38.6368 784.96 Q38.6368 780.313 36.5043 777.958 Q34.34 775.571 30.1704 775.571 Q26.0009 775.571 23.9002 777.958 Q21.7677 780.313 21.7677 784.96 L21.7677 793.044 Z" fill="#000000" fill-rule="nonzero" fill-opacity="1" /><path clip-path="url(#clip980)" d="M28.3562 754.436 L28.3562 748.58 L64.0042 748.58 L64.0042 754.436 L28.3562 754.436 M14.479 754.436 L14.479 748.58 L21.895 748.58 L21.895 754.436 L14.479 754.436 Z" fill="#000000" fill-rule="nonzero" fill-opacity="1" /><path clip-path="url(#clip980)" d="M29.4065 713.6 L34.9447 713.6 Q33.6716 716.083 33.035 718.757 Q32.3984 721.43 32.3984 724.295 Q32.3984 728.655 33.7352 730.851 Q35.072 733.016 37.7456 733.016 Q39.7826 733.016 40.9603 731.456 Q42.1061 729.897 43.1565 725.186 L43.6021 723.181 Q44.9389 716.942 47.3897 714.332 Q49.8086 711.691 54.1691 711.691 Q59.1344 711.691 62.0308 715.637 Q64.9272 719.552 64.9272 726.427 Q64.9272 729.292 64.3543 732.411 Q63.8132 735.498 62.6992 738.936 L56.6518 738.936 Q58.3387 735.689 59.198 732.538 Q60.0256 729.387 60.0256 726.3 Q60.0256 722.162 58.6251 719.934 Q57.1929 717.706 54.6147 717.706 Q52.2276 717.706 50.9545 719.33 Q49.6813 720.921 48.5037 726.364 L48.0262 728.401 Q46.8804 733.843 44.5251 736.262 Q42.138 738.681 38.0002 738.681 Q32.9713 738.681 30.2341 735.116 Q27.4968 731.552 27.4968 724.995 Q27.4968 721.748 27.9743 718.884 Q28.4517 716.019 29.4065 713.6 Z" fill="#000000" fill-rule="nonzero" fill-opacity="1" /><path clip-path="url(#clip980)" d="M14.479 702.588 L14.479 696.699 L43.7294 696.699 L28.3562 679.226 L28.3562 671.746 L45.0344 690.652 L64.0042 670.95 L64.0042 678.589 L46.5939 696.699 L64.0042 696.699 L64.0042 702.588 L14.479 702.588 Z" fill="#000000" fill-rule="nonzero" fill-opacity="1" /><polyline clip-path="url(#clip982)" style="stroke:#009af9; stroke-linecap:round; stroke-linejoin:round; stroke-width:4; stroke-opacity:1; fill:none" points="219.866,1423.18 224.547,1423.18 224.547,1411.94 227.96,1411.94 227.96,1382.86 231.372,1382.86 243.53,1382.86 256.967,1382.86 256.967,1365.78 274.03,1365.78 281.282,1365.78 281.282,1358.31 283.415,1358.31 346.762,1358.31 346.762,1321.75 349.962,1321.75 349.962,1307.15 377.903,1307.15 377.903,1296.54 410.109,1296.54 410.109,1259.85 420.347,1259.85 420.347,1237.89 429.519,1237.89 448.715,1237.89 448.715,1236.06 471.11,1236.06 493.079,1236.06 493.079,1206.73 499.904,1206.73 514.622,1206.73 518.674,1206.73 518.674,1202.4 527.632,1202.4 527.632,1171.27 538.937,1171.27 563.892,1171.27 563.892,1161.43 566.664,1161.43 596.738,1161.43 596.738,1148.66 599.938,1148.66 599.938,1142.33 613.588,1142.33 613.588,1116.62 645.155,1116.62 661.365,1116.62 670.75,1116.62 670.75,1096.85 675.656,1096.85 675.656,1076.13 683.121,1076.13 683.121,1067 694.212,1067 694.212,1065.45 700.824,1065.45 700.824,1046.73 765.237,1046.73 797.658,1046.73 816,1046.73 844.795,1046.73 844.795,1016.54 868.896,1016.54 870.603,1016.54 870.603,986.195 919.233,986.195 961.251,986.195 961.251,969.687 963.597,969.687 963.597,951.045 984.713,951.045 984.713,938.746 997.724,938.746 1010.52,938.746 1016.49,938.746 1017.13,938.746 1025.02,938.746 1027.16,938.746 1028.86,938.746 1067.04,938.746 1067.04,920.188 1073.87,920.188 1073.87,898.072 1083.47,898.072 1083.47,874.063 1121.86,874.063 1131.03,874.063 1131.03,872.056 1150.44,872.056 1151.29,872.056 1169,872.056 1196.3,872.056 1196.3,858.391 1208.67,858.391 1251.75,858.391 1251.75,857.847 1283.53,857.847 1306.35,857.847 1306.35,851.162 1328.11,851.162 1328.11,839.264 1341.97,839.264 1342.83,839.264 1355.41,839.264 1365.22,839.264 1382.5,839.264 1388.68,839.264 1396.15,839.264 1396.15,838.734 1410.44,838.734 1456.72,838.734 1456.72,829.912 1460.78,829.912 1460.78,816.321 1509.41,816.321 1509.41,811.84 1510.26,811.84 1510.26,794.657 1529.67,794.657 1529.67,786.812 1543.53,786.812 1547.37,786.812 1585.34,786.812 1585.34,768.794 1604.11,768.794 1665.96,768.794 1689.64,768.794 1689.64,764.982 1693.26,764.982 1714.38,764.982 1714.38,764.957 1724.19,764.957 1733.79,764.957 1756.82,764.957 1783.06,764.957 1791.38,764.957 1791.38,756.522 1793.94,756.522 1803.75,756.522 1857.5,756.522 1871.15,756.522 1915.3,756.522 1921.06,756.522 1921.91,756.522 1921.91,745.534 1941.53,745.534 1941.53,736.414 1958.17,736.414 1958.17,735.574 1963.29,735.574 1963.29,733.478 1992.08,733.478 2008.51,733.478 2048.18,733.478 2048.18,730.591 2150.34,730.591 2150.34,723.638 2179.78,723.638 2179.78,721.361 2352.76,721.361 "/>
<polyline clip-path="url(#clip982)" style="stroke:#e26f46; stroke-linecap:round; stroke-linejoin:round; stroke-width:4; stroke-opacity:1; fill:none" points="219.866,1423.18 224.547,1423.18 227.96,1423.18 231.372,1423.18 231.372,1311.48 243.53,1311.48 243.53,1290.71 256.967,1290.71 274.03,1290.71 274.03,1222.67 281.282,1222.67 283.415,1222.67 283.415,1216.08 346.762,1216.08 349.962,1216.08 377.903,1216.08 410.109,1216.08 420.347,1216.08 429.519,1216.08 429.519,1151.85 448.715,1151.85 471.11,1151.85 471.11,1123.63 493.079,1123.63 499.904,1123.63 499.904,1096.05 514.622,1096.05 514.622,1079.77 518.674,1079.77 527.632,1079.77 538.937,1079.77 538.937,1045.51 563.892,1045.51 566.664,1045.51 566.664,1027.83 596.738,1027.83 599.938,1027.83 613.588,1027.83 645.155,1027.83 645.155,992.671 661.365,992.671 661.365,974.992 670.75,974.992 675.656,974.992 683.121,974.992 694.212,974.992 700.824,974.992 765.237,974.992 765.237,939.267 797.658,939.267 797.658,917.536 816,917.536 816,906.768 844.795,906.768 868.896,906.768 868.896,886.523 870.603,886.523 919.233,886.523 919.233,870.472 961.251,870.472 963.597,870.472 984.713,870.472 997.724,870.472 997.724,820.487 1010.52,820.487 1010.52,770.065 1016.49,770.065 1016.49,735.303 1017.13,735.303 1017.13,695.608 1025.02,695.608 1025.02,662.868 1027.16,662.868 1027.16,634.733 1028.86,634.733 1028.86,605.106 1067.04,605.106 1073.87,605.106 1083.47,605.106 1121.86,605.106 1121.86,564.993 1131.03,564.993 1150.44,564.993 1150.44,547.117 1151.29,547.117 1151.29,542.949 1169,542.949 1169,513.433 1196.3,513.433 1208.67,513.433 1208.67,480.607 1251.75,480.607 1283.53,480.607 1283.53,444.551 1306.35,444.551 1328.11,444.551 1341.97,444.551 1341.97,443.917 1342.83,443.917 1342.83,437.44 1355.41,437.44 1355.41,402.31 1365.22,402.31 1365.22,398.445 1382.5,398.445 1382.5,363.268 1388.68,363.268 1388.68,332.029 1396.15,332.029 1410.44,332.029 1410.44,324.081 1456.72,324.081 1460.78,324.081 1509.41,324.081 1510.26,324.081 1529.67,324.081 1543.53,324.081 1543.53,319.55 1547.37,319.55 1547.37,316.784 1585.34,316.784 1604.11,316.784 1604.11,310.832 1665.96,310.832 1665.96,282.907 1689.64,282.907 1693.26,282.907 1693.26,264.965 1714.38,264.965 1724.19,264.965 1724.19,257.843 1733.79,257.843 1733.79,228.52 1756.82,228.52 1756.82,201.668 1783.06,201.668 1783.06,184.882 1791.38,184.882 1793.94,184.882 1793.94,162.606 1803.75,162.606 1803.75,151.058 1857.5,151.058 1857.5,144.678 1871.15,144.678 1871.15,135.488 1915.3,135.488 1915.3,112.272 1921.06,112.272 1921.06,86.5189 1921.91,86.5189 1941.53,86.5189 1958.17,86.5189 1963.29,86.5189 1992.08,86.5189 1992.08,71.8765 2008.51,71.8765 2008.51,47.2441 2048.18,47.2441 2150.34,47.2441 2179.78,47.2441 2352.76,47.2441 "/>
<path clip-path="url(#clip980)" d="M290.963 248.629 L526.196 248.629 L526.196 93.1086 L290.963 93.1086  Z" fill="#ffffff" fill-rule="evenodd" fill-opacity="1"/>
<polyline clip-path="url(#clip980)" style="stroke:#000000; stroke-linecap:round; stroke-linejoin:round; stroke-width:4; stroke-opacity:1; fill:none" points="290.963,248.629 526.196,248.629 526.196,93.1086 290.963,93.1086 290.963,248.629 "/>
<polyline clip-path="url(#clip980)" style="stroke:#009af9; stroke-linecap:round; stroke-linejoin:round; stroke-width:4; stroke-opacity:1; fill:none" points="314.661,144.949 456.854,144.949 "/>
<path clip-path="url(#clip980)" d="M481.224 158.293 L488.863 158.293 L488.863 131.928 L480.553 133.595 L480.553 129.335 L488.817 127.669 L493.493 127.669 L493.493 158.293 L501.131 158.293 L501.131 162.229 L481.224 162.229 L481.224 158.293 Z" fill="#000000" fill-rule="nonzero" fill-opacity="1" /><polyline clip-path="url(#clip980)" style="stroke:#e26f46; stroke-linecap:round; stroke-linejoin:round; stroke-width:4; stroke-opacity:1; fill:none" points="314.661,196.789 456.854,196.789 "/>
<path clip-path="url(#clip980)" d="M486.178 210.133 L502.497 210.133 L502.497 214.069 L480.553 214.069 L480.553 210.133 Q483.215 207.379 487.798 202.749 Q492.405 198.096 493.585 196.754 Q495.83 194.231 496.71 192.495 Q497.613 190.735 497.613 189.046 Q497.613 186.291 495.668 184.555 Q493.747 182.819 490.645 182.819 Q488.446 182.819 485.993 183.583 Q483.562 184.347 480.784 185.897 L480.784 181.175 Q483.608 180.041 486.062 179.462 Q488.516 178.884 490.553 178.884 Q495.923 178.884 499.117 181.569 Q502.312 184.254 502.312 188.745 Q502.312 190.874 501.502 192.796 Q500.715 194.694 498.608 197.286 Q498.03 197.958 494.928 201.175 Q491.826 204.37 486.178 210.133 Z" fill="#000000" fill-rule="nonzero" fill-opacity="1" /></svg>
