<?xml version="1.0" encoding="utf-8"?>
<svg xmlns="http://www.w3.org/2000/svg" xmlns:xlink="http://www.w3.org/1999/xlink" width="600" height="400" viewBox="0 0 2400 1600">
<defs>
  <clipPath id="clip820">
    <rect x="0" y="0" width="2400" height="1600"/>
  </clipPath>
</defs>
<path clip-path="url(#clip820)" d="M0 1600 L2400 1600 L2400 0 L0 0  Z" fill="#ffffff" fill-rule="evenodd" fill-opacity="1"/>
<defs>
  <clipPath id="clip821">
    <rect x="480" y="0" width="1681" height="1600"/>
  </clipPath>
</defs>
<path clip-path="url(#clip820)" d="M286.371 1423.18 L2352.76 1423.18 L2352.76 123.472 L286.371 123.472  Z" fill="#ffffff" fill-rule="evenodd" fill-opacity="1"/>
<defs>
  <clipPath id="clip822">
    <rect x="286" y="123" width="2067" height="1301"/>
  </clipPath>
</defs>
<polyline clip-path="url(#clip820)" style="stroke:#000000; stroke-linecap:round; stroke-linejoin:round; stroke-width:4; stroke-opacity:1; fill:none" points="286.371,1423.18 2352.76,1423.18 "/>
<polyline clip-path="url(#clip820)" style="stroke:#000000; stroke-linecap:round; stroke-linejoin:round; stroke-width:4; stroke-opacity:1; fill:none" points="325.162,1423.18 325.162,1404.28 "/>
<polyline clip-path="url(#clip820)" style="stroke:#000000; stroke-linecap:round; stroke-linejoin:round; stroke-width:4; stroke-opacity:1; fill:none" points="817.44,1423.18 817.44,1404.28 "/>
<polyline clip-path="url(#clip820)" style="stroke:#000000; stroke-linecap:round; stroke-linejoin:round; stroke-width:4; stroke-opacity:1; fill:none" points="1309.72,1423.18 1309.72,1404.28 "/>
<polyline clip-path="url(#clip820)" style="stroke:#000000; stroke-linecap:round; stroke-linejoin:round; stroke-width:4; stroke-opacity:1; fill:none" points="1802,1423.18 1802,1404.28 "/>
<polyline clip-path="url(#clip820)" style="stroke:#000000; stroke-linecap:round; stroke-linejoin:round; stroke-width:4; stroke-opacity:1; fill:none" points="2294.27,1423.18 2294.27,1404.28 "/>
<path clip-path="url(#clip820)" d="M325.162 1454.1 Q321.551 1454.1 319.722 1457.66 Q317.917 1461.2 317.917 1468.33 Q317.917 1475.44 319.722 1479.01 Q321.551 1482.55 325.162 1482.55 Q328.796 1482.55 330.602 1479.01 Q332.431 1475.44 332.431 1468.33 Q332.431 1461.2 330.602 1457.66 Q328.796 1454.1 325.162 1454.1 M325.162 1450.39 Q330.972 1450.39 334.028 1455 Q337.106 1459.58 337.106 1468.33 Q337.106 1477.06 334.028 1481.67 Q330.972 1486.25 325.162 1486.25 Q319.352 1486.25 316.273 1481.67 Q313.218 1477.06 313.218 1468.33 Q313.218 1459.58 316.273 1455 Q319.352 1450.39 325.162 1450.39 Z" fill="#000000" fill-rule="nonzero" fill-opacity="1" /><path clip-path="url(#clip820)" d="M796.711 1481.64 L813.03 1481.64 L813.03 1485.58 L791.086 1485.58 L791.086 1481.64 Q793.748 1478.89 798.331 1474.26 Q802.938 1469.61 804.118 1468.27 Q806.364 1465.74 807.243 1464.01 Q808.146 1462.25 808.146 1460.56 Q808.146 1457.8 806.201 1456.07 Q804.28 1454.33 801.178 1454.33 Q798.979 1454.33 796.526 1455.09 Q794.095 1455.86 791.317 1457.41 L791.317 1452.69 Q794.141 1451.55 796.595 1450.97 Q799.049 1450.39 801.086 1450.39 Q806.456 1450.39 809.651 1453.08 Q812.845 1455.77 812.845 1460.26 Q812.845 1462.39 812.035 1464.31 Q811.248 1466.2 809.141 1468.8 Q808.563 1469.47 805.461 1472.69 Q802.359 1475.88 796.711 1481.64 Z" fill="#000000" fill-rule="nonzero" fill-opacity="1" /><path clip-path="url(#clip820)" d="M822.891 1451.02 L841.248 1451.02 L841.248 1454.96 L827.174 1454.96 L827.174 1463.43 Q828.192 1463.08 829.211 1462.92 Q830.229 1462.73 831.248 1462.73 Q837.035 1462.73 840.414 1465.9 Q843.794 1469.08 843.794 1474.49 Q843.794 1480.07 840.322 1483.17 Q836.849 1486.25 830.53 1486.25 Q828.354 1486.25 826.086 1485.88 Q823.84 1485.51 821.433 1484.77 L821.433 1480.07 Q823.516 1481.2 825.738 1481.76 Q827.961 1482.32 830.437 1482.32 Q834.442 1482.32 836.78 1480.21 Q839.118 1478.1 839.118 1474.49 Q839.118 1470.88 836.78 1468.77 Q834.442 1466.67 830.437 1466.67 Q828.562 1466.67 826.687 1467.08 Q824.836 1467.5 822.891 1468.38 L822.891 1451.02 Z" fill="#000000" fill-rule="nonzero" fill-opacity="1" /><path clip-path="url(#clip820)" d="M1284.42 1451.02 L1302.77 1451.02 L1302.77 1454.96 L1288.7 1454.96 L1288.7 1463.43 Q1289.72 1463.08 1290.74 1462.92 Q1291.75 1462.73 1292.77 1462.73 Q1298.56 1462.73 1301.94 1465.9 Q1305.32 1469.08 1305.32 1474.49 Q1305.32 1480.07 1301.85 1483.17 Q1298.38 1486.25 1292.06 1486.25 Q1289.88 1486.25 1287.61 1485.88 Q1285.37 1485.51 1282.96 1484.77 L1282.96 1480.07 Q1285.04 1481.2 1287.26 1481.76 Q1289.49 1482.32 1291.96 1482.32 Q1295.97 1482.32 1298.31 1480.21 Q1300.64 1478.1 1300.64 1474.49 Q1300.64 1470.88 1298.31 1468.77 Q1295.97 1466.67 1291.96 1466.67 Q1290.09 1466.67 1288.21 1467.08 Q1286.36 1467.5 1284.42 1468.38 L1284.42 1451.02 Z" fill="#000000" fill-rule="nonzero" fill-opacity="1" /><path clip-path="url(#clip820)" d="M1324.53 1454.1 Q1320.92 1454.1 1319.09 1457.66 Q1317.29 1461.2 1317.29 1468.33 Q1317.29 1475.44 1319.09 1479.01 Q1320.92 1482.55 1324.53 1482.55 Q1328.17 1482.55 1329.97 1479.01 Q1331.8 1475.44 1331.8 1468.33 Q1331.8 1461.2 1329.97 1457.66 Q1328.17 1454.1 1324.53 1454.1 M1324.53 1450.39 Q1330.34 1450.39 1333.4 1455 Q1336.48 1459.58 1336.48 1468.33 Q1336.48 1477.06 1333.4 1481.67 Q1330.34 1486.25 1324.53 1486.25 Q1318.72 1486.25 1315.64 1481.67 Q1312.59 1477.06 1312.59 1468.33 Q1312.59 1459.58 1315.64 1455 Q1318.72 1450.39 1324.53 1450.39 Z" fill="#000000" fill-rule="nonzero" fill-opacity="1" /><path clip-path="url(#clip820)" d="M1775.85 1451.02 L1798.07 1451.02 L1798.07 1453.01 L1785.53 1485.58 L1780.64 1485.58 L1792.45 1454.96 L1775.85 1454.96 L1775.85 1451.02 Z" fill="#000000" fill-rule="nonzero" fill-opacity="1" /><path clip-path="url(#clip820)" d="M1807.24 1451.02 L1825.59 1451.02 L1825.59 1454.96 L1811.52 1454.96 L1811.52 1463.43 Q1812.54 1463.08 1813.56 1462.92 Q1814.58 1462.73 1815.59 1462.73 Q1821.38 1462.73 1824.76 1465.9 Q1828.14 1469.08 1828.14 1474.49 Q1828.14 1480.07 1824.67 1483.17 Q1821.2 1486.25 1814.88 1486.25 Q1812.7 1486.25 1810.43 1485.88 Q1808.19 1485.51 1805.78 1484.77 L1805.78 1480.07 Q1807.86 1481.2 1810.09 1481.76 Q1812.31 1482.32 1814.78 1482.32 Q1818.79 1482.32 1821.13 1480.21 Q1823.47 1478.1 1823.47 1474.49 Q1823.47 1470.88 1821.13 1468.77 Q1818.79 1466.67 1814.78 1466.67 Q1812.91 1466.67 1811.03 1467.08 Q1809.18 1467.5 1807.24 1468.38 L1807.24 1451.02 Z" fill="#000000" fill-rule="nonzero" fill-opacity="1" /><path clip-path="url(#clip820)" d="M2253.88 1481.64 L2261.52 1481.64 L2261.52 1455.28 L2253.21 1456.95 L2253.21 1452.69 L2261.47 1451.02 L2266.15 1451.02 L2266.15 1481.64 L2273.79 1481.64 L2273.79 1485.58 L2253.88 1485.58 L2253.88 1481.64 Z" fill="#000000" fill-rule="nonzero" fill-opacity="1" /><path clip-path="url(#clip820)" d="M2293.23 1454.1 Q2289.62 1454.1 2287.79 1457.66 Q2285.99 1461.2 2285.99 1468.33 Q2285.99 1475.44 2287.79 1479.01 Q2289.62 1482.55 2293.23 1482.55 Q2296.87 1482.55 2298.67 1479.01 Q2300.5 1475.44 2300.5 1468.33 Q2300.5 1461.2 2298.67 1457.66 Q2296.87 1454.1 2293.23 1454.1 M2293.23 1450.39 Q2299.04 1450.39 2302.1 1455 Q2305.18 1459.58 2305.18 1468.33 Q2305.18 1477.06 2302.1 1481.67 Q2299.04 1486.25 2293.23 1486.25 Q2287.42 1486.25 2284.34 1481.67 Q2281.29 1477.06 2281.29 1468.33 Q2281.29 1459.58 2284.34 1455 Q2287.42 1450.39 2293.23 1450.39 Z" fill="#000000" fill-rule="nonzero" fill-opacity="1" /><path clip-path="url(#clip820)" d="M2323.39 1454.1 Q2319.78 1454.1 2317.95 1457.66 Q2316.15 1461.2 2316.15 1468.33 Q2316.15 1475.44 2317.95 1479.01 Q2319.78 1482.55 2323.39 1482.55 Q2327.03 1482.55 2328.83 1479.01 Q2330.66 1475.44 2330.66 1468.33 Q2330.66 1461.2 2328.83 1457.66 Q2327.03 1454.1 2323.39 1454.1 M2323.39 1450.39 Q2329.2 1450.39 2332.26 1455 Q2335.34 1459.58 2335.34 1468.33 Q2335.34 1477.06 2332.26 1481.67 Q2329.2 1486.25 2323.39 1486.25 Q2317.58 1486.25 2314.5 1481.67 Q2311.45 1477.06 2311.45 1468.33 Q2311.45 1459.58 2314.5 1455 Q2317.58 1450.39 2323.39 1450.39 Z" fill="#000000" fill-rule="nonzero" fill-opacity="1" /><path clip-path="url(#clip820)" d="M1289.98 1520.52 L1296.41 1520.52 L1296.41 1568.04 L1289.98 1568.04 L1289.98 1520.52 Z" fill="#000000" fill-rule="nonzero" fill-opacity="1" /><path clip-path="url(#clip820)" d="M1315.63 1525.81 L1315.63 1562.76 L1323.4 1562.76 Q1333.23 1562.76 1337.79 1558.3 Q1342.37 1553.85 1342.37 1544.24 Q1342.37 1534.69 1337.79 1530.26 Q1333.23 1525.81 1323.4 1525.81 L1315.63 1525.81 M1309.2 1520.52 L1322.41 1520.52 Q1336.23 1520.52 1342.69 1526.28 Q1349.15 1532.01 1349.15 1544.24 Q1349.15 1556.52 1342.65 1562.28 Q1336.16 1568.04 1322.41 1568.04 L1309.2 1568.04 L1309.2 1520.52 Z" fill="#000000" fill-rule="nonzero" fill-opacity="1" /><polyline clip-path="url(#clip820)" style="stroke:#000000; stroke-linecap:round; stroke-linejoin:round; stroke-width:4; stroke-opacity:1; fill:none" points="286.371,1423.18 286.371,123.472 "/>
<polyline clip-path="url(#clip820)" style="stroke:#000000; stroke-linecap:round; stroke-linejoin:round; stroke-width:4; stroke-opacity:1; fill:none" points="286.371,1116.72 305.268,1116.72 "/>
<polyline clip-path="url(#clip820)" style="stroke:#000000; stroke-linecap:round; stroke-linejoin:round; stroke-width:4; stroke-opacity:1; fill:none" points="286.371,799.716 305.268,799.716 "/>
<polyline clip-path="url(#clip820)" style="stroke:#000000; stroke-linecap:round; stroke-linejoin:round; stroke-width:4; stroke-opacity:1; fill:none" points="286.371,482.711 305.268,482.711 "/>
<polyline clip-path="url(#clip820)" style="stroke:#000000; stroke-linecap:round; stroke-linejoin:round; stroke-width:4; stroke-opacity:1; fill:none" points="286.371,165.706 305.268,165.706 "/>
<path clip-path="url(#clip820)" d="M114.26 1117.17 L143.936 1117.17 L143.936 1121.11 L114.26 1121.11 L114.26 1117.17 Z" fill="#000000" fill-rule="nonzero" fill-opacity="1" /><path clip-path="url(#clip820)" d="M164.028 1102.52 Q160.417 1102.52 158.589 1106.08 Q156.783 1109.63 156.783 1116.75 Q156.783 1123.86 158.589 1127.43 Q160.417 1130.97 164.028 1130.97 Q167.663 1130.97 169.468 1127.43 Q171.297 1123.86 171.297 1116.75 Q171.297 1109.63 169.468 1106.08 Q167.663 1102.52 164.028 1102.52 M164.028 1098.82 Q169.839 1098.82 172.894 1103.42 Q175.973 1108 175.973 1116.75 Q175.973 1125.48 172.894 1130.09 Q169.839 1134.67 164.028 1134.67 Q158.218 1134.67 155.14 1130.09 Q152.084 1125.48 152.084 1116.75 Q152.084 1108 155.14 1103.42 Q158.218 1098.82 164.028 1098.82 Z" fill="#000000" fill-rule="nonzero" fill-opacity="1" /><path clip-path="url(#clip820)" d="M184.19 1128.12 L189.075 1128.12 L189.075 1134 L184.19 1134 L184.19 1128.12 Z" fill="#000000" fill-rule="nonzero" fill-opacity="1" /><path clip-path="url(#clip820)" d="M209.26 1102.52 Q205.649 1102.52 203.82 1106.08 Q202.014 1109.63 202.014 1116.75 Q202.014 1123.86 203.82 1127.43 Q205.649 1130.97 209.26 1130.97 Q212.894 1130.97 214.699 1127.43 Q216.528 1123.86 216.528 1116.75 Q216.528 1109.63 214.699 1106.08 Q212.894 1102.52 209.26 1102.52 M209.26 1098.82 Q215.07 1098.82 218.125 1103.42 Q221.204 1108 221.204 1116.75 Q221.204 1125.48 218.125 1130.09 Q215.07 1134.67 209.26 1134.67 Q203.449 1134.67 200.371 1130.09 Q197.315 1125.48 197.315 1116.75 Q197.315 1108 200.371 1103.42 Q203.449 1098.82 209.26 1098.82 Z" fill="#000000" fill-rule="nonzero" fill-opacity="1" /><path clip-path="url(#clip820)" d="M229.468 1099.44 L247.824 1099.44 L247.824 1103.38 L233.75 1103.38 L233.75 1111.85 Q234.769 1111.5 235.787 1111.34 Q236.806 1111.15 237.824 1111.15 Q243.611 1111.15 246.991 1114.32 Q250.371 1117.5 250.371 1122.91 Q250.371 1128.49 246.898 1131.59 Q243.426 1134.67 237.107 1134.67 Q234.931 1134.67 232.662 1134.3 Q230.417 1133.93 228.01 1133.19 L228.01 1128.49 Q230.093 1129.63 232.315 1130.18 Q234.537 1130.74 237.014 1130.74 Q241.019 1130.74 243.357 1128.63 Q245.695 1126.52 245.695 1122.91 Q245.695 1119.3 243.357 1117.19 Q241.019 1115.09 237.014 1115.09 Q235.139 1115.09 233.264 1115.5 Q231.412 1115.92 229.468 1116.8 L229.468 1099.44 Z" fill="#000000" fill-rule="nonzero" fill-opacity="1" /><path clip-path="url(#clip820)" d="M163.033 785.514 Q159.422 785.514 157.593 789.079 Q155.788 792.621 155.788 799.75 Q155.788 806.857 157.593 810.421 Q159.422 813.963 163.033 813.963 Q166.667 813.963 168.473 810.421 Q170.302 806.857 170.302 799.75 Q170.302 792.621 168.473 789.079 Q166.667 785.514 163.033 785.514 M163.033 781.811 Q168.843 781.811 171.899 786.417 Q174.977 791 174.977 799.75 Q174.977 808.477 171.899 813.083 Q168.843 817.667 163.033 817.667 Q157.223 817.667 154.144 813.083 Q151.089 808.477 151.089 799.75 Q151.089 791 154.144 786.417 Q157.223 781.811 163.033 781.811 Z" fill="#000000" fill-rule="nonzero" fill-opacity="1" /><path clip-path="url(#clip820)" d="M183.195 811.116 L188.079 811.116 L188.079 816.996 L183.195 816.996 L183.195 811.116 Z" fill="#000000" fill-rule="nonzero" fill-opacity="1" /><path clip-path="url(#clip820)" d="M208.264 785.514 Q204.653 785.514 202.824 789.079 Q201.019 792.621 201.019 799.75 Q201.019 806.857 202.824 810.421 Q204.653 813.963 208.264 813.963 Q211.899 813.963 213.704 810.421 Q215.533 806.857 215.533 799.75 Q215.533 792.621 213.704 789.079 Q211.899 785.514 208.264 785.514 M208.264 781.811 Q214.074 781.811 217.13 786.417 Q220.209 791 220.209 799.75 Q220.209 808.477 217.13 813.083 Q214.074 817.667 208.264 817.667 Q202.454 817.667 199.375 813.083 Q196.32 808.477 196.32 799.75 Q196.32 791 199.375 786.417 Q202.454 781.811 208.264 781.811 Z" fill="#000000" fill-rule="nonzero" fill-opacity="1" /><path clip-path="url(#clip820)" d="M238.426 785.514 Q234.815 785.514 232.986 789.079 Q231.181 792.621 231.181 799.75 Q231.181 806.857 232.986 810.421 Q234.815 813.963 238.426 813.963 Q242.06 813.963 243.866 810.421 Q245.695 806.857 245.695 799.75 Q245.695 792.621 243.866 789.079 Q242.06 785.514 238.426 785.514 M238.426 781.811 Q244.236 781.811 247.292 786.417 Q250.371 791 250.371 799.75 Q250.371 808.477 247.292 813.083 Q244.236 817.667 238.426 817.667 Q232.616 817.667 229.537 813.083 Q226.482 808.477 226.482 799.75 Q226.482 791 229.537 786.417 Q232.616 781.811 238.426 781.811 Z" fill="#000000" fill-rule="nonzero" fill-opacity="1" /><path clip-path="url(#clip820)" d="M164.028 468.51 Q160.417 468.51 158.589 472.074 Q156.783 475.616 156.783 482.746 Q156.783 489.852 158.589 493.417 Q160.417 496.958 164.028 496.958 Q167.663 496.958 169.468 493.417 Q171.297 489.852 171.297 482.746 Q171.297 475.616 169.468 472.074 Q167.663 468.51 164.028 468.51 M164.028 464.806 Q169.839 464.806 172.894 469.412 Q175.973 473.996 175.973 482.746 Q175.973 491.472 172.894 496.079 Q169.839 500.662 164.028 500.662 Q158.218 500.662 155.14 496.079 Q152.084 491.472 152.084 482.746 Q152.084 473.996 155.14 469.412 Q158.218 464.806 164.028 464.806 Z" fill="#000000" fill-rule="nonzero" fill-opacity="1" /><path clip-path="url(#clip820)" d="M184.19 494.111 L189.075 494.111 L189.075 499.991 L184.19 499.991 L184.19 494.111 Z" fill="#000000" fill-rule="nonzero" fill-opacity="1" /><path clip-path="url(#clip820)" d="M209.26 468.51 Q205.649 468.51 203.82 472.074 Q202.014 475.616 202.014 482.746 Q202.014 489.852 203.82 493.417 Q205.649 496.958 209.26 496.958 Q212.894 496.958 214.699 493.417 Q216.528 489.852 216.528 482.746 Q216.528 475.616 214.699 472.074 Q212.894 468.51 209.26 468.51 M209.26 464.806 Q215.07 464.806 218.125 469.412 Q221.204 473.996 221.204 482.746 Q221.204 491.472 218.125 496.079 Q215.07 500.662 209.26 500.662 Q203.449 500.662 200.371 496.079 Q197.315 491.472 197.315 482.746 Q197.315 473.996 200.371 469.412 Q203.449 464.806 209.26 464.806 Z" fill="#000000" fill-rule="nonzero" fill-opacity="1" /><path clip-path="url(#clip820)" d="M229.468 465.431 L247.824 465.431 L247.824 469.366 L233.75 469.366 L233.75 477.838 Q234.769 477.491 235.787 477.329 Q236.806 477.144 237.824 477.144 Q243.611 477.144 246.991 480.315 Q250.371 483.486 250.371 488.903 Q250.371 494.482 246.898 497.583 Q243.426 500.662 237.107 500.662 Q234.931 500.662 232.662 500.292 Q230.417 499.921 228.01 499.181 L228.01 494.482 Q230.093 495.616 232.315 496.171 Q234.537 496.727 237.014 496.727 Q241.019 496.727 243.357 494.621 Q245.695 492.514 245.695 488.903 Q245.695 485.292 243.357 483.185 Q241.019 481.079 237.014 481.079 Q235.139 481.079 233.264 481.496 Q231.412 481.912 229.468 482.792 L229.468 465.431 Z" fill="#000000" fill-rule="nonzero" fill-opacity="1" /><path clip-path="url(#clip820)" d="M163.033 151.505 Q159.422 151.505 157.593 155.07 Q155.788 158.611 155.788 165.741 Q155.788 172.847 157.593 176.412 Q159.422 179.954 163.033 179.954 Q166.667 179.954 168.473 176.412 Q170.302 172.847 170.302 165.741 Q170.302 158.611 168.473 155.07 Q166.667 151.505 163.033 151.505 M163.033 147.801 Q168.843 147.801 171.899 152.408 Q174.977 156.991 174.977 165.741 Q174.977 174.468 171.899 179.074 Q168.843 183.658 163.033 183.658 Q157.223 183.658 154.144 179.074 Q151.089 174.468 151.089 165.741 Q151.089 156.991 154.144 152.408 Q157.223 147.801 163.033 147.801 Z" fill="#000000" fill-rule="nonzero" fill-opacity="1" /><path clip-path="url(#clip820)" d="M183.195 177.107 L188.079 177.107 L188.079 182.986 L183.195 182.986 L183.195 177.107 Z" fill="#000000" fill-rule="nonzero" fill-opacity="1" /><path clip-path="url(#clip820)" d="M199.075 179.051 L206.713 179.051 L206.713 152.685 L198.403 154.352 L198.403 150.093 L206.667 148.426 L211.343 148.426 L211.343 179.051 L218.982 179.051 L218.982 182.986 L199.075 182.986 L199.075 179.051 Z" fill="#000000" fill-rule="nonzero" fill-opacity="1" /><path clip-path="url(#clip820)" d="M238.426 151.505 Q234.815 151.505 232.986 155.07 Q231.181 158.611 231.181 165.741 Q231.181 172.847 232.986 176.412 Q234.815 179.954 238.426 179.954 Q242.06 179.954 243.866 176.412 Q245.695 172.847 245.695 165.741 Q245.695 158.611 243.866 155.07 Q242.06 151.505 238.426 151.505 M238.426 147.801 Q244.236 147.801 247.292 152.408 Q250.371 156.991 250.371 165.741 Q250.371 174.468 247.292 179.074 Q244.236 183.658 238.426 183.658 Q232.616 183.658 229.537 179.074 Q226.482 174.468 226.482 165.741 Q226.482 156.991 229.537 152.408 Q232.616 147.801 238.426 147.801 Z" fill="#000000" fill-rule="nonzero" fill-opacity="1" /><path clip-path="url(#clip820)" d="M41.7242 956.07 Q42.4244 954.001 44.7161 952.059 Q47.0077 950.086 51.0181 948.112 L64.0042 941.588 L64.0042 948.494 L51.8138 954.574 Q47.0395 956.929 45.48 959.157 Q43.9204 961.353 43.9204 965.172 L43.9204 972.175 L64.0042 972.175 L64.0042 978.604 L16.4842 978.604 L16.4842 964.09 Q16.4842 955.942 19.8898 951.932 Q23.2955 947.921 30.1704 947.921 Q34.6582 947.921 37.6183 950.022 Q40.5784 952.091 41.7242 956.07 M21.7677 972.175 L38.6368 972.175 L38.6368 964.09 Q38.6368 959.443 36.5043 957.088 Q34.34 954.701 30.1704 954.701 Q26.0009 954.701 23.9002 957.088 Q21.7677 959.443 21.7677 964.09 L21.7677 972.175 Z" fill="#000000" fill-rule="nonzero" fill-opacity="1" /><path clip-path="url(#clip820)" d="M44.7161 906.003 L47.5806 906.003 L47.5806 932.93 Q53.6281 932.548 56.8109 929.302 Q59.9619 926.023 59.9619 920.199 Q59.9619 916.825 59.1344 913.674 Q58.3069 910.491 56.6518 907.372 L62.1899 907.372 Q63.5267 910.523 64.227 913.833 Q64.9272 917.143 64.9272 920.549 Q64.9272 929.079 59.9619 934.076 Q54.9967 939.041 46.5303 939.041 Q37.7774 939.041 32.6531 934.331 Q27.4968 929.588 27.4968 921.567 Q27.4968 914.374 32.1438 910.205 Q36.7589 906.003 44.7161 906.003 M42.9973 911.86 Q38.1912 911.923 35.3266 914.565 Q32.4621 917.175 32.4621 921.504 Q32.4621 926.405 35.2312 929.365 Q38.0002 932.294 43.0292 932.739 L42.9973 911.86 Z" fill="#000000" fill-rule="nonzero" fill-opacity="1" /><path clip-path="url(#clip820)" d="M29.4065 873.665 L34.9447 873.665 Q33.6716 876.148 33.035 878.822 Q32.3984 881.495 32.3984 884.36 Q32.3984 888.72 33.7352 890.916 Q35.072 893.081 37.7456 893.081 Q39.7826 893.081 40.9603 891.521 Q42.1061 889.962 43.1565 885.251 L43.6021 883.246 Q44.9389 877.007 47.3897 874.397 Q49.8086 871.756 54.1691 871.756 Q59.1344 871.756 62.0308 875.702 Q64.9272 879.617 64.9272 886.492 Q64.9272 889.357 64.3543 892.476 Q63.8132 895.563 62.6992 899.001 L56.6518 899.001 Q58.3387 895.754 59.198 892.603 Q60.0256 889.452 60.0256 886.365 Q60.0256 882.227 58.6251 879.999 Q57.1929 877.771 54.6147 877.771 Q52.2276 877.771 50.9545 879.395 Q49.6813 880.986 48.5037 886.429 L48.0262 888.466 Q46.8804 893.908 44.5251 896.327 Q42.138 898.746 38.0002 898.746 Q32.9713 898.746 30.2341 895.182 Q27.4968 891.617 27.4968 885.06 Q27.4968 881.814 27.9743 878.949 Q28.4517 876.084 29.4065 873.665 Z" fill="#000000" fill-rule="nonzero" fill-opacity="1" /><path clip-path="url(#clip820)" d="M28.3562 862.43 L28.3562 856.574 L64.0042 856.574 L64.0042 862.43 L28.3562 862.43 M14.479 862.43 L14.479 856.574 L21.895 856.574 L21.895 862.43 L14.479 862.43 Z" fill="#000000" fill-rule="nonzero" fill-opacity="1" /><path clip-path="url(#clip820)" d="M33.7671 820.862 L14.479 820.862 L14.479 815.005 L64.0042 815.005 L64.0042 820.862 L58.657 820.862 Q61.8398 822.708 63.3994 825.541 Q64.9272 828.342 64.9272 832.288 Q64.9272 838.75 59.771 842.824 Q54.6147 846.866 46.212 846.866 Q37.8093 846.866 32.6531 842.824 Q27.4968 838.75 27.4968 832.288 Q27.4968 828.342 29.0564 825.541 Q30.5842 822.708 33.7671 820.862 M46.212 840.818 Q52.6732 840.818 56.3653 838.177 Q60.0256 835.503 60.0256 830.856 Q60.0256 826.209 56.3653 823.535 Q52.6732 820.862 46.212 820.862 Q39.7508 820.862 36.0905 823.535 Q32.3984 826.209 32.3984 830.856 Q32.3984 835.503 36.0905 838.177 Q39.7508 840.818 46.212 840.818 Z" fill="#000000" fill-rule="nonzero" fill-opacity="1" /><path clip-path="url(#clip820)" d="M49.9359 803.547 L28.3562 803.547 L28.3562 797.691 L49.7131 797.691 Q54.7739 797.691 57.3202 795.717 Q59.8346 793.744 59.8346 789.797 Q59.8346 785.055 56.8109 782.318 Q53.7872 779.548 48.5673 779.548 L28.3562 779.548 L28.3562 773.692 L64.0042 773.692 L64.0042 779.548 L58.5296 779.548 Q61.7762 781.681 63.3676 784.514 Q64.9272 787.315 64.9272 791.039 Q64.9272 797.181 61.1078 800.364 Q57.2883 803.547 49.9359 803.547 M27.4968 788.811 L27.4968 788.811 Z" fill="#000000" fill-rule="nonzero" fill-opacity="1" /><path clip-path="url(#clip820)" d="M46.0847 745.428 Q46.0847 752.526 47.7079 755.263 Q49.3312 758.001 53.2461 758.001 Q56.3653 758.001 58.2114 755.964 Q60.0256 753.895 60.0256 750.362 Q60.0256 745.492 56.5881 742.564 Q53.1188 739.604 47.3897 739.604 L46.0847 739.604 L46.0847 745.428 M43.6657 733.747 L64.0042 733.747 L64.0042 739.604 L58.5933 739.604 Q61.8398 741.609 63.3994 744.601 Q64.9272 747.593 64.9272 751.921 Q64.9272 757.396 61.8716 760.642 Q58.7843 763.857 53.6281 763.857 Q47.6125 763.857 44.5569 759.847 Q41.5014 755.804 41.5014 747.815 L41.5014 739.604 L40.9285 739.604 Q36.8862 739.604 34.6901 742.277 Q32.4621 744.919 32.4621 749.725 Q32.4621 752.781 33.1941 755.677 Q33.9262 758.573 35.3903 761.247 L29.9795 761.247 Q28.7381 758.032 28.1334 755.009 Q27.4968 751.985 27.4968 749.12 Q27.4968 741.386 31.5072 737.567 Q35.5176 733.747 43.6657 733.747 Z" fill="#000000" fill-rule="nonzero" fill-opacity="1" /><path clip-path="url(#clip820)" d="M14.479 721.684 L14.479 715.828 L64.0042 715.828 L64.0042 721.684 L14.479 721.684 Z" fill="#000000" fill-rule="nonzero" fill-opacity="1" /><path clip-path="url(#clip820)" d="M14.5426 668.785 Q21.8632 673.05 29.0246 675.119 Q36.186 677.188 43.5384 677.188 Q50.8908 677.188 58.1159 675.119 Q65.3091 673.018 72.5979 668.785 L72.5979 673.878 Q65.1182 678.652 57.8931 681.039 Q50.668 683.394 43.5384 683.394 Q36.4406 683.394 29.2474 681.039 Q22.0542 678.684 14.5426 673.878 L14.5426 668.785 Z" fill="#000000" fill-rule="nonzero" fill-opacity="1" /><path clip-path="url(#clip820)" d="M28.3562 659.969 L28.3562 632.151 L33.7034 632.151 L59.3254 654.176 L59.3254 632.151 L64.0042 632.151 L64.0042 660.764 L58.657 660.764 L33.035 638.739 L33.035 659.969 L28.3562 659.969 Z" fill="#000000" fill-rule="nonzero" fill-opacity="1" /><path clip-path="url(#clip820)" d="M58.5933 621.265 L58.5933 610.762 L22.3406 610.762 L24.6323 622.188 L18.7758 622.188 L16.4842 610.825 L16.4842 604.396 L58.5933 604.396 L58.5933 593.893 L64.0042 593.893 L64.0042 621.265 L58.5933 621.265 Z" fill="#000000" fill-rule="nonzero" fill-opacity="1" /><path clip-path="url(#clip820)" d="M14.5426 582.657 L14.5426 577.565 Q22.0542 572.79 29.2474 570.435 Q36.4406 568.048 43.5384 568.048 Q50.668 568.048 57.8931 570.435 Q65.1182 572.79 72.5979 577.565 L72.5979 582.657 Q65.3091 578.424 58.1159 576.355 Q50.8908 574.254 43.5384 574.254 Q36.186 574.254 29.0246 576.355 Q21.8632 578.424 14.5426 582.657 Z" fill="#000000" fill-rule="nonzero" fill-opacity="1" /><path clip-path="url(#clip820)" d="M1056.68 12.096 L1064.86 12.096 L1064.86 72.576 L1056.68 72.576 L1056.68 12.096 Z" fill="#000000" fill-rule="nonzero" fill-opacity="1" /><path clip-path="url(#clip820)" d="M1118.54 45.1919 L1118.54 72.576 L1111.08 72.576 L1111.08 45.4349 Q1111.08 38.994 1108.57 35.7938 Q1106.06 32.5936 1101.04 32.5936 Q1095 32.5936 1091.52 36.4419 Q1088.03 40.2903 1088.03 46.9338 L1088.03 72.576 L1080.54 72.576 L1080.54 27.2059 L1088.03 27.2059 L1088.03 34.2544 Q1090.71 30.163 1094.31 28.1376 Q1097.96 26.1121 1102.7 26.1121 Q1110.52 26.1121 1114.53 30.9732 Q1118.54 35.7938 1118.54 45.1919 Z" fill="#000000" fill-rule="nonzero" fill-opacity="1" /><path clip-path="url(#clip820)" d="M1156.37 9.54393 L1156.37 15.7418 L1149.24 15.7418 Q1145.23 15.7418 1143.65 17.3622 Q1142.11 18.9825 1142.11 23.1955 L1142.11 27.2059 L1154.39 27.2059 L1154.39 32.9987 L1142.11 32.9987 L1142.11 72.576 L1134.62 72.576 L1134.62 32.9987 L1127.49 32.9987 L1127.49 27.2059 L1134.62 27.2059 L1134.62 24.0462 Q1134.62 16.471 1138.14 13.0277 Q1141.67 9.54393 1149.32 9.54393 L1156.37 9.54393 Z" fill="#000000" fill-rule="nonzero" fill-opacity="1" /><path clip-path="url(#clip820)" d="M1162.61 9.54393 L1170.06 9.54393 L1170.06 72.576 L1162.61 72.576 L1162.61 9.54393 Z" fill="#000000" fill-rule="nonzero" fill-opacity="1" /><path clip-path="url(#clip820)" d="M1184.89 54.671 L1184.89 27.2059 L1192.34 27.2059 L1192.34 54.3874 Q1192.34 60.8284 1194.86 64.0691 Q1197.37 67.2693 1202.39 67.2693 Q1208.43 67.2693 1211.91 63.421 Q1215.43 59.5726 1215.43 52.9291 L1215.43 27.2059 L1222.89 27.2059 L1222.89 72.576 L1215.43 72.576 L1215.43 65.6084 Q1212.72 69.7404 1209.12 71.7658 Q1205.55 73.7508 1200.81 73.7508 Q1192.99 73.7508 1188.94 68.8897 Q1184.89 64.0286 1184.89 54.671 M1203.65 26.1121 L1203.65 26.1121 Z" fill="#000000" fill-rule="nonzero" fill-opacity="1" /><path clip-path="url(#clip820)" d="M1277.05 48.0275 L1277.05 51.6733 L1242.78 51.6733 Q1243.26 59.3701 1247.4 63.421 Q1251.57 67.4314 1258.98 67.4314 Q1263.28 67.4314 1267.29 66.3781 Q1271.34 65.3249 1275.31 63.2184 L1275.31 70.267 Q1271.3 71.9684 1267.08 72.8596 Q1262.87 73.7508 1258.54 73.7508 Q1247.68 73.7508 1241.32 67.4314 Q1235 61.1119 1235 50.3365 Q1235 39.1965 1241 32.6746 Q1247.03 26.1121 1257.24 26.1121 Q1266.4 26.1121 1271.7 32.0264 Q1277.05 37.9003 1277.05 48.0275 M1269.6 45.84 Q1269.51 39.7232 1266.15 36.0774 Q1262.83 32.4315 1257.32 32.4315 Q1251.08 32.4315 1247.32 35.9558 Q1243.59 39.4801 1243.02 45.8805 L1269.6 45.84 Z" fill="#000000" fill-rule="nonzero" fill-opacity="1" /><path clip-path="url(#clip820)" d="M1327 45.1919 L1327 72.576 L1319.54 72.576 L1319.54 45.4349 Q1319.54 38.994 1317.03 35.7938 Q1314.52 32.5936 1309.5 32.5936 Q1303.46 32.5936 1299.98 36.4419 Q1296.49 40.2903 1296.49 46.9338 L1296.49 72.576 L1289 72.576 L1289 27.2059 L1296.49 27.2059 L1296.49 34.2544 Q1299.17 30.163 1302.77 28.1376 Q1306.42 26.1121 1311.16 26.1121 Q1318.98 26.1121 1322.99 30.9732 Q1327 35.7938 1327 45.1919 Z" fill="#000000" fill-rule="nonzero" fill-opacity="1" /><path clip-path="url(#clip820)" d="M1374.51 28.9478 L1374.51 35.9153 Q1371.35 34.1734 1368.15 33.3227 Q1364.99 32.4315 1361.75 32.4315 Q1354.5 32.4315 1350.49 37.0496 Q1346.48 41.6271 1346.48 49.9314 Q1346.48 58.2358 1350.49 62.8538 Q1354.5 67.4314 1361.75 67.4314 Q1364.99 67.4314 1368.15 66.5807 Q1371.35 65.6895 1374.51 63.9476 L1374.51 70.8341 Q1371.39 72.2924 1368.03 73.0216 Q1364.71 73.7508 1360.94 73.7508 Q1350.69 73.7508 1344.66 67.3098 Q1338.62 60.8689 1338.62 49.9314 Q1338.62 38.832 1344.7 32.472 Q1350.82 26.1121 1361.43 26.1121 Q1364.87 26.1121 1368.15 26.8413 Q1371.44 27.5299 1374.51 28.9478 Z" fill="#000000" fill-rule="nonzero" fill-opacity="1" /><path clip-path="url(#clip820)" d="M1426.28 48.0275 L1426.28 51.6733 L1392.01 51.6733 Q1392.5 59.3701 1396.63 63.421 Q1400.8 67.4314 1408.22 67.4314 Q1412.51 67.4314 1416.52 66.3781 Q1420.57 65.3249 1424.54 63.2184 L1424.54 70.267 Q1420.53 71.9684 1416.32 72.8596 Q1412.11 73.7508 1407.77 73.7508 Q1396.92 73.7508 1390.56 67.4314 Q1384.24 61.1119 1384.24 50.3365 Q1384.24 39.1965 1390.23 32.6746 Q1396.27 26.1121 1406.48 26.1121 Q1415.63 26.1121 1420.94 32.0264 Q1426.28 37.9003 1426.28 48.0275 M1418.83 45.84 Q1418.75 39.7232 1415.39 36.0774 Q1412.07 32.4315 1406.56 32.4315 Q1400.32 32.4315 1396.55 35.9558 Q1392.82 39.4801 1392.26 45.8805 L1418.83 45.84 Z" fill="#000000" fill-rule="nonzero" fill-opacity="1" /><path clip-path="url(#clip820)" d="M1440.42 62.2867 L1448.97 62.2867 L1448.97 72.576 L1440.42 72.576 L1440.42 62.2867 M1440.42 29.6769 L1448.97 29.6769 L1448.97 39.9662 L1440.42 39.9662 L1440.42 29.6769 Z" fill="#000000" fill-rule="nonzero" fill-opacity="1" /><path clip-path="url(#clip820)" d="M1500.29 69.7809 L1500.29 89.8329 L1492.8 89.8329 L1492.8 27.4894 Q1492.8 9.01731 1510.06 9.01731 Q1527.64 9.01731 1527.64 24.6133 Q1527.64 35.7128 1520.67 39.7637 Q1532.01 43.4095 1532.01 54.2254 Q1532.01 73.4267 1512.49 73.4267 Q1503.9 73.4267 1500.29 69.7809 M1500.29 60.0587 Q1504.79 67.0668 1512.77 67.0668 Q1524.44 67.0668 1524.44 54.3469 Q1524.44 42.9234 1505.64 43.8146 L1505.64 36.928 Q1520.35 36.928 1520.35 23.9651 Q1520.35 15.0937 1510.87 15.0937 Q1500.29 15.0937 1500.29 27.7325 L1500.29 60.0587 Z" fill="#000000" fill-rule="nonzero" fill-opacity="1" /><path clip-path="url(#clip820)" d="M1553.89 65.6895 L1582.45 65.6895 L1582.45 72.576 L1544.04 72.576 L1544.04 65.6895 Q1548.7 60.8689 1556.72 52.7671 Q1564.78 44.6248 1566.85 42.2752 Q1570.78 37.8598 1572.32 34.8216 Q1573.9 31.7429 1573.9 28.7857 Q1573.9 23.9651 1570.5 20.927 Q1567.13 17.8888 1561.71 17.8888 Q1557.86 17.8888 1553.56 19.2256 Q1549.31 20.5624 1544.45 23.2765 L1544.45 15.0127 Q1549.39 13.0277 1553.69 12.015 Q1557.98 11.0023 1561.54 11.0023 Q1570.94 11.0023 1576.53 15.7013 Q1582.12 20.4004 1582.12 28.2591 Q1582.12 31.9859 1580.7 35.3482 Q1579.33 38.6699 1575.64 43.2069 Q1574.63 44.3817 1569.2 50.0125 Q1563.77 55.6027 1553.89 65.6895 Z" fill="#000000" fill-rule="nonzero" fill-opacity="1" /><circle clip-path="url(#clip822)" cx="344.853" cy="884.253" r="14.4" fill="#000000" fill-rule="evenodd" fill-opacity="0.5" stroke="none"/>
<circle clip-path="url(#clip822)" cx="364.544" cy="896.917" r="14.4" fill="#000000" fill-rule="evenodd" fill-opacity="0.5" stroke="none"/>
<circle clip-path="url(#clip822)" cx="384.235" cy="957.457" r="14.4" fill="#000000" fill-rule="evenodd" fill-opacity="0.5" stroke="none"/>
<circle clip-path="url(#clip822)" cx="403.926" cy="910.536" r="14.4" fill="#000000" fill-rule="evenodd" fill-opacity="0.5" stroke="none"/>
<circle clip-path="url(#clip822)" cx="423.618" cy="756.646" r="14.4" fill="#000000" fill-rule="evenodd" fill-opacity="0.5" stroke="none"/>
<circle clip-path="url(#clip822)" cx="443.309" cy="821.032" r="14.4" fill="#000000" fill-rule="evenodd" fill-opacity="0.5" stroke="none"/>
<circle clip-path="url(#clip822)" cx="463" cy="897.815" r="14.4" fill="#000000" fill-rule="evenodd" fill-opacity="0.5" stroke="none"/>
<circle clip-path="url(#clip822)" cx="482.691" cy="806.784" r="14.4" fill="#000000" fill-rule="evenodd" fill-opacity="0.5" stroke="none"/>
<circle clip-path="url(#clip822)" cx="502.382" cy="927.337" r="14.4" fill="#000000" fill-rule="evenodd" fill-opacity="0.5" stroke="none"/>
<circle clip-path="url(#clip822)" cx="522.073" cy="911.55" r="14.4" fill="#000000" fill-rule="evenodd" fill-opacity="0.5" stroke="none"/>
<circle clip-path="url(#clip822)" cx="541.764" cy="756.013" r="14.4" fill="#000000" fill-rule="evenodd" fill-opacity="0.5" stroke="none"/>
<circle clip-path="url(#clip822)" cx="561.455" cy="878.972" r="14.4" fill="#000000" fill-rule="evenodd" fill-opacity="0.5" stroke="none"/>
<circle clip-path="url(#clip822)" cx="581.146" cy="897.72" r="14.4" fill="#000000" fill-rule="evenodd" fill-opacity="0.5" stroke="none"/>
<circle clip-path="url(#clip822)" cx="600.838" cy="356.774" r="14.4" fill="#000000" fill-rule="evenodd" fill-opacity="0.5" stroke="none"/>
<circle clip-path="url(#clip822)" cx="620.529" cy="915.37" r="14.4" fill="#000000" fill-rule="evenodd" fill-opacity="0.5" stroke="none"/>
<circle clip-path="url(#clip822)" cx="640.22" cy="803.016" r="14.4" fill="#000000" fill-rule="evenodd" fill-opacity="0.5" stroke="none"/>
<circle clip-path="url(#clip822)" cx="659.911" cy="160.256" r="14.4" fill="#000000" fill-rule="evenodd" fill-opacity="0.5" stroke="none"/>
<circle clip-path="url(#clip822)" cx="679.602" cy="894.439" r="14.4" fill="#000000" fill-rule="evenodd" fill-opacity="0.5" stroke="none"/>
<circle clip-path="url(#clip822)" cx="699.293" cy="712.788" r="14.4" fill="#000000" fill-rule="evenodd" fill-opacity="0.5" stroke="none"/>
<circle clip-path="url(#clip822)" cx="718.984" cy="748.9" r="14.4" fill="#000000" fill-rule="evenodd" fill-opacity="0.5" stroke="none"/>
<circle clip-path="url(#clip822)" cx="738.675" cy="798.56" r="14.4" fill="#000000" fill-rule="evenodd" fill-opacity="0.5" stroke="none"/>
<circle clip-path="url(#clip822)" cx="758.367" cy="964.48" r="14.4" fill="#000000" fill-rule="evenodd" fill-opacity="0.5" stroke="none"/>
<circle clip-path="url(#clip822)" cx="778.058" cy="897.374" r="14.4" fill="#000000" fill-rule="evenodd" fill-opacity="0.5" stroke="none"/>
<circle clip-path="url(#clip822)" cx="797.749" cy="1162.07" r="14.4" fill="#000000" fill-rule="evenodd" fill-opacity="0.5" stroke="none"/>
<circle clip-path="url(#clip822)" cx="817.44" cy="857.102" r="14.4" fill="#000000" fill-rule="evenodd" fill-opacity="0.5" stroke="none"/>
<circle clip-path="url(#clip822)" cx="837.131" cy="1077.22" r="14.4" fill="#000000" fill-rule="evenodd" fill-opacity="0.5" stroke="none"/>
<circle clip-path="url(#clip822)" cx="856.822" cy="693.186" r="14.4" fill="#000000" fill-rule="evenodd" fill-opacity="0.5" stroke="none"/>
<circle clip-path="url(#clip822)" cx="876.513" cy="874.485" r="14.4" fill="#000000" fill-rule="evenodd" fill-opacity="0.5" stroke="none"/>
<circle clip-path="url(#clip822)" cx="896.204" cy="872.987" r="14.4" fill="#000000" fill-rule="evenodd" fill-opacity="0.5" stroke="none"/>
<circle clip-path="url(#clip822)" cx="915.895" cy="803.928" r="14.4" fill="#000000" fill-rule="evenodd" fill-opacity="0.5" stroke="none"/>
<circle clip-path="url(#clip822)" cx="935.587" cy="803.517" r="14.4" fill="#000000" fill-rule="evenodd" fill-opacity="0.5" stroke="none"/>
<circle clip-path="url(#clip822)" cx="955.278" cy="962.852" r="14.4" fill="#000000" fill-rule="evenodd" fill-opacity="0.5" stroke="none"/>
<circle clip-path="url(#clip822)" cx="974.969" cy="826.333" r="14.4" fill="#000000" fill-rule="evenodd" fill-opacity="0.5" stroke="none"/>
<circle clip-path="url(#clip822)" cx="994.66" cy="691.792" r="14.4" fill="#000000" fill-rule="evenodd" fill-opacity="0.5" stroke="none"/>
<circle clip-path="url(#clip822)" cx="1014.35" cy="530.328" r="14.4" fill="#000000" fill-rule="evenodd" fill-opacity="0.5" stroke="none"/>
<circle clip-path="url(#clip822)" cx="1034.04" cy="711.643" r="14.4" fill="#000000" fill-rule="evenodd" fill-opacity="0.5" stroke="none"/>
<circle clip-path="url(#clip822)" cx="1053.73" cy="803.737" r="14.4" fill="#000000" fill-rule="evenodd" fill-opacity="0.5" stroke="none"/>
<circle clip-path="url(#clip822)" cx="1073.42" cy="885.468" r="14.4" fill="#000000" fill-rule="evenodd" fill-opacity="0.5" stroke="none"/>
<circle clip-path="url(#clip822)" cx="1093.12" cy="932.784" r="14.4" fill="#000000" fill-rule="evenodd" fill-opacity="0.5" stroke="none"/>
<circle clip-path="url(#clip822)" cx="1112.81" cy="897.816" r="14.4" fill="#000000" fill-rule="evenodd" fill-opacity="0.5" stroke="none"/>
<circle clip-path="url(#clip822)" cx="1132.5" cy="803.475" r="14.4" fill="#000000" fill-rule="evenodd" fill-opacity="0.5" stroke="none"/>
<circle clip-path="url(#clip822)" cx="1152.19" cy="897.811" r="14.4" fill="#000000" fill-rule="evenodd" fill-opacity="0.5" stroke="none"/>
<circle clip-path="url(#clip822)" cx="1171.88" cy="927.231" r="14.4" fill="#000000" fill-rule="evenodd" fill-opacity="0.5" stroke="none"/>
<circle clip-path="url(#clip822)" cx="1191.57" cy="908.503" r="14.4" fill="#000000" fill-rule="evenodd" fill-opacity="0.5" stroke="none"/>
<circle clip-path="url(#clip822)" cx="1211.26" cy="358.576" r="14.4" fill="#000000" fill-rule="evenodd" fill-opacity="0.5" stroke="none"/>
<circle clip-path="url(#clip822)" cx="1230.95" cy="897.513" r="14.4" fill="#000000" fill-rule="evenodd" fill-opacity="0.5" stroke="none"/>
<circle clip-path="url(#clip822)" cx="1250.64" cy="327.499" r="14.4" fill="#000000" fill-rule="evenodd" fill-opacity="0.5" stroke="none"/>
<circle clip-path="url(#clip822)" cx="1270.34" cy="347.456" r="14.4" fill="#000000" fill-rule="evenodd" fill-opacity="0.5" stroke="none"/>
<circle clip-path="url(#clip822)" cx="1290.03" cy="731.883" r="14.4" fill="#000000" fill-rule="evenodd" fill-opacity="0.5" stroke="none"/>
<circle clip-path="url(#clip822)" cx="1309.72" cy="895.552" r="14.4" fill="#000000" fill-rule="evenodd" fill-opacity="0.5" stroke="none"/>
<circle clip-path="url(#clip822)" cx="1329.41" cy="351.914" r="14.4" fill="#000000" fill-rule="evenodd" fill-opacity="0.5" stroke="none"/>
<circle clip-path="url(#clip822)" cx="1349.1" cy="775.19" r="14.4" fill="#000000" fill-rule="evenodd" fill-opacity="0.5" stroke="none"/>
<circle clip-path="url(#clip822)" cx="1368.79" cy="886.976" r="14.4" fill="#000000" fill-rule="evenodd" fill-opacity="0.5" stroke="none"/>
<circle clip-path="url(#clip822)" cx="1388.48" cy="259.793" r="14.4" fill="#000000" fill-rule="evenodd" fill-opacity="0.5" stroke="none"/>
<circle clip-path="url(#clip822)" cx="1408.17" cy="793.86" r="14.4" fill="#000000" fill-rule="evenodd" fill-opacity="0.5" stroke="none"/>
<circle clip-path="url(#clip822)" cx="1427.86" cy="799.505" r="14.4" fill="#000000" fill-rule="evenodd" fill-opacity="0.5" stroke="none"/>
<circle clip-path="url(#clip822)" cx="1447.56" cy="996.078" r="14.4" fill="#000000" fill-rule="evenodd" fill-opacity="0.5" stroke="none"/>
<circle clip-path="url(#clip822)" cx="1467.25" cy="843.328" r="14.4" fill="#000000" fill-rule="evenodd" fill-opacity="0.5" stroke="none"/>
<circle clip-path="url(#clip822)" cx="1486.94" cy="932.329" r="14.4" fill="#000000" fill-rule="evenodd" fill-opacity="0.5" stroke="none"/>
<circle clip-path="url(#clip822)" cx="1506.63" cy="893.762" r="14.4" fill="#000000" fill-rule="evenodd" fill-opacity="0.5" stroke="none"/>
<circle clip-path="url(#clip822)" cx="1526.32" cy="903.345" r="14.4" fill="#000000" fill-rule="evenodd" fill-opacity="0.5" stroke="none"/>
<circle clip-path="url(#clip822)" cx="1546.01" cy="1085.19" r="14.4" fill="#000000" fill-rule="evenodd" fill-opacity="0.5" stroke="none"/>
<circle clip-path="url(#clip822)" cx="1565.7" cy="810.656" r="14.4" fill="#000000" fill-rule="evenodd" fill-opacity="0.5" stroke="none"/>
<circle clip-path="url(#clip822)" cx="1585.39" cy="802.98" r="14.4" fill="#000000" fill-rule="evenodd" fill-opacity="0.5" stroke="none"/>
<circle clip-path="url(#clip822)" cx="1605.08" cy="772.825" r="14.4" fill="#000000" fill-rule="evenodd" fill-opacity="0.5" stroke="none"/>
<circle clip-path="url(#clip822)" cx="1624.78" cy="711.445" r="14.4" fill="#000000" fill-rule="evenodd" fill-opacity="0.5" stroke="none"/>
<circle clip-path="url(#clip822)" cx="1644.47" cy="853.599" r="14.4" fill="#000000" fill-rule="evenodd" fill-opacity="0.5" stroke="none"/>
<circle clip-path="url(#clip822)" cx="1664.16" cy="582.398" r="14.4" fill="#000000" fill-rule="evenodd" fill-opacity="0.5" stroke="none"/>
<circle clip-path="url(#clip822)" cx="1683.85" cy="767.36" r="14.4" fill="#000000" fill-rule="evenodd" fill-opacity="0.5" stroke="none"/>
<circle clip-path="url(#clip822)" cx="1703.54" cy="838.456" r="14.4" fill="#000000" fill-rule="evenodd" fill-opacity="0.5" stroke="none"/>
<circle clip-path="url(#clip822)" cx="1723.23" cy="893.067" r="14.4" fill="#000000" fill-rule="evenodd" fill-opacity="0.5" stroke="none"/>
<circle clip-path="url(#clip822)" cx="1742.92" cy="902.131" r="14.4" fill="#000000" fill-rule="evenodd" fill-opacity="0.5" stroke="none"/>
<circle clip-path="url(#clip822)" cx="1762.61" cy="1001.47" r="14.4" fill="#000000" fill-rule="evenodd" fill-opacity="0.5" stroke="none"/>
<circle clip-path="url(#clip822)" cx="1782.3" cy="816.923" r="14.4" fill="#000000" fill-rule="evenodd" fill-opacity="0.5" stroke="none"/>
<circle clip-path="url(#clip822)" cx="1802" cy="904.943" r="14.4" fill="#000000" fill-rule="evenodd" fill-opacity="0.5" stroke="none"/>
<circle clip-path="url(#clip822)" cx="1821.69" cy="933.618" r="14.4" fill="#000000" fill-rule="evenodd" fill-opacity="0.5" stroke="none"/>
<circle clip-path="url(#clip822)" cx="1841.38" cy="801.137" r="14.4" fill="#000000" fill-rule="evenodd" fill-opacity="0.5" stroke="none"/>
<circle clip-path="url(#clip822)" cx="1861.07" cy="757.738" r="14.4" fill="#000000" fill-rule="evenodd" fill-opacity="0.5" stroke="none"/>
<circle clip-path="url(#clip822)" cx="1880.76" cy="815.373" r="14.4" fill="#000000" fill-rule="evenodd" fill-opacity="0.5" stroke="none"/>
<circle clip-path="url(#clip822)" cx="1900.45" cy="355.682" r="14.4" fill="#000000" fill-rule="evenodd" fill-opacity="0.5" stroke="none"/>
<circle clip-path="url(#clip822)" cx="1920.14" cy="887.008" r="14.4" fill="#000000" fill-rule="evenodd" fill-opacity="0.5" stroke="none"/>
<circle clip-path="url(#clip822)" cx="1939.83" cy="873.496" r="14.4" fill="#000000" fill-rule="evenodd" fill-opacity="0.5" stroke="none"/>
<circle clip-path="url(#clip822)" cx="1959.52" cy="297.302" r="14.4" fill="#000000" fill-rule="evenodd" fill-opacity="0.5" stroke="none"/>
<circle clip-path="url(#clip822)" cx="1979.22" cy="923.192" r="14.4" fill="#000000" fill-rule="evenodd" fill-opacity="0.5" stroke="none"/>
<circle clip-path="url(#clip822)" cx="1998.91" cy="1386.4" r="14.4" fill="#000000" fill-rule="evenodd" fill-opacity="0.5" stroke="none"/>
<circle clip-path="url(#clip822)" cx="2018.6" cy="250.62" r="14.4" fill="#000000" fill-rule="evenodd" fill-opacity="0.5" stroke="none"/>
<circle clip-path="url(#clip822)" cx="2038.29" cy="816.424" r="14.4" fill="#000000" fill-rule="evenodd" fill-opacity="0.5" stroke="none"/>
<circle clip-path="url(#clip822)" cx="2057.98" cy="720.209" r="14.4" fill="#000000" fill-rule="evenodd" fill-opacity="0.5" stroke="none"/>
<circle clip-path="url(#clip822)" cx="2077.67" cy="770.497" r="14.4" fill="#000000" fill-rule="evenodd" fill-opacity="0.5" stroke="none"/>
<circle clip-path="url(#clip822)" cx="2097.36" cy="1003.12" r="14.4" fill="#000000" fill-rule="evenodd" fill-opacity="0.5" stroke="none"/>
<circle clip-path="url(#clip822)" cx="2117.05" cy="830.657" r="14.4" fill="#000000" fill-rule="evenodd" fill-opacity="0.5" stroke="none"/>
<circle clip-path="url(#clip822)" cx="2136.74" cy="895.627" r="14.4" fill="#000000" fill-rule="evenodd" fill-opacity="0.5" stroke="none"/>
<circle clip-path="url(#clip822)" cx="2156.44" cy="878.155" r="14.4" fill="#000000" fill-rule="evenodd" fill-opacity="0.5" stroke="none"/>
<circle clip-path="url(#clip822)" cx="2176.13" cy="865.157" r="14.4" fill="#000000" fill-rule="evenodd" fill-opacity="0.5" stroke="none"/>
<circle clip-path="url(#clip822)" cx="2195.82" cy="793.247" r="14.4" fill="#000000" fill-rule="evenodd" fill-opacity="0.5" stroke="none"/>
<circle clip-path="url(#clip822)" cx="2215.51" cy="950.074" r="14.4" fill="#000000" fill-rule="evenodd" fill-opacity="0.5" stroke="none"/>
<circle clip-path="url(#clip822)" cx="2235.2" cy="636.481" r="14.4" fill="#000000" fill-rule="evenodd" fill-opacity="0.5" stroke="none"/>
<circle clip-path="url(#clip822)" cx="2254.89" cy="289.919" r="14.4" fill="#000000" fill-rule="evenodd" fill-opacity="0.5" stroke="none"/>
<circle clip-path="url(#clip822)" cx="2274.58" cy="1177.91" r="14.4" fill="#000000" fill-rule="evenodd" fill-opacity="0.5" stroke="none"/>
<circle clip-path="url(#clip822)" cx="2294.27" cy="761.303" r="14.4" fill="#000000" fill-rule="evenodd" fill-opacity="0.5" stroke="none"/>
<polyline clip-path="url(#clip822)" style="stroke:#000000; stroke-linecap:round; stroke-linejoin:round; stroke-width:4; stroke-opacity:1; fill:none" points="-1780.01,799.716 4419.14,799.716 "/>
<circle clip-path="url(#clip822)" cx="344.853" cy="762.691" r="14.4" fill="#ff0000" fill-rule="evenodd" fill-opacity="0.5" stroke="none"/>
<circle clip-path="url(#clip822)" cx="364.544" cy="1139.09" r="14.4" fill="#ff0000" fill-rule="evenodd" fill-opacity="0.5" stroke="none"/>
<circle clip-path="url(#clip822)" cx="384.235" cy="316.883" r="14.4" fill="#ff0000" fill-rule="evenodd" fill-opacity="0.5" stroke="none"/>
<circle clip-path="url(#clip822)" cx="403.926" cy="647.093" r="14.4" fill="#ff0000" fill-rule="evenodd" fill-opacity="0.5" stroke="none"/>
<circle clip-path="url(#clip822)" cx="423.618" cy="948.292" r="14.4" fill="#ff0000" fill-rule="evenodd" fill-opacity="0.5" stroke="none"/>
<circle clip-path="url(#clip822)" cx="443.309" cy="780.631" r="14.4" fill="#ff0000" fill-rule="evenodd" fill-opacity="0.5" stroke="none"/>
<circle clip-path="url(#clip822)" cx="463" cy="863.579" r="14.4" fill="#ff0000" fill-rule="evenodd" fill-opacity="0.5" stroke="none"/>
<circle clip-path="url(#clip822)" cx="482.691" cy="874.525" r="14.4" fill="#ff0000" fill-rule="evenodd" fill-opacity="0.5" stroke="none"/>
<circle clip-path="url(#clip822)" cx="502.382" cy="894.213" r="14.4" fill="#ff0000" fill-rule="evenodd" fill-opacity="0.5" stroke="none"/>
<circle clip-path="url(#clip822)" cx="522.073" cy="828.999" r="14.4" fill="#ff0000" fill-rule="evenodd" fill-opacity="0.5" stroke="none"/>
<circle clip-path="url(#clip822)" cx="541.764" cy="999.591" r="14.4" fill="#ff0000" fill-rule="evenodd" fill-opacity="0.5" stroke="none"/>
<circle clip-path="url(#clip822)" cx="561.455" cy="772.374" r="14.4" fill="#ff0000" fill-rule="evenodd" fill-opacity="0.5" stroke="none"/>
<circle clip-path="url(#clip822)" cx="581.146" cy="719.148" r="14.4" fill="#ff0000" fill-rule="evenodd" fill-opacity="0.5" stroke="none"/>
<circle clip-path="url(#clip822)" cx="600.838" cy="814.207" r="14.4" fill="#ff0000" fill-rule="evenodd" fill-opacity="0.5" stroke="none"/>
<circle clip-path="url(#clip822)" cx="620.529" cy="277.845" r="14.4" fill="#ff0000" fill-rule="evenodd" fill-opacity="0.5" stroke="none"/>
<circle clip-path="url(#clip822)" cx="640.22" cy="1335.47" r="14.4" fill="#ff0000" fill-rule="evenodd" fill-opacity="0.5" stroke="none"/>
<circle clip-path="url(#clip822)" cx="659.911" cy="922.714" r="14.4" fill="#ff0000" fill-rule="evenodd" fill-opacity="0.5" stroke="none"/>
<circle clip-path="url(#clip822)" cx="679.602" cy="334.756" r="14.4" fill="#ff0000" fill-rule="evenodd" fill-opacity="0.5" stroke="none"/>
<circle clip-path="url(#clip822)" cx="699.293" cy="874.768" r="14.4" fill="#ff0000" fill-rule="evenodd" fill-opacity="0.5" stroke="none"/>
<circle clip-path="url(#clip822)" cx="718.984" cy="883.829" r="14.4" fill="#ff0000" fill-rule="evenodd" fill-opacity="0.5" stroke="none"/>
<circle clip-path="url(#clip822)" cx="738.675" cy="377.442" r="14.4" fill="#ff0000" fill-rule="evenodd" fill-opacity="0.5" stroke="none"/>
<circle clip-path="url(#clip822)" cx="758.367" cy="814.067" r="14.4" fill="#ff0000" fill-rule="evenodd" fill-opacity="0.5" stroke="none"/>
<circle clip-path="url(#clip822)" cx="778.058" cy="757.215" r="14.4" fill="#ff0000" fill-rule="evenodd" fill-opacity="0.5" stroke="none"/>
<circle clip-path="url(#clip822)" cx="797.749" cy="800.267" r="14.4" fill="#ff0000" fill-rule="evenodd" fill-opacity="0.5" stroke="none"/>
<circle clip-path="url(#clip822)" cx="817.44" cy="931.953" r="14.4" fill="#ff0000" fill-rule="evenodd" fill-opacity="0.5" stroke="none"/>
<circle clip-path="url(#clip822)" cx="837.131" cy="903.698" r="14.4" fill="#ff0000" fill-rule="evenodd" fill-opacity="0.5" stroke="none"/>
<circle clip-path="url(#clip822)" cx="856.822" cy="818.189" r="14.4" fill="#ff0000" fill-rule="evenodd" fill-opacity="0.5" stroke="none"/>
<circle clip-path="url(#clip822)" cx="876.513" cy="993.983" r="14.4" fill="#ff0000" fill-rule="evenodd" fill-opacity="0.5" stroke="none"/>
<circle clip-path="url(#clip822)" cx="896.204" cy="894.078" r="14.4" fill="#ff0000" fill-rule="evenodd" fill-opacity="0.5" stroke="none"/>
<circle clip-path="url(#clip822)" cx="915.895" cy="891.626" r="14.4" fill="#ff0000" fill-rule="evenodd" fill-opacity="0.5" stroke="none"/>
<circle clip-path="url(#clip822)" cx="935.587" cy="836.262" r="14.4" fill="#ff0000" fill-rule="evenodd" fill-opacity="0.5" stroke="none"/>
<circle clip-path="url(#clip822)" cx="955.278" cy="766.781" r="14.4" fill="#ff0000" fill-rule="evenodd" fill-opacity="0.5" stroke="none"/>
<circle clip-path="url(#clip822)" cx="974.969" cy="596.335" r="14.4" fill="#ff0000" fill-rule="evenodd" fill-opacity="0.5" stroke="none"/>
<circle clip-path="url(#clip822)" cx="994.66" cy="852.606" r="14.4" fill="#ff0000" fill-rule="evenodd" fill-opacity="0.5" stroke="none"/>
<circle clip-path="url(#clip822)" cx="1014.35" cy="716.336" r="14.4" fill="#ff0000" fill-rule="evenodd" fill-opacity="0.5" stroke="none"/>
<circle clip-path="url(#clip822)" cx="1034.04" cy="774.367" r="14.4" fill="#ff0000" fill-rule="evenodd" fill-opacity="0.5" stroke="none"/>
<circle clip-path="url(#clip822)" cx="1053.73" cy="802.089" r="14.4" fill="#ff0000" fill-rule="evenodd" fill-opacity="0.5" stroke="none"/>
<circle clip-path="url(#clip822)" cx="1073.42" cy="809.419" r="14.4" fill="#ff0000" fill-rule="evenodd" fill-opacity="0.5" stroke="none"/>
<circle clip-path="url(#clip822)" cx="1093.12" cy="1074.86" r="14.4" fill="#ff0000" fill-rule="evenodd" fill-opacity="0.5" stroke="none"/>
<circle clip-path="url(#clip822)" cx="1112.81" cy="903.623" r="14.4" fill="#ff0000" fill-rule="evenodd" fill-opacity="0.5" stroke="none"/>
<circle clip-path="url(#clip822)" cx="1132.5" cy="892.329" r="14.4" fill="#ff0000" fill-rule="evenodd" fill-opacity="0.5" stroke="none"/>
<circle clip-path="url(#clip822)" cx="1152.19" cy="931.312" r="14.4" fill="#ff0000" fill-rule="evenodd" fill-opacity="0.5" stroke="none"/>
<circle clip-path="url(#clip822)" cx="1171.88" cy="840.897" r="14.4" fill="#ff0000" fill-rule="evenodd" fill-opacity="0.5" stroke="none"/>
<circle clip-path="url(#clip822)" cx="1191.57" cy="984.37" r="14.4" fill="#ff0000" fill-rule="evenodd" fill-opacity="0.5" stroke="none"/>
<circle clip-path="url(#clip822)" cx="1211.26" cy="796.383" r="14.4" fill="#ff0000" fill-rule="evenodd" fill-opacity="0.5" stroke="none"/>
<circle clip-path="url(#clip822)" cx="1230.95" cy="793.202" r="14.4" fill="#ff0000" fill-rule="evenodd" fill-opacity="0.5" stroke="none"/>
<circle clip-path="url(#clip822)" cx="1250.64" cy="298.389" r="14.4" fill="#ff0000" fill-rule="evenodd" fill-opacity="0.5" stroke="none"/>
<circle clip-path="url(#clip822)" cx="1270.34" cy="885.196" r="14.4" fill="#ff0000" fill-rule="evenodd" fill-opacity="0.5" stroke="none"/>
<circle clip-path="url(#clip822)" cx="1290.03" cy="777.422" r="14.4" fill="#ff0000" fill-rule="evenodd" fill-opacity="0.5" stroke="none"/>
<circle clip-path="url(#clip822)" cx="1309.72" cy="375.113" r="14.4" fill="#ff0000" fill-rule="evenodd" fill-opacity="0.5" stroke="none"/>
<circle clip-path="url(#clip822)" cx="1329.41" cy="893.66" r="14.4" fill="#ff0000" fill-rule="evenodd" fill-opacity="0.5" stroke="none"/>
<circle clip-path="url(#clip822)" cx="1349.1" cy="738.21" r="14.4" fill="#ff0000" fill-rule="evenodd" fill-opacity="0.5" stroke="none"/>
<circle clip-path="url(#clip822)" cx="1368.79" cy="370.662" r="14.4" fill="#ff0000" fill-rule="evenodd" fill-opacity="0.5" stroke="none"/>
<circle clip-path="url(#clip822)" cx="1388.48" cy="356.09" r="14.4" fill="#ff0000" fill-rule="evenodd" fill-opacity="0.5" stroke="none"/>
<circle clip-path="url(#clip822)" cx="1408.17" cy="896.08" r="14.4" fill="#ff0000" fill-rule="evenodd" fill-opacity="0.5" stroke="none"/>
<circle clip-path="url(#clip822)" cx="1427.86" cy="381.794" r="14.4" fill="#ff0000" fill-rule="evenodd" fill-opacity="0.5" stroke="none"/>
<circle clip-path="url(#clip822)" cx="1447.56" cy="896.891" r="14.4" fill="#ff0000" fill-rule="evenodd" fill-opacity="0.5" stroke="none"/>
<circle clip-path="url(#clip822)" cx="1467.25" cy="911.599" r="14.4" fill="#ff0000" fill-rule="evenodd" fill-opacity="0.5" stroke="none"/>
<circle clip-path="url(#clip822)" cx="1486.94" cy="896.315" r="14.4" fill="#ff0000" fill-rule="evenodd" fill-opacity="0.5" stroke="none"/>
<circle clip-path="url(#clip822)" cx="1506.63" cy="787.087" r="14.4" fill="#ff0000" fill-rule="evenodd" fill-opacity="0.5" stroke="none"/>
<circle clip-path="url(#clip822)" cx="1526.32" cy="896.324" r="14.4" fill="#ff0000" fill-rule="evenodd" fill-opacity="0.5" stroke="none"/>
<circle clip-path="url(#clip822)" cx="1546.01" cy="924.326" r="14.4" fill="#ff0000" fill-rule="evenodd" fill-opacity="0.5" stroke="none"/>
<circle clip-path="url(#clip822)" cx="1565.7" cy="883.588" r="14.4" fill="#ff0000" fill-rule="evenodd" fill-opacity="0.5" stroke="none"/>
<circle clip-path="url(#clip822)" cx="1585.39" cy="803.522" r="14.4" fill="#ff0000" fill-rule="evenodd" fill-opacity="0.5" stroke="none"/>
<circle clip-path="url(#clip822)" cx="1605.08" cy="726.505" r="14.4" fill="#ff0000" fill-rule="evenodd" fill-opacity="0.5" stroke="none"/>
<circle clip-path="url(#clip822)" cx="1624.78" cy="547.703" r="14.4" fill="#ff0000" fill-rule="evenodd" fill-opacity="0.5" stroke="none"/>
<circle clip-path="url(#clip822)" cx="1644.47" cy="695.058" r="14.4" fill="#ff0000" fill-rule="evenodd" fill-opacity="0.5" stroke="none"/>
<circle clip-path="url(#clip822)" cx="1664.16" cy="826.782" r="14.4" fill="#ff0000" fill-rule="evenodd" fill-opacity="0.5" stroke="none"/>
<circle clip-path="url(#clip822)" cx="1683.85" cy="959.33" r="14.4" fill="#ff0000" fill-rule="evenodd" fill-opacity="0.5" stroke="none"/>
<circle clip-path="url(#clip822)" cx="1703.54" cy="805.951" r="14.4" fill="#ff0000" fill-rule="evenodd" fill-opacity="0.5" stroke="none"/>
<circle clip-path="url(#clip822)" cx="1723.23" cy="803.037" r="14.4" fill="#ff0000" fill-rule="evenodd" fill-opacity="0.5" stroke="none"/>
<circle clip-path="url(#clip822)" cx="1742.92" cy="875.282" r="14.4" fill="#ff0000" fill-rule="evenodd" fill-opacity="0.5" stroke="none"/>
<circle clip-path="url(#clip822)" cx="1762.61" cy="872.885" r="14.4" fill="#ff0000" fill-rule="evenodd" fill-opacity="0.5" stroke="none"/>
<circle clip-path="url(#clip822)" cx="1782.3" cy="692.175" r="14.4" fill="#ff0000" fill-rule="evenodd" fill-opacity="0.5" stroke="none"/>
<circle clip-path="url(#clip822)" cx="1802" cy="1066.75" r="14.4" fill="#ff0000" fill-rule="evenodd" fill-opacity="0.5" stroke="none"/>
<circle clip-path="url(#clip822)" cx="1821.69" cy="857.509" r="14.4" fill="#ff0000" fill-rule="evenodd" fill-opacity="0.5" stroke="none"/>
<circle clip-path="url(#clip822)" cx="1841.38" cy="1118.11" r="14.4" fill="#ff0000" fill-rule="evenodd" fill-opacity="0.5" stroke="none"/>
<circle clip-path="url(#clip822)" cx="1861.07" cy="895.777" r="14.4" fill="#ff0000" fill-rule="evenodd" fill-opacity="0.5" stroke="none"/>
<circle clip-path="url(#clip822)" cx="1880.76" cy="961.747" r="14.4" fill="#ff0000" fill-rule="evenodd" fill-opacity="0.5" stroke="none"/>
<circle clip-path="url(#clip822)" cx="1900.45" cy="799.432" r="14.4" fill="#ff0000" fill-rule="evenodd" fill-opacity="0.5" stroke="none"/>
<circle clip-path="url(#clip822)" cx="1920.14" cy="751.713" r="14.4" fill="#ff0000" fill-rule="evenodd" fill-opacity="0.5" stroke="none"/>
<circle clip-path="url(#clip822)" cx="1939.83" cy="716.572" r="14.4" fill="#ff0000" fill-rule="evenodd" fill-opacity="0.5" stroke="none"/>
<circle clip-path="url(#clip822)" cx="1959.52" cy="893.014" r="14.4" fill="#ff0000" fill-rule="evenodd" fill-opacity="0.5" stroke="none"/>
<circle clip-path="url(#clip822)" cx="1979.22" cy="216.976" r="14.4" fill="#ff0000" fill-rule="evenodd" fill-opacity="0.5" stroke="none"/>
<circle clip-path="url(#clip822)" cx="1998.91" cy="802.125" r="14.4" fill="#ff0000" fill-rule="evenodd" fill-opacity="0.5" stroke="none"/>
<circle clip-path="url(#clip822)" cx="2018.6" cy="909.336" r="14.4" fill="#ff0000" fill-rule="evenodd" fill-opacity="0.5" stroke="none"/>
<circle clip-path="url(#clip822)" cx="2038.29" cy="378.55" r="14.4" fill="#ff0000" fill-rule="evenodd" fill-opacity="0.5" stroke="none"/>
<circle clip-path="url(#clip822)" cx="2057.98" cy="887.981" r="14.4" fill="#ff0000" fill-rule="evenodd" fill-opacity="0.5" stroke="none"/>
<circle clip-path="url(#clip822)" cx="2077.67" cy="876.792" r="14.4" fill="#ff0000" fill-rule="evenodd" fill-opacity="0.5" stroke="none"/>
<circle clip-path="url(#clip822)" cx="2097.36" cy="750.128" r="14.4" fill="#ff0000" fill-rule="evenodd" fill-opacity="0.5" stroke="none"/>
<circle clip-path="url(#clip822)" cx="2117.05" cy="907.297" r="14.4" fill="#ff0000" fill-rule="evenodd" fill-opacity="0.5" stroke="none"/>
<circle clip-path="url(#clip822)" cx="2136.74" cy="926.643" r="14.4" fill="#ff0000" fill-rule="evenodd" fill-opacity="0.5" stroke="none"/>
<circle clip-path="url(#clip822)" cx="2156.44" cy="806.797" r="14.4" fill="#ff0000" fill-rule="evenodd" fill-opacity="0.5" stroke="none"/>
<circle clip-path="url(#clip822)" cx="2176.13" cy="896.337" r="14.4" fill="#ff0000" fill-rule="evenodd" fill-opacity="0.5" stroke="none"/>
<circle clip-path="url(#clip822)" cx="2195.82" cy="821.866" r="14.4" fill="#ff0000" fill-rule="evenodd" fill-opacity="0.5" stroke="none"/>
<circle clip-path="url(#clip822)" cx="2215.51" cy="758.577" r="14.4" fill="#ff0000" fill-rule="evenodd" fill-opacity="0.5" stroke="none"/>
<circle clip-path="url(#clip822)" cx="2235.2" cy="906.742" r="14.4" fill="#ff0000" fill-rule="evenodd" fill-opacity="0.5" stroke="none"/>
<circle clip-path="url(#clip822)" cx="2254.89" cy="964.687" r="14.4" fill="#ff0000" fill-rule="evenodd" fill-opacity="0.5" stroke="none"/>
<circle clip-path="url(#clip822)" cx="2274.58" cy="897.405" r="14.4" fill="#ff0000" fill-rule="evenodd" fill-opacity="0.5" stroke="none"/>
<circle clip-path="url(#clip822)" cx="2294.27" cy="881.322" r="14.4" fill="#ff0000" fill-rule="evenodd" fill-opacity="0.5" stroke="none"/>
<polyline clip-path="url(#clip822)" style="stroke:#ff0000; stroke-linecap:round; stroke-linejoin:round; stroke-width:4; stroke-opacity:1; fill:none" points="-1780.01,799.716 4419.14,799.716 "/>
<path clip-path="url(#clip820)" d="M355.25 1379.86 L772.489 1379.86 L772.489 1224.34 L355.25 1224.34  Z" fill="#ffffff" fill-rule="evenodd" fill-opacity="1"/>
<polyline clip-path="url(#clip820)" style="stroke:#000000; stroke-linecap:round; stroke-linejoin:round; stroke-width:4; stroke-opacity:1; fill:none" points="355.25,1379.86 772.489,1379.86 772.489,1224.34 355.25,1224.34 355.25,1379.86 "/>
<circle clip-path="url(#clip820)" cx="447.089" cy="1276.18" r="23.04" fill="#000000" fill-rule="evenodd" fill-opacity="0.5" stroke="none"/>
<path clip-path="url(#clip820)" d="M544.253 1267.53 L548.512 1267.53 L548.512 1293.92 Q548.512 1298.87 546.614 1301.1 Q544.739 1303.32 540.549 1303.32 L538.929 1303.32 L538.929 1299.71 L540.063 1299.71 Q542.494 1299.71 543.373 1298.57 Q544.253 1297.46 544.253 1293.92 L544.253 1267.53 M544.253 1257.44 L548.512 1257.44 L548.512 1262.83 L544.253 1262.83 L544.253 1257.44 Z" fill="#000000" fill-rule="nonzero" fill-opacity="1" /><path clip-path="url(#clip820)" d="M569.206 1280.42 Q564.044 1280.42 562.054 1281.6 Q560.063 1282.79 560.063 1285.63 Q560.063 1287.9 561.544 1289.24 Q563.049 1290.56 565.618 1290.56 Q569.16 1290.56 571.29 1288.06 Q573.442 1285.54 573.442 1281.37 L573.442 1280.42 L569.206 1280.42 M577.702 1278.66 L577.702 1293.46 L573.442 1293.46 L573.442 1289.52 Q571.984 1291.88 569.808 1293.02 Q567.632 1294.13 564.484 1294.13 Q560.503 1294.13 558.142 1291.91 Q555.804 1289.66 555.804 1285.91 Q555.804 1281.54 558.72 1279.31 Q561.66 1277.09 567.47 1277.09 L573.442 1277.09 L573.442 1276.67 Q573.442 1273.73 571.498 1272.14 Q569.577 1270.52 566.081 1270.52 Q563.859 1270.52 561.753 1271.05 Q559.646 1271.58 557.702 1272.65 L557.702 1268.71 Q560.04 1267.81 562.239 1267.37 Q564.438 1266.91 566.521 1266.91 Q572.146 1266.91 574.924 1269.82 Q577.702 1272.74 577.702 1278.66 Z" fill="#000000" fill-rule="nonzero" fill-opacity="1" /><path clip-path="url(#clip820)" d="M605.132 1268.53 L605.132 1272.51 Q603.327 1271.51 601.498 1271.03 Q599.692 1270.52 597.84 1270.52 Q593.697 1270.52 591.405 1273.16 Q589.114 1275.77 589.114 1280.52 Q589.114 1285.26 591.405 1287.9 Q593.697 1290.52 597.84 1290.52 Q599.692 1290.52 601.498 1290.03 Q603.327 1289.52 605.132 1288.53 L605.132 1292.46 Q603.35 1293.29 601.428 1293.71 Q599.53 1294.13 597.378 1294.13 Q591.521 1294.13 588.072 1290.45 Q584.623 1286.77 584.623 1280.52 Q584.623 1274.17 588.095 1270.54 Q591.591 1266.91 597.655 1266.91 Q599.623 1266.91 601.498 1267.32 Q603.373 1267.72 605.132 1268.53 Z" fill="#000000" fill-rule="nonzero" fill-opacity="1" /><path clip-path="url(#clip820)" d="M612.377 1257.44 L616.66 1257.44 L616.66 1278.71 L629.368 1267.53 L634.808 1267.53 L621.058 1279.66 L635.387 1293.46 L629.831 1293.46 L616.66 1280.79 L616.66 1293.46 L612.377 1293.46 L612.377 1257.44 Z" fill="#000000" fill-rule="nonzero" fill-opacity="1" /><path clip-path="url(#clip820)" d="M639.831 1257.44 L644.113 1257.44 L644.113 1278.71 L656.822 1267.53 L662.261 1267.53 L648.511 1279.66 L662.84 1293.46 L657.285 1293.46 L644.113 1280.79 L644.113 1293.46 L639.831 1293.46 L639.831 1257.44 Z" fill="#000000" fill-rule="nonzero" fill-opacity="1" /><path clip-path="url(#clip820)" d="M688.997 1277.81 L688.997 1293.46 L684.738 1293.46 L684.738 1277.95 Q684.738 1274.27 683.303 1272.44 Q681.868 1270.61 678.997 1270.61 Q675.548 1270.61 673.558 1272.81 Q671.567 1275.01 671.567 1278.8 L671.567 1293.46 L667.285 1293.46 L667.285 1267.53 L671.567 1267.53 L671.567 1271.56 Q673.095 1269.22 675.155 1268.06 Q677.238 1266.91 679.947 1266.91 Q684.414 1266.91 686.706 1269.68 Q688.997 1272.44 688.997 1277.81 Z" fill="#000000" fill-rule="nonzero" fill-opacity="1" /><path clip-path="url(#clip820)" d="M697.493 1267.53 L701.752 1267.53 L701.752 1293.46 L697.493 1293.46 L697.493 1267.53 M697.493 1257.44 L701.752 1257.44 L701.752 1262.83 L697.493 1262.83 L697.493 1257.44 Z" fill="#000000" fill-rule="nonzero" fill-opacity="1" /><path clip-path="url(#clip820)" d="M723.789 1257.44 L723.789 1260.98 L719.715 1260.98 Q717.423 1260.98 716.52 1261.91 Q715.641 1262.83 715.641 1265.24 L715.641 1267.53 L722.655 1267.53 L722.655 1270.84 L715.641 1270.84 L715.641 1293.46 L711.358 1293.46 L711.358 1270.84 L707.284 1270.84 L707.284 1267.53 L711.358 1267.53 L711.358 1265.72 Q711.358 1261.4 713.372 1259.43 Q715.386 1257.44 719.761 1257.44 L723.789 1257.44 Z" fill="#000000" fill-rule="nonzero" fill-opacity="1" /><path clip-path="url(#clip820)" d="M749.529 1279.43 L749.529 1281.51 L729.946 1281.51 Q730.224 1285.91 732.585 1288.22 Q734.969 1290.52 739.205 1290.52 Q741.659 1290.52 743.951 1289.91 Q746.266 1289.31 748.534 1288.11 L748.534 1292.14 Q746.242 1293.11 743.835 1293.62 Q741.428 1294.13 738.951 1294.13 Q732.747 1294.13 729.113 1290.52 Q725.502 1286.91 725.502 1280.75 Q725.502 1274.38 728.928 1270.66 Q732.377 1266.91 738.21 1266.91 Q743.442 1266.91 746.474 1270.29 Q749.529 1273.64 749.529 1279.43 M745.27 1278.18 Q745.224 1274.68 743.303 1272.6 Q741.405 1270.52 738.256 1270.52 Q734.692 1270.52 732.539 1272.53 Q730.409 1274.54 730.085 1278.2 L745.27 1278.18 Z" fill="#000000" fill-rule="nonzero" fill-opacity="1" /><circle clip-path="url(#clip820)" cx="447.089" cy="1328.02" r="23.04" fill="#ff0000" fill-rule="evenodd" fill-opacity="0.5" stroke="none"/>
<path clip-path="url(#clip820)" d="M557.841 1323.31 L557.841 1309.28 L562.1 1309.28 L562.1 1345.3 L557.841 1345.3 L557.841 1341.41 Q556.498 1343.72 554.438 1344.86 Q552.401 1345.97 549.531 1345.97 Q544.831 1345.97 541.869 1342.22 Q538.929 1338.47 538.929 1332.36 Q538.929 1326.25 541.869 1322.5 Q544.831 1318.75 549.531 1318.75 Q552.401 1318.75 554.438 1319.88 Q556.498 1320.99 557.841 1323.31 M543.327 1332.36 Q543.327 1337.06 545.248 1339.74 Q547.193 1342.4 550.572 1342.4 Q553.952 1342.4 555.896 1339.74 Q557.841 1337.06 557.841 1332.36 Q557.841 1327.66 555.896 1325 Q553.952 1322.31 550.572 1322.31 Q547.193 1322.31 545.248 1325 Q543.327 1327.66 543.327 1332.36 Z" fill="#000000" fill-rule="nonzero" fill-opacity="1" /><path clip-path="url(#clip820)" d="M583.998 1309.28 L583.998 1312.82 L579.924 1312.82 Q577.632 1312.82 576.729 1313.75 Q575.85 1314.67 575.85 1317.08 L575.85 1319.37 L582.864 1319.37 L582.864 1322.68 L575.85 1322.68 L575.85 1345.3 L571.567 1345.3 L571.567 1322.68 L567.493 1322.68 L567.493 1319.37 L571.567 1319.37 L571.567 1317.56 Q571.567 1313.24 573.581 1311.27 Q575.595 1309.28 579.97 1309.28 L583.998 1309.28 Z" fill="#000000" fill-rule="nonzero" fill-opacity="1" /><path clip-path="url(#clip820)" d="M606.174 1332.36 Q606.174 1327.66 604.229 1325 Q602.308 1322.31 598.928 1322.31 Q595.549 1322.31 593.604 1325 Q591.683 1327.66 591.683 1332.36 Q591.683 1337.06 593.604 1339.74 Q595.549 1342.4 598.928 1342.4 Q602.308 1342.4 604.229 1339.74 Q606.174 1337.06 606.174 1332.36 M591.683 1323.31 Q593.026 1320.99 595.063 1319.88 Q597.123 1318.75 599.97 1318.75 Q604.692 1318.75 607.632 1322.5 Q610.595 1326.25 610.595 1332.36 Q610.595 1338.47 607.632 1342.22 Q604.692 1345.97 599.97 1345.97 Q597.123 1345.97 595.063 1344.86 Q593.026 1343.72 591.683 1341.41 L591.683 1345.3 L587.401 1345.3 L587.401 1309.28 L591.683 1309.28 L591.683 1323.31 Z" fill="#000000" fill-rule="nonzero" fill-opacity="1" /><path clip-path="url(#clip820)" d="M639.831 1331.27 L639.831 1333.35 L620.248 1333.35 Q620.526 1337.75 622.887 1340.06 Q625.271 1342.36 629.507 1342.36 Q631.961 1342.36 634.252 1341.75 Q636.567 1341.15 638.836 1339.95 L638.836 1343.98 Q636.544 1344.95 634.137 1345.46 Q631.729 1345.97 629.252 1345.97 Q623.049 1345.97 619.414 1342.36 Q615.803 1338.75 615.803 1332.59 Q615.803 1326.22 619.229 1322.5 Q622.678 1318.75 628.512 1318.75 Q633.743 1318.75 636.775 1322.13 Q639.831 1325.48 639.831 1331.27 M635.572 1330.02 Q635.525 1326.52 633.604 1324.44 Q631.706 1322.36 628.558 1322.36 Q624.993 1322.36 622.84 1324.37 Q620.711 1326.38 620.387 1330.04 L635.572 1330.02 Z" fill="#000000" fill-rule="nonzero" fill-opacity="1" /><path clip-path="url(#clip820)" d="M651.035 1312.01 L651.035 1319.37 L659.808 1319.37 L659.808 1322.68 L651.035 1322.68 L651.035 1336.75 Q651.035 1339.93 651.891 1340.83 Q652.771 1341.73 655.433 1341.73 L659.808 1341.73 L659.808 1345.3 L655.433 1345.3 Q650.502 1345.3 648.627 1343.47 Q646.752 1341.62 646.752 1336.75 L646.752 1322.68 L643.627 1322.68 L643.627 1319.37 L646.752 1319.37 L646.752 1312.01 L651.035 1312.01 Z" fill="#000000" fill-rule="nonzero" fill-opacity="1" /><path clip-path="url(#clip820)" d="M677.192 1332.26 Q672.03 1332.26 670.039 1333.44 Q668.048 1334.63 668.048 1337.47 Q668.048 1339.74 669.53 1341.08 Q671.035 1342.4 673.604 1342.4 Q677.146 1342.4 679.275 1339.9 Q681.428 1337.38 681.428 1333.21 L681.428 1332.26 L677.192 1332.26 M685.687 1330.5 L685.687 1345.3 L681.428 1345.3 L681.428 1341.36 Q679.97 1343.72 677.794 1344.86 Q675.618 1345.97 672.47 1345.97 Q668.488 1345.97 666.127 1343.75 Q663.789 1341.5 663.789 1337.75 Q663.789 1333.38 666.706 1331.15 Q669.646 1328.93 675.456 1328.93 L681.428 1328.93 L681.428 1328.51 Q681.428 1325.57 679.484 1323.98 Q677.562 1322.36 674.067 1322.36 Q671.845 1322.36 669.738 1322.89 Q667.632 1323.42 665.687 1324.49 L665.687 1320.55 Q668.025 1319.65 670.224 1319.21 Q672.423 1318.75 674.507 1318.75 Q680.132 1318.75 682.909 1321.66 Q685.687 1324.58 685.687 1330.5 Z" fill="#000000" fill-rule="nonzero" fill-opacity="1" /></svg>
