<?xml version="1.0" encoding="utf-8"?>
<svg xmlns="http://www.w3.org/2000/svg" xmlns:xlink="http://www.w3.org/1999/xlink" width="600" height="400" viewBox="0 0 2400 1600">
<defs>
  <clipPath id="clip390">
    <rect x="0" y="0" width="2400" height="1600"/>
  </clipPath>
</defs>
<path clip-path="url(#clip390)" d="M0 1600 L2400 1600 L2400 0 L0 0  Z" fill="#ffffff" fill-rule="evenodd" fill-opacity="1"/>
<defs>
  <clipPath id="clip391">
    <rect x="480" y="0" width="1681" height="1600"/>
  </clipPath>
</defs>
<path clip-path="url(#clip390)" d="M219.38 1423.18 L2352.76 1423.18 L2352.76 123.472 L219.38 123.472  Z" fill="#ffffff" fill-rule="evenodd" fill-opacity="1"/>
<defs>
  <clipPath id="clip392">
    <rect x="219" y="123" width="2134" height="1301"/>
  </clipPath>
</defs>
<polyline clip-path="url(#clip390)" style="stroke:#000000; stroke-linecap:round; stroke-linejoin:round; stroke-width:4; stroke-opacity:1; fill:none" points="219.38,1423.18 2352.76,1423.18 "/>
<polyline clip-path="url(#clip390)" style="stroke:#000000; stroke-linecap:round; stroke-linejoin:round; stroke-width:4; stroke-opacity:1; fill:none" points="279.759,1423.18 279.759,1404.28 "/>
<polyline clip-path="url(#clip390)" style="stroke:#000000; stroke-linecap:round; stroke-linejoin:round; stroke-width:4; stroke-opacity:1; fill:none" points="727.007,1423.18 727.007,1404.28 "/>
<polyline clip-path="url(#clip390)" style="stroke:#000000; stroke-linecap:round; stroke-linejoin:round; stroke-width:4; stroke-opacity:1; fill:none" points="1174.26,1423.18 1174.26,1404.28 "/>
<polyline clip-path="url(#clip390)" style="stroke:#000000; stroke-linecap:round; stroke-linejoin:round; stroke-width:4; stroke-opacity:1; fill:none" points="1621.5,1423.18 1621.5,1404.28 "/>
<polyline clip-path="url(#clip390)" style="stroke:#000000; stroke-linecap:round; stroke-linejoin:round; stroke-width:4; stroke-opacity:1; fill:none" points="2068.75,1423.18 2068.75,1404.28 "/>
<path clip-path="url(#clip390)" d="M279.759 1454.1 Q276.148 1454.1 274.319 1457.66 Q272.513 1461.2 272.513 1468.33 Q272.513 1475.44 274.319 1479.01 Q276.148 1482.55 279.759 1482.55 Q283.393 1482.55 285.199 1479.01 Q287.027 1475.44 287.027 1468.33 Q287.027 1461.2 285.199 1457.66 Q283.393 1454.1 279.759 1454.1 M279.759 1450.39 Q285.569 1450.39 288.624 1455 Q291.703 1459.58 291.703 1468.33 Q291.703 1477.06 288.624 1481.67 Q285.569 1486.25 279.759 1486.25 Q273.949 1486.25 270.87 1481.67 Q267.814 1477.06 267.814 1468.33 Q267.814 1459.58 270.87 1455 Q273.949 1450.39 279.759 1450.39 Z" fill="#000000" fill-rule="nonzero" fill-opacity="1" /><path clip-path="url(#clip390)" d="M721.66 1481.64 L737.979 1481.64 L737.979 1485.58 L716.035 1485.58 L716.035 1481.64 Q718.697 1478.89 723.28 1474.26 Q727.887 1469.61 729.067 1468.27 Q731.313 1465.74 732.192 1464.01 Q733.095 1462.25 733.095 1460.56 Q733.095 1457.8 731.151 1456.07 Q729.23 1454.33 726.128 1454.33 Q723.929 1454.33 721.475 1455.09 Q719.044 1455.86 716.267 1457.41 L716.267 1452.69 Q719.091 1451.55 721.544 1450.97 Q723.998 1450.39 726.035 1450.39 Q731.405 1450.39 734.6 1453.08 Q737.794 1455.77 737.794 1460.26 Q737.794 1462.39 736.984 1464.31 Q736.197 1466.2 734.091 1468.8 Q733.512 1469.47 730.41 1472.69 Q727.308 1475.88 721.66 1481.64 Z" fill="#000000" fill-rule="nonzero" fill-opacity="1" /><path clip-path="url(#clip390)" d="M1177.27 1455.09 L1165.46 1473.54 L1177.27 1473.54 L1177.27 1455.09 M1176.04 1451.02 L1181.92 1451.02 L1181.92 1473.54 L1186.85 1473.54 L1186.85 1477.43 L1181.92 1477.43 L1181.92 1485.58 L1177.27 1485.58 L1177.27 1477.43 L1161.66 1477.43 L1161.66 1472.92 L1176.04 1451.02 Z" fill="#000000" fill-rule="nonzero" fill-opacity="1" /><path clip-path="url(#clip390)" d="M1621.91 1466.44 Q1618.76 1466.44 1616.91 1468.59 Q1615.08 1470.74 1615.08 1474.49 Q1615.08 1478.22 1616.91 1480.39 Q1618.76 1482.55 1621.91 1482.55 Q1625.06 1482.55 1626.89 1480.39 Q1628.74 1478.22 1628.74 1474.49 Q1628.74 1470.74 1626.89 1468.59 Q1625.06 1466.44 1621.91 1466.44 M1631.19 1451.78 L1631.19 1456.04 Q1629.43 1455.21 1627.63 1454.77 Q1625.84 1454.33 1624.09 1454.33 Q1619.46 1454.33 1617 1457.45 Q1614.57 1460.58 1614.22 1466.9 Q1615.59 1464.89 1617.65 1463.82 Q1619.71 1462.73 1622.19 1462.73 Q1627.4 1462.73 1630.4 1465.9 Q1633.44 1469.05 1633.44 1474.49 Q1633.44 1479.82 1630.29 1483.03 Q1627.14 1486.25 1621.91 1486.25 Q1615.91 1486.25 1612.74 1481.67 Q1609.57 1477.06 1609.57 1468.33 Q1609.57 1460.14 1613.46 1455.28 Q1617.35 1450.39 1623.9 1450.39 Q1625.66 1450.39 1627.44 1450.74 Q1629.25 1451.09 1631.19 1451.78 Z" fill="#000000" fill-rule="nonzero" fill-opacity="1" /><path clip-path="url(#clip390)" d="M2068.75 1469.17 Q2065.42 1469.17 2063.5 1470.95 Q2061.6 1472.73 2061.6 1475.86 Q2061.6 1478.98 2063.5 1480.77 Q2065.42 1482.55 2068.75 1482.55 Q2072.09 1482.55 2074.01 1480.77 Q2075.93 1478.96 2075.93 1475.86 Q2075.93 1472.73 2074.01 1470.95 Q2072.11 1469.17 2068.75 1469.17 M2064.08 1467.18 Q2061.07 1466.44 2059.38 1464.38 Q2057.71 1462.32 2057.71 1459.35 Q2057.71 1455.21 2060.65 1452.8 Q2063.61 1450.39 2068.75 1450.39 Q2073.92 1450.39 2076.85 1452.8 Q2079.79 1455.21 2079.79 1459.35 Q2079.79 1462.32 2078.1 1464.38 Q2076.44 1466.44 2073.45 1467.18 Q2076.83 1467.96 2078.71 1470.26 Q2080.6 1472.55 2080.6 1475.86 Q2080.6 1480.88 2077.53 1483.57 Q2074.47 1486.25 2068.75 1486.25 Q2063.04 1486.25 2059.96 1483.57 Q2056.9 1480.88 2056.9 1475.86 Q2056.9 1472.55 2058.8 1470.26 Q2060.7 1467.96 2064.08 1467.18 M2062.36 1459.79 Q2062.36 1462.48 2064.03 1463.98 Q2065.72 1465.49 2068.75 1465.49 Q2071.76 1465.49 2073.45 1463.98 Q2075.17 1462.48 2075.17 1459.79 Q2075.17 1457.11 2073.45 1455.6 Q2071.76 1454.1 2068.75 1454.1 Q2065.72 1454.1 2064.03 1455.6 Q2062.36 1457.11 2062.36 1459.79 Z" fill="#000000" fill-rule="nonzero" fill-opacity="1" /><path clip-path="url(#clip390)" d="M1207.94 1520.52 L1248.14 1520.52 L1248.14 1525.93 L1231.28 1525.93 L1231.28 1568.04 L1224.81 1568.04 L1224.81 1525.93 L1207.94 1525.93 L1207.94 1520.52 Z" fill="#000000" fill-rule="nonzero" fill-opacity="1" /><path clip-path="url(#clip390)" d="M1252.09 1532.4 L1257.95 1532.4 L1257.95 1568.04 L1252.09 1568.04 L1252.09 1532.4 M1252.09 1518.52 L1257.95 1518.52 L1257.95 1525.93 L1252.09 1525.93 L1252.09 1518.52 Z" fill="#000000" fill-rule="nonzero" fill-opacity="1" /><path clip-path="url(#clip390)" d="M1297.96 1539.24 Q1300.15 1535.29 1303.21 1533.41 Q1306.26 1531.54 1310.4 1531.54 Q1315.97 1531.54 1318.99 1535.45 Q1322.02 1539.33 1322.02 1546.53 L1322.02 1568.04 L1316.13 1568.04 L1316.13 1546.72 Q1316.13 1541.59 1314.32 1539.11 Q1312.5 1536.63 1308.78 1536.63 Q1304.23 1536.63 1301.58 1539.65 Q1298.94 1542.68 1298.94 1547.9 L1298.94 1568.04 L1293.05 1568.04 L1293.05 1546.72 Q1293.05 1541.56 1291.24 1539.11 Q1289.43 1536.63 1285.64 1536.63 Q1281.15 1536.63 1278.51 1539.68 Q1275.87 1542.71 1275.87 1547.9 L1275.87 1568.04 L1269.98 1568.04 L1269.98 1532.4 L1275.87 1532.4 L1275.87 1537.93 Q1277.87 1534.66 1280.67 1533.1 Q1283.47 1531.54 1287.33 1531.54 Q1291.21 1531.54 1293.91 1533.51 Q1296.65 1535.48 1297.96 1539.24 Z" fill="#000000" fill-rule="nonzero" fill-opacity="1" /><path clip-path="url(#clip390)" d="M1364.19 1548.76 L1364.19 1551.62 L1337.26 1551.62 Q1337.65 1557.67 1340.89 1560.85 Q1344.17 1564 1350 1564 Q1353.37 1564 1356.52 1563.17 Q1359.7 1562.35 1362.82 1560.69 L1362.82 1566.23 Q1359.67 1567.57 1356.36 1568.27 Q1353.05 1568.97 1349.65 1568.97 Q1341.12 1568.97 1336.12 1564 Q1331.15 1559.04 1331.15 1550.57 Q1331.15 1541.82 1335.86 1536.69 Q1340.61 1531.54 1348.63 1531.54 Q1355.82 1531.54 1359.99 1536.18 Q1364.19 1540.8 1364.19 1548.76 M1358.33 1547.04 Q1358.27 1542.23 1355.63 1539.37 Q1353.02 1536.5 1348.69 1536.5 Q1343.79 1536.5 1340.83 1539.27 Q1337.9 1542.04 1337.46 1547.07 L1358.33 1547.04 Z" fill="#000000" fill-rule="nonzero" fill-opacity="1" /><polyline clip-path="url(#clip390)" style="stroke:#000000; stroke-linecap:round; stroke-linejoin:round; stroke-width:4; stroke-opacity:1; fill:none" points="219.38,1423.18 219.38,123.472 "/>
<polyline clip-path="url(#clip390)" style="stroke:#000000; stroke-linecap:round; stroke-linejoin:round; stroke-width:4; stroke-opacity:1; fill:none" points="219.38,1386.4 238.278,1386.4 "/>
<polyline clip-path="url(#clip390)" style="stroke:#000000; stroke-linecap:round; stroke-linejoin:round; stroke-width:4; stroke-opacity:1; fill:none" points="219.38,974.831 238.278,974.831 "/>
<polyline clip-path="url(#clip390)" style="stroke:#000000; stroke-linecap:round; stroke-linejoin:round; stroke-width:4; stroke-opacity:1; fill:none" points="219.38,563.267 238.278,563.267 "/>
<polyline clip-path="url(#clip390)" style="stroke:#000000; stroke-linecap:round; stroke-linejoin:round; stroke-width:4; stroke-opacity:1; fill:none" points="219.38,151.703 238.278,151.703 "/>
<path clip-path="url(#clip390)" d="M126.205 1372.19 Q122.593 1372.19 120.765 1375.76 Q118.959 1379.3 118.959 1386.43 Q118.959 1393.54 120.765 1397.1 Q122.593 1400.64 126.205 1400.64 Q129.839 1400.64 131.644 1397.1 Q133.473 1393.54 133.473 1386.43 Q133.473 1379.3 131.644 1375.76 Q129.839 1372.19 126.205 1372.19 M126.205 1368.49 Q132.015 1368.49 135.07 1373.1 Q138.149 1377.68 138.149 1386.43 Q138.149 1395.16 135.07 1399.76 Q132.015 1404.35 126.205 1404.35 Q120.394 1404.35 117.316 1399.76 Q114.26 1395.16 114.26 1386.43 Q114.26 1377.68 117.316 1373.1 Q120.394 1368.49 126.205 1368.49 Z" fill="#000000" fill-rule="nonzero" fill-opacity="1" /><path clip-path="url(#clip390)" d="M146.366 1397.8 L151.251 1397.8 L151.251 1403.68 L146.366 1403.68 L146.366 1397.8 Z" fill="#000000" fill-rule="nonzero" fill-opacity="1" /><path clip-path="url(#clip390)" d="M171.436 1372.19 Q167.825 1372.19 165.996 1375.76 Q164.19 1379.3 164.19 1386.43 Q164.19 1393.54 165.996 1397.1 Q167.825 1400.64 171.436 1400.64 Q175.07 1400.64 176.876 1397.1 Q178.704 1393.54 178.704 1386.43 Q178.704 1379.3 176.876 1375.76 Q175.07 1372.19 171.436 1372.19 M171.436 1368.49 Q177.246 1368.49 180.301 1373.1 Q183.38 1377.68 183.38 1386.43 Q183.38 1395.16 180.301 1399.76 Q177.246 1404.35 171.436 1404.35 Q165.626 1404.35 162.547 1399.76 Q159.491 1395.16 159.491 1386.43 Q159.491 1377.68 162.547 1373.1 Q165.626 1368.49 171.436 1368.49 Z" fill="#000000" fill-rule="nonzero" fill-opacity="1" /><path clip-path="url(#clip390)" d="M127.431 960.63 Q123.82 960.63 121.992 964.195 Q120.186 967.736 120.186 974.866 Q120.186 981.973 121.992 985.537 Q123.82 989.079 127.431 989.079 Q131.066 989.079 132.871 985.537 Q134.7 981.973 134.7 974.866 Q134.7 967.736 132.871 964.195 Q131.066 960.63 127.431 960.63 M127.431 956.926 Q133.242 956.926 136.297 961.533 Q139.376 966.116 139.376 974.866 Q139.376 983.593 136.297 988.199 Q133.242 992.783 127.431 992.783 Q121.621 992.783 118.543 988.199 Q115.487 983.593 115.487 974.866 Q115.487 966.116 118.543 961.533 Q121.621 956.926 127.431 956.926 Z" fill="#000000" fill-rule="nonzero" fill-opacity="1" /><path clip-path="url(#clip390)" d="M147.593 986.232 L152.478 986.232 L152.478 992.111 L147.593 992.111 L147.593 986.232 Z" fill="#000000" fill-rule="nonzero" fill-opacity="1" /><path clip-path="url(#clip390)" d="M163.473 988.176 L171.112 988.176 L171.112 961.811 L162.802 963.477 L162.802 959.218 L171.065 957.551 L175.741 957.551 L175.741 988.176 L183.38 988.176 L183.38 992.111 L163.473 992.111 L163.473 988.176 Z" fill="#000000" fill-rule="nonzero" fill-opacity="1" /><path clip-path="url(#clip390)" d="M127.802 549.066 Q124.191 549.066 122.362 552.631 Q120.556 556.172 120.556 563.302 Q120.556 570.408 122.362 573.973 Q124.191 577.515 127.802 577.515 Q131.436 577.515 133.242 573.973 Q135.07 570.408 135.07 563.302 Q135.07 556.172 133.242 552.631 Q131.436 549.066 127.802 549.066 M127.802 545.362 Q133.612 545.362 136.667 549.969 Q139.746 554.552 139.746 563.302 Q139.746 572.029 136.667 576.635 Q133.612 581.218 127.802 581.218 Q121.992 581.218 118.913 576.635 Q115.857 572.029 115.857 563.302 Q115.857 554.552 118.913 549.969 Q121.992 545.362 127.802 545.362 Z" fill="#000000" fill-rule="nonzero" fill-opacity="1" /><path clip-path="url(#clip390)" d="M147.964 574.667 L152.848 574.667 L152.848 580.547 L147.964 580.547 L147.964 574.667 Z" fill="#000000" fill-rule="nonzero" fill-opacity="1" /><path clip-path="url(#clip390)" d="M167.061 576.612 L183.38 576.612 L183.38 580.547 L161.436 580.547 L161.436 576.612 Q164.098 573.857 168.681 569.228 Q173.288 564.575 174.468 563.232 Q176.714 560.709 177.593 558.973 Q178.496 557.214 178.496 555.524 Q178.496 552.769 176.551 551.033 Q174.63 549.297 171.528 549.297 Q169.329 549.297 166.876 550.061 Q164.445 550.825 161.667 552.376 L161.667 547.654 Q164.491 546.519 166.945 545.941 Q169.399 545.362 171.436 545.362 Q176.806 545.362 180.001 548.047 Q183.195 550.732 183.195 555.223 Q183.195 557.353 182.385 559.274 Q181.598 561.172 179.491 563.765 Q178.913 564.436 175.811 567.654 Q172.709 570.848 167.061 576.612 Z" fill="#000000" fill-rule="nonzero" fill-opacity="1" /><path clip-path="url(#clip390)" d="M126.853 137.501 Q123.242 137.501 121.413 141.066 Q119.607 144.608 119.607 151.737 Q119.607 158.844 121.413 162.409 Q123.242 165.95 126.853 165.95 Q130.487 165.95 132.292 162.409 Q134.121 158.844 134.121 151.737 Q134.121 144.608 132.292 141.066 Q130.487 137.501 126.853 137.501 M126.853 133.798 Q132.663 133.798 135.718 138.404 Q138.797 142.988 138.797 151.737 Q138.797 160.464 135.718 165.071 Q132.663 169.654 126.853 169.654 Q121.043 169.654 117.964 165.071 Q114.908 160.464 114.908 151.737 Q114.908 142.988 117.964 138.404 Q121.043 133.798 126.853 133.798 Z" fill="#000000" fill-rule="nonzero" fill-opacity="1" /><path clip-path="url(#clip390)" d="M147.015 163.103 L151.899 163.103 L151.899 168.983 L147.015 168.983 L147.015 163.103 Z" fill="#000000" fill-rule="nonzero" fill-opacity="1" /><path clip-path="url(#clip390)" d="M176.251 150.349 Q179.607 151.066 181.482 153.335 Q183.38 155.603 183.38 158.937 Q183.38 164.052 179.862 166.853 Q176.343 169.654 169.862 169.654 Q167.686 169.654 165.371 169.214 Q163.079 168.798 160.626 167.941 L160.626 163.427 Q162.57 164.561 164.885 165.14 Q167.2 165.719 169.723 165.719 Q174.121 165.719 176.413 163.983 Q178.727 162.247 178.727 158.937 Q178.727 155.881 176.575 154.168 Q174.445 152.432 170.626 152.432 L166.598 152.432 L166.598 148.589 L170.811 148.589 Q174.26 148.589 176.089 147.224 Q177.917 145.835 177.917 143.242 Q177.917 140.58 176.019 139.168 Q174.144 137.733 170.626 137.733 Q168.704 137.733 166.505 138.15 Q164.306 138.566 161.667 139.446 L161.667 135.279 Q164.329 134.539 166.644 134.168 Q168.982 133.798 171.042 133.798 Q176.366 133.798 179.468 136.228 Q182.57 138.636 182.57 142.756 Q182.57 145.626 180.926 147.617 Q179.283 149.585 176.251 150.349 Z" fill="#000000" fill-rule="nonzero" fill-opacity="1" /><path clip-path="url(#clip390)" d="M21.7677 886.636 L58.7206 886.636 L58.7206 878.869 Q58.7206 869.034 54.2646 864.483 Q49.8086 859.9 40.1964 859.9 Q30.6479 859.9 26.2237 864.483 Q21.7677 869.034 21.7677 878.869 L21.7677 886.636 M16.4842 893.065 L16.4842 879.856 Q16.4842 866.043 22.2451 859.581 Q27.9743 853.12 40.1964 853.12 Q52.4822 853.12 58.2432 859.613 Q64.0042 866.106 64.0042 879.856 L64.0042 893.065 L16.4842 893.065 Z" fill="#000000" fill-rule="nonzero" fill-opacity="1" /><path clip-path="url(#clip390)" d="M44.7161 812.634 L47.5806 812.634 L47.5806 839.561 Q53.6281 839.179 56.8109 835.933 Q59.9619 832.654 59.9619 826.83 Q59.9619 823.456 59.1344 820.305 Q58.3069 817.122 56.6518 814.003 L62.1899 814.003 Q63.5267 817.154 64.227 820.464 Q64.9272 823.774 64.9272 827.18 Q64.9272 835.71 59.9619 840.707 Q54.9967 845.672 46.5303 845.672 Q37.7774 845.672 32.6531 840.962 Q27.4968 836.219 27.4968 828.198 Q27.4968 821.005 32.1438 816.836 Q36.7589 812.634 44.7161 812.634 M42.9973 818.491 Q38.1912 818.554 35.3266 821.196 Q32.4621 823.806 32.4621 828.135 Q32.4621 833.036 35.2312 835.996 Q38.0002 838.925 43.0292 839.37 L42.9973 818.491 Z" fill="#000000" fill-rule="nonzero" fill-opacity="1" /><path clip-path="url(#clip390)" d="M42.4881 773.39 L64.0042 773.39 L64.0042 779.246 L42.679 779.246 Q37.6183 779.246 35.1038 781.219 Q32.5894 783.193 32.5894 787.14 Q32.5894 791.882 35.6131 794.619 Q38.6368 797.357 43.8567 797.357 L64.0042 797.357 L64.0042 803.245 L28.3562 803.245 L28.3562 797.357 L33.8944 797.357 Q30.6797 795.256 29.0883 792.423 Q27.4968 789.559 27.4968 785.835 Q27.4968 779.692 31.3163 776.541 Q35.1038 773.39 42.4881 773.39 Z" fill="#000000" fill-rule="nonzero" fill-opacity="1" /><path clip-path="url(#clip390)" d="M29.4065 738.983 L34.9447 738.983 Q33.6716 741.466 33.035 744.139 Q32.3984 746.813 32.3984 749.677 Q32.3984 754.038 33.7352 756.234 Q35.072 758.398 37.7456 758.398 Q39.7826 758.398 40.9603 756.839 Q42.1061 755.279 43.1565 750.569 L43.6021 748.563 Q44.9389 742.325 47.3897 739.715 Q49.8086 737.073 54.1691 737.073 Q59.1344 737.073 62.0308 741.02 Q64.9272 744.935 64.9272 751.81 Q64.9272 754.674 64.3543 757.794 Q63.8132 760.881 62.6992 764.319 L56.6518 764.319 Q58.3387 761.072 59.198 757.921 Q60.0256 754.77 60.0256 751.683 Q60.0256 747.545 58.6251 745.317 Q57.1929 743.089 54.6147 743.089 Q52.2276 743.089 50.9545 744.712 Q49.6813 746.304 48.5037 751.746 L48.0262 753.783 Q46.8804 759.226 44.5251 761.645 Q42.138 764.064 38.0002 764.064 Q32.9713 764.064 30.2341 760.499 Q27.4968 756.934 27.4968 750.378 Q27.4968 747.131 27.9743 744.267 Q28.4517 741.402 29.4065 738.983 Z" fill="#000000" fill-rule="nonzero" fill-opacity="1" /><path clip-path="url(#clip390)" d="M28.3562 727.748 L28.3562 721.891 L64.0042 721.891 L64.0042 727.748 L28.3562 727.748 M14.479 727.748 L14.479 721.891 L21.895 721.891 L21.895 727.748 L14.479 727.748 Z" fill="#000000" fill-rule="nonzero" fill-opacity="1" /><path clip-path="url(#clip390)" d="M18.2347 703.844 L28.3562 703.844 L28.3562 691.781 L32.9077 691.781 L32.9077 703.844 L52.2594 703.844 Q56.6199 703.844 57.8613 702.667 Q59.1026 701.457 59.1026 697.797 L59.1026 691.781 L64.0042 691.781 L64.0042 697.797 Q64.0042 704.576 61.4897 707.154 Q58.9434 709.733 52.2594 709.733 L32.9077 709.733 L32.9077 714.029 L28.3562 714.029 L28.3562 709.733 L18.2347 709.733 L18.2347 703.844 Z" fill="#000000" fill-rule="nonzero" fill-opacity="1" /><path clip-path="url(#clip390)" d="M67.3143 669.247 Q73.68 671.729 75.6216 674.085 Q77.5631 676.44 77.5631 680.387 L77.5631 685.065 L72.6615 685.065 L72.6615 681.628 Q72.6615 679.209 71.5157 677.872 Q70.3699 676.535 66.1048 674.912 L63.4312 673.862 L28.3562 688.28 L28.3562 682.074 L56.238 670.934 L28.3562 659.794 L28.3562 653.587 L67.3143 669.247 Z" fill="#000000" fill-rule="nonzero" fill-opacity="1" /><path clip-path="url(#clip390)" d="M809.682 12.096 L817.865 12.096 L817.865 65.6895 L847.315 65.6895 L847.315 72.576 L809.682 72.576 L809.682 12.096 Z" fill="#000000" fill-rule="nonzero" fill-opacity="1" /><path clip-path="url(#clip390)" d="M871.701 32.4315 Q865.706 32.4315 862.222 37.1306 Q858.738 41.7891 858.738 49.9314 Q858.738 58.0738 862.181 62.7728 Q865.665 67.4314 871.701 67.4314 Q877.656 67.4314 881.14 62.7323 Q884.623 58.0333 884.623 49.9314 Q884.623 41.8701 881.14 37.1711 Q877.656 32.4315 871.701 32.4315 M871.701 26.1121 Q881.423 26.1121 886.973 32.4315 Q892.523 38.7509 892.523 49.9314 Q892.523 61.0714 886.973 67.4314 Q881.423 73.7508 871.701 73.7508 Q861.938 73.7508 856.389 67.4314 Q850.879 61.0714 850.879 49.9314 Q850.879 38.7509 856.389 32.4315 Q861.938 26.1121 871.701 26.1121 Z" fill="#000000" fill-rule="nonzero" fill-opacity="1" /><path clip-path="url(#clip390)" d="M934.733 49.3643 Q934.733 41.2625 931.371 36.8065 Q928.049 32.3505 922.013 32.3505 Q916.018 32.3505 912.656 36.8065 Q909.334 41.2625 909.334 49.3643 Q909.334 57.4256 912.656 61.8816 Q916.018 66.3376 922.013 66.3376 Q928.049 66.3376 931.371 61.8816 Q934.733 57.4256 934.733 49.3643 M942.187 66.9452 Q942.187 78.5308 937.042 84.1616 Q931.897 89.8329 921.284 89.8329 Q917.355 89.8329 913.871 89.2252 Q910.387 88.6581 907.106 87.4428 L907.106 80.1917 Q910.387 81.9741 913.587 82.8248 Q916.788 83.6755 920.109 83.6755 Q927.441 83.6755 931.087 79.8271 Q934.733 76.0193 934.733 68.282 L934.733 64.5957 Q932.424 68.6061 928.819 70.5911 Q925.213 72.576 920.19 72.576 Q911.845 72.576 906.741 66.2161 Q901.637 59.8562 901.637 49.3643 Q901.637 38.832 906.741 32.472 Q911.845 26.1121 920.19 26.1121 Q925.213 26.1121 928.819 28.0971 Q932.424 30.082 934.733 34.0924 L934.733 27.2059 L942.187 27.2059 L942.187 66.9452 Z" fill="#000000" fill-rule="nonzero" fill-opacity="1" /><path clip-path="url(#clip390)" d="M953.772 46.5287 L975.607 46.5287 L975.607 53.1722 L953.772 53.1722 L953.772 46.5287 Z" fill="#000000" fill-rule="nonzero" fill-opacity="1" /><path clip-path="url(#clip390)" d="M1025.19 45.1919 L1025.19 72.576 L1017.74 72.576 L1017.74 45.4349 Q1017.74 38.994 1015.22 35.7938 Q1012.71 32.5936 1007.69 32.5936 Q1001.65 32.5936 998.17 36.4419 Q994.686 40.2903 994.686 46.9338 L994.686 72.576 L987.192 72.576 L987.192 27.2059 L994.686 27.2059 L994.686 34.2544 Q997.36 30.163 1000.97 28.1376 Q1004.61 26.1121 1009.35 26.1121 Q1017.17 26.1121 1021.18 30.9732 Q1025.19 35.7938 1025.19 45.1919 Z" fill="#000000" fill-rule="nonzero" fill-opacity="1" /><path clip-path="url(#clip390)" d="M1057.64 32.4315 Q1051.64 32.4315 1048.16 37.1306 Q1044.67 41.7891 1044.67 49.9314 Q1044.67 58.0738 1048.12 62.7728 Q1051.6 67.4314 1057.64 67.4314 Q1063.59 67.4314 1067.08 62.7323 Q1070.56 58.0333 1070.56 49.9314 Q1070.56 41.8701 1067.08 37.1711 Q1063.59 32.4315 1057.64 32.4315 M1057.64 26.1121 Q1067.36 26.1121 1072.91 32.4315 Q1078.46 38.7509 1078.46 49.9314 Q1078.46 61.0714 1072.91 67.4314 Q1067.36 73.7508 1057.64 73.7508 Q1047.87 73.7508 1042.33 67.4314 Q1036.82 61.0714 1036.82 49.9314 Q1036.82 38.7509 1042.33 32.4315 Q1047.87 26.1121 1057.64 26.1121 Z" fill="#000000" fill-rule="nonzero" fill-opacity="1" /><path clip-path="url(#clip390)" d="M1117.1 34.1734 Q1115.85 33.4443 1114.35 33.1202 Q1112.89 32.7556 1111.11 32.7556 Q1104.79 32.7556 1101.39 36.8875 Q1098.03 40.9789 1098.03 48.6757 L1098.03 72.576 L1090.53 72.576 L1090.53 27.2059 L1098.03 27.2059 L1098.03 34.2544 Q1100.37 30.1225 1104.14 28.1376 Q1107.91 26.1121 1113.3 26.1121 Q1114.07 26.1121 1115 26.2337 Q1115.93 26.3147 1117.06 26.5172 L1117.1 34.1734 Z" fill="#000000" fill-rule="nonzero" fill-opacity="1" /><path clip-path="url(#clip390)" d="M1158.79 35.9153 Q1161.58 30.8922 1165.47 28.5022 Q1169.36 26.1121 1174.63 26.1121 Q1181.72 26.1121 1185.57 31.0947 Q1189.41 36.0368 1189.41 45.1919 L1189.41 72.576 L1181.92 72.576 L1181.92 45.4349 Q1181.92 38.913 1179.61 35.7533 Q1177.3 32.5936 1172.56 32.5936 Q1166.77 32.5936 1163.41 36.4419 Q1160.04 40.2903 1160.04 46.9338 L1160.04 72.576 L1152.55 72.576 L1152.55 45.4349 Q1152.55 38.8725 1150.24 35.7533 Q1147.93 32.5936 1143.11 32.5936 Q1137.4 32.5936 1134.04 36.4824 Q1130.68 40.3308 1130.68 46.9338 L1130.68 72.576 L1123.18 72.576 L1123.18 27.2059 L1130.68 27.2059 L1130.68 34.2544 Q1133.23 30.082 1136.79 28.0971 Q1140.36 26.1121 1145.26 26.1121 Q1150.2 26.1121 1153.64 28.6237 Q1157.13 31.1352 1158.79 35.9153 Z" fill="#000000" fill-rule="nonzero" fill-opacity="1" /><path clip-path="url(#clip390)" d="M1224.9 49.7694 Q1215.87 49.7694 1212.38 51.8354 Q1208.9 53.9013 1208.9 58.8839 Q1208.9 62.8538 1211.49 65.2034 Q1214.12 67.5124 1218.62 67.5124 Q1224.82 67.5124 1228.55 63.1374 Q1232.31 58.7219 1232.31 51.4303 L1232.31 49.7694 L1224.9 49.7694 M1239.77 46.6907 L1239.77 72.576 L1232.31 72.576 L1232.31 65.6895 Q1229.76 69.8214 1225.95 71.8063 Q1222.14 73.7508 1216.64 73.7508 Q1209.67 73.7508 1205.54 69.8619 Q1201.44 65.9325 1201.44 59.3701 Q1201.44 51.7138 1206.55 47.825 Q1211.69 43.9361 1221.86 43.9361 L1232.31 43.9361 L1232.31 43.2069 Q1232.31 38.0623 1228.91 35.2672 Q1225.55 32.4315 1219.43 32.4315 Q1215.54 32.4315 1211.86 33.3632 Q1208.17 34.295 1204.77 36.1584 L1204.77 29.2718 Q1208.86 27.692 1212.71 26.9223 Q1216.55 26.1121 1220.2 26.1121 Q1230.04 26.1121 1234.91 31.2163 Q1239.77 36.3204 1239.77 46.6907 Z" fill="#000000" fill-rule="nonzero" fill-opacity="1" /><path clip-path="url(#clip390)" d="M1255.12 9.54393 L1262.57 9.54393 L1262.57 72.576 L1255.12 72.576 L1255.12 9.54393 Z" fill="#000000" fill-rule="nonzero" fill-opacity="1" /><path clip-path="url(#clip390)" d="M1334.4 34.0924 L1334.4 9.54393 L1341.85 9.54393 L1341.85 72.576 L1334.4 72.576 L1334.4 65.7705 Q1332.05 69.8214 1328.44 71.8063 Q1324.88 73.7508 1319.85 73.7508 Q1311.63 73.7508 1306.44 67.1883 Q1301.3 60.6258 1301.3 49.9314 Q1301.3 39.2371 1306.44 32.6746 Q1311.63 26.1121 1319.85 26.1121 Q1324.88 26.1121 1328.44 28.0971 Q1332.05 30.0415 1334.4 34.0924 M1309 49.9314 Q1309 58.1548 1312.36 62.8538 Q1315.76 67.5124 1321.68 67.5124 Q1327.59 67.5124 1330.99 62.8538 Q1334.4 58.1548 1334.4 49.9314 Q1334.4 41.7081 1330.99 37.0496 Q1327.59 32.3505 1321.68 32.3505 Q1315.76 32.3505 1312.36 37.0496 Q1309 41.7081 1309 49.9314 Z" fill="#000000" fill-rule="nonzero" fill-opacity="1" /><path clip-path="url(#clip390)" d="M1357.2 27.2059 L1364.66 27.2059 L1364.66 72.576 L1357.2 72.576 L1357.2 27.2059 M1357.2 9.54393 L1364.66 9.54393 L1364.66 18.9825 L1357.2 18.9825 L1357.2 9.54393 Z" fill="#000000" fill-rule="nonzero" fill-opacity="1" /><path clip-path="url(#clip390)" d="M1409.18 28.5427 L1409.18 35.5912 Q1406.02 33.9709 1402.61 33.1607 Q1399.21 32.3505 1395.56 32.3505 Q1390.01 32.3505 1387.22 34.0519 Q1384.46 35.7533 1384.46 39.156 Q1384.46 41.7486 1386.45 43.2475 Q1388.43 44.7058 1394.43 46.0426 L1396.98 46.6097 Q1404.92 48.3111 1408.24 51.4303 Q1411.61 54.509 1411.61 60.0587 Q1411.61 66.3781 1406.58 70.0644 Q1401.6 73.7508 1392.85 73.7508 Q1389.2 73.7508 1385.23 73.0216 Q1381.3 72.3329 1376.93 70.9151 L1376.93 63.2184 Q1381.06 65.3654 1385.07 66.4591 Q1389.08 67.5124 1393.01 67.5124 Q1398.28 67.5124 1401.11 65.73 Q1403.95 63.9071 1403.95 60.6258 Q1403.95 57.5877 1401.88 55.9673 Q1399.86 54.3469 1392.93 52.8481 L1390.34 52.2405 Q1383.41 50.7821 1380.33 47.7845 Q1377.25 44.7463 1377.25 39.4801 Q1377.25 33.0797 1381.79 29.5959 Q1386.33 26.1121 1394.67 26.1121 Q1398.8 26.1121 1402.45 26.7198 Q1406.1 27.3274 1409.18 28.5427 Z" fill="#000000" fill-rule="nonzero" fill-opacity="1" /><path clip-path="url(#clip390)" d="M1430.85 14.324 L1430.85 27.2059 L1446.2 27.2059 L1446.2 32.9987 L1430.85 32.9987 L1430.85 57.6282 Q1430.85 63.1779 1432.35 64.7578 Q1433.89 66.3376 1438.54 66.3376 L1446.2 66.3376 L1446.2 72.576 L1438.54 72.576 Q1429.92 72.576 1426.63 69.3758 Q1423.35 66.1351 1423.35 57.6282 L1423.35 32.9987 L1417.88 32.9987 L1417.88 27.2059 L1423.35 27.2059 L1423.35 14.324 L1430.85 14.324 Z" fill="#000000" fill-rule="nonzero" fill-opacity="1" /><path clip-path="url(#clip390)" d="M1482.29 34.1734 Q1481.04 33.4443 1479.54 33.1202 Q1478.08 32.7556 1476.3 32.7556 Q1469.98 32.7556 1466.58 36.8875 Q1463.21 40.9789 1463.21 48.6757 L1463.21 72.576 L1455.72 72.576 L1455.72 27.2059 L1463.21 27.2059 L1463.21 34.2544 Q1465.56 30.1225 1469.33 28.1376 Q1473.1 26.1121 1478.49 26.1121 Q1479.26 26.1121 1480.19 26.2337 Q1481.12 26.3147 1482.25 26.5172 L1482.29 34.1734 Z" fill="#000000" fill-rule="nonzero" fill-opacity="1" /><path clip-path="url(#clip390)" d="M1490.11 27.2059 L1497.57 27.2059 L1497.57 72.576 L1490.11 72.576 L1490.11 27.2059 M1490.11 9.54393 L1497.57 9.54393 L1497.57 18.9825 L1490.11 18.9825 L1490.11 9.54393 Z" fill="#000000" fill-rule="nonzero" fill-opacity="1" /><path clip-path="url(#clip390)" d="M1545.73 49.9314 Q1545.73 41.7081 1542.33 37.0496 Q1538.97 32.3505 1533.05 32.3505 Q1527.14 32.3505 1523.73 37.0496 Q1520.37 41.7081 1520.37 49.9314 Q1520.37 58.1548 1523.73 62.8538 Q1527.14 67.5124 1533.05 67.5124 Q1538.97 67.5124 1542.33 62.8538 Q1545.73 58.1548 1545.73 49.9314 M1520.37 34.0924 Q1522.72 30.0415 1526.29 28.0971 Q1529.89 26.1121 1534.87 26.1121 Q1543.14 26.1121 1548.28 32.6746 Q1553.47 39.2371 1553.47 49.9314 Q1553.47 60.6258 1548.28 67.1883 Q1543.14 73.7508 1534.87 73.7508 Q1529.89 73.7508 1526.29 71.8063 Q1522.72 69.8214 1520.37 65.7705 L1520.37 72.576 L1512.88 72.576 L1512.88 9.54393 L1520.37 9.54393 L1520.37 34.0924 Z" fill="#000000" fill-rule="nonzero" fill-opacity="1" /><path clip-path="url(#clip390)" d="M1565.05 54.671 L1565.05 27.2059 L1572.51 27.2059 L1572.51 54.3874 Q1572.51 60.8284 1575.02 64.0691 Q1577.53 67.2693 1582.55 67.2693 Q1588.59 67.2693 1592.07 63.421 Q1595.6 59.5726 1595.6 52.9291 L1595.6 27.2059 L1603.05 27.2059 L1603.05 72.576 L1595.6 72.576 L1595.6 65.6084 Q1592.88 69.7404 1589.28 71.7658 Q1585.71 73.7508 1580.97 73.7508 Q1573.16 73.7508 1569.1 68.8897 Q1565.05 64.0286 1565.05 54.671 M1583.81 26.1121 L1583.81 26.1121 Z" fill="#000000" fill-rule="nonzero" fill-opacity="1" /><path clip-path="url(#clip390)" d="M1625.78 14.324 L1625.78 27.2059 L1641.13 27.2059 L1641.13 32.9987 L1625.78 32.9987 L1625.78 57.6282 Q1625.78 63.1779 1627.28 64.7578 Q1628.82 66.3376 1633.47 66.3376 L1641.13 66.3376 L1641.13 72.576 L1633.47 72.576 Q1624.85 72.576 1621.56 69.3758 Q1618.28 66.1351 1618.28 57.6282 L1618.28 32.9987 L1612.81 32.9987 L1612.81 27.2059 L1618.28 27.2059 L1618.28 14.324 L1625.78 14.324 Z" fill="#000000" fill-rule="nonzero" fill-opacity="1" /><path clip-path="url(#clip390)" d="M1650.93 27.2059 L1658.39 27.2059 L1658.39 72.576 L1650.93 72.576 L1650.93 27.2059 M1650.93 9.54393 L1658.39 9.54393 L1658.39 18.9825 L1650.93 18.9825 L1650.93 9.54393 Z" fill="#000000" fill-rule="nonzero" fill-opacity="1" /><path clip-path="url(#clip390)" d="M1691.56 32.4315 Q1685.57 32.4315 1682.08 37.1306 Q1678.6 41.7891 1678.6 49.9314 Q1678.6 58.0738 1682.04 62.7728 Q1685.53 67.4314 1691.56 67.4314 Q1697.52 67.4314 1701 62.7323 Q1704.49 58.0333 1704.49 49.9314 Q1704.49 41.8701 1701 37.1711 Q1697.52 32.4315 1691.56 32.4315 M1691.56 26.1121 Q1701.29 26.1121 1706.84 32.4315 Q1712.39 38.7509 1712.39 49.9314 Q1712.39 61.0714 1706.84 67.4314 Q1701.29 73.7508 1691.56 73.7508 Q1681.8 73.7508 1676.25 67.4314 Q1670.74 61.0714 1670.74 49.9314 Q1670.74 38.7509 1676.25 32.4315 Q1681.8 26.1121 1691.56 26.1121 Z" fill="#000000" fill-rule="nonzero" fill-opacity="1" /><path clip-path="url(#clip390)" d="M1762.45 45.1919 L1762.45 72.576 L1755 72.576 L1755 45.4349 Q1755 38.994 1752.49 35.7938 Q1749.98 32.5936 1744.95 32.5936 Q1738.92 32.5936 1735.43 36.4419 Q1731.95 40.2903 1731.95 46.9338 L1731.95 72.576 L1724.46 72.576 L1724.46 27.2059 L1731.95 27.2059 L1731.95 34.2544 Q1734.62 30.163 1738.23 28.1376 Q1741.88 26.1121 1746.62 26.1121 Q1754.43 26.1121 1758.44 30.9732 Q1762.45 35.7938 1762.45 45.1919 Z" fill="#000000" fill-rule="nonzero" fill-opacity="1" /><polyline clip-path="url(#clip392)" style="stroke:#000000; stroke-linecap:round; stroke-linejoin:round; stroke-width:4; stroke-opacity:1; fill:none" points="300.088,1386.4 320.418,1386.4 340.747,1386.39 361.077,1386.37 381.406,1386.3 401.736,1386.1 422.065,1385.68 442.395,1384.94 462.724,1383.77 483.054,1382.06 503.383,1379.74 523.712,1376.73 544.042,1373.01 564.371,1368.53 584.701,1363.31 605.03,1357.36 625.36,1350.71 645.689,1343.41 666.019,1335.51 686.348,1327.06 706.678,1318.14 727.007,1308.81 747.337,1299.13 767.666,1289.18 787.996,1279.01 808.325,1268.7 828.655,1258.29 848.984,1247.85 869.314,1237.43 889.643,1227.07 909.973,1216.81 930.302,1206.71 950.632,1196.78 970.961,1187.07 991.291,1177.6 1011.62,1168.39 1031.95,1159.47 1052.28,1150.85 1072.61,1142.54 1092.94,1134.57 1113.27,1126.93 1133.6,1119.63 1153.93,1112.68 1174.26,1106.08 1194.59,1099.83 1214.91,1093.94 1235.24,1088.39 1255.57,1083.19 1275.9,1078.33 1296.23,1073.81 1316.56,1069.62 1336.89,1065.76 1357.22,1062.21 1377.55,1058.97 1397.88,1056.04 1418.21,1053.39 1438.54,1051.04 1458.87,1048.95 1479.2,1047.14 1499.53,1045.58 1519.86,1044.27 1540.19,1043.2 1560.52,1042.37 1580.85,1041.75 1601.17,1041.34 1621.5,1041.14 1641.83,1041.14 1662.16,1041.32 1682.49,1041.67 1702.82,1042.2 1723.15,1042.89 1743.48,1043.73 1763.81,1044.72 1784.14,1045.85 1804.47,1047.1 1824.8,1048.49 1845.13,1049.99 1865.46,1051.6 1885.79,1053.31 1906.12,1055.13 1926.45,1057.03 1946.78,1059.03 1967.11,1061.1 1987.44,1063.25 2007.76,1065.47 2028.09,1067.76 2048.42,1070.11 2068.75,1072.51 2089.08,1074.97 2109.41,1077.47 2129.74,1080.02 2150.07,1082.61 2170.4,1085.24 2190.73,1087.9 2211.06,1090.59 2231.39,1093.31 2251.72,1096.05 2272.05,1098.81 2292.38,1101.59 "/>
<polyline clip-path="url(#clip392)" style="stroke:#ff0000; stroke-linecap:round; stroke-linejoin:round; stroke-width:4; stroke-opacity:1; fill:none" points="300.088,1386.36 320.418,1383.65 340.747,1365.86 361.077,1319.3 381.406,1240.13 401.736,1133.75 422.065,1009.91 442.395,878.851 462.724,749.264 483.054,627.605 503.383,518.137 523.712,423.274 544.042,344.012 564.371,280.335 584.701,231.544 605.03,196.524 625.36,173.928 645.689,162.318 666.019,160.256 686.348,166.361 706.678,179.347 727.007,198.04 747.337,221.389 767.666,248.463 787.996,278.447 808.325,310.635 828.655,344.421 848.984,379.288 869.314,414.8 889.643,450.59 909.973,486.355 930.302,521.843 950.632,556.85 970.961,591.214 991.291,624.804 1011.62,657.52 1031.95,689.286 1052.28,720.047 1072.61,749.765 1092.94,778.418 1113.27,805.996 1133.6,832.497 1153.93,857.928 1174.26,882.305 1194.59,905.645 1214.91,927.974 1235.24,949.316 1255.57,969.702 1275.9,989.162 1296.23,1007.73 1316.56,1025.43 1336.89,1042.31 1357.22,1058.39 1377.55,1073.71 1397.88,1088.3 1418.21,1102.19 1438.54,1115.41 1458.87,1128 1479.2,1139.97 1499.53,1151.37 1519.86,1162.22 1540.19,1172.54 1560.52,1182.36 1580.85,1191.7 1601.17,1200.59 1621.5,1209.05 1641.83,1217.1 1662.16,1224.76 1682.49,1232.05 1702.82,1238.99 1723.15,1245.6 1743.48,1251.88 1763.81,1257.87 1784.14,1263.57 1804.47,1268.99 1824.8,1274.16 1845.13,1279.08 1865.46,1283.77 1885.79,1288.24 1906.12,1292.5 1926.45,1296.55 1946.78,1300.42 1967.11,1304.1 1987.44,1307.62 2007.76,1310.97 2028.09,1314.17 2048.42,1317.21 2068.75,1320.12 2089.08,1322.9 2109.41,1325.55 2129.74,1328.07 2150.07,1330.49 2170.4,1332.79 2190.73,1334.99 2211.06,1337.1 2231.39,1339.1 2251.72,1341.02 2272.05,1342.86 2292.38,1344.61 "/>
<path clip-path="url(#clip390)" d="M1970.51 322.316 L2281.64 322.316 L2281.64 166.796 L1970.51 166.796  Z" fill="#ffffff" fill-rule="evenodd" fill-opacity="1"/>
<polyline clip-path="url(#clip390)" style="stroke:#000000; stroke-linecap:round; stroke-linejoin:round; stroke-width:4; stroke-opacity:1; fill:none" points="1970.51,322.316 2281.64,322.316 2281.64,166.796 1970.51,166.796 1970.51,322.316 "/>
<polyline clip-path="url(#clip390)" style="stroke:#000000; stroke-linecap:round; stroke-linejoin:round; stroke-width:4; stroke-opacity:1; fill:none" points="1994.21,218.636 2136.43,218.636 "/>
<path clip-path="url(#clip390)" d="M2161.71 201.356 L2166.74 201.356 L2175.32 214.203 L2183.96 201.356 L2188.98 201.356 L2177.87 217.953 L2189.72 235.916 L2184.7 235.916 L2174.98 221.217 L2165.19 235.916 L2160.14 235.916 L2172.48 217.467 L2161.71 201.356 Z" fill="#000000" fill-rule="nonzero" fill-opacity="1" /><path clip-path="url(#clip390)" d="M2196.23 214.388 L2225.9 214.388 L2225.9 218.277 L2196.23 218.277 L2196.23 214.388 M2196.23 223.832 L2225.9 223.832 L2225.9 227.768 L2196.23 227.768 L2196.23 223.832 Z" fill="#000000" fill-rule="nonzero" fill-opacity="1" /><path clip-path="url(#clip390)" d="M2245.99 204.434 Q2242.38 204.434 2240.56 207.999 Q2238.75 211.541 2238.75 218.67 Q2238.75 225.777 2240.56 229.342 Q2242.38 232.883 2245.99 232.883 Q2249.63 232.883 2251.43 229.342 Q2253.26 225.777 2253.26 218.67 Q2253.26 211.541 2251.43 207.999 Q2249.63 204.434 2245.99 204.434 M2245.99 200.731 Q2251.8 200.731 2254.86 205.337 Q2257.94 209.92 2257.94 218.67 Q2257.94 227.397 2254.86 232.004 Q2251.8 236.587 2245.99 236.587 Q2240.18 236.587 2237.11 232.004 Q2234.05 227.397 2234.05 218.67 Q2234.05 209.92 2237.11 205.337 Q2240.18 200.731 2245.99 200.731 Z" fill="#000000" fill-rule="nonzero" fill-opacity="1" /><polyline clip-path="url(#clip390)" style="stroke:#ff0000; stroke-linecap:round; stroke-linejoin:round; stroke-width:4; stroke-opacity:1; fill:none" points="1994.21,270.476 2136.43,270.476 "/>
<path clip-path="url(#clip390)" d="M2161.71 253.196 L2166.74 253.196 L2175.32 266.043 L2183.96 253.196 L2188.98 253.196 L2177.87 269.793 L2189.72 287.756 L2184.7 287.756 L2174.98 273.057 L2165.19 287.756 L2160.14 287.756 L2172.48 269.307 L2161.71 253.196 Z" fill="#000000" fill-rule="nonzero" fill-opacity="1" /><path clip-path="url(#clip390)" d="M2196.23 266.228 L2225.9 266.228 L2225.9 270.117 L2196.23 270.117 L2196.23 266.228 M2196.23 275.672 L2225.9 275.672 L2225.9 279.608 L2196.23 279.608 L2196.23 275.672 Z" fill="#000000" fill-rule="nonzero" fill-opacity="1" /><path clip-path="url(#clip390)" d="M2236.81 283.821 L2244.44 283.821 L2244.44 257.455 L2236.13 259.122 L2236.13 254.862 L2244.4 253.196 L2249.07 253.196 L2249.07 283.821 L2256.71 283.821 L2256.71 287.756 L2236.81 287.756 L2236.81 283.821 Z" fill="#000000" fill-rule="nonzero" fill-opacity="1" /></svg>
