<?xml version="1.0" encoding="utf-8"?>
<svg xmlns="http://www.w3.org/2000/svg" xmlns:xlink="http://www.w3.org/1999/xlink" width="600" height="400" viewBox="0 0 2400 1600">
<defs>
  <clipPath id="clip190">
    <rect x="0" y="0" width="2400" height="1600"/>
  </clipPath>
</defs>
<path clip-path="url(#clip190)" d="M0 1600 L2400 1600 L2400 0 L0 0  Z" fill="#ffffff" fill-rule="evenodd" fill-opacity="1"/>
<defs>
  <clipPath id="clip191">
    <rect x="480" y="0" width="1681" height="1600"/>
  </clipPath>
</defs>
<path clip-path="url(#clip190)" d="M219.866 1423.18 L2352.76 1423.18 L2352.76 123.472 L219.866 123.472  Z" fill="#ffffff" fill-rule="evenodd" fill-opacity="1"/>
<defs>
  <clipPath id="clip192">
    <rect x="219" y="123" width="2134" height="1301"/>
  </clipPath>
</defs>
<polyline clip-path="url(#clip190)" style="stroke:#000000; stroke-linecap:round; stroke-linejoin:round; stroke-width:4; stroke-opacity:1; fill:none" points="219.866,1423.18 2352.76,1423.18 "/>
<polyline clip-path="url(#clip190)" style="stroke:#000000; stroke-linecap:round; stroke-linejoin:round; stroke-width:4; stroke-opacity:1; fill:none" points="280.231,1423.18 280.231,1404.28 "/>
<polyline clip-path="url(#clip190)" style="stroke:#000000; stroke-linecap:round; stroke-linejoin:round; stroke-width:4; stroke-opacity:1; fill:none" points="783.271,1423.18 783.271,1404.28 "/>
<polyline clip-path="url(#clip190)" style="stroke:#000000; stroke-linecap:round; stroke-linejoin:round; stroke-width:4; stroke-opacity:1; fill:none" points="1286.31,1423.18 1286.31,1404.28 "/>
<polyline clip-path="url(#clip190)" style="stroke:#000000; stroke-linecap:round; stroke-linejoin:round; stroke-width:4; stroke-opacity:1; fill:none" points="1789.35,1423.18 1789.35,1404.28 "/>
<polyline clip-path="url(#clip190)" style="stroke:#000000; stroke-linecap:round; stroke-linejoin:round; stroke-width:4; stroke-opacity:1; fill:none" points="2292.39,1423.18 2292.39,1404.28 "/>
<path clip-path="url(#clip190)" d="M280.231 1454.1 Q276.62 1454.1 274.791 1457.66 Q272.986 1461.2 272.986 1468.33 Q272.986 1475.44 274.791 1479.01 Q276.62 1482.55 280.231 1482.55 Q283.865 1482.55 285.671 1479.01 Q287.5 1475.44 287.5 1468.33 Q287.5 1461.2 285.671 1457.66 Q283.865 1454.1 280.231 1454.1 M280.231 1450.39 Q286.041 1450.39 289.097 1455 Q292.175 1459.58 292.175 1468.33 Q292.175 1477.06 289.097 1481.67 Q286.041 1486.25 280.231 1486.25 Q274.421 1486.25 271.342 1481.67 Q268.287 1477.06 268.287 1468.33 Q268.287 1459.58 271.342 1455 Q274.421 1450.39 280.231 1450.39 Z" fill="#000000" fill-rule="nonzero" fill-opacity="1" /><path clip-path="url(#clip190)" d="M773.549 1451.02 L791.905 1451.02 L791.905 1454.96 L777.831 1454.96 L777.831 1463.43 Q778.85 1463.08 779.868 1462.92 Q780.887 1462.73 781.905 1462.73 Q787.692 1462.73 791.072 1465.9 Q794.452 1469.08 794.452 1474.49 Q794.452 1480.07 790.979 1483.17 Q787.507 1486.25 781.188 1486.25 Q779.012 1486.25 776.743 1485.88 Q774.498 1485.51 772.091 1484.77 L772.091 1480.07 Q774.174 1481.2 776.396 1481.76 Q778.618 1482.32 781.095 1482.32 Q785.1 1482.32 787.438 1480.21 Q789.776 1478.1 789.776 1474.49 Q789.776 1470.88 787.438 1468.77 Q785.1 1466.67 781.095 1466.67 Q779.22 1466.67 777.345 1467.08 Q775.493 1467.5 773.549 1468.38 L773.549 1451.02 Z" fill="#000000" fill-rule="nonzero" fill-opacity="1" /><path clip-path="url(#clip190)" d="M1261 1481.64 L1268.64 1481.64 L1268.64 1455.28 L1260.33 1456.95 L1260.33 1452.69 L1268.59 1451.02 L1273.27 1451.02 L1273.27 1481.64 L1280.91 1481.64 L1280.91 1485.58 L1261 1485.58 L1261 1481.64 Z" fill="#000000" fill-rule="nonzero" fill-opacity="1" /><path clip-path="url(#clip190)" d="M1300.35 1454.1 Q1296.74 1454.1 1294.91 1457.66 Q1293.11 1461.2 1293.11 1468.33 Q1293.11 1475.44 1294.91 1479.01 Q1296.74 1482.55 1300.35 1482.55 Q1303.98 1482.55 1305.79 1479.01 Q1307.62 1475.44 1307.62 1468.33 Q1307.62 1461.2 1305.79 1457.66 Q1303.98 1454.1 1300.35 1454.1 M1300.35 1450.39 Q1306.16 1450.39 1309.22 1455 Q1312.29 1459.58 1312.29 1468.33 Q1312.29 1477.06 1309.22 1481.67 Q1306.16 1486.25 1300.35 1486.25 Q1294.54 1486.25 1291.46 1481.67 Q1288.41 1477.06 1288.41 1468.33 Q1288.41 1459.58 1291.46 1455 Q1294.54 1450.39 1300.35 1450.39 Z" fill="#000000" fill-rule="nonzero" fill-opacity="1" /><path clip-path="url(#clip190)" d="M1764.54 1481.64 L1772.18 1481.64 L1772.18 1455.28 L1763.87 1456.95 L1763.87 1452.69 L1772.13 1451.02 L1776.8 1451.02 L1776.8 1481.64 L1784.44 1481.64 L1784.44 1485.58 L1764.54 1485.58 L1764.54 1481.64 Z" fill="#000000" fill-rule="nonzero" fill-opacity="1" /><path clip-path="url(#clip190)" d="M1793.93 1451.02 L1812.29 1451.02 L1812.29 1454.96 L1798.22 1454.96 L1798.22 1463.43 Q1799.24 1463.08 1800.25 1462.92 Q1801.27 1462.73 1802.29 1462.73 Q1808.08 1462.73 1811.46 1465.9 Q1814.84 1469.08 1814.84 1474.49 Q1814.84 1480.07 1811.36 1483.17 Q1807.89 1486.25 1801.57 1486.25 Q1799.4 1486.25 1797.13 1485.88 Q1794.88 1485.51 1792.48 1484.77 L1792.48 1480.07 Q1794.56 1481.2 1796.78 1481.76 Q1799 1482.32 1801.48 1482.32 Q1805.49 1482.32 1807.82 1480.21 Q1810.16 1478.1 1810.16 1474.49 Q1810.16 1470.88 1807.82 1468.77 Q1805.49 1466.67 1801.48 1466.67 Q1799.61 1466.67 1797.73 1467.08 Q1795.88 1467.5 1793.93 1468.38 L1793.93 1451.02 Z" fill="#000000" fill-rule="nonzero" fill-opacity="1" /><path clip-path="url(#clip190)" d="M2271.16 1481.64 L2287.48 1481.64 L2287.48 1485.58 L2265.54 1485.58 L2265.54 1481.64 Q2268.2 1478.89 2272.78 1474.26 Q2277.39 1469.61 2278.57 1468.27 Q2280.82 1465.74 2281.7 1464.01 Q2282.6 1462.25 2282.6 1460.56 Q2282.6 1457.8 2280.66 1456.07 Q2278.73 1454.33 2275.63 1454.33 Q2273.43 1454.33 2270.98 1455.09 Q2268.55 1455.86 2265.77 1457.41 L2265.77 1452.69 Q2268.59 1451.55 2271.05 1450.97 Q2273.5 1450.39 2275.54 1450.39 Q2280.91 1450.39 2284.1 1453.08 Q2287.3 1455.77 2287.3 1460.26 Q2287.3 1462.39 2286.49 1464.31 Q2285.7 1466.2 2283.59 1468.8 Q2283.02 1469.47 2279.91 1472.69 Q2276.81 1475.88 2271.16 1481.64 Z" fill="#000000" fill-rule="nonzero" fill-opacity="1" /><path clip-path="url(#clip190)" d="M2307.3 1454.1 Q2303.69 1454.1 2301.86 1457.66 Q2300.05 1461.2 2300.05 1468.33 Q2300.05 1475.44 2301.86 1479.01 Q2303.69 1482.55 2307.3 1482.55 Q2310.93 1482.55 2312.74 1479.01 Q2314.57 1475.44 2314.57 1468.33 Q2314.57 1461.2 2312.74 1457.66 Q2310.93 1454.1 2307.3 1454.1 M2307.3 1450.39 Q2313.11 1450.39 2316.16 1455 Q2319.24 1459.58 2319.24 1468.33 Q2319.24 1477.06 2316.16 1481.67 Q2313.11 1486.25 2307.3 1486.25 Q2301.49 1486.25 2298.41 1481.67 Q2295.35 1477.06 2295.35 1468.33 Q2295.35 1459.58 2298.41 1455 Q2301.49 1450.39 2307.3 1450.39 Z" fill="#000000" fill-rule="nonzero" fill-opacity="1" /><path clip-path="url(#clip190)" d="M1208.19 1520.52 L1248.39 1520.52 L1248.39 1525.93 L1231.52 1525.93 L1231.52 1568.04 L1225.06 1568.04 L1225.06 1525.93 L1208.19 1525.93 L1208.19 1520.52 Z" fill="#000000" fill-rule="nonzero" fill-opacity="1" /><path clip-path="url(#clip190)" d="M1252.33 1532.4 L1258.19 1532.4 L1258.19 1568.04 L1252.33 1568.04 L1252.33 1532.4 M1252.33 1518.52 L1258.19 1518.52 L1258.19 1525.93 L1252.33 1525.93 L1252.33 1518.52 Z" fill="#000000" fill-rule="nonzero" fill-opacity="1" /><path clip-path="url(#clip190)" d="M1298.2 1539.24 Q1300.4 1535.29 1303.45 1533.41 Q1306.51 1531.54 1310.64 1531.54 Q1316.21 1531.54 1319.24 1535.45 Q1322.26 1539.33 1322.26 1546.53 L1322.26 1568.04 L1316.37 1568.04 L1316.37 1546.72 Q1316.37 1541.59 1314.56 1539.11 Q1312.74 1536.63 1309.02 1536.63 Q1304.47 1536.63 1301.83 1539.65 Q1299.19 1542.68 1299.19 1547.9 L1299.19 1568.04 L1293.3 1568.04 L1293.3 1546.72 Q1293.3 1541.56 1291.48 1539.11 Q1289.67 1536.63 1285.88 1536.63 Q1281.39 1536.63 1278.75 1539.68 Q1276.11 1542.71 1276.11 1547.9 L1276.11 1568.04 L1270.22 1568.04 L1270.22 1532.4 L1276.11 1532.4 L1276.11 1537.93 Q1278.12 1534.66 1280.92 1533.1 Q1283.72 1531.54 1287.57 1531.54 Q1291.45 1531.54 1294.16 1533.51 Q1296.89 1535.48 1298.2 1539.24 Z" fill="#000000" fill-rule="nonzero" fill-opacity="1" /><path clip-path="url(#clip190)" d="M1364.43 1548.76 L1364.43 1551.62 L1337.51 1551.62 Q1337.89 1557.67 1341.14 1560.85 Q1344.41 1564 1350.24 1564 Q1353.61 1564 1356.76 1563.17 Q1359.95 1562.35 1363.07 1560.69 L1363.07 1566.23 Q1359.91 1567.57 1356.6 1568.27 Q1353.29 1568.97 1349.89 1568.97 Q1341.36 1568.97 1336.36 1564 Q1331.4 1559.04 1331.4 1550.57 Q1331.4 1541.82 1336.11 1536.69 Q1340.85 1531.54 1348.87 1531.54 Q1356.06 1531.54 1360.23 1536.18 Q1364.43 1540.8 1364.43 1548.76 M1358.58 1547.04 Q1358.51 1542.23 1355.87 1539.37 Q1353.26 1536.5 1348.93 1536.5 Q1344.03 1536.5 1341.07 1539.27 Q1338.14 1542.04 1337.7 1547.07 L1358.58 1547.04 Z" fill="#000000" fill-rule="nonzero" fill-opacity="1" /><polyline clip-path="url(#clip190)" style="stroke:#000000; stroke-linecap:round; stroke-linejoin:round; stroke-width:4; stroke-opacity:1; fill:none" points="219.866,1423.18 219.866,123.472 "/>
<polyline clip-path="url(#clip190)" style="stroke:#000000; stroke-linecap:round; stroke-linejoin:round; stroke-width:4; stroke-opacity:1; fill:none" points="219.866,1386.4 238.764,1386.4 "/>
<polyline clip-path="url(#clip190)" style="stroke:#000000; stroke-linecap:round; stroke-linejoin:round; stroke-width:4; stroke-opacity:1; fill:none" points="219.866,1173.15 238.764,1173.15 "/>
<polyline clip-path="url(#clip190)" style="stroke:#000000; stroke-linecap:round; stroke-linejoin:round; stroke-width:4; stroke-opacity:1; fill:none" points="219.866,959.912 238.764,959.912 "/>
<polyline clip-path="url(#clip190)" style="stroke:#000000; stroke-linecap:round; stroke-linejoin:round; stroke-width:4; stroke-opacity:1; fill:none" points="219.866,746.671 238.764,746.671 "/>
<polyline clip-path="url(#clip190)" style="stroke:#000000; stroke-linecap:round; stroke-linejoin:round; stroke-width:4; stroke-opacity:1; fill:none" points="219.866,533.429 238.764,533.429 "/>
<polyline clip-path="url(#clip190)" style="stroke:#000000; stroke-linecap:round; stroke-linejoin:round; stroke-width:4; stroke-opacity:1; fill:none" points="219.866,320.187 238.764,320.187 "/>
<path clip-path="url(#clip190)" d="M126.691 1372.19 Q123.08 1372.19 121.251 1375.76 Q119.445 1379.3 119.445 1386.43 Q119.445 1393.54 121.251 1397.1 Q123.08 1400.64 126.691 1400.64 Q130.325 1400.64 132.13 1397.1 Q133.959 1393.54 133.959 1386.43 Q133.959 1379.3 132.13 1375.76 Q130.325 1372.19 126.691 1372.19 M126.691 1368.49 Q132.501 1368.49 135.556 1373.1 Q138.635 1377.68 138.635 1386.43 Q138.635 1395.16 135.556 1399.76 Q132.501 1404.35 126.691 1404.35 Q120.88 1404.35 117.802 1399.76 Q114.746 1395.16 114.746 1386.43 Q114.746 1377.68 117.802 1373.1 Q120.88 1368.49 126.691 1368.49 Z" fill="#000000" fill-rule="nonzero" fill-opacity="1" /><path clip-path="url(#clip190)" d="M146.853 1397.8 L151.737 1397.8 L151.737 1403.68 L146.853 1403.68 L146.853 1397.8 Z" fill="#000000" fill-rule="nonzero" fill-opacity="1" /><path clip-path="url(#clip190)" d="M171.922 1372.19 Q168.311 1372.19 166.482 1375.76 Q164.677 1379.3 164.677 1386.43 Q164.677 1393.54 166.482 1397.1 Q168.311 1400.64 171.922 1400.64 Q175.556 1400.64 177.362 1397.1 Q179.19 1393.54 179.19 1386.43 Q179.19 1379.3 177.362 1375.76 Q175.556 1372.19 171.922 1372.19 M171.922 1368.49 Q177.732 1368.49 180.788 1373.1 Q183.866 1377.68 183.866 1386.43 Q183.866 1395.16 180.788 1399.76 Q177.732 1404.35 171.922 1404.35 Q166.112 1404.35 163.033 1399.76 Q159.978 1395.16 159.978 1386.43 Q159.978 1377.68 163.033 1373.1 Q166.112 1368.49 171.922 1368.49 Z" fill="#000000" fill-rule="nonzero" fill-opacity="1" /><path clip-path="url(#clip190)" d="M127.917 1158.95 Q124.306 1158.95 122.478 1162.52 Q120.672 1166.06 120.672 1173.19 Q120.672 1180.3 122.478 1183.86 Q124.306 1187.4 127.917 1187.4 Q131.552 1187.4 133.357 1183.86 Q135.186 1180.3 135.186 1173.19 Q135.186 1166.06 133.357 1162.52 Q131.552 1158.95 127.917 1158.95 M127.917 1155.25 Q133.728 1155.25 136.783 1159.86 Q139.862 1164.44 139.862 1173.19 Q139.862 1181.92 136.783 1186.52 Q133.728 1191.11 127.917 1191.11 Q122.107 1191.11 119.029 1186.52 Q115.973 1181.92 115.973 1173.19 Q115.973 1164.44 119.029 1159.86 Q122.107 1155.25 127.917 1155.25 Z" fill="#000000" fill-rule="nonzero" fill-opacity="1" /><path clip-path="url(#clip190)" d="M148.079 1184.55 L152.964 1184.55 L152.964 1190.43 L148.079 1190.43 L148.079 1184.55 Z" fill="#000000" fill-rule="nonzero" fill-opacity="1" /><path clip-path="url(#clip190)" d="M163.959 1186.5 L171.598 1186.5 L171.598 1160.13 L163.288 1161.8 L163.288 1157.54 L171.552 1155.87 L176.227 1155.87 L176.227 1186.5 L183.866 1186.5 L183.866 1190.43 L163.959 1190.43 L163.959 1186.5 Z" fill="#000000" fill-rule="nonzero" fill-opacity="1" /><path clip-path="url(#clip190)" d="M128.288 945.711 Q124.677 945.711 122.848 949.276 Q121.043 952.818 121.043 959.947 Q121.043 967.054 122.848 970.618 Q124.677 974.16 128.288 974.16 Q131.922 974.16 133.728 970.618 Q135.556 967.054 135.556 959.947 Q135.556 952.818 133.728 949.276 Q131.922 945.711 128.288 945.711 M128.288 942.007 Q134.098 942.007 137.154 946.614 Q140.232 951.197 140.232 959.947 Q140.232 968.674 137.154 973.28 Q134.098 977.864 128.288 977.864 Q122.478 977.864 119.399 973.28 Q116.343 968.674 116.343 959.947 Q116.343 951.197 119.399 946.614 Q122.478 942.007 128.288 942.007 Z" fill="#000000" fill-rule="nonzero" fill-opacity="1" /><path clip-path="url(#clip190)" d="M148.45 971.313 L153.334 971.313 L153.334 977.192 L148.45 977.192 L148.45 971.313 Z" fill="#000000" fill-rule="nonzero" fill-opacity="1" /><path clip-path="url(#clip190)" d="M167.547 973.257 L183.866 973.257 L183.866 977.192 L161.922 977.192 L161.922 973.257 Q164.584 970.503 169.167 965.873 Q173.774 961.22 174.954 959.878 Q177.2 957.355 178.079 955.618 Q178.982 953.859 178.982 952.169 Q178.982 949.415 177.038 947.679 Q175.116 945.943 172.014 945.943 Q169.815 945.943 167.362 946.706 Q164.931 947.47 162.153 949.021 L162.153 944.299 Q164.977 943.165 167.431 942.586 Q169.885 942.007 171.922 942.007 Q177.292 942.007 180.487 944.693 Q183.681 947.378 183.681 951.868 Q183.681 953.998 182.871 955.919 Q182.084 957.817 179.977 960.41 Q179.399 961.081 176.297 964.299 Q173.195 967.493 167.547 973.257 Z" fill="#000000" fill-rule="nonzero" fill-opacity="1" /><path clip-path="url(#clip190)" d="M127.339 732.469 Q123.728 732.469 121.899 736.034 Q120.093 739.576 120.093 746.705 Q120.093 753.812 121.899 757.377 Q123.728 760.918 127.339 760.918 Q130.973 760.918 132.779 757.377 Q134.607 753.812 134.607 746.705 Q134.607 739.576 132.779 736.034 Q130.973 732.469 127.339 732.469 M127.339 728.766 Q133.149 728.766 136.204 733.372 Q139.283 737.956 139.283 746.705 Q139.283 755.432 136.204 760.039 Q133.149 764.622 127.339 764.622 Q121.529 764.622 118.45 760.039 Q115.394 755.432 115.394 746.705 Q115.394 737.956 118.45 733.372 Q121.529 728.766 127.339 728.766 Z" fill="#000000" fill-rule="nonzero" fill-opacity="1" /><path clip-path="url(#clip190)" d="M147.501 758.071 L152.385 758.071 L152.385 763.951 L147.501 763.951 L147.501 758.071 Z" fill="#000000" fill-rule="nonzero" fill-opacity="1" /><path clip-path="url(#clip190)" d="M176.737 745.317 Q180.093 746.034 181.968 748.303 Q183.866 750.571 183.866 753.905 Q183.866 759.02 180.348 761.821 Q176.829 764.622 170.348 764.622 Q168.172 764.622 165.857 764.182 Q163.565 763.766 161.112 762.909 L161.112 758.395 Q163.056 759.529 165.371 760.108 Q167.686 760.687 170.209 760.687 Q174.607 760.687 176.899 758.951 Q179.214 757.215 179.214 753.905 Q179.214 750.849 177.061 749.136 Q174.931 747.4 171.112 747.4 L167.084 747.4 L167.084 743.557 L171.297 743.557 Q174.746 743.557 176.575 742.192 Q178.403 740.803 178.403 738.21 Q178.403 735.548 176.505 734.136 Q174.63 732.701 171.112 732.701 Q169.19 732.701 166.991 733.118 Q164.792 733.534 162.153 734.414 L162.153 730.247 Q164.815 729.506 167.13 729.136 Q169.468 728.766 171.528 728.766 Q176.852 728.766 179.954 731.196 Q183.056 733.604 183.056 737.724 Q183.056 740.594 181.413 742.585 Q179.769 744.553 176.737 745.317 Z" fill="#000000" fill-rule="nonzero" fill-opacity="1" /><path clip-path="url(#clip190)" d="M126.205 519.228 Q122.593 519.228 120.765 522.793 Q118.959 526.334 118.959 533.464 Q118.959 540.57 120.765 544.135 Q122.593 547.677 126.205 547.677 Q129.839 547.677 131.644 544.135 Q133.473 540.57 133.473 533.464 Q133.473 526.334 131.644 522.793 Q129.839 519.228 126.205 519.228 M126.205 515.524 Q132.015 515.524 135.07 520.131 Q138.149 524.714 138.149 533.464 Q138.149 542.191 135.07 546.797 Q132.015 551.38 126.205 551.38 Q120.394 551.38 117.316 546.797 Q114.26 542.191 114.26 533.464 Q114.26 524.714 117.316 520.131 Q120.394 515.524 126.205 515.524 Z" fill="#000000" fill-rule="nonzero" fill-opacity="1" /><path clip-path="url(#clip190)" d="M146.366 544.83 L151.251 544.83 L151.251 550.709 L146.366 550.709 L146.366 544.83 Z" fill="#000000" fill-rule="nonzero" fill-opacity="1" /><path clip-path="url(#clip190)" d="M174.283 520.223 L162.477 538.672 L174.283 538.672 L174.283 520.223 M173.056 516.149 L178.936 516.149 L178.936 538.672 L183.866 538.672 L183.866 542.561 L178.936 542.561 L178.936 550.709 L174.283 550.709 L174.283 542.561 L158.681 542.561 L158.681 538.047 L173.056 516.149 Z" fill="#000000" fill-rule="nonzero" fill-opacity="1" /><path clip-path="url(#clip190)" d="M127.686 305.986 Q124.075 305.986 122.246 309.551 Q120.441 313.093 120.441 320.222 Q120.441 327.329 122.246 330.893 Q124.075 334.435 127.686 334.435 Q131.32 334.435 133.126 330.893 Q134.954 327.329 134.954 320.222 Q134.954 313.093 133.126 309.551 Q131.32 305.986 127.686 305.986 M127.686 302.282 Q133.496 302.282 136.552 306.889 Q139.63 311.472 139.63 320.222 Q139.63 328.949 136.552 333.555 Q133.496 338.139 127.686 338.139 Q121.876 338.139 118.797 333.555 Q115.742 328.949 115.742 320.222 Q115.742 311.472 118.797 306.889 Q121.876 302.282 127.686 302.282 Z" fill="#000000" fill-rule="nonzero" fill-opacity="1" /><path clip-path="url(#clip190)" d="M147.848 331.588 L152.732 331.588 L152.732 337.467 L147.848 337.467 L147.848 331.588 Z" fill="#000000" fill-rule="nonzero" fill-opacity="1" /><path clip-path="url(#clip190)" d="M162.964 302.907 L181.32 302.907 L181.32 306.843 L167.246 306.843 L167.246 315.315 Q168.264 314.968 169.283 314.806 Q170.302 314.62 171.32 314.62 Q177.107 314.62 180.487 317.792 Q183.866 320.963 183.866 326.38 Q183.866 331.958 180.394 335.06 Q176.922 338.139 170.602 338.139 Q168.427 338.139 166.158 337.768 Q163.913 337.398 161.505 336.657 L161.505 331.958 Q163.589 333.093 165.811 333.648 Q168.033 334.204 170.51 334.204 Q174.514 334.204 176.852 332.097 Q179.19 329.991 179.19 326.38 Q179.19 322.768 176.852 320.662 Q174.514 318.556 170.51 318.556 Q168.635 318.556 166.76 318.972 Q164.908 319.389 162.964 320.269 L162.964 302.907 Z" fill="#000000" fill-rule="nonzero" fill-opacity="1" /><path clip-path="url(#clip190)" d="M21.7677 886.636 L58.7206 886.636 L58.7206 878.869 Q58.7206 869.034 54.2646 864.483 Q49.8086 859.9 40.1964 859.9 Q30.6479 859.9 26.2237 864.483 Q21.7677 869.034 21.7677 878.869 L21.7677 886.636 M16.4842 893.065 L16.4842 879.856 Q16.4842 866.043 22.2451 859.581 Q27.9743 853.12 40.1964 853.12 Q52.4822 853.12 58.2432 859.613 Q64.0042 866.106 64.0042 879.856 L64.0042 893.065 L16.4842 893.065 Z" fill="#000000" fill-rule="nonzero" fill-opacity="1" /><path clip-path="url(#clip190)" d="M44.7161 812.634 L47.5806 812.634 L47.5806 839.561 Q53.6281 839.179 56.8109 835.933 Q59.9619 832.654 59.9619 826.83 Q59.9619 823.456 59.1344 820.305 Q58.3069 817.122 56.6518 814.003 L62.1899 814.003 Q63.5267 817.154 64.227 820.464 Q64.9272 823.774 64.9272 827.18 Q64.9272 835.71 59.9619 840.707 Q54.9967 845.672 46.5303 845.672 Q37.7774 845.672 32.6531 840.962 Q27.4968 836.219 27.4968 828.198 Q27.4968 821.005 32.1438 816.836 Q36.7589 812.634 44.7161 812.634 M42.9973 818.491 Q38.1912 818.554 35.3266 821.196 Q32.4621 823.806 32.4621 828.135 Q32.4621 833.036 35.2312 835.996 Q38.0002 838.925 43.0292 839.37 L42.9973 818.491 Z" fill="#000000" fill-rule="nonzero" fill-opacity="1" /><path clip-path="url(#clip190)" d="M42.4881 773.39 L64.0042 773.39 L64.0042 779.246 L42.679 779.246 Q37.6183 779.246 35.1038 781.219 Q32.5894 783.193 32.5894 787.14 Q32.5894 791.882 35.6131 794.619 Q38.6368 797.357 43.8567 797.357 L64.0042 797.357 L64.0042 803.245 L28.3562 803.245 L28.3562 797.357 L33.8944 797.357 Q30.6797 795.256 29.0883 792.423 Q27.4968 789.559 27.4968 785.835 Q27.4968 779.692 31.3163 776.541 Q35.1038 773.39 42.4881 773.39 Z" fill="#000000" fill-rule="nonzero" fill-opacity="1" /><path clip-path="url(#clip190)" d="M29.4065 738.983 L34.9447 738.983 Q33.6716 741.466 33.035 744.139 Q32.3984 746.813 32.3984 749.677 Q32.3984 754.038 33.7352 756.234 Q35.072 758.398 37.7456 758.398 Q39.7826 758.398 40.9603 756.839 Q42.1061 755.279 43.1565 750.569 L43.6021 748.563 Q44.9389 742.325 47.3897 739.715 Q49.8086 737.073 54.1691 737.073 Q59.1344 737.073 62.0308 741.02 Q64.9272 744.935 64.9272 751.81 Q64.9272 754.674 64.3543 757.794 Q63.8132 760.881 62.6992 764.319 L56.6518 764.319 Q58.3387 761.072 59.198 757.921 Q60.0256 754.77 60.0256 751.683 Q60.0256 747.545 58.6251 745.317 Q57.1929 743.089 54.6147 743.089 Q52.2276 743.089 50.9545 744.712 Q49.6813 746.304 48.5037 751.746 L48.0262 753.783 Q46.8804 759.226 44.5251 761.645 Q42.138 764.064 38.0002 764.064 Q32.9713 764.064 30.2341 760.499 Q27.4968 756.934 27.4968 750.378 Q27.4968 747.131 27.9743 744.267 Q28.4517 741.402 29.4065 738.983 Z" fill="#000000" fill-rule="nonzero" fill-opacity="1" /><path clip-path="url(#clip190)" d="M28.3562 727.748 L28.3562 721.891 L64.0042 721.891 L64.0042 727.748 L28.3562 727.748 M14.479 727.748 L14.479 721.891 L21.895 721.891 L21.895 727.748 L14.479 727.748 Z" fill="#000000" fill-rule="nonzero" fill-opacity="1" /><path clip-path="url(#clip190)" d="M18.2347 703.844 L28.3562 703.844 L28.3562 691.781 L32.9077 691.781 L32.9077 703.844 L52.2594 703.844 Q56.6199 703.844 57.8613 702.667 Q59.1026 701.457 59.1026 697.797 L59.1026 691.781 L64.0042 691.781 L64.0042 697.797 Q64.0042 704.576 61.4897 707.154 Q58.9434 709.733 52.2594 709.733 L32.9077 709.733 L32.9077 714.029 L28.3562 714.029 L28.3562 709.733 L18.2347 709.733 L18.2347 703.844 Z" fill="#000000" fill-rule="nonzero" fill-opacity="1" /><path clip-path="url(#clip190)" d="M67.3143 669.247 Q73.68 671.729 75.6216 674.085 Q77.5631 676.44 77.5631 680.387 L77.5631 685.065 L72.6615 685.065 L72.6615 681.628 Q72.6615 679.209 71.5157 677.872 Q70.3699 676.535 66.1048 674.912 L63.4312 673.862 L28.3562 688.28 L28.3562 682.074 L56.238 670.934 L28.3562 659.794 L28.3562 653.587 L67.3143 669.247 Z" fill="#000000" fill-rule="nonzero" fill-opacity="1" /><path clip-path="url(#clip190)" d="M890.335 12.096 L898.599 12.096 L911.319 63.2184 L923.998 12.096 L933.194 12.096 L945.914 63.2184 L958.593 12.096 L966.897 12.096 L951.706 72.576 L941.417 72.576 L928.657 20.0763 L915.775 72.576 L905.486 72.576 L890.335 12.096 Z" fill="#000000" fill-rule="nonzero" fill-opacity="1" /><path clip-path="url(#clip190)" d="M1011.38 48.0275 L1011.38 51.6733 L977.106 51.6733 Q977.592 59.3701 981.724 63.421 Q985.896 67.4314 993.309 67.4314 Q997.603 67.4314 1001.61 66.3781 Q1005.66 65.3249 1009.63 63.2184 L1009.63 70.267 Q1005.62 71.9684 1001.41 72.8596 Q997.198 73.7508 992.864 73.7508 Q982.007 73.7508 975.647 67.4314 Q969.328 61.1119 969.328 50.3365 Q969.328 39.1965 975.323 32.6746 Q981.359 26.1121 991.567 26.1121 Q1000.72 26.1121 1006.03 32.0264 Q1011.38 37.9003 1011.38 48.0275 M1003.92 45.84 Q1003.84 39.7232 1000.48 36.0774 Q997.158 32.4315 991.648 32.4315 Q985.41 32.4315 981.643 35.9558 Q977.916 39.4801 977.349 45.8805 L1003.92 45.84 Z" fill="#000000" fill-rule="nonzero" fill-opacity="1" /><path clip-path="url(#clip190)" d="M1023.61 27.2059 L1031.06 27.2059 L1031.06 72.576 L1023.61 72.576 L1023.61 27.2059 M1023.61 9.54393 L1031.06 9.54393 L1031.06 18.9825 L1023.61 18.9825 L1023.61 9.54393 Z" fill="#000000" fill-rule="nonzero" fill-opacity="1" /><path clip-path="url(#clip190)" d="M1079.23 49.9314 Q1079.23 41.7081 1075.83 37.0496 Q1072.46 32.3505 1066.55 32.3505 Q1060.64 32.3505 1057.23 37.0496 Q1053.87 41.7081 1053.87 49.9314 Q1053.87 58.1548 1057.23 62.8538 Q1060.64 67.5124 1066.55 67.5124 Q1072.46 67.5124 1075.83 62.8538 Q1079.23 58.1548 1079.23 49.9314 M1053.87 34.0924 Q1056.22 30.0415 1059.78 28.0971 Q1063.39 26.1121 1068.37 26.1121 Q1076.64 26.1121 1081.78 32.6746 Q1086.97 39.2371 1086.97 49.9314 Q1086.97 60.6258 1081.78 67.1883 Q1076.64 73.7508 1068.37 73.7508 Q1063.39 73.7508 1059.78 71.8063 Q1056.22 69.8214 1053.87 65.7705 L1053.87 72.576 L1046.38 72.576 L1046.38 9.54393 L1053.87 9.54393 L1053.87 34.0924 Z" fill="#000000" fill-rule="nonzero" fill-opacity="1" /><path clip-path="url(#clip190)" d="M1098.55 54.671 L1098.55 27.2059 L1106.01 27.2059 L1106.01 54.3874 Q1106.01 60.8284 1108.52 64.0691 Q1111.03 67.2693 1116.05 67.2693 Q1122.09 67.2693 1125.57 63.421 Q1129.1 59.5726 1129.1 52.9291 L1129.1 27.2059 L1136.55 27.2059 L1136.55 72.576 L1129.1 72.576 L1129.1 65.6084 Q1126.38 69.7404 1122.78 71.7658 Q1119.21 73.7508 1114.47 73.7508 Q1106.65 73.7508 1102.6 68.8897 Q1098.55 64.0286 1098.55 54.671 M1117.31 26.1121 L1117.31 26.1121 Z" fill="#000000" fill-rule="nonzero" fill-opacity="1" /><path clip-path="url(#clip190)" d="M1151.9 9.54393 L1159.36 9.54393 L1159.36 72.576 L1151.9 72.576 L1151.9 9.54393 Z" fill="#000000" fill-rule="nonzero" fill-opacity="1" /><path clip-path="url(#clip190)" d="M1174.95 9.54393 L1182.41 9.54393 L1182.41 72.576 L1174.95 72.576 L1174.95 9.54393 Z" fill="#000000" fill-rule="nonzero" fill-opacity="1" /><path clip-path="url(#clip190)" d="M1254.23 34.0924 L1254.23 9.54393 L1261.68 9.54393 L1261.68 72.576 L1254.23 72.576 L1254.23 65.7705 Q1251.88 69.8214 1248.27 71.8063 Q1244.71 73.7508 1239.69 73.7508 Q1231.46 73.7508 1226.28 67.1883 Q1221.13 60.6258 1221.13 49.9314 Q1221.13 39.2371 1226.28 32.6746 Q1231.46 26.1121 1239.69 26.1121 Q1244.71 26.1121 1248.27 28.0971 Q1251.88 30.0415 1254.23 34.0924 M1228.83 49.9314 Q1228.83 58.1548 1232.19 62.8538 Q1235.59 67.5124 1241.51 67.5124 Q1247.42 67.5124 1250.83 62.8538 Q1254.23 58.1548 1254.23 49.9314 Q1254.23 41.7081 1250.83 37.0496 Q1247.42 32.3505 1241.51 32.3505 Q1235.59 32.3505 1232.19 37.0496 Q1228.83 41.7081 1228.83 49.9314 Z" fill="#000000" fill-rule="nonzero" fill-opacity="1" /><path clip-path="url(#clip190)" d="M1277.03 27.2059 L1284.49 27.2059 L1284.49 72.576 L1277.03 72.576 L1277.03 27.2059 M1277.03 9.54393 L1284.49 9.54393 L1284.49 18.9825 L1277.03 18.9825 L1277.03 9.54393 Z" fill="#000000" fill-rule="nonzero" fill-opacity="1" /><path clip-path="url(#clip190)" d="M1329.01 28.5427 L1329.01 35.5912 Q1325.85 33.9709 1322.45 33.1607 Q1319.04 32.3505 1315.4 32.3505 Q1309.85 32.3505 1307.05 34.0519 Q1304.3 35.7533 1304.3 39.156 Q1304.3 41.7486 1306.28 43.2475 Q1308.27 44.7058 1314.26 46.0426 L1316.81 46.6097 Q1324.75 48.3111 1328.08 51.4303 Q1331.44 54.509 1331.44 60.0587 Q1331.44 66.3781 1326.42 70.0644 Q1321.43 73.7508 1312.68 73.7508 Q1309.04 73.7508 1305.07 73.0216 Q1301.14 72.3329 1296.76 70.9151 L1296.76 63.2184 Q1300.89 65.3654 1304.9 66.4591 Q1308.92 67.5124 1312.84 67.5124 Q1318.11 67.5124 1320.95 65.73 Q1323.78 63.9071 1323.78 60.6258 Q1323.78 57.5877 1321.72 55.9673 Q1319.69 54.3469 1312.76 52.8481 L1310.17 52.2405 Q1303.24 50.7821 1300.17 47.7845 Q1297.09 44.7463 1297.09 39.4801 Q1297.09 33.0797 1301.62 29.5959 Q1306.16 26.1121 1314.51 26.1121 Q1318.64 26.1121 1322.28 26.7198 Q1325.93 27.3274 1329.01 28.5427 Z" fill="#000000" fill-rule="nonzero" fill-opacity="1" /><path clip-path="url(#clip190)" d="M1350.68 14.324 L1350.68 27.2059 L1366.03 27.2059 L1366.03 32.9987 L1350.68 32.9987 L1350.68 57.6282 Q1350.68 63.1779 1352.18 64.7578 Q1353.72 66.3376 1358.38 66.3376 L1366.03 66.3376 L1366.03 72.576 L1358.38 72.576 Q1349.75 72.576 1346.47 69.3758 Q1343.19 66.1351 1343.19 57.6282 L1343.19 32.9987 L1337.72 32.9987 L1337.72 27.2059 L1343.19 27.2059 L1343.19 14.324 L1350.68 14.324 Z" fill="#000000" fill-rule="nonzero" fill-opacity="1" /><path clip-path="url(#clip190)" d="M1402.13 34.1734 Q1400.87 33.4443 1399.37 33.1202 Q1397.91 32.7556 1396.13 32.7556 Q1389.81 32.7556 1386.41 36.8875 Q1383.05 40.9789 1383.05 48.6757 L1383.05 72.576 L1375.55 72.576 L1375.55 27.2059 L1383.05 27.2059 L1383.05 34.2544 Q1385.4 30.1225 1389.16 28.1376 Q1392.93 26.1121 1398.32 26.1121 Q1399.09 26.1121 1400.02 26.2337 Q1400.95 26.3147 1402.09 26.5172 L1402.13 34.1734 Z" fill="#000000" fill-rule="nonzero" fill-opacity="1" /><path clip-path="url(#clip190)" d="M1409.94 27.2059 L1417.4 27.2059 L1417.4 72.576 L1409.94 72.576 L1409.94 27.2059 M1409.94 9.54393 L1417.4 9.54393 L1417.4 18.9825 L1409.94 18.9825 L1409.94 9.54393 Z" fill="#000000" fill-rule="nonzero" fill-opacity="1" /><path clip-path="url(#clip190)" d="M1465.56 49.9314 Q1465.56 41.7081 1462.16 37.0496 Q1458.8 32.3505 1452.88 32.3505 Q1446.97 32.3505 1443.57 37.0496 Q1440.2 41.7081 1440.2 49.9314 Q1440.2 58.1548 1443.57 62.8538 Q1446.97 67.5124 1452.88 67.5124 Q1458.8 67.5124 1462.16 62.8538 Q1465.56 58.1548 1465.56 49.9314 M1440.2 34.0924 Q1442.55 30.0415 1446.12 28.0971 Q1449.72 26.1121 1454.71 26.1121 Q1462.97 26.1121 1468.12 32.6746 Q1473.3 39.2371 1473.3 49.9314 Q1473.3 60.6258 1468.12 67.1883 Q1462.97 73.7508 1454.71 73.7508 Q1449.72 73.7508 1446.12 71.8063 Q1442.55 69.8214 1440.2 65.7705 L1440.2 72.576 L1432.71 72.576 L1432.71 9.54393 L1440.2 9.54393 L1440.2 34.0924 Z" fill="#000000" fill-rule="nonzero" fill-opacity="1" /><path clip-path="url(#clip190)" d="M1484.89 54.671 L1484.89 27.2059 L1492.34 27.2059 L1492.34 54.3874 Q1492.34 60.8284 1494.85 64.0691 Q1497.36 67.2693 1502.39 67.2693 Q1508.42 67.2693 1511.91 63.421 Q1515.43 59.5726 1515.43 52.9291 L1515.43 27.2059 L1522.88 27.2059 L1522.88 72.576 L1515.43 72.576 L1515.43 65.6084 Q1512.72 69.7404 1509.11 71.7658 Q1505.55 73.7508 1500.81 73.7508 Q1492.99 73.7508 1488.94 68.8897 Q1484.89 64.0286 1484.89 54.671 M1503.64 26.1121 L1503.64 26.1121 Z" fill="#000000" fill-rule="nonzero" fill-opacity="1" /><path clip-path="url(#clip190)" d="M1545.61 14.324 L1545.61 27.2059 L1560.96 27.2059 L1560.96 32.9987 L1545.61 32.9987 L1545.61 57.6282 Q1545.61 63.1779 1547.11 64.7578 Q1548.65 66.3376 1553.31 66.3376 L1560.96 66.3376 L1560.96 72.576 L1553.31 72.576 Q1544.68 72.576 1541.4 69.3758 Q1538.12 66.1351 1538.12 57.6282 L1538.12 32.9987 L1532.65 32.9987 L1532.65 27.2059 L1538.12 27.2059 L1538.12 14.324 L1545.61 14.324 Z" fill="#000000" fill-rule="nonzero" fill-opacity="1" /><path clip-path="url(#clip190)" d="M1570.77 27.2059 L1578.22 27.2059 L1578.22 72.576 L1570.77 72.576 L1570.77 27.2059 M1570.77 9.54393 L1578.22 9.54393 L1578.22 18.9825 L1570.77 18.9825 L1570.77 9.54393 Z" fill="#000000" fill-rule="nonzero" fill-opacity="1" /><path clip-path="url(#clip190)" d="M1611.4 32.4315 Q1605.4 32.4315 1601.92 37.1306 Q1598.43 41.7891 1598.43 49.9314 Q1598.43 58.0738 1601.88 62.7728 Q1605.36 67.4314 1611.4 67.4314 Q1617.35 67.4314 1620.83 62.7323 Q1624.32 58.0333 1624.32 49.9314 Q1624.32 41.8701 1620.83 37.1711 Q1617.35 32.4315 1611.4 32.4315 M1611.4 26.1121 Q1621.12 26.1121 1626.67 32.4315 Q1632.22 38.7509 1632.22 49.9314 Q1632.22 61.0714 1626.67 67.4314 Q1621.12 73.7508 1611.4 73.7508 Q1601.63 73.7508 1596.08 67.4314 Q1590.57 61.0714 1590.57 49.9314 Q1590.57 38.7509 1596.08 32.4315 Q1601.63 26.1121 1611.4 26.1121 Z" fill="#000000" fill-rule="nonzero" fill-opacity="1" /><path clip-path="url(#clip190)" d="M1682.29 45.1919 L1682.29 72.576 L1674.83 72.576 L1674.83 45.4349 Q1674.83 38.994 1672.32 35.7938 Q1669.81 32.5936 1664.79 32.5936 Q1658.75 32.5936 1655.27 36.4419 Q1651.78 40.2903 1651.78 46.9338 L1651.78 72.576 L1644.29 72.576 L1644.29 27.2059 L1651.78 27.2059 L1651.78 34.2544 Q1654.46 30.163 1658.06 28.1376 Q1661.71 26.1121 1666.45 26.1121 Q1674.27 26.1121 1678.28 30.9732 Q1682.29 35.7938 1682.29 45.1919 Z" fill="#000000" fill-rule="nonzero" fill-opacity="1" /><polyline clip-path="url(#clip192)" style="stroke:#000000; stroke-linecap:round; stroke-linejoin:round; stroke-width:4; stroke-opacity:1; fill:none" points="300.556,1340.43 320.881,1331.99 341.206,1326.51 361.53,1322.42 381.855,1319.17 402.18,1316.51 422.505,1314.26 442.83,1312.35 463.155,1310.7 483.48,1309.27 503.804,1308.03 524.129,1306.95 544.454,1306 564.779,1305.18 585.104,1304.47 605.429,1303.86 625.753,1303.33 646.078,1302.88 666.403,1302.51 686.728,1302.2 707.053,1301.96 727.378,1301.77 747.703,1301.64 768.027,1301.55 788.352,1301.51 808.677,1301.51 829.002,1301.55 849.327,1301.63 869.652,1301.74 889.977,1301.88 910.301,1302.06 930.626,1302.26 950.951,1302.49 971.276,1302.75 991.601,1303.03 1011.93,1303.33 1032.25,1303.65 1052.58,1303.99 1072.9,1304.36 1093.23,1304.73 1113.55,1305.13 1133.87,1305.54 1154.2,1305.97 1174.52,1306.41 1194.85,1306.86 1215.17,1307.32 1235.5,1307.8 1255.82,1308.29 1276.15,1308.78 1296.47,1309.29 1316.8,1309.81 1337.12,1310.33 1357.45,1310.86 1377.77,1311.4 1398.1,1311.94 1418.42,1312.49 1438.75,1313.05 1459.07,1313.61 1479.4,1314.18 1499.72,1314.75 1520.05,1315.33 1540.37,1315.91 1560.7,1316.49 1581.02,1317.07 1601.35,1317.66 1621.67,1318.25 1642,1318.84 1662.32,1319.44 1682.65,1320.03 1702.97,1320.63 1723.3,1321.23 1743.62,1321.83 1763.95,1322.42 1784.27,1323.02 1804.59,1323.62 1824.92,1324.22 1845.24,1324.82 1865.57,1325.42 1885.89,1326.01 1906.22,1326.61 1926.54,1327.2 1946.87,1327.8 1967.19,1328.39 1987.52,1328.98 2007.84,1329.57 2028.17,1330.15 2048.49,1330.74 2068.82,1331.32 2089.14,1331.9 2109.47,1332.48 2129.79,1333.05 2150.12,1333.63 2170.44,1334.2 2190.77,1334.76 2211.09,1335.33 2231.42,1335.89 2251.74,1336.45 2272.07,1337 2292.39,1337.55 "/>
<polyline clip-path="url(#clip192)" style="stroke:#ff0000; stroke-linecap:round; stroke-linejoin:round; stroke-width:4; stroke-opacity:1; fill:none" points="286.961,424.197 293.69,280.339 300.42,208.884 307.15,173.403 313.879,160.256 320.609,162.415 327.338,175.609 334.068,196.973 340.798,224.452 347.527,256.508 354.257,291.949 360.987,329.835 367.716,369.41 374.446,410.062 381.176,451.29 387.905,492.684 394.635,533.908 401.364,574.687 408.094,614.798 414.824,654.06 421.553,692.328 428.283,729.489 435.013,765.456 441.742,800.165 448.472,833.569 455.202,865.64 461.931,896.361 468.661,925.731 475.39,953.754 482.12,980.445 488.85,1005.83 495.579,1029.92 502.309,1052.77 509.039,1074.4 515.768,1094.85 522.498,1114.16 529.227,1132.37 535.957,1149.54 542.687,1165.69 549.416,1180.88 556.146,1195.14 562.876,1208.53 569.605,1221.08 576.335,1232.84 583.065,1243.84 589.794,1254.13 596.524,1263.75 603.253,1272.73 609.983,1281.11 616.713,1288.92 623.442,1296.19 630.172,1302.97 636.902,1309.28 643.631,1315.14 650.361,1320.59 657.09,1325.65 663.82,1330.35 670.55,1334.7 677.279,1338.74 684.009,1342.49 690.739,1345.95 697.468,1349.16 704.198,1352.13 710.928,1354.87 717.657,1357.41 724.387,1359.75 731.116,1361.92 737.846,1363.91 744.576,1365.75 751.305,1367.45 758.035,1369.02 764.765,1370.46 771.494,1371.78 778.224,1373.01 784.953,1374.13 791.683,1375.16 798.413,1376.11 805.142,1376.98 811.872,1377.79 818.602,1378.52 825.331,1379.2 832.061,1379.82 838.791,1380.38 845.52,1380.91 852.25,1381.38 858.979,1381.82 865.709,1382.22 872.439,1382.59 879.168,1382.92 885.898,1383.23 892.628,1383.51 899.357,1383.77 906.087,1384 912.816,1384.21 919.546,1384.41 926.276,1384.59 933.005,1384.75 939.735,1384.9 946.465,1385.04 953.194,1385.16 959.924,1385.27 966.654,1385.37 973.383,1385.47 980.113,1385.55 986.842,1385.63 993.572,1385.7 1000.3,1385.77 1007.03,1385.82 1013.76,1385.88 1020.49,1385.93 1027.22,1385.97 1033.95,1386.01 1040.68,1386.05 1047.41,1386.08 1054.14,1386.11 1060.87,1386.14 1067.6,1386.16 1074.33,1386.18 1081.06,1386.2 1087.79,1386.22 1094.52,1386.24 1101.25,1386.25 1107.98,1386.27 1114.71,1386.28 1121.44,1386.29 1128.16,1386.3 1134.89,1386.31 1141.62,1386.32 1148.35,1386.33 1155.08,1386.33 1161.81,1386.34 1168.54,1386.34 1175.27,1386.35 1182,1386.35 1188.73,1386.36 1195.46,1386.36 1202.19,1386.37 1208.92,1386.37 1215.65,1386.37 1222.38,1386.37 1229.11,1386.38 1235.84,1386.38 1242.57,1386.38 1249.3,1386.38 1256.03,1386.38 1262.76,1386.38 1269.49,1386.38 1276.22,1386.39 1282.95,1386.39 1289.68,1386.39 1296.41,1386.39 1303.14,1386.39 1309.86,1386.39 1316.59,1386.39 1323.32,1386.39 1330.05,1386.39 1336.78,1386.39 1343.51,1386.39 1350.24,1386.39 1356.97,1386.39 1363.7,1386.39 1370.43,1386.39 1377.16,1386.39 1383.89,1386.39 1390.62,1386.39 1397.35,1386.39 1404.08,1386.39 1410.81,1386.39 1417.54,1386.39 1424.27,1386.39 1431,1386.39 1437.73,1386.39 1444.46,1386.4 1451.19,1386.4 1457.92,1386.4 1464.65,1386.4 1471.38,1386.4 1478.11,1386.4 1484.84,1386.4 1491.56,1386.4 1498.29,1386.4 1505.02,1386.4 1511.75,1386.4 1518.48,1386.4 1525.21,1386.4 1531.94,1386.4 1538.67,1386.4 1545.4,1386.4 1552.13,1386.4 1558.86,1386.4 1565.59,1386.4 1572.32,1386.4 1579.05,1386.4 1585.78,1386.4 1592.51,1386.4 1599.24,1386.4 1605.97,1386.4 1612.7,1386.4 1619.43,1386.4 1626.16,1386.4 1632.89,1386.4 1639.62,1386.4 1646.35,1386.4 1653.08,1386.4 1659.81,1386.4 1666.54,1386.4 1673.26,1386.4 1679.99,1386.4 1686.72,1386.4 1693.45,1386.4 1700.18,1386.4 1706.91,1386.4 1713.64,1386.4 1720.37,1386.4 1727.1,1386.4 1733.83,1386.4 1740.56,1386.4 1747.29,1386.4 1754.02,1386.4 1760.75,1386.4 1767.48,1386.4 1774.21,1386.4 1780.94,1386.4 1787.67,1386.4 1794.4,1386.4 1801.13,1386.4 1807.86,1386.4 1814.59,1386.4 1821.32,1386.4 1828.05,1386.4 1834.78,1386.4 1841.51,1386.4 1848.24,1386.4 1854.97,1386.4 1861.69,1386.4 1868.42,1386.4 1875.15,1386.4 1881.88,1386.4 1888.61,1386.4 1895.34,1386.4 1902.07,1386.4 1908.8,1386.4 1915.53,1386.4 1922.26,1386.4 1928.99,1386.4 1935.72,1386.4 1942.45,1386.4 1949.18,1386.4 1955.91,1386.4 1962.64,1386.4 1969.37,1386.4 1976.1,1386.4 1982.83,1386.4 1989.56,1386.4 1996.29,1386.4 2003.02,1386.4 2009.75,1386.4 2016.48,1386.4 2023.21,1386.4 2029.94,1386.4 2036.67,1386.4 2043.39,1386.4 2050.12,1386.4 2056.85,1386.4 2063.58,1386.4 2070.31,1386.4 2077.04,1386.4 2083.77,1386.4 2090.5,1386.4 2097.23,1386.4 2103.96,1386.4 2110.69,1386.4 2117.42,1386.4 2124.15,1386.4 2130.88,1386.4 2137.61,1386.4 2144.34,1386.4 2151.07,1386.4 2157.8,1386.4 2164.53,1386.4 2171.26,1386.4 2177.99,1386.4 2184.72,1386.4 2191.45,1386.4 2198.18,1386.4 2204.91,1386.4 2211.64,1386.4 2218.37,1386.4 2225.09,1386.4 2231.82,1386.4 2238.55,1386.4 2245.28,1386.4 2252.01,1386.4 2258.74,1386.4 2265.47,1386.4 2272.2,1386.4 2278.93,1386.4 2285.66,1386.4 2292.39,1386.4 "/>
<path clip-path="url(#clip190)" d="M1645.25 322.316 L2281.66 322.316 L2281.66 166.796 L1645.25 166.796  Z" fill="#ffffff" fill-rule="evenodd" fill-opacity="1"/>
<polyline clip-path="url(#clip190)" style="stroke:#000000; stroke-linecap:round; stroke-linejoin:round; stroke-width:4; stroke-opacity:1; fill:none" points="1645.25,322.316 2281.66,322.316 2281.66,166.796 1645.25,166.796 1645.25,322.316 "/>
<polyline clip-path="url(#clip190)" style="stroke:#000000; stroke-linecap:round; stroke-linejoin:round; stroke-width:4; stroke-opacity:1; fill:none" points="1668.95,218.636 1811.14,218.636 "/>
<path clip-path="url(#clip190)" d="M1836.41 201.356 L1841.44 201.356 L1850.02 214.203 L1858.66 201.356 L1863.68 201.356 L1852.57 217.953 L1864.42 235.916 L1859.4 235.916 L1849.68 221.217 L1839.88 235.916 L1834.84 235.916 L1847.18 217.467 L1836.41 201.356 Z" fill="#000000" fill-rule="nonzero" fill-opacity="1" /><path clip-path="url(#clip190)" d="M1870.93 214.388 L1900.6 214.388 L1900.6 218.277 L1870.93 218.277 L1870.93 214.388 M1870.93 223.832 L1900.6 223.832 L1900.6 227.768 L1870.93 227.768 L1870.93 223.832 Z" fill="#000000" fill-rule="nonzero" fill-opacity="1" /><path clip-path="url(#clip190)" d="M1920.69 204.434 Q1917.08 204.434 1915.25 207.999 Q1913.45 211.541 1913.45 218.67 Q1913.45 225.777 1915.25 229.342 Q1917.08 232.883 1920.69 232.883 Q1924.33 232.883 1926.13 229.342 Q1927.96 225.777 1927.96 218.67 Q1927.96 211.541 1926.13 207.999 Q1924.33 204.434 1920.69 204.434 M1920.69 200.731 Q1926.5 200.731 1929.56 205.337 Q1932.64 209.92 1932.64 218.67 Q1932.64 227.397 1929.56 232.004 Q1926.5 236.587 1920.69 236.587 Q1914.88 236.587 1911.81 232.004 Q1908.75 227.397 1908.75 218.67 Q1908.75 209.92 1911.81 205.337 Q1914.88 200.731 1920.69 200.731 Z" fill="#000000" fill-rule="nonzero" fill-opacity="1" /><path clip-path="url(#clip190)" d="M1941.34 230.036 L1946.23 230.036 L1946.23 234.018 L1942.43 241.425 L1939.44 241.425 L1941.34 234.018 L1941.34 230.036 Z" fill="#000000" fill-rule="nonzero" fill-opacity="1" /><path clip-path="url(#clip190)" d="M1968.59 201.356 L1995.74 201.356 L1995.74 204.921 L1973.89 231.981 L1996.27 231.981 L1996.27 235.916 L1968.05 235.916 L1968.05 232.351 L1989.91 205.291 L1968.59 205.291 L1968.59 201.356 Z" fill="#000000" fill-rule="nonzero" fill-opacity="1" /><path clip-path="url(#clip190)" d="M2004.28 231.981 L2011.92 231.981 L2011.92 205.615 L2003.61 207.282 L2003.61 203.022 L2011.87 201.356 L2016.55 201.356 L2016.55 231.981 L2024.19 231.981 L2024.19 235.916 L2004.28 235.916 L2004.28 231.981 Z" fill="#000000" fill-rule="nonzero" fill-opacity="1" /><path clip-path="url(#clip190)" d="M2033.59 214.388 L2063.26 214.388 L2063.26 218.277 L2033.59 218.277 L2033.59 214.388 M2033.59 223.832 L2063.26 223.832 L2063.26 227.768 L2033.59 227.768 L2033.59 223.832 Z" fill="#000000" fill-rule="nonzero" fill-opacity="1" /><path clip-path="url(#clip190)" d="M2083.36 204.434 Q2079.74 204.434 2077.92 207.999 Q2076.11 211.541 2076.11 218.67 Q2076.11 225.777 2077.92 229.342 Q2079.74 232.883 2083.36 232.883 Q2086.99 232.883 2088.8 229.342 Q2090.62 225.777 2090.62 218.67 Q2090.62 211.541 2088.8 207.999 Q2086.99 204.434 2083.36 204.434 M2083.36 200.731 Q2089.17 200.731 2092.22 205.337 Q2095.3 209.92 2095.3 218.67 Q2095.3 227.397 2092.22 232.004 Q2089.17 236.587 2083.36 236.587 Q2077.55 236.587 2074.47 232.004 Q2071.41 227.397 2071.41 218.67 Q2071.41 209.92 2074.47 205.337 Q2077.55 200.731 2083.36 200.731 Z" fill="#000000" fill-rule="nonzero" fill-opacity="1" /><path clip-path="url(#clip190)" d="M2104 230.036 L2108.89 230.036 L2108.89 234.018 L2105.09 241.425 L2102.11 241.425 L2104 234.018 L2104 230.036 Z" fill="#000000" fill-rule="nonzero" fill-opacity="1" /><path clip-path="url(#clip190)" d="M2131.25 201.356 L2158.4 201.356 L2158.4 204.921 L2136.55 231.981 L2158.93 231.981 L2158.93 235.916 L2130.72 235.916 L2130.72 232.351 L2152.57 205.291 L2131.25 205.291 L2131.25 201.356 Z" fill="#000000" fill-rule="nonzero" fill-opacity="1" /><path clip-path="url(#clip190)" d="M2170.16 231.981 L2186.48 231.981 L2186.48 235.916 L2164.54 235.916 L2164.54 231.981 Q2167.2 229.226 2171.78 224.596 Q2176.39 219.944 2177.57 218.601 Q2179.81 216.078 2180.69 214.342 Q2181.6 212.583 2181.6 210.893 Q2181.6 208.138 2179.65 206.402 Q2177.73 204.666 2174.63 204.666 Q2172.43 204.666 2169.98 205.43 Q2167.54 206.194 2164.77 207.745 L2164.77 203.022 Q2167.59 201.888 2170.04 201.309 Q2172.5 200.731 2174.54 200.731 Q2179.91 200.731 2183.1 203.416 Q2186.29 206.101 2186.29 210.592 Q2186.29 212.721 2185.48 214.643 Q2184.7 216.541 2182.59 219.133 Q2182.01 219.805 2178.91 223.022 Q2175.81 226.217 2170.16 231.981 Z" fill="#000000" fill-rule="nonzero" fill-opacity="1" /><path clip-path="url(#clip190)" d="M2196.25 214.388 L2225.92 214.388 L2225.92 218.277 L2196.25 218.277 L2196.25 214.388 M2196.25 223.832 L2225.92 223.832 L2225.92 227.768 L2196.25 227.768 L2196.25 223.832 Z" fill="#000000" fill-rule="nonzero" fill-opacity="1" /><path clip-path="url(#clip190)" d="M2246.02 204.434 Q2242.41 204.434 2240.58 207.999 Q2238.77 211.541 2238.77 218.67 Q2238.77 225.777 2240.58 229.342 Q2242.41 232.883 2246.02 232.883 Q2249.65 232.883 2251.46 229.342 Q2253.28 225.777 2253.28 218.67 Q2253.28 211.541 2251.46 207.999 Q2249.65 204.434 2246.02 204.434 M2246.02 200.731 Q2251.83 200.731 2254.88 205.337 Q2257.96 209.92 2257.96 218.67 Q2257.96 227.397 2254.88 232.004 Q2251.83 236.587 2246.02 236.587 Q2240.21 236.587 2237.13 232.004 Q2234.07 227.397 2234.07 218.67 Q2234.07 209.92 2237.13 205.337 Q2240.21 200.731 2246.02 200.731 Z" fill="#000000" fill-rule="nonzero" fill-opacity="1" /><polyline clip-path="url(#clip190)" style="stroke:#ff0000; stroke-linecap:round; stroke-linejoin:round; stroke-width:4; stroke-opacity:1; fill:none" points="1668.95,270.476 1811.14,270.476 "/>
<path clip-path="url(#clip190)" d="M1836.41 253.196 L1841.44 253.196 L1850.02 266.043 L1858.66 253.196 L1863.68 253.196 L1852.57 269.793 L1864.42 287.756 L1859.4 287.756 L1849.68 273.057 L1839.88 287.756 L1834.84 287.756 L1847.18 269.307 L1836.41 253.196 Z" fill="#000000" fill-rule="nonzero" fill-opacity="1" /><path clip-path="url(#clip190)" d="M1870.93 266.228 L1900.6 266.228 L1900.6 270.117 L1870.93 270.117 L1870.93 266.228 M1870.93 275.672 L1900.6 275.672 L1900.6 279.608 L1870.93 279.608 L1870.93 275.672 Z" fill="#000000" fill-rule="nonzero" fill-opacity="1" /><path clip-path="url(#clip190)" d="M1911.5 283.821 L1919.14 283.821 L1919.14 257.455 L1910.83 259.122 L1910.83 254.862 L1919.1 253.196 L1923.77 253.196 L1923.77 283.821 L1931.41 283.821 L1931.41 287.756 L1911.5 287.756 L1911.5 283.821 Z" fill="#000000" fill-rule="nonzero" fill-opacity="1" /><path clip-path="url(#clip190)" d="M1941.34 281.876 L1946.23 281.876 L1946.23 285.858 L1942.43 293.265 L1939.44 293.265 L1941.34 285.858 L1941.34 281.876 Z" fill="#000000" fill-rule="nonzero" fill-opacity="1" /><path clip-path="url(#clip190)" d="M1968.59 253.196 L1995.74 253.196 L1995.74 256.761 L1973.89 283.821 L1996.27 283.821 L1996.27 287.756 L1968.05 287.756 L1968.05 284.191 L1989.91 257.131 L1968.59 257.131 L1968.59 253.196 Z" fill="#000000" fill-rule="nonzero" fill-opacity="1" /><path clip-path="url(#clip190)" d="M2004.28 283.821 L2011.92 283.821 L2011.92 257.455 L2003.61 259.122 L2003.61 254.862 L2011.87 253.196 L2016.55 253.196 L2016.55 283.821 L2024.19 283.821 L2024.19 287.756 L2004.28 287.756 L2004.28 283.821 Z" fill="#000000" fill-rule="nonzero" fill-opacity="1" /><path clip-path="url(#clip190)" d="M2033.59 266.228 L2063.26 266.228 L2063.26 270.117 L2033.59 270.117 L2033.59 266.228 M2033.59 275.672 L2063.26 275.672 L2063.26 279.608 L2033.59 279.608 L2033.59 275.672 Z" fill="#000000" fill-rule="nonzero" fill-opacity="1" /><path clip-path="url(#clip190)" d="M2074.17 283.821 L2081.8 283.821 L2081.8 257.455 L2073.49 259.122 L2073.49 254.862 L2081.76 253.196 L2086.43 253.196 L2086.43 283.821 L2094.07 283.821 L2094.07 287.756 L2074.17 287.756 L2074.17 283.821 Z" fill="#000000" fill-rule="nonzero" fill-opacity="1" /><path clip-path="url(#clip190)" d="M2104 281.876 L2108.89 281.876 L2108.89 285.858 L2105.09 293.265 L2102.11 293.265 L2104 285.858 L2104 281.876 Z" fill="#000000" fill-rule="nonzero" fill-opacity="1" /><path clip-path="url(#clip190)" d="M2131.25 253.196 L2158.4 253.196 L2158.4 256.761 L2136.55 283.821 L2158.93 283.821 L2158.93 287.756 L2130.72 287.756 L2130.72 284.191 L2152.57 257.131 L2131.25 257.131 L2131.25 253.196 Z" fill="#000000" fill-rule="nonzero" fill-opacity="1" /><path clip-path="url(#clip190)" d="M2170.16 283.821 L2186.48 283.821 L2186.48 287.756 L2164.54 287.756 L2164.54 283.821 Q2167.2 281.066 2171.78 276.436 Q2176.39 271.784 2177.57 270.441 Q2179.81 267.918 2180.69 266.182 Q2181.6 264.423 2181.6 262.733 Q2181.6 259.978 2179.65 258.242 Q2177.73 256.506 2174.63 256.506 Q2172.43 256.506 2169.98 257.27 Q2167.54 258.034 2164.77 259.585 L2164.77 254.862 Q2167.59 253.728 2170.04 253.149 Q2172.5 252.571 2174.54 252.571 Q2179.91 252.571 2183.1 255.256 Q2186.29 257.941 2186.29 262.432 Q2186.29 264.561 2185.48 266.483 Q2184.7 268.381 2182.59 270.973 Q2182.01 271.645 2178.91 274.862 Q2175.81 278.057 2170.16 283.821 Z" fill="#000000" fill-rule="nonzero" fill-opacity="1" /><path clip-path="url(#clip190)" d="M2196.25 266.228 L2225.92 266.228 L2225.92 270.117 L2196.25 270.117 L2196.25 266.228 M2196.25 275.672 L2225.92 275.672 L2225.92 279.608 L2196.25 279.608 L2196.25 275.672 Z" fill="#000000" fill-rule="nonzero" fill-opacity="1" /><path clip-path="url(#clip190)" d="M2236.83 283.821 L2244.47 283.821 L2244.47 257.455 L2236.16 259.122 L2236.16 254.862 L2244.42 253.196 L2249.1 253.196 L2249.1 283.821 L2256.73 283.821 L2256.73 287.756 L2236.83 287.756 L2236.83 283.821 Z" fill="#000000" fill-rule="nonzero" fill-opacity="1" /></svg>
