<?xml version="1.0" encoding="utf-8"?>
<svg xmlns="http://www.w3.org/2000/svg" xmlns:xlink="http://www.w3.org/1999/xlink" width="600" height="400" viewBox="0 0 2400 1600">
<defs>
  <clipPath id="clip070">
    <rect x="0" y="0" width="2400" height="1600"/>
  </clipPath>
</defs>
<path clip-path="url(#clip070)" d="M0 1600 L2400 1600 L2400 0 L0 0  Z" fill="#ffffff" fill-rule="evenodd" fill-opacity="1"/>
<defs>
  <clipPath id="clip071">
    <rect x="480" y="0" width="1681" height="1600"/>
  </clipPath>
</defs>
<path clip-path="url(#clip070)" d="M219.866 1423.18 L2352.76 1423.18 L2352.76 123.472 L219.866 123.472  Z" fill="#ffffff" fill-rule="evenodd" fill-opacity="1"/>
<defs>
  <clipPath id="clip072">
    <rect x="219" y="123" width="2134" height="1301"/>
  </clipPath>
</defs>
<polyline clip-path="url(#clip070)" style="stroke:#000000; stroke-linecap:round; stroke-linejoin:round; stroke-width:4; stroke-opacity:1; fill:none" points="219.866,1423.18 2352.76,1423.18 "/>
<polyline clip-path="url(#clip070)" style="stroke:#000000; stroke-linecap:round; stroke-linejoin:round; stroke-width:4; stroke-opacity:1; fill:none" points="280.231,1423.18 280.231,1404.28 "/>
<polyline clip-path="url(#clip070)" style="stroke:#000000; stroke-linecap:round; stroke-linejoin:round; stroke-width:4; stroke-opacity:1; fill:none" points="727.378,1423.18 727.378,1404.28 "/>
<polyline clip-path="url(#clip070)" style="stroke:#000000; stroke-linecap:round; stroke-linejoin:round; stroke-width:4; stroke-opacity:1; fill:none" points="1174.52,1423.18 1174.52,1404.28 "/>
<polyline clip-path="url(#clip070)" style="stroke:#000000; stroke-linecap:round; stroke-linejoin:round; stroke-width:4; stroke-opacity:1; fill:none" points="1621.67,1423.18 1621.67,1404.28 "/>
<polyline clip-path="url(#clip070)" style="stroke:#000000; stroke-linecap:round; stroke-linejoin:round; stroke-width:4; stroke-opacity:1; fill:none" points="2068.82,1423.18 2068.82,1404.28 "/>
<path clip-path="url(#clip070)" d="M280.231 1454.1 Q276.62 1454.1 274.791 1457.66 Q272.986 1461.2 272.986 1468.33 Q272.986 1475.44 274.791 1479.01 Q276.62 1482.55 280.231 1482.55 Q283.865 1482.55 285.671 1479.01 Q287.5 1475.44 287.5 1468.33 Q287.5 1461.2 285.671 1457.66 Q283.865 1454.1 280.231 1454.1 M280.231 1450.39 Q286.041 1450.39 289.097 1455 Q292.175 1459.58 292.175 1468.33 Q292.175 1477.06 289.097 1481.67 Q286.041 1486.25 280.231 1486.25 Q274.421 1486.25 271.342 1481.67 Q268.287 1477.06 268.287 1468.33 Q268.287 1459.58 271.342 1455 Q274.421 1450.39 280.231 1450.39 Z" fill="#000000" fill-rule="nonzero" fill-opacity="1" /><path clip-path="url(#clip070)" d="M722.031 1481.64 L738.35 1481.64 L738.35 1485.58 L716.406 1485.58 L716.406 1481.64 Q719.068 1478.89 723.651 1474.26 Q728.257 1469.61 729.438 1468.27 Q731.683 1465.74 732.563 1464.01 Q733.466 1462.25 733.466 1460.56 Q733.466 1457.8 731.521 1456.07 Q729.6 1454.33 726.498 1454.33 Q724.299 1454.33 721.845 1455.09 Q719.415 1455.86 716.637 1457.41 L716.637 1452.69 Q719.461 1451.55 721.915 1450.97 Q724.368 1450.39 726.406 1450.39 Q731.776 1450.39 734.97 1453.08 Q738.165 1455.77 738.165 1460.26 Q738.165 1462.39 737.355 1464.31 Q736.568 1466.2 734.461 1468.8 Q733.882 1469.47 730.781 1472.69 Q727.679 1475.88 722.031 1481.64 Z" fill="#000000" fill-rule="nonzero" fill-opacity="1" /><path clip-path="url(#clip070)" d="M1177.53 1455.09 L1165.73 1473.54 L1177.53 1473.54 L1177.53 1455.09 M1176.31 1451.02 L1182.19 1451.02 L1182.19 1473.54 L1187.12 1473.54 L1187.12 1477.43 L1182.19 1477.43 L1182.19 1485.58 L1177.53 1485.58 L1177.53 1477.43 L1161.93 1477.43 L1161.93 1472.92 L1176.31 1451.02 Z" fill="#000000" fill-rule="nonzero" fill-opacity="1" /><path clip-path="url(#clip070)" d="M1622.08 1466.44 Q1618.93 1466.44 1617.08 1468.59 Q1615.25 1470.74 1615.25 1474.49 Q1615.25 1478.22 1617.08 1480.39 Q1618.93 1482.55 1622.08 1482.55 Q1625.22 1482.55 1627.05 1480.39 Q1628.9 1478.22 1628.9 1474.49 Q1628.9 1470.74 1627.05 1468.59 Q1625.22 1466.44 1622.08 1466.44 M1631.36 1451.78 L1631.36 1456.04 Q1629.6 1455.21 1627.79 1454.77 Q1626.01 1454.33 1624.25 1454.33 Q1619.62 1454.33 1617.17 1457.45 Q1614.74 1460.58 1614.39 1466.9 Q1615.76 1464.89 1617.82 1463.82 Q1619.88 1462.73 1622.35 1462.73 Q1627.56 1462.73 1630.57 1465.9 Q1633.6 1469.05 1633.6 1474.49 Q1633.6 1479.82 1630.46 1483.03 Q1627.31 1486.25 1622.08 1486.25 Q1616.08 1486.25 1612.91 1481.67 Q1609.74 1477.06 1609.74 1468.33 Q1609.74 1460.14 1613.63 1455.28 Q1617.52 1450.39 1624.07 1450.39 Q1625.83 1450.39 1627.61 1450.74 Q1629.41 1451.09 1631.36 1451.78 Z" fill="#000000" fill-rule="nonzero" fill-opacity="1" /><path clip-path="url(#clip070)" d="M2068.82 1469.17 Q2065.48 1469.17 2063.56 1470.95 Q2061.67 1472.73 2061.67 1475.86 Q2061.67 1478.98 2063.56 1480.77 Q2065.48 1482.55 2068.82 1482.55 Q2072.15 1482.55 2074.07 1480.77 Q2075.99 1478.96 2075.99 1475.86 Q2075.99 1472.73 2074.07 1470.95 Q2072.17 1469.17 2068.82 1469.17 M2064.14 1467.18 Q2061.13 1466.44 2059.44 1464.38 Q2057.78 1462.32 2057.78 1459.35 Q2057.78 1455.21 2060.72 1452.8 Q2063.68 1450.39 2068.82 1450.39 Q2073.98 1450.39 2076.92 1452.8 Q2079.86 1455.21 2079.86 1459.35 Q2079.86 1462.32 2078.17 1464.38 Q2076.5 1466.44 2073.52 1467.18 Q2076.9 1467.96 2078.77 1470.26 Q2080.67 1472.55 2080.67 1475.86 Q2080.67 1480.88 2077.59 1483.57 Q2074.54 1486.25 2068.82 1486.25 Q2063.1 1486.25 2060.02 1483.57 Q2056.97 1480.88 2056.97 1475.86 Q2056.97 1472.55 2058.86 1470.26 Q2060.76 1467.96 2064.14 1467.18 M2062.43 1459.79 Q2062.43 1462.48 2064.1 1463.98 Q2065.79 1465.49 2068.82 1465.49 Q2071.83 1465.49 2073.52 1463.98 Q2075.23 1462.48 2075.23 1459.79 Q2075.23 1457.11 2073.52 1455.6 Q2071.83 1454.1 2068.82 1454.1 Q2065.79 1454.1 2064.1 1455.6 Q2062.43 1457.11 2062.43 1459.79 Z" fill="#000000" fill-rule="nonzero" fill-opacity="1" /><path clip-path="url(#clip070)" d="M1208.19 1520.52 L1248.39 1520.52 L1248.39 1525.93 L1231.52 1525.93 L1231.52 1568.04 L1225.06 1568.04 L1225.06 1525.93 L1208.19 1525.93 L1208.19 1520.52 Z" fill="#000000" fill-rule="nonzero" fill-opacity="1" /><path clip-path="url(#clip070)" d="M1252.33 1532.4 L1258.19 1532.4 L1258.19 1568.04 L1252.33 1568.04 L1252.33 1532.4 M1252.33 1518.52 L1258.19 1518.52 L1258.19 1525.93 L1252.33 1525.93 L1252.33 1518.52 Z" fill="#000000" fill-rule="nonzero" fill-opacity="1" /><path clip-path="url(#clip070)" d="M1298.2 1539.24 Q1300.4 1535.29 1303.45 1533.41 Q1306.51 1531.54 1310.64 1531.54 Q1316.21 1531.54 1319.24 1535.45 Q1322.26 1539.33 1322.26 1546.53 L1322.26 1568.04 L1316.37 1568.04 L1316.37 1546.72 Q1316.37 1541.59 1314.56 1539.11 Q1312.74 1536.63 1309.02 1536.63 Q1304.47 1536.63 1301.83 1539.65 Q1299.19 1542.68 1299.19 1547.9 L1299.19 1568.04 L1293.3 1568.04 L1293.3 1546.72 Q1293.3 1541.56 1291.48 1539.11 Q1289.67 1536.63 1285.88 1536.63 Q1281.39 1536.63 1278.75 1539.68 Q1276.11 1542.71 1276.11 1547.9 L1276.11 1568.04 L1270.22 1568.04 L1270.22 1532.4 L1276.11 1532.4 L1276.11 1537.93 Q1278.12 1534.66 1280.92 1533.1 Q1283.72 1531.54 1287.57 1531.54 Q1291.45 1531.54 1294.16 1533.51 Q1296.89 1535.48 1298.2 1539.24 Z" fill="#000000" fill-rule="nonzero" fill-opacity="1" /><path clip-path="url(#clip070)" d="M1364.43 1548.76 L1364.43 1551.62 L1337.51 1551.62 Q1337.89 1557.67 1341.14 1560.85 Q1344.41 1564 1350.24 1564 Q1353.61 1564 1356.76 1563.17 Q1359.95 1562.35 1363.07 1560.69 L1363.07 1566.23 Q1359.91 1567.57 1356.6 1568.27 Q1353.29 1568.97 1349.89 1568.97 Q1341.36 1568.97 1336.36 1564 Q1331.4 1559.04 1331.4 1550.57 Q1331.4 1541.82 1336.11 1536.69 Q1340.85 1531.54 1348.87 1531.54 Q1356.06 1531.54 1360.23 1536.18 Q1364.43 1540.8 1364.43 1548.76 M1358.58 1547.04 Q1358.51 1542.23 1355.87 1539.37 Q1353.26 1536.5 1348.93 1536.5 Q1344.03 1536.5 1341.07 1539.27 Q1338.14 1542.04 1337.7 1547.07 L1358.58 1547.04 Z" fill="#000000" fill-rule="nonzero" fill-opacity="1" /><polyline clip-path="url(#clip070)" style="stroke:#000000; stroke-linecap:round; stroke-linejoin:round; stroke-width:4; stroke-opacity:1; fill:none" points="219.866,1423.18 219.866,123.472 "/>
<polyline clip-path="url(#clip070)" style="stroke:#000000; stroke-linecap:round; stroke-linejoin:round; stroke-width:4; stroke-opacity:1; fill:none" points="219.866,1386.4 238.764,1386.4 "/>
<polyline clip-path="url(#clip070)" style="stroke:#000000; stroke-linecap:round; stroke-linejoin:round; stroke-width:4; stroke-opacity:1; fill:none" points="219.866,1143.14 238.764,1143.14 "/>
<polyline clip-path="url(#clip070)" style="stroke:#000000; stroke-linecap:round; stroke-linejoin:round; stroke-width:4; stroke-opacity:1; fill:none" points="219.866,899.893 238.764,899.893 "/>
<polyline clip-path="url(#clip070)" style="stroke:#000000; stroke-linecap:round; stroke-linejoin:round; stroke-width:4; stroke-opacity:1; fill:none" points="219.866,656.641 238.764,656.641 "/>
<polyline clip-path="url(#clip070)" style="stroke:#000000; stroke-linecap:round; stroke-linejoin:round; stroke-width:4; stroke-opacity:1; fill:none" points="219.866,413.39 238.764,413.39 "/>
<polyline clip-path="url(#clip070)" style="stroke:#000000; stroke-linecap:round; stroke-linejoin:round; stroke-width:4; stroke-opacity:1; fill:none" points="219.866,170.138 238.764,170.138 "/>
<path clip-path="url(#clip070)" d="M126.691 1372.19 Q123.08 1372.19 121.251 1375.76 Q119.445 1379.3 119.445 1386.43 Q119.445 1393.54 121.251 1397.1 Q123.08 1400.64 126.691 1400.64 Q130.325 1400.64 132.13 1397.1 Q133.959 1393.54 133.959 1386.43 Q133.959 1379.3 132.13 1375.76 Q130.325 1372.19 126.691 1372.19 M126.691 1368.49 Q132.501 1368.49 135.556 1373.1 Q138.635 1377.68 138.635 1386.43 Q138.635 1395.16 135.556 1399.76 Q132.501 1404.35 126.691 1404.35 Q120.88 1404.35 117.802 1399.76 Q114.746 1395.16 114.746 1386.43 Q114.746 1377.68 117.802 1373.1 Q120.88 1368.49 126.691 1368.49 Z" fill="#000000" fill-rule="nonzero" fill-opacity="1" /><path clip-path="url(#clip070)" d="M146.853 1397.8 L151.737 1397.8 L151.737 1403.68 L146.853 1403.68 L146.853 1397.8 Z" fill="#000000" fill-rule="nonzero" fill-opacity="1" /><path clip-path="url(#clip070)" d="M171.922 1372.19 Q168.311 1372.19 166.482 1375.76 Q164.677 1379.3 164.677 1386.43 Q164.677 1393.54 166.482 1397.1 Q168.311 1400.64 171.922 1400.64 Q175.556 1400.64 177.362 1397.1 Q179.19 1393.54 179.19 1386.43 Q179.19 1379.3 177.362 1375.76 Q175.556 1372.19 171.922 1372.19 M171.922 1368.49 Q177.732 1368.49 180.788 1373.1 Q183.866 1377.68 183.866 1386.43 Q183.866 1395.16 180.788 1399.76 Q177.732 1404.35 171.922 1404.35 Q166.112 1404.35 163.033 1399.76 Q159.978 1395.16 159.978 1386.43 Q159.978 1377.68 163.033 1373.1 Q166.112 1368.49 171.922 1368.49 Z" fill="#000000" fill-rule="nonzero" fill-opacity="1" /><path clip-path="url(#clip070)" d="M127.917 1128.94 Q124.306 1128.94 122.478 1132.51 Q120.672 1136.05 120.672 1143.18 Q120.672 1150.29 122.478 1153.85 Q124.306 1157.39 127.917 1157.39 Q131.552 1157.39 133.357 1153.85 Q135.186 1150.29 135.186 1143.18 Q135.186 1136.05 133.357 1132.51 Q131.552 1128.94 127.917 1128.94 M127.917 1125.24 Q133.728 1125.24 136.783 1129.85 Q139.862 1134.43 139.862 1143.18 Q139.862 1151.91 136.783 1156.51 Q133.728 1161.1 127.917 1161.1 Q122.107 1161.1 119.029 1156.51 Q115.973 1151.91 115.973 1143.18 Q115.973 1134.43 119.029 1129.85 Q122.107 1125.24 127.917 1125.24 Z" fill="#000000" fill-rule="nonzero" fill-opacity="1" /><path clip-path="url(#clip070)" d="M148.079 1154.54 L152.964 1154.54 L152.964 1160.42 L148.079 1160.42 L148.079 1154.54 Z" fill="#000000" fill-rule="nonzero" fill-opacity="1" /><path clip-path="url(#clip070)" d="M163.959 1156.49 L171.598 1156.49 L171.598 1130.12 L163.288 1131.79 L163.288 1127.53 L171.552 1125.86 L176.227 1125.86 L176.227 1156.49 L183.866 1156.49 L183.866 1160.42 L163.959 1160.42 L163.959 1156.49 Z" fill="#000000" fill-rule="nonzero" fill-opacity="1" /><path clip-path="url(#clip070)" d="M128.288 885.691 Q124.677 885.691 122.848 889.256 Q121.043 892.798 121.043 899.927 Q121.043 907.034 122.848 910.599 Q124.677 914.14 128.288 914.14 Q131.922 914.14 133.728 910.599 Q135.556 907.034 135.556 899.927 Q135.556 892.798 133.728 889.256 Q131.922 885.691 128.288 885.691 M128.288 881.988 Q134.098 881.988 137.154 886.594 Q140.232 891.177 140.232 899.927 Q140.232 908.654 137.154 913.261 Q134.098 917.844 128.288 917.844 Q122.478 917.844 119.399 913.261 Q116.343 908.654 116.343 899.927 Q116.343 891.177 119.399 886.594 Q122.478 881.988 128.288 881.988 Z" fill="#000000" fill-rule="nonzero" fill-opacity="1" /><path clip-path="url(#clip070)" d="M148.45 911.293 L153.334 911.293 L153.334 917.173 L148.45 917.173 L148.45 911.293 Z" fill="#000000" fill-rule="nonzero" fill-opacity="1" /><path clip-path="url(#clip070)" d="M167.547 913.238 L183.866 913.238 L183.866 917.173 L161.922 917.173 L161.922 913.238 Q164.584 910.483 169.167 905.853 Q173.774 901.201 174.954 899.858 Q177.2 897.335 178.079 895.599 Q178.982 893.839 178.982 892.15 Q178.982 889.395 177.038 887.659 Q175.116 885.923 172.014 885.923 Q169.815 885.923 167.362 886.687 Q164.931 887.451 162.153 889.002 L162.153 884.279 Q164.977 883.145 167.431 882.566 Q169.885 881.988 171.922 881.988 Q177.292 881.988 180.487 884.673 Q183.681 887.358 183.681 891.849 Q183.681 893.978 182.871 895.9 Q182.084 897.798 179.977 900.39 Q179.399 901.062 176.297 904.279 Q173.195 907.474 167.547 913.238 Z" fill="#000000" fill-rule="nonzero" fill-opacity="1" /><path clip-path="url(#clip070)" d="M127.339 642.44 Q123.728 642.44 121.899 646.005 Q120.093 649.546 120.093 656.676 Q120.093 663.782 121.899 667.347 Q123.728 670.889 127.339 670.889 Q130.973 670.889 132.779 667.347 Q134.607 663.782 134.607 656.676 Q134.607 649.546 132.779 646.005 Q130.973 642.44 127.339 642.44 M127.339 638.736 Q133.149 638.736 136.204 643.343 Q139.283 647.926 139.283 656.676 Q139.283 665.403 136.204 670.009 Q133.149 674.592 127.339 674.592 Q121.529 674.592 118.45 670.009 Q115.394 665.403 115.394 656.676 Q115.394 647.926 118.45 643.343 Q121.529 638.736 127.339 638.736 Z" fill="#000000" fill-rule="nonzero" fill-opacity="1" /><path clip-path="url(#clip070)" d="M147.501 668.042 L152.385 668.042 L152.385 673.921 L147.501 673.921 L147.501 668.042 Z" fill="#000000" fill-rule="nonzero" fill-opacity="1" /><path clip-path="url(#clip070)" d="M176.737 655.287 Q180.093 656.005 181.968 658.273 Q183.866 660.542 183.866 663.875 Q183.866 668.991 180.348 671.792 Q176.829 674.592 170.348 674.592 Q168.172 674.592 165.857 674.153 Q163.565 673.736 161.112 672.88 L161.112 668.366 Q163.056 669.5 165.371 670.079 Q167.686 670.657 170.209 670.657 Q174.607 670.657 176.899 668.921 Q179.214 667.185 179.214 663.875 Q179.214 660.819 177.061 659.106 Q174.931 657.37 171.112 657.37 L167.084 657.37 L167.084 653.528 L171.297 653.528 Q174.746 653.528 176.575 652.162 Q178.403 650.773 178.403 648.181 Q178.403 645.519 176.505 644.107 Q174.63 642.671 171.112 642.671 Q169.19 642.671 166.991 643.088 Q164.792 643.505 162.153 644.384 L162.153 640.218 Q164.815 639.477 167.13 639.107 Q169.468 638.736 171.528 638.736 Q176.852 638.736 179.954 641.167 Q183.056 643.574 183.056 647.694 Q183.056 650.565 181.413 652.556 Q179.769 654.523 176.737 655.287 Z" fill="#000000" fill-rule="nonzero" fill-opacity="1" /><path clip-path="url(#clip070)" d="M126.205 399.188 Q122.593 399.188 120.765 402.753 Q118.959 406.295 118.959 413.424 Q118.959 420.531 120.765 424.096 Q122.593 427.637 126.205 427.637 Q129.839 427.637 131.644 424.096 Q133.473 420.531 133.473 413.424 Q133.473 406.295 131.644 402.753 Q129.839 399.188 126.205 399.188 M126.205 395.485 Q132.015 395.485 135.07 400.091 Q138.149 404.674 138.149 413.424 Q138.149 422.151 135.07 426.758 Q132.015 431.341 126.205 431.341 Q120.394 431.341 117.316 426.758 Q114.26 422.151 114.26 413.424 Q114.26 404.674 117.316 400.091 Q120.394 395.485 126.205 395.485 Z" fill="#000000" fill-rule="nonzero" fill-opacity="1" /><path clip-path="url(#clip070)" d="M146.366 424.79 L151.251 424.79 L151.251 430.67 L146.366 430.67 L146.366 424.79 Z" fill="#000000" fill-rule="nonzero" fill-opacity="1" /><path clip-path="url(#clip070)" d="M174.283 400.184 L162.477 418.633 L174.283 418.633 L174.283 400.184 M173.056 396.11 L178.936 396.11 L178.936 418.633 L183.866 418.633 L183.866 422.522 L178.936 422.522 L178.936 430.67 L174.283 430.67 L174.283 422.522 L158.681 422.522 L158.681 418.008 L173.056 396.11 Z" fill="#000000" fill-rule="nonzero" fill-opacity="1" /><path clip-path="url(#clip070)" d="M127.686 155.937 Q124.075 155.937 122.246 159.502 Q120.441 163.043 120.441 170.173 Q120.441 177.279 122.246 180.844 Q124.075 184.386 127.686 184.386 Q131.32 184.386 133.126 180.844 Q134.954 177.279 134.954 170.173 Q134.954 163.043 133.126 159.502 Q131.32 155.937 127.686 155.937 M127.686 152.233 Q133.496 152.233 136.552 156.84 Q139.63 161.423 139.63 170.173 Q139.63 178.9 136.552 183.506 Q133.496 188.09 127.686 188.09 Q121.876 188.09 118.797 183.506 Q115.742 178.9 115.742 170.173 Q115.742 161.423 118.797 156.84 Q121.876 152.233 127.686 152.233 Z" fill="#000000" fill-rule="nonzero" fill-opacity="1" /><path clip-path="url(#clip070)" d="M147.848 181.539 L152.732 181.539 L152.732 187.418 L147.848 187.418 L147.848 181.539 Z" fill="#000000" fill-rule="nonzero" fill-opacity="1" /><path clip-path="url(#clip070)" d="M162.964 152.858 L181.32 152.858 L181.32 156.793 L167.246 156.793 L167.246 165.266 Q168.264 164.918 169.283 164.756 Q170.302 164.571 171.32 164.571 Q177.107 164.571 180.487 167.742 Q183.866 170.914 183.866 176.33 Q183.866 181.909 180.394 185.011 Q176.922 188.09 170.602 188.09 Q168.427 188.09 166.158 187.719 Q163.913 187.349 161.505 186.608 L161.505 181.909 Q163.589 183.043 165.811 183.599 Q168.033 184.154 170.51 184.154 Q174.514 184.154 176.852 182.048 Q179.19 179.941 179.19 176.33 Q179.19 172.719 176.852 170.613 Q174.514 168.506 170.51 168.506 Q168.635 168.506 166.76 168.923 Q164.908 169.34 162.964 170.219 L162.964 152.858 Z" fill="#000000" fill-rule="nonzero" fill-opacity="1" /><path clip-path="url(#clip070)" d="M16.4842 882.243 L16.4842 875.814 L35.9632 875.814 L35.9632 852.452 L16.4842 852.452 L16.4842 846.022 L64.0042 846.022 L64.0042 852.452 L41.3741 852.452 L41.3741 875.814 L64.0042 875.814 L64.0042 882.243 L16.4842 882.243 Z" fill="#000000" fill-rule="nonzero" fill-opacity="1" /><path clip-path="url(#clip070)" d="M46.0847 817.281 Q46.0847 824.379 47.7079 827.116 Q49.3312 829.853 53.2461 829.853 Q56.3653 829.853 58.2114 827.816 Q60.0256 825.748 60.0256 822.215 Q60.0256 817.345 56.5881 814.417 Q53.1188 811.457 47.3897 811.457 L46.0847 811.457 L46.0847 817.281 M43.6657 805.6 L64.0042 805.6 L64.0042 811.457 L58.5933 811.457 Q61.8398 813.462 63.3994 816.454 Q64.9272 819.446 64.9272 823.774 Q64.9272 829.249 61.8716 832.495 Q58.7843 835.71 53.6281 835.71 Q47.6125 835.71 44.5569 831.7 Q41.5014 827.657 41.5014 819.668 L41.5014 811.457 L40.9285 811.457 Q36.8862 811.457 34.6901 814.13 Q32.4621 816.772 32.4621 821.578 Q32.4621 824.634 33.1941 827.53 Q33.9262 830.426 35.3903 833.1 L29.9795 833.1 Q28.7381 829.885 28.1334 826.862 Q27.4968 823.838 27.4968 820.973 Q27.4968 813.239 31.5072 809.42 Q35.5176 805.6 43.6657 805.6 Z" fill="#000000" fill-rule="nonzero" fill-opacity="1" /><path clip-path="url(#clip070)" d="M28.3562 796.083 L28.3562 768.265 L33.7034 768.265 L59.3254 790.291 L59.3254 768.265 L64.0042 768.265 L64.0042 796.879 L58.657 796.879 L33.035 774.854 L33.035 796.083 L28.3562 796.083 Z" fill="#000000" fill-rule="nonzero" fill-opacity="1" /><path clip-path="url(#clip070)" d="M46.0847 743.121 Q46.0847 750.218 47.7079 752.956 Q49.3312 755.693 53.2461 755.693 Q56.3653 755.693 58.2114 753.656 Q60.0256 751.587 60.0256 748.054 Q60.0256 743.184 56.5881 740.256 Q53.1188 737.296 47.3897 737.296 L46.0847 737.296 L46.0847 743.121 M43.6657 731.44 L64.0042 731.44 L64.0042 737.296 L58.5933 737.296 Q61.8398 739.301 63.3994 742.293 Q64.9272 745.285 64.9272 749.614 Q64.9272 755.088 61.8716 758.335 Q58.7843 761.549 53.6281 761.549 Q47.6125 761.549 44.5569 757.539 Q41.5014 753.497 41.5014 745.508 L41.5014 737.296 L40.9285 737.296 Q36.8862 737.296 34.6901 739.97 Q32.4621 742.611 32.4621 747.418 Q32.4621 750.473 33.1941 753.369 Q33.9262 756.266 35.3903 758.939 L29.9795 758.939 Q28.7381 755.725 28.1334 752.701 Q27.4968 749.677 27.4968 746.813 Q27.4968 739.078 31.5072 735.259 Q35.5176 731.44 43.6657 731.44 Z" fill="#000000" fill-rule="nonzero" fill-opacity="1" /><path clip-path="url(#clip070)" d="M33.8307 698.72 Q33.2578 699.707 33.0032 700.884 Q32.7167 702.03 32.7167 703.431 Q32.7167 708.396 35.9632 711.069 Q39.1779 713.711 45.2253 713.711 L64.0042 713.711 L64.0042 719.599 L28.3562 719.599 L28.3562 713.711 L33.8944 713.711 Q30.6479 711.865 29.0883 708.905 Q27.4968 705.945 27.4968 701.712 Q27.4968 701.107 27.5923 700.375 Q27.656 699.643 27.8151 698.752 L33.8307 698.72 Z" fill="#000000" fill-rule="nonzero" fill-opacity="1" /><path clip-path="url(#clip070)" d="M33.7671 670.265 L14.479 670.265 L14.479 664.409 L64.0042 664.409 L64.0042 670.265 L58.657 670.265 Q61.8398 672.111 63.3994 674.944 Q64.9272 677.745 64.9272 681.692 Q64.9272 688.153 59.771 692.227 Q54.6147 696.269 46.212 696.269 Q37.8093 696.269 32.6531 692.227 Q27.4968 688.153 27.4968 681.692 Q27.4968 677.745 29.0564 674.944 Q30.5842 672.111 33.7671 670.265 M46.212 690.222 Q52.6732 690.222 56.3653 687.58 Q60.0256 684.906 60.0256 680.259 Q60.0256 675.612 56.3653 672.939 Q52.6732 670.265 46.212 670.265 Q39.7508 670.265 36.0905 672.939 Q32.3984 675.612 32.3984 680.259 Q32.3984 684.906 36.0905 687.58 Q39.7508 690.222 46.212 690.222 Z" fill="#000000" fill-rule="nonzero" fill-opacity="1" /><path clip-path="url(#clip070)" d="M809.925 12.096 L818.108 12.096 L818.108 65.6895 L847.558 65.6895 L847.558 72.576 L809.925 72.576 L809.925 12.096 Z" fill="#000000" fill-rule="nonzero" fill-opacity="1" /><path clip-path="url(#clip070)" d="M871.944 32.4315 Q865.949 32.4315 862.465 37.1306 Q858.981 41.7891 858.981 49.9314 Q858.981 58.0738 862.424 62.7728 Q865.908 67.4314 871.944 67.4314 Q877.899 67.4314 881.383 62.7323 Q884.866 58.0333 884.866 49.9314 Q884.866 41.8701 881.383 37.1711 Q877.899 32.4315 871.944 32.4315 M871.944 26.1121 Q881.666 26.1121 887.216 32.4315 Q892.766 38.7509 892.766 49.9314 Q892.766 61.0714 887.216 67.4314 Q881.666 73.7508 871.944 73.7508 Q862.181 73.7508 856.632 67.4314 Q851.122 61.0714 851.122 49.9314 Q851.122 38.7509 856.632 32.4315 Q862.181 26.1121 871.944 26.1121 Z" fill="#000000" fill-rule="nonzero" fill-opacity="1" /><path clip-path="url(#clip070)" d="M934.976 49.3643 Q934.976 41.2625 931.614 36.8065 Q928.292 32.3505 922.256 32.3505 Q916.261 32.3505 912.899 36.8065 Q909.577 41.2625 909.577 49.3643 Q909.577 57.4256 912.899 61.8816 Q916.261 66.3376 922.256 66.3376 Q928.292 66.3376 931.614 61.8816 Q934.976 57.4256 934.976 49.3643 M942.43 66.9452 Q942.43 78.5308 937.285 84.1616 Q932.141 89.8329 921.527 89.8329 Q917.598 89.8329 914.114 89.2252 Q910.63 88.6581 907.349 87.4428 L907.349 80.1917 Q910.63 81.9741 913.83 82.8248 Q917.031 83.6755 920.352 83.6755 Q927.685 83.6755 931.33 79.8271 Q934.976 76.0193 934.976 68.282 L934.976 64.5957 Q932.667 68.6061 929.062 70.5911 Q925.457 72.576 920.433 72.576 Q912.089 72.576 906.984 66.2161 Q901.88 59.8562 901.88 49.3643 Q901.88 38.832 906.984 32.472 Q912.089 26.1121 920.433 26.1121 Q925.457 26.1121 929.062 28.0971 Q932.667 30.082 934.976 34.0924 L934.976 27.2059 L942.43 27.2059 L942.43 66.9452 Z" fill="#000000" fill-rule="nonzero" fill-opacity="1" /><path clip-path="url(#clip070)" d="M954.015 46.5287 L975.85 46.5287 L975.85 53.1722 L954.015 53.1722 L954.015 46.5287 Z" fill="#000000" fill-rule="nonzero" fill-opacity="1" /><path clip-path="url(#clip070)" d="M1025.43 45.1919 L1025.43 72.576 L1017.98 72.576 L1017.98 45.4349 Q1017.98 38.994 1015.47 35.7938 Q1012.96 32.5936 1007.93 32.5936 Q1001.9 32.5936 998.413 36.4419 Q994.93 40.2903 994.93 46.9338 L994.93 72.576 L987.435 72.576 L987.435 27.2059 L994.93 27.2059 L994.93 34.2544 Q997.603 30.163 1001.21 28.1376 Q1004.85 26.1121 1009.59 26.1121 Q1017.41 26.1121 1021.42 30.9732 Q1025.43 35.7938 1025.43 45.1919 Z" fill="#000000" fill-rule="nonzero" fill-opacity="1" /><path clip-path="url(#clip070)" d="M1057.88 32.4315 Q1051.89 32.4315 1048.4 37.1306 Q1044.92 41.7891 1044.92 49.9314 Q1044.92 58.0738 1048.36 62.7728 Q1051.84 67.4314 1057.88 67.4314 Q1063.84 67.4314 1067.32 62.7323 Q1070.8 58.0333 1070.8 49.9314 Q1070.8 41.8701 1067.32 37.1711 Q1063.84 32.4315 1057.88 32.4315 M1057.88 26.1121 Q1067.6 26.1121 1073.15 32.4315 Q1078.7 38.7509 1078.7 49.9314 Q1078.7 61.0714 1073.15 67.4314 Q1067.6 73.7508 1057.88 73.7508 Q1048.12 73.7508 1042.57 67.4314 Q1037.06 61.0714 1037.06 49.9314 Q1037.06 38.7509 1042.57 32.4315 Q1048.12 26.1121 1057.88 26.1121 Z" fill="#000000" fill-rule="nonzero" fill-opacity="1" /><path clip-path="url(#clip070)" d="M1117.35 34.1734 Q1116.09 33.4443 1114.59 33.1202 Q1113.13 32.7556 1111.35 32.7556 Q1105.03 32.7556 1101.63 36.8875 Q1098.27 40.9789 1098.27 48.6757 L1098.27 72.576 L1090.77 72.576 L1090.77 27.2059 L1098.27 27.2059 L1098.27 34.2544 Q1100.62 30.1225 1104.38 28.1376 Q1108.15 26.1121 1113.54 26.1121 Q1114.31 26.1121 1115.24 26.2337 Q1116.17 26.3147 1117.31 26.5172 L1117.35 34.1734 Z" fill="#000000" fill-rule="nonzero" fill-opacity="1" /><path clip-path="url(#clip070)" d="M1159.03 35.9153 Q1161.83 30.8922 1165.72 28.5022 Q1169.6 26.1121 1174.87 26.1121 Q1181.96 26.1121 1185.81 31.0947 Q1189.66 36.0368 1189.66 45.1919 L1189.66 72.576 L1182.16 72.576 L1182.16 45.4349 Q1182.16 38.913 1179.85 35.7533 Q1177.54 32.5936 1172.8 32.5936 Q1167.01 32.5936 1163.65 36.4419 Q1160.29 40.2903 1160.29 46.9338 L1160.29 72.576 L1152.79 72.576 L1152.79 45.4349 Q1152.79 38.8725 1150.48 35.7533 Q1148.18 32.5936 1143.35 32.5936 Q1137.64 32.5936 1134.28 36.4824 Q1130.92 40.3308 1130.92 46.9338 L1130.92 72.576 L1123.42 72.576 L1123.42 27.2059 L1130.92 27.2059 L1130.92 34.2544 Q1133.47 30.082 1137.04 28.0971 Q1140.6 26.1121 1145.5 26.1121 Q1150.44 26.1121 1153.89 28.6237 Q1157.37 31.1352 1159.03 35.9153 Z" fill="#000000" fill-rule="nonzero" fill-opacity="1" /><path clip-path="url(#clip070)" d="M1225.14 49.7694 Q1216.11 49.7694 1212.63 51.8354 Q1209.14 53.9013 1209.14 58.8839 Q1209.14 62.8538 1211.73 65.2034 Q1214.37 67.5124 1218.86 67.5124 Q1225.06 67.5124 1228.79 63.1374 Q1232.56 58.7219 1232.56 51.4303 L1232.56 49.7694 L1225.14 49.7694 M1240.01 46.6907 L1240.01 72.576 L1232.56 72.576 L1232.56 65.6895 Q1230 69.8214 1226.2 71.8063 Q1222.39 73.7508 1216.88 73.7508 Q1209.91 73.7508 1205.78 69.8619 Q1201.69 65.9325 1201.69 59.3701 Q1201.69 51.7138 1206.79 47.825 Q1211.94 43.9361 1222.1 43.9361 L1232.56 43.9361 L1232.56 43.2069 Q1232.56 38.0623 1229.15 35.2672 Q1225.79 32.4315 1219.67 32.4315 Q1215.78 32.4315 1212.1 33.3632 Q1208.41 34.295 1205.01 36.1584 L1205.01 29.2718 Q1209.1 27.692 1212.95 26.9223 Q1216.8 26.1121 1220.44 26.1121 Q1230.29 26.1121 1235.15 31.2163 Q1240.01 36.3204 1240.01 46.6907 Z" fill="#000000" fill-rule="nonzero" fill-opacity="1" /><path clip-path="url(#clip070)" d="M1255.36 9.54393 L1262.82 9.54393 L1262.82 72.576 L1255.36 72.576 L1255.36 9.54393 Z" fill="#000000" fill-rule="nonzero" fill-opacity="1" /><path clip-path="url(#clip070)" d="M1334.64 34.0924 L1334.64 9.54393 L1342.09 9.54393 L1342.09 72.576 L1334.64 72.576 L1334.64 65.7705 Q1332.29 69.8214 1328.68 71.8063 Q1325.12 73.7508 1320.1 73.7508 Q1311.87 73.7508 1306.69 67.1883 Q1301.54 60.6258 1301.54 49.9314 Q1301.54 39.2371 1306.69 32.6746 Q1311.87 26.1121 1320.1 26.1121 Q1325.12 26.1121 1328.68 28.0971 Q1332.29 30.0415 1334.64 34.0924 M1309.24 49.9314 Q1309.24 58.1548 1312.6 62.8538 Q1316 67.5124 1321.92 67.5124 Q1327.83 67.5124 1331.24 62.8538 Q1334.64 58.1548 1334.64 49.9314 Q1334.64 41.7081 1331.24 37.0496 Q1327.83 32.3505 1321.92 32.3505 Q1316 32.3505 1312.6 37.0496 Q1309.24 41.7081 1309.24 49.9314 Z" fill="#000000" fill-rule="nonzero" fill-opacity="1" /><path clip-path="url(#clip070)" d="M1357.44 27.2059 L1364.9 27.2059 L1364.9 72.576 L1357.44 72.576 L1357.44 27.2059 M1357.44 9.54393 L1364.9 9.54393 L1364.9 18.9825 L1357.44 18.9825 L1357.44 9.54393 Z" fill="#000000" fill-rule="nonzero" fill-opacity="1" /><path clip-path="url(#clip070)" d="M1409.42 28.5427 L1409.42 35.5912 Q1406.26 33.9709 1402.86 33.1607 Q1399.45 32.3505 1395.81 32.3505 Q1390.26 32.3505 1387.46 34.0519 Q1384.71 35.7533 1384.71 39.156 Q1384.71 41.7486 1386.69 43.2475 Q1388.68 44.7058 1394.67 46.0426 L1397.22 46.6097 Q1405.16 48.3111 1408.49 51.4303 Q1411.85 54.509 1411.85 60.0587 Q1411.85 66.3781 1406.83 70.0644 Q1401.84 73.7508 1393.09 73.7508 Q1389.45 73.7508 1385.48 73.0216 Q1381.55 72.3329 1377.17 70.9151 L1377.17 63.2184 Q1381.3 65.3654 1385.32 66.4591 Q1389.33 67.5124 1393.25 67.5124 Q1398.52 67.5124 1401.36 65.73 Q1404.19 63.9071 1404.19 60.6258 Q1404.19 57.5877 1402.13 55.9673 Q1400.1 54.3469 1393.17 52.8481 L1390.58 52.2405 Q1383.65 50.7821 1380.58 47.7845 Q1377.5 44.7463 1377.5 39.4801 Q1377.5 33.0797 1382.03 29.5959 Q1386.57 26.1121 1394.92 26.1121 Q1399.05 26.1121 1402.69 26.7198 Q1406.34 27.3274 1409.42 28.5427 Z" fill="#000000" fill-rule="nonzero" fill-opacity="1" /><path clip-path="url(#clip070)" d="M1431.09 14.324 L1431.09 27.2059 L1446.44 27.2059 L1446.44 32.9987 L1431.09 32.9987 L1431.09 57.6282 Q1431.09 63.1779 1432.59 64.7578 Q1434.13 66.3376 1438.79 66.3376 L1446.44 66.3376 L1446.44 72.576 L1438.79 72.576 Q1430.16 72.576 1426.88 69.3758 Q1423.6 66.1351 1423.6 57.6282 L1423.6 32.9987 L1418.13 32.9987 L1418.13 27.2059 L1423.6 27.2059 L1423.6 14.324 L1431.09 14.324 Z" fill="#000000" fill-rule="nonzero" fill-opacity="1" /><path clip-path="url(#clip070)" d="M1482.54 34.1734 Q1481.28 33.4443 1479.78 33.1202 Q1478.32 32.7556 1476.54 32.7556 Q1470.22 32.7556 1466.82 36.8875 Q1463.46 40.9789 1463.46 48.6757 L1463.46 72.576 L1455.96 72.576 L1455.96 27.2059 L1463.46 27.2059 L1463.46 34.2544 Q1465.81 30.1225 1469.57 28.1376 Q1473.34 26.1121 1478.73 26.1121 Q1479.5 26.1121 1480.43 26.2337 Q1481.36 26.3147 1482.5 26.5172 L1482.54 34.1734 Z" fill="#000000" fill-rule="nonzero" fill-opacity="1" /><path clip-path="url(#clip070)" d="M1490.36 27.2059 L1497.81 27.2059 L1497.81 72.576 L1490.36 72.576 L1490.36 27.2059 M1490.36 9.54393 L1497.81 9.54393 L1497.81 18.9825 L1490.36 18.9825 L1490.36 9.54393 Z" fill="#000000" fill-rule="nonzero" fill-opacity="1" /><path clip-path="url(#clip070)" d="M1545.97 49.9314 Q1545.97 41.7081 1542.57 37.0496 Q1539.21 32.3505 1533.29 32.3505 Q1527.38 32.3505 1523.98 37.0496 Q1520.62 41.7081 1520.62 49.9314 Q1520.62 58.1548 1523.98 62.8538 Q1527.38 67.5124 1533.29 67.5124 Q1539.21 67.5124 1542.57 62.8538 Q1545.97 58.1548 1545.97 49.9314 M1520.62 34.0924 Q1522.96 30.0415 1526.53 28.0971 Q1530.14 26.1121 1535.12 26.1121 Q1543.38 26.1121 1548.53 32.6746 Q1553.71 39.2371 1553.71 49.9314 Q1553.71 60.6258 1548.53 67.1883 Q1543.38 73.7508 1535.12 73.7508 Q1530.14 73.7508 1526.53 71.8063 Q1522.96 69.8214 1520.62 65.7705 L1520.62 72.576 L1513.12 72.576 L1513.12 9.54393 L1520.62 9.54393 L1520.62 34.0924 Z" fill="#000000" fill-rule="nonzero" fill-opacity="1" /><path clip-path="url(#clip070)" d="M1565.3 54.671 L1565.3 27.2059 L1572.75 27.2059 L1572.75 54.3874 Q1572.75 60.8284 1575.26 64.0691 Q1577.77 67.2693 1582.8 67.2693 Q1588.83 67.2693 1592.32 63.421 Q1595.84 59.5726 1595.84 52.9291 L1595.84 27.2059 L1603.29 27.2059 L1603.29 72.576 L1595.84 72.576 L1595.84 65.6084 Q1593.13 69.7404 1589.52 71.7658 Q1585.96 73.7508 1581.22 73.7508 Q1573.4 73.7508 1569.35 68.8897 Q1565.3 64.0286 1565.3 54.671 M1584.05 26.1121 L1584.05 26.1121 Z" fill="#000000" fill-rule="nonzero" fill-opacity="1" /><path clip-path="url(#clip070)" d="M1626.02 14.324 L1626.02 27.2059 L1641.37 27.2059 L1641.37 32.9987 L1626.02 32.9987 L1626.02 57.6282 Q1626.02 63.1779 1627.52 64.7578 Q1629.06 66.3376 1633.72 66.3376 L1641.37 66.3376 L1641.37 72.576 L1633.72 72.576 Q1625.09 72.576 1621.81 69.3758 Q1618.53 66.1351 1618.53 57.6282 L1618.53 32.9987 L1613.06 32.9987 L1613.06 27.2059 L1618.53 27.2059 L1618.53 14.324 L1626.02 14.324 Z" fill="#000000" fill-rule="nonzero" fill-opacity="1" /><path clip-path="url(#clip070)" d="M1651.18 27.2059 L1658.63 27.2059 L1658.63 72.576 L1651.18 72.576 L1651.18 27.2059 M1651.18 9.54393 L1658.63 9.54393 L1658.63 18.9825 L1651.18 18.9825 L1651.18 9.54393 Z" fill="#000000" fill-rule="nonzero" fill-opacity="1" /><path clip-path="url(#clip070)" d="M1691.81 32.4315 Q1685.81 32.4315 1682.33 37.1306 Q1678.84 41.7891 1678.84 49.9314 Q1678.84 58.0738 1682.29 62.7728 Q1685.77 67.4314 1691.81 67.4314 Q1697.76 67.4314 1701.25 62.7323 Q1704.73 58.0333 1704.73 49.9314 Q1704.73 41.8701 1701.25 37.1711 Q1697.76 32.4315 1691.81 32.4315 M1691.81 26.1121 Q1701.53 26.1121 1707.08 32.4315 Q1712.63 38.7509 1712.63 49.9314 Q1712.63 61.0714 1707.08 67.4314 Q1701.53 73.7508 1691.81 73.7508 Q1682.04 73.7508 1676.49 67.4314 Q1670.98 61.0714 1670.98 49.9314 Q1670.98 38.7509 1676.49 32.4315 Q1682.04 26.1121 1691.81 26.1121 Z" fill="#000000" fill-rule="nonzero" fill-opacity="1" /><path clip-path="url(#clip070)" d="M1762.7 45.1919 L1762.7 72.576 L1755.24 72.576 L1755.24 45.4349 Q1755.24 38.994 1752.73 35.7938 Q1750.22 32.5936 1745.2 32.5936 Q1739.16 32.5936 1735.68 36.4419 Q1732.19 40.2903 1732.19 46.9338 L1732.19 72.576 L1724.7 72.576 L1724.7 27.2059 L1732.19 27.2059 L1732.19 34.2544 Q1734.87 30.163 1738.47 28.1376 Q1742.12 26.1121 1746.86 26.1121 Q1754.68 26.1121 1758.69 30.9732 Q1762.7 35.7938 1762.7 45.1919 Z" fill="#000000" fill-rule="nonzero" fill-opacity="1" /><polyline clip-path="url(#clip072)" style="stroke:#000000; stroke-linecap:round; stroke-linejoin:round; stroke-width:4; stroke-opacity:1; fill:none" points="300.556,1386.4 320.881,1386.4 341.206,1386.39 361.53,1386.38 381.855,1386.34 402.18,1386.22 422.505,1385.97 442.83,1385.54 463.155,1384.84 483.48,1383.83 503.804,1382.46 524.129,1380.68 544.454,1378.48 564.779,1375.83 585.104,1372.73 605.429,1369.2 625.753,1365.25 646.078,1360.9 666.403,1356.18 686.728,1351.12 707.053,1345.76 727.378,1340.13 747.703,1334.26 768.027,1328.19 788.352,1321.96 808.677,1315.59 829.002,1309.12 849.327,1302.57 869.652,1295.96 889.977,1289.33 910.301,1282.7 930.626,1276.08 950.951,1269.49 971.276,1262.95 991.601,1256.47 1011.93,1250.07 1032.25,1243.75 1052.58,1237.52 1072.9,1231.39 1093.23,1225.37 1113.55,1219.47 1133.87,1213.68 1154.2,1208.01 1174.52,1202.47 1194.85,1197.06 1215.17,1191.77 1235.5,1186.61 1255.82,1181.58 1276.15,1176.68 1296.47,1171.91 1316.8,1167.27 1337.12,1162.75 1357.45,1158.36 1377.77,1154.09 1398.1,1149.95 1418.42,1145.92 1438.75,1142.02 1459.07,1138.23 1479.4,1134.55 1499.72,1130.98 1520.05,1127.53 1540.37,1124.18 1560.7,1120.93 1581.02,1117.79 1601.35,1114.74 1621.67,1111.8 1642,1108.94 1662.32,1106.18 1682.65,1103.51 1702.97,1100.93 1723.3,1098.43 1743.62,1096.02 1763.95,1093.68 1784.27,1091.42 1804.59,1089.24 1824.92,1087.14 1845.24,1085.1 1865.57,1083.14 1885.89,1081.24 1906.22,1079.42 1926.54,1077.65 1946.87,1075.95 1967.19,1074.3 1987.52,1072.72 2007.84,1071.19 2028.17,1069.72 2048.49,1068.31 2068.82,1066.94 2089.14,1065.63 2109.47,1064.36 2129.79,1063.15 2150.12,1061.98 2170.44,1060.85 2190.77,1059.77 2211.09,1058.74 2231.42,1057.74 2251.74,1056.78 2272.07,1055.86 2292.39,1054.99 "/>
<polyline clip-path="url(#clip072)" style="stroke:#ff0000; stroke-linecap:round; stroke-linejoin:round; stroke-width:4; stroke-opacity:1; fill:none" points="300.556,1386.38 320.881,1384.77 341.206,1374.25 361.53,1346.69 381.855,1299.65 402.18,1235.9 422.505,1160.55 442.83,1078.89 463.155,995.299 483.48,913.032 503.804,834.254 524.129,760.284 544.454,691.814 564.779,629.1 585.104,572.116 605.429,520.652 625.753,474.4 646.078,432.993 666.403,396.049 686.728,363.185 707.053,334.03 727.378,308.237 747.703,285.484 768.027,265.475 788.352,247.938 808.677,232.63 829.002,219.328 849.327,207.833 869.652,197.966 889.977,189.566 910.301,182.486 930.626,176.598 950.951,171.784 971.276,167.94 991.601,164.969 1011.93,162.789 1032.25,161.321 1052.58,160.498 1072.9,160.256 1093.23,160.541 1113.55,161.3 1133.87,162.489 1154.2,164.066 1174.52,165.993 1194.85,168.237 1215.17,170.767 1235.5,173.553 1255.82,176.572 1276.15,179.8 1296.47,183.216 1316.8,186.801 1337.12,190.537 1357.45,194.408 1377.77,198.4 1398.1,202.5 1418.42,206.696 1438.75,210.975 1459.07,215.33 1479.4,219.749 1499.72,224.225 1520.05,228.75 1540.37,233.316 1560.7,237.918 1581.02,242.55 1601.35,247.205 1621.67,251.88 1642,256.569 1662.32,261.268 1682.65,265.974 1702.97,270.682 1723.3,275.391 1743.62,280.096 1763.95,284.796 1784.27,289.487 1804.59,294.168 1824.92,298.836 1845.24,303.49 1865.57,308.128 1885.89,312.748 1906.22,317.349 1926.54,321.93 1946.87,326.489 1967.19,331.026 1987.52,335.54 2007.84,340.029 2028.17,344.493 2048.49,348.931 2068.82,353.343 2089.14,357.729 2109.47,362.086 2129.79,366.417 2150.12,370.719 2170.44,374.992 2190.77,379.237 2211.09,383.453 2231.42,387.64 2251.74,391.797 2272.07,395.926 2292.39,400.024 "/>
<path clip-path="url(#clip070)" d="M1970.57 1379.86 L2281.66 1379.86 L2281.66 1224.34 L1970.57 1224.34  Z" fill="#ffffff" fill-rule="evenodd" fill-opacity="1"/>
<polyline clip-path="url(#clip070)" style="stroke:#000000; stroke-linecap:round; stroke-linejoin:round; stroke-width:4; stroke-opacity:1; fill:none" points="1970.57,1379.86 2281.66,1379.86 2281.66,1224.34 1970.57,1224.34 1970.57,1379.86 "/>
<polyline clip-path="url(#clip070)" style="stroke:#000000; stroke-linecap:round; stroke-linejoin:round; stroke-width:4; stroke-opacity:1; fill:none" points="1994.27,1276.18 2136.46,1276.18 "/>
<path clip-path="url(#clip070)" d="M2161.73 1258.9 L2166.76 1258.9 L2175.35 1271.74 L2183.98 1258.9 L2189 1258.9 L2177.89 1275.49 L2189.74 1293.46 L2184.72 1293.46 L2175 1278.76 L2165.21 1293.46 L2160.16 1293.46 L2172.5 1275.01 L2161.73 1258.9 Z" fill="#000000" fill-rule="nonzero" fill-opacity="1" /><path clip-path="url(#clip070)" d="M2196.25 1271.93 L2225.92 1271.93 L2225.92 1275.82 L2196.25 1275.82 L2196.25 1271.93 M2196.25 1281.37 L2225.92 1281.37 L2225.92 1285.31 L2196.25 1285.31 L2196.25 1281.37 Z" fill="#000000" fill-rule="nonzero" fill-opacity="1" /><path clip-path="url(#clip070)" d="M2246.02 1261.97 Q2242.41 1261.97 2240.58 1265.54 Q2238.77 1269.08 2238.77 1276.21 Q2238.77 1283.32 2240.58 1286.88 Q2242.41 1290.42 2246.02 1290.42 Q2249.65 1290.42 2251.46 1286.88 Q2253.28 1283.32 2253.28 1276.21 Q2253.28 1269.08 2251.46 1265.54 Q2249.65 1261.97 2246.02 1261.97 M2246.02 1258.27 Q2251.83 1258.27 2254.88 1262.88 Q2257.96 1267.46 2257.96 1276.21 Q2257.96 1284.94 2254.88 1289.54 Q2251.83 1294.13 2246.02 1294.13 Q2240.21 1294.13 2237.13 1289.54 Q2234.07 1284.94 2234.07 1276.21 Q2234.07 1267.46 2237.13 1262.88 Q2240.21 1258.27 2246.02 1258.27 Z" fill="#000000" fill-rule="nonzero" fill-opacity="1" /><polyline clip-path="url(#clip070)" style="stroke:#ff0000; stroke-linecap:round; stroke-linejoin:round; stroke-width:4; stroke-opacity:1; fill:none" points="1994.27,1328.02 2136.46,1328.02 "/>
<path clip-path="url(#clip070)" d="M2161.73 1310.74 L2166.76 1310.74 L2175.35 1323.58 L2183.98 1310.74 L2189 1310.74 L2177.89 1327.33 L2189.74 1345.3 L2184.72 1345.3 L2175 1330.6 L2165.21 1345.3 L2160.16 1345.3 L2172.5 1326.85 L2161.73 1310.74 Z" fill="#000000" fill-rule="nonzero" fill-opacity="1" /><path clip-path="url(#clip070)" d="M2196.25 1323.77 L2225.92 1323.77 L2225.92 1327.66 L2196.25 1327.66 L2196.25 1323.77 M2196.25 1333.21 L2225.92 1333.21 L2225.92 1337.15 L2196.25 1337.15 L2196.25 1333.21 Z" fill="#000000" fill-rule="nonzero" fill-opacity="1" /><path clip-path="url(#clip070)" d="M2236.83 1341.36 L2244.47 1341.36 L2244.47 1315 L2236.16 1316.66 L2236.16 1312.4 L2244.42 1310.74 L2249.1 1310.74 L2249.1 1341.36 L2256.73 1341.36 L2256.73 1345.3 L2236.83 1345.3 L2236.83 1341.36 Z" fill="#000000" fill-rule="nonzero" fill-opacity="1" /></svg>
