<?xml version="1.0" encoding="utf-8"?>
<svg xmlns="http://www.w3.org/2000/svg" xmlns:xlink="http://www.w3.org/1999/xlink" width="600" height="400" viewBox="0 0 2400 1600">
<defs>
  <clipPath id="clip580">
    <rect x="0" y="0" width="2400" height="1600"/>
  </clipPath>
</defs>
<path clip-path="url(#clip580)" d="M0 1600 L2400 1600 L2400 0 L0 0  Z" fill="#ffffff" fill-rule="evenodd" fill-opacity="1"/>
<defs>
  <clipPath id="clip581">
    <rect x="480" y="0" width="1681" height="1600"/>
  </clipPath>
</defs>
<path clip-path="url(#clip580)" d="M279.704 1423.18 L2352.76 1423.18 L2352.76 47.2441 L279.704 47.2441  Z" fill="#ffffff" fill-rule="evenodd" fill-opacity="1"/>
<defs>
  <clipPath id="clip582">
    <rect x="279" y="47" width="2074" height="1377"/>
  </clipPath>
</defs>
<polyline clip-path="url(#clip580)" style="stroke:#000000; stroke-linecap:round; stroke-linejoin:round; stroke-width:4; stroke-opacity:1; fill:none" points="279.704,1423.18 2352.76,1423.18 "/>
<polyline clip-path="url(#clip580)" style="stroke:#000000; stroke-linecap:round; stroke-linejoin:round; stroke-width:4; stroke-opacity:1; fill:none" points="694.304,1423.18 694.304,1404.28 "/>
<polyline clip-path="url(#clip580)" style="stroke:#000000; stroke-linecap:round; stroke-linejoin:round; stroke-width:4; stroke-opacity:1; fill:none" points="1108.92,1423.18 1108.92,1404.28 "/>
<polyline clip-path="url(#clip580)" style="stroke:#000000; stroke-linecap:round; stroke-linejoin:round; stroke-width:4; stroke-opacity:1; fill:none" points="1523.53,1423.18 1523.53,1404.28 "/>
<polyline clip-path="url(#clip580)" style="stroke:#000000; stroke-linecap:round; stroke-linejoin:round; stroke-width:4; stroke-opacity:1; fill:none" points="1938.14,1423.18 1938.14,1404.28 "/>
<polyline clip-path="url(#clip580)" style="stroke:#000000; stroke-linecap:round; stroke-linejoin:round; stroke-width:4; stroke-opacity:1; fill:none" points="2352.76,1423.18 2352.76,1404.28 "/>
<path clip-path="url(#clip580)" d="M672.487 1454.1 Q668.876 1454.1 667.048 1457.66 Q665.242 1461.2 665.242 1468.33 Q665.242 1475.44 667.048 1479.01 Q668.876 1482.55 672.487 1482.55 Q676.122 1482.55 677.927 1479.01 Q679.756 1475.44 679.756 1468.33 Q679.756 1461.2 677.927 1457.66 Q676.122 1454.1 672.487 1454.1 M672.487 1450.39 Q678.297 1450.39 681.353 1455 Q684.432 1459.58 684.432 1468.33 Q684.432 1477.06 681.353 1481.67 Q678.297 1486.25 672.487 1486.25 Q666.677 1486.25 663.598 1481.67 Q660.543 1477.06 660.543 1468.33 Q660.543 1459.58 663.598 1455 Q666.677 1450.39 672.487 1450.39 Z" fill="#000000" fill-rule="nonzero" fill-opacity="1" /><path clip-path="url(#clip580)" d="M692.649 1479.7 L697.533 1479.7 L697.533 1485.58 L692.649 1485.58 L692.649 1479.7 Z" fill="#000000" fill-rule="nonzero" fill-opacity="1" /><path clip-path="url(#clip580)" d="M711.746 1481.64 L728.066 1481.64 L728.066 1485.58 L706.121 1485.58 L706.121 1481.64 Q708.783 1478.89 713.367 1474.26 Q717.973 1469.61 719.154 1468.27 Q721.399 1465.74 722.279 1464.01 Q723.181 1462.25 723.181 1460.56 Q723.181 1457.8 721.237 1456.07 Q719.316 1454.33 716.214 1454.33 Q714.015 1454.33 711.561 1455.09 Q709.131 1455.86 706.353 1457.41 L706.353 1452.69 Q709.177 1451.55 711.631 1450.97 Q714.084 1450.39 716.121 1450.39 Q721.492 1450.39 724.686 1453.08 Q727.881 1455.77 727.881 1460.26 Q727.881 1462.39 727.07 1464.31 Q726.283 1466.2 724.177 1468.8 Q723.598 1469.47 720.496 1472.69 Q717.394 1475.88 711.746 1481.64 Z" fill="#000000" fill-rule="nonzero" fill-opacity="1" /><path clip-path="url(#clip580)" d="M1086.06 1454.1 Q1082.45 1454.1 1080.62 1457.66 Q1078.81 1461.2 1078.81 1468.33 Q1078.81 1475.44 1080.62 1479.01 Q1082.45 1482.55 1086.06 1482.55 Q1089.69 1482.55 1091.5 1479.01 Q1093.33 1475.44 1093.33 1468.33 Q1093.33 1461.2 1091.5 1457.66 Q1089.69 1454.1 1086.06 1454.1 M1086.06 1450.39 Q1091.87 1450.39 1094.92 1455 Q1098 1459.58 1098 1468.33 Q1098 1477.06 1094.92 1481.67 Q1091.87 1486.25 1086.06 1486.25 Q1080.25 1486.25 1077.17 1481.67 Q1074.11 1477.06 1074.11 1468.33 Q1074.11 1459.58 1077.17 1455 Q1080.25 1450.39 1086.06 1450.39 Z" fill="#000000" fill-rule="nonzero" fill-opacity="1" /><path clip-path="url(#clip580)" d="M1106.22 1479.7 L1111.1 1479.7 L1111.1 1485.58 L1106.22 1485.58 L1106.22 1479.7 Z" fill="#000000" fill-rule="nonzero" fill-opacity="1" /><path clip-path="url(#clip580)" d="M1134.14 1455.09 L1122.33 1473.54 L1134.14 1473.54 L1134.14 1455.09 M1132.91 1451.02 L1138.79 1451.02 L1138.79 1473.54 L1143.72 1473.54 L1143.72 1477.43 L1138.79 1477.43 L1138.79 1485.58 L1134.14 1485.58 L1134.14 1477.43 L1118.54 1477.43 L1118.54 1472.92 L1132.91 1451.02 Z" fill="#000000" fill-rule="nonzero" fill-opacity="1" /><path clip-path="url(#clip580)" d="M1500.83 1454.1 Q1497.22 1454.1 1495.39 1457.66 Q1493.59 1461.2 1493.59 1468.33 Q1493.59 1475.44 1495.39 1479.01 Q1497.22 1482.55 1500.83 1482.55 Q1504.47 1482.55 1506.27 1479.01 Q1508.1 1475.44 1508.1 1468.33 Q1508.1 1461.2 1506.27 1457.66 Q1504.47 1454.1 1500.83 1454.1 M1500.83 1450.39 Q1506.64 1450.39 1509.7 1455 Q1512.78 1459.58 1512.78 1468.33 Q1512.78 1477.06 1509.7 1481.67 Q1506.64 1486.25 1500.83 1486.25 Q1495.02 1486.25 1491.94 1481.67 Q1488.89 1477.06 1488.89 1468.33 Q1488.89 1459.58 1491.94 1455 Q1495.02 1450.39 1500.83 1450.39 Z" fill="#000000" fill-rule="nonzero" fill-opacity="1" /><path clip-path="url(#clip580)" d="M1521 1479.7 L1525.88 1479.7 L1525.88 1485.58 L1521 1485.58 L1521 1479.7 Z" fill="#000000" fill-rule="nonzero" fill-opacity="1" /><path clip-path="url(#clip580)" d="M1546.64 1466.44 Q1543.5 1466.44 1541.64 1468.59 Q1539.81 1470.74 1539.81 1474.49 Q1539.81 1478.22 1541.64 1480.39 Q1543.5 1482.55 1546.64 1482.55 Q1549.79 1482.55 1551.62 1480.39 Q1553.47 1478.22 1553.47 1474.49 Q1553.47 1470.74 1551.62 1468.59 Q1549.79 1466.44 1546.64 1466.44 M1555.93 1451.78 L1555.93 1456.04 Q1554.17 1455.21 1552.36 1454.77 Q1550.58 1454.33 1548.82 1454.33 Q1544.19 1454.33 1541.74 1457.45 Q1539.31 1460.58 1538.96 1466.9 Q1540.32 1464.89 1542.38 1463.82 Q1544.44 1462.73 1546.92 1462.73 Q1552.13 1462.73 1555.14 1465.9 Q1558.17 1469.05 1558.17 1474.49 Q1558.17 1479.82 1555.02 1483.03 Q1551.87 1486.25 1546.64 1486.25 Q1540.65 1486.25 1537.48 1481.67 Q1534.31 1477.06 1534.31 1468.33 Q1534.31 1460.14 1538.19 1455.28 Q1542.08 1450.39 1548.63 1450.39 Q1550.39 1450.39 1552.18 1450.74 Q1553.98 1451.09 1555.93 1451.78 Z" fill="#000000" fill-rule="nonzero" fill-opacity="1" /><path clip-path="url(#clip580)" d="M1915.57 1454.1 Q1911.96 1454.1 1910.13 1457.66 Q1908.33 1461.2 1908.33 1468.33 Q1908.33 1475.44 1910.13 1479.01 Q1911.96 1482.55 1915.57 1482.55 Q1919.21 1482.55 1921.01 1479.01 Q1922.84 1475.44 1922.84 1468.33 Q1922.84 1461.2 1921.01 1457.66 Q1919.21 1454.1 1915.57 1454.1 M1915.57 1450.39 Q1921.38 1450.39 1924.44 1455 Q1927.52 1459.58 1927.52 1468.33 Q1927.52 1477.06 1924.44 1481.67 Q1921.38 1486.25 1915.57 1486.25 Q1909.76 1486.25 1906.68 1481.67 Q1903.63 1477.06 1903.63 1468.33 Q1903.63 1459.58 1906.68 1455 Q1909.76 1450.39 1915.57 1450.39 Z" fill="#000000" fill-rule="nonzero" fill-opacity="1" /><path clip-path="url(#clip580)" d="M1935.74 1479.7 L1940.62 1479.7 L1940.62 1485.58 L1935.74 1485.58 L1935.74 1479.7 Z" fill="#000000" fill-rule="nonzero" fill-opacity="1" /><path clip-path="url(#clip580)" d="M1960.8 1469.17 Q1957.47 1469.17 1955.55 1470.95 Q1953.65 1472.73 1953.65 1475.86 Q1953.65 1478.98 1955.55 1480.77 Q1957.47 1482.55 1960.8 1482.55 Q1964.14 1482.55 1966.06 1480.77 Q1967.98 1478.96 1967.98 1475.86 Q1967.98 1472.73 1966.06 1470.95 Q1964.16 1469.17 1960.8 1469.17 M1956.13 1467.18 Q1953.12 1466.44 1951.43 1464.38 Q1949.76 1462.32 1949.76 1459.35 Q1949.76 1455.21 1952.7 1452.8 Q1955.67 1450.39 1960.8 1450.39 Q1965.97 1450.39 1968.91 1452.8 Q1971.85 1455.21 1971.85 1459.35 Q1971.85 1462.32 1970.16 1464.38 Q1968.49 1466.44 1965.5 1467.18 Q1968.88 1467.96 1970.76 1470.26 Q1972.66 1472.55 1972.66 1475.86 Q1972.66 1480.88 1969.58 1483.57 Q1966.52 1486.25 1960.8 1486.25 Q1955.09 1486.25 1952.01 1483.57 Q1948.95 1480.88 1948.95 1475.86 Q1948.95 1472.55 1950.85 1470.26 Q1952.75 1467.96 1956.13 1467.18 M1954.42 1459.79 Q1954.42 1462.48 1956.08 1463.98 Q1957.77 1465.49 1960.8 1465.49 Q1963.81 1465.49 1965.5 1463.98 Q1967.22 1462.48 1967.22 1459.79 Q1967.22 1457.11 1965.5 1455.6 Q1963.81 1454.1 1960.8 1454.1 Q1957.77 1454.1 1956.08 1455.6 Q1954.42 1457.11 1954.42 1459.79 Z" fill="#000000" fill-rule="nonzero" fill-opacity="1" /><path clip-path="url(#clip580)" d="M2319.91 1481.64 L2327.55 1481.64 L2327.55 1455.28 L2319.24 1456.95 L2319.24 1452.69 L2327.5 1451.02 L2332.18 1451.02 L2332.18 1481.64 L2339.82 1481.64 L2339.82 1485.58 L2319.91 1485.58 L2319.91 1481.64 Z" fill="#000000" fill-rule="nonzero" fill-opacity="1" /><path clip-path="url(#clip580)" d="M2349.26 1479.7 L2354.14 1479.7 L2354.14 1485.58 L2349.26 1485.58 L2349.26 1479.7 Z" fill="#000000" fill-rule="nonzero" fill-opacity="1" /><path clip-path="url(#clip580)" d="M2374.33 1454.1 Q2370.72 1454.1 2368.89 1457.66 Q2367.08 1461.2 2367.08 1468.33 Q2367.08 1475.44 2368.89 1479.01 Q2370.72 1482.55 2374.33 1482.55 Q2377.96 1482.55 2379.77 1479.01 Q2381.6 1475.44 2381.6 1468.33 Q2381.6 1461.2 2379.77 1457.66 Q2377.96 1454.1 2374.33 1454.1 M2374.33 1450.39 Q2380.14 1450.39 2383.2 1455 Q2386.27 1459.58 2386.27 1468.33 Q2386.27 1477.06 2383.2 1481.67 Q2380.14 1486.25 2374.33 1486.25 Q2368.52 1486.25 2365.44 1481.67 Q2362.39 1477.06 2362.39 1468.33 Q2362.39 1459.58 2365.44 1455 Q2368.52 1450.39 2374.33 1450.39 Z" fill="#000000" fill-rule="nonzero" fill-opacity="1" /><path clip-path="url(#clip580)" d="M1238.11 1520.52 L1278.31 1520.52 L1278.31 1525.93 L1261.44 1525.93 L1261.44 1568.04 L1254.98 1568.04 L1254.98 1525.93 L1238.11 1525.93 L1238.11 1520.52 Z" fill="#000000" fill-rule="nonzero" fill-opacity="1" /><path clip-path="url(#clip580)" d="M1282.25 1532.4 L1288.11 1532.4 L1288.11 1568.04 L1282.25 1568.04 L1282.25 1532.4 M1282.25 1518.52 L1288.11 1518.52 L1288.11 1525.93 L1282.25 1525.93 L1282.25 1518.52 Z" fill="#000000" fill-rule="nonzero" fill-opacity="1" /><path clip-path="url(#clip580)" d="M1328.12 1539.24 Q1330.31 1535.29 1333.37 1533.41 Q1336.43 1531.54 1340.56 1531.54 Q1346.13 1531.54 1349.16 1535.45 Q1352.18 1539.33 1352.18 1546.53 L1352.18 1568.04 L1346.29 1568.04 L1346.29 1546.72 Q1346.29 1541.59 1344.48 1539.11 Q1342.66 1536.63 1338.94 1536.63 Q1334.39 1536.63 1331.75 1539.65 Q1329.1 1542.68 1329.1 1547.9 L1329.1 1568.04 L1323.22 1568.04 L1323.22 1546.72 Q1323.22 1541.56 1321.4 1539.11 Q1319.59 1536.63 1315.8 1536.63 Q1311.31 1536.63 1308.67 1539.68 Q1306.03 1542.71 1306.03 1547.9 L1306.03 1568.04 L1300.14 1568.04 L1300.14 1532.4 L1306.03 1532.4 L1306.03 1537.93 Q1308.03 1534.66 1310.83 1533.1 Q1313.64 1531.54 1317.49 1531.54 Q1321.37 1531.54 1324.08 1533.51 Q1326.81 1535.48 1328.12 1539.24 Z" fill="#000000" fill-rule="nonzero" fill-opacity="1" /><path clip-path="url(#clip580)" d="M1394.35 1548.76 L1394.35 1551.62 L1367.43 1551.62 Q1367.81 1557.67 1371.05 1560.85 Q1374.33 1564 1380.16 1564 Q1383.53 1564 1386.68 1563.17 Q1389.87 1562.35 1392.98 1560.69 L1392.98 1566.23 Q1389.83 1567.57 1386.52 1568.27 Q1383.21 1568.97 1379.81 1568.97 Q1371.28 1568.97 1366.28 1564 Q1361.32 1559.04 1361.32 1550.57 Q1361.32 1541.82 1366.03 1536.69 Q1370.77 1531.54 1378.79 1531.54 Q1385.98 1531.54 1390.15 1536.18 Q1394.35 1540.8 1394.35 1548.76 M1388.5 1547.04 Q1388.43 1542.23 1385.79 1539.37 Q1383.18 1536.5 1378.85 1536.5 Q1373.95 1536.5 1370.99 1539.27 Q1368.06 1542.04 1367.62 1547.07 L1388.5 1547.04 Z" fill="#000000" fill-rule="nonzero" fill-opacity="1" /><polyline clip-path="url(#clip580)" style="stroke:#000000; stroke-linecap:round; stroke-linejoin:round; stroke-width:4; stroke-opacity:1; fill:none" points="279.704,1423.18 279.704,47.2441 "/>
<polyline clip-path="url(#clip580)" style="stroke:#000000; stroke-linecap:round; stroke-linejoin:round; stroke-width:4; stroke-opacity:1; fill:none" points="279.704,1423.18 298.602,1423.18 "/>
<polyline clip-path="url(#clip580)" style="stroke:#000000; stroke-linecap:round; stroke-linejoin:round; stroke-width:4; stroke-opacity:1; fill:none" points="279.704,1182.64 298.602,1182.64 "/>
<polyline clip-path="url(#clip580)" style="stroke:#000000; stroke-linecap:round; stroke-linejoin:round; stroke-width:4; stroke-opacity:1; fill:none" points="279.704,942.105 298.602,942.105 "/>
<polyline clip-path="url(#clip580)" style="stroke:#000000; stroke-linecap:round; stroke-linejoin:round; stroke-width:4; stroke-opacity:1; fill:none" points="279.704,701.568 298.602,701.568 "/>
<polyline clip-path="url(#clip580)" style="stroke:#000000; stroke-linecap:round; stroke-linejoin:round; stroke-width:4; stroke-opacity:1; fill:none" points="279.704,461.031 298.602,461.031 "/>
<polyline clip-path="url(#clip580)" style="stroke:#000000; stroke-linecap:round; stroke-linejoin:round; stroke-width:4; stroke-opacity:1; fill:none" points="279.704,220.494 298.602,220.494 "/>
<path clip-path="url(#clip580)" d="M126.205 1408.98 Q122.593 1408.98 120.765 1412.54 Q118.959 1416.08 118.959 1423.21 Q118.959 1430.32 120.765 1433.89 Q122.593 1437.43 126.205 1437.43 Q129.839 1437.43 131.644 1433.89 Q133.473 1430.32 133.473 1423.21 Q133.473 1416.08 131.644 1412.54 Q129.839 1408.98 126.205 1408.98 M126.205 1405.27 Q132.015 1405.27 135.07 1409.88 Q138.149 1414.46 138.149 1423.21 Q138.149 1431.94 135.07 1436.55 Q132.015 1441.13 126.205 1441.13 Q120.394 1441.13 117.316 1436.55 Q114.26 1431.94 114.26 1423.21 Q114.26 1414.46 117.316 1409.88 Q120.394 1405.27 126.205 1405.27 Z" fill="#000000" fill-rule="nonzero" fill-opacity="1" /><path clip-path="url(#clip580)" d="M146.366 1434.58 L151.251 1434.58 L151.251 1440.46 L146.366 1440.46 L146.366 1434.58 Z" fill="#000000" fill-rule="nonzero" fill-opacity="1" /><path clip-path="url(#clip580)" d="M171.436 1408.98 Q167.825 1408.98 165.996 1412.54 Q164.19 1416.08 164.19 1423.21 Q164.19 1430.32 165.996 1433.89 Q167.825 1437.43 171.436 1437.43 Q175.07 1437.43 176.876 1433.89 Q178.704 1430.32 178.704 1423.21 Q178.704 1416.08 176.876 1412.54 Q175.07 1408.98 171.436 1408.98 M171.436 1405.27 Q177.246 1405.27 180.301 1409.88 Q183.38 1414.46 183.38 1423.21 Q183.38 1431.94 180.301 1436.55 Q177.246 1441.13 171.436 1441.13 Q165.626 1441.13 162.547 1436.55 Q159.491 1431.94 159.491 1423.21 Q159.491 1414.46 162.547 1409.88 Q165.626 1405.27 171.436 1405.27 Z" fill="#000000" fill-rule="nonzero" fill-opacity="1" /><path clip-path="url(#clip580)" d="M201.598 1408.98 Q197.987 1408.98 196.158 1412.54 Q194.352 1416.08 194.352 1423.21 Q194.352 1430.32 196.158 1433.89 Q197.987 1437.43 201.598 1437.43 Q205.232 1437.43 207.037 1433.89 Q208.866 1430.32 208.866 1423.21 Q208.866 1416.08 207.037 1412.54 Q205.232 1408.98 201.598 1408.98 M201.598 1405.27 Q207.408 1405.27 210.463 1409.88 Q213.542 1414.46 213.542 1423.21 Q213.542 1431.94 210.463 1436.55 Q207.408 1441.13 201.598 1441.13 Q195.787 1441.13 192.709 1436.55 Q189.653 1431.94 189.653 1423.21 Q189.653 1414.46 192.709 1409.88 Q195.787 1405.27 201.598 1405.27 Z" fill="#000000" fill-rule="nonzero" fill-opacity="1" /><path clip-path="url(#clip580)" d="M231.76 1408.98 Q228.148 1408.98 226.32 1412.54 Q224.514 1416.08 224.514 1423.21 Q224.514 1430.32 226.32 1433.89 Q228.148 1437.43 231.76 1437.43 Q235.394 1437.43 237.199 1433.89 Q239.028 1430.32 239.028 1423.21 Q239.028 1416.08 237.199 1412.54 Q235.394 1408.98 231.76 1408.98 M231.76 1405.27 Q237.57 1405.27 240.625 1409.88 Q243.704 1414.46 243.704 1423.21 Q243.704 1431.94 240.625 1436.55 Q237.57 1441.13 231.76 1441.13 Q225.949 1441.13 222.871 1436.55 Q219.815 1431.94 219.815 1423.21 Q219.815 1414.46 222.871 1409.88 Q225.949 1405.27 231.76 1405.27 Z" fill="#000000" fill-rule="nonzero" fill-opacity="1" /><path clip-path="url(#clip580)" d="M127.2 1168.44 Q123.589 1168.44 121.76 1172.01 Q119.955 1175.55 119.955 1182.68 Q119.955 1189.78 121.76 1193.35 Q123.589 1196.89 127.2 1196.89 Q130.834 1196.89 132.64 1193.35 Q134.468 1189.78 134.468 1182.68 Q134.468 1175.55 132.64 1172.01 Q130.834 1168.44 127.2 1168.44 M127.2 1164.74 Q133.01 1164.74 136.066 1169.34 Q139.144 1173.93 139.144 1182.68 Q139.144 1191.4 136.066 1196.01 Q133.01 1200.59 127.2 1200.59 Q121.39 1200.59 118.311 1196.01 Q115.256 1191.4 115.256 1182.68 Q115.256 1173.93 118.311 1169.34 Q121.39 1164.74 127.2 1164.74 Z" fill="#000000" fill-rule="nonzero" fill-opacity="1" /><path clip-path="url(#clip580)" d="M147.362 1194.04 L152.246 1194.04 L152.246 1199.92 L147.362 1199.92 L147.362 1194.04 Z" fill="#000000" fill-rule="nonzero" fill-opacity="1" /><path clip-path="url(#clip580)" d="M172.431 1168.44 Q168.82 1168.44 166.991 1172.01 Q165.186 1175.55 165.186 1182.68 Q165.186 1189.78 166.991 1193.35 Q168.82 1196.89 172.431 1196.89 Q176.065 1196.89 177.871 1193.35 Q179.7 1189.78 179.7 1182.68 Q179.7 1175.55 177.871 1172.01 Q176.065 1168.44 172.431 1168.44 M172.431 1164.74 Q178.241 1164.74 181.297 1169.34 Q184.376 1173.93 184.376 1182.68 Q184.376 1191.4 181.297 1196.01 Q178.241 1200.59 172.431 1200.59 Q166.621 1200.59 163.542 1196.01 Q160.487 1191.4 160.487 1182.68 Q160.487 1173.93 163.542 1169.34 Q166.621 1164.74 172.431 1164.74 Z" fill="#000000" fill-rule="nonzero" fill-opacity="1" /><path clip-path="url(#clip580)" d="M202.593 1168.44 Q198.982 1168.44 197.153 1172.01 Q195.348 1175.55 195.348 1182.68 Q195.348 1189.78 197.153 1193.35 Q198.982 1196.89 202.593 1196.89 Q206.227 1196.89 208.033 1193.35 Q209.861 1189.78 209.861 1182.68 Q209.861 1175.55 208.033 1172.01 Q206.227 1168.44 202.593 1168.44 M202.593 1164.74 Q208.403 1164.74 211.459 1169.34 Q214.537 1173.93 214.537 1182.68 Q214.537 1191.4 211.459 1196.01 Q208.403 1200.59 202.593 1200.59 Q196.783 1200.59 193.704 1196.01 Q190.649 1191.4 190.649 1182.68 Q190.649 1173.93 193.704 1169.34 Q196.783 1164.74 202.593 1164.74 Z" fill="#000000" fill-rule="nonzero" fill-opacity="1" /><path clip-path="url(#clip580)" d="M222.801 1165.36 L241.158 1165.36 L241.158 1169.3 L227.084 1169.3 L227.084 1177.77 Q228.102 1177.42 229.121 1177.26 Q230.139 1177.08 231.158 1177.08 Q236.945 1177.08 240.324 1180.25 Q243.704 1183.42 243.704 1188.83 Q243.704 1194.41 240.232 1197.52 Q236.76 1200.59 230.44 1200.59 Q228.264 1200.59 225.996 1200.22 Q223.75 1199.85 221.343 1199.11 L221.343 1194.41 Q223.426 1195.55 225.648 1196.1 Q227.871 1196.66 230.347 1196.66 Q234.352 1196.66 236.69 1194.55 Q239.028 1192.45 239.028 1188.83 Q239.028 1185.22 236.69 1183.12 Q234.352 1181.01 230.347 1181.01 Q228.473 1181.01 226.598 1181.43 Q224.746 1181.84 222.801 1182.72 L222.801 1165.36 Z" fill="#000000" fill-rule="nonzero" fill-opacity="1" /><path clip-path="url(#clip580)" d="M126.205 927.904 Q122.593 927.904 120.765 931.469 Q118.959 935.01 118.959 942.14 Q118.959 949.247 120.765 952.811 Q122.593 956.353 126.205 956.353 Q129.839 956.353 131.644 952.811 Q133.473 949.247 133.473 942.14 Q133.473 935.01 131.644 931.469 Q129.839 927.904 126.205 927.904 M126.205 924.2 Q132.015 924.2 135.07 928.807 Q138.149 933.39 138.149 942.14 Q138.149 950.867 135.07 955.473 Q132.015 960.057 126.205 960.057 Q120.394 960.057 117.316 955.473 Q114.26 950.867 114.26 942.14 Q114.26 933.39 117.316 928.807 Q120.394 924.2 126.205 924.2 Z" fill="#000000" fill-rule="nonzero" fill-opacity="1" /><path clip-path="url(#clip580)" d="M146.366 953.506 L151.251 953.506 L151.251 959.385 L146.366 959.385 L146.366 953.506 Z" fill="#000000" fill-rule="nonzero" fill-opacity="1" /><path clip-path="url(#clip580)" d="M171.436 927.904 Q167.825 927.904 165.996 931.469 Q164.19 935.01 164.19 942.14 Q164.19 949.247 165.996 952.811 Q167.825 956.353 171.436 956.353 Q175.07 956.353 176.876 952.811 Q178.704 949.247 178.704 942.14 Q178.704 935.01 176.876 931.469 Q175.07 927.904 171.436 927.904 M171.436 924.2 Q177.246 924.2 180.301 928.807 Q183.38 933.39 183.38 942.14 Q183.38 950.867 180.301 955.473 Q177.246 960.057 171.436 960.057 Q165.626 960.057 162.547 955.473 Q159.491 950.867 159.491 942.14 Q159.491 933.39 162.547 928.807 Q165.626 924.2 171.436 924.2 Z" fill="#000000" fill-rule="nonzero" fill-opacity="1" /><path clip-path="url(#clip580)" d="M192.408 955.45 L200.047 955.45 L200.047 929.085 L191.737 930.751 L191.737 926.492 L200 924.825 L204.676 924.825 L204.676 955.45 L212.315 955.45 L212.315 959.385 L192.408 959.385 L192.408 955.45 Z" fill="#000000" fill-rule="nonzero" fill-opacity="1" /><path clip-path="url(#clip580)" d="M231.76 927.904 Q228.148 927.904 226.32 931.469 Q224.514 935.01 224.514 942.14 Q224.514 949.247 226.32 952.811 Q228.148 956.353 231.76 956.353 Q235.394 956.353 237.199 952.811 Q239.028 949.247 239.028 942.14 Q239.028 935.01 237.199 931.469 Q235.394 927.904 231.76 927.904 M231.76 924.2 Q237.57 924.2 240.625 928.807 Q243.704 933.39 243.704 942.14 Q243.704 950.867 240.625 955.473 Q237.57 960.057 231.76 960.057 Q225.949 960.057 222.871 955.473 Q219.815 950.867 219.815 942.14 Q219.815 933.39 222.871 928.807 Q225.949 924.2 231.76 924.2 Z" fill="#000000" fill-rule="nonzero" fill-opacity="1" /><path clip-path="url(#clip580)" d="M127.2 687.367 Q123.589 687.367 121.76 690.932 Q119.955 694.473 119.955 701.603 Q119.955 708.709 121.76 712.274 Q123.589 715.816 127.2 715.816 Q130.834 715.816 132.64 712.274 Q134.468 708.709 134.468 701.603 Q134.468 694.473 132.64 690.932 Q130.834 687.367 127.2 687.367 M127.2 683.663 Q133.01 683.663 136.066 688.27 Q139.144 692.853 139.144 701.603 Q139.144 710.33 136.066 714.936 Q133.01 719.519 127.2 719.519 Q121.39 719.519 118.311 714.936 Q115.256 710.33 115.256 701.603 Q115.256 692.853 118.311 688.27 Q121.39 683.663 127.2 683.663 Z" fill="#000000" fill-rule="nonzero" fill-opacity="1" /><path clip-path="url(#clip580)" d="M147.362 712.969 L152.246 712.969 L152.246 718.848 L147.362 718.848 L147.362 712.969 Z" fill="#000000" fill-rule="nonzero" fill-opacity="1" /><path clip-path="url(#clip580)" d="M172.431 687.367 Q168.82 687.367 166.991 690.932 Q165.186 694.473 165.186 701.603 Q165.186 708.709 166.991 712.274 Q168.82 715.816 172.431 715.816 Q176.065 715.816 177.871 712.274 Q179.7 708.709 179.7 701.603 Q179.7 694.473 177.871 690.932 Q176.065 687.367 172.431 687.367 M172.431 683.663 Q178.241 683.663 181.297 688.27 Q184.376 692.853 184.376 701.603 Q184.376 710.33 181.297 714.936 Q178.241 719.519 172.431 719.519 Q166.621 719.519 163.542 714.936 Q160.487 710.33 160.487 701.603 Q160.487 692.853 163.542 688.27 Q166.621 683.663 172.431 683.663 Z" fill="#000000" fill-rule="nonzero" fill-opacity="1" /><path clip-path="url(#clip580)" d="M193.403 714.913 L201.042 714.913 L201.042 688.547 L192.732 690.214 L192.732 685.955 L200.996 684.288 L205.672 684.288 L205.672 714.913 L213.311 714.913 L213.311 718.848 L193.403 718.848 L193.403 714.913 Z" fill="#000000" fill-rule="nonzero" fill-opacity="1" /><path clip-path="url(#clip580)" d="M222.801 684.288 L241.158 684.288 L241.158 688.223 L227.084 688.223 L227.084 696.695 Q228.102 696.348 229.121 696.186 Q230.139 696.001 231.158 696.001 Q236.945 696.001 240.324 699.172 Q243.704 702.344 243.704 707.76 Q243.704 713.339 240.232 716.441 Q236.76 719.519 230.44 719.519 Q228.264 719.519 225.996 719.149 Q223.75 718.779 221.343 718.038 L221.343 713.339 Q223.426 714.473 225.648 715.029 Q227.871 715.584 230.347 715.584 Q234.352 715.584 236.69 713.478 Q239.028 711.371 239.028 707.76 Q239.028 704.149 236.69 702.043 Q234.352 699.936 230.347 699.936 Q228.473 699.936 226.598 700.353 Q224.746 700.77 222.801 701.649 L222.801 684.288 Z" fill="#000000" fill-rule="nonzero" fill-opacity="1" /><path clip-path="url(#clip580)" d="M126.205 446.83 Q122.593 446.83 120.765 450.394 Q118.959 453.936 118.959 461.066 Q118.959 468.172 120.765 471.737 Q122.593 475.279 126.205 475.279 Q129.839 475.279 131.644 471.737 Q133.473 468.172 133.473 461.066 Q133.473 453.936 131.644 450.394 Q129.839 446.83 126.205 446.83 M126.205 443.126 Q132.015 443.126 135.07 447.732 Q138.149 452.316 138.149 461.066 Q138.149 469.792 135.07 474.399 Q132.015 478.982 126.205 478.982 Q120.394 478.982 117.316 474.399 Q114.26 469.792 114.26 461.066 Q114.26 452.316 117.316 447.732 Q120.394 443.126 126.205 443.126 Z" fill="#000000" fill-rule="nonzero" fill-opacity="1" /><path clip-path="url(#clip580)" d="M146.366 472.431 L151.251 472.431 L151.251 478.311 L146.366 478.311 L146.366 472.431 Z" fill="#000000" fill-rule="nonzero" fill-opacity="1" /><path clip-path="url(#clip580)" d="M171.436 446.83 Q167.825 446.83 165.996 450.394 Q164.19 453.936 164.19 461.066 Q164.19 468.172 165.996 471.737 Q167.825 475.279 171.436 475.279 Q175.07 475.279 176.876 471.737 Q178.704 468.172 178.704 461.066 Q178.704 453.936 176.876 450.394 Q175.07 446.83 171.436 446.83 M171.436 443.126 Q177.246 443.126 180.301 447.732 Q183.38 452.316 183.38 461.066 Q183.38 469.792 180.301 474.399 Q177.246 478.982 171.436 478.982 Q165.626 478.982 162.547 474.399 Q159.491 469.792 159.491 461.066 Q159.491 452.316 162.547 447.732 Q165.626 443.126 171.436 443.126 Z" fill="#000000" fill-rule="nonzero" fill-opacity="1" /><path clip-path="url(#clip580)" d="M195.625 474.376 L211.945 474.376 L211.945 478.311 L190 478.311 L190 474.376 Q192.663 471.621 197.246 466.992 Q201.852 462.339 203.033 460.996 Q205.278 458.473 206.158 456.737 Q207.061 454.978 207.061 453.288 Q207.061 450.533 205.116 448.797 Q203.195 447.061 200.093 447.061 Q197.894 447.061 195.44 447.825 Q193.01 448.589 190.232 450.14 L190.232 445.418 Q193.056 444.283 195.51 443.705 Q197.963 443.126 200 443.126 Q205.371 443.126 208.565 445.811 Q211.76 448.496 211.76 452.987 Q211.76 455.117 210.949 457.038 Q210.162 458.936 208.056 461.529 Q207.477 462.2 204.375 465.417 Q201.274 468.612 195.625 474.376 Z" fill="#000000" fill-rule="nonzero" fill-opacity="1" /><path clip-path="url(#clip580)" d="M231.76 446.83 Q228.148 446.83 226.32 450.394 Q224.514 453.936 224.514 461.066 Q224.514 468.172 226.32 471.737 Q228.148 475.279 231.76 475.279 Q235.394 475.279 237.199 471.737 Q239.028 468.172 239.028 461.066 Q239.028 453.936 237.199 450.394 Q235.394 446.83 231.76 446.83 M231.76 443.126 Q237.57 443.126 240.625 447.732 Q243.704 452.316 243.704 461.066 Q243.704 469.792 240.625 474.399 Q237.57 478.982 231.76 478.982 Q225.949 478.982 222.871 474.399 Q219.815 469.792 219.815 461.066 Q219.815 452.316 222.871 447.732 Q225.949 443.126 231.76 443.126 Z" fill="#000000" fill-rule="nonzero" fill-opacity="1" /><path clip-path="url(#clip580)" d="M127.2 206.292 Q123.589 206.292 121.76 209.857 Q119.955 213.399 119.955 220.528 Q119.955 227.635 121.76 231.2 Q123.589 234.741 127.2 234.741 Q130.834 234.741 132.64 231.2 Q134.468 227.635 134.468 220.528 Q134.468 213.399 132.64 209.857 Q130.834 206.292 127.2 206.292 M127.2 202.589 Q133.01 202.589 136.066 207.195 Q139.144 211.778 139.144 220.528 Q139.144 229.255 136.066 233.862 Q133.01 238.445 127.2 238.445 Q121.39 238.445 118.311 233.862 Q115.256 229.255 115.256 220.528 Q115.256 211.778 118.311 207.195 Q121.39 202.589 127.2 202.589 Z" fill="#000000" fill-rule="nonzero" fill-opacity="1" /><path clip-path="url(#clip580)" d="M147.362 231.894 L152.246 231.894 L152.246 237.774 L147.362 237.774 L147.362 231.894 Z" fill="#000000" fill-rule="nonzero" fill-opacity="1" /><path clip-path="url(#clip580)" d="M172.431 206.292 Q168.82 206.292 166.991 209.857 Q165.186 213.399 165.186 220.528 Q165.186 227.635 166.991 231.2 Q168.82 234.741 172.431 234.741 Q176.065 234.741 177.871 231.2 Q179.7 227.635 179.7 220.528 Q179.7 213.399 177.871 209.857 Q176.065 206.292 172.431 206.292 M172.431 202.589 Q178.241 202.589 181.297 207.195 Q184.376 211.778 184.376 220.528 Q184.376 229.255 181.297 233.862 Q178.241 238.445 172.431 238.445 Q166.621 238.445 163.542 233.862 Q160.487 229.255 160.487 220.528 Q160.487 211.778 163.542 207.195 Q166.621 202.589 172.431 202.589 Z" fill="#000000" fill-rule="nonzero" fill-opacity="1" /><path clip-path="url(#clip580)" d="M196.621 233.838 L212.94 233.838 L212.94 237.774 L190.996 237.774 L190.996 233.838 Q193.658 231.084 198.241 226.454 Q202.848 221.802 204.028 220.459 Q206.274 217.936 207.153 216.2 Q208.056 214.44 208.056 212.751 Q208.056 209.996 206.112 208.26 Q204.19 206.524 201.088 206.524 Q198.889 206.524 196.436 207.288 Q194.005 208.052 191.227 209.603 L191.227 204.88 Q194.051 203.746 196.505 203.167 Q198.959 202.589 200.996 202.589 Q206.366 202.589 209.561 205.274 Q212.755 207.959 212.755 212.45 Q212.755 214.579 211.945 216.501 Q211.158 218.399 209.051 220.991 Q208.473 221.663 205.371 224.88 Q202.269 228.075 196.621 233.838 Z" fill="#000000" fill-rule="nonzero" fill-opacity="1" /><path clip-path="url(#clip580)" d="M222.801 203.214 L241.158 203.214 L241.158 207.149 L227.084 207.149 L227.084 215.621 Q228.102 215.274 229.121 215.112 Q230.139 214.927 231.158 214.927 Q236.945 214.927 240.324 218.098 Q243.704 221.269 243.704 226.686 Q243.704 232.264 240.232 235.366 Q236.76 238.445 230.44 238.445 Q228.264 238.445 225.996 238.075 Q223.75 237.704 221.343 236.963 L221.343 232.264 Q223.426 233.399 225.648 233.954 Q227.871 234.51 230.347 234.51 Q234.352 234.51 236.69 232.403 Q239.028 230.297 239.028 226.686 Q239.028 223.075 236.69 220.968 Q234.352 218.862 230.347 218.862 Q228.473 218.862 226.598 219.278 Q224.746 219.695 222.801 220.575 L222.801 203.214 Z" fill="#000000" fill-rule="nonzero" fill-opacity="1" /><path clip-path="url(#clip580)" d="M41.7242 776.939 Q42.4244 774.87 44.7161 772.929 Q47.0077 770.955 51.0181 768.982 L64.0042 762.457 L64.0042 769.364 L51.8138 775.443 Q47.0395 777.799 45.48 780.027 Q43.9204 782.223 43.9204 786.042 L43.9204 793.044 L64.0042 793.044 L64.0042 799.474 L16.4842 799.474 L16.4842 784.96 Q16.4842 776.812 19.8898 772.801 Q23.2955 768.791 30.1704 768.791 Q34.6582 768.791 37.6183 770.892 Q40.5784 772.961 41.7242 776.939 M21.7677 793.044 L38.6368 793.044 L38.6368 784.96 Q38.6368 780.313 36.5043 777.958 Q34.34 775.571 30.1704 775.571 Q26.0009 775.571 23.9002 777.958 Q21.7677 780.313 21.7677 784.96 L21.7677 793.044 Z" fill="#000000" fill-rule="nonzero" fill-opacity="1" /><path clip-path="url(#clip580)" d="M28.3562 754.436 L28.3562 748.58 L64.0042 748.58 L64.0042 754.436 L28.3562 754.436 M14.479 754.436 L14.479 748.58 L21.895 748.58 L21.895 754.436 L14.479 754.436 Z" fill="#000000" fill-rule="nonzero" fill-opacity="1" /><path clip-path="url(#clip580)" d="M29.4065 713.6 L34.9447 713.6 Q33.6716 716.083 33.035 718.757 Q32.3984 721.43 32.3984 724.295 Q32.3984 728.655 33.7352 730.851 Q35.072 733.016 37.7456 733.016 Q39.7826 733.016 40.9603 731.456 Q42.1061 729.897 43.1565 725.186 L43.6021 723.181 Q44.9389 716.942 47.3897 714.332 Q49.8086 711.691 54.1691 711.691 Q59.1344 711.691 62.0308 715.637 Q64.9272 719.552 64.9272 726.427 Q64.9272 729.292 64.3543 732.411 Q63.8132 735.498 62.6992 738.936 L56.6518 738.936 Q58.3387 735.689 59.198 732.538 Q60.0256 729.387 60.0256 726.3 Q60.0256 722.162 58.6251 719.934 Q57.1929 717.706 54.6147 717.706 Q52.2276 717.706 50.9545 719.33 Q49.6813 720.921 48.5037 726.364 L48.0262 728.401 Q46.8804 733.843 44.5251 736.262 Q42.138 738.681 38.0002 738.681 Q32.9713 738.681 30.2341 735.116 Q27.4968 731.552 27.4968 724.995 Q27.4968 721.748 27.9743 718.884 Q28.4517 716.019 29.4065 713.6 Z" fill="#000000" fill-rule="nonzero" fill-opacity="1" /><path clip-path="url(#clip580)" d="M14.479 702.588 L14.479 696.699 L43.7294 696.699 L28.3562 679.226 L28.3562 671.746 L45.0344 690.652 L64.0042 670.95 L64.0042 678.589 L46.5939 696.699 L64.0042 696.699 L64.0042 702.588 L14.479 702.588 Z" fill="#000000" fill-rule="nonzero" fill-opacity="1" /><polyline clip-path="url(#clip582)" style="stroke:#009af9; stroke-linecap:round; stroke-linejoin:round; stroke-width:4; stroke-opacity:1; fill:none" points="279.704,1423.18 284.252,1423.18 284.252,1401.3 287.569,1401.3 287.569,1346.86 290.886,1346.86 302.702,1346.86 315.763,1346.86 315.763,1324.08 332.347,1324.08 339.396,1324.08 339.396,1314.74 341.469,1314.74 403.039,1314.74 403.039,1268.73 406.148,1268.73 406.148,1250.09 433.306,1250.09 433.306,1236.47 464.609,1236.47 464.609,1189.15 474.559,1189.15 474.559,1160.42 483.474,1160.42 502.131,1160.42 502.131,1157.92 523.898,1157.92 545.251,1157.92 545.251,1117.58 551.885,1117.58 566.189,1117.58 570.128,1117.58 570.128,1111.43 578.835,1111.43 578.835,1067.11 589.822,1067.11 614.077,1067.11 614.077,1052.66 616.772,1052.66 646.002,1052.66 646.002,1033.67 649.112,1033.67 649.112,1024.22 662.379,1024.22 662.379,985.638 693.06,985.638 708.816,985.638 717.937,985.638 717.937,954.828 722.705,954.828 722.705,922.2 729.961,922.2 729.961,907.687 740.741,907.687 740.741,905.207 747.167,905.207 747.167,875.283 809.774,875.283 841.285,875.283 859.113,875.283 887.099,875.283 887.099,824.736 910.525,824.736 912.183,824.736 912.183,772.526 959.449,772.526 1000.29,772.526 1000.29,743.384 1002.57,743.384 1002.57,710.171 1023.09,710.171 1023.09,688.028 1035.74,688.028 1048.18,688.028 1053.98,688.028 1054.6,688.028 1062.27,688.028 1064.35,688.028 1066,688.028 1103.11,688.028 1103.11,648.123 1109.75,648.123 1109.75,599.959 1119.08,599.959 1119.08,546.857 1156.39,546.857 1165.3,546.857 1165.3,542.205 1184.17,542.205 1185,542.205 1202.21,542.205 1228.74,542.205 1228.74,509.18 1240.76,509.18 1282.64,509.18 1282.64,507.815 1313.53,507.815 1335.71,507.815 1335.71,490.518 1356.86,490.518 1356.86,459.563 1370.33,459.563 1371.16,459.563 1383.39,459.563 1392.93,459.563 1409.72,459.563 1415.73,459.563 1422.99,459.563 1422.99,458.021 1436.88,458.021 1481.86,458.021 1481.86,432.131 1485.8,432.131 1485.8,391.906 1533.07,391.906 1533.07,378.474 1533.9,378.474 1533.9,326.729 1552.76,326.729 1552.76,302.712 1566.24,302.712 1569.97,302.712 1606.87,302.712 1606.87,246.689 1625.11,246.689 1685.23,246.689 1708.24,246.689 1708.24,234.178 1711.76,234.178 1732.29,234.178 1732.29,234.095 1741.82,234.095 1751.15,234.095 1773.54,234.095 1799.04,234.095 1807.13,234.095 1807.13,202.943 1809.61,202.943 1819.15,202.943 1871.39,202.943 1884.66,202.943 1927.57,202.943 1933.17,202.943 1934,202.943 1934,156.232 1953.07,156.232 1953.07,116.863 1969.24,116.863 1969.24,113.189 1974.21,113.189 1974.21,104.012 2002.2,104.012 2018.16,104.012 2056.72,104.012 2056.72,90.5615 2156.02,90.5615 2156.02,58.0171 2184.63,58.0171 2184.63,47.2441 2352.76,47.2441 "/>
<polyline clip-path="url(#clip582)" style="stroke:#e26f46; stroke-linecap:round; stroke-linejoin:round; stroke-width:4; stroke-opacity:1; fill:none" points="279.704,1423.18 284.252,1423.18 287.569,1423.18 290.886,1423.18 290.886,1306.66 302.702,1306.66 302.702,1291.01 315.763,1291.01 332.347,1291.01 332.347,1255.95 339.396,1255.95 341.469,1255.95 341.469,1252.45 403.039,1252.45 406.148,1252.45 433.306,1252.45 464.609,1252.45 474.559,1252.45 483.474,1252.45 483.474,1216.58 502.131,1216.58 523.898,1216.58 523.898,1200.37 545.251,1200.37 551.885,1200.37 551.885,1184.11 566.189,1184.11 566.189,1174.41 570.128,1174.41 578.835,1174.41 589.822,1174.41 589.822,1153.48 614.077,1153.48 616.772,1153.48 616.772,1142.46 646.002,1142.46 649.112,1142.46 662.379,1142.46 693.06,1142.46 693.06,1119.89 708.816,1119.89 708.816,1108.34 717.937,1108.34 722.705,1108.34 729.961,1108.34 740.741,1108.34 747.167,1108.34 809.774,1108.34 809.774,1083.95 841.285,1083.95 841.285,1068.83 859.113,1068.83 859.113,1061.26 887.099,1061.26 910.525,1061.26 910.525,1046.69 912.183,1046.69 959.449,1046.69 959.449,1034.82 1000.29,1034.82 1002.57,1034.82 1023.09,1034.82 1035.74,1034.82 1035.74,996.497 1048.18,996.497 1048.18,956.662 1053.98,956.662 1053.98,928.334 1054.6,928.334 1054.6,895.264 1062.27,895.264 1062.27,867.275 1064.35,867.275 1064.35,842.692 1066,842.692 1066,816.303 1103.11,816.303 1109.75,816.303 1119.08,816.303 1156.39,816.303 1156.39,778.15 1165.3,778.15 1184.17,778.15 1184.17,760.6 1185,760.6 1185,756.45 1202.21,756.45 1202.21,726.971 1228.74,726.971 1240.76,726.971 1240.76,693.065 1282.64,693.065 1313.53,693.065 1313.53,654.787 1335.71,654.787 1356.86,654.787 1370.33,654.787 1370.33,654.082 1371.16,654.082 1371.16,646.88 1383.39,646.88 1383.39,607.594 1392.93,607.594 1392.93,603.135 1409.72,603.135 1409.72,562.413 1415.73,562.413 1415.73,525.071 1422.99,525.071 1436.88,525.071 1436.88,515.281 1481.86,515.281 1485.8,515.281 1533.07,515.281 1533.9,515.281 1552.76,515.281 1566.24,515.281 1566.24,509.368 1569.97,509.368 1569.97,505.741 1606.87,505.741 1625.11,505.741 1625.11,497.771 1685.23,497.771 1685.23,460.144 1708.24,460.144 1711.76,460.144 1711.76,435.134 1732.29,435.134 1741.82,435.134 1741.82,425.007 1751.15,425.007 1751.15,382.974 1773.54,382.974 1773.54,343.172 1799.04,343.172 1799.04,317.488 1807.13,317.488 1809.61,317.488 1809.61,282.345 1819.15,282.345 1819.15,263.605 1871.39,263.605 1871.39,253.095 1884.66,253.095 1884.66,237.83 1927.57,237.83 1927.57,198.791 1933.17,198.791 1933.17,154.117 1934,154.117 1953.07,154.117 1969.24,154.117 1974.21,154.117 2002.2,154.117 2002.2,126.925 2018.16,126.925 2018.16,80.1715 2056.72,80.1715 2156.02,80.1715 2184.63,80.1715 2352.76,80.1715 "/>
<path clip-path="url(#clip580)" d="M348.806 248.629 L578.055 248.629 L578.055 93.1086 L348.806 93.1086  Z" fill="#ffffff" fill-rule="evenodd" fill-opacity="1"/>
<polyline clip-path="url(#clip580)" style="stroke:#000000; stroke-linecap:round; stroke-linejoin:round; stroke-width:4; stroke-opacity:1; fill:none" points="348.806,248.629 578.055,248.629 578.055,93.1086 348.806,93.1086 348.806,248.629 "/>
<polyline clip-path="url(#clip580)" style="stroke:#009af9; stroke-linecap:round; stroke-linejoin:round; stroke-width:4; stroke-opacity:1; fill:none" points="371.84,144.949 510.043,144.949 "/>
<path clip-path="url(#clip580)" d="M533.748 158.293 L541.387 158.293 L541.387 131.928 L533.077 133.595 L533.077 129.335 L541.341 127.669 L546.017 127.669 L546.017 158.293 L553.656 158.293 L553.656 162.229 L533.748 162.229 L533.748 158.293 Z" fill="#000000" fill-rule="nonzero" fill-opacity="1" /><polyline clip-path="url(#clip580)" style="stroke:#e26f46; stroke-linecap:round; stroke-linejoin:round; stroke-width:4; stroke-opacity:1; fill:none" points="371.84,196.789 510.043,196.789 "/>
<path clip-path="url(#clip580)" d="M538.702 210.133 L555.021 210.133 L555.021 214.069 L533.077 214.069 L533.077 210.133 Q535.739 207.379 540.322 202.749 Q544.929 198.096 546.109 196.754 Q548.355 194.231 549.234 192.495 Q550.137 190.735 550.137 189.046 Q550.137 186.291 548.193 184.555 Q546.271 182.819 543.169 182.819 Q540.97 182.819 538.517 183.583 Q536.086 184.347 533.308 185.897 L533.308 181.175 Q536.132 180.041 538.586 179.462 Q541.04 178.884 543.077 178.884 Q548.447 178.884 551.642 181.569 Q554.836 184.254 554.836 188.745 Q554.836 190.874 554.026 192.796 Q553.239 194.694 551.132 197.286 Q550.554 197.958 547.452 201.175 Q544.35 204.37 538.702 210.133 Z" fill="#000000" fill-rule="nonzero" fill-opacity="1" /></svg>
