<?xml version="1.0" encoding="utf-8"?>
<svg xmlns="http://www.w3.org/2000/svg" xmlns:xlink="http://www.w3.org/1999/xlink" width="600" height="400" viewBox="0 0 2400 1600">
<defs>
  <clipPath id="clip380">
    <rect x="0" y="0" width="2400" height="1600"/>
  </clipPath>
</defs>
<path clip-path="url(#clip380)" d="M0 1600 L2400 1600 L2400 0 L0 0  Z" fill="#ffffff" fill-rule="evenodd" fill-opacity="1"/>
<defs>
  <clipPath id="clip381">
    <rect x="480" y="0" width="1681" height="1600"/>
  </clipPath>
</defs>
<path clip-path="url(#clip380)" d="M250.028 1423.18 L2352.76 1423.18 L2352.76 47.2441 L250.028 47.2441  Z" fill="#ffffff" fill-rule="evenodd" fill-opacity="1"/>
<defs>
  <clipPath id="clip382">
    <rect x="250" y="47" width="2104" height="1377"/>
  </clipPath>
</defs>
<polyline clip-path="url(#clip380)" style="stroke:#000000; stroke-linecap:round; stroke-linejoin:round; stroke-width:4; stroke-opacity:1; fill:none" points="250.028,1423.18 2352.76,1423.18 "/>
<polyline clip-path="url(#clip380)" style="stroke:#000000; stroke-linecap:round; stroke-linejoin:round; stroke-width:4; stroke-opacity:1; fill:none" points="670.553,1423.18 670.553,1404.28 "/>
<polyline clip-path="url(#clip380)" style="stroke:#000000; stroke-linecap:round; stroke-linejoin:round; stroke-width:4; stroke-opacity:1; fill:none" points="1091.1,1423.18 1091.1,1404.28 "/>
<polyline clip-path="url(#clip380)" style="stroke:#000000; stroke-linecap:round; stroke-linejoin:round; stroke-width:4; stroke-opacity:1; fill:none" points="1511.65,1423.18 1511.65,1404.28 "/>
<polyline clip-path="url(#clip380)" style="stroke:#000000; stroke-linecap:round; stroke-linejoin:round; stroke-width:4; stroke-opacity:1; fill:none" points="1932.21,1423.18 1932.21,1404.28 "/>
<polyline clip-path="url(#clip380)" style="stroke:#000000; stroke-linecap:round; stroke-linejoin:round; stroke-width:4; stroke-opacity:1; fill:none" points="2352.76,1423.18 2352.76,1404.28 "/>
<path clip-path="url(#clip380)" d="M648.736 1454.1 Q645.125 1454.1 643.296 1457.66 Q641.49 1461.2 641.49 1468.33 Q641.49 1475.44 643.296 1479.01 Q645.125 1482.55 648.736 1482.55 Q652.37 1482.55 654.176 1479.01 Q656.004 1475.44 656.004 1468.33 Q656.004 1461.2 654.176 1457.66 Q652.37 1454.1 648.736 1454.1 M648.736 1450.39 Q654.546 1450.39 657.601 1455 Q660.68 1459.58 660.68 1468.33 Q660.68 1477.06 657.601 1481.67 Q654.546 1486.25 648.736 1486.25 Q642.926 1486.25 639.847 1481.67 Q636.791 1477.06 636.791 1468.33 Q636.791 1459.58 639.847 1455 Q642.926 1450.39 648.736 1450.39 Z" fill="#000000" fill-rule="nonzero" fill-opacity="1" /><path clip-path="url(#clip380)" d="M668.898 1479.7 L673.782 1479.7 L673.782 1485.58 L668.898 1485.58 L668.898 1479.7 Z" fill="#000000" fill-rule="nonzero" fill-opacity="1" /><path clip-path="url(#clip380)" d="M687.995 1481.64 L704.314 1481.64 L704.314 1485.58 L682.37 1485.58 L682.37 1481.64 Q685.032 1478.89 689.615 1474.26 Q694.222 1469.61 695.402 1468.27 Q697.648 1465.74 698.527 1464.01 Q699.43 1462.25 699.43 1460.56 Q699.43 1457.8 697.486 1456.07 Q695.564 1454.33 692.462 1454.33 Q690.263 1454.33 687.81 1455.09 Q685.379 1455.86 682.601 1457.41 L682.601 1452.69 Q685.425 1451.55 687.879 1450.97 Q690.333 1450.39 692.37 1450.39 Q697.74 1450.39 700.935 1453.08 Q704.129 1455.77 704.129 1460.26 Q704.129 1462.39 703.319 1464.31 Q702.532 1466.2 700.425 1468.8 Q699.847 1469.47 696.745 1472.69 Q693.643 1475.88 687.995 1481.64 Z" fill="#000000" fill-rule="nonzero" fill-opacity="1" /><path clip-path="url(#clip380)" d="M1068.24 1454.1 Q1064.63 1454.1 1062.81 1457.66 Q1061 1461.2 1061 1468.33 Q1061 1475.44 1062.81 1479.01 Q1064.63 1482.55 1068.24 1482.55 Q1071.88 1482.55 1073.68 1479.01 Q1075.51 1475.44 1075.51 1468.33 Q1075.51 1461.2 1073.68 1457.66 Q1071.88 1454.1 1068.24 1454.1 M1068.24 1450.39 Q1074.06 1450.39 1077.11 1455 Q1080.19 1459.58 1080.19 1468.33 Q1080.19 1477.06 1077.11 1481.67 Q1074.06 1486.25 1068.24 1486.25 Q1062.43 1486.25 1059.36 1481.67 Q1056.3 1477.06 1056.3 1468.33 Q1056.3 1459.58 1059.36 1455 Q1062.43 1450.39 1068.24 1450.39 Z" fill="#000000" fill-rule="nonzero" fill-opacity="1" /><path clip-path="url(#clip380)" d="M1088.41 1479.7 L1093.29 1479.7 L1093.29 1485.58 L1088.41 1485.58 L1088.41 1479.7 Z" fill="#000000" fill-rule="nonzero" fill-opacity="1" /><path clip-path="url(#clip380)" d="M1116.32 1455.09 L1104.52 1473.54 L1116.32 1473.54 L1116.32 1455.09 M1115.1 1451.02 L1120.98 1451.02 L1120.98 1473.54 L1125.91 1473.54 L1125.91 1477.43 L1120.98 1477.43 L1120.98 1485.58 L1116.32 1485.58 L1116.32 1477.43 L1100.72 1477.43 L1100.72 1472.92 L1115.1 1451.02 Z" fill="#000000" fill-rule="nonzero" fill-opacity="1" /><path clip-path="url(#clip380)" d="M1488.96 1454.1 Q1485.35 1454.1 1483.52 1457.66 Q1481.71 1461.2 1481.71 1468.33 Q1481.71 1475.44 1483.52 1479.01 Q1485.35 1482.55 1488.96 1482.55 Q1492.59 1482.55 1494.4 1479.01 Q1496.23 1475.44 1496.23 1468.33 Q1496.23 1461.2 1494.4 1457.66 Q1492.59 1454.1 1488.96 1454.1 M1488.96 1450.39 Q1494.77 1450.39 1497.82 1455 Q1500.9 1459.58 1500.9 1468.33 Q1500.9 1477.06 1497.82 1481.67 Q1494.77 1486.25 1488.96 1486.25 Q1483.15 1486.25 1480.07 1481.67 Q1477.01 1477.06 1477.01 1468.33 Q1477.01 1459.58 1480.07 1455 Q1483.15 1450.39 1488.96 1450.39 Z" fill="#000000" fill-rule="nonzero" fill-opacity="1" /><path clip-path="url(#clip380)" d="M1509.12 1479.7 L1514 1479.7 L1514 1485.58 L1509.12 1485.58 L1509.12 1479.7 Z" fill="#000000" fill-rule="nonzero" fill-opacity="1" /><path clip-path="url(#clip380)" d="M1534.77 1466.44 Q1531.62 1466.44 1529.77 1468.59 Q1527.94 1470.74 1527.94 1474.49 Q1527.94 1478.22 1529.77 1480.39 Q1531.62 1482.55 1534.77 1482.55 Q1537.92 1482.55 1539.74 1480.39 Q1541.6 1478.22 1541.6 1474.49 Q1541.6 1470.74 1539.74 1468.59 Q1537.92 1466.44 1534.77 1466.44 M1544.05 1451.78 L1544.05 1456.04 Q1542.29 1455.21 1540.49 1454.77 Q1538.7 1454.33 1536.94 1454.33 Q1532.31 1454.33 1529.86 1457.45 Q1527.43 1460.58 1527.08 1466.9 Q1528.45 1464.89 1530.51 1463.82 Q1532.57 1462.73 1535.05 1462.73 Q1540.25 1462.73 1543.26 1465.9 Q1546.3 1469.05 1546.3 1474.49 Q1546.3 1479.82 1543.15 1483.03 Q1540 1486.25 1534.77 1486.25 Q1528.77 1486.25 1525.6 1481.67 Q1522.43 1477.06 1522.43 1468.33 Q1522.43 1460.14 1526.32 1455.28 Q1530.21 1450.39 1536.76 1450.39 Q1538.52 1450.39 1540.3 1450.74 Q1542.11 1451.09 1544.05 1451.78 Z" fill="#000000" fill-rule="nonzero" fill-opacity="1" /><path clip-path="url(#clip380)" d="M1909.64 1454.1 Q1906.02 1454.1 1904.2 1457.66 Q1902.39 1461.2 1902.39 1468.33 Q1902.39 1475.44 1904.2 1479.01 Q1906.02 1482.55 1909.64 1482.55 Q1913.27 1482.55 1915.08 1479.01 Q1916.9 1475.44 1916.9 1468.33 Q1916.9 1461.2 1915.08 1457.66 Q1913.27 1454.1 1909.64 1454.1 M1909.64 1450.39 Q1915.45 1450.39 1918.5 1455 Q1921.58 1459.58 1921.58 1468.33 Q1921.58 1477.06 1918.5 1481.67 Q1915.45 1486.25 1909.64 1486.25 Q1903.83 1486.25 1900.75 1481.67 Q1897.69 1477.06 1897.69 1468.33 Q1897.69 1459.58 1900.75 1455 Q1903.83 1450.39 1909.64 1450.39 Z" fill="#000000" fill-rule="nonzero" fill-opacity="1" /><path clip-path="url(#clip380)" d="M1929.8 1479.7 L1934.68 1479.7 L1934.68 1485.58 L1929.8 1485.58 L1929.8 1479.7 Z" fill="#000000" fill-rule="nonzero" fill-opacity="1" /><path clip-path="url(#clip380)" d="M1954.87 1469.17 Q1951.53 1469.17 1949.61 1470.95 Q1947.71 1472.73 1947.71 1475.86 Q1947.71 1478.98 1949.61 1480.77 Q1951.53 1482.55 1954.87 1482.55 Q1958.2 1482.55 1960.12 1480.77 Q1962.04 1478.96 1962.04 1475.86 Q1962.04 1472.73 1960.12 1470.95 Q1958.22 1469.17 1954.87 1469.17 M1950.19 1467.18 Q1947.18 1466.44 1945.49 1464.38 Q1943.83 1462.32 1943.83 1459.35 Q1943.83 1455.21 1946.77 1452.8 Q1949.73 1450.39 1954.87 1450.39 Q1960.03 1450.39 1962.97 1452.8 Q1965.91 1455.21 1965.91 1459.35 Q1965.91 1462.32 1964.22 1464.38 Q1962.55 1466.44 1959.57 1467.18 Q1962.95 1467.96 1964.82 1470.26 Q1966.72 1472.55 1966.72 1475.86 Q1966.72 1480.88 1963.64 1483.57 Q1960.58 1486.25 1954.87 1486.25 Q1949.15 1486.25 1946.07 1483.57 Q1943.02 1480.88 1943.02 1475.86 Q1943.02 1472.55 1944.91 1470.26 Q1946.81 1467.96 1950.19 1467.18 M1948.48 1459.79 Q1948.48 1462.48 1950.14 1463.98 Q1951.83 1465.49 1954.87 1465.49 Q1957.88 1465.49 1959.57 1463.98 Q1961.28 1462.48 1961.28 1459.79 Q1961.28 1457.11 1959.57 1455.6 Q1957.88 1454.1 1954.87 1454.1 Q1951.83 1454.1 1950.14 1455.6 Q1948.48 1457.11 1948.48 1459.79 Z" fill="#000000" fill-rule="nonzero" fill-opacity="1" /><path clip-path="url(#clip380)" d="M2319.91 1481.64 L2327.55 1481.64 L2327.55 1455.28 L2319.24 1456.95 L2319.24 1452.69 L2327.5 1451.02 L2332.18 1451.02 L2332.18 1481.64 L2339.82 1481.64 L2339.82 1485.58 L2319.91 1485.58 L2319.91 1481.64 Z" fill="#000000" fill-rule="nonzero" fill-opacity="1" /><path clip-path="url(#clip380)" d="M2349.26 1479.7 L2354.14 1479.7 L2354.14 1485.58 L2349.26 1485.58 L2349.26 1479.7 Z" fill="#000000" fill-rule="nonzero" fill-opacity="1" /><path clip-path="url(#clip380)" d="M2374.33 1454.1 Q2370.72 1454.1 2368.89 1457.66 Q2367.08 1461.2 2367.08 1468.33 Q2367.08 1475.44 2368.89 1479.01 Q2370.72 1482.55 2374.33 1482.55 Q2377.96 1482.55 2379.77 1479.01 Q2381.6 1475.44 2381.6 1468.33 Q2381.6 1461.2 2379.77 1457.66 Q2377.96 1454.1 2374.33 1454.1 M2374.33 1450.39 Q2380.14 1450.39 2383.2 1455 Q2386.27 1459.58 2386.27 1468.33 Q2386.27 1477.06 2383.2 1481.67 Q2380.14 1486.25 2374.33 1486.25 Q2368.52 1486.25 2365.44 1481.67 Q2362.39 1477.06 2362.39 1468.33 Q2362.39 1459.58 2365.44 1455 Q2368.52 1450.39 2374.33 1450.39 Z" fill="#000000" fill-rule="nonzero" fill-opacity="1" /><path clip-path="url(#clip380)" d="M1223.27 1520.52 L1263.47 1520.52 L1263.47 1525.93 L1246.6 1525.93 L1246.6 1568.04 L1240.14 1568.04 L1240.14 1525.93 L1223.27 1525.93 L1223.27 1520.52 Z" fill="#000000" fill-rule="nonzero" fill-opacity="1" /><path clip-path="url(#clip380)" d="M1267.42 1532.4 L1273.27 1532.4 L1273.27 1568.04 L1267.42 1568.04 L1267.42 1532.4 M1267.42 1518.52 L1273.27 1518.52 L1273.27 1525.93 L1267.42 1525.93 L1267.42 1518.52 Z" fill="#000000" fill-rule="nonzero" fill-opacity="1" /><path clip-path="url(#clip380)" d="M1313.28 1539.24 Q1315.48 1535.29 1318.53 1533.41 Q1321.59 1531.54 1325.72 1531.54 Q1331.29 1531.54 1334.32 1535.45 Q1337.34 1539.33 1337.34 1546.53 L1337.34 1568.04 L1331.45 1568.04 L1331.45 1546.72 Q1331.45 1541.59 1329.64 1539.11 Q1327.83 1536.63 1324.1 1536.63 Q1319.55 1536.63 1316.91 1539.65 Q1314.27 1542.68 1314.27 1547.9 L1314.27 1568.04 L1308.38 1568.04 L1308.38 1546.72 Q1308.38 1541.56 1306.56 1539.11 Q1304.75 1536.63 1300.96 1536.63 Q1296.47 1536.63 1293.83 1539.68 Q1291.19 1542.71 1291.19 1547.9 L1291.19 1568.04 L1285.3 1568.04 L1285.3 1532.4 L1291.19 1532.4 L1291.19 1537.93 Q1293.2 1534.66 1296 1533.1 Q1298.8 1531.54 1302.65 1531.54 Q1306.53 1531.54 1309.24 1533.51 Q1311.98 1535.48 1313.28 1539.24 Z" fill="#000000" fill-rule="nonzero" fill-opacity="1" /><path clip-path="url(#clip380)" d="M1379.52 1548.76 L1379.52 1551.62 L1352.59 1551.62 Q1352.97 1557.67 1356.22 1560.85 Q1359.5 1564 1365.32 1564 Q1368.69 1564 1371.84 1563.17 Q1375.03 1562.35 1378.15 1560.69 L1378.15 1566.23 Q1375 1567.57 1371.69 1568.27 Q1368.38 1568.97 1364.97 1568.97 Q1356.44 1568.97 1351.44 1564 Q1346.48 1559.04 1346.48 1550.57 Q1346.48 1541.82 1351.19 1536.69 Q1355.93 1531.54 1363.95 1531.54 Q1371.14 1531.54 1375.31 1536.18 Q1379.52 1540.8 1379.52 1548.76 M1373.66 1547.04 Q1373.6 1542.23 1370.95 1539.37 Q1368.34 1536.5 1364.01 1536.5 Q1359.11 1536.5 1356.15 1539.27 Q1353.22 1542.04 1352.78 1547.07 L1373.66 1547.04 Z" fill="#000000" fill-rule="nonzero" fill-opacity="1" /><polyline clip-path="url(#clip380)" style="stroke:#000000; stroke-linecap:round; stroke-linejoin:round; stroke-width:4; stroke-opacity:1; fill:none" points="250.028,1423.18 250.028,47.2441 "/>
<polyline clip-path="url(#clip380)" style="stroke:#000000; stroke-linecap:round; stroke-linejoin:round; stroke-width:4; stroke-opacity:1; fill:none" points="250.028,1423.18 268.926,1423.18 "/>
<polyline clip-path="url(#clip380)" style="stroke:#000000; stroke-linecap:round; stroke-linejoin:round; stroke-width:4; stroke-opacity:1; fill:none" points="250.028,1203.11 268.926,1203.11 "/>
<polyline clip-path="url(#clip380)" style="stroke:#000000; stroke-linecap:round; stroke-linejoin:round; stroke-width:4; stroke-opacity:1; fill:none" points="250.028,983.04 268.926,983.04 "/>
<polyline clip-path="url(#clip380)" style="stroke:#000000; stroke-linecap:round; stroke-linejoin:round; stroke-width:4; stroke-opacity:1; fill:none" points="250.028,762.97 268.926,762.97 "/>
<polyline clip-path="url(#clip380)" style="stroke:#000000; stroke-linecap:round; stroke-linejoin:round; stroke-width:4; stroke-opacity:1; fill:none" points="250.028,542.9 268.926,542.9 "/>
<polyline clip-path="url(#clip380)" style="stroke:#000000; stroke-linecap:round; stroke-linejoin:round; stroke-width:4; stroke-opacity:1; fill:none" points="250.028,322.83 268.926,322.83 "/>
<polyline clip-path="url(#clip380)" style="stroke:#000000; stroke-linecap:round; stroke-linejoin:round; stroke-width:4; stroke-opacity:1; fill:none" points="250.028,102.761 268.926,102.761 "/>
<path clip-path="url(#clip380)" d="M126.691 1408.98 Q123.08 1408.98 121.251 1412.54 Q119.445 1416.08 119.445 1423.21 Q119.445 1430.32 121.251 1433.89 Q123.08 1437.43 126.691 1437.43 Q130.325 1437.43 132.13 1433.89 Q133.959 1430.32 133.959 1423.21 Q133.959 1416.08 132.13 1412.54 Q130.325 1408.98 126.691 1408.98 M126.691 1405.27 Q132.501 1405.27 135.556 1409.88 Q138.635 1414.46 138.635 1423.21 Q138.635 1431.94 135.556 1436.55 Q132.501 1441.13 126.691 1441.13 Q120.88 1441.13 117.802 1436.55 Q114.746 1431.94 114.746 1423.21 Q114.746 1414.46 117.802 1409.88 Q120.88 1405.27 126.691 1405.27 Z" fill="#000000" fill-rule="nonzero" fill-opacity="1" /><path clip-path="url(#clip380)" d="M146.853 1434.58 L151.737 1434.58 L151.737 1440.46 L146.853 1440.46 L146.853 1434.58 Z" fill="#000000" fill-rule="nonzero" fill-opacity="1" /><path clip-path="url(#clip380)" d="M171.922 1408.98 Q168.311 1408.98 166.482 1412.54 Q164.677 1416.08 164.677 1423.21 Q164.677 1430.32 166.482 1433.89 Q168.311 1437.43 171.922 1437.43 Q175.556 1437.43 177.362 1433.89 Q179.19 1430.32 179.19 1423.21 Q179.19 1416.08 177.362 1412.54 Q175.556 1408.98 171.922 1408.98 M171.922 1405.27 Q177.732 1405.27 180.788 1409.88 Q183.866 1414.46 183.866 1423.21 Q183.866 1431.94 180.788 1436.55 Q177.732 1441.13 171.922 1441.13 Q166.112 1441.13 163.033 1436.55 Q159.978 1431.94 159.978 1423.21 Q159.978 1414.46 163.033 1409.88 Q166.112 1405.27 171.922 1405.27 Z" fill="#000000" fill-rule="nonzero" fill-opacity="1" /><path clip-path="url(#clip380)" d="M202.084 1408.98 Q198.473 1408.98 196.644 1412.54 Q194.838 1416.08 194.838 1423.21 Q194.838 1430.32 196.644 1433.89 Q198.473 1437.43 202.084 1437.43 Q205.718 1437.43 207.524 1433.89 Q209.352 1430.32 209.352 1423.21 Q209.352 1416.08 207.524 1412.54 Q205.718 1408.98 202.084 1408.98 M202.084 1405.27 Q207.894 1405.27 210.949 1409.88 Q214.028 1414.46 214.028 1423.21 Q214.028 1431.94 210.949 1436.55 Q207.894 1441.13 202.084 1441.13 Q196.274 1441.13 193.195 1436.55 Q190.139 1431.94 190.139 1423.21 Q190.139 1414.46 193.195 1409.88 Q196.274 1405.27 202.084 1405.27 Z" fill="#000000" fill-rule="nonzero" fill-opacity="1" /><path clip-path="url(#clip380)" d="M127.917 1188.91 Q124.306 1188.91 122.478 1192.47 Q120.672 1196.02 120.672 1203.14 Q120.672 1210.25 122.478 1213.82 Q124.306 1217.36 127.917 1217.36 Q131.552 1217.36 133.357 1213.82 Q135.186 1210.25 135.186 1203.14 Q135.186 1196.02 133.357 1192.47 Q131.552 1188.91 127.917 1188.91 M127.917 1185.2 Q133.728 1185.2 136.783 1189.81 Q139.862 1194.39 139.862 1203.14 Q139.862 1211.87 136.783 1216.48 Q133.728 1221.06 127.917 1221.06 Q122.107 1221.06 119.029 1216.48 Q115.973 1211.87 115.973 1203.14 Q115.973 1194.39 119.029 1189.81 Q122.107 1185.2 127.917 1185.2 Z" fill="#000000" fill-rule="nonzero" fill-opacity="1" /><path clip-path="url(#clip380)" d="M148.079 1214.51 L152.964 1214.51 L152.964 1220.39 L148.079 1220.39 L148.079 1214.51 Z" fill="#000000" fill-rule="nonzero" fill-opacity="1" /><path clip-path="url(#clip380)" d="M173.149 1188.91 Q169.538 1188.91 167.709 1192.47 Q165.903 1196.02 165.903 1203.14 Q165.903 1210.25 167.709 1213.82 Q169.538 1217.36 173.149 1217.36 Q176.783 1217.36 178.589 1213.82 Q180.417 1210.25 180.417 1203.14 Q180.417 1196.02 178.589 1192.47 Q176.783 1188.91 173.149 1188.91 M173.149 1185.2 Q178.959 1185.2 182.014 1189.81 Q185.093 1194.39 185.093 1203.14 Q185.093 1211.87 182.014 1216.48 Q178.959 1221.06 173.149 1221.06 Q167.339 1221.06 164.26 1216.48 Q161.204 1211.87 161.204 1203.14 Q161.204 1194.39 164.26 1189.81 Q167.339 1185.2 173.149 1185.2 Z" fill="#000000" fill-rule="nonzero" fill-opacity="1" /><path clip-path="url(#clip380)" d="M194.121 1216.45 L201.76 1216.45 L201.76 1190.09 L193.45 1191.76 L193.45 1187.5 L201.713 1185.83 L206.389 1185.83 L206.389 1216.45 L214.028 1216.45 L214.028 1220.39 L194.121 1220.39 L194.121 1216.45 Z" fill="#000000" fill-rule="nonzero" fill-opacity="1" /><path clip-path="url(#clip380)" d="M128.288 968.839 Q124.677 968.839 122.848 972.404 Q121.043 975.945 121.043 983.075 Q121.043 990.181 122.848 993.746 Q124.677 997.288 128.288 997.288 Q131.922 997.288 133.728 993.746 Q135.556 990.181 135.556 983.075 Q135.556 975.945 133.728 972.404 Q131.922 968.839 128.288 968.839 M128.288 965.135 Q134.098 965.135 137.154 969.742 Q140.232 974.325 140.232 983.075 Q140.232 991.802 137.154 996.408 Q134.098 1000.99 128.288 1000.99 Q122.478 1000.99 119.399 996.408 Q116.343 991.802 116.343 983.075 Q116.343 974.325 119.399 969.742 Q122.478 965.135 128.288 965.135 Z" fill="#000000" fill-rule="nonzero" fill-opacity="1" /><path clip-path="url(#clip380)" d="M148.45 994.44 L153.334 994.44 L153.334 1000.32 L148.45 1000.32 L148.45 994.44 Z" fill="#000000" fill-rule="nonzero" fill-opacity="1" /><path clip-path="url(#clip380)" d="M173.519 968.839 Q169.908 968.839 168.079 972.404 Q166.274 975.945 166.274 983.075 Q166.274 990.181 168.079 993.746 Q169.908 997.288 173.519 997.288 Q177.153 997.288 178.959 993.746 Q180.788 990.181 180.788 983.075 Q180.788 975.945 178.959 972.404 Q177.153 968.839 173.519 968.839 M173.519 965.135 Q179.329 965.135 182.385 969.742 Q185.463 974.325 185.463 983.075 Q185.463 991.802 182.385 996.408 Q179.329 1000.99 173.519 1000.99 Q167.709 1000.99 164.63 996.408 Q161.575 991.802 161.575 983.075 Q161.575 974.325 164.63 969.742 Q167.709 965.135 173.519 965.135 Z" fill="#000000" fill-rule="nonzero" fill-opacity="1" /><path clip-path="url(#clip380)" d="M197.709 996.385 L214.028 996.385 L214.028 1000.32 L192.084 1000.32 L192.084 996.385 Q194.746 993.63 199.329 989.001 Q203.936 984.348 205.116 983.005 Q207.362 980.482 208.241 978.746 Q209.144 976.987 209.144 975.297 Q209.144 972.542 207.199 970.806 Q205.278 969.07 202.176 969.07 Q199.977 969.07 197.524 969.834 Q195.093 970.598 192.315 972.149 L192.315 967.427 Q195.139 966.292 197.593 965.714 Q200.047 965.135 202.084 965.135 Q207.454 965.135 210.649 967.82 Q213.843 970.505 213.843 974.996 Q213.843 977.126 213.033 979.047 Q212.246 980.945 210.139 983.538 Q209.561 984.209 206.459 987.427 Q203.357 990.621 197.709 996.385 Z" fill="#000000" fill-rule="nonzero" fill-opacity="1" /><path clip-path="url(#clip380)" d="M127.339 748.769 Q123.728 748.769 121.899 752.334 Q120.093 755.875 120.093 763.005 Q120.093 770.111 121.899 773.676 Q123.728 777.218 127.339 777.218 Q130.973 777.218 132.779 773.676 Q134.607 770.111 134.607 763.005 Q134.607 755.875 132.779 752.334 Q130.973 748.769 127.339 748.769 M127.339 745.065 Q133.149 745.065 136.204 749.672 Q139.283 754.255 139.283 763.005 Q139.283 771.732 136.204 776.338 Q133.149 780.922 127.339 780.922 Q121.529 780.922 118.45 776.338 Q115.394 771.732 115.394 763.005 Q115.394 754.255 118.45 749.672 Q121.529 745.065 127.339 745.065 Z" fill="#000000" fill-rule="nonzero" fill-opacity="1" /><path clip-path="url(#clip380)" d="M147.501 774.371 L152.385 774.371 L152.385 780.25 L147.501 780.25 L147.501 774.371 Z" fill="#000000" fill-rule="nonzero" fill-opacity="1" /><path clip-path="url(#clip380)" d="M172.57 748.769 Q168.959 748.769 167.13 752.334 Q165.325 755.875 165.325 763.005 Q165.325 770.111 167.13 773.676 Q168.959 777.218 172.57 777.218 Q176.204 777.218 178.01 773.676 Q179.839 770.111 179.839 763.005 Q179.839 755.875 178.01 752.334 Q176.204 748.769 172.57 748.769 M172.57 745.065 Q178.38 745.065 181.436 749.672 Q184.514 754.255 184.514 763.005 Q184.514 771.732 181.436 776.338 Q178.38 780.922 172.57 780.922 Q166.76 780.922 163.681 776.338 Q160.626 771.732 160.626 763.005 Q160.626 754.255 163.681 749.672 Q166.76 745.065 172.57 745.065 Z" fill="#000000" fill-rule="nonzero" fill-opacity="1" /><path clip-path="url(#clip380)" d="M206.899 761.616 Q210.255 762.334 212.13 764.602 Q214.028 766.871 214.028 770.204 Q214.028 775.32 210.51 778.121 Q206.991 780.922 200.51 780.922 Q198.334 780.922 196.019 780.482 Q193.727 780.065 191.274 779.209 L191.274 774.695 Q193.218 775.829 195.533 776.408 Q197.848 776.986 200.371 776.986 Q204.769 776.986 207.061 775.25 Q209.375 773.514 209.375 770.204 Q209.375 767.148 207.223 765.435 Q205.093 763.699 201.274 763.699 L197.246 763.699 L197.246 759.857 L201.459 759.857 Q204.908 759.857 206.737 758.491 Q208.565 757.102 208.565 754.51 Q208.565 751.848 206.667 750.436 Q204.792 749 201.274 749 Q199.352 749 197.153 749.417 Q194.954 749.834 192.315 750.713 L192.315 746.547 Q194.977 745.806 197.292 745.436 Q199.63 745.065 201.69 745.065 Q207.014 745.065 210.116 747.496 Q213.218 749.903 213.218 754.024 Q213.218 756.894 211.574 758.885 Q209.931 760.852 206.899 761.616 Z" fill="#000000" fill-rule="nonzero" fill-opacity="1" /><path clip-path="url(#clip380)" d="M126.205 528.699 Q122.593 528.699 120.765 532.264 Q118.959 535.805 118.959 542.935 Q118.959 550.042 120.765 553.606 Q122.593 557.148 126.205 557.148 Q129.839 557.148 131.644 553.606 Q133.473 550.042 133.473 542.935 Q133.473 535.805 131.644 532.264 Q129.839 528.699 126.205 528.699 M126.205 524.995 Q132.015 524.995 135.07 529.602 Q138.149 534.185 138.149 542.935 Q138.149 551.662 135.07 556.268 Q132.015 560.852 126.205 560.852 Q120.394 560.852 117.316 556.268 Q114.26 551.662 114.26 542.935 Q114.26 534.185 117.316 529.602 Q120.394 524.995 126.205 524.995 Z" fill="#000000" fill-rule="nonzero" fill-opacity="1" /><path clip-path="url(#clip380)" d="M146.366 554.301 L151.251 554.301 L151.251 560.18 L146.366 560.18 L146.366 554.301 Z" fill="#000000" fill-rule="nonzero" fill-opacity="1" /><path clip-path="url(#clip380)" d="M171.436 528.699 Q167.825 528.699 165.996 532.264 Q164.19 535.805 164.19 542.935 Q164.19 550.042 165.996 553.606 Q167.825 557.148 171.436 557.148 Q175.07 557.148 176.876 553.606 Q178.704 550.042 178.704 542.935 Q178.704 535.805 176.876 532.264 Q175.07 528.699 171.436 528.699 M171.436 524.995 Q177.246 524.995 180.301 529.602 Q183.38 534.185 183.38 542.935 Q183.38 551.662 180.301 556.268 Q177.246 560.852 171.436 560.852 Q165.626 560.852 162.547 556.268 Q159.491 551.662 159.491 542.935 Q159.491 534.185 162.547 529.602 Q165.626 524.995 171.436 524.995 Z" fill="#000000" fill-rule="nonzero" fill-opacity="1" /><path clip-path="url(#clip380)" d="M204.445 529.694 L192.639 548.143 L204.445 548.143 L204.445 529.694 M203.218 525.62 L209.098 525.62 L209.098 548.143 L214.028 548.143 L214.028 552.032 L209.098 552.032 L209.098 560.18 L204.445 560.18 L204.445 552.032 L188.843 552.032 L188.843 547.518 L203.218 525.62 Z" fill="#000000" fill-rule="nonzero" fill-opacity="1" /><path clip-path="url(#clip380)" d="M127.686 308.629 Q124.075 308.629 122.246 312.194 Q120.441 315.736 120.441 322.865 Q120.441 329.972 122.246 333.536 Q124.075 337.078 127.686 337.078 Q131.32 337.078 133.126 333.536 Q134.954 329.972 134.954 322.865 Q134.954 315.736 133.126 312.194 Q131.32 308.629 127.686 308.629 M127.686 304.925 Q133.496 304.925 136.552 309.532 Q139.63 314.115 139.63 322.865 Q139.63 331.592 136.552 336.198 Q133.496 340.782 127.686 340.782 Q121.876 340.782 118.797 336.198 Q115.742 331.592 115.742 322.865 Q115.742 314.115 118.797 309.532 Q121.876 304.925 127.686 304.925 Z" fill="#000000" fill-rule="nonzero" fill-opacity="1" /><path clip-path="url(#clip380)" d="M147.848 334.231 L152.732 334.231 L152.732 340.11 L147.848 340.11 L147.848 334.231 Z" fill="#000000" fill-rule="nonzero" fill-opacity="1" /><path clip-path="url(#clip380)" d="M172.917 308.629 Q169.306 308.629 167.477 312.194 Q165.672 315.736 165.672 322.865 Q165.672 329.972 167.477 333.536 Q169.306 337.078 172.917 337.078 Q176.551 337.078 178.357 333.536 Q180.186 329.972 180.186 322.865 Q180.186 315.736 178.357 312.194 Q176.551 308.629 172.917 308.629 M172.917 304.925 Q178.727 304.925 181.783 309.532 Q184.862 314.115 184.862 322.865 Q184.862 331.592 181.783 336.198 Q178.727 340.782 172.917 340.782 Q167.107 340.782 164.028 336.198 Q160.973 331.592 160.973 322.865 Q160.973 314.115 164.028 309.532 Q167.107 304.925 172.917 304.925 Z" fill="#000000" fill-rule="nonzero" fill-opacity="1" /><path clip-path="url(#clip380)" d="M193.125 305.55 L211.482 305.55 L211.482 309.486 L197.408 309.486 L197.408 317.958 Q198.426 317.611 199.445 317.449 Q200.463 317.263 201.482 317.263 Q207.269 317.263 210.649 320.435 Q214.028 323.606 214.028 329.023 Q214.028 334.601 210.556 337.703 Q207.084 340.782 200.764 340.782 Q198.588 340.782 196.32 340.411 Q194.075 340.041 191.667 339.3 L191.667 334.601 Q193.75 335.735 195.973 336.291 Q198.195 336.847 200.672 336.847 Q204.676 336.847 207.014 334.74 Q209.352 332.634 209.352 329.023 Q209.352 325.411 207.014 323.305 Q204.676 321.199 200.672 321.199 Q198.797 321.199 196.922 321.615 Q195.07 322.032 193.125 322.911 L193.125 305.55 Z" fill="#000000" fill-rule="nonzero" fill-opacity="1" /><path clip-path="url(#clip380)" d="M126.529 88.5593 Q122.918 88.5593 121.089 92.1241 Q119.283 95.6657 119.283 102.795 Q119.283 109.902 121.089 113.467 Q122.918 117.008 126.529 117.008 Q130.163 117.008 131.968 113.467 Q133.797 109.902 133.797 102.795 Q133.797 95.6657 131.968 92.1241 Q130.163 88.5593 126.529 88.5593 M126.529 84.8556 Q132.339 84.8556 135.394 89.4621 Q138.473 94.0454 138.473 102.795 Q138.473 111.522 135.394 116.129 Q132.339 120.712 126.529 120.712 Q120.718 120.712 117.64 116.129 Q114.584 111.522 114.584 102.795 Q114.584 94.0454 117.64 89.4621 Q120.718 84.8556 126.529 84.8556 Z" fill="#000000" fill-rule="nonzero" fill-opacity="1" /><path clip-path="url(#clip380)" d="M146.691 114.161 L151.575 114.161 L151.575 120.041 L146.691 120.041 L146.691 114.161 Z" fill="#000000" fill-rule="nonzero" fill-opacity="1" /><path clip-path="url(#clip380)" d="M171.76 88.5593 Q168.149 88.5593 166.32 92.1241 Q164.515 95.6657 164.515 102.795 Q164.515 109.902 166.32 113.467 Q168.149 117.008 171.76 117.008 Q175.394 117.008 177.2 113.467 Q179.028 109.902 179.028 102.795 Q179.028 95.6657 177.2 92.1241 Q175.394 88.5593 171.76 88.5593 M171.76 84.8556 Q177.57 84.8556 180.626 89.4621 Q183.704 94.0454 183.704 102.795 Q183.704 111.522 180.626 116.129 Q177.57 120.712 171.76 120.712 Q165.95 120.712 162.871 116.129 Q159.815 111.522 159.815 102.795 Q159.815 94.0454 162.871 89.4621 Q165.95 84.8556 171.76 84.8556 Z" fill="#000000" fill-rule="nonzero" fill-opacity="1" /><path clip-path="url(#clip380)" d="M202.5 100.897 Q199.352 100.897 197.5 103.05 Q195.672 105.203 195.672 108.953 Q195.672 112.68 197.5 114.855 Q199.352 117.008 202.5 117.008 Q205.649 117.008 207.477 114.855 Q209.329 112.68 209.329 108.953 Q209.329 105.203 207.477 103.05 Q205.649 100.897 202.5 100.897 M211.783 86.2445 L211.783 90.5037 Q210.024 89.6704 208.218 89.2306 Q206.436 88.7908 204.676 88.7908 Q200.047 88.7908 197.593 91.9158 Q195.163 95.0407 194.815 101.36 Q196.181 99.3463 198.241 98.2815 Q200.301 97.1935 202.778 97.1935 Q207.987 97.1935 210.996 100.365 Q214.028 103.513 214.028 108.953 Q214.028 114.277 210.88 117.494 Q207.732 120.712 202.5 120.712 Q196.505 120.712 193.334 116.129 Q190.163 111.522 190.163 102.795 Q190.163 94.6009 194.051 89.7398 Q197.94 84.8556 204.491 84.8556 Q206.25 84.8556 208.033 85.2028 Q209.838 85.55 211.783 86.2445 Z" fill="#000000" fill-rule="nonzero" fill-opacity="1" /><path clip-path="url(#clip380)" d="M41.7242 776.939 Q42.4244 774.87 44.7161 772.929 Q47.0077 770.955 51.0181 768.982 L64.0042 762.457 L64.0042 769.364 L51.8138 775.443 Q47.0395 777.799 45.48 780.027 Q43.9204 782.223 43.9204 786.042 L43.9204 793.044 L64.0042 793.044 L64.0042 799.474 L16.4842 799.474 L16.4842 784.96 Q16.4842 776.812 19.8898 772.801 Q23.2955 768.791 30.1704 768.791 Q34.6582 768.791 37.6183 770.892 Q40.5784 772.961 41.7242 776.939 M21.7677 793.044 L38.6368 793.044 L38.6368 784.96 Q38.6368 780.313 36.5043 777.958 Q34.34 775.571 30.1704 775.571 Q26.0009 775.571 23.9002 777.958 Q21.7677 780.313 21.7677 784.96 L21.7677 793.044 Z" fill="#000000" fill-rule="nonzero" fill-opacity="1" /><path clip-path="url(#clip380)" d="M28.3562 754.436 L28.3562 748.58 L64.0042 748.58 L64.0042 754.436 L28.3562 754.436 M14.479 754.436 L14.479 748.58 L21.895 748.58 L21.895 754.436 L14.479 754.436 Z" fill="#000000" fill-rule="nonzero" fill-opacity="1" /><path clip-path="url(#clip380)" d="M29.4065 713.6 L34.9447 713.6 Q33.6716 716.083 33.035 718.757 Q32.3984 721.43 32.3984 724.295 Q32.3984 728.655 33.7352 730.851 Q35.072 733.016 37.7456 733.016 Q39.7826 733.016 40.9603 731.456 Q42.1061 729.897 43.1565 725.186 L43.6021 723.181 Q44.9389 716.942 47.3897 714.332 Q49.8086 711.691 54.1691 711.691 Q59.1344 711.691 62.0308 715.637 Q64.9272 719.552 64.9272 726.427 Q64.9272 729.292 64.3543 732.411 Q63.8132 735.498 62.6992 738.936 L56.6518 738.936 Q58.3387 735.689 59.198 732.538 Q60.0256 729.387 60.0256 726.3 Q60.0256 722.162 58.6251 719.934 Q57.1929 717.706 54.6147 717.706 Q52.2276 717.706 50.9545 719.33 Q49.6813 720.921 48.5037 726.364 L48.0262 728.401 Q46.8804 733.843 44.5251 736.262 Q42.138 738.681 38.0002 738.681 Q32.9713 738.681 30.2341 735.116 Q27.4968 731.552 27.4968 724.995 Q27.4968 721.748 27.9743 718.884 Q28.4517 716.019 29.4065 713.6 Z" fill="#000000" fill-rule="nonzero" fill-opacity="1" /><path clip-path="url(#clip380)" d="M14.479 702.588 L14.479 696.699 L43.7294 696.699 L28.3562 679.226 L28.3562 671.746 L45.0344 690.652 L64.0042 670.95 L64.0042 678.589 L46.5939 696.699 L64.0042 696.699 L64.0042 702.588 L14.479 702.588 Z" fill="#000000" fill-rule="nonzero" fill-opacity="1" /><polyline clip-path="url(#clip382)" style="stroke:#009af9; stroke-linecap:round; stroke-linejoin:round; stroke-width:4; stroke-opacity:1; fill:none" points="250.028,1423.18 254.628,1423.18 254.628,1399.66 257.992,1399.66 257.992,1343.91 261.357,1343.91 273.343,1343.91 286.59,1343.91 286.59,1324.82 303.412,1324.82 310.561,1324.82 310.561,1316.81 312.664,1316.81 375.116,1316.81 375.116,1277.41 378.27,1277.41 378.27,1261.48 405.816,1261.48 405.816,1249.84 437.568,1249.84 437.568,1209.5 447.661,1209.5 447.661,1185.12 456.703,1185.12 475.628,1185.12 475.628,1183.02 497.706,1183.02 519.365,1183.02 519.365,1149.08 526.094,1149.08 540.603,1149.08 544.598,1149.08 544.598,1143.92 553.429,1143.92 553.429,1106.83 564.574,1106.83 589.176,1106.83 589.176,1094.79 591.91,1094.79 621.559,1094.79 621.559,1079.06 624.713,1079.06 624.713,1071.23 638.17,1071.23 638.17,1039.34 669.291,1039.34 685.272,1039.34 694.524,1039.34 694.524,1014.05 699.361,1014.05 699.361,987.425 706.72,987.425 706.72,975.587 717.654,975.587 717.654,973.567 724.173,973.567 724.173,949.191 787.676,949.191 819.638,949.191 837.722,949.191 866.109,949.191 866.109,908.505 889.87,908.505 891.552,908.505 891.552,866.756 939.495,866.756 980.919,866.756 980.919,843.437 983.232,843.437 983.232,816.91 1004.05,816.91 1004.05,799.255 1016.88,799.255 1029.49,799.255 1035.38,799.255 1036.01,799.255 1043.79,799.255 1045.89,799.255 1047.58,799.255 1085.22,799.255 1085.22,767.968 1091.94,767.968 1091.94,730.526 1101.41,730.526 1101.41,689.5 1139.26,689.5 1148.3,689.5 1148.3,685.946 1167.43,685.946 1168.27,685.946 1185.73,685.946 1212.64,685.946 1212.64,660.967 1224.84,660.967 1267.31,660.967 1267.31,659.951 1298.65,659.951 1321.14,659.951 1321.14,647.248 1342.59,647.248 1342.59,624.582 1356.26,624.582 1357.1,624.582 1369.51,624.582 1379.18,624.582 1396.21,624.582 1402.31,624.582 1409.67,624.582 1409.67,623.464 1423.76,623.464 1469.39,623.464 1469.39,604.699 1473.38,604.699 1473.38,575.54 1521.33,575.54 1521.33,565.842 1522.17,565.842 1522.17,528.498 1541.3,528.498 1541.3,511.252 1554.97,511.252 1558.76,511.252 1596.19,511.252 1596.19,471.06 1614.69,471.06 1675.67,471.06 1699.01,471.06 1699.01,462.148 1702.58,462.148 1723.4,462.148 1723.4,462.089 1733.07,462.089 1742.54,462.089 1765.25,462.089 1791.11,462.089 1799.31,462.089 1799.31,440.343 1801.83,440.343 1811.51,440.343 1864.5,440.343 1877.95,440.343 1921.48,440.343 1927.16,440.343 1928,440.343 1928,408.591 1947.34,408.591 1947.34,381.917 1963.75,381.917 1963.75,379.432 1968.79,379.432 1968.79,373.222 1997.18,373.222 2013.37,373.222 2052.48,373.222 2052.48,364.155 2153.2,364.155 2153.2,342.267 2182.22,342.267 2182.22,335.026 2352.76,335.026 "/>
<polyline clip-path="url(#clip382)" style="stroke:#e26f46; stroke-linecap:round; stroke-linejoin:round; stroke-width:4; stroke-opacity:1; fill:none" points="250.028,1423.18 254.628,1423.18 257.992,1423.18 261.357,1423.18 261.357,1290.95 273.343,1290.95 273.343,1272.75 286.59,1272.75 303.412,1272.75 303.412,1234.1 310.561,1234.1 312.664,1234.1 312.664,1230.24 375.116,1230.24 378.27,1230.24 405.816,1230.24 437.568,1230.24 447.661,1230.24 456.703,1230.24 456.703,1190.59 475.628,1190.59 497.706,1190.59 497.706,1172.77 519.365,1172.77 526.094,1172.77 526.094,1154.92 540.603,1154.92 540.603,1144.28 544.598,1144.28 553.429,1144.28 564.574,1144.28 564.574,1121.4 589.176,1121.4 591.91,1121.4 591.91,1109.45 621.559,1109.45 624.713,1109.45 638.17,1109.45 669.291,1109.45 669.291,1085 685.272,1085 685.272,1072.54 694.524,1072.54 699.361,1072.54 706.72,1072.54 717.654,1072.54 724.173,1072.54 787.676,1072.54 787.676,1046.28 819.638,1046.28 819.638,1030.06 837.722,1030.06 837.722,1021.95 866.109,1021.95 889.87,1021.95 889.87,1006.38 891.552,1006.38 939.495,1006.38 939.495,993.738 980.919,993.738 983.232,993.738 1004.05,993.738 1016.88,993.738 1016.88,952.84 1029.49,952.84 1029.49,910.56 1035.38,910.56 1035.38,880.709 1036.01,880.709 1036.01,846.014 1043.79,846.014 1043.79,816.632 1045.89,816.632 1045.89,790.83 1047.58,790.83 1047.58,763.158 1085.22,763.158 1091.94,763.158 1101.41,763.158 1139.26,763.158 1139.26,723.134 1148.3,723.134 1167.43,723.134 1167.43,705.075 1168.27,705.075 1168.27,700.842 1185.73,700.842 1185.73,670.803 1212.64,670.803 1224.84,670.803 1224.84,636.294 1267.31,636.294 1298.65,636.294 1298.65,597.983 1321.14,597.983 1342.59,597.983 1356.26,597.983 1356.26,597.29 1357.1,597.29 1357.1,590.213 1369.51,590.213 1369.51,551.66 1379.18,551.66 1379.18,547.298 1396.21,547.298 1396.21,507.484 1402.31,507.484 1402.31,471.012 1409.67,471.012 1423.76,471.012 1423.76,461.458 1469.39,461.458 1473.38,461.458 1521.33,461.458 1522.17,461.458 1541.3,461.458 1554.97,461.458 1554.97,455.67 1558.76,455.67 1558.76,452.123 1596.19,452.123 1614.69,452.123 1614.69,444.318 1675.67,444.318 1675.67,407.571 1699.01,407.571 1702.58,407.571 1702.58,383.151 1723.4,383.151 1733.07,383.151 1733.07,373.294 1742.54,373.294 1742.54,332.401 1765.25,332.401 1765.25,294.072 1791.11,294.072 1791.11,269.567 1799.31,269.567 1801.83,269.567 1801.83,236.044 1811.51,236.044 1811.51,218.382 1864.5,218.382 1864.5,208.472 1877.95,208.472 1877.95,194.094 1921.48,194.094 1921.48,157.432 1927.16,157.432 1927.16,115.479 1928,115.479 1947.34,115.479 1963.75,115.479 1968.79,115.479 1997.18,115.479 1997.18,90.3738 2013.37,90.3738 2013.37,47.2441 2052.48,47.2441 2153.2,47.2441 2182.22,47.2441 2352.76,47.2441 "/>
<path clip-path="url(#clip380)" d="M320.119 248.629 L599.165 248.629 L599.165 93.1086 L320.119 93.1086  Z" fill="#ffffff" fill-rule="evenodd" fill-opacity="1"/>
<polyline clip-path="url(#clip380)" style="stroke:#000000; stroke-linecap:round; stroke-linejoin:round; stroke-width:4; stroke-opacity:1; fill:none" points="320.119,248.629 599.165,248.629 599.165,93.1086 320.119,93.1086 320.119,248.629 "/>
<polyline clip-path="url(#clip380)" style="stroke:#009af9; stroke-linecap:round; stroke-linejoin:round; stroke-width:4; stroke-opacity:1; fill:none" points="343.483,144.949 483.665,144.949 "/>
<path clip-path="url(#clip380)" d="M507.699 158.293 L515.338 158.293 L515.338 131.928 L507.028 133.595 L507.028 129.335 L515.292 127.669 L519.968 127.669 L519.968 158.293 L527.607 158.293 L527.607 162.229 L507.699 162.229 L507.699 158.293 Z" fill="#000000" fill-rule="nonzero" fill-opacity="1" /><path clip-path="url(#clip380)" d="M537.051 156.349 L541.935 156.349 L541.935 162.229 L537.051 162.229 L537.051 156.349 Z" fill="#000000" fill-rule="nonzero" fill-opacity="1" /><path clip-path="url(#clip380)" d="M562.12 130.747 Q558.509 130.747 556.681 134.312 Q554.875 137.854 554.875 144.983 Q554.875 152.09 556.681 155.655 Q558.509 159.196 562.12 159.196 Q565.755 159.196 567.56 155.655 Q569.389 152.09 569.389 144.983 Q569.389 137.854 567.56 134.312 Q565.755 130.747 562.12 130.747 M562.12 127.044 Q567.931 127.044 570.986 131.65 Q574.065 136.233 574.065 144.983 Q574.065 153.71 570.986 158.317 Q567.931 162.9 562.12 162.9 Q556.31 162.9 553.232 158.317 Q550.176 153.71 550.176 144.983 Q550.176 136.233 553.232 131.65 Q556.31 127.044 562.12 127.044 Z" fill="#000000" fill-rule="nonzero" fill-opacity="1" /><polyline clip-path="url(#clip380)" style="stroke:#e26f46; stroke-linecap:round; stroke-linejoin:round; stroke-width:4; stroke-opacity:1; fill:none" points="343.483,196.789 483.665,196.789 "/>
<path clip-path="url(#clip380)" d="M512.653 210.133 L528.973 210.133 L528.973 214.069 L507.028 214.069 L507.028 210.133 Q509.69 207.379 514.274 202.749 Q518.88 198.096 520.061 196.754 Q522.306 194.231 523.186 192.495 Q524.088 190.735 524.088 189.046 Q524.088 186.291 522.144 184.555 Q520.223 182.819 517.121 182.819 Q514.922 182.819 512.468 183.583 Q510.037 184.347 507.26 185.897 L507.26 181.175 Q510.084 180.041 512.537 179.462 Q514.991 178.884 517.028 178.884 Q522.398 178.884 525.593 181.569 Q528.787 184.254 528.787 188.745 Q528.787 190.874 527.977 192.796 Q527.19 194.694 525.084 197.286 Q524.505 197.958 521.403 201.175 Q518.301 204.37 512.653 210.133 Z" fill="#000000" fill-rule="nonzero" fill-opacity="1" /><path clip-path="url(#clip380)" d="M538.787 208.189 L543.672 208.189 L543.672 214.069 L538.787 214.069 L538.787 208.189 Z" fill="#000000" fill-rule="nonzero" fill-opacity="1" /><path clip-path="url(#clip380)" d="M563.857 182.587 Q560.246 182.587 558.417 186.152 Q556.611 189.694 556.611 196.823 Q556.611 203.93 558.417 207.495 Q560.246 211.036 563.857 211.036 Q567.491 211.036 569.296 207.495 Q571.125 203.93 571.125 196.823 Q571.125 189.694 569.296 186.152 Q567.491 182.587 563.857 182.587 M563.857 178.884 Q569.667 178.884 572.722 183.49 Q575.801 188.073 575.801 196.823 Q575.801 205.55 572.722 210.157 Q569.667 214.74 563.857 214.74 Q558.046 214.74 554.968 210.157 Q551.912 205.55 551.912 196.823 Q551.912 188.073 554.968 183.49 Q558.046 178.884 563.857 178.884 Z" fill="#000000" fill-rule="nonzero" fill-opacity="1" /></svg>
