<?xml version="1.0" encoding="utf-8"?>
<svg xmlns="http://www.w3.org/2000/svg" xmlns:xlink="http://www.w3.org/1999/xlink" width="600" height="400" viewBox="0 0 2400 1600">
<defs>
  <clipPath id="clip700">
    <rect x="0" y="0" width="2400" height="1600"/>
  </clipPath>
</defs>
<path clip-path="url(#clip700)" d="M0 1600 L2400 1600 L2400 0 L0 0  Z" fill="#ffffff" fill-rule="evenodd" fill-opacity="1"/>
<defs>
  <clipPath id="clip701">
    <rect x="480" y="0" width="1681" height="1600"/>
  </clipPath>
</defs>
<path clip-path="url(#clip700)" d="M287.366 1423.18 L2352.76 1423.18 L2352.76 123.472 L287.366 123.472  Z" fill="#ffffff" fill-rule="evenodd" fill-opacity="1"/>
<defs>
  <clipPath id="clip702">
    <rect x="287" y="123" width="2066" height="1301"/>
  </clipPath>
</defs>
<polyline clip-path="url(#clip700)" style="stroke:#000000; stroke-linecap:round; stroke-linejoin:round; stroke-width:4; stroke-opacity:1; fill:none" points="287.366,1423.18 2352.76,1423.18 "/>
<polyline clip-path="url(#clip700)" style="stroke:#000000; stroke-linecap:round; stroke-linejoin:round; stroke-width:4; stroke-opacity:1; fill:none" points="326.139,1423.18 326.139,1404.28 "/>
<polyline clip-path="url(#clip700)" style="stroke:#000000; stroke-linecap:round; stroke-linejoin:round; stroke-width:4; stroke-opacity:1; fill:none" points="818.179,1423.18 818.179,1404.28 "/>
<polyline clip-path="url(#clip700)" style="stroke:#000000; stroke-linecap:round; stroke-linejoin:round; stroke-width:4; stroke-opacity:1; fill:none" points="1310.22,1423.18 1310.22,1404.28 "/>
<polyline clip-path="url(#clip700)" style="stroke:#000000; stroke-linecap:round; stroke-linejoin:round; stroke-width:4; stroke-opacity:1; fill:none" points="1802.26,1423.18 1802.26,1404.28 "/>
<polyline clip-path="url(#clip700)" style="stroke:#000000; stroke-linecap:round; stroke-linejoin:round; stroke-width:4; stroke-opacity:1; fill:none" points="2294.3,1423.18 2294.3,1404.28 "/>
<path clip-path="url(#clip700)" d="M326.139 1454.1 Q322.528 1454.1 320.699 1457.66 Q318.893 1461.2 318.893 1468.33 Q318.893 1475.44 320.699 1479.01 Q322.528 1482.55 326.139 1482.55 Q329.773 1482.55 331.578 1479.01 Q333.407 1475.44 333.407 1468.33 Q333.407 1461.2 331.578 1457.66 Q329.773 1454.1 326.139 1454.1 M326.139 1450.39 Q331.949 1450.39 335.004 1455 Q338.083 1459.58 338.083 1468.33 Q338.083 1477.06 335.004 1481.67 Q331.949 1486.25 326.139 1486.25 Q320.329 1486.25 317.25 1481.67 Q314.194 1477.06 314.194 1468.33 Q314.194 1459.58 317.25 1455 Q320.329 1450.39 326.139 1450.39 Z" fill="#000000" fill-rule="nonzero" fill-opacity="1" /><path clip-path="url(#clip700)" d="M797.45 1481.64 L813.77 1481.64 L813.77 1485.58 L791.825 1485.58 L791.825 1481.64 Q794.487 1478.89 799.071 1474.26 Q803.677 1469.61 804.858 1468.27 Q807.103 1465.74 807.983 1464.01 Q808.885 1462.25 808.885 1460.56 Q808.885 1457.8 806.941 1456.07 Q805.02 1454.33 801.918 1454.33 Q799.719 1454.33 797.265 1455.09 Q794.835 1455.86 792.057 1457.41 L792.057 1452.69 Q794.881 1451.55 797.335 1450.97 Q799.788 1450.39 801.825 1450.39 Q807.196 1450.39 810.39 1453.08 Q813.585 1455.77 813.585 1460.26 Q813.585 1462.39 812.774 1464.31 Q811.987 1466.2 809.881 1468.8 Q809.302 1469.47 806.2 1472.69 Q803.098 1475.88 797.45 1481.64 Z" fill="#000000" fill-rule="nonzero" fill-opacity="1" /><path clip-path="url(#clip700)" d="M823.631 1451.02 L841.987 1451.02 L841.987 1454.96 L827.913 1454.96 L827.913 1463.43 Q828.932 1463.08 829.95 1462.92 Q830.969 1462.73 831.987 1462.73 Q837.774 1462.73 841.154 1465.9 Q844.533 1469.08 844.533 1474.49 Q844.533 1480.07 841.061 1483.17 Q837.589 1486.25 831.27 1486.25 Q829.094 1486.25 826.825 1485.88 Q824.58 1485.51 822.172 1484.77 L822.172 1480.07 Q824.256 1481.2 826.478 1481.76 Q828.7 1482.32 831.177 1482.32 Q835.182 1482.32 837.52 1480.21 Q839.858 1478.1 839.858 1474.49 Q839.858 1470.88 837.52 1468.77 Q835.182 1466.67 831.177 1466.67 Q829.302 1466.67 827.427 1467.08 Q825.575 1467.5 823.631 1468.38 L823.631 1451.02 Z" fill="#000000" fill-rule="nonzero" fill-opacity="1" /><path clip-path="url(#clip700)" d="M1284.92 1451.02 L1303.28 1451.02 L1303.28 1454.96 L1289.2 1454.96 L1289.2 1463.43 Q1290.22 1463.08 1291.24 1462.92 Q1292.26 1462.73 1293.28 1462.73 Q1299.06 1462.73 1302.44 1465.9 Q1305.82 1469.08 1305.82 1474.49 Q1305.82 1480.07 1302.35 1483.17 Q1298.88 1486.25 1292.56 1486.25 Q1290.38 1486.25 1288.11 1485.88 Q1285.87 1485.51 1283.46 1484.77 L1283.46 1480.07 Q1285.54 1481.2 1287.77 1481.76 Q1289.99 1482.32 1292.47 1482.32 Q1296.47 1482.32 1298.81 1480.21 Q1301.15 1478.1 1301.15 1474.49 Q1301.15 1470.88 1298.81 1468.77 Q1296.47 1466.67 1292.47 1466.67 Q1290.59 1466.67 1288.72 1467.08 Q1286.86 1467.5 1284.92 1468.38 L1284.92 1451.02 Z" fill="#000000" fill-rule="nonzero" fill-opacity="1" /><path clip-path="url(#clip700)" d="M1325.03 1454.1 Q1321.42 1454.1 1319.6 1457.66 Q1317.79 1461.2 1317.79 1468.33 Q1317.79 1475.44 1319.6 1479.01 Q1321.42 1482.55 1325.03 1482.55 Q1328.67 1482.55 1330.47 1479.01 Q1332.3 1475.44 1332.3 1468.33 Q1332.3 1461.2 1330.47 1457.66 Q1328.67 1454.1 1325.03 1454.1 M1325.03 1450.39 Q1330.84 1450.39 1333.9 1455 Q1336.98 1459.58 1336.98 1468.33 Q1336.98 1477.06 1333.9 1481.67 Q1330.84 1486.25 1325.03 1486.25 Q1319.22 1486.25 1316.15 1481.67 Q1313.09 1477.06 1313.09 1468.33 Q1313.09 1459.58 1316.15 1455 Q1319.22 1450.39 1325.03 1450.39 Z" fill="#000000" fill-rule="nonzero" fill-opacity="1" /><path clip-path="url(#clip700)" d="M1776.12 1451.02 L1798.34 1451.02 L1798.34 1453.01 L1785.79 1485.58 L1780.91 1485.58 L1792.71 1454.96 L1776.12 1454.96 L1776.12 1451.02 Z" fill="#000000" fill-rule="nonzero" fill-opacity="1" /><path clip-path="url(#clip700)" d="M1807.5 1451.02 L1825.86 1451.02 L1825.86 1454.96 L1811.79 1454.96 L1811.79 1463.43 Q1812.8 1463.08 1813.82 1462.92 Q1814.84 1462.73 1815.86 1462.73 Q1821.65 1462.73 1825.03 1465.9 Q1828.41 1469.08 1828.41 1474.49 Q1828.41 1480.07 1824.93 1483.17 Q1821.46 1486.25 1815.14 1486.25 Q1812.97 1486.25 1810.7 1485.88 Q1808.45 1485.51 1806.05 1484.77 L1806.05 1480.07 Q1808.13 1481.2 1810.35 1481.76 Q1812.57 1482.32 1815.05 1482.32 Q1819.05 1482.32 1821.39 1480.21 Q1823.73 1478.1 1823.73 1474.49 Q1823.73 1470.88 1821.39 1468.77 Q1819.05 1466.67 1815.05 1466.67 Q1813.18 1466.67 1811.3 1467.08 Q1809.45 1467.5 1807.5 1468.38 L1807.5 1451.02 Z" fill="#000000" fill-rule="nonzero" fill-opacity="1" /><path clip-path="url(#clip700)" d="M2253.91 1481.64 L2261.55 1481.64 L2261.55 1455.28 L2253.24 1456.95 L2253.24 1452.69 L2261.5 1451.02 L2266.18 1451.02 L2266.18 1481.64 L2273.82 1481.64 L2273.82 1485.58 L2253.91 1485.58 L2253.91 1481.64 Z" fill="#000000" fill-rule="nonzero" fill-opacity="1" /><path clip-path="url(#clip700)" d="M2293.26 1454.1 Q2289.65 1454.1 2287.82 1457.66 Q2286.01 1461.2 2286.01 1468.33 Q2286.01 1475.44 2287.82 1479.01 Q2289.65 1482.55 2293.26 1482.55 Q2296.89 1482.55 2298.7 1479.01 Q2300.53 1475.44 2300.53 1468.33 Q2300.53 1461.2 2298.7 1457.66 Q2296.89 1454.1 2293.26 1454.1 M2293.26 1450.39 Q2299.07 1450.39 2302.13 1455 Q2305.2 1459.58 2305.2 1468.33 Q2305.2 1477.06 2302.13 1481.67 Q2299.07 1486.25 2293.26 1486.25 Q2287.45 1486.25 2284.37 1481.67 Q2281.32 1477.06 2281.32 1468.33 Q2281.32 1459.58 2284.37 1455 Q2287.45 1450.39 2293.26 1450.39 Z" fill="#000000" fill-rule="nonzero" fill-opacity="1" /><path clip-path="url(#clip700)" d="M2323.42 1454.1 Q2319.81 1454.1 2317.98 1457.66 Q2316.18 1461.2 2316.18 1468.33 Q2316.18 1475.44 2317.98 1479.01 Q2319.81 1482.55 2323.42 1482.55 Q2327.06 1482.55 2328.86 1479.01 Q2330.69 1475.44 2330.69 1468.33 Q2330.69 1461.2 2328.86 1457.66 Q2327.06 1454.1 2323.42 1454.1 M2323.42 1450.39 Q2329.23 1450.39 2332.29 1455 Q2335.37 1459.58 2335.37 1468.33 Q2335.37 1477.06 2332.29 1481.67 Q2329.23 1486.25 2323.42 1486.25 Q2317.61 1486.25 2314.53 1481.67 Q2311.48 1477.06 2311.48 1468.33 Q2311.48 1459.58 2314.53 1455 Q2317.61 1450.39 2323.42 1450.39 Z" fill="#000000" fill-rule="nonzero" fill-opacity="1" /><path clip-path="url(#clip700)" d="M1290.48 1520.52 L1296.91 1520.52 L1296.91 1568.04 L1290.48 1568.04 L1290.48 1520.52 Z" fill="#000000" fill-rule="nonzero" fill-opacity="1" /><path clip-path="url(#clip700)" d="M1316.13 1525.81 L1316.13 1562.76 L1323.9 1562.76 Q1333.73 1562.76 1338.28 1558.3 Q1342.87 1553.85 1342.87 1544.24 Q1342.87 1534.69 1338.28 1530.26 Q1333.73 1525.81 1323.9 1525.81 L1316.13 1525.81 M1309.7 1520.52 L1322.91 1520.52 Q1336.72 1520.52 1343.18 1526.28 Q1349.65 1532.01 1349.65 1544.24 Q1349.65 1556.52 1343.15 1562.28 Q1336.66 1568.04 1322.91 1568.04 L1309.7 1568.04 L1309.7 1520.52 Z" fill="#000000" fill-rule="nonzero" fill-opacity="1" /><polyline clip-path="url(#clip700)" style="stroke:#000000; stroke-linecap:round; stroke-linejoin:round; stroke-width:4; stroke-opacity:1; fill:none" points="287.366,1423.18 287.366,123.472 "/>
<polyline clip-path="url(#clip700)" style="stroke:#000000; stroke-linecap:round; stroke-linejoin:round; stroke-width:4; stroke-opacity:1; fill:none" points="287.366,1300.3 306.264,1300.3 "/>
<polyline clip-path="url(#clip700)" style="stroke:#000000; stroke-linecap:round; stroke-linejoin:round; stroke-width:4; stroke-opacity:1; fill:none" points="287.366,1053.55 306.264,1053.55 "/>
<polyline clip-path="url(#clip700)" style="stroke:#000000; stroke-linecap:round; stroke-linejoin:round; stroke-width:4; stroke-opacity:1; fill:none" points="287.366,806.797 306.264,806.797 "/>
<polyline clip-path="url(#clip700)" style="stroke:#000000; stroke-linecap:round; stroke-linejoin:round; stroke-width:4; stroke-opacity:1; fill:none" points="287.366,560.044 306.264,560.044 "/>
<polyline clip-path="url(#clip700)" style="stroke:#000000; stroke-linecap:round; stroke-linejoin:round; stroke-width:4; stroke-opacity:1; fill:none" points="287.366,313.291 306.264,313.291 "/>
<path clip-path="url(#clip700)" d="M115.256 1300.75 L144.931 1300.75 L144.931 1304.69 L115.256 1304.69 L115.256 1300.75 Z" fill="#000000" fill-rule="nonzero" fill-opacity="1" /><path clip-path="url(#clip700)" d="M165.024 1286.1 Q161.413 1286.1 159.584 1289.67 Q157.778 1293.21 157.778 1300.34 Q157.778 1307.44 159.584 1311.01 Q161.413 1314.55 165.024 1314.55 Q168.658 1314.55 170.464 1311.01 Q172.292 1307.44 172.292 1300.34 Q172.292 1293.21 170.464 1289.67 Q168.658 1286.1 165.024 1286.1 M165.024 1282.4 Q170.834 1282.4 173.889 1287 Q176.968 1291.59 176.968 1300.34 Q176.968 1309.06 173.889 1313.67 Q170.834 1318.25 165.024 1318.25 Q159.214 1318.25 156.135 1313.67 Q153.079 1309.06 153.079 1300.34 Q153.079 1291.59 156.135 1287 Q159.214 1282.4 165.024 1282.4 Z" fill="#000000" fill-rule="nonzero" fill-opacity="1" /><path clip-path="url(#clip700)" d="M185.186 1311.7 L190.07 1311.7 L190.07 1317.58 L185.186 1317.58 L185.186 1311.7 Z" fill="#000000" fill-rule="nonzero" fill-opacity="1" /><path clip-path="url(#clip700)" d="M201.065 1313.65 L208.704 1313.65 L208.704 1287.28 L200.394 1288.95 L200.394 1284.69 L208.658 1283.02 L213.334 1283.02 L213.334 1313.65 L220.973 1313.65 L220.973 1317.58 L201.065 1317.58 L201.065 1313.65 Z" fill="#000000" fill-rule="nonzero" fill-opacity="1" /><path clip-path="url(#clip700)" d="M230.463 1283.02 L248.82 1283.02 L248.82 1286.96 L234.746 1286.96 L234.746 1295.43 Q235.764 1295.08 236.783 1294.92 Q237.801 1294.74 238.82 1294.74 Q244.607 1294.74 247.986 1297.91 Q251.366 1301.08 251.366 1306.49 Q251.366 1312.07 247.894 1315.17 Q244.421 1318.25 238.102 1318.25 Q235.926 1318.25 233.658 1317.88 Q231.412 1317.51 229.005 1316.77 L229.005 1312.07 Q231.088 1313.21 233.31 1313.76 Q235.533 1314.32 238.009 1314.32 Q242.014 1314.32 244.352 1312.21 Q246.69 1310.11 246.69 1306.49 Q246.69 1302.88 244.352 1300.78 Q242.014 1298.67 238.009 1298.67 Q236.135 1298.67 234.26 1299.09 Q232.408 1299.5 230.463 1300.38 L230.463 1283.02 Z" fill="#000000" fill-rule="nonzero" fill-opacity="1" /><path clip-path="url(#clip700)" d="M114.26 1054 L143.936 1054 L143.936 1057.94 L114.26 1057.94 L114.26 1054 Z" fill="#000000" fill-rule="nonzero" fill-opacity="1" /><path clip-path="url(#clip700)" d="M164.028 1039.35 Q160.417 1039.35 158.589 1042.91 Q156.783 1046.45 156.783 1053.58 Q156.783 1060.69 158.589 1064.26 Q160.417 1067.8 164.028 1067.8 Q167.663 1067.8 169.468 1064.26 Q171.297 1060.69 171.297 1053.58 Q171.297 1046.45 169.468 1042.91 Q167.663 1039.35 164.028 1039.35 M164.028 1035.64 Q169.839 1035.64 172.894 1040.25 Q175.973 1044.83 175.973 1053.58 Q175.973 1062.31 172.894 1066.92 Q169.839 1071.5 164.028 1071.5 Q158.218 1071.5 155.14 1066.92 Q152.084 1062.31 152.084 1053.58 Q152.084 1044.83 155.14 1040.25 Q158.218 1035.64 164.028 1035.64 Z" fill="#000000" fill-rule="nonzero" fill-opacity="1" /><path clip-path="url(#clip700)" d="M184.19 1064.95 L189.075 1064.95 L189.075 1070.83 L184.19 1070.83 L184.19 1064.95 Z" fill="#000000" fill-rule="nonzero" fill-opacity="1" /><path clip-path="url(#clip700)" d="M200.07 1066.89 L207.709 1066.89 L207.709 1040.53 L199.399 1042.2 L199.399 1037.94 L207.662 1036.27 L212.338 1036.27 L212.338 1066.89 L219.977 1066.89 L219.977 1070.83 L200.07 1070.83 L200.07 1066.89 Z" fill="#000000" fill-rule="nonzero" fill-opacity="1" /><path clip-path="url(#clip700)" d="M239.422 1039.35 Q235.81 1039.35 233.982 1042.91 Q232.176 1046.45 232.176 1053.58 Q232.176 1060.69 233.982 1064.26 Q235.81 1067.8 239.422 1067.8 Q243.056 1067.8 244.861 1064.26 Q246.69 1060.69 246.69 1053.58 Q246.69 1046.45 244.861 1042.91 Q243.056 1039.35 239.422 1039.35 M239.422 1035.64 Q245.232 1035.64 248.287 1040.25 Q251.366 1044.83 251.366 1053.58 Q251.366 1062.31 248.287 1066.92 Q245.232 1071.5 239.422 1071.5 Q233.611 1071.5 230.533 1066.92 Q227.477 1062.31 227.477 1053.58 Q227.477 1044.83 230.533 1040.25 Q233.611 1035.64 239.422 1035.64 Z" fill="#000000" fill-rule="nonzero" fill-opacity="1" /><path clip-path="url(#clip700)" d="M115.256 807.248 L144.931 807.248 L144.931 811.183 L115.256 811.183 L115.256 807.248 Z" fill="#000000" fill-rule="nonzero" fill-opacity="1" /><path clip-path="url(#clip700)" d="M165.024 792.595 Q161.413 792.595 159.584 796.16 Q157.778 799.702 157.778 806.831 Q157.778 813.938 159.584 817.503 Q161.413 821.044 165.024 821.044 Q168.658 821.044 170.464 817.503 Q172.292 813.938 172.292 806.831 Q172.292 799.702 170.464 796.16 Q168.658 792.595 165.024 792.595 M165.024 788.892 Q170.834 788.892 173.889 793.498 Q176.968 798.082 176.968 806.831 Q176.968 815.558 173.889 820.165 Q170.834 824.748 165.024 824.748 Q159.214 824.748 156.135 820.165 Q153.079 815.558 153.079 806.831 Q153.079 798.082 156.135 793.498 Q159.214 788.892 165.024 788.892 Z" fill="#000000" fill-rule="nonzero" fill-opacity="1" /><path clip-path="url(#clip700)" d="M185.186 818.197 L190.07 818.197 L190.07 824.077 L185.186 824.077 L185.186 818.197 Z" fill="#000000" fill-rule="nonzero" fill-opacity="1" /><path clip-path="url(#clip700)" d="M210.255 792.595 Q206.644 792.595 204.815 796.16 Q203.01 799.702 203.01 806.831 Q203.01 813.938 204.815 817.503 Q206.644 821.044 210.255 821.044 Q213.889 821.044 215.695 817.503 Q217.523 813.938 217.523 806.831 Q217.523 799.702 215.695 796.16 Q213.889 792.595 210.255 792.595 M210.255 788.892 Q216.065 788.892 219.121 793.498 Q222.199 798.082 222.199 806.831 Q222.199 815.558 219.121 820.165 Q216.065 824.748 210.255 824.748 Q204.445 824.748 201.366 820.165 Q198.311 815.558 198.311 806.831 Q198.311 798.082 201.366 793.498 Q204.445 788.892 210.255 788.892 Z" fill="#000000" fill-rule="nonzero" fill-opacity="1" /><path clip-path="url(#clip700)" d="M230.463 789.517 L248.82 789.517 L248.82 793.452 L234.746 793.452 L234.746 801.924 Q235.764 801.577 236.783 801.415 Q237.801 801.23 238.82 801.23 Q244.607 801.23 247.986 804.401 Q251.366 807.572 251.366 812.989 Q251.366 818.568 247.894 821.669 Q244.421 824.748 238.102 824.748 Q235.926 824.748 233.658 824.378 Q231.412 824.007 229.005 823.267 L229.005 818.568 Q231.088 819.702 233.31 820.257 Q235.533 820.813 238.009 820.813 Q242.014 820.813 244.352 818.706 Q246.69 816.6 246.69 812.989 Q246.69 809.378 244.352 807.271 Q242.014 805.165 238.009 805.165 Q236.135 805.165 234.26 805.582 Q232.408 805.998 230.463 806.878 L230.463 789.517 Z" fill="#000000" fill-rule="nonzero" fill-opacity="1" /><path clip-path="url(#clip700)" d="M164.028 545.843 Q160.417 545.843 158.589 549.407 Q156.783 552.949 156.783 560.079 Q156.783 567.185 158.589 570.75 Q160.417 574.292 164.028 574.292 Q167.663 574.292 169.468 570.75 Q171.297 567.185 171.297 560.079 Q171.297 552.949 169.468 549.407 Q167.663 545.843 164.028 545.843 M164.028 542.139 Q169.839 542.139 172.894 546.745 Q175.973 551.329 175.973 560.079 Q175.973 568.806 172.894 573.412 Q169.839 577.995 164.028 577.995 Q158.218 577.995 155.14 573.412 Q152.084 568.806 152.084 560.079 Q152.084 551.329 155.14 546.745 Q158.218 542.139 164.028 542.139 Z" fill="#000000" fill-rule="nonzero" fill-opacity="1" /><path clip-path="url(#clip700)" d="M184.19 571.444 L189.075 571.444 L189.075 577.324 L184.19 577.324 L184.19 571.444 Z" fill="#000000" fill-rule="nonzero" fill-opacity="1" /><path clip-path="url(#clip700)" d="M209.26 545.843 Q205.649 545.843 203.82 549.407 Q202.014 552.949 202.014 560.079 Q202.014 567.185 203.82 570.75 Q205.649 574.292 209.26 574.292 Q212.894 574.292 214.699 570.75 Q216.528 567.185 216.528 560.079 Q216.528 552.949 214.699 549.407 Q212.894 545.843 209.26 545.843 M209.26 542.139 Q215.07 542.139 218.125 546.745 Q221.204 551.329 221.204 560.079 Q221.204 568.806 218.125 573.412 Q215.07 577.995 209.26 577.995 Q203.449 577.995 200.371 573.412 Q197.315 568.806 197.315 560.079 Q197.315 551.329 200.371 546.745 Q203.449 542.139 209.26 542.139 Z" fill="#000000" fill-rule="nonzero" fill-opacity="1" /><path clip-path="url(#clip700)" d="M239.422 545.843 Q235.81 545.843 233.982 549.407 Q232.176 552.949 232.176 560.079 Q232.176 567.185 233.982 570.75 Q235.81 574.292 239.422 574.292 Q243.056 574.292 244.861 570.75 Q246.69 567.185 246.69 560.079 Q246.69 552.949 244.861 549.407 Q243.056 545.843 239.422 545.843 M239.422 542.139 Q245.232 542.139 248.287 546.745 Q251.366 551.329 251.366 560.079 Q251.366 568.806 248.287 573.412 Q245.232 577.995 239.422 577.995 Q233.611 577.995 230.533 573.412 Q227.477 568.806 227.477 560.079 Q227.477 551.329 230.533 546.745 Q233.611 542.139 239.422 542.139 Z" fill="#000000" fill-rule="nonzero" fill-opacity="1" /><path clip-path="url(#clip700)" d="M165.024 299.09 Q161.413 299.09 159.584 302.655 Q157.778 306.196 157.778 313.326 Q157.778 320.432 159.584 323.997 Q161.413 327.539 165.024 327.539 Q168.658 327.539 170.464 323.997 Q172.292 320.432 172.292 313.326 Q172.292 306.196 170.464 302.655 Q168.658 299.09 165.024 299.09 M165.024 295.386 Q170.834 295.386 173.889 299.993 Q176.968 304.576 176.968 313.326 Q176.968 322.053 173.889 326.659 Q170.834 331.242 165.024 331.242 Q159.214 331.242 156.135 326.659 Q153.079 322.053 153.079 313.326 Q153.079 304.576 156.135 299.993 Q159.214 295.386 165.024 295.386 Z" fill="#000000" fill-rule="nonzero" fill-opacity="1" /><path clip-path="url(#clip700)" d="M185.186 324.692 L190.07 324.692 L190.07 330.571 L185.186 330.571 L185.186 324.692 Z" fill="#000000" fill-rule="nonzero" fill-opacity="1" /><path clip-path="url(#clip700)" d="M210.255 299.09 Q206.644 299.09 204.815 302.655 Q203.01 306.196 203.01 313.326 Q203.01 320.432 204.815 323.997 Q206.644 327.539 210.255 327.539 Q213.889 327.539 215.695 323.997 Q217.523 320.432 217.523 313.326 Q217.523 306.196 215.695 302.655 Q213.889 299.09 210.255 299.09 M210.255 295.386 Q216.065 295.386 219.121 299.993 Q222.199 304.576 222.199 313.326 Q222.199 322.053 219.121 326.659 Q216.065 331.242 210.255 331.242 Q204.445 331.242 201.366 326.659 Q198.311 322.053 198.311 313.326 Q198.311 304.576 201.366 299.993 Q204.445 295.386 210.255 295.386 Z" fill="#000000" fill-rule="nonzero" fill-opacity="1" /><path clip-path="url(#clip700)" d="M230.463 296.011 L248.82 296.011 L248.82 299.946 L234.746 299.946 L234.746 308.419 Q235.764 308.071 236.783 307.909 Q237.801 307.724 238.82 307.724 Q244.607 307.724 247.986 310.895 Q251.366 314.067 251.366 319.483 Q251.366 325.062 247.894 328.164 Q244.421 331.242 238.102 331.242 Q235.926 331.242 233.658 330.872 Q231.412 330.502 229.005 329.761 L229.005 325.062 Q231.088 326.196 233.31 326.752 Q235.533 327.307 238.009 327.307 Q242.014 327.307 244.352 325.201 Q246.69 323.094 246.69 319.483 Q246.69 315.872 244.352 313.766 Q242.014 311.659 238.009 311.659 Q236.135 311.659 234.26 312.076 Q232.408 312.493 230.463 313.372 L230.463 296.011 Z" fill="#000000" fill-rule="nonzero" fill-opacity="1" /><path clip-path="url(#clip700)" d="M41.7242 937.513 Q42.4244 935.445 44.7161 933.503 Q47.0077 931.53 51.0181 929.556 L64.0042 923.031 L64.0042 929.938 L51.8138 936.018 Q47.0395 938.373 45.48 940.601 Q43.9204 942.797 43.9204 946.616 L43.9204 953.619 L64.0042 953.619 L64.0042 960.048 L16.4842 960.048 L16.4842 945.534 Q16.4842 937.386 19.8898 933.376 Q23.2955 929.365 30.1704 929.365 Q34.6582 929.365 37.6183 931.466 Q40.5784 933.535 41.7242 937.513 M21.7677 953.619 L38.6368 953.619 L38.6368 945.534 Q38.6368 940.887 36.5043 938.532 Q34.34 936.145 30.1704 936.145 Q26.0009 936.145 23.9002 938.532 Q21.7677 940.887 21.7677 945.534 L21.7677 953.619 Z" fill="#000000" fill-rule="nonzero" fill-opacity="1" /><path clip-path="url(#clip700)" d="M44.7161 887.447 L47.5806 887.447 L47.5806 914.374 Q53.6281 913.992 56.8109 910.746 Q59.9619 907.467 59.9619 901.643 Q59.9619 898.269 59.1344 895.118 Q58.3069 891.935 56.6518 888.816 L62.1899 888.816 Q63.5267 891.967 64.227 895.277 Q64.9272 898.587 64.9272 901.993 Q64.9272 910.523 59.9619 915.52 Q54.9967 920.485 46.5303 920.485 Q37.7774 920.485 32.6531 915.775 Q27.4968 911.032 27.4968 903.011 Q27.4968 895.818 32.1438 891.649 Q36.7589 887.447 44.7161 887.447 M42.9973 893.304 Q38.1912 893.367 35.3266 896.009 Q32.4621 898.619 32.4621 902.948 Q32.4621 907.849 35.2312 910.809 Q38.0002 913.738 43.0292 914.183 L42.9973 893.304 Z" fill="#000000" fill-rule="nonzero" fill-opacity="1" /><path clip-path="url(#clip700)" d="M29.4065 855.109 L34.9447 855.109 Q33.6716 857.592 33.035 860.266 Q32.3984 862.939 32.3984 865.804 Q32.3984 870.164 33.7352 872.36 Q35.072 874.525 37.7456 874.525 Q39.7826 874.525 40.9603 872.965 Q42.1061 871.406 43.1565 866.695 L43.6021 864.69 Q44.9389 858.451 47.3897 855.841 Q49.8086 853.2 54.1691 853.2 Q59.1344 853.2 62.0308 857.146 Q64.9272 861.061 64.9272 867.936 Q64.9272 870.801 64.3543 873.92 Q63.8132 877.007 62.6992 880.445 L56.6518 880.445 Q58.3387 877.198 59.198 874.047 Q60.0256 870.896 60.0256 867.809 Q60.0256 863.671 58.6251 861.443 Q57.1929 859.215 54.6147 859.215 Q52.2276 859.215 50.9545 860.839 Q49.6813 862.43 48.5037 867.873 L48.0262 869.91 Q46.8804 875.352 44.5251 877.771 Q42.138 880.19 38.0002 880.19 Q32.9713 880.19 30.2341 876.625 Q27.4968 873.061 27.4968 866.504 Q27.4968 863.258 27.9743 860.393 Q28.4517 857.528 29.4065 855.109 Z" fill="#000000" fill-rule="nonzero" fill-opacity="1" /><path clip-path="url(#clip700)" d="M28.3562 843.874 L28.3562 838.017 L64.0042 838.017 L64.0042 843.874 L28.3562 843.874 M14.479 843.874 L14.479 838.017 L21.895 838.017 L21.895 843.874 L14.479 843.874 Z" fill="#000000" fill-rule="nonzero" fill-opacity="1" /><path clip-path="url(#clip700)" d="M33.7671 802.306 L14.479 802.306 L14.479 796.449 L64.0042 796.449 L64.0042 802.306 L58.657 802.306 Q61.8398 804.152 63.3994 806.985 Q64.9272 809.786 64.9272 813.732 Q64.9272 820.193 59.771 824.268 Q54.6147 828.31 46.212 828.31 Q37.8093 828.31 32.6531 824.268 Q27.4968 820.193 27.4968 813.732 Q27.4968 809.786 29.0564 806.985 Q30.5842 804.152 33.7671 802.306 M46.212 822.262 Q52.6732 822.262 56.3653 819.621 Q60.0256 816.947 60.0256 812.3 Q60.0256 807.653 56.3653 804.979 Q52.6732 802.306 46.212 802.306 Q39.7508 802.306 36.0905 804.979 Q32.3984 807.653 32.3984 812.3 Q32.3984 816.947 36.0905 819.621 Q39.7508 822.262 46.212 822.262 Z" fill="#000000" fill-rule="nonzero" fill-opacity="1" /><path clip-path="url(#clip700)" d="M49.9359 784.991 L28.3562 784.991 L28.3562 779.135 L49.7131 779.135 Q54.7739 779.135 57.3202 777.161 Q59.8346 775.188 59.8346 771.241 Q59.8346 766.499 56.8109 763.762 Q53.7872 760.992 48.5673 760.992 L28.3562 760.992 L28.3562 755.136 L64.0042 755.136 L64.0042 760.992 L58.5296 760.992 Q61.7762 763.125 63.3676 765.958 Q64.9272 768.759 64.9272 772.483 Q64.9272 778.625 61.1078 781.808 Q57.2883 784.991 49.9359 784.991 M27.4968 770.255 L27.4968 770.255 Z" fill="#000000" fill-rule="nonzero" fill-opacity="1" /><path clip-path="url(#clip700)" d="M46.0847 726.872 Q46.0847 733.97 47.7079 736.707 Q49.3312 739.445 53.2461 739.445 Q56.3653 739.445 58.2114 737.407 Q60.0256 735.339 60.0256 731.806 Q60.0256 726.936 56.5881 724.008 Q53.1188 721.048 47.3897 721.048 L46.0847 721.048 L46.0847 726.872 M43.6657 715.191 L64.0042 715.191 L64.0042 721.048 L58.5933 721.048 Q61.8398 723.053 63.3994 726.045 Q64.9272 729.037 64.9272 733.365 Q64.9272 738.84 61.8716 742.086 Q58.7843 745.301 53.6281 745.301 Q47.6125 745.301 44.5569 741.291 Q41.5014 737.248 41.5014 729.259 L41.5014 721.048 L40.9285 721.048 Q36.8862 721.048 34.6901 723.721 Q32.4621 726.363 32.4621 731.169 Q32.4621 734.225 33.1941 737.121 Q33.9262 740.017 35.3903 742.691 L29.9795 742.691 Q28.7381 739.476 28.1334 736.453 Q27.4968 733.429 27.4968 730.564 Q27.4968 722.83 31.5072 719.011 Q35.5176 715.191 43.6657 715.191 Z" fill="#000000" fill-rule="nonzero" fill-opacity="1" /><path clip-path="url(#clip700)" d="M14.479 703.128 L14.479 697.272 L64.0042 697.272 L64.0042 703.128 L14.479 703.128 Z" fill="#000000" fill-rule="nonzero" fill-opacity="1" /><path clip-path="url(#clip700)" d="M14.5426 650.229 Q21.8632 654.494 29.0246 656.563 Q36.186 658.632 43.5384 658.632 Q50.8908 658.632 58.1159 656.563 Q65.3091 654.462 72.5979 650.229 L72.5979 655.322 Q65.1182 660.096 57.8931 662.483 Q50.668 664.838 43.5384 664.838 Q36.4406 664.838 29.2474 662.483 Q22.0542 660.128 14.5426 655.322 L14.5426 650.229 Z" fill="#000000" fill-rule="nonzero" fill-opacity="1" /><path clip-path="url(#clip700)" d="M28.3562 609.234 L45.7028 622.125 L64.0042 608.566 L64.0042 615.472 L49.9996 625.848 L64.0042 636.225 L64.0042 643.131 L45.3526 629.286 L28.3562 641.954 L28.3562 635.047 L41.0558 625.594 L28.3562 616.141 L28.3562 609.234 Z" fill="#000000" fill-rule="nonzero" fill-opacity="1" /><path clip-path="url(#clip700)" d="M14.5426 601.213 L14.5426 596.121 Q22.0542 591.346 29.2474 588.991 Q36.4406 586.604 43.5384 586.604 Q50.668 586.604 57.8931 588.991 Q65.1182 591.346 72.5979 596.121 L72.5979 601.213 Q65.3091 596.98 58.1159 594.911 Q50.8908 592.81 43.5384 592.81 Q36.186 592.81 29.0246 594.911 Q21.8632 596.98 14.5426 601.213 Z" fill="#000000" fill-rule="nonzero" fill-opacity="1" /><path clip-path="url(#clip700)" d="M1056.85 12.096 L1065.04 12.096 L1065.04 72.576 L1056.85 72.576 L1056.85 12.096 Z" fill="#000000" fill-rule="nonzero" fill-opacity="1" /><path clip-path="url(#clip700)" d="M1118.71 45.1919 L1118.71 72.576 L1111.26 72.576 L1111.26 45.4349 Q1111.26 38.994 1108.75 35.7938 Q1106.23 32.5936 1101.21 32.5936 Q1095.17 32.5936 1091.69 36.4419 Q1088.21 40.2903 1088.21 46.9338 L1088.21 72.576 L1080.71 72.576 L1080.71 27.2059 L1088.21 27.2059 L1088.21 34.2544 Q1090.88 30.163 1094.49 28.1376 Q1098.13 26.1121 1102.87 26.1121 Q1110.69 26.1121 1114.7 30.9732 Q1118.71 35.7938 1118.71 45.1919 Z" fill="#000000" fill-rule="nonzero" fill-opacity="1" /><path clip-path="url(#clip700)" d="M1156.55 9.54393 L1156.55 15.7418 L1149.42 15.7418 Q1145.41 15.7418 1143.83 17.3622 Q1142.29 18.9825 1142.29 23.1955 L1142.29 27.2059 L1154.56 27.2059 L1154.56 32.9987 L1142.29 32.9987 L1142.29 72.576 L1134.79 72.576 L1134.79 32.9987 L1127.66 32.9987 L1127.66 27.2059 L1134.79 27.2059 L1134.79 24.0462 Q1134.79 16.471 1138.32 13.0277 Q1141.84 9.54393 1149.5 9.54393 L1156.55 9.54393 Z" fill="#000000" fill-rule="nonzero" fill-opacity="1" /><path clip-path="url(#clip700)" d="M1162.78 9.54393 L1170.24 9.54393 L1170.24 72.576 L1162.78 72.576 L1162.78 9.54393 Z" fill="#000000" fill-rule="nonzero" fill-opacity="1" /><path clip-path="url(#clip700)" d="M1185.06 54.671 L1185.06 27.2059 L1192.52 27.2059 L1192.52 54.3874 Q1192.52 60.8284 1195.03 64.0691 Q1197.54 67.2693 1202.56 67.2693 Q1208.6 67.2693 1212.08 63.421 Q1215.61 59.5726 1215.61 52.9291 L1215.61 27.2059 L1223.06 27.2059 L1223.06 72.576 L1215.61 72.576 L1215.61 65.6084 Q1212.89 69.7404 1209.29 71.7658 Q1205.72 73.7508 1200.98 73.7508 Q1193.17 73.7508 1189.12 68.8897 Q1185.06 64.0286 1185.06 54.671 M1203.82 26.1121 L1203.82 26.1121 Z" fill="#000000" fill-rule="nonzero" fill-opacity="1" /><path clip-path="url(#clip700)" d="M1277.22 48.0275 L1277.22 51.6733 L1242.95 51.6733 Q1243.44 59.3701 1247.57 63.421 Q1251.74 67.4314 1259.16 67.4314 Q1263.45 67.4314 1267.46 66.3781 Q1271.51 65.3249 1275.48 63.2184 L1275.48 70.267 Q1271.47 71.9684 1267.26 72.8596 Q1263.04 73.7508 1258.71 73.7508 Q1247.85 73.7508 1241.49 67.4314 Q1235.17 61.1119 1235.17 50.3365 Q1235.17 39.1965 1241.17 32.6746 Q1247.21 26.1121 1257.41 26.1121 Q1266.57 26.1121 1271.88 32.0264 Q1277.22 37.9003 1277.22 48.0275 M1269.77 45.84 Q1269.69 39.7232 1266.33 36.0774 Q1263 32.4315 1257.49 32.4315 Q1251.26 32.4315 1247.49 35.9558 Q1243.76 39.4801 1243.19 45.8805 L1269.77 45.84 Z" fill="#000000" fill-rule="nonzero" fill-opacity="1" /><path clip-path="url(#clip700)" d="M1327.17 45.1919 L1327.17 72.576 L1319.72 72.576 L1319.72 45.4349 Q1319.72 38.994 1317.21 35.7938 Q1314.69 32.5936 1309.67 32.5936 Q1303.63 32.5936 1300.15 36.4419 Q1296.67 40.2903 1296.67 46.9338 L1296.67 72.576 L1289.17 72.576 L1289.17 27.2059 L1296.67 27.2059 L1296.67 34.2544 Q1299.34 30.163 1302.95 28.1376 Q1306.59 26.1121 1311.33 26.1121 Q1319.15 26.1121 1323.16 30.9732 Q1327.17 35.7938 1327.17 45.1919 Z" fill="#000000" fill-rule="nonzero" fill-opacity="1" /><path clip-path="url(#clip700)" d="M1374.69 28.9478 L1374.69 35.9153 Q1371.53 34.1734 1368.33 33.3227 Q1365.17 32.4315 1361.93 32.4315 Q1354.68 32.4315 1350.67 37.0496 Q1346.66 41.6271 1346.66 49.9314 Q1346.66 58.2358 1350.67 62.8538 Q1354.68 67.4314 1361.93 67.4314 Q1365.17 67.4314 1368.33 66.5807 Q1371.53 65.6895 1374.69 63.9476 L1374.69 70.8341 Q1371.57 72.2924 1368.21 73.0216 Q1364.88 73.7508 1361.12 73.7508 Q1350.87 73.7508 1344.83 67.3098 Q1338.8 60.8689 1338.8 49.9314 Q1338.8 38.832 1344.87 32.472 Q1350.99 26.1121 1361.6 26.1121 Q1365.05 26.1121 1368.33 26.8413 Q1371.61 27.5299 1374.69 28.9478 Z" fill="#000000" fill-rule="nonzero" fill-opacity="1" /><path clip-path="url(#clip700)" d="M1426.46 48.0275 L1426.46 51.6733 L1392.19 51.6733 Q1392.67 59.3701 1396.81 63.421 Q1400.98 67.4314 1408.39 67.4314 Q1412.68 67.4314 1416.7 66.3781 Q1420.75 65.3249 1424.72 63.2184 L1424.72 70.267 Q1420.71 71.9684 1416.49 72.8596 Q1412.28 73.7508 1407.95 73.7508 Q1397.09 73.7508 1390.73 67.4314 Q1384.41 61.1119 1384.41 50.3365 Q1384.41 39.1965 1390.4 32.6746 Q1396.44 26.1121 1406.65 26.1121 Q1415.8 26.1121 1421.11 32.0264 Q1426.46 37.9003 1426.46 48.0275 M1419 45.84 Q1418.92 39.7232 1415.56 36.0774 Q1412.24 32.4315 1406.73 32.4315 Q1400.49 32.4315 1396.72 35.9558 Q1393 39.4801 1392.43 45.8805 L1419 45.84 Z" fill="#000000" fill-rule="nonzero" fill-opacity="1" /><path clip-path="url(#clip700)" d="M1440.6 62.2867 L1449.14 62.2867 L1449.14 72.576 L1440.6 72.576 L1440.6 62.2867 M1440.6 29.6769 L1449.14 29.6769 L1449.14 39.9662 L1440.6 39.9662 L1440.6 29.6769 Z" fill="#000000" fill-rule="nonzero" fill-opacity="1" /><path clip-path="url(#clip700)" d="M1500.47 69.7809 L1500.47 89.8329 L1492.97 89.8329 L1492.97 27.4894 Q1492.97 9.01731 1510.23 9.01731 Q1527.81 9.01731 1527.81 24.6133 Q1527.81 35.7128 1520.84 39.7637 Q1532.19 43.4095 1532.19 54.2254 Q1532.19 73.4267 1512.66 73.4267 Q1504.07 73.4267 1500.47 69.7809 M1500.47 60.0587 Q1504.96 67.0668 1512.94 67.0668 Q1524.61 67.0668 1524.61 54.3469 Q1524.61 42.9234 1505.82 43.8146 L1505.82 36.928 Q1520.52 36.928 1520.52 23.9651 Q1520.52 15.0937 1511.04 15.0937 Q1500.47 15.0937 1500.47 27.7325 L1500.47 60.0587 Z" fill="#000000" fill-rule="nonzero" fill-opacity="1" /><path clip-path="url(#clip700)" d="M1548.43 65.6895 L1561.8 65.6895 L1561.8 19.5497 L1547.26 22.4663 L1547.26 15.0127 L1561.72 12.096 L1569.9 12.096 L1569.9 65.6895 L1583.27 65.6895 L1583.27 72.576 L1548.43 72.576 L1548.43 65.6895 Z" fill="#000000" fill-rule="nonzero" fill-opacity="1" /><circle clip-path="url(#clip702)" cx="345.82" cy="906.587" r="14.4" fill="#000000" fill-rule="evenodd" fill-opacity="0.5" stroke="none"/>
<circle clip-path="url(#clip702)" cx="365.502" cy="716.982" r="14.4" fill="#000000" fill-rule="evenodd" fill-opacity="0.5" stroke="none"/>
<circle clip-path="url(#clip702)" cx="385.184" cy="403.714" r="14.4" fill="#000000" fill-rule="evenodd" fill-opacity="0.5" stroke="none"/>
<circle clip-path="url(#clip702)" cx="404.865" cy="566.923" r="14.4" fill="#000000" fill-rule="evenodd" fill-opacity="0.5" stroke="none"/>
<circle clip-path="url(#clip702)" cx="424.547" cy="580.514" r="14.4" fill="#000000" fill-rule="evenodd" fill-opacity="0.5" stroke="none"/>
<circle clip-path="url(#clip702)" cx="444.228" cy="545.007" r="14.4" fill="#000000" fill-rule="evenodd" fill-opacity="0.5" stroke="none"/>
<circle clip-path="url(#clip702)" cx="463.91" cy="481.393" r="14.4" fill="#000000" fill-rule="evenodd" fill-opacity="0.5" stroke="none"/>
<circle clip-path="url(#clip702)" cx="483.592" cy="560.499" r="14.4" fill="#000000" fill-rule="evenodd" fill-opacity="0.5" stroke="none"/>
<circle clip-path="url(#clip702)" cx="503.273" cy="408.82" r="14.4" fill="#000000" fill-rule="evenodd" fill-opacity="0.5" stroke="none"/>
<circle clip-path="url(#clip702)" cx="522.955" cy="472.695" r="14.4" fill="#000000" fill-rule="evenodd" fill-opacity="0.5" stroke="none"/>
<circle clip-path="url(#clip702)" cx="542.637" cy="636.163" r="14.4" fill="#000000" fill-rule="evenodd" fill-opacity="0.5" stroke="none"/>
<circle clip-path="url(#clip702)" cx="562.318" cy="517.48" r="14.4" fill="#000000" fill-rule="evenodd" fill-opacity="0.5" stroke="none"/>
<circle clip-path="url(#clip702)" cx="582" cy="373.707" r="14.4" fill="#000000" fill-rule="evenodd" fill-opacity="0.5" stroke="none"/>
<circle clip-path="url(#clip702)" cx="601.681" cy="523.855" r="14.4" fill="#000000" fill-rule="evenodd" fill-opacity="0.5" stroke="none"/>
<circle clip-path="url(#clip702)" cx="621.363" cy="267.306" r="14.4" fill="#000000" fill-rule="evenodd" fill-opacity="0.5" stroke="none"/>
<circle clip-path="url(#clip702)" cx="641.045" cy="543.928" r="14.4" fill="#000000" fill-rule="evenodd" fill-opacity="0.5" stroke="none"/>
<circle clip-path="url(#clip702)" cx="660.726" cy="1039.07" r="14.4" fill="#000000" fill-rule="evenodd" fill-opacity="0.5" stroke="none"/>
<circle clip-path="url(#clip702)" cx="680.408" cy="595.753" r="14.4" fill="#000000" fill-rule="evenodd" fill-opacity="0.5" stroke="none"/>
<circle clip-path="url(#clip702)" cx="700.09" cy="237.226" r="14.4" fill="#000000" fill-rule="evenodd" fill-opacity="0.5" stroke="none"/>
<circle clip-path="url(#clip702)" cx="719.771" cy="712.29" r="14.4" fill="#000000" fill-rule="evenodd" fill-opacity="0.5" stroke="none"/>
<circle clip-path="url(#clip702)" cx="739.453" cy="478.926" r="14.4" fill="#000000" fill-rule="evenodd" fill-opacity="0.5" stroke="none"/>
<circle clip-path="url(#clip702)" cx="759.135" cy="620.633" r="14.4" fill="#000000" fill-rule="evenodd" fill-opacity="0.5" stroke="none"/>
<circle clip-path="url(#clip702)" cx="778.816" cy="446.118" r="14.4" fill="#000000" fill-rule="evenodd" fill-opacity="0.5" stroke="none"/>
<circle clip-path="url(#clip702)" cx="798.498" cy="525.109" r="14.4" fill="#000000" fill-rule="evenodd" fill-opacity="0.5" stroke="none"/>
<circle clip-path="url(#clip702)" cx="818.179" cy="593.431" r="14.4" fill="#000000" fill-rule="evenodd" fill-opacity="0.5" stroke="none"/>
<circle clip-path="url(#clip702)" cx="837.861" cy="557.421" r="14.4" fill="#000000" fill-rule="evenodd" fill-opacity="0.5" stroke="none"/>
<circle clip-path="url(#clip702)" cx="857.543" cy="576.751" r="14.4" fill="#000000" fill-rule="evenodd" fill-opacity="0.5" stroke="none"/>
<circle clip-path="url(#clip702)" cx="877.224" cy="878.811" r="14.4" fill="#000000" fill-rule="evenodd" fill-opacity="0.5" stroke="none"/>
<circle clip-path="url(#clip702)" cx="896.906" cy="1386.4" r="14.4" fill="#000000" fill-rule="evenodd" fill-opacity="0.5" stroke="none"/>
<circle clip-path="url(#clip702)" cx="916.588" cy="550.067" r="14.4" fill="#000000" fill-rule="evenodd" fill-opacity="0.5" stroke="none"/>
<circle clip-path="url(#clip702)" cx="936.269" cy="741.174" r="14.4" fill="#000000" fill-rule="evenodd" fill-opacity="0.5" stroke="none"/>
<circle clip-path="url(#clip702)" cx="955.951" cy="951.191" r="14.4" fill="#000000" fill-rule="evenodd" fill-opacity="0.5" stroke="none"/>
<circle clip-path="url(#clip702)" cx="975.632" cy="679.299" r="14.4" fill="#000000" fill-rule="evenodd" fill-opacity="0.5" stroke="none"/>
<circle clip-path="url(#clip702)" cx="995.314" cy="439.43" r="14.4" fill="#000000" fill-rule="evenodd" fill-opacity="0.5" stroke="none"/>
<circle clip-path="url(#clip702)" cx="1015" cy="1116.58" r="14.4" fill="#000000" fill-rule="evenodd" fill-opacity="0.5" stroke="none"/>
<circle clip-path="url(#clip702)" cx="1034.68" cy="819.896" r="14.4" fill="#000000" fill-rule="evenodd" fill-opacity="0.5" stroke="none"/>
<circle clip-path="url(#clip702)" cx="1054.36" cy="529.625" r="14.4" fill="#000000" fill-rule="evenodd" fill-opacity="0.5" stroke="none"/>
<circle clip-path="url(#clip702)" cx="1074.04" cy="520.219" r="14.4" fill="#000000" fill-rule="evenodd" fill-opacity="0.5" stroke="none"/>
<circle clip-path="url(#clip702)" cx="1093.72" cy="661.413" r="14.4" fill="#000000" fill-rule="evenodd" fill-opacity="0.5" stroke="none"/>
<circle clip-path="url(#clip702)" cx="1113.4" cy="475.652" r="14.4" fill="#000000" fill-rule="evenodd" fill-opacity="0.5" stroke="none"/>
<circle clip-path="url(#clip702)" cx="1133.09" cy="160.256" r="14.4" fill="#000000" fill-rule="evenodd" fill-opacity="0.5" stroke="none"/>
<circle clip-path="url(#clip702)" cx="1152.77" cy="473.763" r="14.4" fill="#000000" fill-rule="evenodd" fill-opacity="0.5" stroke="none"/>
<circle clip-path="url(#clip702)" cx="1172.45" cy="499.651" r="14.4" fill="#000000" fill-rule="evenodd" fill-opacity="0.5" stroke="none"/>
<circle clip-path="url(#clip702)" cx="1192.13" cy="452.152" r="14.4" fill="#000000" fill-rule="evenodd" fill-opacity="0.5" stroke="none"/>
<circle clip-path="url(#clip702)" cx="1211.81" cy="453.388" r="14.4" fill="#000000" fill-rule="evenodd" fill-opacity="0.5" stroke="none"/>
<circle clip-path="url(#clip702)" cx="1231.49" cy="509.036" r="14.4" fill="#000000" fill-rule="evenodd" fill-opacity="0.5" stroke="none"/>
<circle clip-path="url(#clip702)" cx="1251.18" cy="567.874" r="14.4" fill="#000000" fill-rule="evenodd" fill-opacity="0.5" stroke="none"/>
<circle clip-path="url(#clip702)" cx="1270.86" cy="502.492" r="14.4" fill="#000000" fill-rule="evenodd" fill-opacity="0.5" stroke="none"/>
<circle clip-path="url(#clip702)" cx="1290.54" cy="392.35" r="14.4" fill="#000000" fill-rule="evenodd" fill-opacity="0.5" stroke="none"/>
<circle clip-path="url(#clip702)" cx="1310.22" cy="536.968" r="14.4" fill="#000000" fill-rule="evenodd" fill-opacity="0.5" stroke="none"/>
<circle clip-path="url(#clip702)" cx="1329.9" cy="482.428" r="14.4" fill="#000000" fill-rule="evenodd" fill-opacity="0.5" stroke="none"/>
<circle clip-path="url(#clip702)" cx="1349.58" cy="610.169" r="14.4" fill="#000000" fill-rule="evenodd" fill-opacity="0.5" stroke="none"/>
<circle clip-path="url(#clip702)" cx="1369.26" cy="477.608" r="14.4" fill="#000000" fill-rule="evenodd" fill-opacity="0.5" stroke="none"/>
<circle clip-path="url(#clip702)" cx="1388.95" cy="912.332" r="14.4" fill="#000000" fill-rule="evenodd" fill-opacity="0.5" stroke="none"/>
<circle clip-path="url(#clip702)" cx="1408.63" cy="539.018" r="14.4" fill="#000000" fill-rule="evenodd" fill-opacity="0.5" stroke="none"/>
<circle clip-path="url(#clip702)" cx="1428.31" cy="466.997" r="14.4" fill="#000000" fill-rule="evenodd" fill-opacity="0.5" stroke="none"/>
<circle clip-path="url(#clip702)" cx="1447.99" cy="414.583" r="14.4" fill="#000000" fill-rule="evenodd" fill-opacity="0.5" stroke="none"/>
<circle clip-path="url(#clip702)" cx="1467.67" cy="491.151" r="14.4" fill="#000000" fill-rule="evenodd" fill-opacity="0.5" stroke="none"/>
<circle clip-path="url(#clip702)" cx="1487.35" cy="352.86" r="14.4" fill="#000000" fill-rule="evenodd" fill-opacity="0.5" stroke="none"/>
<circle clip-path="url(#clip702)" cx="1507.04" cy="609.226" r="14.4" fill="#000000" fill-rule="evenodd" fill-opacity="0.5" stroke="none"/>
<circle clip-path="url(#clip702)" cx="1526.72" cy="654.822" r="14.4" fill="#000000" fill-rule="evenodd" fill-opacity="0.5" stroke="none"/>
<circle clip-path="url(#clip702)" cx="1546.4" cy="527.104" r="14.4" fill="#000000" fill-rule="evenodd" fill-opacity="0.5" stroke="none"/>
<circle clip-path="url(#clip702)" cx="1566.08" cy="512.09" r="14.4" fill="#000000" fill-rule="evenodd" fill-opacity="0.5" stroke="none"/>
<circle clip-path="url(#clip702)" cx="1585.76" cy="543.743" r="14.4" fill="#000000" fill-rule="evenodd" fill-opacity="0.5" stroke="none"/>
<circle clip-path="url(#clip702)" cx="1605.44" cy="184.198" r="14.4" fill="#000000" fill-rule="evenodd" fill-opacity="0.5" stroke="none"/>
<circle clip-path="url(#clip702)" cx="1625.13" cy="397.555" r="14.4" fill="#000000" fill-rule="evenodd" fill-opacity="0.5" stroke="none"/>
<circle clip-path="url(#clip702)" cx="1644.81" cy="481.89" r="14.4" fill="#000000" fill-rule="evenodd" fill-opacity="0.5" stroke="none"/>
<circle clip-path="url(#clip702)" cx="1664.49" cy="528.977" r="14.4" fill="#000000" fill-rule="evenodd" fill-opacity="0.5" stroke="none"/>
<circle clip-path="url(#clip702)" cx="1684.17" cy="625.746" r="14.4" fill="#000000" fill-rule="evenodd" fill-opacity="0.5" stroke="none"/>
<circle clip-path="url(#clip702)" cx="1703.85" cy="770.715" r="14.4" fill="#000000" fill-rule="evenodd" fill-opacity="0.5" stroke="none"/>
<circle clip-path="url(#clip702)" cx="1723.53" cy="622.29" r="14.4" fill="#000000" fill-rule="evenodd" fill-opacity="0.5" stroke="none"/>
<circle clip-path="url(#clip702)" cx="1743.22" cy="619.517" r="14.4" fill="#000000" fill-rule="evenodd" fill-opacity="0.5" stroke="none"/>
<circle clip-path="url(#clip702)" cx="1762.9" cy="524.776" r="14.4" fill="#000000" fill-rule="evenodd" fill-opacity="0.5" stroke="none"/>
<circle clip-path="url(#clip702)" cx="1782.58" cy="597.503" r="14.4" fill="#000000" fill-rule="evenodd" fill-opacity="0.5" stroke="none"/>
<circle clip-path="url(#clip702)" cx="1802.26" cy="476.894" r="14.4" fill="#000000" fill-rule="evenodd" fill-opacity="0.5" stroke="none"/>
<circle clip-path="url(#clip702)" cx="1821.94" cy="531.666" r="14.4" fill="#000000" fill-rule="evenodd" fill-opacity="0.5" stroke="none"/>
<circle clip-path="url(#clip702)" cx="1841.62" cy="537.545" r="14.4" fill="#000000" fill-rule="evenodd" fill-opacity="0.5" stroke="none"/>
<circle clip-path="url(#clip702)" cx="1861.31" cy="332.2" r="14.4" fill="#000000" fill-rule="evenodd" fill-opacity="0.5" stroke="none"/>
<circle clip-path="url(#clip702)" cx="1880.99" cy="516.389" r="14.4" fill="#000000" fill-rule="evenodd" fill-opacity="0.5" stroke="none"/>
<circle clip-path="url(#clip702)" cx="1900.67" cy="527.511" r="14.4" fill="#000000" fill-rule="evenodd" fill-opacity="0.5" stroke="none"/>
<circle clip-path="url(#clip702)" cx="1920.35" cy="516.028" r="14.4" fill="#000000" fill-rule="evenodd" fill-opacity="0.5" stroke="none"/>
<circle clip-path="url(#clip702)" cx="1940.03" cy="936.207" r="14.4" fill="#000000" fill-rule="evenodd" fill-opacity="0.5" stroke="none"/>
<circle clip-path="url(#clip702)" cx="1959.71" cy="812.834" r="14.4" fill="#000000" fill-rule="evenodd" fill-opacity="0.5" stroke="none"/>
<circle clip-path="url(#clip702)" cx="1979.4" cy="453.584" r="14.4" fill="#000000" fill-rule="evenodd" fill-opacity="0.5" stroke="none"/>
<circle clip-path="url(#clip702)" cx="1999.08" cy="602.735" r="14.4" fill="#000000" fill-rule="evenodd" fill-opacity="0.5" stroke="none"/>
<circle clip-path="url(#clip702)" cx="2018.76" cy="573.9" r="14.4" fill="#000000" fill-rule="evenodd" fill-opacity="0.5" stroke="none"/>
<circle clip-path="url(#clip702)" cx="2038.44" cy="467.722" r="14.4" fill="#000000" fill-rule="evenodd" fill-opacity="0.5" stroke="none"/>
<circle clip-path="url(#clip702)" cx="2058.12" cy="404.854" r="14.4" fill="#000000" fill-rule="evenodd" fill-opacity="0.5" stroke="none"/>
<circle clip-path="url(#clip702)" cx="2077.8" cy="545.382" r="14.4" fill="#000000" fill-rule="evenodd" fill-opacity="0.5" stroke="none"/>
<circle clip-path="url(#clip702)" cx="2097.49" cy="502.397" r="14.4" fill="#000000" fill-rule="evenodd" fill-opacity="0.5" stroke="none"/>
<circle clip-path="url(#clip702)" cx="2117.17" cy="556.5" r="14.4" fill="#000000" fill-rule="evenodd" fill-opacity="0.5" stroke="none"/>
<circle clip-path="url(#clip702)" cx="2136.85" cy="569.503" r="14.4" fill="#000000" fill-rule="evenodd" fill-opacity="0.5" stroke="none"/>
<circle clip-path="url(#clip702)" cx="2156.53" cy="491.974" r="14.4" fill="#000000" fill-rule="evenodd" fill-opacity="0.5" stroke="none"/>
<circle clip-path="url(#clip702)" cx="2176.21" cy="984.411" r="14.4" fill="#000000" fill-rule="evenodd" fill-opacity="0.5" stroke="none"/>
<circle clip-path="url(#clip702)" cx="2195.89" cy="561.34" r="14.4" fill="#000000" fill-rule="evenodd" fill-opacity="0.5" stroke="none"/>
<circle clip-path="url(#clip702)" cx="2215.57" cy="487.844" r="14.4" fill="#000000" fill-rule="evenodd" fill-opacity="0.5" stroke="none"/>
<circle clip-path="url(#clip702)" cx="2235.26" cy="622.54" r="14.4" fill="#000000" fill-rule="evenodd" fill-opacity="0.5" stroke="none"/>
<circle clip-path="url(#clip702)" cx="2254.94" cy="525.203" r="14.4" fill="#000000" fill-rule="evenodd" fill-opacity="0.5" stroke="none"/>
<circle clip-path="url(#clip702)" cx="2274.62" cy="384.811" r="14.4" fill="#000000" fill-rule="evenodd" fill-opacity="0.5" stroke="none"/>
<circle clip-path="url(#clip702)" cx="2294.3" cy="268.779" r="14.4" fill="#000000" fill-rule="evenodd" fill-opacity="0.5" stroke="none"/>
<polyline clip-path="url(#clip702)" style="stroke:#000000; stroke-linecap:round; stroke-linejoin:round; stroke-width:4; stroke-opacity:1; fill:none" points="-1778.02,560.044 4418.15,560.044 "/>
<circle clip-path="url(#clip702)" cx="345.82" cy="278.757" r="14.4" fill="#ff0000" fill-rule="evenodd" fill-opacity="0.5" stroke="none"/>
<circle clip-path="url(#clip702)" cx="365.502" cy="407.686" r="14.4" fill="#ff0000" fill-rule="evenodd" fill-opacity="0.5" stroke="none"/>
<circle clip-path="url(#clip702)" cx="385.184" cy="525.617" r="14.4" fill="#ff0000" fill-rule="evenodd" fill-opacity="0.5" stroke="none"/>
<circle clip-path="url(#clip702)" cx="404.865" cy="546.446" r="14.4" fill="#ff0000" fill-rule="evenodd" fill-opacity="0.5" stroke="none"/>
<circle clip-path="url(#clip702)" cx="424.547" cy="489.042" r="14.4" fill="#ff0000" fill-rule="evenodd" fill-opacity="0.5" stroke="none"/>
<circle clip-path="url(#clip702)" cx="444.228" cy="552.035" r="14.4" fill="#ff0000" fill-rule="evenodd" fill-opacity="0.5" stroke="none"/>
<circle clip-path="url(#clip702)" cx="463.91" cy="976.254" r="14.4" fill="#ff0000" fill-rule="evenodd" fill-opacity="0.5" stroke="none"/>
<circle clip-path="url(#clip702)" cx="483.592" cy="495.212" r="14.4" fill="#ff0000" fill-rule="evenodd" fill-opacity="0.5" stroke="none"/>
<circle clip-path="url(#clip702)" cx="503.273" cy="569.731" r="14.4" fill="#ff0000" fill-rule="evenodd" fill-opacity="0.5" stroke="none"/>
<circle clip-path="url(#clip702)" cx="522.955" cy="554.955" r="14.4" fill="#ff0000" fill-rule="evenodd" fill-opacity="0.5" stroke="none"/>
<circle clip-path="url(#clip702)" cx="542.637" cy="503.678" r="14.4" fill="#ff0000" fill-rule="evenodd" fill-opacity="0.5" stroke="none"/>
<circle clip-path="url(#clip702)" cx="562.318" cy="545.474" r="14.4" fill="#ff0000" fill-rule="evenodd" fill-opacity="0.5" stroke="none"/>
<circle clip-path="url(#clip702)" cx="582" cy="410.534" r="14.4" fill="#ff0000" fill-rule="evenodd" fill-opacity="0.5" stroke="none"/>
<circle clip-path="url(#clip702)" cx="601.681" cy="464.062" r="14.4" fill="#ff0000" fill-rule="evenodd" fill-opacity="0.5" stroke="none"/>
<circle clip-path="url(#clip702)" cx="621.363" cy="586.041" r="14.4" fill="#ff0000" fill-rule="evenodd" fill-opacity="0.5" stroke="none"/>
<circle clip-path="url(#clip702)" cx="641.045" cy="590.871" r="14.4" fill="#ff0000" fill-rule="evenodd" fill-opacity="0.5" stroke="none"/>
<circle clip-path="url(#clip702)" cx="660.726" cy="454.819" r="14.4" fill="#ff0000" fill-rule="evenodd" fill-opacity="0.5" stroke="none"/>
<circle clip-path="url(#clip702)" cx="680.408" cy="796.453" r="14.4" fill="#ff0000" fill-rule="evenodd" fill-opacity="0.5" stroke="none"/>
<circle clip-path="url(#clip702)" cx="700.09" cy="929.138" r="14.4" fill="#ff0000" fill-rule="evenodd" fill-opacity="0.5" stroke="none"/>
<circle clip-path="url(#clip702)" cx="719.771" cy="517.807" r="14.4" fill="#ff0000" fill-rule="evenodd" fill-opacity="0.5" stroke="none"/>
<circle clip-path="url(#clip702)" cx="739.453" cy="528.964" r="14.4" fill="#ff0000" fill-rule="evenodd" fill-opacity="0.5" stroke="none"/>
<circle clip-path="url(#clip702)" cx="759.135" cy="518.165" r="14.4" fill="#ff0000" fill-rule="evenodd" fill-opacity="0.5" stroke="none"/>
<circle clip-path="url(#clip702)" cx="778.816" cy="346.863" r="14.4" fill="#ff0000" fill-rule="evenodd" fill-opacity="0.5" stroke="none"/>
<circle clip-path="url(#clip702)" cx="798.498" cy="539.318" r="14.4" fill="#ff0000" fill-rule="evenodd" fill-opacity="0.5" stroke="none"/>
<circle clip-path="url(#clip702)" cx="818.179" cy="532.357" r="14.4" fill="#ff0000" fill-rule="evenodd" fill-opacity="0.5" stroke="none"/>
<circle clip-path="url(#clip702)" cx="837.861" cy="477.799" r="14.4" fill="#ff0000" fill-rule="evenodd" fill-opacity="0.5" stroke="none"/>
<circle clip-path="url(#clip702)" cx="857.543" cy="595.443" r="14.4" fill="#ff0000" fill-rule="evenodd" fill-opacity="0.5" stroke="none"/>
<circle clip-path="url(#clip702)" cx="877.224" cy="525.784" r="14.4" fill="#ff0000" fill-rule="evenodd" fill-opacity="0.5" stroke="none"/>
<circle clip-path="url(#clip702)" cx="896.906" cy="620.582" r="14.4" fill="#ff0000" fill-rule="evenodd" fill-opacity="0.5" stroke="none"/>
<circle clip-path="url(#clip702)" cx="916.588" cy="621.744" r="14.4" fill="#ff0000" fill-rule="evenodd" fill-opacity="0.5" stroke="none"/>
<circle clip-path="url(#clip702)" cx="936.269" cy="764.62" r="14.4" fill="#ff0000" fill-rule="evenodd" fill-opacity="0.5" stroke="none"/>
<circle clip-path="url(#clip702)" cx="955.951" cy="620.77" r="14.4" fill="#ff0000" fill-rule="evenodd" fill-opacity="0.5" stroke="none"/>
<circle clip-path="url(#clip702)" cx="975.632" cy="531.15" r="14.4" fill="#ff0000" fill-rule="evenodd" fill-opacity="0.5" stroke="none"/>
<circle clip-path="url(#clip702)" cx="995.314" cy="489.209" r="14.4" fill="#ff0000" fill-rule="evenodd" fill-opacity="0.5" stroke="none"/>
<circle clip-path="url(#clip702)" cx="1015" cy="398.35" r="14.4" fill="#ff0000" fill-rule="evenodd" fill-opacity="0.5" stroke="none"/>
<circle clip-path="url(#clip702)" cx="1034.68" cy="200.594" r="14.4" fill="#ff0000" fill-rule="evenodd" fill-opacity="0.5" stroke="none"/>
<circle clip-path="url(#clip702)" cx="1054.36" cy="545.17" r="14.4" fill="#ff0000" fill-rule="evenodd" fill-opacity="0.5" stroke="none"/>
<circle clip-path="url(#clip702)" cx="1074.04" cy="513.908" r="14.4" fill="#ff0000" fill-rule="evenodd" fill-opacity="0.5" stroke="none"/>
<circle clip-path="url(#clip702)" cx="1093.72" cy="528.779" r="14.4" fill="#ff0000" fill-rule="evenodd" fill-opacity="0.5" stroke="none"/>
<circle clip-path="url(#clip702)" cx="1113.4" cy="652.919" r="14.4" fill="#ff0000" fill-rule="evenodd" fill-opacity="0.5" stroke="none"/>
<circle clip-path="url(#clip702)" cx="1133.09" cy="608.876" r="14.4" fill="#ff0000" fill-rule="evenodd" fill-opacity="0.5" stroke="none"/>
<circle clip-path="url(#clip702)" cx="1152.77" cy="355.968" r="14.4" fill="#ff0000" fill-rule="evenodd" fill-opacity="0.5" stroke="none"/>
<circle clip-path="url(#clip702)" cx="1172.45" cy="492.819" r="14.4" fill="#ff0000" fill-rule="evenodd" fill-opacity="0.5" stroke="none"/>
<circle clip-path="url(#clip702)" cx="1192.13" cy="420.814" r="14.4" fill="#ff0000" fill-rule="evenodd" fill-opacity="0.5" stroke="none"/>
<circle clip-path="url(#clip702)" cx="1211.81" cy="474.753" r="14.4" fill="#ff0000" fill-rule="evenodd" fill-opacity="0.5" stroke="none"/>
<circle clip-path="url(#clip702)" cx="1231.49" cy="540.974" r="14.4" fill="#ff0000" fill-rule="evenodd" fill-opacity="0.5" stroke="none"/>
<circle clip-path="url(#clip702)" cx="1251.18" cy="891.806" r="14.4" fill="#ff0000" fill-rule="evenodd" fill-opacity="0.5" stroke="none"/>
<circle clip-path="url(#clip702)" cx="1270.86" cy="479.557" r="14.4" fill="#ff0000" fill-rule="evenodd" fill-opacity="0.5" stroke="none"/>
<circle clip-path="url(#clip702)" cx="1290.54" cy="607.227" r="14.4" fill="#ff0000" fill-rule="evenodd" fill-opacity="0.5" stroke="none"/>
<circle clip-path="url(#clip702)" cx="1310.22" cy="482.642" r="14.4" fill="#ff0000" fill-rule="evenodd" fill-opacity="0.5" stroke="none"/>
<circle clip-path="url(#clip702)" cx="1329.9" cy="537.689" r="14.4" fill="#ff0000" fill-rule="evenodd" fill-opacity="0.5" stroke="none"/>
<circle clip-path="url(#clip702)" cx="1349.58" cy="396.268" r="14.4" fill="#ff0000" fill-rule="evenodd" fill-opacity="0.5" stroke="none"/>
<circle clip-path="url(#clip702)" cx="1369.26" cy="502.213" r="14.4" fill="#ff0000" fill-rule="evenodd" fill-opacity="0.5" stroke="none"/>
<circle clip-path="url(#clip702)" cx="1388.95" cy="567.144" r="14.4" fill="#ff0000" fill-rule="evenodd" fill-opacity="0.5" stroke="none"/>
<circle clip-path="url(#clip702)" cx="1408.63" cy="510.152" r="14.4" fill="#ff0000" fill-rule="evenodd" fill-opacity="0.5" stroke="none"/>
<circle clip-path="url(#clip702)" cx="1428.31" cy="454.36" r="14.4" fill="#ff0000" fill-rule="evenodd" fill-opacity="0.5" stroke="none"/>
<circle clip-path="url(#clip702)" cx="1447.99" cy="457.362" r="14.4" fill="#ff0000" fill-rule="evenodd" fill-opacity="0.5" stroke="none"/>
<circle clip-path="url(#clip702)" cx="1467.67" cy="505.664" r="14.4" fill="#ff0000" fill-rule="evenodd" fill-opacity="0.5" stroke="none"/>
<circle clip-path="url(#clip702)" cx="1487.35" cy="475.483" r="14.4" fill="#ff0000" fill-rule="evenodd" fill-opacity="0.5" stroke="none"/>
<circle clip-path="url(#clip702)" cx="1507.04" cy="201.984" r="14.4" fill="#ff0000" fill-rule="evenodd" fill-opacity="0.5" stroke="none"/>
<circle clip-path="url(#clip702)" cx="1526.72" cy="477.337" r="14.4" fill="#ff0000" fill-rule="evenodd" fill-opacity="0.5" stroke="none"/>
<circle clip-path="url(#clip702)" cx="1546.4" cy="658.645" r="14.4" fill="#ff0000" fill-rule="evenodd" fill-opacity="0.5" stroke="none"/>
<circle clip-path="url(#clip702)" cx="1566.08" cy="530.374" r="14.4" fill="#ff0000" fill-rule="evenodd" fill-opacity="0.5" stroke="none"/>
<circle clip-path="url(#clip702)" cx="1585.76" cy="531.76" r="14.4" fill="#ff0000" fill-rule="evenodd" fill-opacity="0.5" stroke="none"/>
<circle clip-path="url(#clip702)" cx="1605.44" cy="768.872" r="14.4" fill="#ff0000" fill-rule="evenodd" fill-opacity="0.5" stroke="none"/>
<circle clip-path="url(#clip702)" cx="1625.13" cy="1073.04" r="14.4" fill="#ff0000" fill-rule="evenodd" fill-opacity="0.5" stroke="none"/>
<circle clip-path="url(#clip702)" cx="1644.81" cy="442.676" r="14.4" fill="#ff0000" fill-rule="evenodd" fill-opacity="0.5" stroke="none"/>
<circle clip-path="url(#clip702)" cx="1664.49" cy="676.264" r="14.4" fill="#ff0000" fill-rule="evenodd" fill-opacity="0.5" stroke="none"/>
<circle clip-path="url(#clip702)" cx="1684.17" cy="906.459" r="14.4" fill="#ff0000" fill-rule="evenodd" fill-opacity="0.5" stroke="none"/>
<circle clip-path="url(#clip702)" cx="1703.85" cy="734.907" r="14.4" fill="#ff0000" fill-rule="evenodd" fill-opacity="0.5" stroke="none"/>
<circle clip-path="url(#clip702)" cx="1723.53" cy="551.2" r="14.4" fill="#ff0000" fill-rule="evenodd" fill-opacity="0.5" stroke="none"/>
<circle clip-path="url(#clip702)" cx="1743.22" cy="1252.69" r="14.4" fill="#ff0000" fill-rule="evenodd" fill-opacity="0.5" stroke="none"/>
<circle clip-path="url(#clip702)" cx="1762.9" cy="873.305" r="14.4" fill="#ff0000" fill-rule="evenodd" fill-opacity="0.5" stroke="none"/>
<circle clip-path="url(#clip702)" cx="1782.58" cy="566.827" r="14.4" fill="#ff0000" fill-rule="evenodd" fill-opacity="0.5" stroke="none"/>
<circle clip-path="url(#clip702)" cx="1802.26" cy="556.702" r="14.4" fill="#ff0000" fill-rule="evenodd" fill-opacity="0.5" stroke="none"/>
<circle clip-path="url(#clip702)" cx="1821.94" cy="592.782" r="14.4" fill="#ff0000" fill-rule="evenodd" fill-opacity="0.5" stroke="none"/>
<circle clip-path="url(#clip702)" cx="1841.62" cy="533.526" r="14.4" fill="#ff0000" fill-rule="evenodd" fill-opacity="0.5" stroke="none"/>
<circle clip-path="url(#clip702)" cx="1861.31" cy="448.434" r="14.4" fill="#ff0000" fill-rule="evenodd" fill-opacity="0.5" stroke="none"/>
<circle clip-path="url(#clip702)" cx="1880.99" cy="620.293" r="14.4" fill="#ff0000" fill-rule="evenodd" fill-opacity="0.5" stroke="none"/>
<circle clip-path="url(#clip702)" cx="1900.67" cy="479.778" r="14.4" fill="#ff0000" fill-rule="evenodd" fill-opacity="0.5" stroke="none"/>
<circle clip-path="url(#clip702)" cx="1920.35" cy="701.272" r="14.4" fill="#ff0000" fill-rule="evenodd" fill-opacity="0.5" stroke="none"/>
<circle clip-path="url(#clip702)" cx="1940.03" cy="249.065" r="14.4" fill="#ff0000" fill-rule="evenodd" fill-opacity="0.5" stroke="none"/>
<circle clip-path="url(#clip702)" cx="1959.71" cy="595.601" r="14.4" fill="#ff0000" fill-rule="evenodd" fill-opacity="0.5" stroke="none"/>
<circle clip-path="url(#clip702)" cx="1979.4" cy="936.038" r="14.4" fill="#ff0000" fill-rule="evenodd" fill-opacity="0.5" stroke="none"/>
<circle clip-path="url(#clip702)" cx="1999.08" cy="545.346" r="14.4" fill="#ff0000" fill-rule="evenodd" fill-opacity="0.5" stroke="none"/>
<circle clip-path="url(#clip702)" cx="2018.76" cy="277.458" r="14.4" fill="#ff0000" fill-rule="evenodd" fill-opacity="0.5" stroke="none"/>
<circle clip-path="url(#clip702)" cx="2038.44" cy="525.41" r="14.4" fill="#ff0000" fill-rule="evenodd" fill-opacity="0.5" stroke="none"/>
<circle clip-path="url(#clip702)" cx="2058.12" cy="373.741" r="14.4" fill="#ff0000" fill-rule="evenodd" fill-opacity="0.5" stroke="none"/>
<circle clip-path="url(#clip702)" cx="2077.8" cy="519.079" r="14.4" fill="#ff0000" fill-rule="evenodd" fill-opacity="0.5" stroke="none"/>
<circle clip-path="url(#clip702)" cx="2097.49" cy="636.816" r="14.4" fill="#ff0000" fill-rule="evenodd" fill-opacity="0.5" stroke="none"/>
<circle clip-path="url(#clip702)" cx="2117.17" cy="476.12" r="14.4" fill="#ff0000" fill-rule="evenodd" fill-opacity="0.5" stroke="none"/>
<circle clip-path="url(#clip702)" cx="2136.85" cy="410.825" r="14.4" fill="#ff0000" fill-rule="evenodd" fill-opacity="0.5" stroke="none"/>
<circle clip-path="url(#clip702)" cx="2156.53" cy="560.986" r="14.4" fill="#ff0000" fill-rule="evenodd" fill-opacity="0.5" stroke="none"/>
<circle clip-path="url(#clip702)" cx="2176.21" cy="482.972" r="14.4" fill="#ff0000" fill-rule="evenodd" fill-opacity="0.5" stroke="none"/>
<circle clip-path="url(#clip702)" cx="2195.89" cy="544.719" r="14.4" fill="#ff0000" fill-rule="evenodd" fill-opacity="0.5" stroke="none"/>
<circle clip-path="url(#clip702)" cx="2215.57" cy="574.543" r="14.4" fill="#ff0000" fill-rule="evenodd" fill-opacity="0.5" stroke="none"/>
<circle clip-path="url(#clip702)" cx="2235.26" cy="566.328" r="14.4" fill="#ff0000" fill-rule="evenodd" fill-opacity="0.5" stroke="none"/>
<circle clip-path="url(#clip702)" cx="2254.94" cy="428.718" r="14.4" fill="#ff0000" fill-rule="evenodd" fill-opacity="0.5" stroke="none"/>
<circle clip-path="url(#clip702)" cx="2274.62" cy="714.056" r="14.4" fill="#ff0000" fill-rule="evenodd" fill-opacity="0.5" stroke="none"/>
<circle clip-path="url(#clip702)" cx="2294.3" cy="898.579" r="14.4" fill="#ff0000" fill-rule="evenodd" fill-opacity="0.5" stroke="none"/>
<polyline clip-path="url(#clip702)" style="stroke:#ff0000; stroke-linecap:round; stroke-linejoin:round; stroke-width:4; stroke-opacity:1; fill:none" points="-1778.02,560.044 4418.15,560.044 "/>
<path clip-path="url(#clip700)" d="M1866.77 1379.86 L2283.91 1379.86 L2283.91 1224.34 L1866.77 1224.34  Z" fill="#ffffff" fill-rule="evenodd" fill-opacity="1"/>
<polyline clip-path="url(#clip700)" style="stroke:#000000; stroke-linecap:round; stroke-linejoin:round; stroke-width:4; stroke-opacity:1; fill:none" points="1866.77,1379.86 2283.91,1379.86 2283.91,1224.34 1866.77,1224.34 1866.77,1379.86 "/>
<circle clip-path="url(#clip700)" cx="1958.56" cy="1276.18" r="23.04" fill="#000000" fill-rule="evenodd" fill-opacity="0.5" stroke="none"/>
<path clip-path="url(#clip700)" d="M2055.68 1267.53 L2059.94 1267.53 L2059.94 1293.92 Q2059.94 1298.87 2058.05 1301.1 Q2056.17 1303.32 2051.98 1303.32 L2050.36 1303.32 L2050.36 1299.71 L2051.49 1299.71 Q2053.92 1299.71 2054.8 1298.57 Q2055.68 1297.46 2055.68 1293.92 L2055.68 1267.53 M2055.68 1257.44 L2059.94 1257.44 L2059.94 1262.83 L2055.68 1262.83 L2055.68 1257.44 Z" fill="#000000" fill-rule="nonzero" fill-opacity="1" /><path clip-path="url(#clip700)" d="M2080.64 1280.42 Q2075.48 1280.42 2073.48 1281.6 Q2071.49 1282.79 2071.49 1285.63 Q2071.49 1287.9 2072.98 1289.24 Q2074.48 1290.56 2077.05 1290.56 Q2080.59 1290.56 2082.72 1288.06 Q2084.87 1285.54 2084.87 1281.37 L2084.87 1280.42 L2080.64 1280.42 M2089.13 1278.66 L2089.13 1293.46 L2084.87 1293.46 L2084.87 1289.52 Q2083.42 1291.88 2081.24 1293.02 Q2079.06 1294.13 2075.92 1294.13 Q2071.93 1294.13 2069.57 1291.91 Q2067.23 1289.66 2067.23 1285.91 Q2067.23 1281.54 2070.15 1279.31 Q2073.09 1277.09 2078.9 1277.09 L2084.87 1277.09 L2084.87 1276.67 Q2084.87 1273.73 2082.93 1272.14 Q2081.01 1270.52 2077.51 1270.52 Q2075.29 1270.52 2073.18 1271.05 Q2071.08 1271.58 2069.13 1272.65 L2069.13 1268.71 Q2071.47 1267.81 2073.67 1267.37 Q2075.87 1266.91 2077.95 1266.91 Q2083.58 1266.91 2086.36 1269.82 Q2089.13 1272.74 2089.13 1278.66 Z" fill="#000000" fill-rule="nonzero" fill-opacity="1" /><path clip-path="url(#clip700)" d="M2116.56 1268.53 L2116.56 1272.51 Q2114.76 1271.51 2112.93 1271.03 Q2111.12 1270.52 2109.27 1270.52 Q2105.13 1270.52 2102.84 1273.16 Q2100.54 1275.77 2100.54 1280.52 Q2100.54 1285.26 2102.84 1287.9 Q2105.13 1290.52 2109.27 1290.52 Q2111.12 1290.52 2112.93 1290.03 Q2114.76 1289.52 2116.56 1288.53 L2116.56 1292.46 Q2114.78 1293.29 2112.86 1293.71 Q2110.96 1294.13 2108.81 1294.13 Q2102.95 1294.13 2099.5 1290.45 Q2096.05 1286.77 2096.05 1280.52 Q2096.05 1274.17 2099.53 1270.54 Q2103.02 1266.91 2109.09 1266.91 Q2111.05 1266.91 2112.93 1267.32 Q2114.8 1267.72 2116.56 1268.53 Z" fill="#000000" fill-rule="nonzero" fill-opacity="1" /><path clip-path="url(#clip700)" d="M2123.81 1257.44 L2128.09 1257.44 L2128.09 1278.71 L2140.8 1267.53 L2146.24 1267.53 L2132.49 1279.66 L2146.82 1293.46 L2141.26 1293.46 L2128.09 1280.79 L2128.09 1293.46 L2123.81 1293.46 L2123.81 1257.44 Z" fill="#000000" fill-rule="nonzero" fill-opacity="1" /><path clip-path="url(#clip700)" d="M2151.26 1257.44 L2155.54 1257.44 L2155.54 1278.71 L2168.25 1267.53 L2173.69 1267.53 L2159.94 1279.66 L2174.27 1293.46 L2168.72 1293.46 L2155.54 1280.79 L2155.54 1293.46 L2151.26 1293.46 L2151.26 1257.44 Z" fill="#000000" fill-rule="nonzero" fill-opacity="1" /><path clip-path="url(#clip700)" d="M2200.43 1277.81 L2200.43 1293.46 L2196.17 1293.46 L2196.17 1277.95 Q2196.17 1274.27 2194.73 1272.44 Q2193.3 1270.61 2190.43 1270.61 Q2186.98 1270.61 2184.99 1272.81 Q2183 1275.01 2183 1278.8 L2183 1293.46 L2178.72 1293.46 L2178.72 1267.53 L2183 1267.53 L2183 1271.56 Q2184.53 1269.22 2186.59 1268.06 Q2188.67 1266.91 2191.38 1266.91 Q2195.85 1266.91 2198.14 1269.68 Q2200.43 1272.44 2200.43 1277.81 Z" fill="#000000" fill-rule="nonzero" fill-opacity="1" /><path clip-path="url(#clip700)" d="M2208.92 1267.53 L2213.18 1267.53 L2213.18 1293.46 L2208.92 1293.46 L2208.92 1267.53 M2208.92 1257.44 L2213.18 1257.44 L2213.18 1262.83 L2208.92 1262.83 L2208.92 1257.44 Z" fill="#000000" fill-rule="nonzero" fill-opacity="1" /><path clip-path="url(#clip700)" d="M2235.22 1257.44 L2235.22 1260.98 L2231.15 1260.98 Q2228.85 1260.98 2227.95 1261.91 Q2227.07 1262.83 2227.07 1265.24 L2227.07 1267.53 L2234.09 1267.53 L2234.09 1270.84 L2227.07 1270.84 L2227.07 1293.46 L2222.79 1293.46 L2222.79 1270.84 L2218.72 1270.84 L2218.72 1267.53 L2222.79 1267.53 L2222.79 1265.72 Q2222.79 1261.4 2224.8 1259.43 Q2226.82 1257.44 2231.19 1257.44 L2235.22 1257.44 Z" fill="#000000" fill-rule="nonzero" fill-opacity="1" /><path clip-path="url(#clip700)" d="M2260.96 1279.43 L2260.96 1281.51 L2241.38 1281.51 Q2241.66 1285.91 2244.02 1288.22 Q2246.4 1290.52 2250.64 1290.52 Q2253.09 1290.52 2255.38 1289.91 Q2257.7 1289.31 2259.97 1288.11 L2259.97 1292.14 Q2257.67 1293.11 2255.27 1293.62 Q2252.86 1294.13 2250.38 1294.13 Q2244.18 1294.13 2240.54 1290.52 Q2236.93 1286.91 2236.93 1280.75 Q2236.93 1274.38 2240.36 1270.66 Q2243.81 1266.91 2249.64 1266.91 Q2254.87 1266.91 2257.91 1270.29 Q2260.96 1273.64 2260.96 1279.43 M2256.7 1278.18 Q2256.66 1274.68 2254.73 1272.6 Q2252.84 1270.52 2249.69 1270.52 Q2246.12 1270.52 2243.97 1272.53 Q2241.84 1274.54 2241.52 1278.2 L2256.7 1278.18 Z" fill="#000000" fill-rule="nonzero" fill-opacity="1" /><circle clip-path="url(#clip700)" cx="1958.56" cy="1328.02" r="23.04" fill="#ff0000" fill-rule="evenodd" fill-opacity="0.5" stroke="none"/>
<path clip-path="url(#clip700)" d="M2069.27 1323.31 L2069.27 1309.28 L2073.53 1309.28 L2073.53 1345.3 L2069.27 1345.3 L2069.27 1341.41 Q2067.93 1343.72 2065.87 1344.86 Q2063.83 1345.97 2060.96 1345.97 Q2056.26 1345.97 2053.3 1342.22 Q2050.36 1338.47 2050.36 1332.36 Q2050.36 1326.25 2053.3 1322.5 Q2056.26 1318.75 2060.96 1318.75 Q2063.83 1318.75 2065.87 1319.88 Q2067.93 1320.99 2069.27 1323.31 M2054.76 1332.36 Q2054.76 1337.06 2056.68 1339.74 Q2058.62 1342.4 2062 1342.4 Q2065.38 1342.4 2067.33 1339.74 Q2069.27 1337.06 2069.27 1332.36 Q2069.27 1327.66 2067.33 1325 Q2065.38 1322.31 2062 1322.31 Q2058.62 1322.31 2056.68 1325 Q2054.76 1327.66 2054.76 1332.36 Z" fill="#000000" fill-rule="nonzero" fill-opacity="1" /><path clip-path="url(#clip700)" d="M2095.43 1309.28 L2095.43 1312.82 L2091.36 1312.82 Q2089.06 1312.82 2088.16 1313.75 Q2087.28 1314.67 2087.28 1317.08 L2087.28 1319.37 L2094.3 1319.37 L2094.3 1322.68 L2087.28 1322.68 L2087.28 1345.3 L2083 1345.3 L2083 1322.68 L2078.92 1322.68 L2078.92 1319.37 L2083 1319.37 L2083 1317.56 Q2083 1313.24 2085.01 1311.27 Q2087.03 1309.28 2091.4 1309.28 L2095.43 1309.28 Z" fill="#000000" fill-rule="nonzero" fill-opacity="1" /><path clip-path="url(#clip700)" d="M2117.61 1332.36 Q2117.61 1327.66 2115.66 1325 Q2113.74 1322.31 2110.36 1322.31 Q2106.98 1322.31 2105.04 1325 Q2103.11 1327.66 2103.11 1332.36 Q2103.11 1337.06 2105.04 1339.74 Q2106.98 1342.4 2110.36 1342.4 Q2113.74 1342.4 2115.66 1339.74 Q2117.61 1337.06 2117.61 1332.36 M2103.11 1323.31 Q2104.46 1320.99 2106.49 1319.88 Q2108.55 1318.75 2111.4 1318.75 Q2116.12 1318.75 2119.06 1322.5 Q2122.03 1326.25 2122.03 1332.36 Q2122.03 1338.47 2119.06 1342.22 Q2116.12 1345.97 2111.4 1345.97 Q2108.55 1345.97 2106.49 1344.86 Q2104.46 1343.72 2103.11 1341.41 L2103.11 1345.3 L2098.83 1345.3 L2098.83 1309.28 L2103.11 1309.28 L2103.11 1323.31 Z" fill="#000000" fill-rule="nonzero" fill-opacity="1" /><path clip-path="url(#clip700)" d="M2151.26 1331.27 L2151.26 1333.35 L2131.68 1333.35 Q2131.96 1337.75 2134.32 1340.06 Q2136.7 1342.36 2140.94 1342.36 Q2143.39 1342.36 2145.68 1341.75 Q2148 1341.15 2150.27 1339.95 L2150.27 1343.98 Q2147.98 1344.95 2145.57 1345.46 Q2143.16 1345.97 2140.68 1345.97 Q2134.48 1345.97 2130.85 1342.36 Q2127.23 1338.75 2127.23 1332.59 Q2127.23 1326.22 2130.66 1322.5 Q2134.11 1318.75 2139.94 1318.75 Q2145.17 1318.75 2148.21 1322.13 Q2151.26 1325.48 2151.26 1331.27 M2147 1330.02 Q2146.96 1326.52 2145.04 1324.44 Q2143.14 1322.36 2139.99 1322.36 Q2136.42 1322.36 2134.27 1324.37 Q2132.14 1326.38 2131.82 1330.04 L2147 1330.02 Z" fill="#000000" fill-rule="nonzero" fill-opacity="1" /><path clip-path="url(#clip700)" d="M2162.47 1312.01 L2162.47 1319.37 L2171.24 1319.37 L2171.24 1322.68 L2162.47 1322.68 L2162.47 1336.75 Q2162.47 1339.93 2163.32 1340.83 Q2164.2 1341.73 2166.86 1341.73 L2171.24 1341.73 L2171.24 1345.3 L2166.86 1345.3 Q2161.93 1345.3 2160.06 1343.47 Q2158.18 1341.62 2158.18 1336.75 L2158.18 1322.68 L2155.06 1322.68 L2155.06 1319.37 L2158.18 1319.37 L2158.18 1312.01 L2162.47 1312.01 Z" fill="#000000" fill-rule="nonzero" fill-opacity="1" /><path clip-path="url(#clip700)" d="M2188.62 1332.26 Q2183.46 1332.26 2181.47 1333.44 Q2179.48 1334.63 2179.48 1337.47 Q2179.48 1339.74 2180.96 1341.08 Q2182.47 1342.4 2185.04 1342.4 Q2188.58 1342.4 2190.71 1339.9 Q2192.86 1337.38 2192.86 1333.21 L2192.86 1332.26 L2188.62 1332.26 M2197.12 1330.5 L2197.12 1345.3 L2192.86 1345.3 L2192.86 1341.36 Q2191.4 1343.72 2189.23 1344.86 Q2187.05 1345.97 2183.9 1345.97 Q2179.92 1345.97 2177.56 1343.75 Q2175.22 1341.5 2175.22 1337.75 Q2175.22 1333.38 2178.14 1331.15 Q2181.08 1328.93 2186.89 1328.93 L2192.86 1328.93 L2192.86 1328.51 Q2192.86 1325.57 2190.91 1323.98 Q2188.99 1322.36 2185.5 1322.36 Q2183.28 1322.36 2181.17 1322.89 Q2179.06 1323.42 2177.12 1324.49 L2177.12 1320.55 Q2179.46 1319.65 2181.66 1319.21 Q2183.85 1318.75 2185.94 1318.75 Q2191.56 1318.75 2194.34 1321.66 Q2197.12 1324.58 2197.12 1330.5 Z" fill="#000000" fill-rule="nonzero" fill-opacity="1" /></svg>
