<?xml version="1.0" encoding="utf-8"?>
<svg xmlns="http://www.w3.org/2000/svg" xmlns:xlink="http://www.w3.org/1999/xlink" width="600" height="400" viewBox="0 0 2400 1600">
<defs>
  <clipPath id="clip580">
    <rect x="0" y="0" width="2400" height="1600"/>
  </clipPath>
</defs>
<path clip-path="url(#clip580)" d="M0 1600 L2400 1600 L2400 0 L0 0  Z" fill="#ffffff" fill-rule="evenodd" fill-opacity="1"/>
<defs>
  <clipPath id="clip581">
    <rect x="480" y="0" width="1681" height="1600"/>
  </clipPath>
</defs>
<path clip-path="url(#clip580)" d="M256.209 1423.18 L2352.76 1423.18 L2352.76 47.2441 L256.209 47.2441  Z" fill="#ffffff" fill-rule="evenodd" fill-opacity="1"/>
<defs>
  <clipPath id="clip582">
    <rect x="256" y="47" width="2098" height="1377"/>
  </clipPath>
</defs>
<polyline clip-path="url(#clip582)" style="stroke:#000000; stroke-linecap:round; stroke-linejoin:round; stroke-width:2; stroke-opacity:0.1; fill:none" points="458.787,1423.18 458.787,47.2441 "/>
<polyline clip-path="url(#clip582)" style="stroke:#000000; stroke-linecap:round; stroke-linejoin:round; stroke-width:2; stroke-opacity:0.1; fill:none" points="851.024,1423.18 851.024,47.2441 "/>
<polyline clip-path="url(#clip582)" style="stroke:#000000; stroke-linecap:round; stroke-linejoin:round; stroke-width:2; stroke-opacity:0.1; fill:none" points="1243.26,1423.18 1243.26,47.2441 "/>
<polyline clip-path="url(#clip582)" style="stroke:#000000; stroke-linecap:round; stroke-linejoin:round; stroke-width:2; stroke-opacity:0.1; fill:none" points="1635.5,1423.18 1635.5,47.2441 "/>
<polyline clip-path="url(#clip582)" style="stroke:#000000; stroke-linecap:round; stroke-linejoin:round; stroke-width:2; stroke-opacity:0.1; fill:none" points="2027.73,1423.18 2027.73,47.2441 "/>
<polyline clip-path="url(#clip580)" style="stroke:#000000; stroke-linecap:round; stroke-linejoin:round; stroke-width:4; stroke-opacity:1; fill:none" points="256.209,1423.18 2352.76,1423.18 "/>
<polyline clip-path="url(#clip580)" style="stroke:#000000; stroke-linecap:round; stroke-linejoin:round; stroke-width:4; stroke-opacity:1; fill:none" points="458.787,1423.18 458.787,1404.28 "/>
<polyline clip-path="url(#clip580)" style="stroke:#000000; stroke-linecap:round; stroke-linejoin:round; stroke-width:4; stroke-opacity:1; fill:none" points="851.024,1423.18 851.024,1404.28 "/>
<polyline clip-path="url(#clip580)" style="stroke:#000000; stroke-linecap:round; stroke-linejoin:round; stroke-width:4; stroke-opacity:1; fill:none" points="1243.26,1423.18 1243.26,1404.28 "/>
<polyline clip-path="url(#clip580)" style="stroke:#000000; stroke-linecap:round; stroke-linejoin:round; stroke-width:4; stroke-opacity:1; fill:none" points="1635.5,1423.18 1635.5,1404.28 "/>
<polyline clip-path="url(#clip580)" style="stroke:#000000; stroke-linecap:round; stroke-linejoin:round; stroke-width:4; stroke-opacity:1; fill:none" points="2027.73,1423.18 2027.73,1404.28 "/>
<path clip-path="url(#clip580)" d="M421.889 1454.1 Q418.278 1454.1 416.45 1457.66 Q414.644 1461.2 414.644 1468.33 Q414.644 1475.44 416.45 1479.01 Q418.278 1482.55 421.889 1482.55 Q425.524 1482.55 427.329 1479.01 Q429.158 1475.44 429.158 1468.33 Q429.158 1461.2 427.329 1457.66 Q425.524 1454.1 421.889 1454.1 M421.889 1450.39 Q427.7 1450.39 430.755 1455 Q433.834 1459.58 433.834 1468.33 Q433.834 1477.06 430.755 1481.67 Q427.7 1486.25 421.889 1486.25 Q416.079 1486.25 413.001 1481.67 Q409.945 1477.06 409.945 1468.33 Q409.945 1459.58 413.001 1455 Q416.079 1450.39 421.889 1450.39 Z" fill="#000000" fill-rule="nonzero" fill-opacity="1" /><path clip-path="url(#clip580)" d="M442.051 1479.7 L446.936 1479.7 L446.936 1485.58 L442.051 1485.58 L442.051 1479.7 Z" fill="#000000" fill-rule="nonzero" fill-opacity="1" /><path clip-path="url(#clip580)" d="M467.121 1454.1 Q463.51 1454.1 461.681 1457.66 Q459.875 1461.2 459.875 1468.33 Q459.875 1475.44 461.681 1479.01 Q463.51 1482.55 467.121 1482.55 Q470.755 1482.55 472.56 1479.01 Q474.389 1475.44 474.389 1468.33 Q474.389 1461.2 472.56 1457.66 Q470.755 1454.1 467.121 1454.1 M467.121 1450.39 Q472.931 1450.39 475.986 1455 Q479.065 1459.58 479.065 1468.33 Q479.065 1477.06 475.986 1481.67 Q472.931 1486.25 467.121 1486.25 Q461.311 1486.25 458.232 1481.67 Q455.176 1477.06 455.176 1468.33 Q455.176 1459.58 458.232 1455 Q461.311 1450.39 467.121 1450.39 Z" fill="#000000" fill-rule="nonzero" fill-opacity="1" /><path clip-path="url(#clip580)" d="M491.31 1481.64 L507.63 1481.64 L507.63 1485.58 L485.685 1485.58 L485.685 1481.64 Q488.347 1478.89 492.931 1474.26 Q497.537 1469.61 498.718 1468.27 Q500.963 1465.74 501.843 1464.01 Q502.745 1462.25 502.745 1460.56 Q502.745 1457.8 500.801 1456.07 Q498.88 1454.33 495.778 1454.33 Q493.579 1454.33 491.125 1455.09 Q488.695 1455.86 485.917 1457.41 L485.917 1452.69 Q488.741 1451.55 491.195 1450.97 Q493.648 1450.39 495.685 1450.39 Q501.056 1450.39 504.25 1453.08 Q507.445 1455.77 507.445 1460.26 Q507.445 1462.39 506.634 1464.31 Q505.847 1466.2 503.741 1468.8 Q503.162 1469.47 500.06 1472.69 Q496.958 1475.88 491.31 1481.64 Z" fill="#000000" fill-rule="nonzero" fill-opacity="1" /><path clip-path="url(#clip580)" d="M813.084 1454.1 Q809.473 1454.1 807.644 1457.66 Q805.839 1461.2 805.839 1468.33 Q805.839 1475.44 807.644 1479.01 Q809.473 1482.55 813.084 1482.55 Q816.718 1482.55 818.524 1479.01 Q820.353 1475.44 820.353 1468.33 Q820.353 1461.2 818.524 1457.66 Q816.718 1454.1 813.084 1454.1 M813.084 1450.39 Q818.894 1450.39 821.95 1455 Q825.028 1459.58 825.028 1468.33 Q825.028 1477.06 821.95 1481.67 Q818.894 1486.25 813.084 1486.25 Q807.274 1486.25 804.195 1481.67 Q801.14 1477.06 801.14 1468.33 Q801.14 1459.58 804.195 1455 Q807.274 1450.39 813.084 1450.39 Z" fill="#000000" fill-rule="nonzero" fill-opacity="1" /><path clip-path="url(#clip580)" d="M833.246 1479.7 L838.13 1479.7 L838.13 1485.58 L833.246 1485.58 L833.246 1479.7 Z" fill="#000000" fill-rule="nonzero" fill-opacity="1" /><path clip-path="url(#clip580)" d="M858.315 1454.1 Q854.704 1454.1 852.875 1457.66 Q851.07 1461.2 851.07 1468.33 Q851.07 1475.44 852.875 1479.01 Q854.704 1482.55 858.315 1482.55 Q861.95 1482.55 863.755 1479.01 Q865.584 1475.44 865.584 1468.33 Q865.584 1461.2 863.755 1457.66 Q861.95 1454.1 858.315 1454.1 M858.315 1450.39 Q864.125 1450.39 867.181 1455 Q870.26 1459.58 870.26 1468.33 Q870.26 1477.06 867.181 1481.67 Q864.125 1486.25 858.315 1486.25 Q852.505 1486.25 849.426 1481.67 Q846.371 1477.06 846.371 1468.33 Q846.371 1459.58 849.426 1455 Q852.505 1450.39 858.315 1450.39 Z" fill="#000000" fill-rule="nonzero" fill-opacity="1" /><path clip-path="url(#clip580)" d="M891.324 1455.09 L879.519 1473.54 L891.324 1473.54 L891.324 1455.09 M890.098 1451.02 L895.977 1451.02 L895.977 1473.54 L900.908 1473.54 L900.908 1477.43 L895.977 1477.43 L895.977 1485.58 L891.324 1485.58 L891.324 1477.43 L875.723 1477.43 L875.723 1472.92 L890.098 1451.02 Z" fill="#000000" fill-rule="nonzero" fill-opacity="1" /><path clip-path="url(#clip580)" d="M1205.48 1454.1 Q1201.87 1454.1 1200.04 1457.66 Q1198.24 1461.2 1198.24 1468.33 Q1198.24 1475.44 1200.04 1479.01 Q1201.87 1482.55 1205.48 1482.55 Q1209.12 1482.55 1210.92 1479.01 Q1212.75 1475.44 1212.75 1468.33 Q1212.75 1461.2 1210.92 1457.66 Q1209.12 1454.1 1205.48 1454.1 M1205.48 1450.39 Q1211.29 1450.39 1214.35 1455 Q1217.43 1459.58 1217.43 1468.33 Q1217.43 1477.06 1214.35 1481.67 Q1211.29 1486.25 1205.48 1486.25 Q1199.67 1486.25 1196.59 1481.67 Q1193.54 1477.06 1193.54 1468.33 Q1193.54 1459.58 1196.59 1455 Q1199.67 1450.39 1205.48 1450.39 Z" fill="#000000" fill-rule="nonzero" fill-opacity="1" /><path clip-path="url(#clip580)" d="M1225.64 1479.7 L1230.53 1479.7 L1230.53 1485.58 L1225.64 1485.58 L1225.64 1479.7 Z" fill="#000000" fill-rule="nonzero" fill-opacity="1" /><path clip-path="url(#clip580)" d="M1250.71 1454.1 Q1247.1 1454.1 1245.27 1457.66 Q1243.47 1461.2 1243.47 1468.33 Q1243.47 1475.44 1245.27 1479.01 Q1247.1 1482.55 1250.71 1482.55 Q1254.35 1482.55 1256.15 1479.01 Q1257.98 1475.44 1257.98 1468.33 Q1257.98 1461.2 1256.15 1457.66 Q1254.35 1454.1 1250.71 1454.1 M1250.71 1450.39 Q1256.52 1450.39 1259.58 1455 Q1262.66 1459.58 1262.66 1468.33 Q1262.66 1477.06 1259.58 1481.67 Q1256.52 1486.25 1250.71 1486.25 Q1244.9 1486.25 1241.82 1481.67 Q1238.77 1477.06 1238.77 1468.33 Q1238.77 1459.58 1241.82 1455 Q1244.9 1450.39 1250.71 1450.39 Z" fill="#000000" fill-rule="nonzero" fill-opacity="1" /><path clip-path="url(#clip580)" d="M1281.45 1466.44 Q1278.31 1466.44 1276.45 1468.59 Q1274.63 1470.74 1274.63 1474.49 Q1274.63 1478.22 1276.45 1480.39 Q1278.31 1482.55 1281.45 1482.55 Q1284.6 1482.55 1286.43 1480.39 Q1288.28 1478.22 1288.28 1474.49 Q1288.28 1470.74 1286.43 1468.59 Q1284.6 1466.44 1281.45 1466.44 M1290.74 1451.78 L1290.74 1456.04 Q1288.98 1455.21 1287.17 1454.77 Q1285.39 1454.33 1283.63 1454.33 Q1279 1454.33 1276.55 1457.45 Q1274.12 1460.58 1273.77 1466.9 Q1275.13 1464.89 1277.19 1463.82 Q1279.26 1462.73 1281.73 1462.73 Q1286.94 1462.73 1289.95 1465.9 Q1292.98 1469.05 1292.98 1474.49 Q1292.98 1479.82 1289.83 1483.03 Q1286.69 1486.25 1281.45 1486.25 Q1275.46 1486.25 1272.29 1481.67 Q1269.12 1477.06 1269.12 1468.33 Q1269.12 1460.14 1273.01 1455.28 Q1276.89 1450.39 1283.44 1450.39 Q1285.2 1450.39 1286.99 1450.74 Q1288.79 1451.09 1290.74 1451.78 Z" fill="#000000" fill-rule="nonzero" fill-opacity="1" /><path clip-path="url(#clip580)" d="M1597.85 1454.1 Q1594.23 1454.1 1592.41 1457.66 Q1590.6 1461.2 1590.6 1468.33 Q1590.6 1475.44 1592.41 1479.01 Q1594.23 1482.55 1597.85 1482.55 Q1601.48 1482.55 1603.29 1479.01 Q1605.11 1475.44 1605.11 1468.33 Q1605.11 1461.2 1603.29 1457.66 Q1601.48 1454.1 1597.85 1454.1 M1597.85 1450.39 Q1603.66 1450.39 1606.71 1455 Q1609.79 1459.58 1609.79 1468.33 Q1609.79 1477.06 1606.71 1481.67 Q1603.66 1486.25 1597.85 1486.25 Q1592.04 1486.25 1588.96 1481.67 Q1585.9 1477.06 1585.9 1468.33 Q1585.9 1459.58 1588.96 1455 Q1592.04 1450.39 1597.85 1450.39 Z" fill="#000000" fill-rule="nonzero" fill-opacity="1" /><path clip-path="url(#clip580)" d="M1618.01 1479.7 L1622.89 1479.7 L1622.89 1485.58 L1618.01 1485.58 L1618.01 1479.7 Z" fill="#000000" fill-rule="nonzero" fill-opacity="1" /><path clip-path="url(#clip580)" d="M1643.08 1454.1 Q1639.47 1454.1 1637.64 1457.66 Q1635.83 1461.2 1635.83 1468.33 Q1635.83 1475.44 1637.64 1479.01 Q1639.47 1482.55 1643.08 1482.55 Q1646.71 1482.55 1648.52 1479.01 Q1650.35 1475.44 1650.35 1468.33 Q1650.35 1461.2 1648.52 1457.66 Q1646.71 1454.1 1643.08 1454.1 M1643.08 1450.39 Q1648.89 1450.39 1651.94 1455 Q1655.02 1459.58 1655.02 1468.33 Q1655.02 1477.06 1651.94 1481.67 Q1648.89 1486.25 1643.08 1486.25 Q1637.27 1486.25 1634.19 1481.67 Q1631.13 1477.06 1631.13 1468.33 Q1631.13 1459.58 1634.19 1455 Q1637.27 1450.39 1643.08 1450.39 Z" fill="#000000" fill-rule="nonzero" fill-opacity="1" /><path clip-path="url(#clip580)" d="M1673.24 1469.17 Q1669.91 1469.17 1667.98 1470.95 Q1666.09 1472.73 1666.09 1475.86 Q1666.09 1478.98 1667.98 1480.77 Q1669.91 1482.55 1673.24 1482.55 Q1676.57 1482.55 1678.49 1480.77 Q1680.41 1478.96 1680.41 1475.86 Q1680.41 1472.73 1678.49 1470.95 Q1676.6 1469.17 1673.24 1469.17 M1668.56 1467.18 Q1665.55 1466.44 1663.86 1464.38 Q1662.2 1462.32 1662.2 1459.35 Q1662.2 1455.21 1665.14 1452.8 Q1668.1 1450.39 1673.24 1450.39 Q1678.4 1450.39 1681.34 1452.8 Q1684.28 1455.21 1684.28 1459.35 Q1684.28 1462.32 1682.59 1464.38 Q1680.92 1466.44 1677.94 1467.18 Q1681.32 1467.96 1683.19 1470.26 Q1685.09 1472.55 1685.09 1475.86 Q1685.09 1480.88 1682.01 1483.57 Q1678.96 1486.25 1673.24 1486.25 Q1667.52 1486.25 1664.44 1483.57 Q1661.39 1480.88 1661.39 1475.86 Q1661.39 1472.55 1663.29 1470.26 Q1665.18 1467.96 1668.56 1467.18 M1666.85 1459.79 Q1666.85 1462.48 1668.52 1463.98 Q1670.21 1465.49 1673.24 1465.49 Q1676.25 1465.49 1677.94 1463.98 Q1679.65 1462.48 1679.65 1459.79 Q1679.65 1457.11 1677.94 1455.6 Q1676.25 1454.1 1673.24 1454.1 Q1670.21 1454.1 1668.52 1455.6 Q1666.85 1457.11 1666.85 1459.79 Z" fill="#000000" fill-rule="nonzero" fill-opacity="1" /><path clip-path="url(#clip580)" d="M1990.04 1454.1 Q1986.42 1454.1 1984.6 1457.66 Q1982.79 1461.2 1982.79 1468.33 Q1982.79 1475.44 1984.6 1479.01 Q1986.42 1482.55 1990.04 1482.55 Q1993.67 1482.55 1995.48 1479.01 Q1997.3 1475.44 1997.3 1468.33 Q1997.3 1461.2 1995.48 1457.66 Q1993.67 1454.1 1990.04 1454.1 M1990.04 1450.39 Q1995.85 1450.39 1998.9 1455 Q2001.98 1459.58 2001.98 1468.33 Q2001.98 1477.06 1998.9 1481.67 Q1995.85 1486.25 1990.04 1486.25 Q1984.23 1486.25 1981.15 1481.67 Q1978.09 1477.06 1978.09 1468.33 Q1978.09 1459.58 1981.15 1455 Q1984.23 1450.39 1990.04 1450.39 Z" fill="#000000" fill-rule="nonzero" fill-opacity="1" /><path clip-path="url(#clip580)" d="M2010.2 1479.7 L2015.08 1479.7 L2015.08 1485.58 L2010.2 1485.58 L2010.2 1479.7 Z" fill="#000000" fill-rule="nonzero" fill-opacity="1" /><path clip-path="url(#clip580)" d="M2026.08 1481.64 L2033.72 1481.64 L2033.72 1455.28 L2025.41 1456.95 L2025.41 1452.69 L2033.67 1451.02 L2038.35 1451.02 L2038.35 1481.64 L2045.98 1481.64 L2045.98 1485.58 L2026.08 1485.58 L2026.08 1481.64 Z" fill="#000000" fill-rule="nonzero" fill-opacity="1" /><path clip-path="url(#clip580)" d="M2065.43 1454.1 Q2061.82 1454.1 2059.99 1457.66 Q2058.18 1461.2 2058.18 1468.33 Q2058.18 1475.44 2059.99 1479.01 Q2061.82 1482.55 2065.43 1482.55 Q2069.06 1482.55 2070.87 1479.01 Q2072.7 1475.44 2072.7 1468.33 Q2072.7 1461.2 2070.87 1457.66 Q2069.06 1454.1 2065.43 1454.1 M2065.43 1450.39 Q2071.24 1450.39 2074.29 1455 Q2077.37 1459.58 2077.37 1468.33 Q2077.37 1477.06 2074.29 1481.67 Q2071.24 1486.25 2065.43 1486.25 Q2059.62 1486.25 2056.54 1481.67 Q2053.48 1477.06 2053.48 1468.33 Q2053.48 1459.58 2056.54 1455 Q2059.62 1450.39 2065.43 1450.39 Z" fill="#000000" fill-rule="nonzero" fill-opacity="1" /><path clip-path="url(#clip580)" d="M1226.36 1520.52 L1266.56 1520.52 L1266.56 1525.93 L1249.69 1525.93 L1249.69 1568.04 L1243.23 1568.04 L1243.23 1525.93 L1226.36 1525.93 L1226.36 1520.52 Z" fill="#000000" fill-rule="nonzero" fill-opacity="1" /><path clip-path="url(#clip580)" d="M1270.51 1532.4 L1276.36 1532.4 L1276.36 1568.04 L1270.51 1568.04 L1270.51 1532.4 M1270.51 1518.52 L1276.36 1518.52 L1276.36 1525.93 L1270.51 1525.93 L1270.51 1518.52 Z" fill="#000000" fill-rule="nonzero" fill-opacity="1" /><path clip-path="url(#clip580)" d="M1316.37 1539.24 Q1318.57 1535.29 1321.62 1533.41 Q1324.68 1531.54 1328.82 1531.54 Q1334.39 1531.54 1337.41 1535.45 Q1340.43 1539.33 1340.43 1546.53 L1340.43 1568.04 L1334.54 1568.04 L1334.54 1546.72 Q1334.54 1541.59 1332.73 1539.11 Q1330.92 1536.63 1327.19 1536.63 Q1322.64 1536.63 1320 1539.65 Q1317.36 1542.68 1317.36 1547.9 L1317.36 1568.04 L1311.47 1568.04 L1311.47 1546.72 Q1311.47 1541.56 1309.65 1539.11 Q1307.84 1536.63 1304.05 1536.63 Q1299.56 1536.63 1296.92 1539.68 Q1294.28 1542.71 1294.28 1547.9 L1294.28 1568.04 L1288.39 1568.04 L1288.39 1532.4 L1294.28 1532.4 L1294.28 1537.93 Q1296.29 1534.66 1299.09 1533.1 Q1301.89 1531.54 1305.74 1531.54 Q1309.62 1531.54 1312.33 1533.51 Q1315.07 1535.48 1316.37 1539.24 Z" fill="#000000" fill-rule="nonzero" fill-opacity="1" /><path clip-path="url(#clip580)" d="M1382.61 1548.76 L1382.61 1551.62 L1355.68 1551.62 Q1356.06 1557.67 1359.31 1560.85 Q1362.59 1564 1368.41 1564 Q1371.78 1564 1374.93 1563.17 Q1378.12 1562.35 1381.24 1560.69 L1381.24 1566.23 Q1378.09 1567.57 1374.78 1568.27 Q1371.47 1568.97 1368.06 1568.97 Q1359.53 1568.97 1354.53 1564 Q1349.57 1559.04 1349.57 1550.57 Q1349.57 1541.82 1354.28 1536.69 Q1359.02 1531.54 1367.04 1531.54 Q1374.23 1531.54 1378.4 1536.18 Q1382.61 1540.8 1382.61 1548.76 M1376.75 1547.04 Q1376.69 1542.23 1374.04 1539.37 Q1371.43 1536.5 1367.1 1536.5 Q1362.2 1536.5 1359.24 1539.27 Q1356.32 1542.04 1355.87 1547.07 L1376.75 1547.04 Z" fill="#000000" fill-rule="nonzero" fill-opacity="1" /><polyline clip-path="url(#clip582)" style="stroke:#000000; stroke-linecap:round; stroke-linejoin:round; stroke-width:2; stroke-opacity:0.1; fill:none" points="256.209,1121.56 2352.76,1121.56 "/>
<polyline clip-path="url(#clip582)" style="stroke:#000000; stroke-linecap:round; stroke-linejoin:round; stroke-width:2; stroke-opacity:0.1; fill:none" points="256.209,797.613 2352.76,797.613 "/>
<polyline clip-path="url(#clip582)" style="stroke:#000000; stroke-linecap:round; stroke-linejoin:round; stroke-width:2; stroke-opacity:0.1; fill:none" points="256.209,473.664 2352.76,473.664 "/>
<polyline clip-path="url(#clip582)" style="stroke:#000000; stroke-linecap:round; stroke-linejoin:round; stroke-width:2; stroke-opacity:0.1; fill:none" points="256.209,149.716 2352.76,149.716 "/>
<polyline clip-path="url(#clip580)" style="stroke:#000000; stroke-linecap:round; stroke-linejoin:round; stroke-width:4; stroke-opacity:1; fill:none" points="256.209,1423.18 256.209,47.2441 "/>
<polyline clip-path="url(#clip580)" style="stroke:#000000; stroke-linecap:round; stroke-linejoin:round; stroke-width:4; stroke-opacity:1; fill:none" points="256.209,1121.56 275.106,1121.56 "/>
<polyline clip-path="url(#clip580)" style="stroke:#000000; stroke-linecap:round; stroke-linejoin:round; stroke-width:4; stroke-opacity:1; fill:none" points="256.209,797.613 275.106,797.613 "/>
<polyline clip-path="url(#clip580)" style="stroke:#000000; stroke-linecap:round; stroke-linejoin:round; stroke-width:4; stroke-opacity:1; fill:none" points="256.209,473.664 275.106,473.664 "/>
<polyline clip-path="url(#clip580)" style="stroke:#000000; stroke-linecap:round; stroke-linejoin:round; stroke-width:4; stroke-opacity:1; fill:none" points="256.209,149.716 275.106,149.716 "/>
<path clip-path="url(#clip580)" d="M114.26 1122.01 L143.936 1122.01 L143.936 1125.95 L114.26 1125.95 L114.26 1122.01 Z" fill="#000000" fill-rule="nonzero" fill-opacity="1" /><path clip-path="url(#clip580)" d="M164.028 1107.36 Q160.417 1107.36 158.589 1110.92 Q156.783 1114.47 156.783 1121.6 Q156.783 1128.7 158.589 1132.27 Q160.417 1135.81 164.028 1135.81 Q167.663 1135.81 169.468 1132.27 Q171.297 1128.7 171.297 1121.6 Q171.297 1114.47 169.468 1110.92 Q167.663 1107.36 164.028 1107.36 M164.028 1103.66 Q169.839 1103.66 172.894 1108.26 Q175.973 1112.85 175.973 1121.6 Q175.973 1130.32 172.894 1134.93 Q169.839 1139.51 164.028 1139.51 Q158.218 1139.51 155.14 1134.93 Q152.084 1130.32 152.084 1121.6 Q152.084 1112.85 155.14 1108.26 Q158.218 1103.66 164.028 1103.66 Z" fill="#000000" fill-rule="nonzero" fill-opacity="1" /><path clip-path="url(#clip580)" d="M184.19 1132.96 L189.075 1132.96 L189.075 1138.84 L184.19 1138.84 L184.19 1132.96 Z" fill="#000000" fill-rule="nonzero" fill-opacity="1" /><path clip-path="url(#clip580)" d="M199.306 1104.28 L217.662 1104.28 L217.662 1108.22 L203.588 1108.22 L203.588 1116.69 Q204.607 1116.34 205.625 1116.18 Q206.644 1115.99 207.662 1115.99 Q213.449 1115.99 216.829 1119.17 Q220.209 1122.34 220.209 1127.75 Q220.209 1133.33 216.736 1136.43 Q213.264 1139.51 206.945 1139.51 Q204.769 1139.51 202.5 1139.14 Q200.255 1138.77 197.848 1138.03 L197.848 1133.33 Q199.931 1134.47 202.153 1135.02 Q204.375 1135.58 206.852 1135.58 Q210.857 1135.58 213.195 1133.47 Q215.533 1131.36 215.533 1127.75 Q215.533 1124.14 213.195 1122.04 Q210.857 1119.93 206.852 1119.93 Q204.977 1119.93 203.102 1120.35 Q201.25 1120.76 199.306 1121.64 L199.306 1104.28 Z" fill="#000000" fill-rule="nonzero" fill-opacity="1" /><path clip-path="url(#clip580)" d="M163.033 783.411 Q159.422 783.411 157.593 786.976 Q155.788 790.518 155.788 797.647 Q155.788 804.754 157.593 808.319 Q159.422 811.86 163.033 811.86 Q166.667 811.86 168.473 808.319 Q170.302 804.754 170.302 797.647 Q170.302 790.518 168.473 786.976 Q166.667 783.411 163.033 783.411 M163.033 779.708 Q168.843 779.708 171.899 784.314 Q174.977 788.897 174.977 797.647 Q174.977 806.374 171.899 810.981 Q168.843 815.564 163.033 815.564 Q157.223 815.564 154.144 810.981 Q151.089 806.374 151.089 797.647 Q151.089 788.897 154.144 784.314 Q157.223 779.708 163.033 779.708 Z" fill="#000000" fill-rule="nonzero" fill-opacity="1" /><path clip-path="url(#clip580)" d="M183.195 809.013 L188.079 809.013 L188.079 814.893 L183.195 814.893 L183.195 809.013 Z" fill="#000000" fill-rule="nonzero" fill-opacity="1" /><path clip-path="url(#clip580)" d="M208.264 783.411 Q204.653 783.411 202.824 786.976 Q201.019 790.518 201.019 797.647 Q201.019 804.754 202.824 808.319 Q204.653 811.86 208.264 811.86 Q211.899 811.86 213.704 808.319 Q215.533 804.754 215.533 797.647 Q215.533 790.518 213.704 786.976 Q211.899 783.411 208.264 783.411 M208.264 779.708 Q214.074 779.708 217.13 784.314 Q220.209 788.897 220.209 797.647 Q220.209 806.374 217.13 810.981 Q214.074 815.564 208.264 815.564 Q202.454 815.564 199.375 810.981 Q196.32 806.374 196.32 797.647 Q196.32 788.897 199.375 784.314 Q202.454 779.708 208.264 779.708 Z" fill="#000000" fill-rule="nonzero" fill-opacity="1" /><path clip-path="url(#clip580)" d="M164.028 459.463 Q160.417 459.463 158.589 463.028 Q156.783 466.569 156.783 473.699 Q156.783 480.805 158.589 484.37 Q160.417 487.912 164.028 487.912 Q167.663 487.912 169.468 484.37 Q171.297 480.805 171.297 473.699 Q171.297 466.569 169.468 463.028 Q167.663 459.463 164.028 459.463 M164.028 455.759 Q169.839 455.759 172.894 460.366 Q175.973 464.949 175.973 473.699 Q175.973 482.426 172.894 487.032 Q169.839 491.615 164.028 491.615 Q158.218 491.615 155.14 487.032 Q152.084 482.426 152.084 473.699 Q152.084 464.949 155.14 460.366 Q158.218 455.759 164.028 455.759 Z" fill="#000000" fill-rule="nonzero" fill-opacity="1" /><path clip-path="url(#clip580)" d="M184.19 485.065 L189.075 485.065 L189.075 490.944 L184.19 490.944 L184.19 485.065 Z" fill="#000000" fill-rule="nonzero" fill-opacity="1" /><path clip-path="url(#clip580)" d="M199.306 456.384 L217.662 456.384 L217.662 460.319 L203.588 460.319 L203.588 468.792 Q204.607 468.444 205.625 468.282 Q206.644 468.097 207.662 468.097 Q213.449 468.097 216.829 471.268 Q220.209 474.44 220.209 479.856 Q220.209 485.435 216.736 488.537 Q213.264 491.615 206.945 491.615 Q204.769 491.615 202.5 491.245 Q200.255 490.875 197.848 490.134 L197.848 485.435 Q199.931 486.569 202.153 487.125 Q204.375 487.68 206.852 487.68 Q210.857 487.68 213.195 485.574 Q215.533 483.467 215.533 479.856 Q215.533 476.245 213.195 474.139 Q210.857 472.032 206.852 472.032 Q204.977 472.032 203.102 472.449 Q201.25 472.866 199.306 473.745 L199.306 456.384 Z" fill="#000000" fill-rule="nonzero" fill-opacity="1" /><path clip-path="url(#clip580)" d="M153.843 163.061 L161.482 163.061 L161.482 136.695 L153.172 138.362 L153.172 134.102 L161.436 132.436 L166.112 132.436 L166.112 163.061 L173.751 163.061 L173.751 166.996 L153.843 166.996 L153.843 163.061 Z" fill="#000000" fill-rule="nonzero" fill-opacity="1" /><path clip-path="url(#clip580)" d="M183.195 161.116 L188.079 161.116 L188.079 166.996 L183.195 166.996 L183.195 161.116 Z" fill="#000000" fill-rule="nonzero" fill-opacity="1" /><path clip-path="url(#clip580)" d="M208.264 135.514 Q204.653 135.514 202.824 139.079 Q201.019 142.621 201.019 149.75 Q201.019 156.857 202.824 160.422 Q204.653 163.963 208.264 163.963 Q211.899 163.963 213.704 160.422 Q215.533 156.857 215.533 149.75 Q215.533 142.621 213.704 139.079 Q211.899 135.514 208.264 135.514 M208.264 131.811 Q214.074 131.811 217.13 136.417 Q220.209 141 220.209 149.75 Q220.209 158.477 217.13 163.084 Q214.074 167.667 208.264 167.667 Q202.454 167.667 199.375 163.084 Q196.32 158.477 196.32 149.75 Q196.32 141 199.375 136.417 Q202.454 131.811 208.264 131.811 Z" fill="#000000" fill-rule="nonzero" fill-opacity="1" /><path clip-path="url(#clip580)" d="M18.0438 1075.44 L24.314 1075.44 Q22.5634 1079.1 21.704 1082.35 Q20.8447 1085.6 20.8447 1088.62 Q20.8447 1093.87 22.8817 1096.74 Q24.9187 1099.57 28.6745 1099.57 Q31.8255 1099.57 33.4488 1097.69 Q35.0402 1095.78 36.0269 1090.5 L36.8226 1086.61 Q38.1912 1079.42 41.6605 1076.02 Q45.098 1072.58 50.8908 1072.58 Q57.7976 1072.58 61.3624 1077.23 Q64.9272 1081.84 64.9272 1090.78 Q64.9272 1094.16 64.1633 1097.98 Q63.3994 1101.77 61.9035 1105.84 L55.2831 1105.84 Q57.4793 1101.92 58.5933 1098.17 Q59.7073 1094.41 59.7073 1090.78 Q59.7073 1085.28 57.543 1082.29 Q55.3786 1079.29 51.3682 1079.29 Q47.8671 1079.29 45.8937 1081.46 Q43.9204 1083.59 42.9337 1088.49 L42.1698 1092.41 Q40.7375 1099.6 37.682 1102.82 Q34.6264 1106.03 29.1837 1106.03 Q22.8817 1106.03 19.2532 1101.61 Q15.6248 1097.15 15.6248 1089.35 Q15.6248 1086.01 16.2295 1082.54 Q16.8343 1079.07 18.0438 1075.44 Z" fill="#000000" fill-rule="nonzero" fill-opacity="1" /><path clip-path="url(#clip580)" d="M29.7248 1037.15 L35.1993 1037.15 Q33.8307 1039.64 33.1623 1042.15 Q32.4621 1044.63 32.4621 1047.18 Q32.4621 1052.88 36.0905 1056.03 Q39.6872 1059.18 46.212 1059.18 Q52.7369 1059.18 56.3653 1056.03 Q59.9619 1052.88 59.9619 1047.18 Q59.9619 1044.63 59.2935 1042.15 Q58.5933 1039.64 57.2247 1037.15 L62.6355 1037.15 Q63.7814 1039.6 64.3543 1042.25 Q64.9272 1044.86 64.9272 1047.82 Q64.9272 1055.87 59.8664 1060.61 Q54.8057 1065.35 46.212 1065.35 Q37.491 1065.35 32.4939 1060.58 Q27.4968 1055.77 27.4968 1047.43 Q27.4968 1044.73 28.0697 1042.15 Q28.6108 1039.57 29.7248 1037.15 Z" fill="#000000" fill-rule="nonzero" fill-opacity="1" /><path clip-path="url(#clip580)" d="M42.4881 997.336 L64.0042 997.336 L64.0042 1003.19 L42.679 1003.19 Q37.6183 1003.19 35.1038 1005.17 Q32.5894 1007.14 32.5894 1011.09 Q32.5894 1015.83 35.6131 1018.57 Q38.6368 1021.3 43.8567 1021.3 L64.0042 1021.3 L64.0042 1027.19 L14.479 1027.19 L14.479 1021.3 L33.8944 1021.3 Q30.6797 1019.2 29.0883 1016.37 Q27.4968 1013.5 27.4968 1009.78 Q27.4968 1003.64 31.3163 1000.49 Q35.1038 997.336 42.4881 997.336 Z" fill="#000000" fill-rule="nonzero" fill-opacity="1" /><path clip-path="url(#clip580)" d="M32.4621 971.841 Q32.4621 976.552 36.1542 979.289 Q39.8145 982.026 46.212 982.026 Q52.6095 982.026 56.3017 979.321 Q59.9619 976.584 59.9619 971.841 Q59.9619 967.162 56.2698 964.425 Q52.5777 961.688 46.212 961.688 Q39.8781 961.688 36.186 964.425 Q32.4621 967.162 32.4621 971.841 M27.4968 971.841 Q27.4968 964.202 32.4621 959.842 Q37.4273 955.481 46.212 955.481 Q54.9649 955.481 59.9619 959.842 Q64.9272 964.202 64.9272 971.841 Q64.9272 979.512 59.9619 983.872 Q54.9649 988.201 46.212 988.201 Q37.4273 988.201 32.4621 983.872 Q27.4968 979.512 27.4968 971.841 Z" fill="#000000" fill-rule="nonzero" fill-opacity="1" /><path clip-path="url(#clip580)" d="M44.7161 915.282 L47.5806 915.282 L47.5806 942.209 Q53.6281 941.827 56.8109 938.58 Q59.9619 935.302 59.9619 929.477 Q59.9619 926.104 59.1344 922.953 Q58.3069 919.77 56.6518 916.651 L62.1899 916.651 Q63.5267 919.802 64.227 923.112 Q64.9272 926.422 64.9272 929.828 Q64.9272 938.358 59.9619 943.355 Q54.9967 948.32 46.5303 948.32 Q37.7774 948.32 32.6531 943.609 Q27.4968 938.867 27.4968 930.846 Q27.4968 923.653 32.1438 919.483 Q36.7589 915.282 44.7161 915.282 M42.9973 921.138 Q38.1912 921.202 35.3266 923.844 Q32.4621 926.454 32.4621 930.782 Q32.4621 935.684 35.2312 938.644 Q38.0002 941.572 43.0292 942.018 L42.9973 921.138 Z" fill="#000000" fill-rule="nonzero" fill-opacity="1" /><path clip-path="url(#clip580)" d="M42.4881 876.037 L64.0042 876.037 L64.0042 881.894 L42.679 881.894 Q37.6183 881.894 35.1038 883.867 Q32.5894 885.841 32.5894 889.787 Q32.5894 894.53 35.6131 897.267 Q38.6368 900.004 43.8567 900.004 L64.0042 900.004 L64.0042 905.892 L28.3562 905.892 L28.3562 900.004 L33.8944 900.004 Q30.6797 897.904 29.0883 895.071 Q27.4968 892.206 27.4968 888.482 Q27.4968 882.339 31.3163 879.188 Q35.1038 876.037 42.4881 876.037 Z" fill="#000000" fill-rule="nonzero" fill-opacity="1" /><path clip-path="url(#clip580)" d="M14.479 846.309 L19.3487 846.309 L19.3487 851.911 Q19.3487 855.062 20.6219 856.304 Q21.895 857.513 25.2052 857.513 L28.3562 857.513 L28.3562 847.869 L32.9077 847.869 L32.9077 857.513 L64.0042 857.513 L64.0042 863.401 L32.9077 863.401 L32.9077 869.003 L28.3562 869.003 L28.3562 863.401 L25.8736 863.401 Q19.9216 863.401 17.2162 860.632 Q14.479 857.863 14.479 851.848 L14.479 846.309 Z" fill="#000000" fill-rule="nonzero" fill-opacity="1" /><path clip-path="url(#clip580)" d="M44.7161 810.916 L47.5806 810.916 L47.5806 837.843 Q53.6281 837.461 56.8109 834.215 Q59.9619 830.936 59.9619 825.112 Q59.9619 821.738 59.1344 818.587 Q58.3069 815.404 56.6518 812.285 L62.1899 812.285 Q63.5267 815.436 64.227 818.746 Q64.9272 822.056 64.9272 825.462 Q64.9272 833.992 59.9619 838.989 Q54.9967 843.954 46.5303 843.954 Q37.7774 843.954 32.6531 839.244 Q27.4968 834.501 27.4968 826.48 Q27.4968 819.287 32.1438 815.118 Q36.7589 810.916 44.7161 810.916 M42.9973 816.773 Q38.1912 816.836 35.3266 819.478 Q32.4621 822.088 32.4621 826.417 Q32.4621 831.318 35.2312 834.278 Q38.0002 837.207 43.0292 837.652 L42.9973 816.773 Z" fill="#000000" fill-rule="nonzero" fill-opacity="1" /><path clip-path="url(#clip580)" d="M14.479 801.304 L14.479 795.447 L64.0042 795.447 L64.0042 801.304 L14.479 801.304 Z" fill="#000000" fill-rule="nonzero" fill-opacity="1" /><path clip-path="url(#clip580)" d="M33.7671 759.736 L14.479 759.736 L14.479 753.879 L64.0042 753.879 L64.0042 759.736 L58.657 759.736 Q61.8398 761.582 63.3994 764.415 Q64.9272 767.216 64.9272 771.162 Q64.9272 777.623 59.771 781.698 Q54.6147 785.74 46.212 785.74 Q37.8093 785.74 32.6531 781.698 Q27.4968 777.623 27.4968 771.162 Q27.4968 767.216 29.0564 764.415 Q30.5842 761.582 33.7671 759.736 M46.212 779.692 Q52.6732 779.692 56.3653 777.051 Q60.0256 774.377 60.0256 769.73 Q60.0256 765.083 56.3653 762.409 Q52.6732 759.736 46.212 759.736 Q39.7508 759.736 36.0905 762.409 Q32.3984 765.083 32.3984 769.73 Q32.3984 774.377 36.0905 777.051 Q39.7508 779.692 46.212 779.692 Z" fill="#000000" fill-rule="nonzero" fill-opacity="1" /><path clip-path="url(#clip580)" d="M33.8307 700.439 Q33.2578 701.426 33.0032 702.604 Q32.7167 703.749 32.7167 705.15 Q32.7167 710.115 35.9632 712.789 Q39.1779 715.431 45.2253 715.431 L64.0042 715.431 L64.0042 721.319 L28.3562 721.319 L28.3562 715.431 L33.8944 715.431 Q30.6479 713.584 29.0883 710.624 Q27.4968 707.664 27.4968 703.431 Q27.4968 702.826 27.5923 702.094 Q27.656 701.362 27.8151 700.471 L33.8307 700.439 Z" fill="#000000" fill-rule="nonzero" fill-opacity="1" /><path clip-path="url(#clip580)" d="M44.7161 665.237 L47.5806 665.237 L47.5806 692.164 Q53.6281 691.782 56.8109 688.535 Q59.9619 685.257 59.9619 679.432 Q59.9619 676.059 59.1344 672.908 Q58.3069 669.725 56.6518 666.606 L62.1899 666.606 Q63.5267 669.757 64.227 673.067 Q64.9272 676.377 64.9272 679.783 Q64.9272 688.313 59.9619 693.31 Q54.9967 698.275 46.5303 698.275 Q37.7774 698.275 32.6531 693.564 Q27.4968 688.822 27.4968 680.801 Q27.4968 673.608 32.1438 669.438 Q36.7589 665.237 44.7161 665.237 M42.9973 671.093 Q38.1912 671.157 35.3266 673.799 Q32.4621 676.409 32.4621 680.737 Q32.4621 685.639 35.2312 688.599 Q38.0002 691.527 43.0292 691.973 L42.9973 671.093 Z" fill="#000000" fill-rule="nonzero" fill-opacity="1" /><path clip-path="url(#clip580)" d="M29.4065 632.899 L34.9447 632.899 Q33.6716 635.382 33.035 638.055 Q32.3984 640.729 32.3984 643.594 Q32.3984 647.954 33.7352 650.15 Q35.072 652.315 37.7456 652.315 Q39.7826 652.315 40.9603 650.755 Q42.1061 649.195 43.1565 644.485 L43.6021 642.48 Q44.9389 636.241 47.3897 633.631 Q49.8086 630.989 54.1691 630.989 Q59.1344 630.989 62.0308 634.936 Q64.9272 638.851 64.9272 645.726 Q64.9272 648.591 64.3543 651.71 Q63.8132 654.797 62.6992 658.235 L56.6518 658.235 Q58.3387 654.988 59.198 651.837 Q60.0256 648.686 60.0256 645.599 Q60.0256 641.461 58.6251 639.233 Q57.1929 637.005 54.6147 637.005 Q52.2276 637.005 50.9545 638.628 Q49.6813 640.22 48.5037 645.662 L48.0262 647.699 Q46.8804 653.142 44.5251 655.561 Q42.138 657.98 38.0002 657.98 Q32.9713 657.98 30.2341 654.415 Q27.4968 650.85 27.4968 644.294 Q27.4968 641.047 27.9743 638.183 Q28.4517 635.318 29.4065 632.899 Z" fill="#000000" fill-rule="nonzero" fill-opacity="1" /><path clip-path="url(#clip580)" d="M28.3562 621.664 L28.3562 615.807 L64.0042 615.807 L64.0042 621.664 L28.3562 621.664 M14.479 621.664 L14.479 615.807 L21.895 615.807 L21.895 621.664 L14.479 621.664 Z" fill="#000000" fill-rule="nonzero" fill-opacity="1" /><path clip-path="url(#clip580)" d="M33.7671 580.096 L14.479 580.096 L14.479 574.239 L64.0042 574.239 L64.0042 580.096 L58.657 580.096 Q61.8398 581.942 63.3994 584.774 Q64.9272 587.575 64.9272 591.522 Q64.9272 597.983 59.771 602.057 Q54.6147 606.1 46.212 606.1 Q37.8093 606.1 32.6531 602.057 Q27.4968 597.983 27.4968 591.522 Q27.4968 587.575 29.0564 584.774 Q30.5842 581.942 33.7671 580.096 M46.212 600.052 Q52.6732 600.052 56.3653 597.41 Q60.0256 594.737 60.0256 590.09 Q60.0256 585.443 56.3653 582.769 Q52.6732 580.096 46.212 580.096 Q39.7508 580.096 36.0905 582.769 Q32.3984 585.443 32.3984 590.09 Q32.3984 594.737 36.0905 597.41 Q39.7508 600.052 46.212 600.052 Z" fill="#000000" fill-rule="nonzero" fill-opacity="1" /><path clip-path="url(#clip580)" d="M49.9359 562.781 L28.3562 562.781 L28.3562 556.924 L49.7131 556.924 Q54.7739 556.924 57.3202 554.951 Q59.8346 552.978 59.8346 549.031 Q59.8346 544.289 56.8109 541.551 Q53.7872 538.782 48.5673 538.782 L28.3562 538.782 L28.3562 532.926 L64.0042 532.926 L64.0042 538.782 L58.5296 538.782 Q61.7762 540.915 63.3676 543.747 Q64.9272 546.548 64.9272 550.272 Q64.9272 556.415 61.1078 559.598 Q57.2883 562.781 49.9359 562.781 M27.4968 548.044 L27.4968 548.044 Z" fill="#000000" fill-rule="nonzero" fill-opacity="1" /><path clip-path="url(#clip580)" d="M46.0847 504.662 Q46.0847 511.76 47.7079 514.497 Q49.3312 517.234 53.2461 517.234 Q56.3653 517.234 58.2114 515.197 Q60.0256 513.128 60.0256 509.595 Q60.0256 504.726 56.5881 501.797 Q53.1188 498.837 47.3897 498.837 L46.0847 498.837 L46.0847 504.662 M43.6657 492.981 L64.0042 492.981 L64.0042 498.837 L58.5933 498.837 Q61.8398 500.843 63.3994 503.834 Q64.9272 506.826 64.9272 511.155 Q64.9272 516.63 61.8716 519.876 Q58.7843 523.091 53.6281 523.091 Q47.6125 523.091 44.5569 519.08 Q41.5014 515.038 41.5014 507.049 L41.5014 498.837 L40.9285 498.837 Q36.8862 498.837 34.6901 501.511 Q32.4621 504.153 32.4621 508.959 Q32.4621 512.014 33.1941 514.911 Q33.9262 517.807 35.3903 520.481 L29.9795 520.481 Q28.7381 517.266 28.1334 514.242 Q27.4968 511.219 27.4968 508.354 Q27.4968 500.62 31.5072 496.8 Q35.5176 492.981 43.6657 492.981 Z" fill="#000000" fill-rule="nonzero" fill-opacity="1" /><path clip-path="url(#clip580)" d="M14.479 480.918 L14.479 475.061 L64.0042 475.061 L64.0042 480.918 L14.479 480.918 Z" fill="#000000" fill-rule="nonzero" fill-opacity="1" /><path clip-path="url(#clip580)" d="M14.5426 428.019 Q21.8632 432.284 29.0246 434.353 Q36.186 436.422 43.5384 436.422 Q50.8908 436.422 58.1159 434.353 Q65.3091 432.252 72.5979 428.019 L72.5979 433.111 Q65.1182 437.886 57.8931 440.273 Q50.668 442.628 43.5384 442.628 Q36.4406 442.628 29.2474 440.273 Q22.0542 437.918 14.5426 433.111 L14.5426 428.019 Z" fill="#000000" fill-rule="nonzero" fill-opacity="1" /><path clip-path="url(#clip580)" d="M28.3562 387.024 L45.7028 399.914 L64.0042 386.355 L64.0042 393.262 L49.9996 403.638 L64.0042 414.014 L64.0042 420.921 L45.3526 407.076 L28.3562 419.743 L28.3562 412.837 L41.0558 403.384 L28.3562 393.931 L28.3562 387.024 Z" fill="#000000" fill-rule="nonzero" fill-opacity="1" /><path clip-path="url(#clip580)" d="M14.5426 379.003 L14.5426 373.91 Q22.0542 369.136 29.2474 366.781 Q36.4406 364.394 43.5384 364.394 Q50.668 364.394 57.8931 366.781 Q65.1182 369.136 72.5979 373.91 L72.5979 379.003 Q65.3091 374.77 58.1159 372.701 Q50.8908 370.6 43.5384 370.6 Q36.186 370.6 29.0246 372.701 Q21.8632 374.77 14.5426 379.003 Z" fill="#000000" fill-rule="nonzero" fill-opacity="1" /><circle clip-path="url(#clip582)" cx="879.412" cy="1384.24" r="14.4" fill="#000000" fill-rule="evenodd" fill-opacity="0.5" stroke="none"/>
<circle clip-path="url(#clip582)" cx="1391.18" cy="831.314" r="14.4" fill="#000000" fill-rule="evenodd" fill-opacity="0.5" stroke="none"/>
<circle clip-path="url(#clip582)" cx="594.038" cy="800.149" r="14.4" fill="#000000" fill-rule="evenodd" fill-opacity="0.5" stroke="none"/>
<circle clip-path="url(#clip582)" cx="986.423" cy="584.573" r="14.4" fill="#000000" fill-rule="evenodd" fill-opacity="0.5" stroke="none"/>
<circle clip-path="url(#clip582)" cx="1269.62" cy="734.042" r="14.4" fill="#000000" fill-rule="evenodd" fill-opacity="0.5" stroke="none"/>
<circle clip-path="url(#clip582)" cx="861.05" cy="86.1857" r="14.4" fill="#000000" fill-rule="evenodd" fill-opacity="0.5" stroke="none"/>
<circle clip-path="url(#clip582)" cx="2293.42" cy="1316.96" r="14.4" fill="#000000" fill-rule="evenodd" fill-opacity="0.5" stroke="none"/>
<circle clip-path="url(#clip582)" cx="315.545" cy="933.899" r="14.4" fill="#000000" fill-rule="evenodd" fill-opacity="0.5" stroke="none"/>
<circle clip-path="url(#clip582)" cx="2061.43" cy="914.87" r="14.4" fill="#000000" fill-rule="evenodd" fill-opacity="0.5" stroke="none"/>
<circle clip-path="url(#clip582)" cx="977.126" cy="453.602" r="14.4" fill="#000000" fill-rule="evenodd" fill-opacity="0.5" stroke="none"/>
<circle clip-path="url(#clip582)" cx="1453.36" cy="813.996" r="14.4" fill="#000000" fill-rule="evenodd" fill-opacity="0.5" stroke="none"/>
<circle clip-path="url(#clip582)" cx="1534.49" cy="550.419" r="14.4" fill="#000000" fill-rule="evenodd" fill-opacity="0.5" stroke="none"/>
<circle clip-path="url(#clip582)" cx="1149.68" cy="966.785" r="14.4" fill="#000000" fill-rule="evenodd" fill-opacity="0.5" stroke="none"/>
<circle clip-path="url(#clip582)" cx="1932.21" cy="689.15" r="14.4" fill="#000000" fill-rule="evenodd" fill-opacity="0.5" stroke="none"/>
<circle clip-path="url(#clip582)" cx="1511.01" cy="904.005" r="14.4" fill="#000000" fill-rule="evenodd" fill-opacity="0.5" stroke="none"/>
<path clip-path="url(#clip580)" d="M2048.08 196.789 L2282.87 196.789 L2282.87 93.1086 L2048.08 93.1086  Z" fill="#ffffff" fill-rule="evenodd" fill-opacity="1"/>
<polyline clip-path="url(#clip580)" style="stroke:#000000; stroke-linecap:round; stroke-linejoin:round; stroke-width:4; stroke-opacity:1; fill:none" points="2048.08,196.789 2282.87,196.789 2282.87,93.1086 2048.08,93.1086 2048.08,196.789 "/>
<circle clip-path="url(#clip580)" cx="2141.26" cy="144.949" r="23.04" fill="#000000" fill-rule="evenodd" fill-opacity="0.5" stroke="none"/>
<path clip-path="url(#clip580)" d="M2259.09 136.303 L2249.71 148.919 L2259.58 162.229 L2254.55 162.229 L2247.01 152.043 L2239.46 162.229 L2234.44 162.229 L2244.51 148.664 L2235.29 136.303 L2240.32 136.303 L2247.19 145.539 L2254.07 136.303 L2259.09 136.303 Z" fill="#000000" fill-rule="nonzero" fill-opacity="1" /></svg>
